M48
;Layer_Color=9474304
;FILE_FORMAT=2:4
INCH,TZ
;TYPE=PLATED
T1F00S00C0.0197
T2F00S00C0.0276
T3F00S00C0.0280
T4F00S00C0.0433
T5F00S00C0.1181
%
T01
X17860Y18690
X14784Y18885
T02
X15895Y24060
X16395
X16895
X17395
X17895
Y24560
X17395
X16895
X16395
X15895
T03
X16102Y18787
X16639Y19569
X19666Y20301
Y21375
X19569Y22156
X23572Y21228
X23962Y23376
X23376Y18299
X14345Y17323
X12791Y18869
X14784Y20398
X14345Y20984
X14980Y23620
T04
X24939Y19008
Y19992
Y20976
Y21961
T05
X26550Y24255
X11611Y16688
M30
