G04*
G04 #@! TF.GenerationSoftware,Altium Limited,Altium Designer,20.2.3 (150)*
G04*
G04 Layer_Color=65535*
%FSLAX24Y24*%
%MOIN*%
G70*
G04*
G04 #@! TF.SameCoordinates,A1FA694D-6CEF-4EEC-B524-7EF816075216*
G04*
G04*
G04 #@! TF.FilePolarity,Positive*
G04*
G01*
G75*
%ADD10C,0.0157*%
%ADD11C,0.0079*%
%ADD12C,0.0039*%
%ADD13C,0.0100*%
D10*
X13257Y22803D02*
X13203Y22878D01*
X13115Y22849D01*
Y22757D01*
X13203Y22728D01*
X13257Y22803D01*
D11*
X14773Y18593D02*
X15383D01*
X15521Y16602D02*
Y18532D01*
Y16602D02*
X16781D01*
Y18532D01*
X15521D02*
X16781D01*
X13739Y19988D02*
Y22469D01*
Y19988D02*
X16220D01*
Y22469D01*
X13739D02*
X16220D01*
X20920Y20887D02*
X21530D01*
X21668Y18897D02*
Y20826D01*
Y18897D02*
X22928D01*
Y20826D01*
X21668D02*
X22928D01*
X21174Y21845D02*
X22552D01*
X21174D02*
Y24404D01*
X22552D01*
Y21845D02*
Y24404D01*
X22759Y21894D02*
X23448D01*
X18250Y24560D02*
Y25038D01*
X15541D02*
X18250D01*
X15541Y23582D02*
Y25038D01*
Y23582D02*
X17895D01*
X24072Y18024D02*
Y21961D01*
Y18024D02*
X25568D01*
Y22945D01*
X24939D02*
X25568D01*
D12*
X12241Y20920D02*
Y22849D01*
X10981Y20959D02*
Y22888D01*
D13*
X22939Y17534D02*
X23339D01*
X23139D01*
Y16935D01*
X23839Y17534D02*
X23639D01*
X23539Y17434D01*
Y17035D01*
X23639Y16935D01*
X23839D01*
X23939Y17035D01*
Y17434D01*
X23839Y17534D01*
X24139Y16935D02*
Y17534D01*
X24439D01*
X24539Y17434D01*
Y17235D01*
X24439Y17135D01*
X24139D01*
X24339D02*
X24539Y16935D01*
X25139Y17434D02*
X25039Y17534D01*
X24839D01*
X24739Y17434D01*
Y17035D01*
X24839Y16935D01*
X25039D01*
X25139Y17035D01*
X25339Y17534D02*
Y16935D01*
Y17235D01*
X25738D01*
Y17534D01*
Y16935D01*
X25938Y17534D02*
X26138D01*
X26038D01*
Y16935D01*
X25938D01*
X26138D01*
X26838Y17434D02*
X26738Y17534D01*
X26538D01*
X26438Y17434D01*
Y17035D01*
X26538Y16935D01*
X26738D01*
X26838Y17035D01*
X22598Y16371D02*
Y16318D01*
X22703Y16213D01*
X22808Y16318D01*
Y16371D01*
X22703Y16213D02*
Y16056D01*
X22965Y16266D02*
X23070D01*
X23122Y16213D01*
Y16056D01*
X22965D01*
X22912Y16108D01*
X22965Y16161D01*
X23122D01*
X23227Y16056D02*
X23385D01*
X23437Y16108D01*
X23385Y16161D01*
X23280D01*
X23227Y16213D01*
X23280Y16266D01*
X23437D01*
X23542Y16056D02*
X23647D01*
X23595D01*
Y16266D01*
X23542D01*
X23857Y16318D02*
Y16266D01*
X23805D01*
X23910D01*
X23857D01*
Y16108D01*
X23910Y16056D01*
X24067Y16371D02*
Y16056D01*
Y16213D01*
X24119Y16266D01*
X24224D01*
X24277Y16213D01*
Y16056D01*
X24907Y16371D02*
X24697D01*
Y16056D01*
X24907D01*
X24697Y16213D02*
X24802D01*
X25012Y16056D02*
X25117D01*
X25064D01*
Y16371D01*
X25012D01*
X25274Y16056D02*
X25379D01*
X25326D01*
Y16371D01*
X25274D01*
X25694Y16056D02*
X25589D01*
X25536Y16108D01*
Y16213D01*
X25589Y16266D01*
X25694D01*
X25746Y16213D01*
Y16161D01*
X25536D01*
X25851Y16266D02*
Y16108D01*
X25904Y16056D01*
X25956Y16108D01*
X26009Y16056D01*
X26061Y16108D01*
Y16266D01*
X26323Y16056D02*
X26219D01*
X26166Y16108D01*
Y16213D01*
X26219Y16266D01*
X26323D01*
X26376Y16213D01*
Y16161D01*
X26166D01*
X26481Y16056D02*
X26586D01*
X26533D01*
Y16371D01*
X26481D01*
X26796Y16266D02*
X26901D01*
X26953Y16213D01*
Y16056D01*
X26796D01*
X26743Y16108D01*
X26796Y16161D01*
X26953D01*
X17165Y19757D02*
Y20357D01*
X17465D01*
X17565Y20257D01*
Y20057D01*
X17465Y19957D01*
X17165D01*
X17365D02*
X17565Y19757D01*
X18164D02*
X17765D01*
X18164Y20157D01*
Y20257D01*
X18064Y20357D01*
X17865D01*
X17765Y20257D01*
X18143Y15705D02*
Y16305D01*
X18443D01*
X18543Y16205D01*
Y16005D01*
X18443Y15905D01*
X18143D01*
X18343D02*
X18543Y15705D01*
X18743D02*
X18943D01*
X18843D01*
Y16305D01*
X18743Y16205D01*
X14376Y16353D02*
X14576D01*
X14476D01*
Y15754D01*
X14376D01*
X14576D01*
X15276Y16253D02*
X15176Y16353D01*
X14976D01*
X14876Y16253D01*
Y15854D01*
X14976Y15754D01*
X15176D01*
X15276Y15854D01*
X15776Y15754D02*
Y16353D01*
X15476Y16054D01*
X15876D01*
X19853Y17913D02*
X19753Y18013D01*
X19553D01*
X19453Y17913D01*
Y17513D01*
X19553Y17413D01*
X19753D01*
X19853Y17513D01*
X20053Y17413D02*
X20253D01*
X20153D01*
Y18013D01*
X20053Y17913D01*
X20553D02*
X20653Y18013D01*
X20853D01*
X20953Y17913D01*
Y17513D01*
X20853Y17413D01*
X20653D01*
X20553Y17513D01*
Y17913D01*
X19859Y18743D02*
X19759Y18843D01*
X19559D01*
X19459Y18743D01*
Y18343D01*
X19559Y18243D01*
X19759D01*
X19859Y18343D01*
X20059D02*
X20159Y18243D01*
X20359D01*
X20459Y18343D01*
Y18743D01*
X20359Y18843D01*
X20159D01*
X20059Y18743D01*
Y18643D01*
X20159Y18543D01*
X20459D01*
X19859Y17083D02*
X19759Y17183D01*
X19559D01*
X19459Y17083D01*
Y16684D01*
X19559Y16584D01*
X19759D01*
X19859Y16684D01*
X20059Y17083D02*
X20159Y17183D01*
X20359D01*
X20459Y17083D01*
Y16983D01*
X20359Y16883D01*
X20459Y16783D01*
Y16684D01*
X20359Y16584D01*
X20159D01*
X20059Y16684D01*
Y16783D01*
X20159Y16883D01*
X20059Y16983D01*
Y17083D01*
X20159Y16883D02*
X20359D01*
X10577Y20601D02*
Y20501D01*
X10776Y20301D01*
X10976Y20501D01*
Y20601D01*
X10776Y20301D02*
Y20001D01*
X11176D02*
X11376D01*
X11276D01*
Y20601D01*
X11176Y20501D01*
X17369Y23286D02*
X17169D01*
X17269D01*
Y22786D01*
X17169Y22686D01*
X17069D01*
X16969Y22786D01*
X17969Y22686D02*
X17569D01*
X17969Y23086D01*
Y23186D01*
X17869Y23286D01*
X17669D01*
X17569Y23186D01*
X26354Y21919D02*
X26154D01*
X26254D01*
Y21419D01*
X26154Y21319D01*
X26054D01*
X25954Y21419D01*
X26554Y21319D02*
X26754D01*
X26654D01*
Y21919D01*
X26554Y21819D01*
X21455Y18697D02*
X21655D01*
X21555D01*
Y18097D01*
X21455D01*
X21655D01*
X22355Y18597D02*
X22255Y18697D01*
X22055D01*
X21955Y18597D01*
Y18197D01*
X22055Y18097D01*
X22255D01*
X22355Y18197D01*
X22555Y18597D02*
X22655Y18697D01*
X22855D01*
X22954Y18597D01*
Y18497D01*
X22855Y18397D01*
X22755D01*
X22855D01*
X22954Y18297D01*
Y18197D01*
X22855Y18097D01*
X22655D01*
X22555Y18197D01*
X17218Y20869D02*
Y21069D01*
Y20969D01*
X17818D01*
Y20869D01*
Y21069D01*
X17318Y21769D02*
X17218Y21669D01*
Y21469D01*
X17318Y21369D01*
X17718D01*
X17818Y21469D01*
Y21669D01*
X17718Y21769D01*
X17818Y22369D02*
Y21969D01*
X17418Y22369D01*
X17318D01*
X17218Y22269D01*
Y22069D01*
X17318Y21969D01*
X21164Y25287D02*
X21364D01*
X21264D01*
Y24688D01*
X21164D01*
X21364D01*
X22064Y25187D02*
X21964Y25287D01*
X21764D01*
X21664Y25187D01*
Y24787D01*
X21764Y24688D01*
X21964D01*
X22064Y24787D01*
X22264Y24688D02*
X22464D01*
X22364D01*
Y25287D01*
X22264Y25187D01*
X11365Y19085D02*
X11265Y19185D01*
X11065D01*
X10965Y19085D01*
Y18685D01*
X11065Y18585D01*
X11265D01*
X11365Y18685D01*
X11565Y19185D02*
X11964D01*
Y19085D01*
X11565Y18685D01*
Y18585D01*
X11169Y24992D02*
X11069Y25092D01*
X10869D01*
X10769Y24992D01*
Y24592D01*
X10869Y24492D01*
X11069D01*
X11169Y24592D01*
X11769Y25092D02*
X11569Y24992D01*
X11369Y24792D01*
Y24592D01*
X11469Y24492D01*
X11669D01*
X11769Y24592D01*
Y24692D01*
X11669Y24792D01*
X11369D01*
X18883Y19720D02*
X18783Y19820D01*
X18583D01*
X18483Y19720D01*
Y19320D01*
X18583Y19220D01*
X18783D01*
X18883Y19320D01*
X19483Y19820D02*
X19083D01*
Y19520D01*
X19283Y19620D01*
X19383D01*
X19483Y19520D01*
Y19320D01*
X19383Y19220D01*
X19183D01*
X19083Y19320D01*
X14780Y24497D02*
X14680Y24397D01*
Y24197D01*
X14780Y24097D01*
X15179D01*
X15279Y24197D01*
Y24397D01*
X15179Y24497D01*
X15279Y24997D02*
X14680D01*
X14980Y24697D01*
Y25097D01*
X18783Y23325D02*
X18683Y23225D01*
Y23025D01*
X18783Y22925D01*
X19183D01*
X19283Y23025D01*
Y23225D01*
X19183Y23325D01*
X18783Y23525D02*
X18683Y23625D01*
Y23825D01*
X18783Y23925D01*
X18883D01*
X18983Y23825D01*
Y23725D01*
Y23825D01*
X19083Y23925D01*
X19183D01*
X19283Y23825D01*
Y23625D01*
X19183Y23525D01*
X12339Y24106D02*
X12239Y24006D01*
Y23806D01*
X12339Y23706D01*
X12739D01*
X12838Y23806D01*
Y24006D01*
X12739Y24106D01*
X12838Y24706D02*
Y24306D01*
X12439Y24706D01*
X12339D01*
X12239Y24606D01*
Y24406D01*
X12339Y24306D01*
X23030Y24890D02*
X22930Y24790D01*
Y24590D01*
X23030Y24490D01*
X23430D01*
X23530Y24590D01*
Y24790D01*
X23430Y24890D01*
X23530Y25090D02*
Y25290D01*
Y25190D01*
X22930D01*
X23030Y25090D01*
M02*
