M48
;Layer_Color=9474304
;FILE_FORMAT=2:4
INCH,TZ
;TYPE=PLATED
T1F00S00C0.0280
T2F00S00C0.0354
T3F00S00C0.1181
%
T01
X18658Y16846
X20430Y18617
X21217Y19405
Y20192
X21414Y21176
X23186Y20192
X25942Y21373
X22202Y17043
Y16255
X13737Y19405
X11178Y24720
T02
X16674Y16255
X17674
X19383Y24326
X20383
X21383
X22383
X23383
X24383
X26926Y21586
Y20586
Y19586
Y18586
X14918Y16255
X13918
X12359Y20783
X11359
X11202Y23814
X12202
T03
X26550Y24255
X11611Y16688
M30
