G04*
G04 #@! TF.GenerationSoftware,Altium Limited,Altium Designer,21.0.9 (235)*
G04*
G04 Layer_Physical_Order=2*
G04 Layer_Color=16711680*
%FSLAX24Y24*%
%MOIN*%
G70*
G04*
G04 #@! TF.SameCoordinates,1426A075-E80E-4D23-AB6D-1C87A62E9550*
G04*
G04*
G04 #@! TF.FilePolarity,Positive*
G04*
G01*
G75*
%ADD13C,0.0100*%
%ADD39R,0.0591X0.0591*%
%ADD40C,0.0591*%
%ADD41R,0.0591X0.0591*%
%ADD42C,0.2362*%
%ADD43C,0.0500*%
G36*
X26083Y25426D02*
X25976Y25381D01*
X25807Y25278D01*
X25656Y25149D01*
X25527Y24998D01*
X25424Y24829D01*
X25348Y24646D01*
X25301Y24453D01*
X25286Y24255D01*
X25301Y24057D01*
X25348Y23865D01*
X25424Y23681D01*
X25527Y23512D01*
X25656Y23362D01*
X25807Y23233D01*
X25976Y23129D01*
X26159Y23053D01*
X26352Y23007D01*
X26550Y22991D01*
X26747Y23007D01*
X26940Y23053D01*
X27123Y23129D01*
X27292Y23233D01*
X27443Y23362D01*
X27572Y23512D01*
X27676Y23681D01*
X27720Y23789D01*
X27770Y23779D01*
Y16468D01*
Y16369D01*
X27732Y16176D01*
X27656Y15994D01*
X27547Y15830D01*
X27408Y15691D01*
X27244Y15582D01*
X27062Y15506D01*
X26869Y15468D01*
X12087D01*
X12077Y15518D01*
X12185Y15562D01*
X12354Y15666D01*
X12505Y15795D01*
X12633Y15945D01*
X12737Y16114D01*
X12813Y16298D01*
X12859Y16490D01*
X12875Y16688D01*
X12859Y16886D01*
X12813Y17079D01*
X12737Y17262D01*
X12633Y17431D01*
X12505Y17582D01*
X12354Y17711D01*
X12185Y17814D01*
X12002Y17890D01*
X11809Y17936D01*
X11611Y17952D01*
X11413Y17936D01*
X11221Y17890D01*
X11037Y17814D01*
X10868Y17711D01*
X10717Y17582D01*
X10589Y17431D01*
X10485Y17262D01*
X10441Y17155D01*
X10391Y17164D01*
Y24476D01*
Y24574D01*
X10429Y24767D01*
X10504Y24949D01*
X10614Y25113D01*
X10753Y25252D01*
X10917Y25362D01*
X11099Y25437D01*
X11292Y25476D01*
X26073D01*
X26083Y25426D01*
D02*
G37*
%LPC*%
G36*
X19387Y25245D02*
X13343D01*
X13293Y25235D01*
X13250Y25206D01*
X12895Y24851D01*
X11479D01*
X11465Y24885D01*
X11412Y24954D01*
X11344Y25007D01*
X11264Y25040D01*
X11178Y25051D01*
X11092Y25040D01*
X11012Y25007D01*
X10943Y24954D01*
X10891Y24885D01*
X10858Y24806D01*
X10846Y24720D01*
X10858Y24634D01*
X10891Y24554D01*
X10943Y24485D01*
X11012Y24433D01*
X11092Y24399D01*
X11178Y24388D01*
X11264Y24399D01*
X11344Y24433D01*
X11412Y24485D01*
X11465Y24554D01*
X11479Y24588D01*
X12950D01*
X13000Y24598D01*
X13042Y24627D01*
X13398Y24982D01*
X19314D01*
Y24700D01*
X19009D01*
Y23952D01*
X19118D01*
Y20251D01*
X19128Y20200D01*
X19156Y20158D01*
X19215Y20099D01*
X19257Y20071D01*
X19307Y20061D01*
X20916D01*
X20930Y20026D01*
X20983Y19958D01*
X21052Y19905D01*
X21132Y19872D01*
X21217Y19861D01*
X21303Y19872D01*
X21338Y19886D01*
X21715Y19509D01*
X21758Y19480D01*
X21808Y19470D01*
X22070D01*
Y17344D01*
X22036Y17330D01*
X21967Y17277D01*
X21914Y17208D01*
X21881Y17128D01*
X21870Y17043D01*
X21881Y16957D01*
X21914Y16877D01*
X21967Y16808D01*
X22036Y16755D01*
X22116Y16722D01*
X22202Y16711D01*
X22287Y16722D01*
X22367Y16755D01*
X22436Y16808D01*
X22489Y16877D01*
X22522Y16957D01*
X22533Y17043D01*
X22522Y17128D01*
X22489Y17208D01*
X22436Y17277D01*
X22367Y17330D01*
X22333Y17344D01*
Y19543D01*
X22323Y19593D01*
X22294Y19636D01*
X22236Y19694D01*
X22193Y19723D01*
X22143Y19733D01*
X21862D01*
X21523Y20072D01*
X21538Y20106D01*
X21549Y20192D01*
X21538Y20278D01*
X21504Y20358D01*
X21452Y20427D01*
X21383Y20479D01*
X21303Y20512D01*
X21217Y20524D01*
X21132Y20512D01*
X21052Y20479D01*
X20983Y20427D01*
X20930Y20358D01*
X20916Y20323D01*
X19380D01*
Y23952D01*
X19757D01*
Y24700D01*
X19577D01*
Y25055D01*
X19567Y25105D01*
X19538Y25148D01*
X19480Y25206D01*
X19437Y25235D01*
X19387Y25245D01*
D02*
G37*
G36*
X21433Y24718D02*
Y24376D01*
X21775D01*
X21768Y24429D01*
X21728Y24525D01*
X21665Y24608D01*
X21582Y24671D01*
X21486Y24711D01*
X21433Y24718D01*
D02*
G37*
G36*
X21333D02*
X21279Y24711D01*
X21183Y24671D01*
X21101Y24608D01*
X21037Y24525D01*
X20998Y24429D01*
X20991Y24376D01*
X21333D01*
Y24718D01*
D02*
G37*
G36*
X24383Y24703D02*
X24285Y24690D01*
X24194Y24653D01*
X24116Y24593D01*
X24056Y24515D01*
X24018Y24424D01*
X24005Y24326D01*
X24018Y24228D01*
X24056Y24137D01*
X24116Y24059D01*
X24194Y23999D01*
X24285Y23962D01*
X24383Y23949D01*
X24480Y23962D01*
X24571Y23999D01*
X24649Y24059D01*
X24709Y24137D01*
X24747Y24228D01*
X24760Y24326D01*
X24747Y24424D01*
X24709Y24515D01*
X24649Y24593D01*
X24571Y24653D01*
X24480Y24690D01*
X24383Y24703D01*
D02*
G37*
G36*
X23383D02*
X23285Y24690D01*
X23194Y24653D01*
X23116Y24593D01*
X23056Y24515D01*
X23018Y24424D01*
X23005Y24326D01*
X23018Y24228D01*
X23056Y24137D01*
X23116Y24059D01*
X23194Y23999D01*
X23285Y23962D01*
X23383Y23949D01*
X23480Y23962D01*
X23571Y23999D01*
X23649Y24059D01*
X23709Y24137D01*
X23747Y24228D01*
X23760Y24326D01*
X23747Y24424D01*
X23709Y24515D01*
X23649Y24593D01*
X23571Y24653D01*
X23480Y24690D01*
X23383Y24703D01*
D02*
G37*
G36*
X22383D02*
X22285Y24690D01*
X22194Y24653D01*
X22116Y24593D01*
X22056Y24515D01*
X22018Y24424D01*
X22005Y24326D01*
X22018Y24228D01*
X22056Y24137D01*
X22116Y24059D01*
X22194Y23999D01*
X22285Y23962D01*
X22383Y23949D01*
X22480Y23962D01*
X22571Y23999D01*
X22649Y24059D01*
X22709Y24137D01*
X22747Y24228D01*
X22760Y24326D01*
X22747Y24424D01*
X22709Y24515D01*
X22649Y24593D01*
X22571Y24653D01*
X22480Y24690D01*
X22383Y24703D01*
D02*
G37*
G36*
X20383D02*
X20285Y24690D01*
X20194Y24653D01*
X20116Y24593D01*
X20056Y24515D01*
X20018Y24424D01*
X20005Y24326D01*
X20018Y24228D01*
X20056Y24137D01*
X20116Y24059D01*
X20194Y23999D01*
X20285Y23962D01*
X20383Y23949D01*
X20480Y23962D01*
X20571Y23999D01*
X20649Y24059D01*
X20709Y24137D01*
X20747Y24228D01*
X20760Y24326D01*
X20747Y24424D01*
X20709Y24515D01*
X20649Y24593D01*
X20571Y24653D01*
X20480Y24690D01*
X20383Y24703D01*
D02*
G37*
G36*
X21775Y24276D02*
X21433D01*
Y23934D01*
X21486Y23941D01*
X21582Y23981D01*
X21665Y24044D01*
X21728Y24127D01*
X21768Y24223D01*
X21775Y24276D01*
D02*
G37*
G36*
X21333D02*
X20991D01*
X20998Y24223D01*
X21037Y24127D01*
X21101Y24044D01*
X21183Y23981D01*
X21279Y23941D01*
X21333Y23934D01*
Y24276D01*
D02*
G37*
G36*
X12252Y24206D02*
Y23864D01*
X12594D01*
X12587Y23917D01*
X12547Y24014D01*
X12483Y24096D01*
X12401Y24159D01*
X12305Y24199D01*
X12252Y24206D01*
D02*
G37*
G36*
X12152D02*
X12098Y24199D01*
X12002Y24159D01*
X11920Y24096D01*
X11856Y24014D01*
X11816Y23917D01*
X11809Y23864D01*
X12152D01*
Y24206D01*
D02*
G37*
G36*
X11576Y24188D02*
X10828D01*
Y23440D01*
X11576D01*
Y24188D01*
D02*
G37*
G36*
X12594Y23764D02*
X12252D01*
Y23422D01*
X12305Y23429D01*
X12401Y23469D01*
X12483Y23532D01*
X12547Y23615D01*
X12587Y23711D01*
X12594Y23764D01*
D02*
G37*
G36*
X12152D02*
X11809D01*
X11816Y23711D01*
X11856Y23615D01*
X11920Y23532D01*
X12002Y23469D01*
X12098Y23429D01*
X12152Y23422D01*
Y23764D01*
D02*
G37*
G36*
X25992Y21720D02*
Y21423D01*
X26288D01*
X26283Y21465D01*
X26247Y21550D01*
X26191Y21623D01*
X26118Y21679D01*
X26033Y21714D01*
X25992Y21720D01*
D02*
G37*
G36*
X25892D02*
X25850Y21714D01*
X25765Y21679D01*
X25692Y21623D01*
X25636Y21550D01*
X25601Y21465D01*
X25595Y21423D01*
X25892D01*
Y21720D01*
D02*
G37*
G36*
X21464Y21523D02*
Y21226D01*
X21761D01*
X21755Y21268D01*
X21720Y21353D01*
X21664Y21426D01*
X21591Y21482D01*
X21506Y21517D01*
X21464Y21523D01*
D02*
G37*
G36*
X21364D02*
X21323Y21517D01*
X21238Y21482D01*
X21165Y21426D01*
X21108Y21353D01*
X21073Y21268D01*
X21068Y21226D01*
X21364D01*
Y21523D01*
D02*
G37*
G36*
X27300Y21960D02*
X26552D01*
Y21212D01*
X27300D01*
Y21960D01*
D02*
G37*
G36*
X26288Y21323D02*
X25992D01*
Y21027D01*
X26033Y21032D01*
X26118Y21068D01*
X26191Y21124D01*
X26247Y21197D01*
X26283Y21282D01*
X26288Y21323D01*
D02*
G37*
G36*
X25892D02*
X25595D01*
X25601Y21282D01*
X25636Y21197D01*
X25692Y21124D01*
X25765Y21068D01*
X25850Y21032D01*
X25892Y21027D01*
Y21323D01*
D02*
G37*
G36*
X12409Y21175D02*
Y20833D01*
X12751D01*
X12744Y20886D01*
X12704Y20982D01*
X12641Y21065D01*
X12558Y21128D01*
X12462Y21168D01*
X12409Y21175D01*
D02*
G37*
G36*
X12309D02*
X12256Y21168D01*
X12160Y21128D01*
X12077Y21065D01*
X12014Y20982D01*
X11974Y20886D01*
X11967Y20833D01*
X12309D01*
Y21175D01*
D02*
G37*
G36*
X21761Y21126D02*
X21464D01*
Y20830D01*
X21506Y20835D01*
X21591Y20871D01*
X21664Y20927D01*
X21720Y21000D01*
X21755Y21085D01*
X21761Y21126D01*
D02*
G37*
G36*
X21364D02*
X21068D01*
X21073Y21085D01*
X21108Y21000D01*
X21165Y20927D01*
X21238Y20871D01*
X21323Y20835D01*
X21364Y20830D01*
Y21126D01*
D02*
G37*
G36*
X26976Y20978D02*
Y20636D01*
X27318D01*
X27311Y20689D01*
X27271Y20785D01*
X27208Y20868D01*
X27125Y20931D01*
X27029Y20971D01*
X26976Y20978D01*
D02*
G37*
G36*
X26876D02*
X26823Y20971D01*
X26727Y20931D01*
X26644Y20868D01*
X26581Y20785D01*
X26541Y20689D01*
X26534Y20636D01*
X26876D01*
Y20978D01*
D02*
G37*
G36*
X11733Y21157D02*
X10985D01*
Y20409D01*
X11733D01*
Y21157D01*
D02*
G37*
G36*
X12751Y20733D02*
X12409D01*
Y20391D01*
X12462Y20398D01*
X12558Y20437D01*
X12641Y20501D01*
X12704Y20583D01*
X12744Y20679D01*
X12751Y20733D01*
D02*
G37*
G36*
X12309D02*
X11967D01*
X11974Y20679D01*
X12014Y20583D01*
X12077Y20501D01*
X12160Y20437D01*
X12256Y20398D01*
X12309Y20391D01*
Y20733D01*
D02*
G37*
G36*
X23236Y20539D02*
Y20242D01*
X23532D01*
X23527Y20283D01*
X23492Y20369D01*
X23435Y20442D01*
X23362Y20498D01*
X23277Y20533D01*
X23236Y20539D01*
D02*
G37*
G36*
X23136D02*
X23094Y20533D01*
X23009Y20498D01*
X22936Y20442D01*
X22880Y20369D01*
X22845Y20283D01*
X22839Y20242D01*
X23136D01*
Y20539D01*
D02*
G37*
G36*
X26876Y20536D02*
X26534D01*
X26541Y20483D01*
X26581Y20386D01*
X26644Y20304D01*
X26727Y20241D01*
X26823Y20201D01*
X26876Y20194D01*
Y20536D01*
D02*
G37*
G36*
X27318D02*
X26976D01*
Y20194D01*
X27029Y20201D01*
X27125Y20241D01*
X27208Y20304D01*
X27271Y20386D01*
X27311Y20483D01*
X27318Y20536D01*
D02*
G37*
G36*
X23532Y20142D02*
X23236D01*
Y19846D01*
X23277Y19851D01*
X23362Y19886D01*
X23435Y19943D01*
X23492Y20016D01*
X23527Y20101D01*
X23532Y20142D01*
D02*
G37*
G36*
X23136D02*
X22839D01*
X22845Y20101D01*
X22880Y20016D01*
X22936Y19943D01*
X23009Y19886D01*
X23094Y19851D01*
X23136Y19846D01*
Y20142D01*
D02*
G37*
G36*
X21267Y19751D02*
Y19455D01*
X21564D01*
X21558Y19496D01*
X21523Y19581D01*
X21467Y19654D01*
X21394Y19710D01*
X21309Y19746D01*
X21267Y19751D01*
D02*
G37*
G36*
X21167D02*
X21126Y19746D01*
X21041Y19710D01*
X20968Y19654D01*
X20912Y19581D01*
X20876Y19496D01*
X20871Y19455D01*
X21167D01*
Y19751D01*
D02*
G37*
G36*
X13787D02*
Y19455D01*
X14083D01*
X14078Y19496D01*
X14043Y19581D01*
X13987Y19654D01*
X13914Y19710D01*
X13828Y19746D01*
X13787Y19751D01*
D02*
G37*
G36*
X13687D02*
X13646Y19746D01*
X13561Y19710D01*
X13487Y19654D01*
X13431Y19581D01*
X13396Y19496D01*
X13391Y19455D01*
X13687D01*
Y19751D01*
D02*
G37*
G36*
X26926Y19963D02*
X26828Y19950D01*
X26737Y19913D01*
X26659Y19853D01*
X26599Y19774D01*
X26562Y19683D01*
X26549Y19586D01*
X26562Y19488D01*
X26599Y19397D01*
X26659Y19319D01*
X26737Y19259D01*
X26828Y19221D01*
X26926Y19209D01*
X27024Y19221D01*
X27115Y19259D01*
X27193Y19319D01*
X27253Y19397D01*
X27290Y19488D01*
X27303Y19586D01*
X27290Y19683D01*
X27253Y19774D01*
X27193Y19853D01*
X27115Y19913D01*
X27024Y19950D01*
X26926Y19963D01*
D02*
G37*
G36*
X21564Y19355D02*
X21267D01*
Y19058D01*
X21309Y19064D01*
X21394Y19099D01*
X21467Y19155D01*
X21523Y19228D01*
X21558Y19313D01*
X21564Y19355D01*
D02*
G37*
G36*
X21167D02*
X20871D01*
X20876Y19313D01*
X20912Y19228D01*
X20968Y19155D01*
X21041Y19099D01*
X21126Y19064D01*
X21167Y19058D01*
Y19355D01*
D02*
G37*
G36*
X14083D02*
X13787D01*
Y19058D01*
X13828Y19064D01*
X13914Y19099D01*
X13987Y19155D01*
X14043Y19228D01*
X14078Y19313D01*
X14083Y19355D01*
D02*
G37*
G36*
X13687D02*
X13391D01*
X13396Y19313D01*
X13431Y19228D01*
X13487Y19155D01*
X13561Y19099D01*
X13646Y19064D01*
X13687Y19058D01*
Y19355D01*
D02*
G37*
G36*
X20480Y18964D02*
Y18667D01*
X20776D01*
X20771Y18709D01*
X20736Y18794D01*
X20680Y18867D01*
X20606Y18923D01*
X20521Y18958D01*
X20480Y18964D01*
D02*
G37*
G36*
X20380D02*
X20339Y18958D01*
X20253Y18923D01*
X20180Y18867D01*
X20124Y18794D01*
X20089Y18709D01*
X20083Y18667D01*
X20380D01*
Y18964D01*
D02*
G37*
G36*
X20776Y18567D02*
X20480D01*
Y18271D01*
X20521Y18276D01*
X20606Y18312D01*
X20680Y18368D01*
X20736Y18441D01*
X20771Y18526D01*
X20776Y18567D01*
D02*
G37*
G36*
X20380D02*
X20083D01*
X20089Y18526D01*
X20124Y18441D01*
X20180Y18368D01*
X20253Y18312D01*
X20339Y18276D01*
X20380Y18271D01*
Y18567D01*
D02*
G37*
G36*
X26926Y18963D02*
X26828Y18950D01*
X26737Y18913D01*
X26659Y18853D01*
X26599Y18774D01*
X26562Y18683D01*
X26549Y18586D01*
X26562Y18488D01*
X26599Y18397D01*
X26659Y18319D01*
X26737Y18259D01*
X26828Y18221D01*
X26926Y18209D01*
X27024Y18221D01*
X27115Y18259D01*
X27193Y18319D01*
X27253Y18397D01*
X27290Y18488D01*
X27303Y18586D01*
X27290Y18683D01*
X27253Y18774D01*
X27193Y18853D01*
X27115Y18913D01*
X27024Y18950D01*
X26926Y18963D01*
D02*
G37*
G36*
X18708Y17192D02*
Y16896D01*
X19005D01*
X18999Y16937D01*
X18964Y17022D01*
X18908Y17095D01*
X18835Y17151D01*
X18750Y17187D01*
X18708Y17192D01*
D02*
G37*
G36*
X18608D02*
X18567Y17187D01*
X18482Y17151D01*
X18409Y17095D01*
X18353Y17022D01*
X18317Y16937D01*
X18312Y16896D01*
X18608D01*
Y17192D01*
D02*
G37*
G36*
X19005Y16796D02*
X18708D01*
Y16499D01*
X18750Y16505D01*
X18835Y16540D01*
X18908Y16596D01*
X18964Y16669D01*
X18999Y16754D01*
X19005Y16796D01*
D02*
G37*
G36*
X18608D02*
X18312D01*
X18317Y16754D01*
X18353Y16669D01*
X18409Y16596D01*
X18482Y16540D01*
X18567Y16505D01*
X18608Y16499D01*
Y16796D01*
D02*
G37*
G36*
X13968Y16647D02*
Y16305D01*
X14310D01*
X14303Y16358D01*
X14263Y16454D01*
X14200Y16537D01*
X14117Y16600D01*
X14021Y16640D01*
X13968Y16647D01*
D02*
G37*
G36*
X16724D02*
Y16305D01*
X17066D01*
X17059Y16358D01*
X17019Y16454D01*
X16956Y16537D01*
X16873Y16600D01*
X16777Y16640D01*
X16724Y16647D01*
D02*
G37*
G36*
X22252Y16602D02*
Y16305D01*
X22548D01*
X22543Y16346D01*
X22507Y16432D01*
X22451Y16505D01*
X22378Y16561D01*
X22293Y16596D01*
X22252Y16602D01*
D02*
G37*
G36*
X22152D02*
X22110Y16596D01*
X22025Y16561D01*
X21952Y16505D01*
X21896Y16432D01*
X21861Y16346D01*
X21855Y16305D01*
X22152D01*
Y16602D01*
D02*
G37*
G36*
X13868Y16647D02*
X13815Y16640D01*
X13719Y16600D01*
X13636Y16537D01*
X13573Y16454D01*
X13533Y16358D01*
X13526Y16305D01*
X13868D01*
Y16647D01*
D02*
G37*
G36*
X16624D02*
X16571Y16640D01*
X16475Y16600D01*
X16392Y16537D01*
X16329Y16454D01*
X16289Y16358D01*
X16282Y16305D01*
X16624D01*
Y16647D01*
D02*
G37*
G36*
X22548Y16205D02*
X22252D01*
Y15909D01*
X22293Y15914D01*
X22378Y15949D01*
X22451Y16006D01*
X22507Y16079D01*
X22543Y16164D01*
X22548Y16205D01*
D02*
G37*
G36*
X22152D02*
X21855D01*
X21861Y16164D01*
X21896Y16079D01*
X21952Y16006D01*
X22025Y15949D01*
X22110Y15914D01*
X22152Y15909D01*
Y16205D01*
D02*
G37*
G36*
X18048Y16629D02*
X17300D01*
Y15881D01*
X18048D01*
Y16629D01*
D02*
G37*
G36*
X15292D02*
X14544D01*
Y15881D01*
X15292D01*
Y16629D01*
D02*
G37*
G36*
X17066Y16205D02*
X16724D01*
Y15863D01*
X16777Y15870D01*
X16873Y15910D01*
X16956Y15973D01*
X17019Y16056D01*
X17059Y16152D01*
X17066Y16205D01*
D02*
G37*
G36*
X14310D02*
X13968D01*
Y15863D01*
X14021Y15870D01*
X14117Y15910D01*
X14200Y15973D01*
X14263Y16056D01*
X14303Y16152D01*
X14310Y16205D01*
D02*
G37*
G36*
X16624D02*
X16282D01*
X16289Y16152D01*
X16329Y16056D01*
X16392Y15973D01*
X16475Y15910D01*
X16571Y15870D01*
X16624Y15863D01*
Y16205D01*
D02*
G37*
G36*
X13868D02*
X13526D01*
X13533Y16152D01*
X13573Y16056D01*
X13636Y15973D01*
X13719Y15910D01*
X13815Y15870D01*
X13868Y15863D01*
Y16205D01*
D02*
G37*
%LPD*%
D13*
X19383Y24326D02*
X19446Y24389D01*
Y25055D01*
X19387Y25113D02*
X19446Y25055D01*
X13343Y25113D02*
X19387D01*
X12950Y24720D02*
X13343Y25113D01*
X11178Y24720D02*
X12950D01*
X19249Y24192D02*
X19383Y24326D01*
X19249Y20251D02*
Y24192D01*
X19307Y20192D02*
X21217D01*
X19249Y20251D02*
X19307Y20192D01*
X21808Y19602D02*
X22143D01*
X22202Y17043D02*
Y19543D01*
X22143Y19602D02*
X22202Y19543D01*
X21217Y20192D02*
X21808Y19602D01*
D39*
X17674Y16255D02*
D03*
X14918D02*
D03*
X11359Y20783D02*
D03*
X11202Y23814D02*
D03*
X19383Y24326D02*
D03*
D40*
X16674Y16255D02*
D03*
X13918D02*
D03*
X12359Y20783D02*
D03*
X12202Y23814D02*
D03*
X24383Y24326D02*
D03*
X23383D02*
D03*
X22383D02*
D03*
X21383D02*
D03*
X20383D02*
D03*
X26926Y20586D02*
D03*
Y19586D02*
D03*
Y18586D02*
D03*
D41*
Y21586D02*
D03*
D42*
X26550Y24255D02*
D03*
X11611Y16688D02*
D03*
D43*
X18658Y16846D02*
D03*
X22202Y16255D02*
D03*
X25942Y21373D02*
D03*
X23186Y20192D02*
D03*
X21414Y21176D02*
D03*
X20430Y18617D02*
D03*
X21217Y19405D02*
D03*
X13737D02*
D03*
X11178Y24720D02*
D03*
X22202Y17043D02*
D03*
X21217Y20192D02*
D03*
M02*
