G04*
G04 #@! TF.GenerationSoftware,Altium Limited,Altium Designer,21.0.9 (235)*
G04*
G04 Layer_Color=16711935*
%FSLAX24Y24*%
%MOIN*%
G70*
G04*
G04 #@! TF.SameCoordinates,1426A075-E80E-4D23-AB6D-1C87A62E9550*
G04*
G04*
G04 #@! TF.FilePolarity,Positive*
G04*
G01*
G75*
%ADD44C,0.0039*%
D44*
X17083Y23735D02*
Y24523D01*
X17556Y23735D02*
Y24523D01*
X17083Y23735D02*
X17556D01*
X17083Y24523D02*
X17556D01*
X13461Y23696D02*
Y24483D01*
X13934Y23696D02*
Y24483D01*
X13461Y23696D02*
X13934D01*
X13461Y24483D02*
X13934D01*
X16690Y22633D02*
X17005Y22318D01*
X14249Y22633D02*
X17005D01*
X14249Y19877D02*
Y22633D01*
Y19877D02*
X17005D01*
Y22633D01*
X11148Y21728D02*
X11936D01*
X11148Y22200D02*
X11936D01*
Y21728D02*
Y22200D01*
X11148Y21728D02*
Y22200D01*
X12398Y21846D02*
Y22476D01*
X12713Y21846D02*
Y22476D01*
X12398Y21846D02*
X12713D01*
X12398Y22476D02*
X12713D01*
X11030Y22869D02*
X11660D01*
X11030Y22554D02*
X11660D01*
X11030D02*
Y22869D01*
X11660Y22554D02*
Y22869D01*
X12172Y19444D02*
X12802D01*
X12172Y19759D02*
X12802D01*
Y19444D02*
Y19759D01*
X12172Y19444D02*
Y19759D01*
X10932D02*
X11562D01*
X10932Y19444D02*
X11562D01*
X10932D02*
Y19759D01*
X11562Y19444D02*
Y19759D01*
X11011Y18578D02*
X11798D01*
X11011Y19050D02*
X11798D01*
Y18578D02*
Y19050D01*
X11011Y18578D02*
Y19050D01*
X13570Y17476D02*
X14357D01*
X13570Y17003D02*
X14357D01*
X13570D02*
Y17476D01*
X14357Y17003D02*
Y17476D01*
X13550Y18184D02*
X14180D01*
X13550Y17869D02*
X14180D01*
X13550D02*
Y18184D01*
X14180Y17869D02*
Y18184D01*
X14731Y17869D02*
X15361D01*
X14731Y18184D02*
X15361D01*
Y17869D02*
Y18184D01*
X14731Y17869D02*
Y18184D01*
X16267Y17476D02*
X17054D01*
X16267Y17003D02*
X17054D01*
X16267D02*
Y17476D01*
X17054Y17003D02*
Y17476D01*
X16178Y18184D02*
X16808D01*
X16178Y17869D02*
X16808D01*
X16178D02*
Y18184D01*
X16808Y17869D02*
Y18184D01*
X17428Y17869D02*
X18058D01*
X17428Y18184D02*
X18058D01*
Y17869D02*
Y18184D01*
X17428Y17869D02*
Y18184D01*
X20627Y16688D02*
X21414D01*
X20627Y16216D02*
X21414D01*
X20627D02*
Y16688D01*
X21414Y16216D02*
Y16688D01*
X19081Y16216D02*
X19869D01*
X19081Y16688D02*
X19869D01*
Y16216D02*
Y16688D01*
X19081Y16216D02*
Y16688D01*
X19544Y19031D02*
X21080D01*
Y17102D02*
Y19031D01*
X19544Y17102D02*
X21080D01*
X19544D02*
Y19031D01*
Y18531D02*
X20044Y19031D01*
X21769Y20192D02*
Y20980D01*
X22241Y20192D02*
Y20980D01*
X21769Y20192D02*
X22241D01*
X21769Y20980D02*
X22241D01*
X25312Y20163D02*
Y20950D01*
X25784Y20163D02*
Y20950D01*
X25312Y20163D02*
X25784D01*
X25312Y20950D02*
X25784D01*
X22497Y20606D02*
X23402Y19700D01*
X22497D02*
X25056D01*
Y21078D01*
X22497D02*
X25056D01*
X22497Y19700D02*
Y21078D01*
M02*
