G04*
G04 #@! TF.GenerationSoftware,Altium Limited,Altium Designer,21.0.9 (235)*
G04*
G04 Layer_Color=32768*
%FSLAX24Y24*%
%MOIN*%
G70*
G04*
G04 #@! TF.SameCoordinates,1426A075-E80E-4D23-AB6D-1C87A62E9550*
G04*
G04*
G04 #@! TF.FilePolarity,Positive*
G04*
G01*
G75*
%ADD44C,0.0039*%
%ADD46C,0.0020*%
D44*
X17123Y24129D02*
X17517D01*
X17320Y23932D02*
Y24326D01*
X13501Y24090D02*
X13894D01*
X13698Y23893D02*
Y24287D01*
X11542Y21767D02*
Y22161D01*
X11345Y21964D02*
X11739D01*
X12398Y22161D02*
X12713D01*
X12556Y22003D02*
Y22318D01*
X11345Y22554D02*
Y22869D01*
X11188Y22712D02*
X11503D01*
X12487Y19444D02*
Y19759D01*
X12330Y19602D02*
X12644D01*
X11247Y19444D02*
Y19759D01*
X11089Y19602D02*
X11404D01*
X11404Y18617D02*
Y19011D01*
X11207Y18814D02*
X11601D01*
X13963Y17043D02*
Y17436D01*
X13767Y17239D02*
X14160D01*
X13865Y17869D02*
Y18184D01*
X13707Y18027D02*
X14022D01*
X15046Y17869D02*
Y18184D01*
X14889Y18027D02*
X15204D01*
X16660Y17043D02*
Y17436D01*
X16463Y17239D02*
X16857D01*
X16493Y17869D02*
Y18184D01*
X16335Y18027D02*
X16650D01*
X17743Y17869D02*
Y18184D01*
X17585Y18027D02*
X17900D01*
X21020Y16255D02*
Y16649D01*
X20824Y16452D02*
X21217D01*
X19475Y16255D02*
Y16649D01*
X19278Y16452D02*
X19672D01*
X21808Y20586D02*
X22202D01*
X22005Y20389D02*
Y20783D01*
X25351Y20556D02*
X25745D01*
X25548Y20359D02*
Y20753D01*
D46*
X16946Y23460D02*
Y24798D01*
X17694Y23460D02*
Y24798D01*
X16946Y23460D02*
X17694D01*
X16946Y24798D02*
X17694D01*
X16847Y23539D02*
Y23775D01*
X14249Y23539D02*
X16847D01*
X14249D02*
Y24877D01*
X16847D01*
Y23775D02*
Y24877D01*
X15548Y24090D02*
Y24326D01*
X15430Y24208D02*
X15666D01*
X13324Y23420D02*
Y24759D01*
X14072Y23420D02*
Y24759D01*
X13324Y23420D02*
X14072D01*
X13324Y24759D02*
X14072D01*
X13570Y23312D02*
X17684D01*
X13570Y19198D02*
Y23312D01*
Y19198D02*
X17684D01*
Y23312D01*
X10873Y21590D02*
X12211D01*
X10873Y22338D02*
X12211D01*
Y21590D02*
Y22338D01*
X10873Y21590D02*
Y22338D01*
X12280Y21590D02*
Y22731D01*
X12831Y21590D02*
Y22731D01*
X12280Y21590D02*
X12831D01*
X12280Y22731D02*
X12831D01*
X10774Y22987D02*
X11916D01*
X10774Y22436D02*
X11916D01*
X10774D02*
Y22987D01*
X11916Y22436D02*
Y22987D01*
X11916Y19326D02*
X13058D01*
X11916Y19877D02*
X13058D01*
Y19326D02*
Y19877D01*
X11916Y19326D02*
Y19877D01*
X10676Y19877D02*
X11818D01*
X10676Y19326D02*
X11818D01*
X10676D02*
Y19877D01*
X11818Y19326D02*
Y19877D01*
X10735Y18440D02*
X12074D01*
X10735Y19188D02*
X12074D01*
Y18440D02*
Y19188D01*
X10735Y18440D02*
Y19188D01*
X13294Y17613D02*
X14633D01*
X13294Y16865D02*
X14633D01*
X13294D02*
Y17613D01*
X14633Y16865D02*
Y17613D01*
X13294Y18302D02*
X14436D01*
X13294Y17751D02*
X14436D01*
X13294D02*
Y18302D01*
X14436Y17751D02*
Y18302D01*
X14475Y17751D02*
X15617D01*
X14475Y18302D02*
X15617D01*
Y17751D02*
Y18302D01*
X14475Y17751D02*
Y18302D01*
X15991Y17613D02*
X17330D01*
X15991Y16865D02*
X17330D01*
X15991D02*
Y17613D01*
X17330Y16865D02*
Y17613D01*
X15922Y18302D02*
X17064D01*
X15922Y17751D02*
X17064D01*
X15922D02*
Y18302D01*
X17064Y17751D02*
Y18302D01*
X17172Y17751D02*
X18314D01*
X17172Y18302D02*
X18314D01*
Y17751D02*
Y18302D01*
X17172Y17751D02*
Y18302D01*
X20351Y16826D02*
X21690D01*
X20351Y16078D02*
X21690D01*
X20351D02*
Y16826D01*
X21690Y16078D02*
Y16826D01*
X18806Y16078D02*
X20144D01*
X18806Y16826D02*
X20144D01*
Y16078D02*
Y16826D01*
X18806Y16078D02*
Y16826D01*
X18835Y19149D02*
X21788D01*
Y16983D02*
Y19149D01*
X18835Y16983D02*
X21788D01*
X18835D02*
Y19149D01*
X21631Y19917D02*
Y21255D01*
X22379Y19917D02*
Y21255D01*
X21631Y19917D02*
X22379D01*
X21631Y21255D02*
X22379D01*
X25174Y19887D02*
Y21226D01*
X25922Y19887D02*
Y21226D01*
X25174Y19887D02*
X25922D01*
X25174Y21226D02*
X25922D01*
X22359Y18706D02*
X25194D01*
Y22072D01*
X22359D02*
X25194D01*
X22359Y18706D02*
Y22072D01*
M02*
