G04*
G04 #@! TF.GenerationSoftware,Altium Limited,Altium Designer,21.0.9 (235)*
G04*
G04 Layer_Color=8388736*
%FSLAX24Y24*%
%MOIN*%
G70*
G04*
G04 #@! TF.SameCoordinates,1426A075-E80E-4D23-AB6D-1C87A62E9550*
G04*
G04*
G04 #@! TF.FilePolarity,Negative*
G04*
G01*
G75*
%ADD24R,0.0611X0.0474*%
%ADD25R,0.0828X0.1025*%
%ADD26R,0.0661X0.0316*%
%ADD27R,0.0316X0.0661*%
%ADD28R,0.0474X0.0611*%
%ADD29R,0.0415X0.0356*%
%ADD30R,0.0356X0.0415*%
%ADD31R,0.0690X0.0356*%
%ADD32R,0.1340X0.0769*%
%ADD33R,0.0454X0.0769*%
%ADD34R,0.0671X0.0671*%
%ADD35C,0.0671*%
%ADD36R,0.0671X0.0671*%
%ADD37C,0.2442*%
%ADD38C,0.0580*%
D24*
X17320Y23765D02*
D03*
Y24493D02*
D03*
X13698Y23726D02*
D03*
Y24454D02*
D03*
X22005Y20222D02*
D03*
Y20950D02*
D03*
X25548Y20192D02*
D03*
Y20920D02*
D03*
D25*
X16355Y24208D02*
D03*
X14741D02*
D03*
D26*
X17295Y22357D02*
D03*
Y22043D02*
D03*
Y21728D02*
D03*
Y21413D02*
D03*
Y21098D02*
D03*
Y20783D02*
D03*
Y20468D02*
D03*
Y20153D02*
D03*
X13958D02*
D03*
Y20468D02*
D03*
Y20783D02*
D03*
Y21098D02*
D03*
Y21413D02*
D03*
Y21728D02*
D03*
Y22043D02*
D03*
Y22357D02*
D03*
D27*
X16729Y19587D02*
D03*
X16414D02*
D03*
X16099D02*
D03*
X15784D02*
D03*
X15469D02*
D03*
X15154D02*
D03*
X14839D02*
D03*
X14524D02*
D03*
Y22924D02*
D03*
X14839D02*
D03*
X15154D02*
D03*
X15469D02*
D03*
X15784D02*
D03*
X16099D02*
D03*
X16414D02*
D03*
X16729D02*
D03*
D28*
X11906Y21964D02*
D03*
X11178D02*
D03*
X11768Y18814D02*
D03*
X11040D02*
D03*
X13599Y17239D02*
D03*
X14328D02*
D03*
X16296D02*
D03*
X17024D02*
D03*
X20656Y16452D02*
D03*
X21385D02*
D03*
X19839D02*
D03*
X19111D02*
D03*
D29*
X12556Y21836D02*
D03*
Y22485D02*
D03*
D30*
X11020Y22712D02*
D03*
X11670D02*
D03*
X12812Y19602D02*
D03*
X12162D02*
D03*
X10922D02*
D03*
X11572D02*
D03*
X13540Y18027D02*
D03*
X14190D02*
D03*
X15371D02*
D03*
X14721D02*
D03*
X16168D02*
D03*
X16818D02*
D03*
X18068D02*
D03*
X17418D02*
D03*
D31*
X19239Y18816D02*
D03*
Y18316D02*
D03*
Y17816D02*
D03*
Y17316D02*
D03*
X21385D02*
D03*
Y17816D02*
D03*
Y18316D02*
D03*
Y18816D02*
D03*
D32*
X23776Y21629D02*
D03*
D33*
X24682Y19149D02*
D03*
X23776D02*
D03*
X22871D02*
D03*
D34*
X17674Y16255D02*
D03*
X14918D02*
D03*
X11359Y20783D02*
D03*
X11202Y23814D02*
D03*
X19383Y24326D02*
D03*
D35*
X16674Y16255D02*
D03*
X13918D02*
D03*
X12359Y20783D02*
D03*
X12202Y23814D02*
D03*
X24383Y24326D02*
D03*
X23383D02*
D03*
X22383D02*
D03*
X21383D02*
D03*
X20383D02*
D03*
X26926Y20586D02*
D03*
Y19586D02*
D03*
Y18586D02*
D03*
D36*
Y21586D02*
D03*
D37*
X26550Y24255D02*
D03*
X11611Y16688D02*
D03*
D38*
X18658Y16846D02*
D03*
X22202Y16255D02*
D03*
X25942Y21373D02*
D03*
X23186Y20192D02*
D03*
X21414Y21176D02*
D03*
X20430Y18617D02*
D03*
X21217Y19405D02*
D03*
X13737D02*
D03*
X11178Y24720D02*
D03*
X22202Y17043D02*
D03*
X21217Y20192D02*
D03*
M02*
