G04*
G04 #@! TF.GenerationSoftware,Altium Limited,Altium Designer,21.0.9 (235)*
G04*
G04 Layer_Color=65535*
%FSLAX24Y24*%
%MOIN*%
G70*
G04*
G04 #@! TF.SameCoordinates,1426A075-E80E-4D23-AB6D-1C87A62E9550*
G04*
G04*
G04 #@! TF.FilePolarity,Positive*
G04*
G01*
G75*
%ADD10C,0.0157*%
%ADD11C,0.0079*%
%ADD12C,0.0080*%
%ADD13C,0.0100*%
D10*
X17280Y23056D02*
X17226Y23131D01*
X17138Y23103D01*
Y23010D01*
X17226Y22981D01*
X17280Y23056D01*
D11*
X17093Y24109D02*
Y24149D01*
X17546Y24109D02*
Y24149D01*
X13471Y24070D02*
Y24109D01*
X13924Y24070D02*
Y24109D01*
X14387Y22495D02*
X16867D01*
X14387Y20015D02*
Y22495D01*
Y20015D02*
X16867D01*
Y22495D01*
X11522Y21737D02*
X11562D01*
X11522Y22190D02*
X11562D01*
X12428Y22121D02*
Y22200D01*
X12684Y22121D02*
Y22200D01*
X11306Y22840D02*
X11385D01*
X11306Y22584D02*
X11385D01*
X12448Y19474D02*
X12526D01*
X12448Y19730D02*
X12526D01*
X11207D02*
X11286D01*
X11207Y19474D02*
X11286D01*
X11385Y18588D02*
X11424D01*
X11385Y19041D02*
X11424D01*
X13944Y17466D02*
X13983D01*
X13944Y17013D02*
X13983D01*
X13826Y18155D02*
X13904D01*
X13826Y17899D02*
X13904D01*
X15007D02*
X15085D01*
X15007Y18155D02*
X15085D01*
X16641Y17466D02*
X16680D01*
X16641Y17013D02*
X16680D01*
X16454Y18155D02*
X16532D01*
X16454Y17899D02*
X16532D01*
X17704D02*
X17782D01*
X17704Y18155D02*
X17782D01*
X21001Y16678D02*
X21040D01*
X21001Y16226D02*
X21040D01*
X19456D02*
X19495D01*
X19456Y16678D02*
X19495D01*
X19682Y19031D02*
X20942D01*
Y17102D02*
Y19031D01*
X19682Y17102D02*
X20942D01*
X19682D02*
Y19031D01*
X18934Y19092D02*
X19544D01*
X16174Y15755D02*
Y16755D01*
X18174D01*
Y15755D02*
Y16755D01*
X16174Y15755D02*
X18174D01*
X21778Y20566D02*
Y20606D01*
X22231Y20566D02*
Y20606D01*
X25322Y20537D02*
Y20576D01*
X25774Y20537D02*
Y20576D01*
X22546Y18804D02*
Y19493D01*
X22497Y19700D02*
X25056D01*
Y21078D01*
X22497D02*
X25056D01*
X22497Y19700D02*
Y21078D01*
X13418Y15755D02*
Y16755D01*
X15418D01*
Y15755D02*
Y16755D01*
X13418Y15755D02*
X15418D01*
X12859Y20283D02*
Y21283D01*
X10859Y20283D02*
X12859D01*
X10859D02*
Y21283D01*
X12859D01*
X12702Y23314D02*
Y24314D01*
X10702Y23314D02*
X12702D01*
X10702D02*
Y24314D01*
X12702D01*
X18883Y23826D02*
X24883D01*
X18883Y24826D02*
X24883D01*
X18883Y23826D02*
Y24826D01*
X24883Y23826D02*
Y24826D01*
X26426Y18086D02*
X27426D01*
X26426D02*
Y22086D01*
X27426Y18086D02*
Y22086D01*
X26426D02*
X27426D01*
D12*
X17222Y25230D02*
X17164Y25288D01*
X17047D01*
X16989Y25230D01*
Y24997D01*
X17047Y24938D01*
X17164D01*
X17222Y24997D01*
X17572Y25288D02*
X17339D01*
Y25113D01*
X17455Y25172D01*
X17514D01*
X17572Y25113D01*
Y24997D01*
X17514Y24938D01*
X17397D01*
X17339Y24997D01*
X14291Y25288D02*
Y25230D01*
X14408Y25113D01*
X14524Y25230D01*
Y25288D01*
X14408Y25113D02*
Y24938D01*
X14641D02*
X14758D01*
X14699D01*
Y25288D01*
X14641Y25230D01*
X13679D02*
X13620Y25288D01*
X13504D01*
X13445Y25230D01*
Y24997D01*
X13504Y24938D01*
X13620D01*
X13679Y24997D01*
X14029Y25288D02*
X13912Y25230D01*
X13795Y25113D01*
Y24997D01*
X13854Y24938D01*
X13970D01*
X14029Y24997D01*
Y25055D01*
X13970Y25113D01*
X13795D01*
X13504Y23123D02*
Y22831D01*
X13562Y22773D01*
X13679D01*
X13737Y22831D01*
Y23123D01*
X13854Y22773D02*
X13970D01*
X13912D01*
Y23123D01*
X13854Y23065D01*
X12264Y22773D02*
Y23123D01*
X12439D01*
X12498Y23065D01*
Y22948D01*
X12439Y22890D01*
X12264D01*
X12381D02*
X12498Y22773D01*
X12847D02*
X12614D01*
X12847Y23006D01*
Y23065D01*
X12789Y23123D01*
X12673D01*
X12614Y23065D01*
X10748Y22970D02*
Y23320D01*
X10923D01*
X10981Y23262D01*
Y23145D01*
X10923Y23087D01*
X10748D01*
X10864D02*
X10981Y22970D01*
X11098D02*
X11214D01*
X11156D01*
Y23320D01*
X11098Y23262D01*
X12063Y19924D02*
Y20274D01*
X12238D01*
X12296Y20215D01*
Y20099D01*
X12238Y20041D01*
X12063D01*
X12180D02*
X12296Y19924D01*
X12588D02*
Y20274D01*
X12413Y20099D01*
X12646D01*
X10897Y19902D02*
Y20252D01*
X11072D01*
X11130Y20193D01*
Y20077D01*
X11072Y20018D01*
X10897D01*
X11014D02*
X11130Y19902D01*
X11247Y20193D02*
X11305Y20252D01*
X11422D01*
X11480Y20193D01*
Y20135D01*
X11422Y20077D01*
X11364D01*
X11422D01*
X11480Y20018D01*
Y19960D01*
X11422Y19902D01*
X11305D01*
X11247Y19960D01*
X12498Y18931D02*
X12439Y18989D01*
X12323D01*
X12264Y18931D01*
Y18698D01*
X12323Y18639D01*
X12439D01*
X12498Y18698D01*
X12614Y18931D02*
X12673Y18989D01*
X12789D01*
X12847Y18931D01*
Y18872D01*
X12789Y18814D01*
X12847Y18756D01*
Y18698D01*
X12789Y18639D01*
X12673D01*
X12614Y18698D01*
Y18756D01*
X12673Y18814D01*
X12614Y18872D01*
Y18931D01*
X12673Y18814D02*
X12789D01*
X15057Y17356D02*
X14998Y17414D01*
X14882D01*
X14823Y17356D01*
Y17123D01*
X14882Y17064D01*
X14998D01*
X15057Y17123D01*
X15173D02*
X15232Y17064D01*
X15348D01*
X15407Y17123D01*
Y17356D01*
X15348Y17414D01*
X15232D01*
X15173Y17356D01*
Y17298D01*
X15232Y17239D01*
X15407D01*
X13329Y18414D02*
Y18764D01*
X13504D01*
X13562Y18705D01*
Y18589D01*
X13504Y18530D01*
X13329D01*
X13446D02*
X13562Y18414D01*
X13912Y18764D02*
X13796Y18705D01*
X13679Y18589D01*
Y18472D01*
X13737Y18414D01*
X13854D01*
X13912Y18472D01*
Y18530D01*
X13854Y18589D01*
X13679D01*
X14573Y18358D02*
Y18708D01*
X14748D01*
X14806Y18650D01*
Y18533D01*
X14748Y18475D01*
X14573D01*
X14689D02*
X14806Y18358D01*
X15156Y18708D02*
X14923D01*
Y18533D01*
X15039Y18591D01*
X15098D01*
X15156Y18533D01*
Y18416D01*
X15098Y18358D01*
X14981D01*
X14923Y18416D01*
X17667Y17356D02*
X17608Y17414D01*
X17492D01*
X17434Y17356D01*
Y17123D01*
X17492Y17064D01*
X17608D01*
X17667Y17123D01*
X17783Y17064D02*
X17900D01*
X17842D01*
Y17414D01*
X17783Y17356D01*
X18075D02*
X18133Y17414D01*
X18250D01*
X18308Y17356D01*
Y17123D01*
X18250Y17064D01*
X18133D01*
X18075Y17123D01*
Y17356D01*
X15983Y18314D02*
Y18664D01*
X16158D01*
X16216Y18605D01*
Y18489D01*
X16158Y18430D01*
X15983D01*
X16100D02*
X16216Y18314D01*
X16333Y18605D02*
X16391Y18664D01*
X16508D01*
X16566Y18605D01*
Y18547D01*
X16508Y18489D01*
X16566Y18430D01*
Y18372D01*
X16508Y18314D01*
X16391D01*
X16333Y18372D01*
Y18430D01*
X16391Y18489D01*
X16333Y18547D01*
Y18605D01*
X16391Y18489D02*
X16508D01*
X17249Y18314D02*
Y18664D01*
X17424D01*
X17482Y18605D01*
Y18489D01*
X17424Y18430D01*
X17249D01*
X17366D02*
X17482Y18314D01*
X17599Y18664D02*
X17832D01*
Y18605D01*
X17599Y18372D01*
Y18314D01*
X20568Y15978D02*
X20510Y16036D01*
X20394D01*
X20335Y15978D01*
Y15745D01*
X20394Y15686D01*
X20510D01*
X20568Y15745D01*
X20860Y15686D02*
Y16036D01*
X20685Y15861D01*
X20918D01*
X18994Y15978D02*
X18935Y16036D01*
X18819D01*
X18760Y15978D01*
Y15745D01*
X18819Y15686D01*
X18935D01*
X18994Y15745D01*
X19110Y15978D02*
X19169Y16036D01*
X19285D01*
X19344Y15978D01*
Y15920D01*
X19285Y15861D01*
X19227D01*
X19285D01*
X19344Y15803D01*
Y15745D01*
X19285Y15686D01*
X19169D01*
X19110Y15745D01*
X18910Y19790D02*
Y19498D01*
X18968Y19440D01*
X19085D01*
X19143Y19498D01*
Y19790D01*
X19260Y19732D02*
X19318Y19790D01*
X19435D01*
X19493Y19732D01*
Y19673D01*
X19435Y19615D01*
X19377D01*
X19435D01*
X19493Y19557D01*
Y19498D01*
X19435Y19440D01*
X19318D01*
X19260Y19498D01*
X21933Y21832D02*
X21875Y21890D01*
X21758D01*
X21700Y21832D01*
Y21598D01*
X21758Y21540D01*
X21875D01*
X21933Y21598D01*
X22283Y21540D02*
X22050D01*
X22283Y21773D01*
Y21832D01*
X22225Y21890D01*
X22108D01*
X22050Y21832D01*
X25473Y21812D02*
X25415Y21870D01*
X25298D01*
X25240Y21812D01*
Y21578D01*
X25298Y21520D01*
X25415D01*
X25473Y21578D01*
X25590Y21520D02*
X25707D01*
X25648D01*
Y21870D01*
X25590Y21812D01*
X22430Y22710D02*
Y22418D01*
X22488Y22360D01*
X22605D01*
X22663Y22418D01*
Y22710D01*
X23013Y22360D02*
X22780D01*
X23013Y22593D01*
Y22652D01*
X22955Y22710D01*
X22838D01*
X22780Y22652D01*
D13*
X22939Y17534D02*
X23339D01*
X23139D01*
Y16935D01*
X23839Y17534D02*
X23639D01*
X23539Y17434D01*
Y17035D01*
X23639Y16935D01*
X23839D01*
X23939Y17035D01*
Y17434D01*
X23839Y17534D01*
X24139Y16935D02*
Y17534D01*
X24439D01*
X24539Y17434D01*
Y17235D01*
X24439Y17135D01*
X24139D01*
X24339D02*
X24539Y16935D01*
X25139Y17434D02*
X25039Y17534D01*
X24839D01*
X24739Y17434D01*
Y17035D01*
X24839Y16935D01*
X25039D01*
X25139Y17035D01*
X25339Y17534D02*
Y16935D01*
Y17235D01*
X25738D01*
Y17534D01*
Y16935D01*
X25938Y17534D02*
X26138D01*
X26038D01*
Y16935D01*
X25938D01*
X26138D01*
X26838Y17434D02*
X26738Y17534D01*
X26538D01*
X26438Y17434D01*
Y17035D01*
X26538Y16935D01*
X26738D01*
X26838Y17035D01*
X22598Y16371D02*
Y16318D01*
X22703Y16213D01*
X22808Y16318D01*
Y16371D01*
X22703Y16213D02*
Y16056D01*
X22965Y16266D02*
X23070D01*
X23122Y16213D01*
Y16056D01*
X22965D01*
X22912Y16108D01*
X22965Y16161D01*
X23122D01*
X23227Y16056D02*
X23385D01*
X23437Y16108D01*
X23385Y16161D01*
X23280D01*
X23227Y16213D01*
X23280Y16266D01*
X23437D01*
X23542Y16056D02*
X23647D01*
X23595D01*
Y16266D01*
X23542D01*
X23857Y16318D02*
Y16266D01*
X23805D01*
X23910D01*
X23857D01*
Y16108D01*
X23910Y16056D01*
X24067Y16371D02*
Y16056D01*
Y16213D01*
X24119Y16266D01*
X24224D01*
X24277Y16213D01*
Y16056D01*
X24907Y16371D02*
X24697D01*
Y16056D01*
X24907D01*
X24697Y16213D02*
X24802D01*
X25012Y16056D02*
X25117D01*
X25064D01*
Y16371D01*
X25012D01*
X25274Y16056D02*
X25379D01*
X25326D01*
Y16371D01*
X25274D01*
X25694Y16056D02*
X25589D01*
X25536Y16108D01*
Y16213D01*
X25589Y16266D01*
X25694D01*
X25746Y16213D01*
Y16161D01*
X25536D01*
X25851Y16266D02*
Y16108D01*
X25904Y16056D01*
X25956Y16108D01*
X26009Y16056D01*
X26061Y16108D01*
Y16266D01*
X26323Y16056D02*
X26219D01*
X26166Y16108D01*
Y16213D01*
X26219Y16266D01*
X26323D01*
X26376Y16213D01*
Y16161D01*
X26166D01*
X26481Y16056D02*
X26586D01*
X26533D01*
Y16371D01*
X26481D01*
X26796Y16266D02*
X26901D01*
X26953Y16213D01*
Y16056D01*
X26796D01*
X26743Y16108D01*
X26796Y16161D01*
X26953D01*
M02*
