G04*
G04 #@! TF.GenerationSoftware,Altium Limited,Altium Designer,20.2.3 (150)*
G04*
G04 Layer_Physical_Order=2*
G04 Layer_Color=16711680*
%FSLAX24Y24*%
%MOIN*%
G70*
G04*
G04 #@! TF.SameCoordinates,A1FA694D-6CEF-4EEC-B524-7EF816075216*
G04*
G04*
G04 #@! TF.FilePolarity,Positive*
G04*
G01*
G75*
%ADD13C,0.0100*%
%ADD38C,0.2362*%
%ADD39R,0.0433X0.0433*%
%ADD40C,0.0433*%
%ADD41R,0.0650X0.0650*%
%ADD42C,0.0650*%
%ADD43C,0.0394*%
%ADD44C,0.0500*%
%ADD45C,0.0315*%
G36*
X26083Y25426D02*
X25976Y25381D01*
X25807Y25278D01*
X25656Y25149D01*
X25527Y24998D01*
X25424Y24829D01*
X25348Y24646D01*
X25301Y24453D01*
X25286Y24255D01*
X25301Y24057D01*
X25348Y23865D01*
X25424Y23681D01*
X25527Y23512D01*
X25656Y23362D01*
X25807Y23233D01*
X25976Y23129D01*
X26159Y23053D01*
X26352Y23007D01*
X26550Y22991D01*
X26747Y23007D01*
X26940Y23053D01*
X27123Y23129D01*
X27292Y23233D01*
X27443Y23362D01*
X27572Y23512D01*
X27676Y23681D01*
X27720Y23789D01*
X27770Y23779D01*
Y16468D01*
Y16369D01*
X27732Y16176D01*
X27656Y15994D01*
X27547Y15830D01*
X27408Y15691D01*
X27244Y15582D01*
X27062Y15506D01*
X26869Y15468D01*
X12087D01*
X12077Y15518D01*
X12185Y15562D01*
X12354Y15666D01*
X12505Y15795D01*
X12633Y15945D01*
X12737Y16114D01*
X12813Y16298D01*
X12859Y16490D01*
X12875Y16688D01*
X12859Y16886D01*
X12813Y17079D01*
X12737Y17262D01*
X12633Y17431D01*
X12505Y17582D01*
X12354Y17711D01*
X12185Y17814D01*
X12002Y17890D01*
X11809Y17936D01*
X11611Y17952D01*
X11413Y17936D01*
X11221Y17890D01*
X11037Y17814D01*
X10868Y17711D01*
X10717Y17582D01*
X10589Y17431D01*
X10485Y17262D01*
X10441Y17155D01*
X10391Y17164D01*
Y24476D01*
Y24574D01*
X10429Y24767D01*
X10504Y24949D01*
X10614Y25113D01*
X10753Y25252D01*
X10917Y25362D01*
X11099Y25437D01*
X11292Y25476D01*
X26073D01*
X26083Y25426D01*
D02*
G37*
%LPC*%
G36*
X17445Y24873D02*
Y24560D01*
X17345D01*
Y24873D01*
X17313Y24868D01*
X17236Y24836D01*
X17179Y24793D01*
X17145Y24788D01*
X17112Y24793D01*
X17055Y24836D01*
X16978Y24868D01*
X16945Y24873D01*
Y24560D01*
X16845D01*
Y24873D01*
X16813Y24868D01*
X16736Y24836D01*
X16670Y24786D01*
X16657Y24769D01*
X16607D01*
X16606Y24770D01*
X16544Y24818D01*
X16472Y24848D01*
X16395Y24858D01*
X16318Y24848D01*
X16246Y24818D01*
X16185Y24770D01*
X16170Y24752D01*
X16120D01*
X16106Y24770D01*
X16044Y24818D01*
X15972Y24848D01*
X15895Y24858D01*
X15818Y24848D01*
X15746Y24818D01*
X15685Y24770D01*
X15637Y24709D01*
X15608Y24637D01*
X15597Y24560D01*
X15608Y24483D01*
X15637Y24411D01*
X15685Y24349D01*
X15703Y24335D01*
Y24285D01*
X15685Y24270D01*
X15637Y24209D01*
X15608Y24137D01*
X15597Y24060D01*
X15608Y23983D01*
X15637Y23911D01*
X15685Y23849D01*
X15746Y23802D01*
X15818Y23772D01*
X15895Y23762D01*
X15972Y23772D01*
X16044Y23802D01*
X16106Y23849D01*
X16120Y23868D01*
X16170D01*
X16185Y23849D01*
X16246Y23802D01*
X16318Y23772D01*
X16395Y23762D01*
X16472Y23772D01*
X16544Y23802D01*
X16606Y23849D01*
X16620Y23868D01*
X16670D01*
X16685Y23849D01*
X16746Y23802D01*
X16818Y23772D01*
X16895Y23762D01*
X16972Y23772D01*
X17044Y23802D01*
X17106Y23849D01*
X17120Y23868D01*
X17170D01*
X17185Y23849D01*
X17246Y23802D01*
X17318Y23772D01*
X17395Y23762D01*
X17472Y23772D01*
X17544Y23802D01*
X17606Y23849D01*
X17620Y23868D01*
X17670D01*
X17685Y23849D01*
X17746Y23802D01*
X17818Y23772D01*
X17895Y23762D01*
X17972Y23772D01*
X18044Y23802D01*
X18106Y23849D01*
X18153Y23911D01*
X18183Y23983D01*
X18193Y24060D01*
X18183Y24137D01*
X18153Y24209D01*
X18145Y24220D01*
X18167Y24265D01*
X18191D01*
Y24855D01*
X17600D01*
X17600Y24855D01*
X17550Y24838D01*
X17478Y24868D01*
X17445Y24873D01*
D02*
G37*
G36*
X14980Y23952D02*
X14894Y23941D01*
X14814Y23908D01*
X14745Y23855D01*
X14692Y23786D01*
X14659Y23706D01*
X14648Y23620D01*
X14659Y23535D01*
X14674Y23500D01*
X13764Y22590D01*
X13735Y22548D01*
X13725Y22498D01*
Y19916D01*
X12962Y19153D01*
X12957Y19156D01*
X12877Y19190D01*
X12791Y19201D01*
X12706Y19190D01*
X12626Y19156D01*
X12557Y19104D01*
X12504Y19035D01*
X12471Y18955D01*
X12460Y18869D01*
X12471Y18783D01*
X12504Y18704D01*
X12557Y18635D01*
X12626Y18582D01*
X12706Y18549D01*
X12791Y18538D01*
X12877Y18549D01*
X12957Y18582D01*
X13026Y18635D01*
X13078Y18704D01*
X13112Y18783D01*
X13123Y18869D01*
X13114Y18934D01*
X13950Y19769D01*
X13978Y19811D01*
X13988Y19861D01*
Y20856D01*
X14038Y20866D01*
X14058Y20818D01*
X14110Y20750D01*
X14179Y20697D01*
X14259Y20664D01*
X14345Y20653D01*
X14431Y20664D01*
X14511Y20697D01*
X14579Y20750D01*
X14632Y20818D01*
X14646Y20853D01*
X15169D01*
X16333Y19689D01*
X16319Y19654D01*
X16308Y19569D01*
X16319Y19483D01*
X16352Y19403D01*
X16405Y19334D01*
X16474Y19281D01*
X16554Y19248D01*
X16639Y19237D01*
X16725Y19248D01*
X16805Y19281D01*
X16874Y19334D01*
X16927Y19403D01*
X16960Y19483D01*
X16971Y19569D01*
X16960Y19654D01*
X16927Y19734D01*
X16874Y19803D01*
X16805Y19856D01*
X16725Y19889D01*
X16639Y19900D01*
X16554Y19889D01*
X16519Y19874D01*
X15316Y21077D01*
X15274Y21106D01*
X15224Y21116D01*
X14646D01*
X14632Y21150D01*
X14579Y21219D01*
X14511Y21271D01*
X14431Y21305D01*
X14345Y21316D01*
X14259Y21305D01*
X14179Y21271D01*
X14110Y21219D01*
X14058Y21150D01*
X14038Y21102D01*
X13988Y21112D01*
Y22443D01*
X14859Y23314D01*
X14894Y23300D01*
X14980Y23289D01*
X15065Y23300D01*
X15145Y23333D01*
X15214Y23386D01*
X15267Y23455D01*
X15300Y23535D01*
X15311Y23620D01*
X15300Y23706D01*
X15267Y23786D01*
X15214Y23855D01*
X15145Y23908D01*
X15065Y23941D01*
X14980Y23952D01*
D02*
G37*
G36*
X19619Y22502D02*
Y22206D01*
X19915D01*
X19909Y22247D01*
X19874Y22332D01*
X19818Y22406D01*
X19745Y22462D01*
X19660Y22497D01*
X19619Y22502D01*
D02*
G37*
G36*
X19519D02*
X19477Y22497D01*
X19392Y22462D01*
X19319Y22406D01*
X19263Y22332D01*
X19228Y22247D01*
X19222Y22206D01*
X19519D01*
Y22502D01*
D02*
G37*
G36*
X19915Y22106D02*
X19619D01*
Y21809D01*
X19660Y21815D01*
X19745Y21850D01*
X19818Y21906D01*
X19874Y21979D01*
X19909Y22065D01*
X19915Y22106D01*
D02*
G37*
G36*
X19519D02*
X19222D01*
X19228Y22065D01*
X19263Y21979D01*
X19319Y21906D01*
X19392Y21850D01*
X19477Y21815D01*
X19519Y21809D01*
Y22106D01*
D02*
G37*
G36*
X25342Y22364D02*
X24535D01*
Y21557D01*
X25342D01*
Y22364D01*
D02*
G37*
G36*
X23962Y23708D02*
X23876Y23697D01*
X23796Y23664D01*
X23728Y23611D01*
X23675Y23542D01*
X23642Y23462D01*
X23631Y23376D01*
X23642Y23291D01*
X23675Y23211D01*
X23728Y23142D01*
X23796Y23089D01*
X23831Y23075D01*
Y21534D01*
X23781Y21509D01*
X23748Y21534D01*
X23663Y21569D01*
X23622Y21575D01*
Y21228D01*
Y20882D01*
X23663Y20887D01*
X23748Y20923D01*
X23781Y20948D01*
X23831Y20923D01*
Y18939D01*
X23497Y18605D01*
X23462Y18619D01*
X23376Y18631D01*
X23291Y18619D01*
X23211Y18586D01*
X23142Y18534D01*
X23089Y18465D01*
X23056Y18385D01*
X23045Y18299D01*
X23056Y18213D01*
X23089Y18133D01*
X23142Y18065D01*
X23211Y18012D01*
X23291Y17979D01*
X23376Y17968D01*
X23462Y17979D01*
X23542Y18012D01*
X23611Y18065D01*
X23664Y18133D01*
X23697Y18213D01*
X23708Y18299D01*
X23697Y18385D01*
X23682Y18420D01*
X24055Y18792D01*
X24083Y18835D01*
X24093Y18885D01*
Y23075D01*
X24128Y23089D01*
X24197Y23142D01*
X24249Y23211D01*
X24282Y23291D01*
X24294Y23376D01*
X24282Y23462D01*
X24249Y23542D01*
X24197Y23611D01*
X24128Y23664D01*
X24048Y23697D01*
X23962Y23708D01*
D02*
G37*
G36*
X23522Y21575D02*
X23480Y21569D01*
X23395Y21534D01*
X23322Y21478D01*
X23266Y21405D01*
X23231Y21320D01*
X23225Y21278D01*
X23522D01*
Y21575D01*
D02*
G37*
G36*
X24989Y21398D02*
Y21026D01*
X25360D01*
X25352Y21087D01*
X25310Y21191D01*
X25242Y21279D01*
X25153Y21347D01*
X25049Y21390D01*
X24989Y21398D01*
D02*
G37*
G36*
X24889D02*
X24828Y21390D01*
X24724Y21347D01*
X24636Y21279D01*
X24568Y21191D01*
X24525Y21087D01*
X24517Y21026D01*
X24889D01*
Y21398D01*
D02*
G37*
G36*
X23522Y21178D02*
X23225D01*
X23231Y21137D01*
X23266Y21052D01*
X23322Y20979D01*
X23395Y20923D01*
X23480Y20887D01*
X23522Y20882D01*
Y21178D01*
D02*
G37*
G36*
X25360Y20926D02*
X24989D01*
Y20554D01*
X25049Y20563D01*
X25153Y20605D01*
X25242Y20673D01*
X25310Y20762D01*
X25352Y20865D01*
X25360Y20926D01*
D02*
G37*
G36*
X24889D02*
X24517D01*
X24525Y20865D01*
X24568Y20762D01*
X24636Y20673D01*
X24724Y20605D01*
X24828Y20563D01*
X24889Y20554D01*
Y20926D01*
D02*
G37*
G36*
X19666Y21706D02*
X19580Y21695D01*
X19500Y21662D01*
X19432Y21609D01*
X19379Y21541D01*
X19346Y21461D01*
X19335Y21375D01*
X19346Y21289D01*
X19379Y21209D01*
X19432Y21140D01*
X19500Y21088D01*
X19535Y21073D01*
Y20602D01*
X19500Y20588D01*
X19432Y20535D01*
X19379Y20467D01*
X19346Y20387D01*
X19335Y20301D01*
X19346Y20215D01*
X19379Y20135D01*
X19432Y20066D01*
X19500Y20014D01*
X19580Y19981D01*
X19666Y19969D01*
X19752Y19981D01*
X19832Y20014D01*
X19901Y20066D01*
X19953Y20135D01*
X19986Y20215D01*
X19998Y20301D01*
X19986Y20387D01*
X19953Y20467D01*
X19901Y20535D01*
X19832Y20588D01*
X19797Y20602D01*
Y21073D01*
X19832Y21088D01*
X19901Y21140D01*
X19953Y21209D01*
X19986Y21289D01*
X19998Y21375D01*
X19986Y21461D01*
X19953Y21541D01*
X19901Y21609D01*
X19832Y21662D01*
X19752Y21695D01*
X19666Y21706D01*
D02*
G37*
G36*
X24939Y20399D02*
X24833Y20385D01*
X24735Y20345D01*
X24651Y20280D01*
X24586Y20196D01*
X24545Y20097D01*
X24532Y19992D01*
X24545Y19887D01*
X24586Y19789D01*
X24651Y19704D01*
X24735Y19640D01*
X24833Y19599D01*
X24939Y19585D01*
X25044Y19599D01*
X25142Y19640D01*
X25226Y19704D01*
X25291Y19789D01*
X25332Y19887D01*
X25346Y19992D01*
X25332Y20097D01*
X25291Y20196D01*
X25226Y20280D01*
X25142Y20345D01*
X25044Y20385D01*
X24939Y20399D01*
D02*
G37*
G36*
X17910Y18943D02*
Y18740D01*
X18113D01*
X18111Y18757D01*
X18085Y18820D01*
X18043Y18873D01*
X17990Y18915D01*
X17927Y18941D01*
X17910Y18943D01*
D02*
G37*
G36*
X17810D02*
X17793Y18941D01*
X17730Y18915D01*
X17676Y18873D01*
X17635Y18820D01*
X17609Y18757D01*
X17607Y18740D01*
X17810D01*
Y18943D01*
D02*
G37*
G36*
X24939Y19415D02*
X24833Y19401D01*
X24735Y19360D01*
X24651Y19296D01*
X24586Y19211D01*
X24545Y19113D01*
X24532Y19008D01*
X24545Y18903D01*
X24586Y18804D01*
X24651Y18720D01*
X24735Y18655D01*
X24833Y18615D01*
X24939Y18601D01*
X25044Y18615D01*
X25142Y18655D01*
X25226Y18720D01*
X25291Y18804D01*
X25332Y18903D01*
X25346Y19008D01*
X25332Y19113D01*
X25291Y19211D01*
X25226Y19296D01*
X25142Y19360D01*
X25044Y19401D01*
X24939Y19415D01*
D02*
G37*
G36*
X14784Y20730D02*
X14698Y20719D01*
X14618Y20686D01*
X14550Y20633D01*
X14497Y20564D01*
X14464Y20484D01*
X14453Y20398D01*
X14464Y20313D01*
X14497Y20233D01*
X14550Y20164D01*
X14618Y20111D01*
X14698Y20078D01*
X14707Y20077D01*
X14712Y20055D01*
X14740Y20013D01*
X15811Y18942D01*
X15782Y18873D01*
X15771Y18787D01*
X15782Y18702D01*
X15815Y18622D01*
X15868Y18553D01*
X15937Y18500D01*
X16017Y18467D01*
X16102Y18456D01*
X16188Y18467D01*
X16268Y18500D01*
X16337Y18553D01*
X16390Y18622D01*
X16423Y18702D01*
X16434Y18787D01*
X16423Y18873D01*
X16390Y18953D01*
X16337Y19022D01*
X16268Y19075D01*
X16188Y19108D01*
X16102Y19119D01*
X16017Y19108D01*
X16017Y19108D01*
X15012Y20112D01*
X15016Y20162D01*
X15019Y20164D01*
X15071Y20233D01*
X15105Y20313D01*
X15116Y20398D01*
X15105Y20484D01*
X15071Y20564D01*
X15019Y20633D01*
X14950Y20686D01*
X14870Y20719D01*
X14784Y20730D01*
D02*
G37*
G36*
X18113Y18640D02*
X17910D01*
Y18437D01*
X17927Y18439D01*
X17990Y18465D01*
X18043Y18506D01*
X18085Y18560D01*
X18111Y18623D01*
X18113Y18640D01*
D02*
G37*
G36*
X17810D02*
X17607D01*
X17609Y18623D01*
X17635Y18560D01*
X17676Y18506D01*
X17730Y18465D01*
X17793Y18439D01*
X17810Y18437D01*
Y18640D01*
D02*
G37*
G36*
X14784Y19163D02*
X14712Y19154D01*
X14645Y19126D01*
X14588Y19082D01*
X14544Y19024D01*
X14516Y18957D01*
X14506Y18885D01*
X14516Y18813D01*
X14544Y18746D01*
X14588Y18688D01*
X14645Y18644D01*
X14712Y18617D01*
X14751Y18612D01*
Y17865D01*
X14500Y17615D01*
X14431Y17643D01*
X14345Y17654D01*
X14259Y17643D01*
X14179Y17610D01*
X14110Y17557D01*
X14058Y17489D01*
X14025Y17409D01*
X14013Y17323D01*
X14025Y17237D01*
X14058Y17157D01*
X14110Y17088D01*
X14179Y17036D01*
X14259Y17003D01*
X14345Y16991D01*
X14431Y17003D01*
X14511Y17036D01*
X14579Y17088D01*
X14632Y17157D01*
X14665Y17237D01*
X14676Y17323D01*
X14665Y17409D01*
X14665Y17409D01*
X14975Y17718D01*
X15003Y17761D01*
X15013Y17811D01*
Y18731D01*
X15025Y18746D01*
X15053Y18813D01*
X15062Y18885D01*
X15053Y18957D01*
X15025Y19024D01*
X14981Y19082D01*
X14923Y19126D01*
X14856Y19154D01*
X14784Y19163D01*
D02*
G37*
%LPD*%
D13*
Y18885D02*
Y18970D01*
X13857Y22498D02*
X14980Y23620D01*
X12783Y18787D02*
X13857Y19861D01*
Y22498D01*
X14345Y20984D02*
X15224D01*
X19666Y20301D02*
Y20643D01*
X14759Y18996D02*
X14784Y18970D01*
X16102Y18787D02*
Y18836D01*
X19666Y20643D02*
Y21375D01*
X14833Y20106D02*
X16102Y18836D01*
X14759Y18996D02*
X14759Y18996D01*
X14821Y18934D01*
X14882D01*
X15224Y20984D02*
X16639Y19569D01*
X14833Y20106D02*
Y20203D01*
X14882Y17811D02*
Y18934D01*
X14345Y17323D02*
X14394D01*
X14882Y17811D01*
X23376Y18299D02*
X23962Y18885D01*
Y23376D01*
D38*
X26550Y24255D02*
D03*
X11611Y16688D02*
D03*
D39*
X17895Y24560D02*
D03*
D40*
Y24060D02*
D03*
X17395Y24560D02*
D03*
Y24060D02*
D03*
X16895Y24560D02*
D03*
Y24060D02*
D03*
X16395Y24560D02*
D03*
Y24060D02*
D03*
X15895Y24560D02*
D03*
Y24060D02*
D03*
D41*
X24939Y21961D02*
D03*
D42*
Y20976D02*
D03*
Y19992D02*
D03*
Y19008D02*
D03*
D43*
X14784Y18885D02*
D03*
D44*
X14345Y20984D02*
D03*
X19666Y20301D02*
D03*
X14784Y20398D02*
D03*
X16102Y18787D02*
D03*
X16639Y19569D02*
D03*
X14345Y17323D02*
D03*
X23572Y21228D02*
D03*
X19569Y22156D02*
D03*
X19666Y21375D02*
D03*
X12791Y18869D02*
D03*
X14980Y23620D02*
D03*
X23376Y18299D02*
D03*
X23962Y23376D02*
D03*
D45*
X17860Y18690D02*
D03*
M02*
