G04*
G04 #@! TF.GenerationSoftware,Altium Limited,Altium Designer,20.1.11 (218)*
G04*
G04 Layer_Physical_Order=1*
G04 Layer_Color=255*
%FSLAX25Y25*%
%MOIN*%
G70*
G04*
G04 #@! TF.SameCoordinates,7BCCE59C-3DE7-4F21-A10E-2C10B2644855*
G04*
G04*
G04 #@! TF.FilePolarity,Positive*
G04*
G01*
G75*
%ADD15R,0.09449X0.07480*%
%ADD16R,0.03740X0.03543*%
%ADD17R,0.05512X0.04331*%
%ADD18R,0.04331X0.05512*%
%ADD19R,0.06102X0.02756*%
%ADD20R,0.04331X0.06693*%
%ADD21R,0.02362X0.04724*%
%ADD22R,0.10787X0.15197*%
%ADD23R,0.05709X0.01772*%
%ADD24R,0.06693X0.04331*%
%ADD25R,0.01654X0.02756*%
%ADD26R,0.09331X0.06102*%
%ADD27R,0.02756X0.01654*%
%ADD28R,0.06102X0.09331*%
%ADD29R,0.03740X0.06890*%
%ADD30R,0.12598X0.06890*%
%ADD31R,0.05512X0.01181*%
%ADD32R,0.05807X0.02362*%
%ADD33R,0.02362X0.05807*%
%ADD34R,0.04921X0.02362*%
%ADD35R,0.04724X0.02362*%
%ADD36R,0.06102X0.09252*%
%ADD37R,0.09252X0.06102*%
%ADD38R,0.04331X0.01968*%
%ADD39R,0.06102X0.09055*%
%ADD78C,0.01000*%
%ADD79C,0.05000*%
%ADD80C,0.10000*%
%ADD81C,0.02500*%
%ADD82C,0.02000*%
%ADD83C,0.01850*%
%ADD84R,0.10000X0.18500*%
%ADD85R,0.10000X0.20000*%
%ADD86R,0.05000X0.02000*%
%ADD87R,0.03987X0.01773*%
%ADD88R,0.12500X0.09500*%
%ADD89R,0.06000X0.09500*%
%ADD90R,0.27500X0.10000*%
%ADD91R,0.07000X0.03000*%
%ADD92R,0.07000X0.05000*%
%ADD93R,0.09500X0.16000*%
%ADD94R,0.07500X0.08500*%
%ADD95C,0.09272*%
%ADD96C,0.22835*%
%ADD97C,0.05906*%
%ADD98C,0.04331*%
%ADD99R,0.04331X0.04331*%
%ADD100R,0.06496X0.06496*%
%ADD101C,0.06496*%
%ADD102C,0.10630*%
%ADD103C,0.15945*%
%ADD104R,0.05906X0.05906*%
%ADD105C,0.02362*%
%ADD106C,0.03000*%
%ADD107C,0.05000*%
G36*
X287683Y198844D02*
X289356Y198151D01*
X290863Y197144D01*
X292144Y195863D01*
X293150Y194357D01*
X293844Y192683D01*
X294197Y190906D01*
Y190000D01*
Y10000D01*
Y9094D01*
X293844Y7317D01*
X293150Y5644D01*
X292144Y4137D01*
X290863Y2856D01*
X289356Y1850D01*
X287683Y1156D01*
X285906Y803D01*
X279208D01*
X279109Y1303D01*
X280427Y1849D01*
X282027Y2829D01*
X283453Y4047D01*
X284671Y5474D01*
X285651Y7073D01*
X286369Y8806D01*
X286807Y10630D01*
X286895Y11750D01*
X263105D01*
X263193Y10630D01*
X263631Y8806D01*
X264349Y7073D01*
X265329Y5474D01*
X266547Y4047D01*
X267973Y2829D01*
X269573Y1849D01*
X270891Y1303D01*
X270792Y803D01*
X154234D01*
X154065Y1303D01*
X154140Y1360D01*
X154621Y1987D01*
X154923Y2717D01*
X155026Y3500D01*
Y4761D01*
X155491Y4898D01*
X155526Y4894D01*
X156337Y3837D01*
X157410Y3014D01*
X158659Y2496D01*
X159250Y2419D01*
Y7500D01*
Y12581D01*
X158659Y12504D01*
X157410Y11986D01*
X156337Y11163D01*
X155526Y10106D01*
X155491Y10102D01*
X155026Y10239D01*
Y24840D01*
X155491Y24977D01*
X155526Y24973D01*
X156337Y23916D01*
X157410Y23093D01*
X158659Y22575D01*
X159250Y22497D01*
Y27579D01*
Y32660D01*
X158659Y32582D01*
X157410Y32065D01*
X156337Y31242D01*
X155526Y30185D01*
X155491Y30181D01*
X155026Y30318D01*
Y56500D01*
Y58020D01*
X155847D01*
Y63350D01*
X153405D01*
X153182Y63443D01*
X153055Y63990D01*
X153288Y64280D01*
X176216D01*
Y53043D01*
X171051D01*
Y45154D01*
X184650D01*
Y48079D01*
X193382D01*
Y43744D01*
X195028D01*
Y42000D01*
Y19110D01*
X195105Y18720D01*
X195326Y18389D01*
X200909Y12806D01*
Y6752D01*
X208405D01*
Y14248D01*
X202351D01*
X197067Y19533D01*
Y40980D01*
X231500D01*
X231890Y41058D01*
X232221Y41279D01*
X245273Y54331D01*
X245500Y54286D01*
X246156Y54416D01*
X246712Y54788D01*
X247084Y55344D01*
X247214Y56000D01*
X247169Y56227D01*
X250221Y59279D01*
X250442Y59610D01*
X250520Y60000D01*
Y61244D01*
X252118D01*
Y67756D01*
X250705D01*
Y68744D01*
X252118D01*
Y75256D01*
X250705D01*
Y84295D01*
X252980D01*
Y30737D01*
X236034Y13791D01*
X235163Y14152D01*
X234185Y14280D01*
X233207Y14152D01*
X232295Y13774D01*
X231512Y13173D01*
X230911Y12390D01*
X230534Y11478D01*
X230405Y10500D01*
X230534Y9522D01*
X230911Y8610D01*
X231512Y7827D01*
X232295Y7226D01*
X232793Y7020D01*
X232694Y6520D01*
X229765D01*
X227634Y8651D01*
X227994Y9522D01*
X228123Y10500D01*
X227994Y11478D01*
X227616Y12390D01*
X227016Y13173D01*
X226233Y13774D01*
X225321Y14152D01*
X224342Y14280D01*
X223364Y14152D01*
X222452Y13774D01*
X221669Y13173D01*
X221069Y12390D01*
X220691Y11478D01*
X220562Y10500D01*
X220691Y9522D01*
X221069Y8610D01*
X221669Y7827D01*
X222452Y7226D01*
X223364Y6848D01*
X224342Y6720D01*
X225321Y6848D01*
X226192Y7209D01*
X228622Y4779D01*
X228952Y4558D01*
X229343Y4480D01*
X250000D01*
X250390Y4558D01*
X250721Y4779D01*
X256221Y10279D01*
X256442Y10610D01*
X256520Y11000D01*
Y89385D01*
X256981Y89577D01*
X257279Y89279D01*
X257610Y89058D01*
X258000Y88980D01*
X258221D01*
Y88122D01*
X265323D01*
Y91878D01*
X258221D01*
X258020Y92295D01*
Y92705D01*
X258221Y93122D01*
X258520Y93122D01*
X265323D01*
Y93528D01*
X265823Y93735D01*
X267480Y92078D01*
Y43000D01*
X267558Y42610D01*
X267779Y42279D01*
X271964Y38094D01*
X272127Y37985D01*
X272136Y37914D01*
X272484Y37074D01*
X273038Y36352D01*
X273759Y35799D01*
X274599Y35451D01*
X275500Y35332D01*
X276401Y35451D01*
X277241Y35799D01*
X277962Y36352D01*
X278516Y37074D01*
X278864Y37914D01*
X278982Y38815D01*
X278864Y39716D01*
X278516Y40556D01*
X277962Y41278D01*
X277241Y41831D01*
X276401Y42179D01*
X275500Y42298D01*
X274599Y42179D01*
X273759Y41831D01*
X273038Y41278D01*
X272748Y40901D01*
X272086Y40856D01*
X269520Y43422D01*
Y62331D01*
X270020Y62538D01*
X272435Y60123D01*
X272136Y59401D01*
X272018Y58500D01*
X272136Y57599D01*
X272484Y56759D01*
X273038Y56037D01*
X273759Y55484D01*
X274599Y55136D01*
X275500Y55018D01*
X276401Y55136D01*
X277241Y55484D01*
X277962Y56037D01*
X278516Y56759D01*
X278864Y57599D01*
X278982Y58500D01*
X278864Y59401D01*
X278516Y60241D01*
X277962Y60962D01*
X277241Y61516D01*
X276401Y61864D01*
X275500Y61983D01*
X274599Y61864D01*
X273877Y61565D01*
X271520Y63922D01*
Y92578D01*
X277922Y98980D01*
X279677D01*
Y98122D01*
X286779D01*
Y101878D01*
X279677D01*
Y101020D01*
X277500D01*
X277110Y100942D01*
X276779Y100721D01*
X269779Y93721D01*
X269633Y93502D01*
X269585Y93470D01*
X269227Y93392D01*
X269049Y93393D01*
X267442Y95000D01*
X268005Y95563D01*
X268062Y95551D01*
X268718Y95682D01*
X269274Y96053D01*
X269646Y96609D01*
X269777Y97265D01*
X269646Y97921D01*
X269274Y98477D01*
X269114Y98585D01*
Y109244D01*
X271713D01*
Y115316D01*
X272000Y115481D01*
X272287Y115316D01*
Y113250D01*
X274953D01*
X277618D01*
Y115494D01*
X277618Y115684D01*
X277816Y115956D01*
X277969Y116111D01*
X278221Y116279D01*
X282480Y120538D01*
X282804Y120403D01*
X283500Y120312D01*
X284196Y120403D01*
X284844Y120672D01*
X285401Y121099D01*
X285828Y121656D01*
X286097Y122304D01*
X286188Y123000D01*
X286097Y123696D01*
X285828Y124344D01*
X285452Y124835D01*
X285515Y125094D01*
X285657Y125335D01*
X286165D01*
Y130665D01*
X284520D01*
Y176928D01*
X284744Y177335D01*
X285020Y177335D01*
X286980D01*
Y164421D01*
X285630D01*
Y159878D01*
X290370D01*
Y164421D01*
X289020D01*
Y177335D01*
X291256D01*
Y182665D01*
X285184D01*
X285018Y182953D01*
X285184Y183240D01*
X291256D01*
Y188571D01*
X284744D01*
Y187020D01*
X281756D01*
Y188618D01*
X275244D01*
Y187020D01*
X271756D01*
Y188571D01*
X265244D01*
Y187020D01*
X261756D01*
Y188618D01*
X255244D01*
Y187020D01*
X251756D01*
Y188618D01*
X245244D01*
Y187020D01*
X241756D01*
Y188571D01*
X235244D01*
Y183240D01*
X241756D01*
Y184980D01*
X245244D01*
Y183287D01*
X251756D01*
Y184980D01*
X255244D01*
Y183287D01*
X261756D01*
Y184980D01*
X265244D01*
Y183240D01*
X271756D01*
Y184980D01*
X275244D01*
Y183287D01*
X281756D01*
Y184980D01*
X282480D01*
Y130665D01*
X280835D01*
Y130157D01*
X280594Y130015D01*
X280335Y129952D01*
X279844Y130328D01*
X279250Y130574D01*
Y128000D01*
X277750D01*
Y130574D01*
X277156Y130328D01*
X276599Y129901D01*
X276300Y129511D01*
X276195Y129474D01*
X275805D01*
X275700Y129511D01*
X275401Y129901D01*
X274844Y130328D01*
X274250Y130574D01*
Y128000D01*
X272750D01*
Y130574D01*
X272156Y130328D01*
X271599Y129901D01*
X271300Y129511D01*
X271195Y129474D01*
X270805D01*
X270700Y129511D01*
X270401Y129901D01*
X269844Y130328D01*
X269196Y130597D01*
X268500Y130688D01*
X267804Y130597D01*
X267156Y130328D01*
X266599Y129901D01*
X266300Y129511D01*
X266195Y129474D01*
X265805D01*
X265700Y129511D01*
X265401Y129901D01*
X264844Y130328D01*
X264196Y130597D01*
X263500Y130688D01*
X262804Y130597D01*
X262156Y130328D01*
X261599Y129901D01*
X261172Y129344D01*
X260903Y128696D01*
X260812Y128000D01*
X260903Y127304D01*
X261172Y126656D01*
X261599Y126099D01*
X261989Y125800D01*
X262026Y125695D01*
Y125305D01*
X261989Y125200D01*
X261599Y124901D01*
X261172Y124344D01*
X260903Y123696D01*
X260812Y123000D01*
X260903Y122304D01*
X261172Y121656D01*
X261599Y121099D01*
X261703Y121020D01*
X261533Y120520D01*
X261161D01*
X260771Y120442D01*
X260440Y120221D01*
X249924Y109705D01*
X246282D01*
Y106342D01*
Y103193D01*
Y100043D01*
Y96894D01*
Y93744D01*
Y90595D01*
Y86996D01*
X244446D01*
X222697Y108745D01*
X222367Y108966D01*
X221976Y109043D01*
X219719D01*
Y109705D01*
X212911D01*
Y105894D01*
X208619D01*
X207532Y106981D01*
X207224Y107331D01*
X207224D01*
X207224Y107331D01*
Y115811D01*
X203020D01*
Y119244D01*
X204618D01*
Y125756D01*
X199287D01*
Y119244D01*
X200980D01*
Y115811D01*
X196776D01*
Y107331D01*
X204298D01*
X207476Y104153D01*
X207807Y103932D01*
X208197Y103854D01*
X212911D01*
Y102744D01*
X208701D01*
X208311Y102666D01*
X207980Y102445D01*
X205204Y99669D01*
X196776D01*
Y91189D01*
X200886D01*
Y86756D01*
X199240D01*
Y80244D01*
X204048D01*
X204255Y79744D01*
X203767Y79256D01*
X199287D01*
Y72744D01*
X200933D01*
Y71756D01*
X199287D01*
Y65244D01*
X199287D01*
X199287Y64756D01*
X199287D01*
Y58244D01*
X200933D01*
Y57256D01*
X199287D01*
Y50756D01*
X199287Y50744D01*
Y50256D01*
X199287Y50244D01*
Y47750D01*
X201953D01*
X204618D01*
Y50244D01*
X204618Y50256D01*
Y50744D01*
X204618Y50756D01*
Y57256D01*
X202972D01*
Y58244D01*
X204618D01*
Y64756D01*
X204618D01*
X204618Y65244D01*
X204618D01*
Y71756D01*
X202972D01*
Y72744D01*
X204618D01*
Y77223D01*
X206375Y78980D01*
X207000D01*
X207390Y79058D01*
X207721Y79279D01*
X207942Y79610D01*
X208020Y80000D01*
Y88578D01*
X212450Y93008D01*
X212911Y92816D01*
Y90146D01*
X211626D01*
X211236Y90068D01*
X210905Y89847D01*
X209779Y88721D01*
X209558Y88390D01*
X209480Y88000D01*
Y73841D01*
X209288Y73712D01*
X208916Y73156D01*
X208786Y72500D01*
X208916Y71844D01*
X209288Y71288D01*
X209844Y70916D01*
X210500Y70786D01*
X211156Y70916D01*
X211712Y71288D01*
X212084Y71844D01*
X212214Y72500D01*
X212084Y73156D01*
X211712Y73712D01*
X211520Y73841D01*
Y87578D01*
X212048Y88106D01*
X212911D01*
Y84295D01*
X215477D01*
Y60544D01*
X215284Y60415D01*
X214913Y59859D01*
X214783Y59203D01*
X214913Y58547D01*
X215284Y57991D01*
X215841Y57620D01*
X216496Y57489D01*
X217152Y57620D01*
X217708Y57991D01*
X218080Y58547D01*
X218211Y59203D01*
X218080Y59859D01*
X217708Y60415D01*
X217516Y60544D01*
Y84295D01*
X219719D01*
Y87445D01*
Y90595D01*
Y93744D01*
Y97480D01*
X221659D01*
X221788Y97288D01*
X222344Y96916D01*
X223000Y96786D01*
X223656Y96916D01*
X224212Y97288D01*
X224584Y97844D01*
X224714Y98500D01*
X224584Y99156D01*
X224212Y99712D01*
X223656Y100084D01*
X223000Y100214D01*
X222344Y100084D01*
X221788Y99712D01*
X221659Y99520D01*
X219719D01*
Y103193D01*
Y107004D01*
X221554D01*
X243303Y85255D01*
X243633Y85034D01*
X244024Y84957D01*
X246282D01*
Y84295D01*
X248665D01*
Y75256D01*
X246787D01*
Y68744D01*
X248665D01*
Y67756D01*
X246787D01*
Y61244D01*
X248480D01*
Y60422D01*
X245727Y57669D01*
X245500Y57714D01*
X244844Y57584D01*
X244288Y57212D01*
X243916Y56656D01*
X243786Y56000D01*
X243831Y55773D01*
X231078Y43020D01*
X197067D01*
Y43744D01*
X198713D01*
Y50256D01*
X198713D01*
Y50744D01*
X198713D01*
Y57256D01*
X193382D01*
Y50744D01*
X193382D01*
Y50618D01*
X192939Y50118D01*
X184650D01*
Y53043D01*
X179784D01*
Y65500D01*
Y69957D01*
X180220D01*
Y77846D01*
X175480D01*
Y69957D01*
X176216D01*
Y66320D01*
X153041D01*
X152912Y66512D01*
X152356Y66884D01*
X151985Y66957D01*
X151268Y67674D01*
X150937Y67895D01*
X150547Y67972D01*
X147256D01*
Y69618D01*
X147588Y69980D01*
X148153D01*
Y68650D01*
X154327D01*
X154738Y68238D01*
X155317Y67852D01*
X156000Y67716D01*
X156095D01*
Y66929D01*
X162606D01*
Y67810D01*
X164638D01*
X165321Y67946D01*
X165900Y68333D01*
X167523Y69957D01*
X171165D01*
Y77846D01*
X169947D01*
Y78892D01*
X170139Y79020D01*
X170511Y79576D01*
X170641Y80232D01*
X170511Y80888D01*
X170139Y81444D01*
X169583Y81816D01*
X168927Y81946D01*
X168271Y81816D01*
X167715Y81444D01*
X167344Y80888D01*
X167213Y80232D01*
X167344Y79576D01*
X167715Y79020D01*
X167908Y78892D01*
Y77846D01*
X166425D01*
Y73905D01*
X163899Y71379D01*
X162606D01*
Y72260D01*
X156525D01*
X156359Y72547D01*
X156525Y72835D01*
X158600D01*
Y74750D01*
X156095D01*
Y74378D01*
X155846Y73980D01*
X155595Y73980D01*
X154998D01*
Y81383D01*
X155335Y81744D01*
X155498Y81744D01*
X157250D01*
Y85000D01*
X158000D01*
D01*
X157250D01*
Y88256D01*
X155498D01*
X155335Y88256D01*
X154998Y88617D01*
Y89864D01*
X155287Y90244D01*
X155498Y90244D01*
X157203D01*
Y93500D01*
Y96756D01*
X155498D01*
X155287Y96756D01*
X154998Y97136D01*
Y98364D01*
X155287Y98744D01*
X155498Y98744D01*
X160618D01*
Y100980D01*
X162244D01*
Y99287D01*
X168756D01*
Y100933D01*
X170691D01*
X170788Y100788D01*
X171344Y100416D01*
X172000Y100286D01*
X172656Y100416D01*
X173212Y100788D01*
X173584Y101344D01*
X173714Y102000D01*
X173584Y102656D01*
X173212Y103212D01*
X172656Y103584D01*
X172000Y103714D01*
X171344Y103584D01*
X170788Y103212D01*
X170628Y102972D01*
X168756D01*
Y104618D01*
X162244D01*
Y103020D01*
X160618D01*
Y105256D01*
X155498D01*
X155287Y105256D01*
X154998Y105636D01*
Y111000D01*
X154998Y111000D01*
X154895Y111783D01*
X154638Y112405D01*
Y112484D01*
X154605D01*
X154593Y112513D01*
X154112Y113140D01*
X154112Y113140D01*
X146026Y121226D01*
Y147574D01*
X146526Y147607D01*
X146577Y147217D01*
X146879Y146487D01*
X147360Y145860D01*
X147987Y145379D01*
X148717Y145077D01*
X149500Y144974D01*
X150283Y145077D01*
X151013Y145379D01*
X151640Y145860D01*
X152120Y146487D01*
X152423Y147217D01*
X152526Y148000D01*
Y149463D01*
X152541Y149500D01*
Y150598D01*
X152839D01*
Y151566D01*
X153300Y151758D01*
X157102Y147956D01*
Y143591D01*
X152949D01*
Y133339D01*
X160051D01*
Y136528D01*
X163744D01*
Y134882D01*
X170256D01*
Y136480D01*
X171159D01*
X171288Y136288D01*
X171844Y135916D01*
X172500Y135786D01*
X173156Y135916D01*
X173712Y136288D01*
X174084Y136844D01*
X174214Y137500D01*
X174084Y138156D01*
X173712Y138712D01*
X173156Y139084D01*
X172500Y139214D01*
X171844Y139084D01*
X171288Y138712D01*
X171159Y138520D01*
X170256D01*
Y140213D01*
X163744D01*
Y138567D01*
X160051D01*
Y143591D01*
X159142D01*
Y148209D01*
X159587Y148430D01*
X159624Y148434D01*
X163744Y144314D01*
Y140787D01*
X170256D01*
Y146118D01*
X164824D01*
X156002Y154940D01*
X156194Y155402D01*
X160250D01*
Y163500D01*
Y171598D01*
X156194D01*
X156002Y172060D01*
X158721Y174779D01*
X158942Y175110D01*
X159020Y175500D01*
Y178382D01*
X161256D01*
Y183713D01*
X155020D01*
Y184287D01*
X161256D01*
Y188767D01*
X162448Y189958D01*
X162909Y189767D01*
Y188449D01*
X164854D01*
X165045Y187987D01*
X163874Y186816D01*
X163653Y186485D01*
X163575Y186094D01*
Y184756D01*
X161929D01*
Y178244D01*
X167260D01*
Y184756D01*
X165614D01*
Y185672D01*
X168391Y188449D01*
X173161D01*
Y195551D01*
X162909D01*
Y192992D01*
X162657Y192942D01*
X162326Y192721D01*
X159223Y189618D01*
X154744D01*
Y187186D01*
X153279Y185721D01*
X153256Y185686D01*
X152756Y185838D01*
Y186203D01*
X146244D01*
Y184541D01*
X146244Y184287D01*
X145846Y184041D01*
X143520D01*
Y190159D01*
X143712Y190288D01*
X144084Y190844D01*
X144214Y191500D01*
X144084Y192156D01*
X143712Y192712D01*
X143156Y193084D01*
X142500Y193214D01*
X141844Y193084D01*
X141288Y192712D01*
X140916Y192156D01*
X140786Y191500D01*
X140916Y190844D01*
X141288Y190288D01*
X141480Y190159D01*
Y184041D01*
X137304D01*
X130923Y190423D01*
X130838Y190488D01*
Y191996D01*
X127608D01*
X127500Y192041D01*
X127048D01*
X127000Y192048D01*
X126952Y192041D01*
X100000D01*
X99617Y191883D01*
X99527Y191665D01*
X99449D01*
Y181335D01*
X99527D01*
X99617Y181117D01*
X100000Y180959D01*
X111952D01*
Y138048D01*
X70500D01*
X70500Y138048D01*
X69064Y137858D01*
X67726Y137304D01*
X66577Y136423D01*
X66577Y136423D01*
X52077Y121923D01*
X51196Y120774D01*
X50642Y119436D01*
X50453Y118000D01*
X50504Y117609D01*
X50459Y117500D01*
Y97500D01*
X50617Y97117D01*
X51000Y96959D01*
X61000D01*
X61383Y97117D01*
X61541Y97500D01*
Y97989D01*
X61890Y98058D01*
X62221Y98279D01*
X62980Y99038D01*
X63480Y98831D01*
Y98107D01*
X59279Y93906D01*
X59058Y93575D01*
X58980Y93185D01*
Y92041D01*
X51000D01*
X50617Y91883D01*
X50459Y91500D01*
Y75304D01*
X30077Y54923D01*
X29196Y53774D01*
X28642Y52436D01*
X28453Y51000D01*
Y6500D01*
X28642Y5064D01*
X29196Y3726D01*
X30077Y2577D01*
X31226Y1696D01*
X32175Y1303D01*
X32076Y803D01*
X16708D01*
X16609Y1303D01*
X17927Y1849D01*
X19526Y2829D01*
X20953Y4047D01*
X22171Y5474D01*
X23151Y7073D01*
X23869Y8806D01*
X24307Y10630D01*
X24395Y11750D01*
X12500D01*
Y12500D01*
X11750D01*
Y24395D01*
X10630Y24307D01*
X8806Y23869D01*
X7073Y23151D01*
X5474Y22171D01*
X4047Y20953D01*
X2829Y19526D01*
X1849Y17927D01*
X1303Y16609D01*
X803Y16708D01*
Y183292D01*
X1303Y183391D01*
X1849Y182073D01*
X2829Y180473D01*
X4047Y179047D01*
X5474Y177829D01*
X7073Y176849D01*
X7934Y176492D01*
X7834Y175992D01*
X6449D01*
Y171715D01*
X10000D01*
X13551D01*
Y175629D01*
X14370Y175693D01*
X16194Y176131D01*
X17927Y176849D01*
X19526Y177829D01*
X20953Y179047D01*
X22171Y180473D01*
X23151Y182073D01*
X23869Y183806D01*
X24307Y185630D01*
X24395Y186750D01*
X12500D01*
Y188250D01*
X24395D01*
X24307Y189370D01*
X23869Y191194D01*
X23151Y192927D01*
X22171Y194527D01*
X20953Y195953D01*
X19526Y197171D01*
X17927Y198151D01*
X16609Y198697D01*
X16708Y199197D01*
X285906D01*
X287683Y198844D01*
D02*
G37*
G36*
X130577Y175077D02*
X131726Y174196D01*
X133064Y173642D01*
X133789Y173546D01*
X134000Y173459D01*
X134452D01*
X134500Y173452D01*
X134548Y173459D01*
X146130D01*
Y168791D01*
X133323D01*
X133309Y168897D01*
X133007Y169626D01*
X132526Y170253D01*
X128640Y174140D01*
X128013Y174620D01*
X127283Y174923D01*
X126500Y175026D01*
X125717Y174923D01*
X124987Y174620D01*
X124360Y174140D01*
X123880Y173513D01*
X123577Y172783D01*
X123547Y172557D01*
X123047Y172590D01*
Y180959D01*
X124696D01*
X130577Y175077D01*
D02*
G37*
G36*
X146130Y163394D02*
Y163240D01*
X139756D01*
Y163618D01*
X133526D01*
Y165886D01*
X146130D01*
Y163394D01*
D02*
G37*
G36*
X139756Y152382D02*
X139974Y151972D01*
Y147575D01*
X139756Y147165D01*
X133526D01*
Y152382D01*
X139756D01*
D02*
G37*
G36*
X137250Y121335D02*
X139756D01*
X139974Y120925D01*
Y119972D01*
X140077Y119189D01*
X140380Y118459D01*
X140860Y117833D01*
X148947Y109747D01*
Y73980D01*
X148153D01*
Y72020D01*
X145922D01*
X134721Y83221D01*
X134390Y83442D01*
X134000Y83520D01*
X121500D01*
X121110Y83442D01*
X120779Y83221D01*
X120039Y82481D01*
X119818Y82150D01*
X119740Y81760D01*
Y81283D01*
X119079D01*
Y75559D01*
X122319D01*
X122441Y75559D01*
X122819D01*
X122941Y75559D01*
X123750D01*
Y78421D01*
X125250D01*
Y75559D01*
X126059D01*
X126181Y75559D01*
X126559D01*
X126681Y75559D01*
X129921D01*
Y77402D01*
X131238D01*
X131367Y77209D01*
X131923Y76838D01*
X132579Y76707D01*
X133235Y76838D01*
X133791Y77209D01*
X134162Y77765D01*
X134293Y78421D01*
X134162Y79077D01*
X133791Y79633D01*
X133235Y80005D01*
X132579Y80135D01*
X131923Y80005D01*
X131367Y79633D01*
X131238Y79441D01*
X129921D01*
X129921Y81283D01*
X130340Y81480D01*
X133578D01*
X144779Y70279D01*
X145020Y70118D01*
X144962Y69683D01*
X144937Y69618D01*
X140744D01*
Y64287D01*
X147256D01*
Y65933D01*
X149718D01*
X150035Y65547D01*
X149986Y65300D01*
X150116Y64644D01*
X150488Y64088D01*
X150710Y63939D01*
X150655Y63375D01*
X150595Y63350D01*
X148153D01*
Y58020D01*
X148974D01*
Y57520D01*
X127922D01*
X121779Y63662D01*
Y65363D01*
X122133Y65716D01*
X122819Y65716D01*
X122941Y65716D01*
X123750D01*
Y68579D01*
Y71441D01*
X122941D01*
X122819Y71441D01*
X122441D01*
X122319Y71441D01*
X119079D01*
Y65716D01*
X119740D01*
Y63240D01*
X119818Y62850D01*
X120039Y62519D01*
X126779Y55779D01*
X127110Y55558D01*
X127500Y55480D01*
X148974D01*
Y41401D01*
X148620Y41048D01*
X148208Y41049D01*
X147756Y41165D01*
Y41165D01*
X141244D01*
Y41165D01*
X141148Y41069D01*
X140717Y41070D01*
X140256Y41165D01*
Y41165D01*
X133744D01*
Y41165D01*
X133669Y41090D01*
X133193Y41092D01*
X132756Y41260D01*
X132756Y41260D01*
X132756Y41260D01*
X126244D01*
Y41260D01*
X126096Y41112D01*
X125702Y41113D01*
X125256Y41260D01*
X125256Y41260D01*
X125256Y41260D01*
X118744D01*
Y41260D01*
X118617Y41133D01*
X116156Y41140D01*
X116155Y41140D01*
X116155Y41140D01*
X115964Y41061D01*
X115772Y40983D01*
X115772Y40982D01*
X115772Y40982D01*
X115418Y40629D01*
X115418Y40629D01*
X115417Y40629D01*
X115337Y40436D01*
X115259Y40247D01*
X115259Y40246D01*
X115259Y40246D01*
Y1000D01*
X115127Y803D01*
X112918D01*
X112541Y1200D01*
Y40400D01*
X112462Y40590D01*
X112384Y40782D01*
X112383Y40782D01*
X112383Y40783D01*
X112193Y40861D01*
X112002Y40941D01*
X110665Y40945D01*
X110256Y41165D01*
X110256Y41165D01*
X110256Y41165D01*
X103744D01*
Y41165D01*
X103544Y40966D01*
X103174Y40967D01*
X102756Y41165D01*
X102756Y41165D01*
X102756Y41165D01*
X96244D01*
Y41165D01*
X96066Y40988D01*
X95702Y40989D01*
X95256Y41118D01*
Y41118D01*
X88744D01*
Y41118D01*
X88636Y41010D01*
X88231Y41011D01*
X87756Y41071D01*
Y41071D01*
X81687D01*
X81521Y41358D01*
X81687Y41646D01*
X83750D01*
Y44311D01*
Y46976D01*
X81526D01*
X81244Y46976D01*
X81026Y47386D01*
Y67062D01*
X109482Y95518D01*
X110618Y96653D01*
X112850D01*
Y99095D01*
X113108Y99717D01*
X113211Y100500D01*
X113108Y101283D01*
X112850Y101905D01*
Y103980D01*
X116578D01*
X118150Y102409D01*
Y101905D01*
X117892Y101283D01*
X117789Y100500D01*
X117892Y99717D01*
X118150Y99095D01*
Y96653D01*
X123480D01*
Y97474D01*
X130500D01*
X131283Y97577D01*
X132013Y97879D01*
X132640Y98360D01*
X133121Y98987D01*
X133423Y99717D01*
X133526Y100500D01*
Y106382D01*
X139756D01*
Y111713D01*
X133526D01*
Y112287D01*
X135750D01*
Y114953D01*
Y117618D01*
X133526D01*
Y121335D01*
X135750D01*
Y124000D01*
X137250D01*
Y121335D01*
D02*
G37*
G36*
X123577Y171217D02*
X123880Y170487D01*
X124360Y169860D01*
X127440Y166780D01*
X127464Y166603D01*
X127474Y166578D01*
Y144500D01*
Y118471D01*
X126974Y118320D01*
X126712Y118712D01*
X126156Y119084D01*
X125500Y119214D01*
X124844Y119084D01*
X124571Y118901D01*
X124071Y119168D01*
Y120756D01*
X118740D01*
Y114244D01*
X124071D01*
Y115832D01*
X124571Y116099D01*
X124844Y115916D01*
X125500Y115786D01*
X126156Y115916D01*
X126712Y116288D01*
X126974Y116680D01*
X127474Y116529D01*
Y109000D01*
Y103526D01*
X123480D01*
Y104347D01*
X119096D01*
X117721Y105721D01*
X117390Y105942D01*
X117000Y106020D01*
X106000D01*
X105610Y105942D01*
X105553Y105904D01*
X105234Y106292D01*
X106721Y107779D01*
X106942Y108110D01*
X107020Y108500D01*
Y114835D01*
X109256D01*
Y116480D01*
X112835D01*
Y114244D01*
X118165D01*
Y120756D01*
X112835D01*
Y118520D01*
X109256D01*
Y120165D01*
X102744D01*
Y114835D01*
X104980D01*
Y108922D01*
X101141Y105083D01*
X97417D01*
Y108878D01*
Y109219D01*
X94161D01*
X90905D01*
Y109020D01*
X89922D01*
X82721Y116221D01*
X82390Y116442D01*
X82000Y116520D01*
X65000D01*
X64610Y116442D01*
X64279Y116221D01*
X62041Y113983D01*
X61541Y114190D01*
Y115696D01*
X72798Y126953D01*
X117500D01*
X118936Y127142D01*
X120274Y127696D01*
X121423Y128577D01*
X122304Y129726D01*
X122858Y131064D01*
X123047Y132500D01*
Y171410D01*
X123547Y171443D01*
X123577Y171217D01*
D02*
G37*
G36*
X265303Y117980D02*
X265110Y117942D01*
X264779Y117721D01*
X253589Y106530D01*
X253089Y106738D01*
Y109705D01*
X253089Y109705D01*
X253089D01*
X253251Y110147D01*
X261584Y118480D01*
X265254D01*
X265303Y117980D01*
D02*
G37*
G36*
X266382Y115756D02*
X266382Y115480D01*
Y109244D01*
X267075D01*
Y98627D01*
X266850Y98477D01*
X266479Y97921D01*
X266349Y97265D01*
X266427Y96869D01*
X265823Y96265D01*
X265323Y96472D01*
Y96878D01*
X258221D01*
Y94995D01*
X257723Y94843D01*
X257720Y94843D01*
X253342Y99221D01*
X253089Y99391D01*
Y100705D01*
X253224D01*
X253615Y100782D01*
X253945Y101003D01*
X256922Y103980D01*
X258221D01*
Y103122D01*
X265323D01*
Y106878D01*
X258221D01*
Y106020D01*
X256669D01*
X256448Y106465D01*
X256444Y106502D01*
X261077Y111135D01*
X261538Y110889D01*
X261461Y110500D01*
X261616Y109720D01*
X262058Y109058D01*
X262720Y108616D01*
X262750Y108610D01*
Y110500D01*
X263500D01*
Y111250D01*
X265390D01*
X265384Y111280D01*
X264942Y111942D01*
X264280Y112384D01*
X263500Y112539D01*
X263111Y112462D01*
X262864Y112923D01*
X265922Y115980D01*
X265975D01*
X266382Y115756D01*
D02*
G37*
G36*
X85978Y100580D02*
X85787Y100118D01*
X80744D01*
Y100118D01*
X80256Y100118D01*
Y100118D01*
X77858D01*
Y102972D01*
X80094D01*
Y105810D01*
X80556Y106002D01*
X85978Y100580D01*
D02*
G37*
G36*
X212911Y96285D02*
X212704Y96146D01*
X207708Y91150D01*
X207224Y91373D01*
Y98806D01*
X209123Y100705D01*
X212911D01*
Y96285D01*
D02*
G37*
G36*
X73583Y107051D02*
X71031D01*
X70641Y106974D01*
X70310Y106753D01*
X68779Y105221D01*
X68558Y104890D01*
X68480Y104500D01*
Y100118D01*
X66244D01*
Y97186D01*
X62779Y93721D01*
X62558Y93390D01*
X62480Y93000D01*
Y78594D01*
X62558Y78204D01*
X62779Y77873D01*
X63929Y76723D01*
Y72244D01*
X69260D01*
Y78756D01*
X64780D01*
X64520Y79017D01*
Y92578D01*
X65744Y93802D01*
X66244Y93595D01*
Y92297D01*
X68750D01*
Y94213D01*
X67382D01*
X67115Y94713D01*
X67165Y94787D01*
X72756D01*
Y100118D01*
X70520D01*
Y104078D01*
X71454Y105012D01*
X73583D01*
Y102972D01*
X75819D01*
Y100118D01*
X73744D01*
Y94787D01*
X80256D01*
Y94787D01*
X80744Y94787D01*
Y94787D01*
X87256D01*
Y98693D01*
X87357Y98798D01*
X87756Y99029D01*
X88000Y98980D01*
X103733D01*
X103924Y98519D01*
X75860Y70455D01*
X75380Y69828D01*
X75077Y69098D01*
X74974Y68315D01*
Y3700D01*
X75077Y2917D01*
X75380Y2187D01*
X75860Y1560D01*
X76196Y1303D01*
X76026Y803D01*
X74022D01*
X73760Y1303D01*
X73841Y1500D01*
Y4276D01*
X73794Y4391D01*
X73785Y4515D01*
X73717Y4575D01*
X73683Y4658D01*
X73577Y4702D01*
X73565Y4708D01*
X73474Y4788D01*
X73473Y4789D01*
X73267Y5244D01*
X73614Y6081D01*
X73790Y7421D01*
X73614Y8762D01*
X73267Y9599D01*
X73473Y10054D01*
X73474Y10054D01*
X73565Y10134D01*
X73577Y10140D01*
X73683Y10184D01*
X73717Y10268D01*
X73785Y10327D01*
X73794Y10452D01*
X73841Y10567D01*
Y24354D01*
X73794Y24470D01*
X73785Y24594D01*
X73717Y24654D01*
X73683Y24737D01*
X73577Y24781D01*
X73565Y24787D01*
X73474Y24867D01*
X73473Y24867D01*
X73267Y25323D01*
X73614Y26159D01*
X73790Y27500D01*
X73614Y28841D01*
X73267Y29677D01*
X73473Y30133D01*
X73474Y30133D01*
X73565Y30213D01*
X73577Y30219D01*
X73683Y30263D01*
X73717Y30347D01*
X73785Y30406D01*
X73794Y30531D01*
X73841Y30645D01*
Y40700D01*
X73762Y40891D01*
X73684Y41082D01*
X73683Y41082D01*
X73683Y41083D01*
X73491Y41162D01*
X73301Y41241D01*
X72611Y41243D01*
X72611Y41243D01*
X72611Y41243D01*
X72256Y41213D01*
X72256Y41213D01*
X65860D01*
X65746Y41260D01*
X65111Y41262D01*
X65111Y41262D01*
X65111Y41262D01*
X64756Y41213D01*
X64756Y41213D01*
X58406D01*
X58245Y41280D01*
X57611Y41281D01*
X57611Y41281D01*
X57611Y41281D01*
X57256Y41213D01*
X57256Y41213D01*
X51217D01*
X51137Y41287D01*
X51195Y41573D01*
X51334Y41787D01*
X53250D01*
Y43703D01*
X50744D01*
Y42275D01*
X50744Y42266D01*
X50744Y42266D01*
X50744Y41799D01*
X50734Y41606D01*
X50398Y41300D01*
X50111Y41300D01*
X50111Y41300D01*
X50111Y41300D01*
X49756Y41213D01*
X49756Y41213D01*
X43723D01*
X43646Y41287D01*
X43682Y41510D01*
X43848Y41787D01*
X45750D01*
Y43703D01*
X43244D01*
Y42256D01*
X43244Y42244D01*
X43244Y42244D01*
X43244Y41818D01*
X43205Y41555D01*
X42915Y41319D01*
X39548Y41327D01*
Y48702D01*
X58324Y67479D01*
X58748Y67196D01*
X58577Y66783D01*
X58573Y66750D01*
X60750D01*
Y68927D01*
X60717Y68923D01*
X60285Y68744D01*
X60146Y68871D01*
X59987Y69162D01*
X60804Y70226D01*
X61358Y71564D01*
X61547Y73000D01*
X61541Y73048D01*
Y91500D01*
X61383Y91883D01*
X61020Y92033D01*
Y92763D01*
X65221Y96964D01*
X65442Y97295D01*
X65520Y97685D01*
Y111578D01*
X66422Y112480D01*
X73583D01*
Y107051D01*
D02*
G37*
G36*
X43244Y40777D02*
Y39297D01*
X46500D01*
X49756D01*
Y40406D01*
X50110Y40759D01*
X50744Y40758D01*
Y39297D01*
X54000D01*
X57256D01*
Y40387D01*
X57610Y40740D01*
X58244Y40738D01*
Y39297D01*
X64756D01*
Y40368D01*
X65110Y40721D01*
X65744Y40719D01*
Y39297D01*
X72256D01*
Y40349D01*
X72610Y40702D01*
X73300Y40700D01*
Y30645D01*
X72800Y30476D01*
X72273Y31163D01*
X71200Y31986D01*
X69951Y32504D01*
X69360Y32581D01*
Y27500D01*
Y22419D01*
X69951Y22496D01*
X71200Y23014D01*
X72273Y23837D01*
X72800Y24524D01*
X73300Y24354D01*
Y10567D01*
X72800Y10397D01*
X72273Y11084D01*
X71200Y11907D01*
X69951Y12425D01*
X69360Y12503D01*
Y7421D01*
Y2340D01*
X69951Y2418D01*
X71200Y2935D01*
X72273Y3758D01*
X72800Y4445D01*
X73300Y4276D01*
Y1500D01*
X34100D01*
Y40446D01*
X34454Y40799D01*
X43244Y40777D01*
D02*
G37*
G36*
X254480Y28700D02*
Y11422D01*
X249578Y6520D01*
X245519D01*
X245419Y7020D01*
X245918Y7226D01*
X246701Y7827D01*
X247302Y8610D01*
X247679Y9522D01*
X247808Y10500D01*
X247679Y11478D01*
X247302Y12390D01*
X246701Y13173D01*
X245918Y13774D01*
X245006Y14152D01*
X244028Y14280D01*
X243049Y14152D01*
X242137Y13774D01*
X241354Y13173D01*
X240754Y12390D01*
X240376Y11478D01*
X240247Y10500D01*
X240376Y9522D01*
X240754Y8610D01*
X241354Y7827D01*
X242137Y7226D01*
X242636Y7020D01*
X242536Y6520D01*
X235676D01*
X235577Y7020D01*
X236075Y7226D01*
X236858Y7827D01*
X237459Y8610D01*
X237837Y9522D01*
X237965Y10500D01*
X237837Y11478D01*
X237476Y12349D01*
X254018Y28892D01*
X254480Y28700D01*
D02*
G37*
G36*
X81244Y40491D02*
Y39156D01*
X84500D01*
X87756D01*
Y40117D01*
X88110Y40470D01*
X88744Y40469D01*
Y39203D01*
X92000D01*
X95256D01*
Y40095D01*
X95610Y40448D01*
X96244Y40446D01*
Y39250D01*
X102756D01*
Y40073D01*
X103110Y40426D01*
X103744Y40424D01*
Y39250D01*
X110256D01*
Y40051D01*
X110610Y40404D01*
X112000Y40400D01*
Y1200D01*
X78100D01*
Y40146D01*
X78454Y40499D01*
X81244Y40491D01*
D02*
G37*
G36*
X118744Y40592D02*
Y39344D01*
X125256D01*
Y40219D01*
X125610Y40572D01*
X126244Y40570D01*
Y39344D01*
X132756D01*
Y40198D01*
X133110Y40551D01*
X133744Y40549D01*
Y39250D01*
X137000D01*
X140256D01*
Y40176D01*
X140610Y40530D01*
X141244Y40528D01*
Y39250D01*
X144500D01*
X147756D01*
Y40155D01*
X148110Y40508D01*
X152100Y40497D01*
Y1000D01*
X115800D01*
Y40246D01*
X116154Y40599D01*
X118744Y40592D01*
D02*
G37*
%LPC*%
G36*
X130838Y197902D02*
X128332D01*
Y195987D01*
X130838D01*
Y197902D01*
D02*
G37*
G36*
X126832D02*
X124326D01*
Y195987D01*
X126832D01*
Y197902D01*
D02*
G37*
G36*
X122757Y197902D02*
X120252D01*
Y195987D01*
X122757D01*
Y197902D01*
D02*
G37*
G36*
X118752D02*
X116246D01*
Y195987D01*
X118752D01*
Y197902D01*
D02*
G37*
G36*
X190091Y195551D02*
X185715D01*
Y192750D01*
X190091D01*
Y195551D01*
D02*
G37*
G36*
X184215D02*
X179839D01*
Y192750D01*
X184215D01*
Y195551D01*
D02*
G37*
G36*
X130838Y194487D02*
X128332D01*
Y192571D01*
X130838D01*
Y194487D01*
D02*
G37*
G36*
X126832D02*
X124326D01*
Y192571D01*
X126832D01*
Y194487D01*
D02*
G37*
G36*
X122757Y194487D02*
X120252D01*
Y192571D01*
X122757D01*
Y194487D01*
D02*
G37*
G36*
X118752D02*
X116246D01*
Y192571D01*
X118752D01*
Y194487D01*
D02*
G37*
G36*
X190091Y191250D02*
X185715D01*
Y188449D01*
X190091D01*
Y191250D01*
D02*
G37*
G36*
X184215D02*
X179839D01*
Y188449D01*
X184215D01*
Y191250D01*
D02*
G37*
G36*
X152756Y189618D02*
X150250D01*
Y187703D01*
X152756D01*
Y189618D01*
D02*
G37*
G36*
X148750D02*
X146244D01*
Y187703D01*
X148750D01*
Y189618D01*
D02*
G37*
G36*
X191528Y186284D02*
X182500D01*
X181817Y186149D01*
X181238Y185762D01*
X178761Y183284D01*
X173165D01*
Y184756D01*
X167835D01*
Y178244D01*
X169716D01*
Y176402D01*
X169161D01*
Y173630D01*
Y171071D01*
Y168512D01*
Y165953D01*
Y163394D01*
Y160835D01*
Y156276D01*
X168720Y156041D01*
X168656Y156084D01*
X168000Y156214D01*
X167394Y156093D01*
X167256Y156119D01*
X166894Y156313D01*
Y162750D01*
X161750D01*
Y155402D01*
X166025D01*
X166366Y154902D01*
X166286Y154500D01*
X166416Y153844D01*
X166788Y153288D01*
X167344Y152916D01*
X168000Y152786D01*
X168656Y152916D01*
X168661Y152920D01*
X169161Y152653D01*
Y150598D01*
X175870D01*
Y150965D01*
X177382D01*
Y146744D01*
X178980D01*
Y143341D01*
X178788Y143212D01*
X178416Y142656D01*
X178286Y142000D01*
X178416Y141344D01*
X178788Y140788D01*
X179344Y140416D01*
X180000Y140286D01*
X180656Y140416D01*
X181212Y140788D01*
X181584Y141344D01*
X181714Y142000D01*
X181584Y142656D01*
X181212Y143212D01*
X181020Y143341D01*
Y146744D01*
X182713D01*
Y152832D01*
X183000Y152998D01*
X183287Y152832D01*
Y146744D01*
X184832D01*
X184860Y146244D01*
X184741Y146165D01*
X184369Y145609D01*
X184239Y144953D01*
X184369Y144297D01*
X184741Y143741D01*
X185297Y143369D01*
X185953Y143239D01*
X186609Y143369D01*
X187165Y143741D01*
X187536Y144297D01*
X187667Y144953D01*
X187536Y145609D01*
X187165Y146165D01*
X187046Y146244D01*
X187074Y146744D01*
X188618D01*
Y153024D01*
X188618Y153256D01*
X189007Y153524D01*
X191244D01*
Y150335D01*
X197756D01*
Y155665D01*
X197955Y156083D01*
X199244D01*
Y154787D01*
X205756D01*
Y156433D01*
X207244D01*
Y154740D01*
X213756D01*
Y160071D01*
X207244D01*
Y158472D01*
X205756D01*
Y160118D01*
X199244D01*
Y158122D01*
X179887D01*
X179821Y158203D01*
X179665Y158622D01*
X179954Y159054D01*
X180084Y159710D01*
X179954Y160366D01*
X179730Y160701D01*
X179996Y161201D01*
X180268D01*
X180282Y161198D01*
X180505D01*
X180633Y161006D01*
X181190Y160634D01*
X181845Y160503D01*
X182501Y160634D01*
X183057Y161006D01*
X183429Y161562D01*
X183559Y162218D01*
X183429Y162873D01*
X183171Y163260D01*
X183394Y163760D01*
X222732D01*
X223122Y163838D01*
X223453Y164059D01*
X226277Y166882D01*
X230756D01*
Y172213D01*
X224244D01*
Y167733D01*
X223193Y166682D01*
X222756Y166952D01*
X222756Y167286D01*
Y168750D01*
X220250D01*
Y166835D01*
X222271D01*
X222638Y166835D01*
X222909Y166398D01*
X222310Y165799D01*
X179481D01*
X179254Y166299D01*
X179511Y166683D01*
X179641Y167339D01*
X179511Y167994D01*
X179254Y168378D01*
X179481Y168878D01*
X184680D01*
X186279Y167279D01*
X186610Y167058D01*
X187000Y166980D01*
X200244D01*
Y166929D01*
X206756D01*
Y168575D01*
X208244D01*
Y166882D01*
X214756D01*
Y172213D01*
X208244D01*
Y170614D01*
X206756D01*
Y172260D01*
X200244D01*
Y169020D01*
X199572D01*
X199165Y169244D01*
X199165Y169520D01*
Y171750D01*
X196500D01*
X193835D01*
Y169684D01*
X193547Y169518D01*
X193260Y169684D01*
Y175756D01*
X187929D01*
Y173476D01*
X181207D01*
X181000Y173976D01*
X185739Y178716D01*
X186472D01*
X187155Y178851D01*
X187401Y179016D01*
X189138D01*
Y181984D01*
X187401D01*
X187155Y182149D01*
X186817Y182216D01*
X186866Y182716D01*
X190788D01*
X192862Y180642D01*
Y179016D01*
X194599D01*
X194845Y178851D01*
X195528Y178716D01*
X196210Y178851D01*
X196456Y179016D01*
X198193D01*
Y181984D01*
X196567D01*
X192789Y185762D01*
X192210Y186149D01*
X191528Y186284D01*
D02*
G37*
G36*
X86256Y183260D02*
X79744D01*
Y181614D01*
X79594D01*
X79204Y181536D01*
X78873Y181316D01*
X75779Y178221D01*
X75756Y178186D01*
X75256Y178338D01*
Y183213D01*
X68744D01*
Y177882D01*
X70980D01*
Y174921D01*
X69406D01*
Y171721D01*
X67779Y170095D01*
X67558Y169764D01*
X67480Y169374D01*
Y162453D01*
X67558Y162063D01*
X67779Y161732D01*
X69744Y159767D01*
Y155287D01*
X76256D01*
Y156980D01*
X77744D01*
Y155335D01*
X84256D01*
Y160665D01*
X77744D01*
Y159020D01*
X76256D01*
Y160618D01*
X71777D01*
X69520Y162875D01*
Y164079D01*
X72605D01*
X74905Y161779D01*
X75236Y161558D01*
X75626Y161480D01*
X89621D01*
X94719Y156382D01*
X90279Y151941D01*
X90058Y151611D01*
X89980Y151221D01*
Y145922D01*
X89627Y145569D01*
X89165Y145761D01*
Y147256D01*
X83835D01*
Y140744D01*
X89165D01*
Y142980D01*
X89500D01*
X89890Y143058D01*
X90221Y143279D01*
X91721Y144779D01*
X91942Y145110D01*
X92020Y145500D01*
Y150798D01*
X95725Y154504D01*
X97391D01*
X97500Y154459D01*
X104500D01*
X104609Y154504D01*
X105165D01*
Y155185D01*
X108762Y158782D01*
X109149Y159361D01*
X109284Y160043D01*
X109284Y160043D01*
Y162929D01*
X110756D01*
Y168260D01*
X104244D01*
Y162929D01*
X105716D01*
Y160782D01*
X103474Y158541D01*
X97500D01*
X97117Y158383D01*
X97066Y158260D01*
X95725D01*
X90764Y163221D01*
X90434Y163442D01*
X90043Y163520D01*
X76048D01*
X75327Y164241D01*
Y167279D01*
X77173Y169125D01*
X77372Y169098D01*
X77673Y168950D01*
Y167819D01*
X79884D01*
Y169500D01*
Y171181D01*
X78020D01*
X77673Y171181D01*
X77520Y171617D01*
Y177078D01*
X79282Y178840D01*
X79744Y178649D01*
Y177929D01*
X86256D01*
Y183260D01*
D02*
G37*
G36*
X206756Y178165D02*
X204250D01*
Y176250D01*
X206756D01*
Y178165D01*
D02*
G37*
G36*
X202750D02*
X200244D01*
Y176250D01*
X202750D01*
Y178165D01*
D02*
G37*
G36*
X230756Y178118D02*
X228250D01*
Y176203D01*
X230756D01*
Y178118D01*
D02*
G37*
G36*
X226750D02*
X224244D01*
Y176203D01*
X226750D01*
Y178118D01*
D02*
G37*
G36*
X199165Y175756D02*
X197250D01*
Y173250D01*
X199165D01*
Y175756D01*
D02*
G37*
G36*
X195750D02*
X193835D01*
Y173250D01*
X195750D01*
Y175756D01*
D02*
G37*
G36*
X206756Y174750D02*
X204250D01*
Y172835D01*
X206756D01*
Y174750D01*
D02*
G37*
G36*
X202750D02*
X200244D01*
Y172835D01*
X202750D01*
Y174750D01*
D02*
G37*
G36*
X230756Y174703D02*
X228250D01*
Y172787D01*
X230756D01*
Y174703D01*
D02*
G37*
G36*
X226750D02*
X224244D01*
Y172787D01*
X226750D01*
Y174703D01*
D02*
G37*
G36*
X214756Y178118D02*
X208244D01*
Y172787D01*
X214756D01*
Y174433D01*
X216244D01*
Y172740D01*
X222756D01*
Y178071D01*
X216244D01*
Y176472D01*
X214756D01*
Y178118D01*
D02*
G37*
G36*
X222756Y172165D02*
X220250D01*
Y170250D01*
X222756D01*
Y172165D01*
D02*
G37*
G36*
X81384Y171181D02*
Y170250D01*
X83595D01*
Y171181D01*
X81384D01*
D02*
G37*
G36*
X218750Y172165D02*
X216244D01*
Y170250D01*
X218750D01*
Y172165D01*
D02*
G37*
G36*
X26256Y172118D02*
X23750D01*
Y170203D01*
X26256D01*
Y172118D01*
D02*
G37*
G36*
X22250D02*
X19744D01*
Y170203D01*
X22250D01*
Y172118D01*
D02*
G37*
G36*
X92500Y195047D02*
X39000D01*
X37564Y194858D01*
X36226Y194304D01*
X35077Y193423D01*
X34196Y192274D01*
X33642Y190936D01*
X33452Y189500D01*
X33504Y189109D01*
X33459Y189000D01*
Y173000D01*
X33617Y172617D01*
X33835Y172527D01*
Y172449D01*
X44165D01*
Y174980D01*
X49897D01*
X51217Y173660D01*
Y170681D01*
X51217Y170559D01*
Y170138D01*
X51027Y169638D01*
X44165D01*
Y170496D01*
X41609D01*
X41500Y170541D01*
X34000D01*
X33891Y170496D01*
X33835D01*
Y170473D01*
X33617Y170383D01*
X33459Y170000D01*
Y166548D01*
X26656D01*
X26256Y166787D01*
X26256Y167048D01*
Y168703D01*
X19744D01*
Y166787D01*
X20747D01*
X20966Y166287D01*
X20898Y166213D01*
X19744D01*
Y165434D01*
X19077Y164923D01*
X13738Y159583D01*
X10000D01*
X8564Y159394D01*
X7765Y159063D01*
X6449D01*
Y158243D01*
X6077Y157958D01*
X6077Y157958D01*
X5644Y157525D01*
X4763Y156376D01*
X4208Y155038D01*
X4019Y153602D01*
Y145000D01*
X4208Y143564D01*
X4763Y142226D01*
X5644Y141077D01*
X6793Y140196D01*
X8131Y139642D01*
X9567Y139453D01*
X11003Y139642D01*
X12341Y140196D01*
X13490Y141077D01*
X14371Y142226D01*
X14925Y143564D01*
X15114Y145000D01*
Y148488D01*
X16035D01*
X17471Y148677D01*
X18809Y149231D01*
X19958Y150113D01*
X25298Y155453D01*
X36500D01*
X37936Y155642D01*
X39274Y156196D01*
X40423Y157077D01*
X41304Y158226D01*
X41858Y159564D01*
X42048Y161000D01*
X42478Y161480D01*
X45578D01*
X49779Y157279D01*
X50110Y157058D01*
X50500Y156980D01*
X55382D01*
Y154744D01*
X60713D01*
Y161256D01*
X59067D01*
Y169125D01*
X60600Y170658D01*
X61059Y170468D01*
Y170181D01*
X61059Y170059D01*
Y169250D01*
X63921D01*
X66783D01*
Y170059D01*
X66783Y170181D01*
Y170559D01*
X66783Y170681D01*
Y173921D01*
X61059D01*
Y173260D01*
X60740D01*
X60350Y173182D01*
X60019Y172961D01*
X57382Y170324D01*
X57334Y170308D01*
X56941Y170617D01*
X56941Y170681D01*
Y173921D01*
X53840D01*
X51040Y176721D01*
X50709Y176942D01*
X50319Y177020D01*
X44165D01*
Y182307D01*
X44041D01*
Y183952D01*
X68744D01*
Y183787D01*
X75256D01*
Y183952D01*
X79744D01*
Y183835D01*
X86256D01*
Y183952D01*
X87980D01*
Y173000D01*
X88058Y172610D01*
X88279Y172279D01*
X89779Y170779D01*
X90110Y170558D01*
X90500Y170480D01*
X91835D01*
Y168244D01*
X97165D01*
Y174756D01*
X91835D01*
Y172520D01*
X90922D01*
X90020Y173422D01*
Y183952D01*
X92500D01*
X92548Y183959D01*
X93740D01*
Y181335D01*
X94599D01*
Y180382D01*
X94676Y179992D01*
X94897Y179661D01*
X99302Y175256D01*
X99095Y174756D01*
X97740D01*
Y168244D01*
X103071D01*
Y170480D01*
X104244D01*
Y168835D01*
X110756D01*
Y174165D01*
X104244D01*
Y172520D01*
X103071D01*
Y174756D01*
X101520D01*
Y175500D01*
X101442Y175890D01*
X101221Y176221D01*
X96638Y180804D01*
Y181335D01*
X97496D01*
Y183959D01*
X97500D01*
X97883Y184117D01*
X98041Y184500D01*
Y189452D01*
X98048Y189500D01*
X97858Y190936D01*
X97304Y192274D01*
X96423Y193423D01*
X95274Y194304D01*
X93936Y194858D01*
X92500Y195047D01*
D02*
G37*
G36*
X83595Y168750D02*
X81384D01*
Y167819D01*
X83595D01*
Y168750D01*
D02*
G37*
G36*
X218750D02*
X216244D01*
Y166835D01*
X218750D01*
Y168750D01*
D02*
G37*
G36*
X13551Y170215D02*
X10750D01*
Y165937D01*
X13551D01*
Y170215D01*
D02*
G37*
G36*
X9250D02*
X6449D01*
Y165937D01*
X9250D01*
Y170215D01*
D02*
G37*
G36*
X166894Y171598D02*
X161750D01*
Y164250D01*
X166894D01*
Y171598D01*
D02*
G37*
G36*
X281756Y182713D02*
X275244D01*
Y177382D01*
X277480D01*
Y164421D01*
X276130D01*
Y159878D01*
X280870D01*
Y164421D01*
X279520D01*
Y177382D01*
X281756D01*
Y182713D01*
D02*
G37*
G36*
X271756Y182665D02*
X265244D01*
Y177335D01*
X267480D01*
Y164421D01*
X266130D01*
Y159878D01*
X270870D01*
Y164421D01*
X269520D01*
Y177335D01*
X271756D01*
Y182665D01*
D02*
G37*
G36*
X261756Y182713D02*
X255244D01*
Y177382D01*
X257480D01*
Y164421D01*
X256130D01*
Y159878D01*
X260870D01*
Y164421D01*
X259520D01*
Y177382D01*
X261756D01*
Y182713D01*
D02*
G37*
G36*
X251756D02*
X245244D01*
Y177382D01*
X247480D01*
Y164421D01*
X246130D01*
Y159878D01*
X250870D01*
Y164421D01*
X249520D01*
Y177382D01*
X251756D01*
Y182713D01*
D02*
G37*
G36*
X241756Y182665D02*
X235244D01*
Y177335D01*
X237480D01*
Y164421D01*
X236130D01*
Y159878D01*
X240870D01*
Y164421D01*
X239520D01*
Y177335D01*
X241756D01*
Y182665D01*
D02*
G37*
G36*
X221756Y160165D02*
X219250D01*
Y158250D01*
X221756D01*
Y160165D01*
D02*
G37*
G36*
X217750D02*
X215244D01*
Y158250D01*
X217750D01*
Y160165D01*
D02*
G37*
G36*
X290370Y158122D02*
X288750D01*
Y156600D01*
X290370D01*
Y158122D01*
D02*
G37*
G36*
X287250D02*
X285630D01*
Y156600D01*
X287250D01*
Y158122D01*
D02*
G37*
G36*
X221756Y156750D02*
X219250D01*
Y154835D01*
X221756D01*
Y156750D01*
D02*
G37*
G36*
X217750D02*
X215244D01*
Y154835D01*
X217750D01*
Y156750D01*
D02*
G37*
G36*
X66783Y167750D02*
X63921D01*
X61059D01*
Y166941D01*
X61059Y166819D01*
Y166441D01*
X61059Y166319D01*
Y163079D01*
X62902D01*
Y161256D01*
X61287D01*
Y154744D01*
X66618D01*
Y161256D01*
X64941D01*
Y163079D01*
X66783D01*
Y166319D01*
X66783Y166441D01*
Y166819D01*
X66783Y166941D01*
Y167750D01*
D02*
G37*
G36*
X290370Y155100D02*
X288750D01*
Y153579D01*
X290370D01*
Y155100D01*
D02*
G37*
G36*
X287250D02*
X285630D01*
Y153579D01*
X287250D01*
Y155100D01*
D02*
G37*
G36*
X84256Y154760D02*
X81750D01*
Y152845D01*
X84256D01*
Y154760D01*
D02*
G37*
G36*
X80250D02*
X77744D01*
Y152845D01*
X80250D01*
Y154760D01*
D02*
G37*
G36*
X76256Y154713D02*
X73750D01*
Y152797D01*
X76256D01*
Y154713D01*
D02*
G37*
G36*
X72250D02*
X69744D01*
Y152797D01*
X72250D01*
Y154713D01*
D02*
G37*
G36*
X221756Y154260D02*
X215244D01*
Y152520D01*
X213756D01*
Y154165D01*
X207244D01*
Y148835D01*
X213756D01*
Y150480D01*
X215244D01*
Y148929D01*
X221756D01*
Y154260D01*
D02*
G37*
G36*
X205756Y154213D02*
X203250D01*
Y152297D01*
X205756D01*
Y154213D01*
D02*
G37*
G36*
X201750D02*
X199244D01*
Y152297D01*
X201750D01*
Y154213D01*
D02*
G37*
G36*
X105165Y152551D02*
X100750D01*
Y149750D01*
X105165D01*
Y152551D01*
D02*
G37*
G36*
X99250D02*
X94835D01*
Y149750D01*
X99250D01*
Y152551D01*
D02*
G37*
G36*
X84256Y151345D02*
X81750D01*
Y149429D01*
X84256D01*
Y151345D01*
D02*
G37*
G36*
X80250D02*
X77744D01*
Y149429D01*
X80250D01*
Y151345D01*
D02*
G37*
G36*
X76256Y151297D02*
X73750D01*
Y149382D01*
X76256D01*
Y151297D01*
D02*
G37*
G36*
X72250D02*
X69744D01*
Y149382D01*
X72250D01*
Y151297D01*
D02*
G37*
G36*
X205756Y150797D02*
X203250D01*
Y148882D01*
X205756D01*
Y150797D01*
D02*
G37*
G36*
X201750D02*
X199244D01*
Y148882D01*
X201750D01*
Y150797D01*
D02*
G37*
G36*
X197756Y149760D02*
X195250D01*
Y147845D01*
X197756D01*
Y149760D01*
D02*
G37*
G36*
X193750D02*
X191244D01*
Y147845D01*
X193750D01*
Y149760D01*
D02*
G37*
G36*
X83260Y147256D02*
X81344D01*
Y144750D01*
X83260D01*
Y147256D01*
D02*
G37*
G36*
X79844D02*
X77929D01*
Y144750D01*
X79844D01*
Y147256D01*
D02*
G37*
G36*
X197756Y146344D02*
X195250D01*
Y144429D01*
X197756D01*
Y146344D01*
D02*
G37*
G36*
X193750D02*
X191244D01*
Y144429D01*
X193750D01*
Y146344D01*
D02*
G37*
G36*
X105165Y143821D02*
X104589D01*
Y142693D01*
X105165D01*
Y143821D01*
D02*
G37*
G36*
Y148250D02*
X100000D01*
X94835D01*
Y145449D01*
Y145321D01*
X96161D01*
Y144571D01*
X96911D01*
Y142693D01*
X97970D01*
Y144571D01*
X99471D01*
Y142693D01*
X100530D01*
Y144571D01*
X102030D01*
Y142693D01*
X103089D01*
Y144571D01*
X103839D01*
Y145321D01*
X105165D01*
Y145449D01*
Y148250D01*
D02*
G37*
G36*
X95411Y143821D02*
X94835D01*
Y142693D01*
X95411D01*
Y143821D01*
D02*
G37*
G36*
X83260Y143250D02*
X81344D01*
Y140744D01*
X83260D01*
Y143250D01*
D02*
G37*
G36*
X79844D02*
X77929D01*
Y140744D01*
X79844D01*
Y143250D01*
D02*
G37*
G36*
X15500Y135843D02*
X14360Y135731D01*
X13264Y135398D01*
X12254Y134858D01*
X11368Y134132D01*
X10642Y133246D01*
X10102Y132236D01*
X9769Y131140D01*
X9657Y130000D01*
X9769Y128860D01*
X10102Y127764D01*
X10642Y126754D01*
X11368Y125868D01*
X12254Y125142D01*
X13264Y124602D01*
X14360Y124269D01*
X15500Y124157D01*
X16640Y124269D01*
X17736Y124602D01*
X18746Y125142D01*
X19632Y125868D01*
X20358Y126754D01*
X20898Y127764D01*
X21231Y128860D01*
X21343Y130000D01*
X21231Y131140D01*
X20898Y132236D01*
X20358Y133246D01*
X19632Y134132D01*
X18746Y134858D01*
X17736Y135398D01*
X16640Y135731D01*
X15500Y135843D01*
D02*
G37*
G36*
X198713Y125756D02*
X196797D01*
Y123250D01*
X198713D01*
Y125756D01*
D02*
G37*
G36*
X195297D02*
X193382D01*
Y123250D01*
X195297D01*
Y125756D01*
D02*
G37*
G36*
X160051Y126661D02*
X157250D01*
Y122285D01*
X160051D01*
Y126661D01*
D02*
G37*
G36*
X155750D02*
X152949D01*
Y122285D01*
X155750D01*
Y126661D01*
D02*
G37*
G36*
X198713Y121750D02*
X196797D01*
Y119244D01*
X198713D01*
Y121750D01*
D02*
G37*
G36*
X195297D02*
X193382D01*
Y119244D01*
X195297D01*
Y121750D01*
D02*
G37*
G36*
X280870Y158122D02*
X276130D01*
Y154922D01*
X240153Y118945D01*
X239932Y118615D01*
X239854Y118224D01*
Y117089D01*
X238744D01*
Y124653D01*
X267670Y153579D01*
X270870D01*
Y158122D01*
X266130D01*
Y154922D01*
X237003Y125796D01*
X236782Y125465D01*
X236705Y125075D01*
Y117089D01*
X235594D01*
Y131503D01*
X257670Y153579D01*
X260870D01*
Y158122D01*
X256130D01*
Y154922D01*
X233854Y132646D01*
X233633Y132315D01*
X233555Y131925D01*
Y117089D01*
X232445D01*
Y138353D01*
X247670Y153579D01*
X250870D01*
Y158122D01*
X246130D01*
Y154922D01*
X230704Y139497D01*
X230483Y139166D01*
X230406Y138776D01*
Y117089D01*
X229295D01*
Y145204D01*
X237670Y153579D01*
X240870D01*
Y158122D01*
X236130D01*
Y154922D01*
X227555Y146347D01*
X227334Y146016D01*
X227256Y145626D01*
Y117089D01*
X225876D01*
Y113685D01*
Y110282D01*
X245705D01*
Y117089D01*
X241894D01*
Y117802D01*
X277670Y153579D01*
X280870D01*
Y158122D01*
D02*
G37*
G36*
X160051Y120785D02*
X157250D01*
Y116409D01*
X160051D01*
Y120785D01*
D02*
G37*
G36*
X155750D02*
X152949D01*
Y116409D01*
X155750D01*
Y120785D01*
D02*
G37*
G36*
X221226Y117089D02*
X220295D01*
Y114435D01*
X221226D01*
Y117089D01*
D02*
G37*
G36*
X165500Y112714D02*
X164844Y112584D01*
X164288Y112212D01*
X163774Y112329D01*
X163693Y112406D01*
Y112484D01*
X158362D01*
Y109516D01*
X163693D01*
Y109594D01*
X163774Y109671D01*
X164288Y109788D01*
X164844Y109416D01*
X165500Y109286D01*
X166156Y109416D01*
X166712Y109788D01*
X167084Y110344D01*
X167214Y111000D01*
X167084Y111656D01*
X166712Y112212D01*
X166156Y112584D01*
X165500Y112714D01*
D02*
G37*
G36*
X224376Y117089D02*
X222726D01*
Y113685D01*
Y110282D01*
X224376D01*
Y113685D01*
Y117089D01*
D02*
G37*
G36*
X221226Y112935D02*
X220295D01*
Y110282D01*
X221226D01*
Y112935D01*
D02*
G37*
G36*
X277618Y111750D02*
X275703D01*
Y109244D01*
X277618D01*
Y111750D01*
D02*
G37*
G36*
X274203D02*
X272287D01*
Y109244D01*
X274203D01*
Y111750D01*
D02*
G37*
G36*
X55183Y150797D02*
X53747Y150608D01*
X52409Y150054D01*
X51260Y149173D01*
X35199Y133112D01*
X34318Y131963D01*
X33764Y130625D01*
X33575Y129189D01*
Y124006D01*
X33102Y123618D01*
X32043Y122328D01*
X31257Y120856D01*
X30772Y119259D01*
X30609Y117598D01*
X30772Y115937D01*
X31257Y114340D01*
X32043Y112869D01*
X33102Y111579D01*
X34392Y110520D01*
X35864Y109733D01*
X37461Y109249D01*
X39122Y109085D01*
X40783Y109249D01*
X42380Y109733D01*
X43852Y110520D01*
X45142Y111579D01*
X46201Y112869D01*
X46987Y114340D01*
X47472Y115937D01*
X47635Y117598D01*
X47472Y119259D01*
X46987Y120856D01*
X46201Y122328D01*
X45142Y123618D01*
X44669Y124006D01*
Y126891D01*
X59106Y141327D01*
X59987Y142476D01*
X60541Y143814D01*
X60730Y145250D01*
X60541Y146686D01*
X59987Y148024D01*
X59106Y149173D01*
X57957Y150054D01*
X56619Y150608D01*
X55183Y150797D01*
D02*
G37*
G36*
X286779Y106878D02*
X283978D01*
Y105750D01*
X286779D01*
Y106878D01*
D02*
G37*
G36*
X282478D02*
X279677D01*
Y105750D01*
X282478D01*
Y106878D01*
D02*
G37*
G36*
X286779Y104250D02*
X283978D01*
Y103122D01*
X286779D01*
Y104250D01*
D02*
G37*
G36*
X282478D02*
X279677D01*
Y103122D01*
X282478D01*
Y104250D01*
D02*
G37*
G36*
X168756Y98713D02*
X166250D01*
Y96797D01*
X168756D01*
Y98713D01*
D02*
G37*
G36*
X164750D02*
X162244D01*
Y96797D01*
X164750D01*
Y98713D01*
D02*
G37*
G36*
X158703Y96756D02*
Y94250D01*
X160618D01*
Y96756D01*
X158703D01*
D02*
G37*
G36*
X168756Y95297D02*
X166250D01*
Y93382D01*
X168756D01*
Y95297D01*
D02*
G37*
G36*
X164750D02*
X162244D01*
Y93382D01*
X164750D01*
Y95297D01*
D02*
G37*
G36*
X286779Y96878D02*
X279677D01*
Y96020D01*
X278500D01*
X278110Y95942D01*
X277779Y95721D01*
X275779Y93721D01*
X275558Y93390D01*
X275480Y93000D01*
Y71823D01*
X274599Y71706D01*
X273759Y71359D01*
X273038Y70805D01*
X272484Y70084D01*
X272136Y69244D01*
X272018Y68343D01*
X272136Y67441D01*
X272484Y66601D01*
X273038Y65880D01*
X273759Y65326D01*
X274599Y64979D01*
X275500Y64860D01*
X276401Y64979D01*
X277241Y65326D01*
X277962Y65880D01*
X278516Y66601D01*
X278864Y67441D01*
X278982Y68343D01*
X278864Y69244D01*
X278516Y70084D01*
X277962Y70805D01*
X277520Y71145D01*
Y92578D01*
X278922Y93980D01*
X279677D01*
Y93122D01*
X286779D01*
Y96878D01*
D02*
G37*
G36*
X160618Y92750D02*
X158703D01*
Y90244D01*
X160618D01*
Y92750D01*
D02*
G37*
G36*
X39872Y97692D02*
Y90002D01*
X47562D01*
X47472Y90913D01*
X46987Y92510D01*
X46201Y93982D01*
X45142Y95272D01*
X43852Y96331D01*
X42380Y97117D01*
X40783Y97602D01*
X39872Y97692D01*
D02*
G37*
G36*
X38372D02*
X37461Y97602D01*
X35864Y97117D01*
X34392Y96331D01*
X33102Y95272D01*
X32043Y93982D01*
X31257Y92510D01*
X30772Y90913D01*
X30683Y90002D01*
X38372D01*
Y97692D01*
D02*
G37*
G36*
X286779Y91878D02*
X279677D01*
Y88122D01*
X286779D01*
Y88980D01*
X288659D01*
X288788Y88788D01*
X289344Y88416D01*
X290000Y88286D01*
X290656Y88416D01*
X291212Y88788D01*
X291584Y89344D01*
X291714Y90000D01*
X291584Y90656D01*
X291212Y91212D01*
X290656Y91584D01*
X290000Y91714D01*
X289344Y91584D01*
X288788Y91212D01*
X288659Y91020D01*
X286779D01*
Y91878D01*
D02*
G37*
G36*
X158750Y88256D02*
Y85750D01*
X160665D01*
Y88256D01*
X158750D01*
D02*
G37*
G36*
X198665Y86756D02*
X196750D01*
Y84250D01*
X198665D01*
Y86756D01*
D02*
G37*
G36*
X195250D02*
X193335D01*
Y84250D01*
X195250D01*
Y86756D01*
D02*
G37*
G36*
X160665Y84250D02*
X158750D01*
Y81744D01*
X160665D01*
Y84250D01*
D02*
G37*
G36*
X245705Y83719D02*
X244774D01*
Y81065D01*
X245705D01*
Y83719D01*
D02*
G37*
G36*
X38372Y88502D02*
X30683D01*
X30772Y87591D01*
X31257Y85994D01*
X32043Y84522D01*
X33102Y83232D01*
X34392Y82173D01*
X35864Y81387D01*
X37461Y80902D01*
X38372Y80812D01*
Y88502D01*
D02*
G37*
G36*
X47562D02*
X39872D01*
Y80812D01*
X40783Y80902D01*
X42380Y81387D01*
X43852Y82173D01*
X45142Y83232D01*
X46201Y84522D01*
X46987Y85994D01*
X47472Y87591D01*
X47562Y88502D01*
D02*
G37*
G36*
X198665Y82750D02*
X196750D01*
Y80244D01*
X198665D01*
Y82750D01*
D02*
G37*
G36*
X195250D02*
X193335D01*
Y80244D01*
X195250D01*
Y82750D01*
D02*
G37*
G36*
X245705Y79565D02*
X244774D01*
Y76911D01*
X245705D01*
Y79565D01*
D02*
G37*
G36*
X198713Y79256D02*
X196797D01*
Y76750D01*
X198713D01*
Y79256D01*
D02*
G37*
G36*
X195297D02*
X193382D01*
Y76750D01*
X195297D01*
Y79256D01*
D02*
G37*
G36*
X162606Y78165D02*
X160100D01*
Y76250D01*
X162606D01*
Y78165D01*
D02*
G37*
G36*
X158600D02*
X156095D01*
Y76250D01*
X158600D01*
Y78165D01*
D02*
G37*
G36*
X189276Y77846D02*
X187655D01*
Y74652D01*
X189276D01*
Y77846D01*
D02*
G37*
G36*
X186155D02*
X184535D01*
Y74652D01*
X186155D01*
Y77846D01*
D02*
G37*
G36*
X162606Y74750D02*
X160100D01*
Y72835D01*
X162606D01*
Y74750D01*
D02*
G37*
G36*
X246213Y75256D02*
X244297D01*
Y72750D01*
X246213D01*
Y75256D01*
D02*
G37*
G36*
X242797D02*
X240882D01*
Y72750D01*
X242797D01*
Y75256D01*
D02*
G37*
G36*
X198713Y75250D02*
X196797D01*
Y72744D01*
X198713D01*
Y75250D01*
D02*
G37*
G36*
X195297D02*
X193382D01*
Y72744D01*
X195297D01*
Y75250D01*
D02*
G37*
G36*
X15500Y82693D02*
X14360Y82581D01*
X13264Y82249D01*
X12254Y81709D01*
X11368Y80982D01*
X10642Y80097D01*
X10102Y79087D01*
X9769Y77990D01*
X9657Y76850D01*
X9769Y75710D01*
X10102Y74614D01*
X10642Y73604D01*
X11368Y72719D01*
X12254Y71992D01*
X13264Y71452D01*
X14360Y71120D01*
X15500Y71007D01*
X16640Y71120D01*
X17736Y71452D01*
X18746Y71992D01*
X19632Y72719D01*
X20358Y73604D01*
X20898Y74614D01*
X21231Y75710D01*
X21343Y76850D01*
X21231Y77990D01*
X20898Y79087D01*
X20358Y80097D01*
X19632Y80982D01*
X18746Y81709D01*
X17736Y82249D01*
X16640Y82581D01*
X15500Y82693D01*
D02*
G37*
G36*
X189276Y73152D02*
X187655D01*
Y69957D01*
X189276D01*
Y73152D01*
D02*
G37*
G36*
X186155D02*
X184535D01*
Y69957D01*
X186155D01*
Y73152D01*
D02*
G37*
G36*
X198713Y71756D02*
X196797D01*
Y69250D01*
X198713D01*
Y71756D01*
D02*
G37*
G36*
X195297D02*
X193382D01*
Y69250D01*
X195297D01*
Y71756D01*
D02*
G37*
G36*
X246213Y71250D02*
X244297D01*
Y68744D01*
X246213D01*
Y71250D01*
D02*
G37*
G36*
X242797D02*
X240882D01*
Y68744D01*
X242797D01*
Y71250D01*
D02*
G37*
G36*
X246213Y67756D02*
X244297D01*
Y65250D01*
X246213D01*
Y67756D01*
D02*
G37*
G36*
X242797D02*
X240882D01*
Y65250D01*
X242797D01*
Y67756D01*
D02*
G37*
G36*
X243274Y83719D02*
X220295D01*
Y76911D01*
X220980D01*
Y76210D01*
X220344Y76084D01*
X219788Y75712D01*
X219416Y75156D01*
X219286Y74500D01*
X219416Y73844D01*
X219788Y73288D01*
X220344Y72916D01*
X221000Y72786D01*
X221656Y72916D01*
X222212Y73288D01*
X222584Y73844D01*
X222714Y74500D01*
X222669Y74727D01*
X222721Y74779D01*
X222942Y75110D01*
X223020Y75500D01*
Y76911D01*
X224106D01*
Y66391D01*
X223988Y66312D01*
X223616Y65756D01*
X223486Y65100D01*
X223616Y64444D01*
X223988Y63888D01*
X224544Y63516D01*
X225200Y63386D01*
X225856Y63516D01*
X226412Y63888D01*
X226784Y64444D01*
X226914Y65100D01*
X226784Y65756D01*
X226412Y66312D01*
X226146Y66490D01*
Y76911D01*
X243274D01*
Y80315D01*
Y83719D01*
D02*
G37*
G36*
X198713Y67750D02*
X196047D01*
X193382D01*
Y65256D01*
X193382Y65244D01*
X193382Y64756D01*
X193382Y64744D01*
Y62250D01*
X196047D01*
X198713D01*
Y64744D01*
X198713Y64756D01*
X198713Y65244D01*
X198713Y65256D01*
Y67750D01*
D02*
G37*
G36*
X246213Y63750D02*
X244297D01*
Y61244D01*
X246213D01*
Y63750D01*
D02*
G37*
G36*
X242797D02*
X240882D01*
Y61244D01*
X242797D01*
Y63750D01*
D02*
G37*
G36*
X198713Y60750D02*
X196797D01*
Y58244D01*
X198713D01*
Y60750D01*
D02*
G37*
G36*
X195297D02*
X193382D01*
Y58244D01*
X195297D01*
Y60750D01*
D02*
G37*
G36*
X276250Y52041D02*
Y49408D01*
X278884D01*
X278864Y49559D01*
X278516Y50399D01*
X277962Y51120D01*
X277241Y51674D01*
X276401Y52021D01*
X276250Y52041D01*
D02*
G37*
G36*
X274750D02*
X274599Y52021D01*
X273759Y51674D01*
X273038Y51120D01*
X272484Y50399D01*
X272136Y49559D01*
X272116Y49408D01*
X274750D01*
Y52041D01*
D02*
G37*
G36*
X278884Y47908D02*
X276250D01*
Y45274D01*
X276401Y45294D01*
X277241Y45641D01*
X277962Y46195D01*
X278516Y46916D01*
X278864Y47756D01*
X278884Y47908D01*
D02*
G37*
G36*
X274750D02*
X272116D01*
X272136Y47756D01*
X272484Y46916D01*
X273038Y46195D01*
X273759Y45641D01*
X274599Y45294D01*
X274750Y45274D01*
Y47908D01*
D02*
G37*
G36*
X204618Y46250D02*
X202703D01*
Y43744D01*
X204618D01*
Y46250D01*
D02*
G37*
G36*
X201203D02*
X199287D01*
Y43744D01*
X201203D01*
Y46250D01*
D02*
G37*
G36*
X182010Y32660D02*
Y28329D01*
X186341D01*
X186264Y28920D01*
X185746Y30169D01*
X184923Y31242D01*
X183850Y32065D01*
X182601Y32582D01*
X182010Y32660D01*
D02*
G37*
G36*
X180510D02*
X179919Y32582D01*
X178670Y32065D01*
X177597Y31242D01*
X176774Y30169D01*
X176256Y28920D01*
X176178Y28329D01*
X180510D01*
Y32660D01*
D02*
G37*
G36*
X160750D02*
Y28329D01*
X165081D01*
X165004Y28920D01*
X164486Y30169D01*
X163663Y31242D01*
X162590Y32065D01*
X161341Y32582D01*
X160750Y32660D01*
D02*
G37*
G36*
X186341Y26829D02*
X182010D01*
Y22497D01*
X182601Y22575D01*
X183850Y23093D01*
X184923Y23916D01*
X185746Y24989D01*
X186264Y26238D01*
X186341Y26829D01*
D02*
G37*
G36*
X180510D02*
X176178D01*
X176256Y26238D01*
X176774Y24989D01*
X177597Y23916D01*
X178670Y23093D01*
X179919Y22575D01*
X180510Y22497D01*
Y26829D01*
D02*
G37*
G36*
X165081D02*
X160750D01*
Y22497D01*
X161341Y22575D01*
X162590Y23093D01*
X163663Y23916D01*
X164486Y24989D01*
X165004Y26238D01*
X165081Y26829D01*
D02*
G37*
G36*
X275750Y24395D02*
Y13250D01*
X286895D01*
X286807Y14370D01*
X286369Y16194D01*
X285651Y17927D01*
X284671Y19526D01*
X283453Y20953D01*
X282027Y22171D01*
X280427Y23151D01*
X278694Y23869D01*
X276870Y24307D01*
X275750Y24395D01*
D02*
G37*
G36*
X274250D02*
X273130Y24307D01*
X271306Y23869D01*
X269573Y23151D01*
X267973Y22171D01*
X266547Y20953D01*
X265329Y19526D01*
X264349Y17927D01*
X263631Y16194D01*
X263193Y14370D01*
X263105Y13250D01*
X274250D01*
Y24395D01*
D02*
G37*
G36*
X13250D02*
Y13250D01*
X24395D01*
X24307Y14370D01*
X23869Y16194D01*
X23151Y17927D01*
X22171Y19526D01*
X20953Y20953D01*
X19526Y22171D01*
X17927Y23151D01*
X16194Y23869D01*
X14370Y24307D01*
X13250Y24395D01*
D02*
G37*
G36*
X215250Y14182D02*
Y11250D01*
X218182D01*
X218152Y11478D01*
X217774Y12390D01*
X217173Y13173D01*
X216390Y13774D01*
X215478Y14152D01*
X215250Y14182D01*
D02*
G37*
G36*
X213750D02*
X213522Y14152D01*
X212610Y13774D01*
X211827Y13173D01*
X211226Y12390D01*
X210848Y11478D01*
X210818Y11250D01*
X213750D01*
Y14182D01*
D02*
G37*
G36*
X182010Y12581D02*
Y8250D01*
X186341D01*
X186264Y8841D01*
X185746Y10090D01*
X184923Y11163D01*
X183850Y11986D01*
X182601Y12504D01*
X182010Y12581D01*
D02*
G37*
G36*
X180510D02*
X179919Y12504D01*
X178670Y11986D01*
X177597Y11163D01*
X176774Y10090D01*
X176256Y8841D01*
X176178Y8250D01*
X180510D01*
Y12581D01*
D02*
G37*
G36*
X160750D02*
Y8250D01*
X165081D01*
X165004Y8841D01*
X164486Y10090D01*
X163663Y11163D01*
X162590Y11986D01*
X161341Y12504D01*
X160750Y12581D01*
D02*
G37*
G36*
X218182Y9750D02*
X215250D01*
Y6818D01*
X215478Y6848D01*
X216390Y7226D01*
X217173Y7827D01*
X217774Y8610D01*
X218152Y9522D01*
X218182Y9750D01*
D02*
G37*
G36*
X213750D02*
X210818D01*
X210848Y9522D01*
X211226Y8610D01*
X211827Y7827D01*
X212610Y7226D01*
X213522Y6848D01*
X213750Y6818D01*
Y9750D01*
D02*
G37*
G36*
X186341Y6750D02*
X182010D01*
Y2419D01*
X182601Y2496D01*
X183850Y3014D01*
X184923Y3837D01*
X185746Y4910D01*
X186264Y6159D01*
X186341Y6750D01*
D02*
G37*
G36*
X180510D02*
X176178D01*
X176256Y6159D01*
X176774Y4910D01*
X177597Y3837D01*
X178670Y3014D01*
X179919Y2496D01*
X180510Y2419D01*
Y6750D01*
D02*
G37*
G36*
X165081D02*
X160750D01*
Y2419D01*
X161341Y2496D01*
X162590Y3014D01*
X163663Y3837D01*
X164486Y4910D01*
X165004Y6159D01*
X165081Y6750D01*
D02*
G37*
%LPD*%
G36*
X184655Y182216D02*
X184317Y182149D01*
X184071Y181984D01*
X183807D01*
Y181808D01*
X183738Y181762D01*
X183738Y181762D01*
X178238Y176262D01*
X177851Y175683D01*
X177716Y175000D01*
X177851Y174317D01*
X178079Y173976D01*
X177812Y173476D01*
X175870D01*
Y176402D01*
X173284D01*
Y179716D01*
X179500D01*
X180183Y179851D01*
X180762Y180238D01*
X183239Y182716D01*
X184606D01*
X184655Y182216D01*
D02*
G37*
G36*
X51217Y163079D02*
X56941D01*
X57028Y162615D01*
Y161256D01*
X55382D01*
Y159020D01*
X50922D01*
X46721Y163221D01*
X46692Y163240D01*
X46844Y163740D01*
X51217D01*
Y163079D01*
D02*
G37*
%LPC*%
G36*
X139756Y117618D02*
X137250D01*
Y115703D01*
X139756D01*
Y117618D01*
D02*
G37*
G36*
Y114203D02*
X137250D01*
Y112287D01*
X139756D01*
Y114203D01*
D02*
G37*
G36*
X114756Y77118D02*
X108244D01*
Y75472D01*
X107256D01*
Y77118D01*
X100744D01*
Y71787D01*
X107256D01*
Y73433D01*
X108244D01*
Y71787D01*
X114756D01*
Y73480D01*
X115659D01*
X115788Y73288D01*
X116344Y72916D01*
X117000Y72786D01*
X117656Y72916D01*
X118212Y73288D01*
X118584Y73844D01*
X118714Y74500D01*
X118584Y75156D01*
X118212Y75712D01*
X117656Y76084D01*
X117000Y76214D01*
X116344Y76084D01*
X115788Y75712D01*
X115659Y75520D01*
X114756D01*
Y77118D01*
D02*
G37*
G36*
X126559Y71441D02*
X126181D01*
X126059Y71441D01*
X125250D01*
Y68579D01*
Y65716D01*
X126059D01*
X126181Y65716D01*
X126559D01*
X126681Y65716D01*
X127221D01*
Y64260D01*
X127298Y63870D01*
X127519Y63539D01*
X130279Y60779D01*
X130610Y60558D01*
X131000Y60480D01*
X133244D01*
Y58382D01*
X139756D01*
Y60480D01*
X140744D01*
Y58382D01*
X147256D01*
Y63713D01*
X140744D01*
Y62520D01*
X139756D01*
Y63713D01*
X133244D01*
Y62520D01*
X131422D01*
X129260Y64682D01*
Y65716D01*
X129921D01*
Y71441D01*
X126681D01*
X126559Y71441D01*
D02*
G37*
G36*
X107256Y71213D02*
X104750D01*
Y69297D01*
X107256D01*
Y71213D01*
D02*
G37*
G36*
X103250D02*
X100744D01*
Y69297D01*
X103250D01*
Y71213D01*
D02*
G37*
G36*
X139756Y69618D02*
X137250D01*
Y67703D01*
X139756D01*
Y69618D01*
D02*
G37*
G36*
X135750D02*
X133244D01*
Y67703D01*
X135750D01*
Y69618D01*
D02*
G37*
G36*
X114756Y71213D02*
X108244D01*
Y65882D01*
X114756D01*
Y67184D01*
X115256Y67336D01*
X115288Y67288D01*
X115844Y66916D01*
X116500Y66786D01*
X117156Y66916D01*
X117712Y67288D01*
X118084Y67844D01*
X118214Y68500D01*
X118084Y69156D01*
X117712Y69712D01*
X117156Y70084D01*
X116500Y70214D01*
X115844Y70084D01*
X115288Y69712D01*
X115256Y69664D01*
X114756Y69747D01*
Y71213D01*
D02*
G37*
G36*
X107256Y67797D02*
X104750D01*
Y65882D01*
X107256D01*
Y67797D01*
D02*
G37*
G36*
X103250D02*
X100744D01*
Y65882D01*
X103250D01*
Y67797D01*
D02*
G37*
G36*
X139756Y66203D02*
X137250D01*
Y64287D01*
X139756D01*
Y66203D01*
D02*
G37*
G36*
X135750D02*
X133244D01*
Y64287D01*
X135750D01*
Y66203D01*
D02*
G37*
G36*
X114750Y49927D02*
X114717Y49923D01*
X113987Y49621D01*
X113360Y49140D01*
X112880Y48513D01*
X112577Y47783D01*
X112573Y47750D01*
X114750D01*
Y49927D01*
D02*
G37*
G36*
X132756Y47165D02*
X130250D01*
Y45250D01*
X132756D01*
Y47165D01*
D02*
G37*
G36*
X128750D02*
X126244D01*
Y45250D01*
X128750D01*
Y47165D01*
D02*
G37*
G36*
X122750D02*
Y45250D01*
X125256D01*
Y47165D01*
X122750D01*
D02*
G37*
G36*
X116250Y49927D02*
Y47000D01*
Y44073D01*
X116283Y44077D01*
X117013Y44379D01*
X117640Y44860D01*
X118121Y45487D01*
X118244Y45785D01*
X118744Y45686D01*
Y45250D01*
X121250D01*
Y47165D01*
X119008D01*
X118744Y47165D01*
X118454Y47545D01*
X118423Y47783D01*
X118121Y48513D01*
X117640Y49140D01*
X117013Y49621D01*
X116283Y49923D01*
X116250Y49927D01*
D02*
G37*
G36*
X147756Y47071D02*
X145250D01*
Y45156D01*
X147756D01*
Y47071D01*
D02*
G37*
G36*
X140256D02*
X137750D01*
Y45156D01*
X140256D01*
Y47071D01*
D02*
G37*
G36*
X110256D02*
X107750D01*
Y45156D01*
X110256D01*
Y47071D01*
D02*
G37*
G36*
X106250D02*
X103744D01*
Y45156D01*
X106250D01*
Y47071D01*
D02*
G37*
G36*
X102756D02*
X100250D01*
Y45156D01*
X102756D01*
Y47071D01*
D02*
G37*
G36*
X98750D02*
X96244D01*
Y45156D01*
X98750D01*
Y47071D01*
D02*
G37*
G36*
X143750D02*
X141244D01*
Y45156D01*
X143750D01*
Y47071D01*
D02*
G37*
G36*
X136250D02*
X133744D01*
Y45156D01*
X136250D01*
Y47071D01*
D02*
G37*
G36*
X95256Y47024D02*
X92750D01*
Y45108D01*
X95256D01*
Y47024D01*
D02*
G37*
G36*
X91250D02*
X88744D01*
Y45108D01*
X91250D01*
Y47024D01*
D02*
G37*
G36*
X85250Y46976D02*
Y45061D01*
X87756D01*
Y46976D01*
X85250D01*
D02*
G37*
G36*
X114750Y46250D02*
X112573D01*
X112577Y46217D01*
X112880Y45487D01*
X113360Y44860D01*
X113987Y44379D01*
X114717Y44077D01*
X114750Y44073D01*
Y46250D01*
D02*
G37*
G36*
X132756Y43750D02*
X130250D01*
Y41835D01*
X132756D01*
Y43750D01*
D02*
G37*
G36*
X128750D02*
X126244D01*
Y41835D01*
X128750D01*
Y43750D01*
D02*
G37*
G36*
X125256D02*
X122750D01*
Y41835D01*
X125256D01*
Y43750D01*
D02*
G37*
G36*
X121250D02*
X118744D01*
Y41835D01*
X121250D01*
Y43750D01*
D02*
G37*
G36*
X147756Y43655D02*
X145250D01*
Y41740D01*
X147756D01*
Y43655D01*
D02*
G37*
G36*
X143750D02*
X141244D01*
Y41740D01*
X143750D01*
Y43655D01*
D02*
G37*
G36*
X140256D02*
X137750D01*
Y41740D01*
X140256D01*
Y43655D01*
D02*
G37*
G36*
X136250D02*
X133744D01*
Y41740D01*
X136250D01*
Y43655D01*
D02*
G37*
G36*
X110256D02*
X107750D01*
Y41740D01*
X110256D01*
Y43655D01*
D02*
G37*
G36*
X106250D02*
X103744D01*
Y41740D01*
X106250D01*
Y43655D01*
D02*
G37*
G36*
X102756D02*
X100250D01*
Y41740D01*
X102756D01*
Y43655D01*
D02*
G37*
G36*
X98750D02*
X96244D01*
Y41740D01*
X98750D01*
Y43655D01*
D02*
G37*
G36*
X95256Y43608D02*
X92750D01*
Y41693D01*
X95256D01*
Y43608D01*
D02*
G37*
G36*
X91250D02*
X88744D01*
Y41693D01*
X91250D01*
Y43608D01*
D02*
G37*
G36*
X87756Y43561D02*
X85250D01*
Y41646D01*
X87756D01*
Y43561D01*
D02*
G37*
G36*
X109256Y126071D02*
X106750D01*
Y124155D01*
X109256D01*
Y126071D01*
D02*
G37*
G36*
X105250D02*
X102744D01*
Y124155D01*
X105250D01*
Y126071D01*
D02*
G37*
G36*
X75250Y124427D02*
Y122250D01*
X77427D01*
X77423Y122283D01*
X77121Y123013D01*
X76640Y123640D01*
X76013Y124120D01*
X75283Y124423D01*
X75250Y124427D01*
D02*
G37*
G36*
X73750D02*
X73717Y124423D01*
X72987Y124120D01*
X72360Y123640D01*
X71880Y123013D01*
X71577Y122283D01*
X71573Y122250D01*
X73750D01*
Y124427D01*
D02*
G37*
G36*
X109256Y122655D02*
X106750D01*
Y120740D01*
X109256D01*
Y122655D01*
D02*
G37*
G36*
X105250D02*
X102744D01*
Y120740D01*
X105250D01*
Y122655D01*
D02*
G37*
G36*
X77427Y120750D02*
X75250D01*
Y118573D01*
X75283Y118577D01*
X76013Y118879D01*
X76640Y119360D01*
X77121Y119987D01*
X77423Y120717D01*
X77427Y120750D01*
D02*
G37*
G36*
X73750D02*
X71573D01*
X71577Y120717D01*
X71880Y119987D01*
X72360Y119360D01*
X72987Y118879D01*
X73717Y118577D01*
X73750Y118573D01*
Y120750D01*
D02*
G37*
G36*
X97417Y113028D02*
X94911D01*
Y112687D01*
X97417D01*
Y113028D01*
D02*
G37*
G36*
X93411D02*
X90905D01*
Y112687D01*
X93411D01*
Y113028D01*
D02*
G37*
G36*
X97417Y111187D02*
X94161D01*
X90905D01*
Y110719D01*
X94161D01*
X97417D01*
Y111187D01*
D02*
G37*
G36*
X265390Y109750D02*
X264250D01*
Y108610D01*
X264280Y108616D01*
X264942Y109058D01*
X265384Y109720D01*
X265390Y109750D01*
D02*
G37*
G36*
X265323Y101878D02*
X262522D01*
Y100750D01*
X265323D01*
Y101878D01*
D02*
G37*
G36*
X261022D02*
X258221D01*
Y100750D01*
X261022D01*
Y101878D01*
D02*
G37*
G36*
X265323Y99250D02*
X262522D01*
Y98122D01*
X265323D01*
Y99250D01*
D02*
G37*
G36*
X261022D02*
X258221D01*
Y98122D01*
X261022D01*
Y99250D01*
D02*
G37*
G36*
X76250Y94213D02*
X73744D01*
Y92297D01*
X76250D01*
Y94213D01*
D02*
G37*
G36*
X72756Y94213D02*
X70250D01*
Y92297D01*
X72756D01*
Y94213D01*
D02*
G37*
G36*
X80744Y94213D02*
X80256Y94213D01*
X80244Y94213D01*
X77750D01*
Y91547D01*
Y88882D01*
X80244D01*
X80256Y88882D01*
X80744Y88882D01*
X80756Y88882D01*
X87256D01*
Y90528D01*
X88128D01*
X88288Y90288D01*
X88844Y89916D01*
X89500Y89786D01*
X90156Y89916D01*
X90712Y90288D01*
X91084Y90844D01*
X91214Y91500D01*
X91084Y92156D01*
X90712Y92712D01*
X90156Y93084D01*
X89500Y93214D01*
X88844Y93084D01*
X88288Y92712D01*
X88191Y92567D01*
X87256D01*
Y94213D01*
X80756D01*
X80744Y94213D01*
D02*
G37*
G36*
X72756Y90797D02*
X70250D01*
Y88882D01*
X72756D01*
Y90797D01*
D02*
G37*
G36*
X68750D02*
X66244D01*
Y88882D01*
X68750D01*
Y90797D01*
D02*
G37*
G36*
X76250Y90797D02*
X73744D01*
Y88882D01*
X76250D01*
Y90797D01*
D02*
G37*
G36*
X75165Y78756D02*
X69835D01*
Y72244D01*
X75165D01*
Y73820D01*
X75665Y73972D01*
X75788Y73788D01*
X76344Y73416D01*
X77000Y73286D01*
X77656Y73416D01*
X78212Y73788D01*
X78584Y74344D01*
X78714Y75000D01*
X78584Y75656D01*
X78212Y76212D01*
X77656Y76584D01*
X77000Y76714D01*
X76344Y76584D01*
X76248Y76520D01*
X75165D01*
Y78756D01*
D02*
G37*
G36*
X62250Y68927D02*
Y66750D01*
X64427D01*
X64423Y66783D01*
X64121Y67513D01*
X63640Y68140D01*
X63013Y68621D01*
X62283Y68923D01*
X62250Y68927D01*
D02*
G37*
G36*
X64427Y65250D02*
X62250D01*
Y63073D01*
X62283Y63077D01*
X63013Y63380D01*
X63640Y63860D01*
X64121Y64487D01*
X64423Y65217D01*
X64427Y65250D01*
D02*
G37*
G36*
X60750D02*
X58573D01*
X58577Y65217D01*
X58880Y64487D01*
X59360Y63860D01*
X59987Y63380D01*
X60717Y63077D01*
X60750Y63073D01*
Y65250D01*
D02*
G37*
G36*
X49756Y47118D02*
X47250D01*
Y45203D01*
X49756D01*
Y47118D01*
D02*
G37*
G36*
X57256D02*
X54750D01*
Y45203D01*
X57256D01*
Y47118D01*
D02*
G37*
G36*
X53250D02*
X50744D01*
Y45203D01*
X53250D01*
Y47118D01*
D02*
G37*
G36*
X45750D02*
X43244D01*
Y45203D01*
X45750D01*
Y47118D01*
D02*
G37*
G36*
X72256Y47118D02*
X69750D01*
Y45203D01*
X72256D01*
Y47118D01*
D02*
G37*
G36*
X68250D02*
X65744D01*
Y45203D01*
X68250D01*
Y47118D01*
D02*
G37*
G36*
X64756D02*
X62250D01*
Y45203D01*
X64756D01*
Y47118D01*
D02*
G37*
G36*
X60750D02*
X58244D01*
Y45203D01*
X60750D01*
Y47118D01*
D02*
G37*
G36*
X57256Y43703D02*
X54750D01*
Y41787D01*
X57256D01*
Y43703D01*
D02*
G37*
G36*
X49756D02*
X47250D01*
Y41787D01*
X49756D01*
Y43703D01*
D02*
G37*
G36*
X72256Y43703D02*
X69750D01*
Y41787D01*
X72256D01*
Y43703D01*
D02*
G37*
G36*
X68250D02*
X65744D01*
Y41787D01*
X68250D01*
Y43703D01*
D02*
G37*
G36*
X64756D02*
X62250D01*
Y41787D01*
X64756D01*
Y43703D01*
D02*
G37*
G36*
X60750D02*
X58244D01*
Y41787D01*
X60750D01*
Y43703D01*
D02*
G37*
G36*
X57256Y37797D02*
X54750D01*
Y35882D01*
X57256D01*
Y37797D01*
D02*
G37*
G36*
X53250D02*
X50744D01*
Y35882D01*
X53250D01*
Y37797D01*
D02*
G37*
G36*
X49756D02*
X47250D01*
Y35882D01*
X49756D01*
Y37797D01*
D02*
G37*
G36*
X45750D02*
X43244D01*
Y35882D01*
X45750D01*
Y37797D01*
D02*
G37*
G36*
X72256Y37797D02*
X69750D01*
Y35882D01*
X72256D01*
Y37797D01*
D02*
G37*
G36*
X68250D02*
X65744D01*
Y35882D01*
X68250D01*
Y37797D01*
D02*
G37*
G36*
X64756D02*
X62250D01*
Y35882D01*
X64756D01*
Y37797D01*
D02*
G37*
G36*
X60750D02*
X58244D01*
Y35882D01*
X60750D01*
Y37797D01*
D02*
G37*
G36*
X67860Y32581D02*
X67269Y32504D01*
X66020Y31986D01*
X64947Y31163D01*
X64124Y30090D01*
X63606Y28841D01*
X63528Y28250D01*
X67860D01*
Y32581D01*
D02*
G37*
G36*
X48100D02*
Y28250D01*
X52431D01*
X52354Y28841D01*
X51836Y30090D01*
X51013Y31163D01*
X49940Y31986D01*
X48691Y32504D01*
X48100Y32581D01*
D02*
G37*
G36*
X46600D02*
X46009Y32504D01*
X44760Y31986D01*
X43687Y31163D01*
X42864Y30090D01*
X42346Y28841D01*
X42269Y28250D01*
X46600D01*
Y32581D01*
D02*
G37*
G36*
X67860Y26750D02*
X63528D01*
X63606Y26159D01*
X64124Y24910D01*
X64947Y23837D01*
X66020Y23014D01*
X67269Y22496D01*
X67860Y22419D01*
Y26750D01*
D02*
G37*
G36*
X52431D02*
X48100D01*
Y22419D01*
X48691Y22496D01*
X49940Y23014D01*
X51013Y23837D01*
X51836Y24910D01*
X52354Y26159D01*
X52431Y26750D01*
D02*
G37*
G36*
X46600D02*
X42269D01*
X42346Y26159D01*
X42864Y24910D01*
X43687Y23837D01*
X44760Y23014D01*
X46009Y22496D01*
X46600Y22419D01*
Y26750D01*
D02*
G37*
G36*
X67860Y12503D02*
X67269Y12425D01*
X66020Y11907D01*
X64947Y11084D01*
X64124Y10011D01*
X63606Y8762D01*
X63528Y8171D01*
X67860D01*
Y12503D01*
D02*
G37*
G36*
X48100D02*
Y8171D01*
X52431D01*
X52354Y8762D01*
X51836Y10011D01*
X51013Y11084D01*
X49940Y11907D01*
X48691Y12425D01*
X48100Y12503D01*
D02*
G37*
G36*
X46600D02*
X46009Y12425D01*
X44760Y11907D01*
X43687Y11084D01*
X42864Y10011D01*
X42346Y8762D01*
X42269Y8171D01*
X46600D01*
Y12503D01*
D02*
G37*
G36*
X67860Y6671D02*
X63528D01*
X63606Y6081D01*
X64124Y4831D01*
X64947Y3758D01*
X66020Y2935D01*
X67269Y2418D01*
X67860Y2340D01*
Y6671D01*
D02*
G37*
G36*
X52431D02*
X48100D01*
Y2340D01*
X48691Y2418D01*
X49940Y2935D01*
X51013Y3758D01*
X51836Y4831D01*
X52354Y6081D01*
X52431Y6671D01*
D02*
G37*
G36*
X46600D02*
X42269D01*
X42346Y6081D01*
X42864Y4831D01*
X43687Y3758D01*
X44760Y2935D01*
X46009Y2418D01*
X46600Y2340D01*
Y6671D01*
D02*
G37*
G36*
X110256Y37750D02*
X107750D01*
Y35835D01*
X110256D01*
Y37750D01*
D02*
G37*
G36*
X106250D02*
X103744D01*
Y35835D01*
X106250D01*
Y37750D01*
D02*
G37*
G36*
X102756D02*
X100250D01*
Y35835D01*
X102756D01*
Y37750D01*
D02*
G37*
G36*
X98750D02*
X96244D01*
Y35835D01*
X98750D01*
Y37750D01*
D02*
G37*
G36*
X95256Y37703D02*
X92750D01*
Y35787D01*
X95256D01*
Y37703D01*
D02*
G37*
G36*
X91250D02*
X88744D01*
Y35787D01*
X91250D01*
Y37703D01*
D02*
G37*
G36*
X87756Y37655D02*
X85250D01*
Y35740D01*
X87756D01*
Y37655D01*
D02*
G37*
G36*
X83750D02*
X81244D01*
Y35740D01*
X83750D01*
Y37655D01*
D02*
G37*
G36*
X107010Y32566D02*
Y28234D01*
X111341D01*
X111264Y28825D01*
X110746Y30074D01*
X109923Y31147D01*
X108850Y31970D01*
X107601Y32488D01*
X107010Y32566D01*
D02*
G37*
G36*
X105510D02*
X104919Y32488D01*
X103670Y31970D01*
X102597Y31147D01*
X101774Y30074D01*
X101256Y28825D01*
X101178Y28234D01*
X105510D01*
Y32566D01*
D02*
G37*
G36*
X85750D02*
Y28234D01*
X90081D01*
X90004Y28825D01*
X89486Y30074D01*
X88663Y31147D01*
X87590Y31970D01*
X86341Y32488D01*
X85750Y32566D01*
D02*
G37*
G36*
X84250D02*
X83659Y32488D01*
X82410Y31970D01*
X81337Y31147D01*
X80514Y30074D01*
X79996Y28825D01*
X79919Y28234D01*
X84250D01*
Y32566D01*
D02*
G37*
G36*
X111341Y26734D02*
X107010D01*
Y22403D01*
X107601Y22481D01*
X108850Y22998D01*
X109923Y23821D01*
X110746Y24894D01*
X111264Y26144D01*
X111341Y26734D01*
D02*
G37*
G36*
X105510D02*
X101178D01*
X101256Y26144D01*
X101774Y24894D01*
X102597Y23821D01*
X103670Y22998D01*
X104919Y22481D01*
X105510Y22403D01*
Y26734D01*
D02*
G37*
G36*
X90081D02*
X85750D01*
Y22403D01*
X86341Y22481D01*
X87590Y22998D01*
X88663Y23821D01*
X89486Y24894D01*
X90004Y26144D01*
X90081Y26734D01*
D02*
G37*
G36*
X84250D02*
X79919D01*
X79996Y26144D01*
X80514Y24894D01*
X81337Y23821D01*
X82410Y22998D01*
X83659Y22481D01*
X84250Y22403D01*
Y26734D01*
D02*
G37*
G36*
X107010Y12487D02*
Y8156D01*
X111341D01*
X111264Y8746D01*
X110746Y9996D01*
X109923Y11068D01*
X108850Y11892D01*
X107601Y12409D01*
X107010Y12487D01*
D02*
G37*
G36*
X105510D02*
X104919Y12409D01*
X103670Y11892D01*
X102597Y11068D01*
X101774Y9996D01*
X101256Y8746D01*
X101178Y8156D01*
X105510D01*
Y12487D01*
D02*
G37*
G36*
X85750D02*
Y8156D01*
X90081D01*
X90004Y8746D01*
X89486Y9996D01*
X88663Y11068D01*
X87590Y11892D01*
X86341Y12409D01*
X85750Y12487D01*
D02*
G37*
G36*
X84250D02*
X83659Y12409D01*
X82410Y11892D01*
X81337Y11068D01*
X80514Y9996D01*
X79996Y8746D01*
X79919Y8156D01*
X84250D01*
Y12487D01*
D02*
G37*
G36*
X111341Y6656D02*
X107010D01*
Y2324D01*
X107601Y2402D01*
X108850Y2919D01*
X109923Y3743D01*
X110746Y4815D01*
X111264Y6065D01*
X111341Y6656D01*
D02*
G37*
G36*
X105510D02*
X101178D01*
X101256Y6065D01*
X101774Y4815D01*
X102597Y3743D01*
X103670Y2919D01*
X104919Y2402D01*
X105510Y2324D01*
Y6656D01*
D02*
G37*
G36*
X90081D02*
X85750D01*
Y2324D01*
X86341Y2402D01*
X87590Y2919D01*
X88663Y3743D01*
X89486Y4815D01*
X90004Y6065D01*
X90081Y6656D01*
D02*
G37*
G36*
X84250D02*
X79919D01*
X79996Y6065D01*
X80514Y4815D01*
X81337Y3743D01*
X82410Y2919D01*
X83659Y2402D01*
X84250Y2324D01*
Y6656D01*
D02*
G37*
G36*
X132756Y37844D02*
X130250D01*
Y35929D01*
X132756D01*
Y37844D01*
D02*
G37*
G36*
X128750D02*
X126244D01*
Y35929D01*
X128750D01*
Y37844D01*
D02*
G37*
G36*
X125256D02*
X122750D01*
Y35929D01*
X125256D01*
Y37844D01*
D02*
G37*
G36*
X121250D02*
X118744D01*
Y35929D01*
X121250D01*
Y37844D01*
D02*
G37*
G36*
X147756Y37750D02*
X145250D01*
Y35835D01*
X147756D01*
Y37750D01*
D02*
G37*
G36*
X143750D02*
X141244D01*
Y35835D01*
X143750D01*
Y37750D01*
D02*
G37*
G36*
X140256D02*
X137750D01*
Y35835D01*
X140256D01*
Y37750D01*
D02*
G37*
G36*
X136250D02*
X133744D01*
Y35835D01*
X136250D01*
Y37750D01*
D02*
G37*
G36*
X144510Y32660D02*
Y28329D01*
X148841D01*
X148764Y28920D01*
X148246Y30169D01*
X147423Y31242D01*
X146350Y32065D01*
X145101Y32582D01*
X144510Y32660D01*
D02*
G37*
G36*
X143010D02*
X142419Y32582D01*
X141170Y32065D01*
X140097Y31242D01*
X139274Y30169D01*
X138756Y28920D01*
X138678Y28329D01*
X143010D01*
Y32660D01*
D02*
G37*
G36*
X123250D02*
Y28329D01*
X127581D01*
X127504Y28920D01*
X126986Y30169D01*
X126163Y31242D01*
X125090Y32065D01*
X123841Y32582D01*
X123250Y32660D01*
D02*
G37*
G36*
X121750D02*
X121159Y32582D01*
X119910Y32065D01*
X118837Y31242D01*
X118014Y30169D01*
X117496Y28920D01*
X117419Y28329D01*
X121750D01*
Y32660D01*
D02*
G37*
G36*
X148841Y26829D02*
X144510D01*
Y22497D01*
X145101Y22575D01*
X146350Y23093D01*
X147423Y23916D01*
X148246Y24989D01*
X148764Y26238D01*
X148841Y26829D01*
D02*
G37*
G36*
X143010D02*
X138678D01*
X138756Y26238D01*
X139274Y24989D01*
X140097Y23916D01*
X141170Y23093D01*
X142419Y22575D01*
X143010Y22497D01*
Y26829D01*
D02*
G37*
G36*
X127581D02*
X123250D01*
Y22497D01*
X123841Y22575D01*
X125090Y23093D01*
X126163Y23916D01*
X126986Y24989D01*
X127504Y26238D01*
X127581Y26829D01*
D02*
G37*
G36*
X121750D02*
X117419D01*
X117496Y26238D01*
X118014Y24989D01*
X118837Y23916D01*
X119910Y23093D01*
X121159Y22575D01*
X121750Y22497D01*
Y26829D01*
D02*
G37*
G36*
X144510Y12581D02*
Y8250D01*
X148841D01*
X148764Y8841D01*
X148246Y10090D01*
X147423Y11163D01*
X146350Y11986D01*
X145101Y12504D01*
X144510Y12581D01*
D02*
G37*
G36*
X143010D02*
X142419Y12504D01*
X141170Y11986D01*
X140097Y11163D01*
X139274Y10090D01*
X138756Y8841D01*
X138678Y8250D01*
X143010D01*
Y12581D01*
D02*
G37*
G36*
X123250D02*
Y8250D01*
X127581D01*
X127504Y8841D01*
X126986Y10090D01*
X126163Y11163D01*
X125090Y11986D01*
X123841Y12504D01*
X123250Y12581D01*
D02*
G37*
G36*
X121750D02*
X121159Y12504D01*
X119910Y11986D01*
X118837Y11163D01*
X118014Y10090D01*
X117496Y8841D01*
X117419Y8250D01*
X121750D01*
Y12581D01*
D02*
G37*
G36*
X148841Y6750D02*
X144510D01*
Y2419D01*
X145101Y2496D01*
X146350Y3014D01*
X147423Y3837D01*
X148246Y4910D01*
X148764Y6159D01*
X148841Y6750D01*
D02*
G37*
G36*
X143010D02*
X138678D01*
X138756Y6159D01*
X139274Y4910D01*
X140097Y3837D01*
X141170Y3014D01*
X142419Y2496D01*
X143010Y2419D01*
Y6750D01*
D02*
G37*
G36*
X127581D02*
X123250D01*
Y2419D01*
X123841Y2496D01*
X125090Y3014D01*
X126163Y3837D01*
X126986Y4910D01*
X127504Y6159D01*
X127581Y6750D01*
D02*
G37*
G36*
X121750D02*
X117419D01*
X117496Y6159D01*
X118014Y4910D01*
X118837Y3837D01*
X119910Y3014D01*
X121159Y2496D01*
X121750Y2419D01*
Y6750D01*
D02*
G37*
%LPD*%
D15*
X202000Y111571D02*
D03*
Y95429D02*
D03*
D16*
X238500Y155850D02*
D03*
Y162150D02*
D03*
X248500Y155850D02*
D03*
Y162150D02*
D03*
X258500Y155850D02*
D03*
Y162150D02*
D03*
X268500Y155850D02*
D03*
Y162150D02*
D03*
X278500Y155850D02*
D03*
Y162150D02*
D03*
X288000Y155850D02*
D03*
Y162150D02*
D03*
D17*
X238500Y185906D02*
D03*
Y180000D02*
D03*
X248500Y185953D02*
D03*
Y180047D02*
D03*
X278500Y185953D02*
D03*
Y180047D02*
D03*
X288000Y185906D02*
D03*
Y180000D02*
D03*
X268500Y185906D02*
D03*
Y180000D02*
D03*
X258500Y185953D02*
D03*
Y180047D02*
D03*
X144000Y61047D02*
D03*
Y66953D02*
D03*
X136500Y66953D02*
D03*
Y61047D02*
D03*
X111500Y68547D02*
D03*
Y74453D02*
D03*
X104000Y68547D02*
D03*
Y74453D02*
D03*
X218500Y157500D02*
D03*
Y151594D02*
D03*
X219500Y169500D02*
D03*
Y175406D02*
D03*
X165500Y96047D02*
D03*
Y101953D02*
D03*
X84000Y97453D02*
D03*
Y91547D02*
D03*
X167000Y137547D02*
D03*
Y143453D02*
D03*
X158000Y181047D02*
D03*
Y186953D02*
D03*
X136500Y124000D02*
D03*
Y129905D02*
D03*
Y138594D02*
D03*
Y144500D02*
D03*
X136500Y155047D02*
D03*
Y160953D02*
D03*
X227500Y169547D02*
D03*
Y175453D02*
D03*
X73000Y152047D02*
D03*
Y157953D02*
D03*
X83000Y180595D02*
D03*
Y186500D02*
D03*
X72000Y180547D02*
D03*
Y186453D02*
D03*
X107500Y165594D02*
D03*
Y171500D02*
D03*
X54000Y38547D02*
D03*
Y44453D02*
D03*
X46500Y38547D02*
D03*
Y44453D02*
D03*
X122000Y44500D02*
D03*
Y38594D02*
D03*
X129500Y44500D02*
D03*
Y38594D02*
D03*
X137000Y38500D02*
D03*
Y44405D02*
D03*
X144500Y38500D02*
D03*
Y44405D02*
D03*
X77000Y97453D02*
D03*
Y91547D02*
D03*
X159350Y69595D02*
D03*
Y75500D02*
D03*
X106000Y123406D02*
D03*
Y117500D02*
D03*
X69500Y91547D02*
D03*
Y97453D02*
D03*
X107000Y44405D02*
D03*
Y38500D02*
D03*
X99500Y44405D02*
D03*
Y38500D02*
D03*
X92000Y38453D02*
D03*
Y44358D02*
D03*
X84500Y38405D02*
D03*
Y44311D02*
D03*
X69000Y44453D02*
D03*
Y38547D02*
D03*
X61500Y44453D02*
D03*
Y38547D02*
D03*
X202500Y151547D02*
D03*
Y157453D02*
D03*
X194500Y147095D02*
D03*
Y153000D02*
D03*
X203500Y175500D02*
D03*
Y169595D02*
D03*
X210500Y151500D02*
D03*
Y157405D02*
D03*
X211500Y175453D02*
D03*
Y169547D02*
D03*
X136500Y114953D02*
D03*
Y109047D02*
D03*
X149500Y186953D02*
D03*
Y181047D02*
D03*
X81000Y152094D02*
D03*
Y158000D02*
D03*
X119502Y195237D02*
D03*
Y189331D02*
D03*
X127582Y195237D02*
D03*
Y189331D02*
D03*
X23000Y169453D02*
D03*
Y163547D02*
D03*
D18*
X196047Y76000D02*
D03*
X201953D02*
D03*
X243547Y64500D02*
D03*
X249453D02*
D03*
X269047Y112500D02*
D03*
X274953D02*
D03*
X196047Y61500D02*
D03*
X201953D02*
D03*
X201953Y54000D02*
D03*
X196047D02*
D03*
X121405Y117500D02*
D03*
X115500D02*
D03*
X66594Y75500D02*
D03*
X72500D02*
D03*
X157953Y102000D02*
D03*
X152047D02*
D03*
X80594Y144000D02*
D03*
X86500D02*
D03*
X100406Y171500D02*
D03*
X94500D02*
D03*
X196000Y83500D02*
D03*
X201905D02*
D03*
X196047Y122500D02*
D03*
X201953D02*
D03*
X196047Y68500D02*
D03*
X201953D02*
D03*
X249453Y72000D02*
D03*
X243547D02*
D03*
X196047Y47000D02*
D03*
X201953D02*
D03*
X196500Y172500D02*
D03*
X190594D02*
D03*
X158000Y85000D02*
D03*
X152094D02*
D03*
X157953Y93500D02*
D03*
X152047D02*
D03*
X185953Y150000D02*
D03*
X180047D02*
D03*
X164594Y181500D02*
D03*
X170500D02*
D03*
X63953Y158000D02*
D03*
X58047D02*
D03*
D19*
X283228Y105000D02*
D03*
Y100000D02*
D03*
Y95000D02*
D03*
Y90000D02*
D03*
X261772D02*
D03*
Y95000D02*
D03*
Y100000D02*
D03*
Y105000D02*
D03*
D20*
X110185Y100500D02*
D03*
X120815D02*
D03*
D21*
X128240Y68579D02*
D03*
X124500D02*
D03*
X120760D02*
D03*
Y78421D02*
D03*
X124500D02*
D03*
X128240D02*
D03*
D22*
X161000Y163500D02*
D03*
D23*
X172516Y175016D02*
D03*
Y172457D02*
D03*
Y169898D02*
D03*
Y167339D02*
D03*
Y164779D02*
D03*
Y162221D02*
D03*
Y159661D02*
D03*
Y157102D02*
D03*
Y154543D02*
D03*
Y151984D02*
D03*
X149484D02*
D03*
Y154543D02*
D03*
Y157102D02*
D03*
Y159661D02*
D03*
Y162221D02*
D03*
Y164779D02*
D03*
Y167339D02*
D03*
Y169898D02*
D03*
Y172457D02*
D03*
Y175016D02*
D03*
D24*
X56000Y99815D02*
D03*
Y89185D02*
D03*
X152000Y71315D02*
D03*
Y60685D02*
D03*
D25*
X103839Y156382D02*
D03*
X101279D02*
D03*
X98721D02*
D03*
X96161D02*
D03*
Y144571D02*
D03*
X98721D02*
D03*
X101279D02*
D03*
X103839D02*
D03*
X35161Y168618D02*
D03*
X37721D02*
D03*
X40279D02*
D03*
X42839D02*
D03*
Y180429D02*
D03*
X40279D02*
D03*
X37721D02*
D03*
X35161D02*
D03*
D26*
X100000Y149000D02*
D03*
X39000Y176000D02*
D03*
D27*
X95618Y190339D02*
D03*
Y187779D02*
D03*
Y185221D02*
D03*
Y182661D02*
D03*
X107429D02*
D03*
Y185221D02*
D03*
Y187779D02*
D03*
Y190339D02*
D03*
D28*
X103000Y186500D02*
D03*
D29*
X186906Y73902D02*
D03*
X177850D02*
D03*
X168795D02*
D03*
D30*
X177850Y49098D02*
D03*
D31*
X94161Y104063D02*
D03*
Y106032D02*
D03*
Y108000D02*
D03*
Y109968D02*
D03*
Y111937D02*
D03*
X76839D02*
D03*
Y109968D02*
D03*
Y108000D02*
D03*
Y106032D02*
D03*
Y104063D02*
D03*
D32*
X216315Y108024D02*
D03*
Y104874D02*
D03*
Y101724D02*
D03*
Y98575D02*
D03*
Y95425D02*
D03*
Y92276D02*
D03*
Y89126D02*
D03*
Y85976D02*
D03*
X249685D02*
D03*
Y89126D02*
D03*
Y92276D02*
D03*
Y95425D02*
D03*
Y98575D02*
D03*
Y101724D02*
D03*
Y104874D02*
D03*
Y108024D02*
D03*
D33*
X221976Y80315D02*
D03*
X225126D02*
D03*
X228276D02*
D03*
X231425D02*
D03*
X234575D02*
D03*
X237724D02*
D03*
X240874D02*
D03*
X244024D02*
D03*
Y113685D02*
D03*
X240874D02*
D03*
X237724D02*
D03*
X234575D02*
D03*
X231425D02*
D03*
X228276D02*
D03*
X225126D02*
D03*
X221976D02*
D03*
D34*
X80634Y169500D02*
D03*
X72366Y165760D02*
D03*
Y173240D02*
D03*
D35*
X54079Y164760D02*
D03*
Y168500D02*
D03*
Y172240D02*
D03*
X63921D02*
D03*
Y168500D02*
D03*
Y164760D02*
D03*
D36*
X156500Y138465D02*
D03*
Y121535D02*
D03*
D37*
X168035Y192000D02*
D03*
X184965D02*
D03*
D38*
X151972Y111000D02*
D03*
X161028D02*
D03*
X186472Y180500D02*
D03*
X195528D02*
D03*
D39*
X10000Y170965D02*
D03*
Y154035D02*
D03*
D78*
X202150Y157102D02*
X202500Y157453D01*
X72366Y165760D02*
X76500Y169894D01*
X71200Y111937D02*
X76839D01*
X80036Y113500D02*
X81000D01*
X73641D02*
X73668Y113528D01*
X80009D02*
X80036Y113500D01*
X65000Y115500D02*
X82000D01*
X66000Y113500D02*
X73641D01*
X64500Y112000D02*
X66000Y113500D01*
X73668Y113528D02*
X80009D01*
X81000Y113500D02*
X88468Y106032D01*
X127500Y56500D02*
X152000D01*
X151700Y65300D02*
X151800D01*
X152000Y65500D01*
X151700Y65300D02*
X177800D01*
X178000Y65500D01*
X225126Y65174D02*
X225200Y65100D01*
X225126Y65174D02*
Y80315D01*
X178156Y159496D02*
X178370Y159710D01*
X178151Y159500D02*
X178156Y159496D01*
X167047Y137500D02*
X172500D01*
X167000Y137547D02*
X167047Y137500D01*
X180000Y149953D02*
X180047Y150000D01*
X180000Y142000D02*
Y149953D01*
X158000Y181047D02*
X158000Y181047D01*
X158000Y175500D02*
Y181047D01*
X152398Y169898D02*
X158000Y175500D01*
X149484Y169898D02*
X152398D01*
X149484Y172457D02*
X152457D01*
X154000Y174000D01*
Y185000D01*
X155953Y186953D01*
X158000D01*
X163047Y192000D02*
X168035D01*
X158000Y186953D02*
X163047Y192000D01*
X164094Y181000D02*
X164594Y181500D01*
X283228Y90000D02*
X290000D01*
X238500Y162150D02*
Y180000D01*
X248500Y162150D02*
X248500Y162150D01*
X248500Y162150D02*
Y180047D01*
X258500Y162150D02*
X258500Y162150D01*
X258500Y162150D02*
Y180047D01*
X268500Y162150D02*
Y180000D01*
X278500Y162150D02*
X278500Y162150D01*
X278500Y162150D02*
Y180047D01*
X288000Y162150D02*
Y180000D01*
X238595Y186000D02*
X283500D01*
X238500Y185906D02*
X238595Y186000D01*
X287906D02*
X288000Y185906D01*
X283500Y186000D02*
X287906D01*
X283500Y128000D02*
Y186000D01*
X228276Y145626D02*
X238500Y155850D01*
X231425Y138776D02*
X248500Y155850D01*
X234575Y131925D02*
X258500Y155850D01*
X237724Y125075D02*
X268500Y155850D01*
X240874Y118224D02*
X278500Y155850D01*
X240874Y113685D02*
Y118224D01*
X237724Y113685D02*
Y125075D01*
X234575Y113685D02*
Y131925D01*
X231425Y113685D02*
Y138776D01*
Y113685D02*
X231500Y113760D01*
X228276Y113685D02*
Y145626D01*
X249685Y64732D02*
Y85976D01*
X178000Y49098D02*
X196047D01*
X245500Y56000D02*
X249500Y60000D01*
X231500Y42000D02*
X245500Y56000D01*
X110953Y74453D02*
X111500Y75000D01*
X112000Y74500D01*
X104000Y74453D02*
X110953D01*
X116453Y68547D02*
X116500Y68500D01*
X111500Y68547D02*
X116453D01*
X112000Y74500D02*
X117000D01*
X216496Y59203D02*
Y85795D01*
X216315Y85976D02*
X216496Y85795D01*
X76500Y75500D02*
X77000Y75000D01*
X72500Y75500D02*
X76500D01*
X216315Y98575D02*
X216390Y98500D01*
X223000D01*
X249685Y108024D02*
Y108024D01*
X261161Y119500D02*
X275000D01*
X249685Y108024D02*
X261161Y119500D01*
X249685Y104874D02*
X253374D01*
X265500Y117000D01*
X277500D01*
X283500Y123000D01*
X275000Y119500D02*
X278500Y123000D01*
X89453Y91547D02*
X89500Y91500D01*
X84000Y91547D02*
X89453D01*
X63500Y78594D02*
X66594Y75500D01*
X63500Y78594D02*
Y93000D01*
X67953Y97453D01*
X69500D01*
Y104500D01*
X71031Y106032D01*
X76839D01*
Y97614D02*
X77000Y97453D01*
X76839Y97614D02*
Y104063D01*
X77000Y97453D02*
X77000Y97453D01*
X84000D01*
X196047Y42000D02*
Y47000D01*
Y19110D02*
Y42000D01*
X249453Y64500D02*
X249500Y64453D01*
Y60000D02*
Y64453D01*
X196047Y42000D02*
X231500D01*
X185953Y144953D02*
Y150000D01*
X196047Y49098D02*
Y54000D01*
Y47000D02*
Y49098D01*
X201953Y54000D02*
Y68500D01*
Y76000D01*
X205953Y80000D01*
X207000D01*
Y89000D01*
X213425Y95425D01*
X216315D01*
X211626Y89126D02*
X216315D01*
X210500Y88000D02*
X211626Y89126D01*
X210500Y72500D02*
Y88000D01*
X131000Y61500D02*
X143547D01*
X144000Y61047D01*
X128240Y64260D02*
X131000Y61500D01*
X128240Y64260D02*
Y68579D01*
X150547Y66953D02*
X152000Y65500D01*
X144000Y66953D02*
X150547D01*
X120760Y63240D02*
X127500Y56500D01*
X120760Y63240D02*
Y68579D01*
X258000Y90000D02*
X261772D01*
X257000Y91000D02*
X258000Y90000D01*
X249685Y98575D02*
X249760Y98500D01*
X252621D02*
X257000Y94121D01*
X249760Y98500D02*
X252621D01*
X257000Y91000D02*
Y94121D01*
X250000Y5500D02*
X255500Y11000D01*
X253075Y95425D02*
X255500Y93000D01*
Y11000D02*
Y93000D01*
X249685Y95425D02*
X253075D01*
X234185Y10500D02*
X254000Y30315D01*
Y92000D01*
X253500Y92500D02*
X254000Y92000D01*
X249909Y92500D02*
X253500D01*
X249685Y92276D02*
X249909Y92500D01*
X249453Y64500D02*
X249685Y64732D01*
X270500Y63500D02*
X275500Y58500D01*
X270500Y63500D02*
Y93000D01*
X277500Y100000D01*
X224342Y10500D02*
X229343Y5500D01*
X250000D01*
X268062Y97265D02*
Y97874D01*
X268094Y97905D01*
X268062Y97062D02*
Y97265D01*
X268000Y97000D02*
X268062Y97062D01*
X268094Y97905D02*
Y112500D01*
X266000Y95000D02*
X268000Y97000D01*
X168927Y74034D02*
Y80232D01*
X168795Y73902D02*
X168927Y74034D01*
X196047Y19110D02*
X204658Y10500D01*
X177850Y49098D02*
X178000D01*
X166047Y143453D02*
X167000D01*
X152398Y157102D02*
X166047Y143453D01*
X156500Y139000D02*
X157953Y137547D01*
X167000D01*
X262000Y95000D02*
X266000D01*
X272685Y38815D02*
X275500D01*
X268500Y43000D02*
X272685Y38815D01*
X268500Y43000D02*
Y92500D01*
X266000Y95000D02*
X268500Y92500D01*
X277500Y100000D02*
X283457D01*
X276500Y93000D02*
X278500Y95000D01*
X276500Y69342D02*
Y93000D01*
X278500Y95000D02*
X283457D01*
X275500Y68343D02*
X276500Y69342D01*
X256500Y105000D02*
X262000D01*
X253224Y101724D02*
X256500Y105000D01*
X249685Y101724D02*
X253224D01*
X222732Y164779D02*
X227500Y169547D01*
X172516Y164779D02*
X222732D01*
X137768Y162221D02*
X146451D01*
X136500Y160953D02*
X137768Y162221D01*
X149098Y162606D02*
X149484Y162221D01*
X146451D02*
X149098D01*
X172516Y157102D02*
X202150D01*
X202500Y157453D02*
X210500D01*
Y157405D02*
Y157453D01*
X172516Y167339D02*
X177927D01*
X237724Y113685D02*
X238000Y113961D01*
X60000Y90000D02*
Y93185D01*
X221976Y80315D02*
X222000Y80291D01*
Y75500D02*
Y80291D01*
X221000Y74500D02*
X222000Y75500D01*
X171953Y101953D02*
X172000Y102000D01*
X161028Y111000D02*
X165500D01*
X121405Y117500D02*
X125500D01*
X88000Y100000D02*
X105000D01*
X80000Y108000D02*
X88000Y100000D01*
X76839Y108000D02*
X80000D01*
X88500Y102000D02*
X103000D01*
X80468Y109968D02*
X80500Y110000D01*
X76839Y109968D02*
X80468D01*
X80500Y110000D02*
X88500Y102000D01*
X106000Y117500D02*
X115500D01*
X106000Y108500D02*
Y117500D01*
X101500Y104000D02*
X106000Y108500D01*
X101437Y104063D02*
X101500Y104000D01*
X94161Y104063D02*
X101437D01*
X60000Y93185D02*
X64500Y97685D01*
Y112000D01*
X62500Y100000D02*
Y113000D01*
X61500Y99000D02*
X62500Y100000D01*
X60000Y99000D02*
X61500D01*
X62500Y113000D02*
X65000Y115500D01*
X82000D02*
X89500Y108000D01*
X88468Y106032D02*
X94161D01*
X89500Y108000D02*
X94161D01*
X120815Y100500D02*
Y101185D01*
X117000Y105000D02*
X120815Y101185D01*
X106000Y105000D02*
X117000D01*
X103000Y102000D02*
X106000Y105000D01*
X105000Y100000D02*
X107343Y97658D01*
X128240Y78421D02*
X132579D01*
X151685Y71000D02*
X152000Y71315D01*
X145500Y71000D02*
X151685D01*
X134000Y82500D02*
X145500Y71000D01*
X121500Y82500D02*
X134000D01*
X120760Y81760D02*
X121500Y82500D01*
X120760Y78421D02*
Y81760D01*
X86500Y144000D02*
X89500D01*
X91000Y145500D01*
Y151221D01*
X96161Y156382D01*
X180282Y162218D02*
X181845D01*
X180280Y162221D02*
X180282Y162218D01*
X156500Y139000D02*
X158122Y140622D01*
X244024Y85976D02*
X249685D01*
X221976Y108024D02*
X244024Y85976D01*
X216315Y108024D02*
X221976D01*
X165453Y102000D02*
X165500Y101953D01*
X157953Y102000D02*
X165453D01*
X165500Y101953D02*
X171953D01*
X201905Y84500D02*
Y94929D01*
X201953Y122500D02*
X202000Y122453D01*
Y111071D02*
Y122453D01*
Y111071D02*
X208197Y104874D01*
X216315D01*
X201905Y94929D02*
X208701Y101724D01*
X216315D01*
X168043Y154543D02*
X172516D01*
X168000Y154500D02*
X168043Y154543D01*
X153279Y164779D02*
X153500Y165000D01*
X149484Y164779D02*
X153279D01*
X178000Y159500D02*
X178151D01*
X149484Y157102D02*
X152398D01*
X142500Y178500D02*
Y191500D01*
X172516Y162221D02*
X180280D01*
X177839Y159661D02*
X178000Y159500D01*
X172516Y159661D02*
X177839D01*
X136500Y129905D02*
Y134500D01*
Y138594D01*
X172516Y154543D02*
X194409D01*
X187000Y168000D02*
X201000D01*
X185102Y169898D02*
X187000Y168000D01*
X172516Y169898D02*
X185102D01*
X211453Y169595D02*
X211500Y169547D01*
X203500Y169595D02*
X211453D01*
X219453Y175453D02*
X219500Y175406D01*
X211500Y175453D02*
X219453D01*
X178063Y151984D02*
X180047Y150000D01*
X172516Y151984D02*
X178063D01*
X158122Y140622D02*
Y148378D01*
X153339Y153161D02*
X158122Y148378D01*
X152630Y153870D02*
X152753D01*
X153339Y153284D01*
Y153161D02*
Y153284D01*
X151957Y154543D02*
X152630Y153870D01*
X149484Y154543D02*
X151957D01*
X164594Y181500D02*
Y186094D01*
X168035Y189535D01*
Y192000D01*
X218406Y151500D02*
X218500Y151594D01*
X210500Y151500D02*
X218406D01*
X194409Y154543D02*
X194453Y154500D01*
X190551Y172457D02*
X190594Y172500D01*
X172516Y172457D02*
X190551D01*
X95618Y180382D02*
Y182661D01*
Y180382D02*
X100500Y175500D01*
Y171595D02*
Y175500D01*
X68500Y162453D02*
X73000Y157953D01*
X68500Y162453D02*
Y169374D01*
X40260Y164760D02*
X54079D01*
X39000Y176000D02*
X50319D01*
X73047Y158000D02*
X81000D01*
X73000Y157953D02*
X73047Y158000D01*
X38000Y162500D02*
X40260Y164760D01*
X36500Y161000D02*
X38000Y162500D01*
X46000D01*
X50500Y158000D01*
X60740Y172240D02*
X63921D01*
X42839Y168618D02*
X53961D01*
X50500Y158000D02*
X58047D01*
X63921Y158031D02*
Y164760D01*
X58047Y158000D02*
Y169547D01*
X60740Y172240D01*
X50319Y176000D02*
X54079Y172240D01*
X63921Y158031D02*
X63953Y158000D01*
X53961Y168618D02*
X54079Y168500D01*
X90043Y162500D02*
X96161Y156382D01*
X75626Y162500D02*
X90043D01*
X72366Y165760D02*
X75626Y162500D01*
X76500Y169894D02*
Y177500D01*
X100406Y171500D02*
X107500D01*
X100406D02*
X100500Y171595D01*
X89000Y186000D02*
X92500Y189500D01*
X89000Y173000D02*
Y186000D01*
Y173000D02*
X90500Y171500D01*
X94500D01*
X72000Y173606D02*
X72366Y173240D01*
X79594Y180595D02*
X83000D01*
X72000Y173606D02*
Y180547D01*
X76500Y177500D02*
X79594Y180595D01*
X68500Y169374D02*
X72366Y173240D01*
D79*
X78000Y3700D02*
Y68315D01*
X152000Y3500D02*
Y56500D01*
Y60685D01*
X120815Y100500D02*
X130500D01*
Y109000D01*
X130386Y167386D02*
X130500D01*
Y167291D02*
Y167386D01*
Y144500D02*
Y167291D01*
X151972Y72028D02*
Y111000D01*
X78000Y68315D02*
X107343Y97658D01*
X110185Y100500D01*
X143000Y119972D02*
X151972Y111000D01*
X143000Y119972D02*
Y155000D01*
X130500Y109000D02*
Y144500D01*
X149500Y148000D02*
Y150000D01*
X143000Y155000D02*
Y158000D01*
X126500Y172000D02*
X130386Y168114D01*
Y167386D02*
Y168114D01*
D80*
X39122Y129189D02*
X55183Y145250D01*
X9567Y153602D02*
X10000Y154035D01*
X9567Y145000D02*
Y153602D01*
X23000Y161000D02*
X36500D01*
X10000Y154035D02*
X16035D01*
X39122Y117598D02*
Y129189D01*
X34000Y51000D02*
X56000Y73000D01*
X34000Y6500D02*
Y51000D01*
X16035Y154035D02*
X23000Y161000D01*
X56000Y118000D02*
X70500Y132500D01*
X117500D01*
Y186000D01*
X127000Y186500D02*
X134500Y179000D01*
X39000Y189500D02*
X92500D01*
D81*
X178000Y65500D02*
Y73902D01*
Y49098D02*
Y65500D01*
X164638Y69595D02*
X168945Y73902D01*
X159406Y69500D02*
X159500Y69595D01*
X156000Y69500D02*
X159406D01*
X154185Y71315D02*
X156000Y69500D01*
X152000Y71315D02*
X154185D01*
X159500Y69595D02*
X164638D01*
X130500Y109000D02*
X130547Y109047D01*
X136500D01*
X179500Y175000D02*
X185000Y180500D01*
X186472D01*
X130500Y144500D02*
X136500D01*
X142953Y155047D02*
X143000Y155000D01*
X136500Y155047D02*
X142953D01*
X171500Y176000D02*
Y180500D01*
X170500Y181500D02*
X171500Y180500D01*
X191528Y184500D02*
X195528Y180500D01*
X182500Y184500D02*
X191528D01*
X179500Y181500D02*
X182500Y184500D01*
X170500Y181500D02*
X179500D01*
X103839Y156382D02*
X107500Y160043D01*
Y165594D01*
D82*
X130500Y167291D02*
X130548Y167339D01*
D83*
X149484D01*
D84*
X56000Y82250D02*
D03*
D85*
Y107500D02*
D03*
D86*
X149500Y150500D02*
D03*
D87*
X144993Y159661D02*
D03*
D88*
X140250Y178750D02*
D03*
D89*
X149500D02*
D03*
D90*
X113750Y186500D02*
D03*
D91*
X101000Y156500D02*
D03*
D92*
X94000Y187000D02*
D03*
D93*
X38750Y181000D02*
D03*
D94*
X37750Y165750D02*
D03*
D95*
X85000Y27484D02*
D03*
X106260D02*
D03*
X85000Y7406D02*
D03*
X106260D02*
D03*
X160000Y27579D02*
D03*
X181260D02*
D03*
X160000Y7500D02*
D03*
X181260D02*
D03*
X122500Y27579D02*
D03*
X143760D02*
D03*
X122500Y7500D02*
D03*
X143760D02*
D03*
X47350Y27500D02*
D03*
X68610D02*
D03*
X47350Y7421D02*
D03*
X68610D02*
D03*
D96*
X275000Y12500D02*
D03*
X12500Y187500D02*
D03*
Y12500D02*
D03*
D97*
X275500Y68343D02*
D03*
Y58500D02*
D03*
Y48658D02*
D03*
Y38815D02*
D03*
X9567Y145000D02*
D03*
D98*
X263500Y123000D02*
D03*
Y128000D02*
D03*
X268500Y123000D02*
D03*
Y128000D02*
D03*
X273500Y123000D02*
D03*
Y128000D02*
D03*
X278500Y123000D02*
D03*
Y128000D02*
D03*
X283500Y123000D02*
D03*
D99*
Y128000D02*
D03*
D100*
X204658Y10500D02*
D03*
D101*
X214500D02*
D03*
X224342D02*
D03*
X234185D02*
D03*
X244028D02*
D03*
D102*
X15500Y76850D02*
D03*
Y130000D02*
D03*
D103*
X39122Y117598D02*
D03*
Y89252D02*
D03*
D104*
X55433Y145000D02*
D03*
D105*
X151700Y65300D02*
D03*
X225200Y65100D02*
D03*
X178370Y159710D02*
D03*
X172500Y137500D02*
D03*
X180000Y142000D02*
D03*
X185953Y144953D02*
D03*
X290000Y90000D02*
D03*
X245500Y56000D02*
D03*
X116500Y68500D02*
D03*
X117000Y74500D02*
D03*
X216496Y59203D02*
D03*
X77000Y75000D02*
D03*
X223000Y98500D02*
D03*
X89500Y91500D02*
D03*
X132579Y78421D02*
D03*
X268062Y97265D02*
D03*
X210500Y72500D02*
D03*
X168927Y80232D02*
D03*
X177927Y167339D02*
D03*
X221000Y74500D02*
D03*
X172000Y102000D02*
D03*
X165500Y111000D02*
D03*
X125500Y117500D02*
D03*
X181845Y162218D02*
D03*
X168000Y154500D02*
D03*
X153500Y165000D02*
D03*
X142500Y191500D02*
D03*
X179500Y175000D02*
D03*
X136500Y134500D02*
D03*
D106*
X263500Y110500D02*
D03*
D107*
X115500Y47000D02*
D03*
X61500Y66000D02*
D03*
X74500Y121500D02*
D03*
X149500Y148000D02*
D03*
X126500Y172000D02*
D03*
M02*
