M48
;Layer_Color=9474304
;FILE_FORMAT=2:5
INCH,TZ
;TYPE=PLATED
T1F00S00C0.01181
T2F00S00C0.01800
T3F00S00C0.02500
T4F00S00C0.02756
T5F00S00C0.02800
T6F00S00C0.03543
T7F00S00C0.03937
T8F00S00C0.04331
T9F00S00C0.06181
T10F00S00C0.07087
T11F00S00C0.10630
T12F00S00C0.11811
%
T01
X245500Y56000
X225200Y65100
X221000Y74500
X216496Y59203
X223000Y98500
X268062Y97265
X290000Y90000
X210500Y72500
X168927Y80232
X172000Y102000
X165500Y111000
X172500Y137500
X180000Y142000
X185953Y144953
X181845Y162218
X178370Y159710
X177927Y167339
X179500Y175000
X168000Y154500
X153500Y165000
X142500Y191500
X136500Y134500
X125500Y117500
X132579Y78421
X117000Y74500
X116500Y68500
X151700Y65300
X77000Y75000
X89500Y91500
T02
X263500Y110500
T03
X149500Y148000
X126500Y172000
T04
X263500Y123000
Y128000
X268500
Y123000
X273500
Y128000
X278500
Y123000
X283500
Y128000
T05
X115500Y47000
X61500Y66000
X74500Y121500
T06
X9567Y145000
X55433
T07
X275500Y38815
Y48658
Y58500
Y68343
T08
X204658Y10500
X214500
X224342
X234185
X244028
T09
X47350Y7421
Y27500
X68610
X85000Y27484
Y7406
X68610Y7421
X106260Y7406
X122500Y7500
Y27579
X106260Y27484
X143760Y27579
X160000
Y7500
X143760
X181260
Y27579
T10
X15500Y76850
Y130000
T11
X39122Y89252
Y117598
T12
X12500Y12500
X275000
X12500Y187500
M30
