G04*
G04 #@! TF.GenerationSoftware,Altium Limited,Altium Designer,20.1.11 (218)*
G04*
G04 Layer_Color=32896*
%FSLAX25Y25*%
%MOIN*%
G70*
G04*
G04 #@! TF.SameCoordinates,7BCCE59C-3DE7-4F21-A10E-2C10B2644855*
G04*
G04*
G04 #@! TF.FilePolarity,Positive*
G04*
G01*
G75*
%ADD14C,0.00600*%
%ADD78C,0.01000*%
G36*
X277321Y177180D02*
X279883D01*
Y176860D01*
X280844D01*
Y176539D01*
X281805D01*
Y176219D01*
X282125D01*
Y175899D01*
X282446D01*
Y175578D01*
X282766D01*
Y175258D01*
X283086D01*
Y174938D01*
Y174618D01*
X283407D01*
Y174297D01*
Y173977D01*
X283727D01*
Y173656D01*
Y173336D01*
X284047D01*
Y173016D01*
Y172696D01*
Y172375D01*
Y172055D01*
Y171735D01*
Y171414D01*
Y171094D01*
Y170774D01*
Y170453D01*
Y170133D01*
X283727D01*
Y169813D01*
Y169492D01*
Y169172D01*
X283407D01*
Y168852D01*
Y168531D01*
X283086D01*
Y168211D01*
X282766D01*
Y167891D01*
X282446D01*
Y167570D01*
X282125D01*
Y167250D01*
X281805D01*
Y166930D01*
X281165D01*
Y166610D01*
X280204D01*
Y166289D01*
X276680D01*
Y166610D01*
X276039D01*
Y166930D01*
X275399D01*
Y167250D01*
X275078D01*
Y167570D01*
X274758D01*
Y167891D01*
X274438D01*
Y168211D01*
X274117D01*
Y168531D01*
Y168852D01*
X273797D01*
Y169172D01*
X273477D01*
Y169492D01*
Y169813D01*
X273156D01*
Y170133D01*
Y170453D01*
X272836D01*
Y170774D01*
Y171094D01*
X272516D01*
Y171414D01*
Y171735D01*
X272196D01*
Y172055D01*
Y172375D01*
X271875D01*
Y172696D01*
Y173016D01*
Y173336D01*
X271555D01*
Y173656D01*
Y173977D01*
X271235D01*
Y174297D01*
Y174618D01*
X270914D01*
Y174938D01*
Y175258D01*
Y175578D01*
X270594D01*
Y175899D01*
Y176219D01*
Y176539D01*
X270274D01*
Y176860D01*
Y177180D01*
Y177500D01*
X277321D01*
Y177180D01*
D02*
G37*
G36*
X81607Y167891D02*
X83208D01*
Y167570D01*
X84169D01*
Y167250D01*
X85130D01*
Y166930D01*
X86091D01*
Y166610D01*
X86732D01*
Y166289D01*
X87372D01*
Y165969D01*
X87693D01*
Y165649D01*
X88333D01*
Y165328D01*
X88653D01*
Y165008D01*
X89294D01*
Y164688D01*
X89614D01*
Y164367D01*
X89935D01*
Y164047D01*
X90255D01*
Y163727D01*
X90575D01*
Y163406D01*
X90896D01*
Y163086D01*
X91216D01*
Y162766D01*
X91536D01*
Y162445D01*
X91857D01*
Y162125D01*
X92177D01*
Y161805D01*
Y161484D01*
X92497D01*
Y161164D01*
X92818D01*
Y160844D01*
X93138D01*
Y160523D01*
Y160203D01*
X93458D01*
Y159883D01*
Y159563D01*
X93779D01*
Y159242D01*
Y158922D01*
X94099D01*
Y158602D01*
Y158281D01*
X94419D01*
Y157961D01*
Y157641D01*
X94740D01*
Y157320D01*
Y157000D01*
Y156680D01*
X95060D01*
Y156359D01*
Y156039D01*
Y155719D01*
Y155398D01*
X95380D01*
Y155078D01*
Y154758D01*
Y154437D01*
Y154117D01*
Y153797D01*
X95701D01*
Y153477D01*
Y153156D01*
Y152836D01*
Y152516D01*
Y152195D01*
Y151875D01*
Y151555D01*
Y151234D01*
Y150914D01*
Y150594D01*
Y150273D01*
Y149953D01*
Y149633D01*
Y149312D01*
Y148992D01*
Y148672D01*
X95380D01*
Y148351D01*
Y148031D01*
Y147711D01*
Y147390D01*
Y147070D01*
X95060D01*
Y146750D01*
Y146430D01*
Y146109D01*
X94740D01*
Y145789D01*
Y145469D01*
X94419D01*
Y145148D01*
Y144828D01*
X94099D01*
Y144508D01*
Y144187D01*
X93779D01*
Y143867D01*
Y143547D01*
X93458D01*
Y143226D01*
X93138D01*
Y142906D01*
X92818D01*
Y142586D01*
Y142265D01*
X92497D01*
Y141945D01*
X92177D01*
Y141625D01*
X91536D01*
Y141304D01*
X91216D01*
Y140984D01*
X90896D01*
Y140664D01*
X90255D01*
Y140343D01*
X89935D01*
Y140023D01*
X89294D01*
Y139703D01*
X88653D01*
Y139383D01*
X88013D01*
Y139062D01*
X87052D01*
Y138742D01*
X85771D01*
Y138422D01*
X84169D01*
Y138101D01*
X79364D01*
Y138422D01*
X78083D01*
Y138742D01*
X76802D01*
Y139062D01*
X75841D01*
Y139383D01*
X75200D01*
Y139703D01*
X74559D01*
Y140023D01*
X73919D01*
Y140343D01*
X73278D01*
Y140664D01*
X72638D01*
Y140984D01*
X72317D01*
Y141304D01*
X71677D01*
Y141625D01*
X71356D01*
Y141945D01*
X71036D01*
Y142265D01*
X70716D01*
Y142586D01*
X70395D01*
Y142906D01*
X70075D01*
Y143226D01*
X69755D01*
Y143547D01*
X69434D01*
Y143867D01*
X69114D01*
Y144187D01*
X68794D01*
Y144508D01*
Y144828D01*
X68474D01*
Y145148D01*
X68153D01*
Y145469D01*
X67833D01*
Y145789D01*
Y146109D01*
X67513D01*
Y146430D01*
Y146750D01*
X67192D01*
Y147070D01*
Y147390D01*
X66872D01*
Y147711D01*
Y148031D01*
X66552D01*
Y148351D01*
X65911D01*
Y148031D01*
Y147711D01*
Y147390D01*
Y147070D01*
Y146750D01*
Y146430D01*
Y146109D01*
Y145789D01*
X66231D01*
Y145469D01*
Y145148D01*
Y144828D01*
X66552D01*
Y144508D01*
Y144187D01*
X66872D01*
Y143867D01*
Y143547D01*
X67192D01*
Y143226D01*
Y142906D01*
Y142586D01*
Y142265D01*
X66872D01*
Y141945D01*
X66552D01*
Y141625D01*
X66231D01*
Y141304D01*
X65591D01*
Y140984D01*
X65270D01*
Y140664D01*
X64950D01*
Y140343D01*
X64309D01*
Y140023D01*
X63669D01*
Y139703D01*
X63028D01*
Y139383D01*
X62388D01*
Y139062D01*
X61427D01*
Y138742D01*
X60145D01*
Y138422D01*
X58223D01*
Y138101D01*
X54379D01*
Y138422D01*
X52458D01*
Y138742D01*
X51176D01*
Y139062D01*
X50215D01*
Y139383D01*
X49575D01*
Y139703D01*
X48614D01*
Y140023D01*
X48294D01*
Y140343D01*
X47653D01*
Y140664D01*
X47012D01*
Y140984D01*
X46692D01*
Y141304D01*
X46372D01*
Y141625D01*
X45731D01*
Y141945D01*
X45411D01*
Y142265D01*
X45090D01*
Y142586D01*
X44770D01*
Y142906D01*
X44450D01*
Y143226D01*
X44129D01*
Y143547D01*
X43809D01*
Y143867D01*
X43489D01*
Y144187D01*
X43168D01*
Y144508D01*
Y144828D01*
X42848D01*
Y145148D01*
X42528D01*
Y145469D01*
Y145789D01*
X42208D01*
Y146109D01*
X41887D01*
Y146430D01*
Y146750D01*
X41567D01*
Y147070D01*
Y147390D01*
X41247D01*
Y147711D01*
Y148031D01*
X40926D01*
Y148351D01*
Y148672D01*
Y148992D01*
X40606D01*
Y149312D01*
Y149633D01*
X40286D01*
Y149953D01*
Y150273D01*
Y150594D01*
Y150914D01*
X39965D01*
Y151234D01*
Y151555D01*
Y151875D01*
Y152195D01*
Y152516D01*
Y152836D01*
X39645D01*
Y153156D01*
Y153477D01*
Y153797D01*
Y154117D01*
Y154437D01*
Y154758D01*
Y155078D01*
Y155398D01*
Y155719D01*
Y156039D01*
Y156359D01*
Y156680D01*
Y157000D01*
Y157320D01*
Y157641D01*
X39965D01*
Y157961D01*
Y158281D01*
Y158602D01*
Y158922D01*
Y159242D01*
X40286D01*
Y159563D01*
Y159883D01*
Y160203D01*
X40606D01*
Y160523D01*
Y160844D01*
Y161164D01*
X40926D01*
Y161484D01*
Y161805D01*
X41247D01*
Y162125D01*
X41567D01*
Y162445D01*
Y162766D01*
X41887D01*
Y163086D01*
X42208D01*
Y163406D01*
Y163727D01*
X42528D01*
Y164047D01*
X42848D01*
Y164367D01*
X43168D01*
Y164688D01*
X43489D01*
Y165008D01*
X44129D01*
Y165328D01*
X44450D01*
Y165649D01*
X44770D01*
Y165969D01*
X45411D01*
Y166289D01*
X45731D01*
Y166610D01*
X46372D01*
Y166930D01*
X47333D01*
Y167250D01*
X47973D01*
Y167570D01*
X49254D01*
Y167891D01*
X50536D01*
Y168211D01*
X55981D01*
Y167891D01*
X57583D01*
Y167570D01*
X58864D01*
Y167250D01*
X59825D01*
Y166930D01*
X60466D01*
Y166610D01*
X61106D01*
Y166289D01*
X61747D01*
Y165969D01*
X62388D01*
Y165649D01*
X62708D01*
Y165328D01*
X63348D01*
Y165008D01*
X63669D01*
Y164688D01*
X63989D01*
Y164367D01*
X64630D01*
Y164047D01*
X64950D01*
Y163727D01*
X65270D01*
Y163406D01*
X65591D01*
Y163086D01*
X65911D01*
Y162766D01*
X66231D01*
Y162445D01*
Y162125D01*
X66552D01*
Y161805D01*
X66872D01*
Y161484D01*
X67192D01*
Y161164D01*
Y160844D01*
X67513D01*
Y160523D01*
X67833D01*
Y160203D01*
Y159883D01*
X68153D01*
Y159563D01*
Y159242D01*
X68474D01*
Y158922D01*
Y158602D01*
X68794D01*
Y158281D01*
Y157961D01*
X69434D01*
Y158281D01*
Y158602D01*
Y158922D01*
Y159242D01*
Y159563D01*
Y159883D01*
Y160203D01*
X69114D01*
Y160523D01*
Y160844D01*
Y161164D01*
Y161484D01*
Y161805D01*
X68794D01*
Y162125D01*
Y162445D01*
X68474D01*
Y162766D01*
Y163086D01*
X68153D01*
Y163406D01*
Y163727D01*
Y164047D01*
X68474D01*
Y164367D01*
X68794D01*
Y164688D01*
X69114D01*
Y165008D01*
X69434D01*
Y165328D01*
X70075D01*
Y165649D01*
X70395D01*
Y165969D01*
X71036D01*
Y166289D01*
X71677D01*
Y166610D01*
X72317D01*
Y166930D01*
X72958D01*
Y167250D01*
X73919D01*
Y167570D01*
X74880D01*
Y167891D01*
X76802D01*
Y168211D01*
X81607D01*
Y167891D01*
D02*
G37*
G36*
X250414Y177180D02*
X251695D01*
Y176860D01*
X252656D01*
Y176539D01*
X252976D01*
Y176219D01*
X253617D01*
Y175899D01*
X254258D01*
Y175578D01*
X254578D01*
Y175258D01*
X254898D01*
Y174938D01*
X255219D01*
Y174618D01*
X255539D01*
Y174297D01*
X255859D01*
Y173977D01*
X256180D01*
Y173656D01*
Y173336D01*
X256500D01*
Y173016D01*
X256820D01*
Y172696D01*
Y172375D01*
X257141D01*
Y172055D01*
X257461D01*
Y171735D01*
Y171414D01*
X257781D01*
Y171094D01*
Y170774D01*
X258102D01*
Y170453D01*
X258422D01*
Y170133D01*
Y169813D01*
X258742D01*
Y169492D01*
Y169172D01*
X259063D01*
Y168852D01*
X259383D01*
Y168531D01*
Y168211D01*
X259703D01*
Y167891D01*
Y167570D01*
X260023D01*
Y167250D01*
X260344D01*
Y166930D01*
Y166610D01*
X260664D01*
Y166289D01*
X260984D01*
Y165969D01*
Y165649D01*
X261305D01*
Y165328D01*
Y165008D01*
X261625D01*
Y164688D01*
X261945D01*
Y164367D01*
Y164047D01*
X262266D01*
Y163727D01*
Y163406D01*
X262586D01*
Y163086D01*
X262906D01*
Y162766D01*
Y162445D01*
X263227D01*
Y162125D01*
X263547D01*
Y161805D01*
Y161484D01*
X263867D01*
Y161164D01*
Y160844D01*
X264188D01*
Y160523D01*
X264508D01*
Y160203D01*
Y159883D01*
X264828D01*
Y159563D01*
Y159242D01*
X265149D01*
Y158922D01*
X265469D01*
Y158602D01*
Y158281D01*
X265789D01*
Y157961D01*
Y157641D01*
X266109D01*
Y157320D01*
X266430D01*
Y157000D01*
Y156680D01*
X266750D01*
Y156359D01*
X267071D01*
Y156039D01*
Y155719D01*
X267391D01*
Y155398D01*
Y155078D01*
X267711D01*
Y154758D01*
X268031D01*
Y154437D01*
Y154117D01*
X268352D01*
Y153797D01*
Y153477D01*
X268672D01*
Y153156D01*
X268992D01*
Y152836D01*
Y152516D01*
X269313D01*
Y152195D01*
X269633D01*
Y151875D01*
Y151555D01*
X269953D01*
Y151234D01*
Y150914D01*
X270274D01*
Y150594D01*
X270594D01*
Y150273D01*
Y149953D01*
X270914D01*
Y149633D01*
Y149312D01*
X271235D01*
Y148992D01*
X271555D01*
Y148672D01*
Y148351D01*
X271875D01*
Y148031D01*
Y147711D01*
X272196D01*
Y147390D01*
X272516D01*
Y147070D01*
Y146750D01*
X272836D01*
Y146430D01*
Y146109D01*
X273156D01*
Y145789D01*
X273477D01*
Y145469D01*
Y145148D01*
X273797D01*
Y144828D01*
X274117D01*
Y144508D01*
Y144187D01*
X274438D01*
Y143867D01*
Y143547D01*
X274758D01*
Y143226D01*
X275078D01*
Y142906D01*
Y142586D01*
X275399D01*
Y142265D01*
X275719D01*
Y141945D01*
Y141625D01*
X276039D01*
Y141304D01*
Y140984D01*
X276360D01*
Y140664D01*
X276680D01*
Y140343D01*
Y140023D01*
X277000D01*
Y139703D01*
Y139383D01*
X277321D01*
Y139062D01*
Y138742D01*
X270594D01*
Y139062D01*
X269633D01*
Y139383D01*
X268672D01*
Y139703D01*
X268031D01*
Y140023D01*
X267711D01*
Y140343D01*
X267071D01*
Y140664D01*
X266750D01*
Y140984D01*
X266430D01*
Y141304D01*
X266109D01*
Y141625D01*
X265789D01*
Y141945D01*
X265469D01*
Y142265D01*
Y142586D01*
X265149D01*
Y142906D01*
X264828D01*
Y143226D01*
Y143547D01*
X264508D01*
Y143867D01*
X264188D01*
Y144187D01*
Y144508D01*
X263867D01*
Y144828D01*
X263547D01*
Y145148D01*
Y145469D01*
X263227D01*
Y145789D01*
Y146109D01*
X262906D01*
Y146430D01*
X262586D01*
Y146750D01*
Y147070D01*
X262266D01*
Y147390D01*
X261945D01*
Y147711D01*
Y148031D01*
X261625D01*
Y148351D01*
Y148672D01*
X261305D01*
Y148992D01*
X260984D01*
Y149312D01*
Y149633D01*
X260664D01*
Y149953D01*
Y150273D01*
X260344D01*
Y150594D01*
X260023D01*
Y150914D01*
Y151234D01*
X259703D01*
Y151555D01*
X259383D01*
Y151875D01*
Y152195D01*
X259063D01*
Y152516D01*
Y152836D01*
X258742D01*
Y153156D01*
X258422D01*
Y153477D01*
Y153797D01*
X258102D01*
Y154117D01*
X257781D01*
Y154437D01*
Y154758D01*
X257461D01*
Y155078D01*
Y155398D01*
X257141D01*
Y155719D01*
X256820D01*
Y156039D01*
Y156359D01*
X256500D01*
Y156680D01*
Y157000D01*
X256180D01*
Y157320D01*
X255859D01*
Y157641D01*
Y157961D01*
X255539D01*
Y158281D01*
Y158602D01*
X255219D01*
Y158922D01*
X254898D01*
Y159242D01*
Y159563D01*
X254578D01*
Y159883D01*
X254258D01*
Y160203D01*
Y160523D01*
X253938D01*
Y160844D01*
Y161164D01*
X253617D01*
Y161484D01*
X253297D01*
Y161805D01*
Y162125D01*
X252976D01*
Y162445D01*
Y162766D01*
X252656D01*
Y163086D01*
X252336D01*
Y163406D01*
Y163727D01*
X252015D01*
Y164047D01*
Y164367D01*
X251695D01*
Y164688D01*
X251375D01*
Y165008D01*
Y165328D01*
X251055D01*
Y165649D01*
Y165969D01*
X250734D01*
Y166289D01*
X250414D01*
Y166610D01*
Y166930D01*
X250094D01*
Y167250D01*
X249773D01*
Y167570D01*
Y167891D01*
X249453D01*
Y168211D01*
Y168531D01*
X249133D01*
Y168852D01*
X248812D01*
Y169172D01*
Y169492D01*
X248492D01*
Y169813D01*
Y170133D01*
X248172D01*
Y170453D01*
X247851D01*
Y170774D01*
Y171094D01*
X247531D01*
Y171414D01*
X247211D01*
Y171735D01*
Y172055D01*
X246890D01*
Y172375D01*
Y172696D01*
X246570D01*
Y173016D01*
X246250D01*
Y173336D01*
Y173656D01*
X245930D01*
Y173977D01*
Y174297D01*
X245609D01*
Y174618D01*
X245289D01*
Y174938D01*
Y175258D01*
X244969D01*
Y175578D01*
Y175899D01*
X244648D01*
Y176219D01*
X244328D01*
Y176539D01*
Y176860D01*
X244008D01*
Y177180D01*
Y177500D01*
X250414D01*
Y177180D01*
D02*
G37*
G36*
X225429D02*
X226390D01*
Y176860D01*
X227351D01*
Y176539D01*
X227992D01*
Y176219D01*
X228632D01*
Y175899D01*
X228953D01*
Y175578D01*
X229593D01*
Y175258D01*
X229914D01*
Y174938D01*
X230234D01*
Y174618D01*
X230554D01*
Y174297D01*
Y173977D01*
X230875D01*
Y173656D01*
X231195D01*
Y173336D01*
Y173016D01*
X231515D01*
Y172696D01*
X231836D01*
Y172375D01*
Y172055D01*
X232156D01*
Y171735D01*
Y171414D01*
X232476D01*
Y171094D01*
X232797D01*
Y170774D01*
Y170453D01*
X233117D01*
Y170133D01*
X233437D01*
Y169813D01*
Y169492D01*
X233757D01*
Y169172D01*
Y168852D01*
X234078D01*
Y168531D01*
X234398D01*
Y168211D01*
Y167891D01*
X234718D01*
Y167570D01*
Y167250D01*
X235039D01*
Y166930D01*
X235359D01*
Y166610D01*
Y166289D01*
X235679D01*
Y165969D01*
X236000D01*
Y165649D01*
Y165328D01*
X236320D01*
Y165008D01*
Y164688D01*
X236640D01*
Y164367D01*
X236961D01*
Y164047D01*
Y163727D01*
X237281D01*
Y163406D01*
X237601D01*
Y163086D01*
Y162766D01*
X237922D01*
Y162445D01*
Y162125D01*
X238242D01*
Y161805D01*
X238562D01*
Y161484D01*
Y161164D01*
X238882D01*
Y160844D01*
X239203D01*
Y160523D01*
Y160203D01*
X239523D01*
Y159883D01*
Y159563D01*
X239844D01*
Y159242D01*
X240164D01*
Y158922D01*
Y158602D01*
X240484D01*
Y158281D01*
X240804D01*
Y157961D01*
Y157641D01*
X241125D01*
Y157320D01*
Y157000D01*
X241445D01*
Y156680D01*
X241765D01*
Y156359D01*
Y156039D01*
X242086D01*
Y155719D01*
Y155398D01*
X242406D01*
Y155078D01*
X242726D01*
Y154758D01*
Y154437D01*
X243047D01*
Y154117D01*
X243367D01*
Y153797D01*
Y153477D01*
X243687D01*
Y153156D01*
Y152836D01*
X244008D01*
Y152516D01*
X244328D01*
Y152195D01*
Y151875D01*
X244648D01*
Y151555D01*
Y151234D01*
X244969D01*
Y150914D01*
X245289D01*
Y150594D01*
Y150273D01*
X245609D01*
Y149953D01*
Y149633D01*
X245930D01*
Y149312D01*
X246250D01*
Y148992D01*
Y148672D01*
X246570D01*
Y148351D01*
X246890D01*
Y148031D01*
Y147711D01*
X247211D01*
Y147390D01*
Y147070D01*
X247531D01*
Y146750D01*
X247851D01*
Y146430D01*
Y146109D01*
X248172D01*
Y145789D01*
Y145469D01*
X248492D01*
Y145148D01*
X248812D01*
Y144828D01*
Y144508D01*
X249133D01*
Y144187D01*
Y143867D01*
X249453D01*
Y143547D01*
X249773D01*
Y143226D01*
Y142906D01*
X250094D01*
Y142586D01*
Y142265D01*
X250414D01*
Y141945D01*
X250734D01*
Y141625D01*
Y141304D01*
X251055D01*
Y140984D01*
X251375D01*
Y140664D01*
Y140343D01*
X251695D01*
Y140023D01*
Y139703D01*
X252015D01*
Y139383D01*
X252336D01*
Y139062D01*
Y138742D01*
X245609D01*
Y139062D01*
X244328D01*
Y139383D01*
X243687D01*
Y139703D01*
X243047D01*
Y140023D01*
X242406D01*
Y140343D01*
X242086D01*
Y140664D01*
X241765D01*
Y140984D01*
X241445D01*
Y141304D01*
X240804D01*
Y141625D01*
Y141945D01*
X240484D01*
Y142265D01*
X240164D01*
Y142586D01*
X239844D01*
Y142906D01*
Y143226D01*
X239523D01*
Y143547D01*
X239203D01*
Y143867D01*
Y144187D01*
X238882D01*
Y144508D01*
X238562D01*
Y144828D01*
Y145148D01*
X238242D01*
Y145469D01*
Y145789D01*
X237922D01*
Y146109D01*
X237601D01*
Y146430D01*
Y146750D01*
X237281D01*
Y147070D01*
X236961D01*
Y147390D01*
Y147711D01*
X236640D01*
Y148031D01*
Y148351D01*
X236320D01*
Y148672D01*
X236000D01*
Y148992D01*
Y149312D01*
X235679D01*
Y149633D01*
Y149953D01*
X235359D01*
Y150273D01*
X235039D01*
Y150594D01*
Y150914D01*
X234718D01*
Y151234D01*
X234398D01*
Y151555D01*
Y151875D01*
X234078D01*
Y152195D01*
Y152516D01*
X233757D01*
Y152836D01*
X233437D01*
Y153156D01*
Y153477D01*
X233117D01*
Y153797D01*
Y154117D01*
X232797D01*
Y154437D01*
X232476D01*
Y154758D01*
Y155078D01*
X232156D01*
Y155398D01*
X231836D01*
Y155719D01*
Y156039D01*
X231515D01*
Y156359D01*
Y156680D01*
X231195D01*
Y157000D01*
X230875D01*
Y157320D01*
Y157641D01*
X230554D01*
Y157961D01*
Y158281D01*
X230234D01*
Y158602D01*
X229914D01*
Y158922D01*
Y159242D01*
X229593D01*
Y159563D01*
Y159883D01*
X229273D01*
Y160203D01*
X228953D01*
Y160523D01*
Y160844D01*
X228632D01*
Y161164D01*
Y161484D01*
X228312D01*
Y161805D01*
X227992D01*
Y162125D01*
Y162445D01*
X227671D01*
Y162766D01*
X227351D01*
Y163086D01*
Y163406D01*
X227031D01*
Y163727D01*
Y164047D01*
X226710D01*
Y164367D01*
X226390D01*
Y164688D01*
Y165008D01*
X226070D01*
Y165328D01*
Y165649D01*
X225749D01*
Y165969D01*
X225429D01*
Y166289D01*
Y166610D01*
X225109D01*
Y166930D01*
X224788D01*
Y167250D01*
Y167570D01*
X224468D01*
Y167891D01*
Y168211D01*
X224148D01*
Y168531D01*
X223828D01*
Y168852D01*
Y169172D01*
X223507D01*
Y169492D01*
Y169813D01*
X223187D01*
Y170133D01*
X222867D01*
Y170453D01*
Y170774D01*
X222546D01*
Y171094D01*
Y171414D01*
X222226D01*
Y171735D01*
X221906D01*
Y172055D01*
Y172375D01*
X221585D01*
Y172696D01*
X221265D01*
Y173016D01*
Y173336D01*
X220945D01*
Y173656D01*
Y173977D01*
X220624D01*
Y174297D01*
X220304D01*
Y174618D01*
Y174938D01*
X219984D01*
Y175258D01*
Y175578D01*
X219664D01*
Y175899D01*
X219343D01*
Y176219D01*
Y176539D01*
X219023D01*
Y176860D01*
Y177180D01*
X218703D01*
Y177500D01*
X225429D01*
Y177180D01*
D02*
G37*
G36*
X208452Y167250D02*
X209093D01*
Y166930D01*
X209734D01*
Y166610D01*
X210054D01*
Y166289D01*
X210374D01*
Y165969D01*
X210695D01*
Y165649D01*
Y165328D01*
X211015D01*
Y165008D01*
Y164688D01*
X211335D01*
Y164367D01*
X211655D01*
Y164047D01*
Y163727D01*
X211976D01*
Y163406D01*
Y163086D01*
X212296D01*
Y162766D01*
X212616D01*
Y162445D01*
Y162125D01*
X212937D01*
Y161805D01*
X213257D01*
Y161484D01*
Y161164D01*
X213577D01*
Y160844D01*
Y160523D01*
X213898D01*
Y160203D01*
X214218D01*
Y159883D01*
Y159563D01*
X214538D01*
Y159242D01*
Y158922D01*
X214859D01*
Y158602D01*
X215179D01*
Y158281D01*
Y157961D01*
X215499D01*
Y157641D01*
X215820D01*
Y157320D01*
Y157000D01*
X216140D01*
Y156680D01*
Y156359D01*
X216460D01*
Y156039D01*
X216781D01*
Y155719D01*
Y155398D01*
X217101D01*
Y155078D01*
Y154758D01*
X217421D01*
Y154437D01*
X217742D01*
Y154117D01*
Y153797D01*
X218062D01*
Y153477D01*
Y153156D01*
X218382D01*
Y152836D01*
X218703D01*
Y152516D01*
Y152195D01*
X219023D01*
Y151875D01*
X219343D01*
Y151555D01*
Y151234D01*
X219664D01*
Y150914D01*
Y150594D01*
X219984D01*
Y150273D01*
X220304D01*
Y149953D01*
Y149633D01*
X220624D01*
Y149312D01*
X220945D01*
Y148992D01*
Y148672D01*
X221265D01*
Y148351D01*
Y148031D01*
X221585D01*
Y147711D01*
X221906D01*
Y147390D01*
Y147070D01*
X222226D01*
Y146750D01*
Y146430D01*
X222546D01*
Y146109D01*
X222867D01*
Y145789D01*
Y145469D01*
X223187D01*
Y145148D01*
X223507D01*
Y144828D01*
Y144508D01*
X223828D01*
Y144187D01*
Y143867D01*
X224148D01*
Y143547D01*
X224468D01*
Y143226D01*
Y142906D01*
X224788D01*
Y142586D01*
X225109D01*
Y142265D01*
Y141945D01*
X225429D01*
Y141625D01*
Y141304D01*
X225749D01*
Y140984D01*
X226070D01*
Y140664D01*
Y140343D01*
X226390D01*
Y140023D01*
Y139703D01*
X226710D01*
Y139383D01*
X227031D01*
Y139062D01*
Y138742D01*
X222546D01*
Y139062D01*
X221906D01*
Y139383D01*
X221265D01*
Y139703D01*
X220945D01*
Y140023D01*
Y140343D01*
X220624D01*
Y140664D01*
X220304D01*
Y140984D01*
Y141304D01*
X219984D01*
Y141625D01*
X219664D01*
Y141945D01*
Y142265D01*
X219343D01*
Y142586D01*
Y142906D01*
X219023D01*
Y143226D01*
X218703D01*
Y143547D01*
Y143867D01*
X218382D01*
Y144187D01*
X203968D01*
Y143867D01*
Y143547D01*
Y143226D01*
Y142906D01*
Y142586D01*
Y142265D01*
Y141945D01*
X203648D01*
Y141625D01*
Y141304D01*
Y140984D01*
Y140664D01*
Y140343D01*
Y140023D01*
X203327D01*
Y139703D01*
Y139383D01*
Y139062D01*
Y138742D01*
X201726D01*
Y139062D01*
X201085D01*
Y139383D01*
X200765D01*
Y139703D01*
X200444D01*
Y140023D01*
X200124D01*
Y140343D01*
X199804D01*
Y140664D01*
X199483D01*
Y140984D01*
Y141304D01*
X199163D01*
Y141625D01*
Y141945D01*
Y142265D01*
Y142586D01*
Y142906D01*
Y143226D01*
Y143547D01*
Y143867D01*
Y144187D01*
Y144508D01*
Y144828D01*
Y145148D01*
X199483D01*
Y145469D01*
Y145789D01*
Y146109D01*
Y146430D01*
Y146750D01*
Y147070D01*
X199804D01*
Y147390D01*
Y147711D01*
Y148031D01*
Y148351D01*
Y148672D01*
Y148992D01*
X200124D01*
Y149312D01*
Y149633D01*
Y149953D01*
Y150273D01*
Y150594D01*
Y150914D01*
X200444D01*
Y151234D01*
Y151555D01*
Y151875D01*
Y152195D01*
Y152516D01*
Y152836D01*
X200765D01*
Y153156D01*
Y153477D01*
Y153797D01*
Y154117D01*
Y154437D01*
X201085D01*
Y154758D01*
Y155078D01*
Y155398D01*
Y155719D01*
Y156039D01*
Y156359D01*
Y156680D01*
X201405D01*
Y157000D01*
Y157320D01*
Y157641D01*
Y157961D01*
Y158281D01*
X201726D01*
Y158602D01*
Y158922D01*
Y159242D01*
Y159563D01*
Y159883D01*
Y160203D01*
X202046D01*
Y160523D01*
Y160844D01*
Y161164D01*
Y161484D01*
Y161805D01*
X202366D01*
Y162125D01*
Y162445D01*
Y162766D01*
Y163086D01*
Y163406D01*
Y163727D01*
X202687D01*
Y164047D01*
Y164367D01*
Y164688D01*
Y165008D01*
Y165328D01*
X203007D01*
Y165649D01*
Y165969D01*
Y166289D01*
Y166610D01*
Y166930D01*
X203327D01*
Y167250D01*
X203007D01*
Y167570D01*
X208452D01*
Y167250D01*
D02*
G37*
G36*
X190515D02*
X191155D01*
Y166930D01*
X191475D01*
Y166610D01*
X192116D01*
Y166289D01*
X192437D01*
Y165969D01*
X192757D01*
Y165649D01*
Y165328D01*
X193077D01*
Y165008D01*
X193397D01*
Y164688D01*
Y164367D01*
X193718D01*
Y164047D01*
Y163727D01*
Y163406D01*
X185069D01*
Y163086D01*
Y162766D01*
Y162445D01*
X185389D01*
Y162125D01*
Y161805D01*
Y161484D01*
Y161164D01*
Y160844D01*
X185710D01*
Y160523D01*
Y160203D01*
Y159883D01*
Y159563D01*
X186030D01*
Y159242D01*
Y158922D01*
Y158602D01*
Y158281D01*
Y157961D01*
X186350D01*
Y157641D01*
Y157320D01*
Y157000D01*
Y156680D01*
X186671D01*
Y156359D01*
Y156039D01*
Y155719D01*
Y155398D01*
Y155078D01*
X186991D01*
Y154758D01*
Y154437D01*
Y154117D01*
Y153797D01*
Y153477D01*
X187311D01*
Y153156D01*
Y152836D01*
Y152516D01*
Y152195D01*
X187632D01*
Y151875D01*
Y151555D01*
Y151234D01*
Y150914D01*
Y150594D01*
X187952D01*
Y150273D01*
Y149953D01*
Y149633D01*
Y149312D01*
X188272D01*
Y148992D01*
Y148672D01*
Y148351D01*
Y148031D01*
Y147711D01*
X188593D01*
Y147390D01*
Y147070D01*
Y146750D01*
Y146430D01*
X188913D01*
Y146109D01*
Y145789D01*
Y145469D01*
Y145148D01*
Y144828D01*
X189233D01*
Y144508D01*
Y144187D01*
Y143867D01*
Y143547D01*
X189554D01*
Y143226D01*
Y142906D01*
Y142586D01*
Y142265D01*
Y141945D01*
X189874D01*
Y141625D01*
Y141304D01*
Y140984D01*
Y140664D01*
Y140343D01*
X190194D01*
Y140023D01*
Y139703D01*
Y139383D01*
Y139062D01*
X190515D01*
Y138742D01*
X188272D01*
Y139062D01*
X187632D01*
Y139383D01*
X186991D01*
Y139703D01*
X186671D01*
Y140023D01*
X186030D01*
Y140343D01*
X185710D01*
Y140664D01*
Y140984D01*
X185389D01*
Y141304D01*
X185069D01*
Y141625D01*
Y141945D01*
X184749D01*
Y142265D01*
Y142586D01*
Y142906D01*
Y143226D01*
X184429D01*
Y143547D01*
Y143867D01*
Y144187D01*
Y144508D01*
X184108D01*
Y144828D01*
Y145148D01*
Y145469D01*
Y145789D01*
X183788D01*
Y146109D01*
Y146430D01*
Y146750D01*
Y147070D01*
Y147390D01*
X183468D01*
Y147711D01*
Y148031D01*
Y148351D01*
Y148672D01*
X183147D01*
Y148992D01*
Y149312D01*
Y149633D01*
Y149953D01*
Y150273D01*
X182827D01*
Y150594D01*
Y150914D01*
Y151234D01*
Y151555D01*
X182507D01*
Y151875D01*
Y152195D01*
Y152516D01*
Y152836D01*
Y153156D01*
X182186D01*
Y153477D01*
Y153797D01*
Y154117D01*
Y154437D01*
X181866D01*
Y154758D01*
Y155078D01*
Y155398D01*
Y155719D01*
Y156039D01*
X181546D01*
Y156359D01*
Y156680D01*
Y157000D01*
Y157320D01*
X181225D01*
Y157641D01*
Y157961D01*
Y158281D01*
Y158602D01*
Y158922D01*
X180905D01*
Y159242D01*
Y159563D01*
Y159883D01*
Y160203D01*
X180585D01*
Y160523D01*
Y160844D01*
Y161164D01*
Y161484D01*
Y161805D01*
X180264D01*
Y162125D01*
Y162445D01*
Y162766D01*
Y163086D01*
Y163406D01*
X174499D01*
Y163727D01*
X173538D01*
Y164047D01*
X172897D01*
Y164367D01*
X172577D01*
Y164688D01*
X171936D01*
Y165008D01*
X171616D01*
Y165328D01*
X171295D01*
Y165649D01*
Y165969D01*
X170975D01*
Y166289D01*
X170655D01*
Y166610D01*
Y166930D01*
X170334D01*
Y167250D01*
Y167570D01*
X190515D01*
Y167250D01*
D02*
G37*
G36*
X162967D02*
X163608D01*
Y166930D01*
X164249D01*
Y166610D01*
X164569D01*
Y166289D01*
X164889D01*
Y165969D01*
X165209D01*
Y165649D01*
X165530D01*
Y165328D01*
X165850D01*
Y165008D01*
Y164688D01*
X166170D01*
Y164367D01*
Y164047D01*
Y163727D01*
X166491D01*
Y163406D01*
Y163086D01*
Y162766D01*
Y162445D01*
X166811D01*
Y162125D01*
Y161805D01*
Y161484D01*
Y161164D01*
X167131D01*
Y160844D01*
Y160523D01*
Y160203D01*
Y159883D01*
X167452D01*
Y159563D01*
Y159242D01*
Y158922D01*
Y158602D01*
X167772D01*
Y158281D01*
Y157961D01*
Y157641D01*
Y157320D01*
Y157000D01*
X168092D01*
Y156680D01*
Y156359D01*
Y156039D01*
Y155719D01*
Y155398D01*
X168413D01*
Y155078D01*
Y154758D01*
Y154437D01*
Y154117D01*
X168733D01*
Y153797D01*
Y153477D01*
Y153156D01*
Y152836D01*
Y152516D01*
X169053D01*
Y152195D01*
Y151875D01*
Y151555D01*
Y151234D01*
Y150914D01*
X169374D01*
Y150594D01*
Y150273D01*
Y149953D01*
Y149633D01*
X169694D01*
Y149312D01*
Y148992D01*
Y148672D01*
Y148351D01*
Y148031D01*
X170014D01*
Y147711D01*
Y147390D01*
Y147070D01*
Y146750D01*
Y146430D01*
X170334D01*
Y146109D01*
Y145789D01*
Y145469D01*
Y145148D01*
X170655D01*
Y144828D01*
Y144508D01*
Y144187D01*
Y143867D01*
X170975D01*
Y143547D01*
Y143226D01*
Y142906D01*
Y142586D01*
Y142265D01*
X171295D01*
Y141945D01*
Y141625D01*
Y141304D01*
Y140984D01*
X171616D01*
Y140664D01*
Y140343D01*
Y140023D01*
Y139703D01*
Y139383D01*
X171936D01*
Y139062D01*
Y138742D01*
X154639D01*
Y139062D01*
X153998D01*
Y139383D01*
X153678D01*
Y139703D01*
X153037D01*
Y140023D01*
X152717D01*
Y140343D01*
X152397D01*
Y140664D01*
Y140984D01*
X152076D01*
Y141304D01*
X151756D01*
Y141625D01*
Y141945D01*
X151436D01*
Y142265D01*
Y142586D01*
X151116D01*
Y142906D01*
X166170D01*
Y143226D01*
Y143547D01*
Y143867D01*
X165850D01*
Y144187D01*
Y144508D01*
Y144828D01*
Y145148D01*
X165530D01*
Y145469D01*
Y145789D01*
Y146109D01*
Y146430D01*
X165209D01*
Y146750D01*
Y147070D01*
Y147390D01*
Y147711D01*
X164889D01*
Y148031D01*
Y148351D01*
Y148672D01*
Y148992D01*
Y149312D01*
X164569D01*
Y149633D01*
Y149953D01*
Y150273D01*
Y150594D01*
Y150914D01*
X164249D01*
Y151234D01*
X153678D01*
Y151555D01*
X151756D01*
Y151875D01*
X151116D01*
Y152195D01*
X150795D01*
Y152516D01*
X150475D01*
Y152836D01*
X150154D01*
Y153156D01*
X149834D01*
Y153477D01*
X149514D01*
Y153797D01*
Y154117D01*
X149194D01*
Y154437D01*
X148873D01*
Y154758D01*
Y155078D01*
X148553D01*
Y155398D01*
X161045D01*
Y155719D01*
X163288D01*
Y156039D01*
Y156359D01*
Y156680D01*
X162967D01*
Y157000D01*
Y157320D01*
Y157641D01*
Y157961D01*
X162647D01*
Y158281D01*
Y158602D01*
Y158922D01*
Y159242D01*
X162327D01*
Y159563D01*
Y159883D01*
Y160203D01*
Y160523D01*
Y160844D01*
X162006D01*
Y161164D01*
Y161484D01*
Y161805D01*
Y162125D01*
Y162445D01*
X161686D01*
Y162766D01*
Y163086D01*
Y163406D01*
X150795D01*
Y163727D01*
X148873D01*
Y164047D01*
X148233D01*
Y164367D01*
X147912D01*
Y164688D01*
X147592D01*
Y165008D01*
X146951D01*
Y165328D01*
Y165649D01*
X146631D01*
Y165969D01*
X146311D01*
Y166289D01*
Y166610D01*
X145990D01*
Y166930D01*
Y167250D01*
X145670D01*
Y167570D01*
X162967D01*
Y167250D01*
D02*
G37*
G36*
X138623D02*
X139264D01*
Y166930D01*
X139584D01*
Y166610D01*
X139904D01*
Y166289D01*
X140225D01*
Y165969D01*
Y165649D01*
X140545D01*
Y165328D01*
Y165008D01*
Y164688D01*
Y164367D01*
X140865D01*
Y164047D01*
Y163727D01*
Y163406D01*
Y163086D01*
X141186D01*
Y162766D01*
Y162445D01*
Y162125D01*
Y161805D01*
X141506D01*
Y161484D01*
Y161164D01*
Y160844D01*
Y160523D01*
Y160203D01*
X141826D01*
Y159883D01*
Y159563D01*
Y159242D01*
Y158922D01*
X142147D01*
Y158602D01*
Y158281D01*
Y157961D01*
Y157641D01*
X142467D01*
Y157320D01*
Y157000D01*
Y156680D01*
Y156359D01*
Y156039D01*
X142787D01*
Y155719D01*
Y155398D01*
Y155078D01*
Y154758D01*
Y154437D01*
X143107D01*
Y154117D01*
Y153797D01*
Y153477D01*
Y153156D01*
X143428D01*
Y152836D01*
Y152516D01*
Y152195D01*
Y151875D01*
X143748D01*
Y151555D01*
Y151234D01*
Y150914D01*
Y150594D01*
Y150273D01*
X144069D01*
Y149953D01*
Y149633D01*
Y149312D01*
Y148992D01*
X144389D01*
Y148672D01*
Y148351D01*
Y148031D01*
Y147711D01*
Y147390D01*
X144709D01*
Y147070D01*
Y146750D01*
Y146430D01*
Y146109D01*
X145029D01*
Y145789D01*
Y145469D01*
Y145148D01*
Y144828D01*
Y144508D01*
X145350D01*
Y144187D01*
Y143867D01*
Y143547D01*
Y143226D01*
Y142906D01*
X145670D01*
Y142586D01*
Y142265D01*
Y141945D01*
Y141625D01*
Y141304D01*
X145990D01*
Y140984D01*
Y140664D01*
Y140343D01*
Y140023D01*
X146311D01*
Y139703D01*
Y139383D01*
Y139062D01*
Y138742D01*
X143107D01*
Y139062D01*
X142787D01*
Y139383D01*
X142147D01*
Y139703D01*
X141826D01*
Y140023D01*
X141506D01*
Y140343D01*
Y140664D01*
X141186D01*
Y140984D01*
Y141304D01*
Y141625D01*
X140865D01*
Y141945D01*
Y142265D01*
Y142586D01*
Y142906D01*
X140545D01*
Y143226D01*
Y143547D01*
Y143867D01*
Y144187D01*
Y144508D01*
X140225D01*
Y144828D01*
Y145148D01*
Y145469D01*
Y145789D01*
X139904D01*
Y146109D01*
Y146430D01*
Y146750D01*
Y147070D01*
Y147390D01*
X139584D01*
Y147711D01*
Y148031D01*
Y148351D01*
Y148672D01*
Y148992D01*
X139264D01*
Y149312D01*
Y149633D01*
X133498D01*
Y149312D01*
Y148992D01*
X133178D01*
Y148672D01*
Y148351D01*
Y148031D01*
X132857D01*
Y147711D01*
Y147390D01*
Y147070D01*
X132537D01*
Y146750D01*
Y146430D01*
X132217D01*
Y146109D01*
Y145789D01*
Y145469D01*
X131896D01*
Y145148D01*
Y144828D01*
Y144508D01*
X131576D01*
Y144187D01*
Y143867D01*
Y143547D01*
X131256D01*
Y143226D01*
Y142906D01*
X130936D01*
Y142586D01*
Y142265D01*
Y141945D01*
X130615D01*
Y141625D01*
Y141304D01*
X130295D01*
Y140984D01*
Y140664D01*
Y140343D01*
X129974D01*
Y140023D01*
Y139703D01*
Y139383D01*
X129654D01*
Y139062D01*
Y138742D01*
X128373D01*
Y139062D01*
X127732D01*
Y139383D01*
X127092D01*
Y139703D01*
X126771D01*
Y140023D01*
X126451D01*
Y140343D01*
Y140664D01*
X126131D01*
Y140984D01*
Y141304D01*
Y141625D01*
X125810D01*
Y141945D01*
Y142265D01*
Y142586D01*
Y142906D01*
X126131D01*
Y143226D01*
Y143547D01*
Y143867D01*
X126451D01*
Y144187D01*
Y144508D01*
Y144828D01*
X126771D01*
Y145148D01*
Y145469D01*
Y145789D01*
X127092D01*
Y146109D01*
Y146430D01*
X127412D01*
Y146750D01*
Y147070D01*
Y147390D01*
X127732D01*
Y147711D01*
Y148031D01*
X128053D01*
Y148351D01*
Y148672D01*
X128373D01*
Y148992D01*
Y149312D01*
X128693D01*
Y149633D01*
Y149953D01*
X127412D01*
Y150273D01*
X126451D01*
Y150594D01*
X125490D01*
Y150914D01*
X124849D01*
Y151234D01*
X124209D01*
Y151555D01*
X123889D01*
Y151875D01*
X123568D01*
Y152195D01*
X122927D01*
Y152516D01*
X122607D01*
Y152836D01*
X122287D01*
Y153156D01*
X121967D01*
Y153477D01*
Y153797D01*
X121646D01*
Y154117D01*
X121326D01*
Y154437D01*
Y154758D01*
X121006D01*
Y155078D01*
X120685D01*
Y155398D01*
Y155719D01*
X120365D01*
Y156039D01*
Y156359D01*
Y156680D01*
X120045D01*
Y157000D01*
Y157320D01*
Y157641D01*
Y157961D01*
Y158281D01*
X119724D01*
Y158602D01*
Y158922D01*
Y159242D01*
Y159563D01*
Y159883D01*
Y160203D01*
Y160523D01*
Y160844D01*
Y161164D01*
X120045D01*
Y161484D01*
Y161805D01*
Y162125D01*
Y162445D01*
X120365D01*
Y162766D01*
Y163086D01*
Y163406D01*
X120685D01*
Y163727D01*
Y164047D01*
X121006D01*
Y164367D01*
X121326D01*
Y164688D01*
X121646D01*
Y165008D01*
X121967D01*
Y165328D01*
X122287D01*
Y165649D01*
X122607D01*
Y165969D01*
X122927D01*
Y166289D01*
X123568D01*
Y166610D01*
X124209D01*
Y166930D01*
X124849D01*
Y167250D01*
X125490D01*
Y167570D01*
X138623D01*
Y167250D01*
D02*
G37*
G36*
X108513Y167570D02*
X109794D01*
Y167250D01*
X110435D01*
Y166930D01*
X111076D01*
Y166610D01*
X111396D01*
Y166289D01*
X111716D01*
Y165969D01*
X112037D01*
Y165649D01*
X112357D01*
Y165328D01*
X112677D01*
Y165008D01*
Y164688D01*
X112998D01*
Y164367D01*
Y164047D01*
Y163727D01*
Y163406D01*
X113318D01*
Y163086D01*
Y162766D01*
Y162445D01*
Y162125D01*
Y161805D01*
X113638D01*
Y161484D01*
Y161164D01*
Y160844D01*
Y160523D01*
X113959D01*
Y160203D01*
Y159883D01*
Y159563D01*
Y159242D01*
X114279D01*
Y158922D01*
Y158602D01*
Y158281D01*
Y157961D01*
X114599D01*
Y157641D01*
Y157320D01*
Y157000D01*
Y156680D01*
X114920D01*
Y156359D01*
Y156039D01*
Y155719D01*
Y155398D01*
Y155078D01*
X115240D01*
Y154758D01*
Y154437D01*
Y154117D01*
Y153797D01*
X115560D01*
Y153477D01*
Y153156D01*
Y152836D01*
Y152516D01*
Y152195D01*
X115881D01*
Y151875D01*
Y151555D01*
Y151234D01*
Y150914D01*
Y150594D01*
X116201D01*
Y150273D01*
Y149953D01*
Y149633D01*
Y149312D01*
X116521D01*
Y148992D01*
Y148672D01*
Y148351D01*
Y148031D01*
X116841D01*
Y147711D01*
Y147390D01*
Y147070D01*
Y146750D01*
Y146430D01*
X117162D01*
Y146109D01*
Y145789D01*
Y145469D01*
Y145148D01*
X117482D01*
Y144828D01*
Y144508D01*
Y144187D01*
Y143867D01*
Y143547D01*
X117802D01*
Y143226D01*
Y142906D01*
Y142586D01*
Y142265D01*
X118123D01*
Y141945D01*
Y141625D01*
Y141304D01*
Y140984D01*
Y140664D01*
X118443D01*
Y140343D01*
Y140023D01*
Y139703D01*
Y139383D01*
Y139062D01*
X118763D01*
Y138742D01*
X103708D01*
Y139062D01*
X103068D01*
Y139383D01*
X102427D01*
Y139703D01*
X101786D01*
Y140023D01*
X101466D01*
Y140343D01*
X101146D01*
Y140664D01*
Y140984D01*
X100826D01*
Y141304D01*
X100505D01*
Y141625D01*
Y141945D01*
X100185D01*
Y142265D01*
Y142586D01*
X99865D01*
Y142906D01*
X112998D01*
Y143226D01*
Y143547D01*
X112677D01*
Y143867D01*
Y144187D01*
Y144508D01*
Y144828D01*
X112357D01*
Y145148D01*
Y145469D01*
Y145789D01*
Y146109D01*
X112037D01*
Y146430D01*
Y146750D01*
Y147070D01*
Y147390D01*
Y147711D01*
X111716D01*
Y148031D01*
Y148351D01*
Y148672D01*
Y148992D01*
X111396D01*
Y149312D01*
Y149633D01*
Y149953D01*
Y150273D01*
Y150594D01*
X111076D01*
Y150914D01*
Y151234D01*
Y151555D01*
Y151875D01*
X110755D01*
Y152195D01*
Y152516D01*
Y152836D01*
Y153156D01*
Y153477D01*
X110435D01*
Y153797D01*
Y154117D01*
Y154437D01*
Y154758D01*
Y155078D01*
X110115D01*
Y155398D01*
Y155719D01*
Y156039D01*
Y156359D01*
X109794D01*
Y156680D01*
Y157000D01*
Y157320D01*
Y157641D01*
Y157961D01*
X109474D01*
Y158281D01*
Y158602D01*
Y158922D01*
Y159242D01*
X109154D01*
Y159563D01*
Y159883D01*
Y160203D01*
Y160523D01*
Y160844D01*
X108834D01*
Y161164D01*
Y161484D01*
Y161805D01*
Y162125D01*
Y162445D01*
X108513D01*
Y162766D01*
Y163086D01*
Y163406D01*
Y163727D01*
X108193D01*
Y164047D01*
Y164367D01*
Y164688D01*
Y165008D01*
Y165328D01*
X107873D01*
Y165649D01*
Y165969D01*
Y166289D01*
Y166610D01*
Y166930D01*
X107552D01*
Y167250D01*
Y167570D01*
Y167891D01*
X108513D01*
Y167570D01*
D02*
G37*
G36*
X27473D02*
X28434D01*
Y167250D01*
X29395D01*
Y166930D01*
X30035D01*
Y166610D01*
X30356D01*
Y166289D01*
X30676D01*
Y165969D01*
X30996D01*
Y165649D01*
X31317D01*
Y165328D01*
X31637D01*
Y165008D01*
X31957D01*
Y164688D01*
Y164367D01*
Y164047D01*
X32278D01*
Y163727D01*
Y163406D01*
Y163086D01*
Y162766D01*
Y162445D01*
X32598D01*
Y162125D01*
Y161805D01*
Y161484D01*
Y161164D01*
X32918D01*
Y160844D01*
Y160523D01*
Y160203D01*
Y159883D01*
X33239D01*
Y159563D01*
Y159242D01*
Y158922D01*
Y158602D01*
Y158281D01*
X33559D01*
Y157961D01*
Y157641D01*
Y157320D01*
Y157000D01*
X33879D01*
Y156680D01*
Y156359D01*
Y156039D01*
Y155719D01*
X34200D01*
Y155398D01*
Y155078D01*
Y154758D01*
Y154437D01*
Y154117D01*
X34520D01*
Y153797D01*
Y153477D01*
Y153156D01*
Y152836D01*
X34840D01*
Y152516D01*
Y152195D01*
Y151875D01*
Y151555D01*
Y151234D01*
X35160D01*
Y150914D01*
Y150594D01*
Y150273D01*
Y149953D01*
X35481D01*
Y149633D01*
Y149312D01*
Y148992D01*
Y148672D01*
Y148351D01*
X35801D01*
Y148031D01*
Y147711D01*
Y147390D01*
Y147070D01*
X36121D01*
Y146750D01*
Y146430D01*
Y146109D01*
Y145789D01*
X36442D01*
Y145469D01*
Y145148D01*
Y144828D01*
Y144508D01*
Y144187D01*
X36762D01*
Y143867D01*
Y143547D01*
Y143226D01*
Y142906D01*
X37082D01*
Y142586D01*
Y142265D01*
Y141945D01*
Y141625D01*
X37403D01*
Y141304D01*
Y140984D01*
Y140664D01*
Y140343D01*
X37723D01*
Y140023D01*
Y139703D01*
Y139383D01*
Y139062D01*
X38043D01*
Y138742D01*
X36442D01*
Y139062D01*
X35481D01*
Y139383D01*
X34840D01*
Y139703D01*
X34520D01*
Y140023D01*
X34200D01*
Y140343D01*
X33559D01*
Y140664D01*
X33239D01*
Y140984D01*
Y141304D01*
X32918D01*
Y141625D01*
X32598D01*
Y141945D01*
Y142265D01*
X32278D01*
Y142586D01*
Y142906D01*
X31957D01*
Y143226D01*
Y143547D01*
Y143867D01*
Y144187D01*
X31637D01*
Y144508D01*
Y144828D01*
Y145148D01*
Y145469D01*
X31317D01*
Y145789D01*
Y146109D01*
Y146430D01*
Y146750D01*
Y147070D01*
X30996D01*
Y147390D01*
Y147711D01*
Y148031D01*
Y148351D01*
Y148672D01*
X30676D01*
Y148992D01*
Y149312D01*
Y149633D01*
X20426D01*
Y149953D01*
X18824D01*
Y150273D01*
X17863D01*
Y150594D01*
X17223D01*
Y150914D01*
X16582D01*
Y151234D01*
X15941D01*
Y151555D01*
X15301D01*
Y151875D01*
X14980D01*
Y152195D01*
X14660D01*
Y152516D01*
X14340D01*
Y152836D01*
X14019D01*
Y153156D01*
X13699D01*
Y153477D01*
X13379D01*
Y153797D01*
X13058D01*
Y154117D01*
Y154437D01*
X12738D01*
Y154758D01*
X12418D01*
Y155078D01*
Y155398D01*
X12098D01*
Y155719D01*
Y156039D01*
Y156359D01*
X11777D01*
Y156680D01*
Y157000D01*
X11457D01*
Y157320D01*
Y157641D01*
Y157961D01*
Y158281D01*
Y158602D01*
Y158922D01*
X11137D01*
Y159242D01*
Y159563D01*
Y159883D01*
Y160203D01*
Y160523D01*
Y160844D01*
Y161164D01*
X11457D01*
Y161484D01*
Y161805D01*
Y162125D01*
Y162445D01*
Y162766D01*
X11777D01*
Y163086D01*
Y163406D01*
X12098D01*
Y163727D01*
Y164047D01*
X12418D01*
Y164367D01*
Y164688D01*
X12738D01*
Y165008D01*
X13058D01*
Y165328D01*
X13379D01*
Y165649D01*
X13699D01*
Y165969D01*
X14019D01*
Y166289D01*
X14660D01*
Y166610D01*
X15301D01*
Y166930D01*
X15941D01*
Y167250D01*
X16902D01*
Y167570D01*
X18824D01*
Y167891D01*
X27473D01*
Y167570D01*
D02*
G37*
%LPC*%
G36*
X80325Y164047D02*
X78724D01*
Y163727D01*
X76481D01*
Y163406D01*
X75520D01*
Y163086D01*
X74880D01*
Y162766D01*
X74239D01*
Y162445D01*
X73919D01*
Y162125D01*
X73278D01*
Y161805D01*
X72958D01*
Y161484D01*
X72638D01*
Y161164D01*
X72317D01*
Y160844D01*
X71997D01*
Y160523D01*
Y160203D01*
X71677D01*
Y159883D01*
X71356D01*
Y159563D01*
Y159242D01*
X71036D01*
Y158922D01*
Y158602D01*
X70716D01*
Y158281D01*
Y157961D01*
Y157641D01*
X70395D01*
Y157320D01*
Y157000D01*
Y156680D01*
Y156359D01*
Y156039D01*
Y155719D01*
Y155398D01*
Y155078D01*
Y154758D01*
Y154437D01*
Y154117D01*
Y153797D01*
Y153477D01*
Y153156D01*
Y152836D01*
Y152516D01*
Y152195D01*
X70716D01*
Y151875D01*
Y151555D01*
Y151234D01*
Y150914D01*
X71036D01*
Y150594D01*
Y150273D01*
Y149953D01*
X71356D01*
Y149633D01*
Y149312D01*
X71677D01*
Y148992D01*
Y148672D01*
X71997D01*
Y148351D01*
Y148031D01*
X72317D01*
Y147711D01*
Y147390D01*
X72638D01*
Y147070D01*
X72958D01*
Y146750D01*
X73278D01*
Y146430D01*
X73599D01*
Y146109D01*
Y145789D01*
X73919D01*
Y145469D01*
X74239D01*
Y145148D01*
X74880D01*
Y144828D01*
X75200D01*
Y144508D01*
X75520D01*
Y144187D01*
X76161D01*
Y143867D01*
X76481D01*
Y143547D01*
X77122D01*
Y143226D01*
X78083D01*
Y142906D01*
X79044D01*
Y142586D01*
X84169D01*
Y142906D01*
X85130D01*
Y143226D01*
X86091D01*
Y143547D01*
X86411D01*
Y143867D01*
X87052D01*
Y144187D01*
X87372D01*
Y144508D01*
X87693D01*
Y144828D01*
X88333D01*
Y145148D01*
Y145469D01*
X88653D01*
Y145789D01*
X88974D01*
Y146109D01*
X89294D01*
Y146430D01*
Y146750D01*
X89614D01*
Y147070D01*
X89935D01*
Y147390D01*
Y147711D01*
Y148031D01*
X90255D01*
Y148351D01*
Y148672D01*
Y148992D01*
X90575D01*
Y149312D01*
Y149633D01*
Y149953D01*
Y150273D01*
Y150594D01*
Y150914D01*
Y151234D01*
Y151555D01*
Y151875D01*
Y152195D01*
Y152516D01*
Y152836D01*
Y153156D01*
Y153477D01*
Y153797D01*
Y154117D01*
X90255D01*
Y154437D01*
Y154758D01*
Y155078D01*
Y155398D01*
X89935D01*
Y155719D01*
Y156039D01*
Y156359D01*
X89614D01*
Y156680D01*
Y157000D01*
X89294D01*
Y157320D01*
Y157641D01*
X88974D01*
Y157961D01*
Y158281D01*
X88653D01*
Y158602D01*
Y158922D01*
X88333D01*
Y159242D01*
X88013D01*
Y159563D01*
X87693D01*
Y159883D01*
Y160203D01*
X87372D01*
Y160523D01*
X87052D01*
Y160844D01*
X86732D01*
Y161164D01*
X86411D01*
Y161484D01*
X85771D01*
Y161805D01*
X85450D01*
Y162125D01*
X85130D01*
Y162445D01*
X84489D01*
Y162766D01*
X83849D01*
Y163086D01*
X82888D01*
Y163406D01*
X82247D01*
Y163727D01*
X80325D01*
Y164047D01*
D02*
G37*
G36*
X54700D02*
X53098D01*
Y163727D01*
X50856D01*
Y163406D01*
X49895D01*
Y163086D01*
X49254D01*
Y162766D01*
X48614D01*
Y162445D01*
X48294D01*
Y162125D01*
X47973D01*
Y161805D01*
X47333D01*
Y161484D01*
X47012D01*
Y161164D01*
X46692D01*
Y160844D01*
Y160523D01*
X46372D01*
Y160203D01*
X46051D01*
Y159883D01*
X45731D01*
Y159563D01*
Y159242D01*
X45411D01*
Y158922D01*
Y158602D01*
X45090D01*
Y158281D01*
Y157961D01*
Y157641D01*
X44770D01*
Y157320D01*
Y157000D01*
Y156680D01*
Y156359D01*
Y156039D01*
Y155719D01*
Y155398D01*
Y155078D01*
Y154758D01*
Y154437D01*
Y154117D01*
Y153797D01*
Y153477D01*
Y153156D01*
Y152836D01*
Y152516D01*
Y152195D01*
X45090D01*
Y151875D01*
Y151555D01*
Y151234D01*
X45411D01*
Y150914D01*
Y150594D01*
Y150273D01*
Y149953D01*
X45731D01*
Y149633D01*
Y149312D01*
X46051D01*
Y148992D01*
Y148672D01*
X46372D01*
Y148351D01*
Y148031D01*
X46692D01*
Y147711D01*
X47012D01*
Y147390D01*
Y147070D01*
X47333D01*
Y146750D01*
X47653D01*
Y146430D01*
X47973D01*
Y146109D01*
X48294D01*
Y145789D01*
X48614D01*
Y145469D01*
X48934D01*
Y145148D01*
X49254D01*
Y144828D01*
X49575D01*
Y144508D01*
X50215D01*
Y144187D01*
X50536D01*
Y143867D01*
X51176D01*
Y143547D01*
X51817D01*
Y143226D01*
X52458D01*
Y142906D01*
X53739D01*
Y142586D01*
X58864D01*
Y142906D01*
X59825D01*
Y143226D01*
X60466D01*
Y143547D01*
X61106D01*
Y143867D01*
X61427D01*
Y144187D01*
X62067D01*
Y144508D01*
X62388D01*
Y144828D01*
X62708D01*
Y145148D01*
X63028D01*
Y145469D01*
X63348D01*
Y145789D01*
X63669D01*
Y146109D01*
Y146430D01*
X63989D01*
Y146750D01*
Y147070D01*
X64309D01*
Y147390D01*
Y147711D01*
X64630D01*
Y148031D01*
Y148351D01*
Y148672D01*
X64950D01*
Y148992D01*
Y149312D01*
Y149633D01*
Y149953D01*
Y150273D01*
Y150594D01*
Y150914D01*
Y151234D01*
Y151555D01*
Y151875D01*
Y152195D01*
Y152516D01*
Y152836D01*
Y153156D01*
Y153477D01*
Y153797D01*
Y154117D01*
Y154437D01*
X64630D01*
Y154758D01*
Y155078D01*
Y155398D01*
Y155719D01*
X64309D01*
Y156039D01*
Y156359D01*
Y156680D01*
X63989D01*
Y157000D01*
Y157320D01*
X63669D01*
Y157641D01*
Y157961D01*
X63348D01*
Y158281D01*
Y158602D01*
X63028D01*
Y158922D01*
X62708D01*
Y159242D01*
X62388D01*
Y159563D01*
Y159883D01*
X62067D01*
Y160203D01*
X61747D01*
Y160523D01*
X61427D01*
Y160844D01*
X61106D01*
Y161164D01*
X60786D01*
Y161484D01*
X60466D01*
Y161805D01*
X59825D01*
Y162125D01*
X59505D01*
Y162445D01*
X58864D01*
Y162766D01*
X58223D01*
Y163086D01*
X57583D01*
Y163406D01*
X56301D01*
Y163727D01*
X54700D01*
Y164047D01*
D02*
G37*
G36*
X207491Y163086D02*
X206851D01*
Y162766D01*
Y162445D01*
Y162125D01*
Y161805D01*
X206530D01*
Y161484D01*
Y161164D01*
Y160844D01*
Y160523D01*
Y160203D01*
Y159883D01*
X206210D01*
Y159563D01*
Y159242D01*
Y158922D01*
Y158602D01*
Y158281D01*
Y157961D01*
Y157641D01*
X205890D01*
Y157320D01*
Y157000D01*
Y156680D01*
Y156359D01*
Y156039D01*
Y155719D01*
X205570D01*
Y155398D01*
Y155078D01*
Y154758D01*
Y154437D01*
Y154117D01*
Y153797D01*
X205249D01*
Y153477D01*
Y153156D01*
Y152836D01*
Y152516D01*
Y152195D01*
Y151875D01*
X204929D01*
Y151555D01*
Y151234D01*
Y150914D01*
Y150594D01*
Y150273D01*
Y149953D01*
X204608D01*
Y149633D01*
Y149312D01*
Y148992D01*
Y148672D01*
Y148351D01*
X204929D01*
Y148672D01*
X215179D01*
Y148351D01*
X215820D01*
Y148672D01*
Y148992D01*
X215499D01*
Y149312D01*
Y149633D01*
X215179D01*
Y149953D01*
X214859D01*
Y150273D01*
Y150594D01*
X214538D01*
Y150914D01*
Y151234D01*
X214218D01*
Y151555D01*
Y151875D01*
X213898D01*
Y152195D01*
X213577D01*
Y152516D01*
Y152836D01*
X213257D01*
Y153156D01*
Y153477D01*
X212937D01*
Y153797D01*
X212616D01*
Y154117D01*
Y154437D01*
X212296D01*
Y154758D01*
Y155078D01*
X211976D01*
Y155398D01*
X211655D01*
Y155719D01*
Y156039D01*
X211335D01*
Y156359D01*
Y156680D01*
X211015D01*
Y157000D01*
X210695D01*
Y157320D01*
Y157641D01*
X210374D01*
Y157961D01*
Y158281D01*
X210054D01*
Y158602D01*
X209734D01*
Y158922D01*
Y159242D01*
X209413D01*
Y159563D01*
Y159883D01*
X209093D01*
Y160203D01*
X208773D01*
Y160523D01*
Y160844D01*
X208452D01*
Y161164D01*
Y161484D01*
X208132D01*
Y161805D01*
X207812D01*
Y162125D01*
Y162445D01*
X207491D01*
Y162766D01*
Y163086D01*
D02*
G37*
G36*
X136061Y163406D02*
X127732D01*
Y163086D01*
X127092D01*
Y162766D01*
X126451D01*
Y162445D01*
X126131D01*
Y162125D01*
X125810D01*
Y161805D01*
X125490D01*
Y161484D01*
Y161164D01*
X125170D01*
Y160844D01*
Y160523D01*
X124849D01*
Y160203D01*
Y159883D01*
Y159563D01*
Y159242D01*
Y158922D01*
Y158602D01*
Y158281D01*
Y157961D01*
X125170D01*
Y157641D01*
Y157320D01*
X125490D01*
Y157000D01*
Y156680D01*
X125810D01*
Y156359D01*
Y156039D01*
X126131D01*
Y155719D01*
X126451D01*
Y155398D01*
X126771D01*
Y155078D01*
X127092D01*
Y154758D01*
X127732D01*
Y154437D01*
X128693D01*
Y154117D01*
X130295D01*
Y153797D01*
X135740D01*
Y154117D01*
X138303D01*
Y154437D01*
X137982D01*
Y154758D01*
Y155078D01*
Y155398D01*
Y155719D01*
Y156039D01*
X137662D01*
Y156359D01*
Y156680D01*
Y157000D01*
Y157320D01*
X137342D01*
Y157641D01*
Y157961D01*
Y158281D01*
Y158602D01*
Y158922D01*
X137022D01*
Y159242D01*
Y159563D01*
Y159883D01*
Y160203D01*
X136701D01*
Y160523D01*
Y160844D01*
Y161164D01*
Y161484D01*
X136381D01*
Y161805D01*
Y162125D01*
Y162445D01*
Y162766D01*
Y163086D01*
X136061D01*
Y163406D01*
D02*
G37*
G36*
X27793D02*
X19145D01*
Y163086D01*
X18504D01*
Y162766D01*
X17863D01*
Y162445D01*
X17543D01*
Y162125D01*
X17223D01*
Y161805D01*
X16902D01*
Y161484D01*
Y161164D01*
X16582D01*
Y160844D01*
Y160523D01*
X16262D01*
Y160203D01*
Y159883D01*
Y159563D01*
Y159242D01*
Y158922D01*
Y158602D01*
X16582D01*
Y158281D01*
Y157961D01*
Y157641D01*
Y157320D01*
X16902D01*
Y157000D01*
Y156680D01*
X17223D01*
Y156359D01*
X17543D01*
Y156039D01*
X17863D01*
Y155719D01*
X18184D01*
Y155398D01*
X18504D01*
Y155078D01*
X18824D01*
Y154758D01*
X19465D01*
Y154437D01*
X20106D01*
Y154117D01*
X24270D01*
Y153797D01*
X27152D01*
Y154117D01*
X29395D01*
Y153797D01*
X29715D01*
Y154117D01*
Y154437D01*
Y154758D01*
X29395D01*
Y155078D01*
Y155398D01*
Y155719D01*
Y156039D01*
X29074D01*
Y156359D01*
Y156680D01*
Y157000D01*
Y157320D01*
Y157641D01*
X28754D01*
Y157961D01*
Y158281D01*
Y158602D01*
Y158922D01*
X28434D01*
Y159242D01*
Y159563D01*
Y159883D01*
Y160203D01*
Y160523D01*
X28113D01*
Y160844D01*
Y161164D01*
Y161484D01*
Y161805D01*
Y162125D01*
X27793D01*
Y162445D01*
Y162766D01*
Y163086D01*
Y163406D01*
D02*
G37*
%LPD*%
D14*
X248767Y53726D02*
X249301Y54259D01*
X250367D01*
X250900Y53726D01*
Y51593D01*
X250367Y51060D01*
X249301D01*
X248767Y51593D01*
X247701Y53193D02*
Y51593D01*
X247168Y51060D01*
X245568D01*
Y53193D01*
X244502D02*
Y51060D01*
Y52126D01*
X243969Y52660D01*
X243436Y53193D01*
X242903D01*
X241303D02*
Y51060D01*
Y52126D01*
X240770Y52660D01*
X240237Y53193D01*
X239704D01*
X236505Y51060D02*
X237571D01*
X238104Y51593D01*
Y52660D01*
X237571Y53193D01*
X236505D01*
X235971Y52660D01*
Y52126D01*
X238104D01*
X234905Y51060D02*
Y53193D01*
X233306D01*
X232772Y52660D01*
Y51060D01*
X231173Y53726D02*
Y53193D01*
X231706D01*
X230640D01*
X231173D01*
Y51593D01*
X230640Y51060D01*
X225841D02*
Y54259D01*
X224242D01*
X223709Y53726D01*
Y52660D01*
X224242Y52126D01*
X225841D01*
X224775D02*
X223709Y51060D01*
X222109Y53193D02*
X221043D01*
X220510Y52660D01*
Y51060D01*
X222109D01*
X222642Y51593D01*
X222109Y52126D01*
X220510D01*
X218910Y53726D02*
Y53193D01*
X219443D01*
X218377D01*
X218910D01*
Y51593D01*
X218377Y51060D01*
X216778D02*
X215711D01*
X216245D01*
Y53193D01*
X216778D01*
X214112Y51060D02*
Y53193D01*
X212512D01*
X211979Y52660D01*
Y51060D01*
X209847Y49994D02*
X209313D01*
X208780Y50527D01*
Y53193D01*
X210380D01*
X210913Y52660D01*
Y51593D01*
X210380Y51060D01*
X208780D01*
X248767Y47914D02*
X250900D01*
Y46314D01*
X249834Y46848D01*
X249301D01*
X248767Y46314D01*
Y45248D01*
X249301Y44715D01*
X250367D01*
X250900Y45248D01*
X247701Y47914D02*
Y45781D01*
X246635Y44715D01*
X245568Y45781D01*
Y47914D01*
X241303Y46314D02*
X239170D01*
X234905Y47381D02*
X234372Y47914D01*
X233306D01*
X232772Y47381D01*
Y46848D01*
X233306Y46314D01*
X233839D01*
X233306D01*
X232772Y45781D01*
Y45248D01*
X233306Y44715D01*
X234372D01*
X234905Y45248D01*
X231706Y44715D02*
Y46848D01*
X230640Y47914D01*
X229573Y46848D01*
Y44715D01*
Y46314D01*
X231706D01*
X250900Y39436D02*
X249834D01*
X250367D01*
Y42635D01*
X250900Y42102D01*
X246102Y39436D02*
X248234D01*
X246102Y41569D01*
Y42102D01*
X246635Y42635D01*
X247701D01*
X248234Y42102D01*
X245035Y42635D02*
Y40503D01*
X243969Y39436D01*
X242903Y40503D01*
Y42635D01*
X238637Y41036D02*
X236505D01*
X232239Y42102D02*
X231706Y42635D01*
X230640D01*
X230107Y42102D01*
Y41569D01*
X230640Y41036D01*
X231173D01*
X230640D01*
X230107Y40503D01*
Y39969D01*
X230640Y39436D01*
X231706D01*
X232239Y39969D01*
X229040Y39436D02*
Y41569D01*
X227974Y42635D01*
X226908Y41569D01*
Y39436D01*
Y41036D01*
X229040D01*
X248767Y34157D02*
X250900D01*
X248767Y36290D01*
Y36823D01*
X249301Y37356D01*
X250367D01*
X250900Y36823D01*
X246101Y34157D02*
Y37356D01*
X247701Y35757D01*
X245568D01*
X244502Y37356D02*
Y35224D01*
X243436Y34157D01*
X242369Y35224D01*
Y37356D01*
X238104Y35757D02*
X235971D01*
X229573Y37356D02*
X231706D01*
Y35757D01*
X230640Y36290D01*
X230107D01*
X229573Y35757D01*
Y34691D01*
X230107Y34157D01*
X231173D01*
X231706Y34691D01*
X228507Y34157D02*
Y36290D01*
X227441Y37356D01*
X226375Y36290D01*
Y34157D01*
Y35757D01*
X228507D01*
X250900Y32078D02*
Y28879D01*
X248767D01*
X246101D02*
X247168D01*
X247701Y29412D01*
Y30478D01*
X247168Y31011D01*
X246101D01*
X245568Y30478D01*
Y29945D01*
X247701D01*
X244502Y28879D02*
X242903D01*
X242369Y29412D01*
X242903Y29945D01*
X243969D01*
X244502Y30478D01*
X243969Y31011D01*
X242369D01*
X241303Y28879D02*
X239704D01*
X239170Y29412D01*
X239704Y29945D01*
X240770D01*
X241303Y30478D01*
X240770Y31011D01*
X239170D01*
X234905D02*
Y29412D01*
X234372Y28879D01*
X233839Y29412D01*
X233306Y28879D01*
X232772Y29412D01*
Y31011D01*
X231706Y28879D02*
X230640D01*
X231173D01*
Y31011D01*
X231706D01*
X228507Y31545D02*
Y31011D01*
X229040D01*
X227974D01*
X228507D01*
Y29412D01*
X227974Y28879D01*
X226375Y32078D02*
Y28879D01*
Y30478D01*
X225841Y31011D01*
X224775D01*
X224242Y30478D01*
Y28879D01*
X219443D02*
Y31545D01*
Y30478D01*
X219977D01*
X218910D01*
X219443D01*
Y31545D01*
X218910Y32078D01*
X217311Y31011D02*
Y29412D01*
X216778Y28879D01*
X215178D01*
Y31011D01*
X214112Y28879D02*
X213046D01*
X213579D01*
Y32078D01*
X214112D01*
X211446Y28879D02*
X210380D01*
X210913D01*
Y32078D01*
X211446D01*
X203449D02*
Y28879D01*
X205048D01*
X205581Y29412D01*
Y30478D01*
X205048Y31011D01*
X203449D01*
X202382D02*
Y28879D01*
Y29945D01*
X201849Y30478D01*
X201316Y31011D01*
X200783D01*
X198650D02*
X197584D01*
X197051Y30478D01*
Y28879D01*
X198650D01*
X199183Y29412D01*
X198650Y29945D01*
X197051D01*
X195984Y31011D02*
Y29412D01*
X195451Y28879D01*
X194918Y29412D01*
X194385Y28879D01*
X193852Y29412D01*
Y31011D01*
X250367Y23600D02*
X249301D01*
X248767Y24133D01*
Y25199D01*
X249301Y25733D01*
X250367D01*
X250900Y25199D01*
Y24133D01*
X250367Y23600D01*
X247701D02*
Y25733D01*
X246101D01*
X245568Y25199D01*
Y23600D01*
X240770D02*
X239704D01*
X239170Y24133D01*
Y25199D01*
X239704Y25733D01*
X240770D01*
X241303Y25199D01*
Y24133D01*
X240770Y23600D01*
X237571Y26266D02*
Y25733D01*
X238104D01*
X237038D01*
X237571D01*
Y24133D01*
X237038Y23600D01*
X235438Y26799D02*
Y23600D01*
Y25199D01*
X234905Y25733D01*
X233839D01*
X233306Y25199D01*
Y23600D01*
X230640D02*
X231706D01*
X232239Y24133D01*
Y25199D01*
X231706Y25733D01*
X230640D01*
X230107Y25199D01*
Y24666D01*
X232239D01*
X229040Y25733D02*
Y23600D01*
Y24666D01*
X228507Y25199D01*
X227974Y25733D01*
X227441D01*
X222642Y23600D02*
X221576D01*
X222109D01*
Y26799D01*
X222642D01*
X219977Y23600D02*
X218910D01*
X219443D01*
Y25733D01*
X219977D01*
X217311Y23600D02*
Y25733D01*
X215711D01*
X215178Y25199D01*
Y23600D01*
X212512D02*
X213579D01*
X214112Y24133D01*
Y25199D01*
X213579Y25733D01*
X212512D01*
X211979Y25199D01*
Y24666D01*
X214112D01*
X210913Y23600D02*
X209313D01*
X208780Y24133D01*
X209313Y24666D01*
X210380D01*
X210913Y25199D01*
X210380Y25733D01*
X208780D01*
X238400Y119724D02*
Y122923D01*
X236801D01*
X236267Y122390D01*
Y121323D01*
X236801Y120790D01*
X238400D01*
X237334D02*
X236267Y119724D01*
X233601D02*
X234668D01*
X235201Y120257D01*
Y121323D01*
X234668Y121856D01*
X233601D01*
X233068Y121323D01*
Y120790D01*
X235201D01*
X232002Y121856D02*
X230936Y119724D01*
X229869Y121856D01*
X228803Y119724D02*
X227737D01*
X228270D01*
Y121856D01*
X228803D01*
X226137Y119724D02*
X224538D01*
X224005Y120257D01*
X224538Y120790D01*
X225604D01*
X226137Y121323D01*
X225604Y121856D01*
X224005D01*
X222938Y119724D02*
X221872D01*
X222405D01*
Y121856D01*
X222938D01*
X219739Y119724D02*
X218673D01*
X218140Y120257D01*
Y121323D01*
X218673Y121856D01*
X219739D01*
X220272Y121323D01*
Y120257D01*
X219739Y119724D01*
X217073D02*
Y121856D01*
X215474D01*
X214941Y121323D01*
Y119724D01*
X208543D02*
X210676D01*
X208543Y121856D01*
Y122390D01*
X209076Y122923D01*
X210142D01*
X210676Y122390D01*
X238400Y117644D02*
X236267D01*
X237334D01*
Y114445D01*
X234668D02*
X233601D01*
X233068Y114978D01*
Y116045D01*
X233601Y116578D01*
X234668D01*
X235201Y116045D01*
Y114978D01*
X234668Y114445D01*
X232002D02*
Y116578D01*
X230403D01*
X229869Y116045D01*
Y114445D01*
X228803Y116578D02*
Y114978D01*
X228270Y114445D01*
X226670D01*
Y113912D01*
X227204Y113379D01*
X227737D01*
X226670Y114445D02*
Y116578D01*
X222405Y117644D02*
Y114445D01*
X221339Y115511D01*
X220272Y114445D01*
Y117644D01*
X218673Y116578D02*
X217607D01*
X217073Y116045D01*
Y114445D01*
X218673D01*
X219206Y114978D01*
X218673Y115511D01*
X217073D01*
X216007Y114445D02*
Y116578D01*
X214408D01*
X213875Y116045D01*
Y114445D01*
X211742Y113379D02*
X211209D01*
X210676Y113912D01*
Y116578D01*
X212275D01*
X212808Y116045D01*
Y114978D01*
X212275Y114445D01*
X210676D01*
X209076Y113912D02*
X208543Y114445D01*
Y114978D01*
X209076D01*
Y114445D01*
X208543D01*
X209076Y113912D01*
X209609Y113379D01*
X203211Y117644D02*
X202145D01*
X202678D01*
Y114445D01*
X203211D01*
X202145D01*
X200012Y116578D02*
X198946D01*
X198413Y116045D01*
Y114445D01*
X200012D01*
X200546Y114978D01*
X200012Y115511D01*
X198413D01*
X197347Y114445D02*
Y116578D01*
X195747D01*
X195214Y116045D01*
Y114445D01*
X190949D02*
Y117644D01*
X189349D01*
X188816Y117111D01*
Y116045D01*
X189349Y115511D01*
X190949D01*
X189882D02*
X188816Y114445D01*
X187216D02*
X186150D01*
X185617Y114978D01*
Y116045D01*
X186150Y116578D01*
X187216D01*
X187750Y116045D01*
Y114978D01*
X187216Y114445D01*
X184551D02*
X182951D01*
X182418Y114978D01*
X182951Y115511D01*
X184018D01*
X184551Y116045D01*
X184018Y116578D01*
X182418D01*
X181352Y114445D02*
X179752D01*
X179219Y114978D01*
X179752Y115511D01*
X180819D01*
X181352Y116045D01*
X180819Y116578D01*
X179219D01*
X236267Y108100D02*
X238400D01*
X236267Y110233D01*
Y110766D01*
X236801Y111299D01*
X237867D01*
X238400Y110766D01*
X235201D02*
X234668Y111299D01*
X233601D01*
X233068Y110766D01*
Y108633D01*
X233601Y108100D01*
X234668D01*
X235201Y108633D01*
Y110766D01*
X229869Y108100D02*
X232002D01*
X229869Y110233D01*
Y110766D01*
X230403Y111299D01*
X231469D01*
X232002Y110766D01*
X228803D02*
X228270Y111299D01*
X227204D01*
X226670Y110766D01*
Y108633D01*
X227204Y108100D01*
X228270D01*
X228803Y108633D01*
Y110766D01*
X225604Y109699D02*
X223471D01*
X222405Y108100D02*
X221339D01*
X221872D01*
Y111299D01*
X222405Y110766D01*
X219739Y108100D02*
X218673D01*
X219206D01*
Y111299D01*
X219739Y110766D01*
X217073Y109699D02*
X214941D01*
X211742Y108100D02*
X213875D01*
X211742Y110233D01*
Y110766D01*
X212275Y111299D01*
X213341D01*
X213875Y110766D01*
X208543Y111299D02*
X209609Y110766D01*
X210676Y109699D01*
Y108633D01*
X210142Y108100D01*
X209076D01*
X208543Y108633D01*
Y109166D01*
X209076Y109699D01*
X210676D01*
D78*
X238000Y126000D02*
Y130998D01*
X235501D01*
X234668Y130165D01*
Y128499D01*
X235501Y127666D01*
X238000D01*
X232169Y126000D02*
X230502D01*
X229669Y126833D01*
Y128499D01*
X230502Y129332D01*
X232169D01*
X233002Y128499D01*
Y126833D01*
X232169Y126000D01*
X228003Y129332D02*
Y126833D01*
X227170Y126000D01*
X226337Y126833D01*
X225504Y126000D01*
X224671Y126833D01*
Y129332D01*
X220506Y126000D02*
X222172D01*
X223005Y126833D01*
Y128499D01*
X222172Y129332D01*
X220506D01*
X219673Y128499D01*
Y127666D01*
X223005D01*
X218006Y129332D02*
Y126000D01*
Y127666D01*
X217173Y128499D01*
X216340Y129332D01*
X215507D01*
X208010Y130998D02*
Y126000D01*
X205510D01*
X204678Y126833D01*
Y130165D01*
X205510Y130998D01*
X208010D01*
X203011Y126000D02*
X201345D01*
X202178D01*
Y129332D01*
X203011D01*
X198846Y126000D02*
X196347D01*
X195514Y126833D01*
X196347Y127666D01*
X198013D01*
X198846Y128499D01*
X198013Y129332D01*
X195514D01*
X193015Y130165D02*
Y129332D01*
X193848D01*
X192182D01*
X193015D01*
Y126833D01*
X192182Y126000D01*
X189682Y129332D02*
Y126000D01*
Y127666D01*
X188849Y128499D01*
X188016Y129332D01*
X187183D01*
X184684Y126000D02*
X183018D01*
X183851D01*
Y129332D01*
X184684D01*
X180519Y130998D02*
Y126000D01*
X178019D01*
X177186Y126833D01*
Y127666D01*
Y128499D01*
X178019Y129332D01*
X180519D01*
X175520D02*
Y126833D01*
X174687Y126000D01*
X172188D01*
Y129332D01*
X169689Y130165D02*
Y129332D01*
X170522D01*
X168856D01*
X169689D01*
Y126833D01*
X168856Y126000D01*
X166357D02*
X164690D01*
X165524D01*
Y129332D01*
X166357D01*
X161358Y126000D02*
X159692D01*
X158859Y126833D01*
Y128499D01*
X159692Y129332D01*
X161358D01*
X162191Y128499D01*
Y126833D01*
X161358Y126000D01*
X157193D02*
Y129332D01*
X154694D01*
X153861Y128499D01*
Y126000D01*
X147196Y130998D02*
Y126000D01*
X144697D01*
X143864Y126833D01*
Y127666D01*
X144697Y128499D01*
X147196D01*
X144697D01*
X143864Y129332D01*
Y130165D01*
X144697Y130998D01*
X147196D01*
X141365Y126000D02*
X139699D01*
X138865Y126833D01*
Y128499D01*
X139699Y129332D01*
X141365D01*
X142198Y128499D01*
Y126833D01*
X141365Y126000D01*
X136366Y129332D02*
X134700D01*
X133867Y128499D01*
Y126000D01*
X136366D01*
X137199Y126833D01*
X136366Y127666D01*
X133867D01*
X132201Y129332D02*
Y126000D01*
Y127666D01*
X131368Y128499D01*
X130535Y129332D01*
X129702D01*
X123870Y130998D02*
Y126000D01*
X126370D01*
X127203Y126833D01*
Y128499D01*
X126370Y129332D01*
X123870D01*
X122204D02*
X121371D01*
Y128499D01*
X122204D01*
Y129332D01*
Y126833D02*
X121371D01*
Y126000D01*
X122204D01*
Y126833D01*
X109708Y130998D02*
X113040D01*
Y126000D01*
X109708D01*
X113040Y128499D02*
X111374D01*
X108042Y126000D02*
X106376D01*
X107209D01*
Y130998D01*
X108042D01*
X101378Y126000D02*
X103044D01*
X103877Y126833D01*
Y128499D01*
X103044Y129332D01*
X101378D01*
X100545Y128499D01*
Y127666D01*
X103877D01*
X98878Y126000D02*
Y130998D01*
Y127666D02*
X96379Y129332D01*
X98878Y127666D02*
X96379Y126000D01*
X93880D02*
X92214D01*
X93047D01*
Y129332D01*
X93880D01*
X86382Y130998D02*
Y126000D01*
X88882D01*
X89715Y126833D01*
Y128499D01*
X88882Y129332D01*
X86382D01*
M02*
