G04*
G04 #@! TF.GenerationSoftware,Altium Limited,Altium Designer,20.1.11 (218)*
G04*
G04 Layer_Color=16711935*
%FSLAX25Y25*%
%MOIN*%
G70*
G04*
G04 #@! TF.SameCoordinates,E6626CB0-0D60-4EC0-B616-354E29CAD756*
G04*
G04*
G04 #@! TF.FilePolarity,Positive*
G04*
G01*
G75*
%ADD10C,0.00787*%
%ADD12C,0.00394*%
D10*
X83031Y30043D02*
X108228D01*
Y-4996D02*
Y30043D01*
X83031Y-4996D02*
X108228D01*
X83031D02*
Y30043D01*
X195701Y93657D02*
X208299D01*
Y113342D01*
X195701D02*
X208299D01*
X195701Y93657D02*
Y113342D01*
X262114Y29169D02*
X284752D01*
Y77988D01*
X262114D02*
X284752D01*
X262114Y29169D02*
Y77988D01*
X-25248Y72913D02*
X46406D01*
Y133937D01*
X-25248Y72913D02*
Y133937D01*
X46406D01*
X93504Y156972D02*
X106496D01*
X93504Y143980D02*
Y156972D01*
Y143980D02*
X106496D01*
Y156972D01*
X95028Y180004D02*
Y192996D01*
Y180004D02*
X108020D01*
Y192996D01*
X95028D02*
X108020D01*
X32504Y168028D02*
X45496D01*
Y181020D01*
X32504D02*
X45496D01*
X32504Y168028D02*
Y181020D01*
X158031Y30138D02*
X183228D01*
Y-4902D02*
Y30138D01*
X158031Y-4902D02*
X183228D01*
X158031D02*
Y30138D01*
X120531D02*
X145728D01*
Y-4902D02*
Y30138D01*
X120531Y-4902D02*
X145728D01*
X120531D02*
Y30138D01*
X45382Y30059D02*
X70578D01*
Y-4980D02*
Y30059D01*
X45382Y-4980D02*
X70578D01*
X45382D02*
Y30059D01*
D12*
X236925Y155850D02*
Y162150D01*
X240075D01*
Y155850D02*
Y162150D01*
X236925Y155850D02*
X240075D01*
X236925Y156902D02*
X237976Y155850D01*
X246925D02*
Y162150D01*
X250075D01*
Y155850D02*
Y162150D01*
X246925Y155850D02*
X250075D01*
X246925Y156902D02*
X247976Y155850D01*
X256925D02*
Y162150D01*
X260075D01*
Y155850D02*
Y162150D01*
X256925Y155850D02*
X260075D01*
X256925Y156902D02*
X257976Y155850D01*
X266925D02*
Y162150D01*
X270075D01*
Y155850D02*
Y162150D01*
X266925Y155850D02*
X270075D01*
X266925Y156902D02*
X267976Y155850D01*
X276925D02*
Y162150D01*
X280075D01*
Y155850D02*
Y162150D01*
X276925Y155850D02*
X280075D01*
X276925Y156902D02*
X277976Y155850D01*
X286425D02*
Y162150D01*
X289575D01*
Y155850D02*
Y162150D01*
X286425Y155850D02*
X289575D01*
X286425Y156902D02*
X287476Y155850D01*
X241354Y178622D02*
Y187284D01*
X235646Y178622D02*
Y187284D01*
X241354D01*
X235646Y178622D02*
X241354D01*
X251354Y178669D02*
Y187331D01*
X245646Y178669D02*
Y187331D01*
X251354D01*
X245646Y178669D02*
X251354D01*
X281354D02*
Y187331D01*
X275646Y178669D02*
Y187331D01*
X281354D01*
X275646Y178669D02*
X281354D01*
X290854Y178622D02*
Y187284D01*
X285146Y178622D02*
Y187284D01*
X290854D01*
X285146Y178622D02*
X290854D01*
X271354D02*
Y187284D01*
X265646Y178622D02*
Y187284D01*
X271354D01*
X265646Y178622D02*
X271354D01*
X261354Y178669D02*
Y187331D01*
X255646Y178669D02*
Y187331D01*
X261354D01*
X255646Y178669D02*
X261354D01*
X141146Y59669D02*
Y68331D01*
X146854Y59669D02*
Y68331D01*
X141146Y59669D02*
X146854D01*
X141146Y68331D02*
X146854D01*
X139354Y59669D02*
Y68331D01*
X133646Y59669D02*
Y68331D01*
X139354D01*
X133646Y59669D02*
X139354D01*
X194669Y73146D02*
Y78854D01*
X203331Y73146D02*
Y78854D01*
X194669D02*
X203331D01*
X194669Y73146D02*
X203331D01*
X242169Y67354D02*
X250831D01*
X242169Y61646D02*
X250831D01*
X242169D02*
Y67354D01*
X250831Y61646D02*
Y67354D01*
X267669Y115354D02*
X276331D01*
X267669Y109646D02*
X276331D01*
X267669D02*
Y115354D01*
X276331Y109646D02*
Y115354D01*
X194669Y64354D02*
X203331D01*
X194669Y58646D02*
X203331D01*
X194669D02*
Y64354D01*
X203331Y58646D02*
Y64354D01*
X260409Y132783D02*
X286591D01*
X260409Y118217D02*
Y132783D01*
Y118217D02*
X286591D01*
Y132783D01*
X194815Y4201D02*
Y19161D01*
X253870D01*
Y4201D02*
Y19161D01*
X194815Y4201D02*
X253870D01*
X194669Y51146D02*
X203331D01*
X194669Y56854D02*
X203331D01*
Y51146D02*
Y56854D01*
X194669Y51146D02*
Y56854D01*
X264823Y102146D02*
X269823Y107146D01*
X264823Y87854D02*
Y107146D01*
Y87854D02*
X280177D01*
Y107146D01*
X264823D02*
X280177D01*
X108807Y104043D02*
X122193D01*
X108807Y96957D02*
X122193D01*
X108807D02*
Y104043D01*
X122193Y96957D02*
Y104043D01*
X108646Y67169D02*
X114354D01*
X108646Y75831D02*
X114354D01*
X108646Y67169D02*
Y75831D01*
X114354Y67169D02*
Y75831D01*
X126469Y76650D02*
X130209Y72909D01*
X118791Y76650D02*
X130209D01*
X118791Y70350D02*
Y76650D01*
Y70350D02*
X130209D01*
Y76650D01*
X101146Y67169D02*
X106854D01*
X101146Y75831D02*
X106854D01*
X101146Y67169D02*
Y75831D01*
X106854Y67169D02*
Y75831D01*
X152339Y173736D02*
X154898Y176295D01*
X152339Y150705D02*
Y176295D01*
Y150705D02*
X169661D01*
Y176295D01*
X152339D02*
X169661D01*
X122784Y114646D02*
Y120354D01*
X114122Y114646D02*
Y120354D01*
Y114646D02*
X122784D01*
X114122Y120354D02*
X122784D01*
X65216Y72646D02*
Y78354D01*
X73878Y72646D02*
Y78354D01*
X65216D02*
X73878D01*
X65216Y72646D02*
X73878D01*
X52457Y101193D02*
X59543D01*
X52457Y87807D02*
X59543D01*
Y101193D01*
X52457Y87807D02*
Y101193D01*
X148457Y72693D02*
X155543D01*
X148457Y59307D02*
X155543D01*
Y72693D01*
X148457Y59307D02*
Y72693D01*
X215646Y158878D02*
X221354D01*
X215646Y150216D02*
X221354D01*
Y158878D01*
X215646Y150216D02*
Y158878D01*
X216646Y168122D02*
X222354D01*
X216646Y176784D02*
X222354D01*
X216646Y168122D02*
Y176784D01*
X222354Y168122D02*
Y176784D01*
X162646Y94669D02*
X168354D01*
X162646Y103331D02*
X168354D01*
X162646Y94669D02*
Y103331D01*
X168354Y94669D02*
Y103331D01*
X86854Y90169D02*
Y98831D01*
X81146Y90169D02*
Y98831D01*
X86854D01*
X81146Y90169D02*
X86854D01*
X164146Y136169D02*
Y144831D01*
X169854Y136169D02*
Y144831D01*
X164146Y136169D02*
X169854D01*
X164146Y144831D02*
X169854D01*
X155146Y179669D02*
Y188331D01*
X160854Y179669D02*
Y188331D01*
X155146Y179669D02*
X160854D01*
X155146Y188331D02*
X160854D01*
X133646Y122622D02*
X139354D01*
X133646Y131283D02*
X139354D01*
X133646Y122622D02*
Y131283D01*
X139354Y122622D02*
Y131283D01*
X159331Y99146D02*
Y104854D01*
X150669Y99146D02*
Y104854D01*
Y99146D02*
X159331D01*
X150669Y104854D02*
X159331D01*
X133646Y137216D02*
X139354D01*
X133646Y145878D02*
X139354D01*
X133646Y137216D02*
Y145878D01*
X139354Y137216D02*
Y145878D01*
X133646Y153669D02*
X139354D01*
X133646Y162331D02*
X139354D01*
X133646Y153669D02*
Y162331D01*
X139354Y153669D02*
Y162331D01*
X224646Y168169D02*
X230354D01*
X224646Y176831D02*
X230354D01*
X224646Y168169D02*
Y176831D01*
X230354Y168169D02*
Y176831D01*
X70146Y150669D02*
X75854D01*
X70146Y159331D02*
X75854D01*
X70146Y150669D02*
Y159331D01*
X75854Y150669D02*
Y159331D01*
X79216Y141146D02*
Y146854D01*
X87878Y141146D02*
Y146854D01*
X79216D02*
X87878D01*
X79216Y141146D02*
X87878D01*
X80146Y179217D02*
X85854D01*
X80146Y187878D02*
X85854D01*
X80146Y179217D02*
Y187878D01*
X85854Y179217D02*
Y187878D01*
X69146Y179169D02*
X74854D01*
X69146Y187831D02*
X74854D01*
X69146Y179169D02*
Y187831D01*
X74854Y179169D02*
Y187831D01*
X104646Y164216D02*
X110354D01*
X104646Y172878D02*
X110354D01*
X104646Y164216D02*
Y172878D01*
X110354Y164216D02*
Y172878D01*
X101784Y168646D02*
Y174354D01*
X93122Y168646D02*
Y174354D01*
Y168646D02*
X101784D01*
X93122Y174354D02*
X101784D01*
X190646Y54610D02*
Y68390D01*
X165055Y54610D02*
X190646D01*
X165055D02*
Y68390D01*
X190646D01*
X181591D02*
X190646Y59335D01*
X79594Y102094D02*
X91405D01*
X79594D02*
Y113906D01*
X91405D01*
Y102094D02*
Y113906D01*
X89437Y102094D02*
X91405Y104063D01*
X219220Y110780D02*
X246779D01*
Y83220D02*
Y110780D01*
X219220Y83220D02*
X246779D01*
X219220D02*
Y110780D01*
Y107630D02*
X222370Y110780D01*
X73941Y171508D02*
X77681Y175248D01*
X73941Y163752D02*
Y175248D01*
Y163752D02*
X79059D01*
Y175248D01*
X73941D02*
X79059D01*
X58410Y162791D02*
X62150Y166532D01*
Y162791D02*
Y174209D01*
X55850D02*
X62150D01*
X55850Y162791D02*
Y174209D01*
Y162791D02*
X62150D01*
X161626Y119772D02*
Y140228D01*
X151374Y119772D02*
X161626D01*
X151374D02*
Y140228D01*
X161626D01*
X158579D02*
X161626Y137173D01*
X166272Y197126D02*
X186728D01*
Y186874D02*
Y197126D01*
X166272Y186874D02*
X186728D01*
X166272D02*
Y197126D01*
Y194079D02*
X169327Y197126D01*
X157681Y108539D02*
X159846Y110705D01*
Y108539D02*
Y113461D01*
X153154D02*
X159846D01*
X153154Y108539D02*
Y113461D01*
Y108539D02*
X159846D01*
X192181Y178039D02*
X194346Y180205D01*
Y178039D02*
Y182961D01*
X187654D02*
X194346D01*
X187654Y178039D02*
Y182961D01*
Y178039D02*
X194346D01*
X51146Y37169D02*
X56854D01*
X51146Y45831D02*
X56854D01*
X51146Y37169D02*
Y45831D01*
X56854Y37169D02*
Y45831D01*
X43646Y37169D02*
X49354D01*
X43646Y45831D02*
X49354D01*
X43646Y37169D02*
Y45831D01*
X49354Y37169D02*
Y45831D01*
X119146Y45878D02*
X124854D01*
X119146Y37216D02*
X124854D01*
Y45878D01*
X119146Y37216D02*
Y45878D01*
X126646D02*
X132354D01*
X126646Y37216D02*
X132354D01*
Y45878D01*
X126646Y37216D02*
Y45878D01*
X134146Y37122D02*
X139854D01*
X134146Y45783D02*
X139854D01*
X134146Y37122D02*
Y45783D01*
X139854Y37122D02*
Y45783D01*
X141646Y37122D02*
X147354D01*
X141646Y45783D02*
X147354D01*
X141646Y37122D02*
Y45783D01*
X147354Y37122D02*
Y45783D01*
X194622Y80646D02*
Y86354D01*
X203284Y80646D02*
Y86354D01*
X194622D02*
X203284D01*
X194622Y80646D02*
X203284D01*
X194669Y119646D02*
Y125354D01*
X203331Y119646D02*
Y125354D01*
X194669D02*
X203331D01*
X194669Y119646D02*
X203331D01*
X194669Y65646D02*
Y71354D01*
X203331Y65646D02*
Y71354D01*
X194669D02*
X203331D01*
X194669Y65646D02*
X203331D01*
X74146Y98831D02*
X79854D01*
X74146Y90169D02*
X79854D01*
Y98831D01*
X74146Y90169D02*
Y98831D01*
X250831Y69146D02*
Y74854D01*
X242169Y69146D02*
Y74854D01*
Y69146D02*
X250831D01*
X242169Y74854D02*
X250831D01*
X15126Y152244D02*
Y172756D01*
X4874Y152244D02*
X15126D01*
X4874D02*
Y172756D01*
X15126D01*
X194669Y44146D02*
Y49854D01*
X203331Y44146D02*
Y49854D01*
X194669D02*
X203331D01*
X194669Y44146D02*
X203331D01*
X156496Y68217D02*
X162205D01*
X156496Y76878D02*
X162205D01*
X156496Y68217D02*
Y76878D01*
X162205Y68217D02*
Y76878D01*
X103146Y124784D02*
X108854D01*
X103146Y116122D02*
X108854D01*
Y124784D01*
X103146Y116122D02*
Y124784D01*
X66646Y90169D02*
X72354D01*
X66646Y98831D02*
X72354D01*
X66646Y90169D02*
Y98831D01*
X72354Y90169D02*
Y98831D01*
X104146Y45783D02*
X109854D01*
X104146Y37122D02*
X109854D01*
Y45783D01*
X104146Y37122D02*
Y45783D01*
X96646D02*
X102354D01*
X96646Y37122D02*
X102354D01*
Y45783D01*
X96646Y37122D02*
Y45783D01*
X89146Y37075D02*
X94854D01*
X89146Y45736D02*
X94854D01*
X89146Y37075D02*
Y45736D01*
X94854Y37075D02*
Y45736D01*
X81646Y37028D02*
X87354D01*
X81646Y45689D02*
X87354D01*
X81646Y37028D02*
Y45689D01*
X87354Y37028D02*
Y45689D01*
X66146Y45831D02*
X71854D01*
X66146Y37169D02*
X71854D01*
Y45831D01*
X66146Y37169D02*
Y45831D01*
X58646D02*
X64354D01*
X58646Y37169D02*
X64354D01*
Y45831D01*
X58646Y37169D02*
Y45831D01*
X199646Y150169D02*
X205354D01*
X199646Y158831D02*
X205354D01*
X199646Y150169D02*
Y158831D01*
X205354Y150169D02*
Y158831D01*
X191646Y145717D02*
X197354D01*
X191646Y154378D02*
X197354D01*
X191646Y145717D02*
Y154378D01*
X197354Y145717D02*
Y154378D01*
X197878Y169646D02*
Y175354D01*
X189216Y169646D02*
Y175354D01*
Y169646D02*
X197878D01*
X189216Y175354D02*
X197878D01*
X200646Y176878D02*
X206354D01*
X200646Y168217D02*
X206354D01*
Y176878D01*
X200646Y168217D02*
Y176878D01*
X207646Y150122D02*
X213354D01*
X207646Y158783D02*
X213354D01*
X207646Y150122D02*
Y158783D01*
X213354Y150122D02*
Y158783D01*
X208646Y176831D02*
X214354D01*
X208646Y168169D02*
X214354D01*
Y176831D01*
X208646Y168169D02*
Y176831D01*
X133646Y116331D02*
X139354D01*
X133646Y107669D02*
X139354D01*
Y116331D01*
X133646Y107669D02*
Y116331D01*
X159378Y82146D02*
Y87854D01*
X150716Y82146D02*
Y87854D01*
Y82146D02*
X159378D01*
X150716Y87854D02*
X159378D01*
X159331Y90646D02*
Y96354D01*
X150669Y90646D02*
Y96354D01*
Y90646D02*
X159331D01*
X150669Y96354D02*
X159331D01*
X187331Y147146D02*
Y152854D01*
X178669Y147146D02*
Y152854D01*
Y147146D02*
X187331D01*
X178669Y152854D02*
X187331D01*
X163216Y178646D02*
Y184354D01*
X171878Y178646D02*
Y184354D01*
X163216D02*
X171878D01*
X163216Y178646D02*
X171878D01*
X146646Y188331D02*
X152354D01*
X146646Y179669D02*
X152354D01*
Y188331D01*
X146646Y179669D02*
Y188331D01*
X78146Y150716D02*
X83854D01*
X78146Y159378D02*
X83854D01*
X78146Y150716D02*
Y159378D01*
X83854Y150716D02*
Y159378D01*
X65331Y155146D02*
Y160854D01*
X56669Y155146D02*
Y160854D01*
Y155146D02*
X65331D01*
X56669Y160854D02*
X65331D01*
X116647Y196615D02*
X122356D01*
X116647Y187953D02*
X122356D01*
Y196615D01*
X116647Y187953D02*
Y196615D01*
X124727Y196615D02*
X130436D01*
X124727Y187953D02*
X130436D01*
Y196615D01*
X124727Y187953D02*
Y196615D01*
X20146Y170831D02*
X25854D01*
X20146Y162169D02*
X25854D01*
Y170831D01*
X20146Y162169D02*
Y170831D01*
M02*
