G04*
G04 #@! TF.GenerationSoftware,Altium Limited,Altium Designer,20.1.11 (218)*
G04*
G04 Layer_Physical_Order=2*
G04 Layer_Color=16711680*
%FSLAX25Y25*%
%MOIN*%
G70*
G04*
G04 #@! TF.SameCoordinates,C2617A9B-E6B3-48ED-90EE-97796008DAC5*
G04*
G04*
G04 #@! TF.FilePolarity,Positive*
G04*
G01*
G75*
%ADD78C,0.01000*%
%ADD79C,0.05000*%
%ADD81C,0.02500*%
%ADD95C,0.09272*%
%ADD96C,0.22835*%
%ADD97C,0.05906*%
%ADD98C,0.04331*%
%ADD99R,0.04331X0.04331*%
%ADD100R,0.06496X0.06496*%
%ADD101C,0.06496*%
%ADD102C,0.10630*%
%ADD103C,0.15945*%
%ADD104R,0.05906X0.05906*%
%ADD105C,0.02362*%
%ADD106C,0.03000*%
%ADD107C,0.05000*%
G36*
X287683Y198844D02*
X289356Y198151D01*
X290863Y197144D01*
X292144Y195863D01*
X293150Y194357D01*
X293844Y192683D01*
X294197Y190906D01*
Y190000D01*
Y10000D01*
Y9094D01*
X293844Y7317D01*
X293150Y5644D01*
X292144Y4137D01*
X290863Y2856D01*
X289356Y1850D01*
X287683Y1156D01*
X285906Y803D01*
X279208D01*
X279109Y1303D01*
X280427Y1849D01*
X282027Y2829D01*
X283453Y4047D01*
X284671Y5474D01*
X285651Y7073D01*
X286369Y8806D01*
X286807Y10630D01*
X286895Y11750D01*
X263105D01*
X263193Y10630D01*
X263631Y8806D01*
X264349Y7073D01*
X265329Y5474D01*
X266547Y4047D01*
X267973Y2829D01*
X269573Y1849D01*
X270891Y1303D01*
X270792Y803D01*
X16708D01*
X16609Y1303D01*
X17927Y1849D01*
X19526Y2829D01*
X20953Y4047D01*
X22171Y5474D01*
X23151Y7073D01*
X23869Y8806D01*
X24307Y10630D01*
X24395Y11750D01*
X12500D01*
Y12500D01*
X11750D01*
Y24395D01*
X10630Y24307D01*
X8806Y23869D01*
X7073Y23151D01*
X5474Y22171D01*
X4047Y20953D01*
X2829Y19526D01*
X1849Y17927D01*
X1303Y16609D01*
X803Y16708D01*
Y183292D01*
X1303Y183391D01*
X1849Y182073D01*
X2829Y180473D01*
X4047Y179047D01*
X5474Y177829D01*
X7073Y176849D01*
X8806Y176131D01*
X10630Y175693D01*
X11750Y175605D01*
Y187500D01*
X12500D01*
Y188250D01*
X24395D01*
X24307Y189370D01*
X23869Y191194D01*
X23151Y192927D01*
X22171Y194527D01*
X20953Y195953D01*
X19526Y197171D01*
X17927Y198151D01*
X16609Y198697D01*
X16708Y199197D01*
X285906D01*
X287683Y198844D01*
D02*
G37*
%LPC*%
G36*
X24395Y186750D02*
X13250D01*
Y175605D01*
X14370Y175693D01*
X16194Y176131D01*
X17927Y176849D01*
X19526Y177829D01*
X20953Y179047D01*
X22171Y180473D01*
X23151Y182073D01*
X23869Y183806D01*
X24307Y185630D01*
X24395Y186750D01*
D02*
G37*
G36*
X179500Y176784D02*
X178817Y176648D01*
X178238Y176262D01*
X171761Y169784D01*
X141995D01*
X141640Y170140D01*
X141640Y170140D01*
X137640Y174140D01*
X137013Y174620D01*
X136283Y174923D01*
X135500Y175026D01*
X126500D01*
X125717Y174923D01*
X124987Y174620D01*
X124360Y174140D01*
X123880Y173513D01*
X123577Y172783D01*
X123474Y172000D01*
X123577Y171217D01*
X123880Y170487D01*
X124360Y169860D01*
X124987Y169379D01*
X125717Y169077D01*
X126500Y168974D01*
X134247D01*
X137360Y165860D01*
X137360Y165860D01*
X146474Y156747D01*
Y148000D01*
X146577Y147217D01*
X146879Y146487D01*
X147360Y145860D01*
X147987Y145379D01*
X148717Y145077D01*
X149500Y144974D01*
X150283Y145077D01*
X151013Y145379D01*
X151640Y145860D01*
X152120Y146487D01*
X152423Y147217D01*
X152526Y148000D01*
Y158000D01*
X152526Y158000D01*
X152423Y158783D01*
X152120Y159513D01*
X151640Y160140D01*
X151640Y160140D01*
X146026Y165754D01*
X146217Y166216D01*
X151689D01*
X151956Y165716D01*
X151916Y165656D01*
X151786Y165000D01*
X151916Y164344D01*
X152288Y163788D01*
X152844Y163416D01*
X153500Y163286D01*
X153727Y163331D01*
X163279Y153779D01*
X163610Y153558D01*
X164000Y153480D01*
X166659D01*
X166788Y153288D01*
X167344Y152916D01*
X167420Y152901D01*
X167565Y152423D01*
X150662Y135520D01*
X137841D01*
X137712Y135712D01*
X137156Y136084D01*
X136500Y136214D01*
X135844Y136084D01*
X135288Y135712D01*
X134916Y135156D01*
X134786Y134500D01*
X134916Y133844D01*
X135288Y133288D01*
X135844Y132916D01*
X136500Y132786D01*
X137156Y132916D01*
X137712Y133288D01*
X137841Y133480D01*
X151084D01*
X151475Y133558D01*
X151805Y133779D01*
X176544Y158517D01*
X177101Y158526D01*
X177176Y158486D01*
X177714Y158126D01*
X177986Y158072D01*
X187980Y148078D01*
Y145775D01*
X187864Y145732D01*
X187480Y145692D01*
X187165Y146165D01*
X186609Y146536D01*
X185953Y146667D01*
X185297Y146536D01*
X184741Y146165D01*
X184612Y145972D01*
X179453D01*
X179063Y145895D01*
X178732Y145674D01*
X172215Y139157D01*
X171844Y139084D01*
X171288Y138712D01*
X170916Y138156D01*
X170786Y137500D01*
X170916Y136844D01*
X171288Y136288D01*
X171844Y135916D01*
X172500Y135786D01*
X173156Y135916D01*
X173712Y136288D01*
X174084Y136844D01*
X174214Y137500D01*
X174086Y138144D01*
X177804Y141862D01*
X178346Y141697D01*
X178416Y141344D01*
X178788Y140788D01*
X178980Y140659D01*
Y135922D01*
X164779Y121721D01*
X164558Y121390D01*
X164480Y121000D01*
Y112341D01*
X164288Y112212D01*
X163916Y111656D01*
X163786Y111000D01*
X163916Y110344D01*
X164288Y109788D01*
X164844Y109416D01*
X165500Y109286D01*
X166156Y109416D01*
X166712Y109788D01*
X167084Y110344D01*
X167214Y111000D01*
X167084Y111656D01*
X166712Y112212D01*
X166520Y112341D01*
Y120578D01*
X180768Y134826D01*
X180989Y135157D01*
X181067Y135547D01*
X181020Y135785D01*
Y140659D01*
X181212Y140788D01*
X181584Y141344D01*
X181714Y142000D01*
X181584Y142656D01*
X181212Y143212D01*
X180881Y143433D01*
X181033Y143933D01*
X184612D01*
X184741Y143741D01*
X185297Y143369D01*
X185953Y143239D01*
X186609Y143369D01*
X187165Y143741D01*
X187480Y144213D01*
X187864Y144174D01*
X187980Y144130D01*
Y119422D01*
X172227Y103669D01*
X172000Y103714D01*
X171344Y103584D01*
X170788Y103212D01*
X170416Y102656D01*
X170286Y102000D01*
X170416Y101344D01*
X170788Y100788D01*
X171344Y100416D01*
X172000Y100286D01*
X172656Y100416D01*
X173212Y100788D01*
X173584Y101344D01*
X173714Y102000D01*
X173669Y102227D01*
X189721Y118279D01*
X189942Y118610D01*
X190020Y119000D01*
Y148500D01*
X189942Y148890D01*
X189721Y149221D01*
X179927Y159014D01*
X179954Y159054D01*
X180084Y159710D01*
X179954Y160366D01*
X179582Y160922D01*
X179026Y161293D01*
X178370Y161424D01*
X177714Y161293D01*
X177499Y161150D01*
X176999Y161417D01*
Y162057D01*
X178648Y163706D01*
X178869Y164037D01*
X178947Y164427D01*
Y165998D01*
X179139Y166127D01*
X179511Y166683D01*
X179641Y167339D01*
X179511Y167994D01*
X179139Y168551D01*
X178583Y168922D01*
X177927Y169053D01*
X177271Y168922D01*
X176715Y168551D01*
X176344Y167994D01*
X176213Y167339D01*
X176344Y166683D01*
X176715Y166127D01*
X176908Y165998D01*
Y164849D01*
X175258Y163200D01*
X175037Y162869D01*
X174960Y162479D01*
Y159817D01*
X170077Y154935D01*
X169599Y155080D01*
X169584Y155156D01*
X169212Y155712D01*
X168656Y156084D01*
X168000Y156214D01*
X167344Y156084D01*
X166788Y155712D01*
X166659Y155520D01*
X164422D01*
X155169Y164773D01*
X155214Y165000D01*
X155084Y165656D01*
X155044Y165716D01*
X155311Y166216D01*
X172500D01*
X173183Y166351D01*
X173762Y166738D01*
X180762Y173738D01*
X181149Y174317D01*
X181284Y175000D01*
X181149Y175683D01*
X180762Y176262D01*
X180183Y176648D01*
X179500Y176784D01*
D02*
G37*
G36*
X142500Y193214D02*
X141844Y193084D01*
X141288Y192712D01*
X140916Y192156D01*
X140786Y191500D01*
X140916Y190844D01*
X141288Y190288D01*
X141844Y189916D01*
X142500Y189786D01*
X143156Y189916D01*
X143712Y190288D01*
X143841Y190480D01*
X171078D01*
X185480Y176078D01*
Y167422D01*
X181966Y163908D01*
X181845Y163932D01*
X181190Y163801D01*
X180633Y163430D01*
X180262Y162873D01*
X180131Y162218D01*
X180262Y161562D01*
X180633Y161006D01*
X181190Y160634D01*
X181845Y160503D01*
X182501Y160634D01*
X183057Y161006D01*
X183429Y161562D01*
X183559Y162218D01*
X183493Y162551D01*
X187221Y166279D01*
X187442Y166610D01*
X187520Y167000D01*
Y176500D01*
X187442Y176890D01*
X187221Y177221D01*
X172221Y192221D01*
X171890Y192442D01*
X171500Y192520D01*
X143841D01*
X143712Y192712D01*
X143156Y193084D01*
X142500Y193214D01*
D02*
G37*
G36*
X58886Y148453D02*
X51980D01*
Y141547D01*
X58886D01*
Y148453D01*
D02*
G37*
G36*
X9567Y148483D02*
X8666Y148364D01*
X7826Y148016D01*
X7104Y147462D01*
X6551Y146741D01*
X6203Y145901D01*
X6084Y145000D01*
X6203Y144099D01*
X6551Y143259D01*
X7104Y142537D01*
X7826Y141984D01*
X8666Y141636D01*
X9567Y141517D01*
X10468Y141636D01*
X11308Y141984D01*
X12030Y142537D01*
X12583Y143259D01*
X12931Y144099D01*
X13049Y145000D01*
X12931Y145901D01*
X12583Y146741D01*
X12030Y147462D01*
X11308Y148016D01*
X10468Y148364D01*
X9567Y148483D01*
D02*
G37*
G36*
X268500Y130688D02*
X267804Y130597D01*
X267156Y130328D01*
X266599Y129901D01*
X266300Y129511D01*
X266195Y129474D01*
X265805D01*
X265700Y129511D01*
X265401Y129901D01*
X264844Y130328D01*
X264196Y130597D01*
X263500Y130688D01*
X262804Y130597D01*
X262156Y130328D01*
X261599Y129901D01*
X261172Y129344D01*
X260903Y128696D01*
X260812Y128000D01*
X260903Y127304D01*
X261172Y126656D01*
X261599Y126099D01*
X261989Y125800D01*
X262026Y125695D01*
Y125305D01*
X261989Y125200D01*
X261599Y124901D01*
X261172Y124344D01*
X261037Y124020D01*
X247500D01*
X247110Y123942D01*
X246779Y123721D01*
X223227Y100169D01*
X223000Y100214D01*
X222344Y100084D01*
X221788Y99712D01*
X221416Y99156D01*
X221286Y98500D01*
X221416Y97844D01*
X221788Y97288D01*
X222344Y96916D01*
X223000Y96786D01*
X223656Y96916D01*
X224212Y97288D01*
X224584Y97844D01*
X224714Y98500D01*
X224669Y98727D01*
X247922Y121980D01*
X261037D01*
X261172Y121656D01*
X261599Y121099D01*
X262156Y120672D01*
X262804Y120403D01*
X263500Y120312D01*
X264196Y120403D01*
X264844Y120672D01*
X265401Y121099D01*
X265700Y121489D01*
X265805Y121526D01*
X266195D01*
X266300Y121489D01*
X266599Y121099D01*
X267156Y120672D01*
X267804Y120403D01*
X268500Y120312D01*
X269196Y120403D01*
X269844Y120672D01*
X270401Y121099D01*
X270700Y121489D01*
X270805Y121526D01*
X271195D01*
X271300Y121489D01*
X271599Y121099D01*
X272156Y120672D01*
X272804Y120403D01*
X273500Y120312D01*
X274196Y120403D01*
X274844Y120672D01*
X275401Y121099D01*
X275700Y121489D01*
X275805Y121526D01*
X276195D01*
X276300Y121489D01*
X276599Y121099D01*
X277156Y120672D01*
X277804Y120403D01*
X278500Y120312D01*
X279196Y120403D01*
X279844Y120672D01*
X280401Y121099D01*
X280700Y121489D01*
X280805Y121526D01*
X281195D01*
X281300Y121489D01*
X281599Y121099D01*
X282156Y120672D01*
X282804Y120403D01*
X283500Y120312D01*
X284196Y120403D01*
X284844Y120672D01*
X285401Y121099D01*
X285828Y121656D01*
X286097Y122304D01*
X286188Y123000D01*
X286164Y123187D01*
X286637Y123421D01*
X288980Y121078D01*
Y91341D01*
X288788Y91212D01*
X288416Y90656D01*
X288286Y90000D01*
X288331Y89773D01*
X255578Y57020D01*
X246841D01*
X246712Y57212D01*
X246156Y57584D01*
X245500Y57714D01*
X244844Y57584D01*
X244288Y57212D01*
X243916Y56656D01*
X243786Y56000D01*
X243916Y55344D01*
X244288Y54788D01*
X244844Y54416D01*
X245500Y54286D01*
X246156Y54416D01*
X246712Y54788D01*
X246841Y54980D01*
X256000D01*
X256390Y55058D01*
X256721Y55279D01*
X289773Y88331D01*
X290000Y88286D01*
X290656Y88416D01*
X291212Y88788D01*
X291584Y89344D01*
X291714Y90000D01*
X291584Y90656D01*
X291212Y91212D01*
X291020Y91341D01*
Y121500D01*
X290942Y121890D01*
X290721Y122221D01*
X286165Y126777D01*
Y130665D01*
X280835D01*
Y130157D01*
X280594Y130015D01*
X280335Y129952D01*
X279844Y130328D01*
X279250Y130574D01*
Y128000D01*
X277750D01*
Y130574D01*
X277156Y130328D01*
X276599Y129901D01*
X276300Y129511D01*
X276195Y129474D01*
X275805D01*
X275700Y129511D01*
X275401Y129901D01*
X274844Y130328D01*
X274250Y130574D01*
Y128000D01*
X272750D01*
Y130574D01*
X272156Y130328D01*
X271599Y129901D01*
X271300Y129511D01*
X271195Y129474D01*
X270805D01*
X270700Y129511D01*
X270401Y129901D01*
X269844Y130328D01*
X269196Y130597D01*
X268500Y130688D01*
D02*
G37*
G36*
X15500Y135843D02*
X14360Y135731D01*
X13264Y135398D01*
X12254Y134858D01*
X11368Y134132D01*
X10642Y133246D01*
X10102Y132236D01*
X9769Y131140D01*
X9657Y130000D01*
X9769Y128860D01*
X10102Y127764D01*
X10642Y126754D01*
X11368Y125868D01*
X12254Y125142D01*
X13264Y124602D01*
X14360Y124269D01*
X15500Y124157D01*
X16640Y124269D01*
X17736Y124602D01*
X18746Y125142D01*
X19632Y125868D01*
X20358Y126754D01*
X20898Y127764D01*
X21231Y128860D01*
X21343Y130000D01*
X21231Y131140D01*
X20898Y132236D01*
X20358Y133246D01*
X19632Y134132D01*
X18746Y134858D01*
X17736Y135398D01*
X16640Y135731D01*
X15500Y135843D01*
D02*
G37*
G36*
X75250Y124427D02*
Y122250D01*
X77427D01*
X77423Y122283D01*
X77121Y123013D01*
X76640Y123640D01*
X76013Y124120D01*
X75283Y124423D01*
X75250Y124427D01*
D02*
G37*
G36*
X73750D02*
X73717Y124423D01*
X72987Y124120D01*
X72360Y123640D01*
X71880Y123013D01*
X71577Y122283D01*
X71573Y122250D01*
X73750D01*
Y124427D01*
D02*
G37*
G36*
X77427Y120750D02*
X75250D01*
Y118573D01*
X75283Y118577D01*
X76013Y118879D01*
X76640Y119360D01*
X77121Y119987D01*
X77423Y120717D01*
X77427Y120750D01*
D02*
G37*
G36*
X73750D02*
X71573D01*
X71577Y120717D01*
X71880Y119987D01*
X72360Y119360D01*
X72987Y118879D01*
X73717Y118577D01*
X73750Y118573D01*
Y120750D01*
D02*
G37*
G36*
X264250Y112390D02*
Y111250D01*
X265390D01*
X265384Y111280D01*
X264942Y111942D01*
X264280Y112384D01*
X264250Y112390D01*
D02*
G37*
G36*
X262750D02*
X262720Y112384D01*
X262058Y111942D01*
X261616Y111280D01*
X261610Y111250D01*
X262750D01*
Y112390D01*
D02*
G37*
G36*
X39122Y126112D02*
X37461Y125948D01*
X35864Y125464D01*
X34392Y124677D01*
X33102Y123618D01*
X32043Y122328D01*
X31257Y120856D01*
X30772Y119259D01*
X30609Y117598D01*
X30772Y115937D01*
X31257Y114340D01*
X32043Y112869D01*
X33102Y111579D01*
X34392Y110520D01*
X35864Y109733D01*
X37461Y109249D01*
X39122Y109085D01*
X40783Y109249D01*
X42380Y109733D01*
X43852Y110520D01*
X45142Y111579D01*
X46201Y112869D01*
X46987Y114340D01*
X47472Y115937D01*
X47635Y117598D01*
X47472Y119259D01*
X46987Y120856D01*
X46201Y122328D01*
X45142Y123618D01*
X43852Y124677D01*
X42380Y125464D01*
X40783Y125948D01*
X39122Y126112D01*
D02*
G37*
G36*
X265390Y109750D02*
X264250D01*
Y108610D01*
X264280Y108616D01*
X264942Y109058D01*
X265384Y109720D01*
X265390Y109750D01*
D02*
G37*
G36*
X262750D02*
X261610D01*
X261616Y109720D01*
X262058Y109058D01*
X262720Y108616D01*
X262750Y108610D01*
Y109750D01*
D02*
G37*
G36*
X39872Y97692D02*
Y90002D01*
X47562D01*
X47472Y90913D01*
X46987Y92510D01*
X46201Y93982D01*
X45142Y95272D01*
X43852Y96331D01*
X42380Y97117D01*
X40783Y97602D01*
X39872Y97692D01*
D02*
G37*
G36*
X38372D02*
X37461Y97602D01*
X35864Y97117D01*
X34392Y96331D01*
X33102Y95272D01*
X32043Y93982D01*
X31257Y92510D01*
X30772Y90913D01*
X30683Y90002D01*
X38372D01*
Y97692D01*
D02*
G37*
G36*
Y88502D02*
X30683D01*
X30772Y87591D01*
X31257Y85994D01*
X32043Y84522D01*
X33102Y83232D01*
X34392Y82173D01*
X35864Y81387D01*
X37461Y80902D01*
X38372Y80812D01*
Y88502D01*
D02*
G37*
G36*
X47562D02*
X39872D01*
Y80812D01*
X40783Y80902D01*
X42380Y81387D01*
X43852Y82173D01*
X45142Y83232D01*
X46201Y84522D01*
X46987Y85994D01*
X47472Y87591D01*
X47562Y88502D01*
D02*
G37*
G36*
X132579Y80135D02*
X131923Y80005D01*
X131367Y79633D01*
X131238Y79441D01*
X120921D01*
X120531Y79363D01*
X120200Y79142D01*
X117227Y76169D01*
X117000Y76214D01*
X116344Y76084D01*
X115788Y75712D01*
X115416Y75156D01*
X115286Y74500D01*
X115416Y73844D01*
X115788Y73288D01*
X116344Y72916D01*
X117000Y72786D01*
X117656Y72916D01*
X118212Y73288D01*
X118584Y73844D01*
X118714Y74500D01*
X118669Y74727D01*
X121344Y77402D01*
X131238D01*
X131367Y77209D01*
X131923Y76838D01*
X132579Y76707D01*
X133235Y76838D01*
X133791Y77209D01*
X134162Y77765D01*
X134293Y78421D01*
X134162Y79077D01*
X133791Y79633D01*
X133235Y80005D01*
X132579Y80135D01*
D02*
G37*
G36*
X125500Y119214D02*
X124844Y119084D01*
X124288Y118712D01*
X123916Y118156D01*
X123786Y117500D01*
X123916Y116844D01*
X124288Y116288D01*
X124844Y115916D01*
X125500Y115786D01*
X126156Y115916D01*
X126712Y116288D01*
X126841Y116480D01*
X147578D01*
X181279Y82779D01*
X181610Y82558D01*
X182000Y82480D01*
X211578D01*
X219331Y74727D01*
X219286Y74500D01*
X219416Y73844D01*
X219788Y73288D01*
X220344Y72916D01*
X221000Y72786D01*
X221656Y72916D01*
X222212Y73288D01*
X222584Y73844D01*
X222714Y74500D01*
X222584Y75156D01*
X222212Y75712D01*
X221656Y76084D01*
X221000Y76214D01*
X220773Y76169D01*
X212721Y84221D01*
X212390Y84442D01*
X212000Y84520D01*
X182422D01*
X148721Y118221D01*
X148390Y118442D01*
X148000Y118520D01*
X126841D01*
X126712Y118712D01*
X126156Y119084D01*
X125500Y119214D01*
D02*
G37*
G36*
X268062Y98979D02*
X267407Y98849D01*
X266850Y98477D01*
X266479Y97921D01*
X266349Y97265D01*
X266479Y96609D01*
X266755Y96197D01*
X242578Y72020D01*
X217422D01*
X212721Y76721D01*
X212390Y76942D01*
X212000Y77020D01*
X173582D01*
X170596Y80005D01*
X170641Y80232D01*
X170511Y80888D01*
X170139Y81444D01*
X169583Y81816D01*
X168927Y81946D01*
X168271Y81816D01*
X167715Y81444D01*
X167344Y80888D01*
X167213Y80232D01*
X167344Y79576D01*
X167715Y79020D01*
X168271Y78649D01*
X168927Y78518D01*
X169154Y78563D01*
X172439Y75279D01*
X172769Y75058D01*
X173160Y74980D01*
X211578D01*
X216279Y70279D01*
X216610Y70058D01*
X217000Y69980D01*
X243000D01*
X243390Y70058D01*
X243721Y70279D01*
X268783Y95341D01*
X269005Y95672D01*
X269051Y95904D01*
X269274Y96053D01*
X269646Y96609D01*
X269777Y97265D01*
X269646Y97921D01*
X269274Y98477D01*
X268718Y98849D01*
X268062Y98979D01*
D02*
G37*
G36*
X15500Y82693D02*
X14360Y82581D01*
X13264Y82249D01*
X12254Y81709D01*
X11368Y80982D01*
X10642Y80097D01*
X10102Y79087D01*
X9769Y77990D01*
X9657Y76850D01*
X9769Y75710D01*
X10102Y74614D01*
X10642Y73604D01*
X11368Y72719D01*
X12254Y71992D01*
X13264Y71452D01*
X14360Y71120D01*
X15500Y71007D01*
X16640Y71120D01*
X17736Y71452D01*
X18746Y71992D01*
X19632Y72719D01*
X20358Y73604D01*
X20898Y74614D01*
X21231Y75710D01*
X21343Y76850D01*
X21231Y77990D01*
X20898Y79087D01*
X20358Y80097D01*
X19632Y80982D01*
X18746Y81709D01*
X17736Y82249D01*
X16640Y82581D01*
X15500Y82693D01*
D02*
G37*
G36*
X210500Y74214D02*
X209844Y74084D01*
X209288Y73712D01*
X209159Y73520D01*
X120500D01*
X120110Y73442D01*
X119779Y73221D01*
X116727Y70169D01*
X116500Y70214D01*
X115844Y70084D01*
X115288Y69712D01*
X114916Y69156D01*
X114786Y68500D01*
X114916Y67844D01*
X115288Y67288D01*
X115844Y66916D01*
X116500Y66786D01*
X117156Y66916D01*
X117712Y67288D01*
X118084Y67844D01*
X118214Y68500D01*
X118169Y68727D01*
X120922Y71480D01*
X209159D01*
X209288Y71288D01*
X209844Y70916D01*
X210500Y70786D01*
X211156Y70916D01*
X211712Y71288D01*
X212084Y71844D01*
X212214Y72500D01*
X212084Y73156D01*
X211712Y73712D01*
X211156Y74084D01*
X210500Y74214D01*
D02*
G37*
G36*
X62250Y68927D02*
Y66750D01*
X64427D01*
X64423Y66783D01*
X64121Y67513D01*
X63640Y68140D01*
X63013Y68621D01*
X62283Y68923D01*
X62250Y68927D01*
D02*
G37*
G36*
X60750D02*
X60717Y68923D01*
X59987Y68621D01*
X59360Y68140D01*
X58880Y67513D01*
X58577Y66783D01*
X58573Y66750D01*
X60750D01*
Y68927D01*
D02*
G37*
G36*
X275500Y71825D02*
X274599Y71706D01*
X273759Y71359D01*
X273038Y70805D01*
X272484Y70084D01*
X272136Y69244D01*
X272018Y68343D01*
X272136Y67441D01*
X272484Y66601D01*
X273038Y65880D01*
X273759Y65326D01*
X274599Y64979D01*
X275500Y64860D01*
X276401Y64979D01*
X277241Y65326D01*
X277962Y65880D01*
X278516Y66601D01*
X278864Y67441D01*
X278982Y68343D01*
X278864Y69244D01*
X278516Y70084D01*
X277962Y70805D01*
X277241Y71359D01*
X276401Y71706D01*
X275500Y71825D01*
D02*
G37*
G36*
X64427Y65250D02*
X62250D01*
Y63073D01*
X62283Y63077D01*
X63013Y63380D01*
X63640Y63860D01*
X64121Y64487D01*
X64423Y65217D01*
X64427Y65250D01*
D02*
G37*
G36*
X60750D02*
X58573D01*
X58577Y65217D01*
X58880Y64487D01*
X59360Y63860D01*
X59987Y63380D01*
X60717Y63077D01*
X60750Y63073D01*
Y65250D01*
D02*
G37*
G36*
X89500Y93214D02*
X88844Y93084D01*
X88288Y92712D01*
X87916Y92156D01*
X87786Y91500D01*
X87916Y90844D01*
X88288Y90288D01*
X88480Y90159D01*
Y81833D01*
X88558Y81443D01*
X88779Y81112D01*
X109410Y60482D01*
X109219Y60020D01*
X93422D01*
X78669Y74773D01*
X78714Y75000D01*
X78584Y75656D01*
X78212Y76212D01*
X77656Y76584D01*
X77000Y76714D01*
X76344Y76584D01*
X75788Y76212D01*
X75416Y75656D01*
X75286Y75000D01*
X75416Y74344D01*
X75788Y73788D01*
X76344Y73416D01*
X77000Y73286D01*
X77227Y73331D01*
X92279Y58279D01*
X92610Y58058D01*
X93000Y57980D01*
X215300D01*
X215841Y57620D01*
X216496Y57489D01*
X217152Y57620D01*
X217708Y57991D01*
X218080Y58547D01*
X218211Y59203D01*
X218080Y59859D01*
X217708Y60415D01*
X217152Y60787D01*
X216496Y60917D01*
X215841Y60787D01*
X215284Y60415D01*
X215020Y60020D01*
X148515D01*
X148324Y60482D01*
X151473Y63631D01*
X151700Y63586D01*
X152356Y63716D01*
X152912Y64088D01*
X153284Y64644D01*
X153414Y65300D01*
X153284Y65956D01*
X152912Y66512D01*
X152356Y66884D01*
X151700Y67014D01*
X151044Y66884D01*
X150488Y66512D01*
X150116Y65956D01*
X149986Y65300D01*
X150031Y65073D01*
X146552Y61593D01*
X111182D01*
X90520Y82256D01*
Y90159D01*
X90712Y90288D01*
X91084Y90844D01*
X91214Y91500D01*
X91084Y92156D01*
X90712Y92712D01*
X90156Y93084D01*
X89500Y93214D01*
D02*
G37*
G36*
X275500Y61983D02*
X274599Y61864D01*
X273759Y61516D01*
X273038Y60962D01*
X272484Y60241D01*
X272136Y59401D01*
X272018Y58500D01*
X272136Y57599D01*
X272484Y56759D01*
X273038Y56037D01*
X273759Y55484D01*
X274599Y55136D01*
X275500Y55018D01*
X276401Y55136D01*
X277241Y55484D01*
X277962Y56037D01*
X278516Y56759D01*
X278864Y57599D01*
X278982Y58500D01*
X278864Y59401D01*
X278516Y60241D01*
X277962Y60962D01*
X277241Y61516D01*
X276401Y61864D01*
X275500Y61983D01*
D02*
G37*
G36*
X276250Y52041D02*
Y49408D01*
X278884D01*
X278864Y49559D01*
X278516Y50399D01*
X277962Y51120D01*
X277241Y51674D01*
X276401Y52021D01*
X276250Y52041D01*
D02*
G37*
G36*
X274750D02*
X274599Y52021D01*
X273759Y51674D01*
X273038Y51120D01*
X272484Y50399D01*
X272136Y49559D01*
X272116Y49408D01*
X274750D01*
Y52041D01*
D02*
G37*
G36*
X116250Y49927D02*
Y47750D01*
X118427D01*
X118423Y47783D01*
X118121Y48513D01*
X117640Y49140D01*
X117013Y49621D01*
X116283Y49923D01*
X116250Y49927D01*
D02*
G37*
G36*
X114750D02*
X114717Y49923D01*
X113987Y49621D01*
X113360Y49140D01*
X112880Y48513D01*
X112577Y47783D01*
X112573Y47750D01*
X114750D01*
Y49927D01*
D02*
G37*
G36*
X278884Y47908D02*
X276250D01*
Y45274D01*
X276401Y45294D01*
X277241Y45641D01*
X277962Y46195D01*
X278516Y46916D01*
X278864Y47756D01*
X278884Y47908D01*
D02*
G37*
G36*
X274750D02*
X272116D01*
X272136Y47756D01*
X272484Y46916D01*
X273038Y46195D01*
X273759Y45641D01*
X274599Y45294D01*
X274750Y45274D01*
Y47908D01*
D02*
G37*
G36*
X118427Y46250D02*
X116250D01*
Y44073D01*
X116283Y44077D01*
X117013Y44379D01*
X117640Y44860D01*
X118121Y45487D01*
X118423Y46217D01*
X118427Y46250D01*
D02*
G37*
G36*
X114750D02*
X112573D01*
X112577Y46217D01*
X112880Y45487D01*
X113360Y44860D01*
X113987Y44379D01*
X114717Y44077D01*
X114750Y44073D01*
Y46250D01*
D02*
G37*
G36*
X275500Y42298D02*
X274599Y42179D01*
X273759Y41831D01*
X273038Y41278D01*
X272484Y40556D01*
X272136Y39716D01*
X272018Y38815D01*
X272136Y37914D01*
X272484Y37074D01*
X273038Y36352D01*
X273759Y35799D01*
X274599Y35451D01*
X275500Y35332D01*
X276401Y35451D01*
X277241Y35799D01*
X277962Y36352D01*
X278516Y37074D01*
X278864Y37914D01*
X278982Y38815D01*
X278864Y39716D01*
X278516Y40556D01*
X277962Y41278D01*
X277241Y41831D01*
X276401Y42179D01*
X275500Y42298D01*
D02*
G37*
G36*
X182010Y32660D02*
Y28329D01*
X186341D01*
X186264Y28920D01*
X185746Y30169D01*
X184923Y31242D01*
X183850Y32065D01*
X182601Y32582D01*
X182010Y32660D01*
D02*
G37*
G36*
X180510D02*
X179919Y32582D01*
X178670Y32065D01*
X177597Y31242D01*
X176774Y30169D01*
X176256Y28920D01*
X176178Y28329D01*
X180510D01*
Y32660D01*
D02*
G37*
G36*
X160750D02*
Y28329D01*
X165081D01*
X165004Y28920D01*
X164486Y30169D01*
X163663Y31242D01*
X162590Y32065D01*
X161341Y32582D01*
X160750Y32660D01*
D02*
G37*
G36*
X159250D02*
X158659Y32582D01*
X157410Y32065D01*
X156337Y31242D01*
X155514Y30169D01*
X154996Y28920D01*
X154919Y28329D01*
X159250D01*
Y32660D01*
D02*
G37*
G36*
X186341Y26829D02*
X182010D01*
Y22497D01*
X182601Y22575D01*
X183850Y23093D01*
X184923Y23916D01*
X185746Y24989D01*
X186264Y26238D01*
X186341Y26829D01*
D02*
G37*
G36*
X180510D02*
X176178D01*
X176256Y26238D01*
X176774Y24989D01*
X177597Y23916D01*
X178670Y23093D01*
X179919Y22575D01*
X180510Y22497D01*
Y26829D01*
D02*
G37*
G36*
X165081D02*
X160750D01*
Y22497D01*
X161341Y22575D01*
X162590Y23093D01*
X163663Y23916D01*
X164486Y24989D01*
X165004Y26238D01*
X165081Y26829D01*
D02*
G37*
G36*
X159250D02*
X154919D01*
X154996Y26238D01*
X155514Y24989D01*
X156337Y23916D01*
X157410Y23093D01*
X158659Y22575D01*
X159250Y22497D01*
Y26829D01*
D02*
G37*
G36*
X143760Y32759D02*
X142419Y32582D01*
X141170Y32065D01*
X140097Y31242D01*
X139274Y30169D01*
X138756Y28920D01*
X138580Y27579D01*
X138756Y26238D01*
X139274Y24989D01*
X140097Y23916D01*
X141170Y23093D01*
X142419Y22575D01*
X143760Y22399D01*
X145101Y22575D01*
X146350Y23093D01*
X147423Y23916D01*
X148246Y24989D01*
X148764Y26238D01*
X148940Y27579D01*
X148764Y28920D01*
X148246Y30169D01*
X147423Y31242D01*
X146350Y32065D01*
X145101Y32582D01*
X143760Y32759D01*
D02*
G37*
G36*
X122500D02*
X121159Y32582D01*
X119910Y32065D01*
X118837Y31242D01*
X118014Y30169D01*
X117496Y28920D01*
X117320Y27579D01*
X117496Y26238D01*
X118014Y24989D01*
X118837Y23916D01*
X119910Y23093D01*
X121159Y22575D01*
X122500Y22399D01*
X123841Y22575D01*
X125090Y23093D01*
X126163Y23916D01*
X126986Y24989D01*
X127504Y26238D01*
X127680Y27579D01*
X127504Y28920D01*
X126986Y30169D01*
X126163Y31242D01*
X125090Y32065D01*
X123841Y32582D01*
X122500Y32759D01*
D02*
G37*
G36*
X68610Y32680D02*
X67269Y32504D01*
X66020Y31986D01*
X64947Y31163D01*
X64124Y30090D01*
X63606Y28841D01*
X63430Y27500D01*
X63606Y26159D01*
X64124Y24910D01*
X64947Y23837D01*
X66020Y23014D01*
X67269Y22496D01*
X68610Y22320D01*
X69951Y22496D01*
X71200Y23014D01*
X72273Y23837D01*
X73096Y24910D01*
X73614Y26159D01*
X73790Y27500D01*
X73614Y28841D01*
X73096Y30090D01*
X72273Y31163D01*
X71200Y31986D01*
X69951Y32504D01*
X68610Y32680D01*
D02*
G37*
G36*
X47350D02*
X46009Y32504D01*
X44760Y31986D01*
X43687Y31163D01*
X42864Y30090D01*
X42346Y28841D01*
X42170Y27500D01*
X42346Y26159D01*
X42864Y24910D01*
X43687Y23837D01*
X44760Y23014D01*
X46009Y22496D01*
X47350Y22320D01*
X48691Y22496D01*
X49940Y23014D01*
X51013Y23837D01*
X51836Y24910D01*
X52354Y26159D01*
X52530Y27500D01*
X52354Y28841D01*
X51836Y30090D01*
X51013Y31163D01*
X49940Y31986D01*
X48691Y32504D01*
X47350Y32680D01*
D02*
G37*
G36*
X106260Y32664D02*
X104919Y32488D01*
X103670Y31970D01*
X102597Y31147D01*
X101774Y30074D01*
X101256Y28825D01*
X101080Y27484D01*
X101256Y26144D01*
X101774Y24894D01*
X102597Y23821D01*
X103670Y22998D01*
X104919Y22481D01*
X106260Y22304D01*
X107601Y22481D01*
X108850Y22998D01*
X109923Y23821D01*
X110746Y24894D01*
X111264Y26144D01*
X111440Y27484D01*
X111264Y28825D01*
X110746Y30074D01*
X109923Y31147D01*
X108850Y31970D01*
X107601Y32488D01*
X106260Y32664D01*
D02*
G37*
G36*
X85000D02*
X83659Y32488D01*
X82410Y31970D01*
X81337Y31147D01*
X80514Y30074D01*
X79996Y28825D01*
X79820Y27484D01*
X79996Y26144D01*
X80514Y24894D01*
X81337Y23821D01*
X82410Y22998D01*
X83659Y22481D01*
X85000Y22304D01*
X86341Y22481D01*
X87590Y22998D01*
X88663Y23821D01*
X89486Y24894D01*
X90004Y26144D01*
X90180Y27484D01*
X90004Y28825D01*
X89486Y30074D01*
X88663Y31147D01*
X87590Y31970D01*
X86341Y32488D01*
X85000Y32664D01*
D02*
G37*
G36*
X275750Y24395D02*
Y13250D01*
X286895D01*
X286807Y14370D01*
X286369Y16194D01*
X285651Y17927D01*
X284671Y19526D01*
X283453Y20953D01*
X282027Y22171D01*
X280427Y23151D01*
X278694Y23869D01*
X276870Y24307D01*
X275750Y24395D01*
D02*
G37*
G36*
X274250D02*
X273130Y24307D01*
X271306Y23869D01*
X269573Y23151D01*
X267973Y22171D01*
X266547Y20953D01*
X265329Y19526D01*
X264349Y17927D01*
X263631Y16194D01*
X263193Y14370D01*
X263105Y13250D01*
X274250D01*
Y24395D01*
D02*
G37*
G36*
X13250D02*
Y13250D01*
X24395D01*
X24307Y14370D01*
X23869Y16194D01*
X23151Y17927D01*
X22171Y19526D01*
X20953Y20953D01*
X19526Y22171D01*
X17927Y23151D01*
X16194Y23869D01*
X14370Y24307D01*
X13250Y24395D01*
D02*
G37*
G36*
X215250Y14182D02*
Y11250D01*
X218182D01*
X218152Y11478D01*
X217774Y12390D01*
X217173Y13173D01*
X216390Y13774D01*
X215478Y14152D01*
X215250Y14182D01*
D02*
G37*
G36*
X213750D02*
X213522Y14152D01*
X212610Y13774D01*
X211827Y13173D01*
X211226Y12390D01*
X210848Y11478D01*
X210818Y11250D01*
X213750D01*
Y14182D01*
D02*
G37*
G36*
X182010Y12581D02*
Y8250D01*
X186341D01*
X186264Y8841D01*
X185746Y10090D01*
X184923Y11163D01*
X183850Y11986D01*
X182601Y12504D01*
X182010Y12581D01*
D02*
G37*
G36*
X180510D02*
X179919Y12504D01*
X178670Y11986D01*
X177597Y11163D01*
X176774Y10090D01*
X176256Y8841D01*
X176178Y8250D01*
X180510D01*
Y12581D01*
D02*
G37*
G36*
X160750D02*
Y8250D01*
X165081D01*
X165004Y8841D01*
X164486Y10090D01*
X163663Y11163D01*
X162590Y11986D01*
X161341Y12504D01*
X160750Y12581D01*
D02*
G37*
G36*
X159250D02*
X158659Y12504D01*
X157410Y11986D01*
X156337Y11163D01*
X155514Y10090D01*
X154996Y8841D01*
X154919Y8250D01*
X159250D01*
Y12581D01*
D02*
G37*
G36*
X218182Y9750D02*
X215250D01*
Y6818D01*
X215478Y6848D01*
X216390Y7226D01*
X217173Y7827D01*
X217774Y8610D01*
X218152Y9522D01*
X218182Y9750D01*
D02*
G37*
G36*
X213750D02*
X210818D01*
X210848Y9522D01*
X211226Y8610D01*
X211827Y7827D01*
X212610Y7226D01*
X213522Y6848D01*
X213750Y6818D01*
Y9750D01*
D02*
G37*
G36*
X208405Y14248D02*
X200909D01*
Y6752D01*
X208405D01*
Y14248D01*
D02*
G37*
G36*
X225200Y66814D02*
X224544Y66684D01*
X223988Y66312D01*
X223616Y65756D01*
X223486Y65100D01*
X223616Y64444D01*
X223988Y63888D01*
X224180Y63759D01*
Y31710D01*
X223979Y31509D01*
X223758Y31178D01*
X223680Y30788D01*
X223758Y30397D01*
X223979Y30067D01*
X224086Y29960D01*
X224058Y29918D01*
X223980Y29528D01*
X224058Y29137D01*
X224279Y28807D01*
X240737Y12349D01*
X240376Y11478D01*
X240247Y10500D01*
X240376Y9522D01*
X240754Y8610D01*
X241354Y7827D01*
X242137Y7226D01*
X243049Y6848D01*
X244028Y6720D01*
X245006Y6848D01*
X245918Y7226D01*
X246701Y7827D01*
X247302Y8610D01*
X247679Y9522D01*
X247808Y10500D01*
X247679Y11478D01*
X247302Y12390D01*
X246701Y13173D01*
X245918Y13774D01*
X245006Y14152D01*
X244028Y14280D01*
X243049Y14152D01*
X242179Y13791D01*
X226394Y29575D01*
X226422Y29617D01*
X226500Y30008D01*
X226422Y30398D01*
X226201Y30729D01*
X226098Y30832D01*
X226142Y30897D01*
X226220Y31288D01*
Y63759D01*
X226412Y63888D01*
X226784Y64444D01*
X226914Y65100D01*
X226784Y65756D01*
X226412Y66312D01*
X225856Y66684D01*
X225200Y66814D01*
D02*
G37*
G36*
X234185Y14280D02*
X233207Y14152D01*
X232295Y13774D01*
X231512Y13173D01*
X230911Y12390D01*
X230534Y11478D01*
X230405Y10500D01*
X230534Y9522D01*
X230911Y8610D01*
X231512Y7827D01*
X232295Y7226D01*
X233207Y6848D01*
X234185Y6720D01*
X235163Y6848D01*
X236075Y7226D01*
X236858Y7827D01*
X237459Y8610D01*
X237837Y9522D01*
X237965Y10500D01*
X237837Y11478D01*
X237459Y12390D01*
X236858Y13173D01*
X236075Y13774D01*
X235163Y14152D01*
X234185Y14280D01*
D02*
G37*
G36*
X224342D02*
X223364Y14152D01*
X222452Y13774D01*
X221669Y13173D01*
X221069Y12390D01*
X220691Y11478D01*
X220562Y10500D01*
X220691Y9522D01*
X221069Y8610D01*
X221669Y7827D01*
X222452Y7226D01*
X223364Y6848D01*
X224342Y6720D01*
X225321Y6848D01*
X226233Y7226D01*
X227016Y7827D01*
X227616Y8610D01*
X227994Y9522D01*
X228123Y10500D01*
X227994Y11478D01*
X227616Y12390D01*
X227016Y13173D01*
X226233Y13774D01*
X225321Y14152D01*
X224342Y14280D01*
D02*
G37*
G36*
X186341Y6750D02*
X182010D01*
Y2419D01*
X182601Y2496D01*
X183850Y3014D01*
X184923Y3837D01*
X185746Y4910D01*
X186264Y6159D01*
X186341Y6750D01*
D02*
G37*
G36*
X180510D02*
X176178D01*
X176256Y6159D01*
X176774Y4910D01*
X177597Y3837D01*
X178670Y3014D01*
X179919Y2496D01*
X180510Y2419D01*
Y6750D01*
D02*
G37*
G36*
X165081D02*
X160750D01*
Y2419D01*
X161341Y2496D01*
X162590Y3014D01*
X163663Y3837D01*
X164486Y4910D01*
X165004Y6159D01*
X165081Y6750D01*
D02*
G37*
G36*
X159250D02*
X154919D01*
X154996Y6159D01*
X155514Y4910D01*
X156337Y3837D01*
X157410Y3014D01*
X158659Y2496D01*
X159250Y2419D01*
Y6750D01*
D02*
G37*
G36*
X143760Y12680D02*
X142419Y12504D01*
X141170Y11986D01*
X140097Y11163D01*
X139274Y10090D01*
X138756Y8841D01*
X138580Y7500D01*
X138756Y6159D01*
X139274Y4910D01*
X140097Y3837D01*
X141170Y3014D01*
X142419Y2496D01*
X143760Y2320D01*
X145101Y2496D01*
X146350Y3014D01*
X147423Y3837D01*
X148246Y4910D01*
X148764Y6159D01*
X148940Y7500D01*
X148764Y8841D01*
X148246Y10090D01*
X147423Y11163D01*
X146350Y11986D01*
X145101Y12504D01*
X143760Y12680D01*
D02*
G37*
G36*
X122500D02*
X121159Y12504D01*
X119910Y11986D01*
X118837Y11163D01*
X118014Y10090D01*
X117496Y8841D01*
X117320Y7500D01*
X117496Y6159D01*
X118014Y4910D01*
X118837Y3837D01*
X119910Y3014D01*
X121159Y2496D01*
X122500Y2320D01*
X123841Y2496D01*
X125090Y3014D01*
X126163Y3837D01*
X126986Y4910D01*
X127504Y6159D01*
X127680Y7500D01*
X127504Y8841D01*
X126986Y10090D01*
X126163Y11163D01*
X125090Y11986D01*
X123841Y12504D01*
X122500Y12680D01*
D02*
G37*
G36*
X68610Y12601D02*
X67269Y12425D01*
X66020Y11907D01*
X64947Y11084D01*
X64124Y10011D01*
X63606Y8762D01*
X63430Y7421D01*
X63606Y6081D01*
X64124Y4831D01*
X64947Y3758D01*
X66020Y2935D01*
X67269Y2418D01*
X68610Y2241D01*
X69951Y2418D01*
X71200Y2935D01*
X72273Y3758D01*
X73096Y4831D01*
X73614Y6081D01*
X73790Y7421D01*
X73614Y8762D01*
X73096Y10011D01*
X72273Y11084D01*
X71200Y11907D01*
X69951Y12425D01*
X68610Y12601D01*
D02*
G37*
G36*
X47350D02*
X46009Y12425D01*
X44760Y11907D01*
X43687Y11084D01*
X42864Y10011D01*
X42346Y8762D01*
X42170Y7421D01*
X42346Y6081D01*
X42864Y4831D01*
X43687Y3758D01*
X44760Y2935D01*
X46009Y2418D01*
X47350Y2241D01*
X48691Y2418D01*
X49940Y2935D01*
X51013Y3758D01*
X51836Y4831D01*
X52354Y6081D01*
X52530Y7421D01*
X52354Y8762D01*
X51836Y10011D01*
X51013Y11084D01*
X49940Y11907D01*
X48691Y12425D01*
X47350Y12601D01*
D02*
G37*
G36*
X106260Y12586D02*
X104919Y12409D01*
X103670Y11892D01*
X102597Y11068D01*
X101774Y9996D01*
X101256Y8746D01*
X101080Y7406D01*
X101256Y6065D01*
X101774Y4815D01*
X102597Y3743D01*
X103670Y2919D01*
X104919Y2402D01*
X106260Y2225D01*
X107601Y2402D01*
X108850Y2919D01*
X109923Y3743D01*
X110746Y4815D01*
X111264Y6065D01*
X111440Y7406D01*
X111264Y8746D01*
X110746Y9996D01*
X109923Y11068D01*
X108850Y11892D01*
X107601Y12409D01*
X106260Y12586D01*
D02*
G37*
G36*
X85000D02*
X83659Y12409D01*
X82410Y11892D01*
X81337Y11068D01*
X80514Y9996D01*
X79996Y8746D01*
X79820Y7406D01*
X79996Y6065D01*
X80514Y4815D01*
X81337Y3743D01*
X82410Y2919D01*
X83659Y2402D01*
X85000Y2225D01*
X86341Y2402D01*
X87590Y2919D01*
X88663Y3743D01*
X89486Y4815D01*
X90004Y6065D01*
X90180Y7406D01*
X90004Y8746D01*
X89486Y9996D01*
X88663Y11068D01*
X87590Y11892D01*
X86341Y12409D01*
X85000Y12586D01*
D02*
G37*
%LPD*%
D78*
X146974Y60574D02*
X151700Y65300D01*
X89500Y81833D02*
X110759Y60574D01*
X146974D01*
X93000Y59000D02*
X216500D01*
X225200Y31288D02*
Y65100D01*
X224700Y30788D02*
X225200Y31288D01*
X224700Y30788D02*
X225480Y30008D01*
X225000Y29528D02*
X225480Y30008D01*
X178080Y159420D02*
X178370Y159710D01*
X175979Y159395D02*
Y162479D01*
X177927Y164427D02*
Y167339D01*
X175979Y162479D02*
X177927Y164427D01*
X178080Y159420D02*
X178292Y159208D01*
X172500Y137500D02*
Y138000D01*
X179453Y144953D02*
X185953D01*
X172500Y138000D02*
X179453Y144953D01*
X180000Y135594D02*
Y142000D01*
Y135594D02*
X180047Y135547D01*
X165500Y121000D02*
X180047Y135547D01*
X290000Y90000D02*
Y121500D01*
X283500Y128000D02*
X290000Y121500D01*
X256000Y56000D02*
X290000Y90000D01*
X245500Y56000D02*
X256000D01*
X116500Y68500D02*
X120500Y72500D01*
X216496Y59004D02*
Y59203D01*
Y59004D02*
X216500Y59000D01*
X77000Y75000D02*
X93000Y59000D01*
X225000Y29528D02*
X244028Y10500D01*
X223000Y98500D02*
X247500Y123000D01*
X263500D01*
X89500Y81833D02*
Y91500D01*
X120500Y72500D02*
X210500D01*
X120921Y78421D02*
X132579D01*
X117000Y74500D02*
X120921Y78421D01*
X268062Y96062D02*
Y97265D01*
X243000Y71000D02*
X268062Y96062D01*
X217000Y71000D02*
X243000D01*
X212000Y76000D02*
X217000Y71000D01*
X173160Y76000D02*
X212000D01*
X168927Y80232D02*
X173160Y76000D01*
X212000Y83500D02*
X221000Y74500D01*
X182000Y83500D02*
X212000D01*
X148000Y117500D02*
X182000Y83500D01*
X125500Y117500D02*
X148000D01*
X172000Y102000D02*
X189000Y119000D01*
X165500Y111000D02*
Y121000D01*
X189000Y119000D02*
Y148500D01*
X178292Y159208D02*
X189000Y148500D01*
X181845Y162218D02*
Y162345D01*
X186500Y167000D01*
X151084Y134500D02*
X175979Y159395D01*
X136500Y134500D02*
X151084D01*
X164000Y154500D02*
X168000D01*
X153500Y165000D02*
X164000Y154500D01*
X142500Y191500D02*
X171500D01*
X186500Y176500D01*
Y167000D02*
Y176500D01*
D79*
X139500Y168000D02*
X149500Y158000D01*
X135500Y172000D02*
X139500Y168000D01*
X149500Y148000D02*
Y158000D01*
X126500Y172000D02*
X135500D01*
D81*
X172500Y168000D02*
X179500Y175000D01*
X139500Y168000D02*
X172500D01*
D95*
X85000Y27484D02*
D03*
X106260D02*
D03*
X85000Y7406D02*
D03*
X106260D02*
D03*
X160000Y27579D02*
D03*
X181260D02*
D03*
X160000Y7500D02*
D03*
X181260D02*
D03*
X122500Y27579D02*
D03*
X143760D02*
D03*
X122500Y7500D02*
D03*
X143760D02*
D03*
X47350Y27500D02*
D03*
X68610D02*
D03*
X47350Y7421D02*
D03*
X68610D02*
D03*
D96*
X275000Y12500D02*
D03*
X12500Y187500D02*
D03*
Y12500D02*
D03*
D97*
X275500Y68343D02*
D03*
Y58500D02*
D03*
Y48658D02*
D03*
Y38815D02*
D03*
X9567Y145000D02*
D03*
D98*
X263500Y123000D02*
D03*
Y128000D02*
D03*
X268500Y123000D02*
D03*
Y128000D02*
D03*
X273500Y123000D02*
D03*
Y128000D02*
D03*
X278500Y123000D02*
D03*
Y128000D02*
D03*
X283500Y123000D02*
D03*
D99*
Y128000D02*
D03*
D100*
X204658Y10500D02*
D03*
D101*
X214500D02*
D03*
X224342D02*
D03*
X234185D02*
D03*
X244028D02*
D03*
D102*
X15500Y76850D02*
D03*
Y130000D02*
D03*
D103*
X39122Y117598D02*
D03*
Y89252D02*
D03*
D104*
X55433Y145000D02*
D03*
D105*
X151700Y65300D02*
D03*
X225200Y65100D02*
D03*
X178370Y159710D02*
D03*
X172500Y137500D02*
D03*
X180000Y142000D02*
D03*
X185953Y144953D02*
D03*
X290000Y90000D02*
D03*
X245500Y56000D02*
D03*
X116500Y68500D02*
D03*
X117000Y74500D02*
D03*
X216496Y59203D02*
D03*
X77000Y75000D02*
D03*
X223000Y98500D02*
D03*
X89500Y91500D02*
D03*
X132579Y78421D02*
D03*
X268062Y97265D02*
D03*
X210500Y72500D02*
D03*
X168927Y80232D02*
D03*
X177927Y167339D02*
D03*
X221000Y74500D02*
D03*
X172000Y102000D02*
D03*
X165500Y111000D02*
D03*
X125500Y117500D02*
D03*
X181845Y162218D02*
D03*
X168000Y154500D02*
D03*
X153500Y165000D02*
D03*
X142500Y191500D02*
D03*
X179500Y175000D02*
D03*
X136500Y134500D02*
D03*
D106*
X263500Y110500D02*
D03*
D107*
X115500Y47000D02*
D03*
X61500Y66000D02*
D03*
X74500Y121500D02*
D03*
X149500Y148000D02*
D03*
X126500Y172000D02*
D03*
M02*
