G04*
G04 #@! TF.GenerationSoftware,Altium Limited,Altium Designer,20.1.11 (218)*
G04*
G04 Layer_Color=16711935*
%FSLAX25Y25*%
%MOIN*%
G70*
G04*
G04 #@! TF.SameCoordinates,7BCCE59C-3DE7-4F21-A10E-2C10B2644855*
G04*
G04*
G04 #@! TF.FilePolarity,Negative*
G04*
G01*
G75*
%ADD65C,0.09862*%
%ADD66C,0.23425*%
%ADD67C,0.06496*%
%ADD68C,0.04921*%
%ADD69R,0.04921X0.04921*%
%ADD70R,0.07087X0.07087*%
%ADD71C,0.07087*%
%ADD72C,0.11221*%
%ADD73C,0.16535*%
%ADD74R,0.06496X0.06496*%
%ADD75C,0.02953*%
%ADD76C,0.03591*%
%ADD77C,0.05591*%
D65*
X85000Y27484D02*
D03*
X106260D02*
D03*
X85000Y7406D02*
D03*
X106260D02*
D03*
X160000Y27579D02*
D03*
X181260D02*
D03*
X160000Y7500D02*
D03*
X181260D02*
D03*
X122500Y27579D02*
D03*
X143760D02*
D03*
X122500Y7500D02*
D03*
X143760D02*
D03*
X47350Y27500D02*
D03*
X68610D02*
D03*
X47350Y7421D02*
D03*
X68610D02*
D03*
D66*
X275000Y12500D02*
D03*
X12500Y187500D02*
D03*
Y12500D02*
D03*
D67*
X275500Y68343D02*
D03*
Y58500D02*
D03*
Y48658D02*
D03*
Y38815D02*
D03*
X9567Y145000D02*
D03*
D68*
X263500Y123000D02*
D03*
Y128000D02*
D03*
X268500Y123000D02*
D03*
Y128000D02*
D03*
X273500Y123000D02*
D03*
Y128000D02*
D03*
X278500Y123000D02*
D03*
Y128000D02*
D03*
X283500Y123000D02*
D03*
D69*
Y128000D02*
D03*
D70*
X204658Y10500D02*
D03*
D71*
X214500D02*
D03*
X224342D02*
D03*
X234185D02*
D03*
X244028D02*
D03*
D72*
X15500Y76850D02*
D03*
Y130000D02*
D03*
D73*
X39122Y117598D02*
D03*
Y89252D02*
D03*
D74*
X55433Y145000D02*
D03*
D75*
X151700Y65300D02*
D03*
X225200Y65100D02*
D03*
X178370Y159710D02*
D03*
X172500Y137500D02*
D03*
X180000Y142000D02*
D03*
X185953Y144953D02*
D03*
X290000Y90000D02*
D03*
X245500Y56000D02*
D03*
X116500Y68500D02*
D03*
X117000Y74500D02*
D03*
X216496Y59203D02*
D03*
X77000Y75000D02*
D03*
X223000Y98500D02*
D03*
X89500Y91500D02*
D03*
X132579Y78421D02*
D03*
X268062Y97265D02*
D03*
X210500Y72500D02*
D03*
X168927Y80232D02*
D03*
X177927Y167339D02*
D03*
X221000Y74500D02*
D03*
X172000Y102000D02*
D03*
X165500Y111000D02*
D03*
X125500Y117500D02*
D03*
X181845Y162218D02*
D03*
X168000Y154500D02*
D03*
X153500Y165000D02*
D03*
X142500Y191500D02*
D03*
X179500Y175000D02*
D03*
X136500Y134500D02*
D03*
D76*
X263500Y110500D02*
D03*
D77*
X115500Y47000D02*
D03*
X61500Y66000D02*
D03*
X74500Y121500D02*
D03*
X149500Y148000D02*
D03*
X126500Y172000D02*
D03*
M02*
