G04*
G04 #@! TF.GenerationSoftware,Altium Limited,Altium Designer,20.1.11 (218)*
G04*
G04 Layer_Color=8388736*
%FSLAX25Y25*%
%MOIN*%
G70*
G04*
G04 #@! TF.SameCoordinates,737DE9AA-1C00-43EB-A6BF-E1ECB243433D*
G04*
G04*
G04 #@! TF.FilePolarity,Negative*
G04*
G01*
G75*
%ADD40R,0.10039X0.08071*%
%ADD41R,0.04331X0.04134*%
%ADD42R,0.06102X0.04921*%
%ADD43R,0.04921X0.06102*%
%ADD44R,0.06693X0.03347*%
%ADD45R,0.04921X0.07284*%
%ADD46R,0.02953X0.05315*%
%ADD47R,0.11378X0.15787*%
%ADD48R,0.06299X0.02362*%
%ADD49R,0.07284X0.04921*%
%ADD50R,0.02244X0.03347*%
%ADD51R,0.09921X0.06693*%
%ADD52R,0.03347X0.02244*%
%ADD53R,0.06693X0.09921*%
%ADD54R,0.04331X0.07480*%
%ADD55R,0.13189X0.07480*%
%ADD56R,0.06102X0.01772*%
%ADD57R,0.06398X0.02953*%
%ADD58R,0.02953X0.06398*%
%ADD59R,0.05512X0.02953*%
%ADD60R,0.05315X0.02953*%
%ADD61R,0.06693X0.09843*%
%ADD62R,0.09843X0.06693*%
%ADD63R,0.04921X0.02559*%
%ADD64R,0.06693X0.09646*%
%ADD65C,0.09862*%
%ADD66C,0.23425*%
%ADD67C,0.06496*%
%ADD68C,0.04921*%
%ADD69R,0.04921X0.04921*%
%ADD70R,0.07087X0.07087*%
%ADD71C,0.07087*%
%ADD72C,0.11221*%
%ADD73C,0.16535*%
%ADD74R,0.06496X0.06496*%
%ADD75C,0.02953*%
%ADD76C,0.03591*%
%ADD77C,0.05591*%
D40*
X202000Y111571D02*
D03*
Y95429D02*
D03*
D41*
X238500Y155850D02*
D03*
Y162150D02*
D03*
X248500Y155850D02*
D03*
Y162150D02*
D03*
X258500Y155850D02*
D03*
Y162150D02*
D03*
X268500Y155850D02*
D03*
Y162150D02*
D03*
X278500Y155850D02*
D03*
Y162150D02*
D03*
X288000Y155850D02*
D03*
Y162150D02*
D03*
D42*
X238500Y185906D02*
D03*
Y180000D02*
D03*
X248500Y185953D02*
D03*
Y180047D02*
D03*
X278500Y185953D02*
D03*
Y180047D02*
D03*
X288000Y185906D02*
D03*
Y180000D02*
D03*
X268500Y185906D02*
D03*
Y180000D02*
D03*
X258500Y185953D02*
D03*
Y180047D02*
D03*
X144000Y61047D02*
D03*
Y66953D02*
D03*
X136500Y66953D02*
D03*
Y61047D02*
D03*
X111500Y68547D02*
D03*
Y74453D02*
D03*
X104000Y68547D02*
D03*
Y74453D02*
D03*
X218500Y157500D02*
D03*
Y151594D02*
D03*
X219500Y169500D02*
D03*
Y175406D02*
D03*
X165500Y96047D02*
D03*
Y101953D02*
D03*
X84000Y97453D02*
D03*
Y91547D02*
D03*
X167000Y137547D02*
D03*
Y143453D02*
D03*
X158000Y181047D02*
D03*
Y186953D02*
D03*
X136500Y124000D02*
D03*
Y129905D02*
D03*
Y138594D02*
D03*
Y144500D02*
D03*
X136500Y155047D02*
D03*
Y160953D02*
D03*
X227500Y169547D02*
D03*
Y175453D02*
D03*
X73000Y152047D02*
D03*
Y157953D02*
D03*
X83000Y180595D02*
D03*
Y186500D02*
D03*
X72000Y180547D02*
D03*
Y186453D02*
D03*
X107500Y165594D02*
D03*
Y171500D02*
D03*
X54000Y38547D02*
D03*
Y44453D02*
D03*
X46500Y38547D02*
D03*
Y44453D02*
D03*
X122000Y44500D02*
D03*
Y38594D02*
D03*
X129500Y44500D02*
D03*
Y38594D02*
D03*
X137000Y38500D02*
D03*
Y44405D02*
D03*
X144500Y38500D02*
D03*
Y44405D02*
D03*
X77000Y97453D02*
D03*
Y91547D02*
D03*
X159350Y69595D02*
D03*
Y75500D02*
D03*
X106000Y123406D02*
D03*
Y117500D02*
D03*
X69500Y91547D02*
D03*
Y97453D02*
D03*
X107000Y44405D02*
D03*
Y38500D02*
D03*
X99500Y44405D02*
D03*
Y38500D02*
D03*
X92000Y38453D02*
D03*
Y44358D02*
D03*
X84500Y38405D02*
D03*
Y44311D02*
D03*
X69000Y44453D02*
D03*
Y38547D02*
D03*
X61500Y44453D02*
D03*
Y38547D02*
D03*
X202500Y151547D02*
D03*
Y157453D02*
D03*
X194500Y147095D02*
D03*
Y153000D02*
D03*
X203500Y175500D02*
D03*
Y169595D02*
D03*
X210500Y151500D02*
D03*
Y157405D02*
D03*
X211500Y175453D02*
D03*
Y169547D02*
D03*
X136500Y114953D02*
D03*
Y109047D02*
D03*
X149500Y186953D02*
D03*
Y181047D02*
D03*
X81000Y152094D02*
D03*
Y158000D02*
D03*
X119502Y195237D02*
D03*
Y189331D02*
D03*
X127582Y195237D02*
D03*
Y189331D02*
D03*
X23000Y169453D02*
D03*
Y163547D02*
D03*
D43*
X196047Y76000D02*
D03*
X201953D02*
D03*
X243547Y64500D02*
D03*
X249453D02*
D03*
X269047Y112500D02*
D03*
X274953D02*
D03*
X196047Y61500D02*
D03*
X201953D02*
D03*
X201953Y54000D02*
D03*
X196047D02*
D03*
X121405Y117500D02*
D03*
X115500D02*
D03*
X66594Y75500D02*
D03*
X72500D02*
D03*
X157953Y102000D02*
D03*
X152047D02*
D03*
X80594Y144000D02*
D03*
X86500D02*
D03*
X100406Y171500D02*
D03*
X94500D02*
D03*
X196000Y83500D02*
D03*
X201905D02*
D03*
X196047Y122500D02*
D03*
X201953D02*
D03*
X196047Y68500D02*
D03*
X201953D02*
D03*
X249453Y72000D02*
D03*
X243547D02*
D03*
X196047Y47000D02*
D03*
X201953D02*
D03*
X196500Y172500D02*
D03*
X190594D02*
D03*
X158000Y85000D02*
D03*
X152094D02*
D03*
X157953Y93500D02*
D03*
X152047D02*
D03*
X185953Y150000D02*
D03*
X180047D02*
D03*
X164594Y181500D02*
D03*
X170500D02*
D03*
X63953Y158000D02*
D03*
X58047D02*
D03*
D44*
X283228Y105000D02*
D03*
Y100000D02*
D03*
Y95000D02*
D03*
Y90000D02*
D03*
X261772D02*
D03*
Y95000D02*
D03*
Y100000D02*
D03*
Y105000D02*
D03*
D45*
X110185Y100500D02*
D03*
X120815D02*
D03*
D46*
X128240Y68579D02*
D03*
X124500D02*
D03*
X120760D02*
D03*
Y78421D02*
D03*
X124500D02*
D03*
X128240D02*
D03*
D47*
X161000Y163500D02*
D03*
D48*
X172516Y175016D02*
D03*
Y172457D02*
D03*
Y169898D02*
D03*
Y167339D02*
D03*
Y164779D02*
D03*
Y162221D02*
D03*
Y159661D02*
D03*
Y157102D02*
D03*
Y154543D02*
D03*
Y151984D02*
D03*
X149484D02*
D03*
Y154543D02*
D03*
Y157102D02*
D03*
Y159661D02*
D03*
Y162221D02*
D03*
Y164779D02*
D03*
Y167339D02*
D03*
Y169898D02*
D03*
Y172457D02*
D03*
Y175016D02*
D03*
D49*
X56000Y99815D02*
D03*
Y89185D02*
D03*
X152000Y71315D02*
D03*
Y60685D02*
D03*
D50*
X103839Y156382D02*
D03*
X101279D02*
D03*
X98721D02*
D03*
X96161D02*
D03*
Y144571D02*
D03*
X98721D02*
D03*
X101279D02*
D03*
X103839D02*
D03*
X35161Y168618D02*
D03*
X37721D02*
D03*
X40279D02*
D03*
X42839D02*
D03*
Y180429D02*
D03*
X40279D02*
D03*
X37721D02*
D03*
X35161D02*
D03*
D51*
X100000Y149000D02*
D03*
X39000Y176000D02*
D03*
D52*
X95618Y190339D02*
D03*
Y187779D02*
D03*
Y185221D02*
D03*
Y182661D02*
D03*
X107429D02*
D03*
Y185221D02*
D03*
Y187779D02*
D03*
Y190339D02*
D03*
D53*
X103000Y186500D02*
D03*
D54*
X186906Y73902D02*
D03*
X177850D02*
D03*
X168795D02*
D03*
D55*
X177850Y49098D02*
D03*
D56*
X94161Y104063D02*
D03*
Y106032D02*
D03*
Y108000D02*
D03*
Y109968D02*
D03*
Y111937D02*
D03*
X76839D02*
D03*
Y109968D02*
D03*
Y108000D02*
D03*
Y106032D02*
D03*
Y104063D02*
D03*
D57*
X216315Y108024D02*
D03*
Y104874D02*
D03*
Y101724D02*
D03*
Y98575D02*
D03*
Y95425D02*
D03*
Y92276D02*
D03*
Y89126D02*
D03*
Y85976D02*
D03*
X249685D02*
D03*
Y89126D02*
D03*
Y92276D02*
D03*
Y95425D02*
D03*
Y98575D02*
D03*
Y101724D02*
D03*
Y104874D02*
D03*
Y108024D02*
D03*
D58*
X221976Y80315D02*
D03*
X225126D02*
D03*
X228276D02*
D03*
X231425D02*
D03*
X234575D02*
D03*
X237724D02*
D03*
X240874D02*
D03*
X244024D02*
D03*
Y113685D02*
D03*
X240874D02*
D03*
X237724D02*
D03*
X234575D02*
D03*
X231425D02*
D03*
X228276D02*
D03*
X225126D02*
D03*
X221976D02*
D03*
D59*
X80634Y169500D02*
D03*
X72366Y165760D02*
D03*
Y173240D02*
D03*
D60*
X54079Y164760D02*
D03*
Y168500D02*
D03*
Y172240D02*
D03*
X63921D02*
D03*
Y168500D02*
D03*
Y164760D02*
D03*
D61*
X156500Y138465D02*
D03*
Y121535D02*
D03*
D62*
X168035Y192000D02*
D03*
X184965D02*
D03*
D63*
X151972Y111000D02*
D03*
X161028D02*
D03*
X186472Y180500D02*
D03*
X195528D02*
D03*
D64*
X10000Y170965D02*
D03*
Y154035D02*
D03*
D65*
X85000Y27484D02*
D03*
X106260D02*
D03*
X85000Y7406D02*
D03*
X106260D02*
D03*
X160000Y27579D02*
D03*
X181260D02*
D03*
X160000Y7500D02*
D03*
X181260D02*
D03*
X122500Y27579D02*
D03*
X143760D02*
D03*
X122500Y7500D02*
D03*
X143760D02*
D03*
X47350Y27500D02*
D03*
X68610D02*
D03*
X47350Y7421D02*
D03*
X68610D02*
D03*
D66*
X275000Y12500D02*
D03*
X12500Y187500D02*
D03*
Y12500D02*
D03*
D67*
X275500Y68343D02*
D03*
Y58500D02*
D03*
Y48658D02*
D03*
Y38815D02*
D03*
X9567Y145000D02*
D03*
D68*
X263500Y123000D02*
D03*
Y128000D02*
D03*
X268500Y123000D02*
D03*
Y128000D02*
D03*
X273500Y123000D02*
D03*
Y128000D02*
D03*
X278500Y123000D02*
D03*
Y128000D02*
D03*
X283500Y123000D02*
D03*
D69*
Y128000D02*
D03*
D70*
X204658Y10500D02*
D03*
D71*
X214500D02*
D03*
X224342D02*
D03*
X234185D02*
D03*
X244028D02*
D03*
D72*
X15500Y76850D02*
D03*
Y130000D02*
D03*
D73*
X39122Y117598D02*
D03*
Y89252D02*
D03*
D74*
X55433Y145000D02*
D03*
D75*
X151700Y65300D02*
D03*
X225200Y65100D02*
D03*
X178370Y159710D02*
D03*
X172500Y137500D02*
D03*
X180000Y142000D02*
D03*
X185953Y144953D02*
D03*
X290000Y90000D02*
D03*
X245500Y56000D02*
D03*
X116500Y68500D02*
D03*
X117000Y74500D02*
D03*
X216496Y59203D02*
D03*
X77000Y75000D02*
D03*
X223000Y98500D02*
D03*
X89500Y91500D02*
D03*
X132579Y78421D02*
D03*
X268062Y97265D02*
D03*
X210500Y72500D02*
D03*
X168927Y80232D02*
D03*
X177927Y167339D02*
D03*
X221000Y74500D02*
D03*
X172000Y102000D02*
D03*
X165500Y111000D02*
D03*
X125500Y117500D02*
D03*
X181845Y162218D02*
D03*
X168000Y154500D02*
D03*
X153500Y165000D02*
D03*
X142500Y191500D02*
D03*
X179500Y175000D02*
D03*
X136500Y134500D02*
D03*
D76*
X263500Y110500D02*
D03*
D77*
X115500Y47000D02*
D03*
X61500Y66000D02*
D03*
X74500Y121500D02*
D03*
X149500Y148000D02*
D03*
X126500Y172000D02*
D03*
M02*
