G04*
G04 #@! TF.GenerationSoftware,Altium Limited,Altium Designer,20.2.3 (150)*
G04*
G04 Layer_Color=65535*
%FSLAX24Y24*%
%MOIN*%
G70*
G04*
G04 #@! TF.SameCoordinates,F9B30F2D-920F-4E4A-910B-E49C5D8B914F*
G04*
G04*
G04 #@! TF.FilePolarity,Positive*
G04*
G01*
G75*
%ADD10C,0.0157*%
%ADD11C,0.0079*%
%ADD12C,0.0039*%
%ADD13C,0.0100*%
D10*
X13257Y22803D02*
X13203Y22878D01*
X13115Y22849D01*
Y22757D01*
X13203Y22728D01*
X13257Y22803D01*
D11*
X13443Y18775D02*
X16395D01*
X13443Y17279D02*
Y18775D01*
Y17279D02*
X17380D01*
Y17909D01*
X15541Y23582D02*
X17895D01*
X15541D02*
Y25038D01*
X18250D01*
Y24560D02*
Y25038D01*
X22759Y21894D02*
X23448D01*
X22552Y21845D02*
Y24404D01*
X21174D02*
X22552D01*
X21174Y21845D02*
Y24404D01*
Y21845D02*
X22552D01*
X21668Y20826D02*
X22928D01*
Y18897D02*
Y20826D01*
X21668Y18897D02*
X22928D01*
X21668D02*
Y20826D01*
X20920Y20887D02*
X21530D01*
X13739Y22469D02*
X16220D01*
Y19988D02*
Y22469D01*
X13739Y19988D02*
X16220D01*
X13739D02*
Y22469D01*
X24939Y22945D02*
X25568D01*
Y18024D02*
Y22945D01*
X24072Y18024D02*
X25568D01*
X24072D02*
Y21961D01*
D12*
X12241Y20920D02*
Y22849D01*
X10981Y20959D02*
Y22888D01*
D13*
X22158Y16251D02*
Y16461D01*
X22263Y16566D01*
X22368Y16461D01*
Y16251D01*
Y16409D01*
X22158D01*
X22473Y16251D02*
Y16461D01*
X22631D01*
X22683Y16409D01*
Y16251D01*
X22998Y16566D02*
Y16251D01*
X22840D01*
X22788Y16304D01*
Y16409D01*
X22840Y16461D01*
X22998D01*
X23103D02*
Y16251D01*
Y16356D01*
X23155Y16409D01*
X23208Y16461D01*
X23260D01*
X23575Y16251D02*
X23470D01*
X23418Y16304D01*
Y16409D01*
X23470Y16461D01*
X23575D01*
X23628Y16409D01*
Y16356D01*
X23418D01*
X23733Y16461D02*
Y16304D01*
X23785Y16251D01*
X23838Y16304D01*
X23890Y16251D01*
X23942Y16304D01*
Y16461D01*
X24362Y16251D02*
Y16566D01*
X24520D01*
X24572Y16514D01*
Y16409D01*
X24520Y16356D01*
X24362D01*
X24730Y16461D02*
X24835D01*
X24887Y16409D01*
Y16251D01*
X24730D01*
X24677Y16304D01*
X24730Y16356D01*
X24887D01*
X24992Y16461D02*
Y16251D01*
Y16356D01*
X25044Y16409D01*
X25097Y16461D01*
X25149D01*
X25307Y16251D02*
Y16566D01*
Y16356D02*
X25464Y16461D01*
X25307Y16356D02*
X25464Y16251D01*
X21865Y16935D02*
Y17534D01*
X22165D01*
X22265Y17434D01*
Y17235D01*
X22165Y17135D01*
X21865D01*
X22865Y17434D02*
X22765Y17534D01*
X22565D01*
X22465Y17434D01*
Y17335D01*
X22565Y17235D01*
X22765D01*
X22865Y17135D01*
Y17035D01*
X22765Y16935D01*
X22565D01*
X22465Y17035D01*
X23065Y17534D02*
Y17434D01*
X23265Y17235D01*
X23465Y17434D01*
Y17534D01*
X23265Y17235D02*
Y16935D01*
X23665Y17534D02*
Y16935D01*
X23965D01*
X24065Y17035D01*
Y17434D01*
X23965Y17534D01*
X23665D01*
X24265D02*
Y17035D01*
X24365Y16935D01*
X24564D01*
X24664Y17035D01*
Y17534D01*
X25264Y17434D02*
X25164Y17534D01*
X24964D01*
X24864Y17434D01*
Y17035D01*
X24964Y16935D01*
X25164D01*
X25264Y17035D01*
X25464Y17534D02*
Y16935D01*
Y17135D01*
X25864Y17534D01*
X25564Y17235D01*
X25864Y16935D01*
X13903Y16988D02*
X13703D01*
X13803D01*
Y16488D01*
X13703Y16388D01*
X13603D01*
X13503Y16488D01*
X14103Y16888D02*
X14203Y16988D01*
X14403D01*
X14503Y16888D01*
Y16788D01*
X14403Y16688D01*
X14303D01*
X14403D01*
X14503Y16588D01*
Y16488D01*
X14403Y16388D01*
X14203D01*
X14103Y16488D01*
X10577Y20601D02*
Y20501D01*
X10776Y20301D01*
X10976Y20501D01*
Y20601D01*
X10776Y20301D02*
Y20001D01*
X11176D02*
X11376D01*
X11276D01*
Y20601D01*
X11176Y20501D01*
X17369Y23286D02*
X17169D01*
X17269D01*
Y22786D01*
X17169Y22686D01*
X17069D01*
X16969Y22786D01*
X17969Y22686D02*
X17569D01*
X17969Y23086D01*
Y23186D01*
X17869Y23286D01*
X17669D01*
X17569Y23186D01*
X26306Y22309D02*
X26106D01*
X26206D01*
Y21810D01*
X26106Y21710D01*
X26006D01*
X25906Y21810D01*
X26505Y21710D02*
X26705D01*
X26605D01*
Y22309D01*
X26505Y22209D01*
X21455Y18697D02*
X21655D01*
X21555D01*
Y18097D01*
X21455D01*
X21655D01*
X22355Y18597D02*
X22255Y18697D01*
X22055D01*
X21955Y18597D01*
Y18197D01*
X22055Y18097D01*
X22255D01*
X22355Y18197D01*
X22555Y18597D02*
X22655Y18697D01*
X22855D01*
X22954Y18597D01*
Y18497D01*
X22855Y18397D01*
X22755D01*
X22855D01*
X22954Y18297D01*
Y18197D01*
X22855Y18097D01*
X22655D01*
X22555Y18197D01*
X17061Y20210D02*
X17261D01*
X17161D01*
Y19610D01*
X17061D01*
X17261D01*
X17961Y20110D02*
X17861Y20210D01*
X17661D01*
X17561Y20110D01*
Y19710D01*
X17661Y19610D01*
X17861D01*
X17961Y19710D01*
X18561Y19610D02*
X18161D01*
X18561Y20010D01*
Y20110D01*
X18461Y20210D01*
X18261D01*
X18161Y20110D01*
X21164Y25287D02*
X21364D01*
X21264D01*
Y24688D01*
X21164D01*
X21364D01*
X22064Y25187D02*
X21964Y25287D01*
X21764D01*
X21664Y25187D01*
Y24787D01*
X21764Y24688D01*
X21964D01*
X22064Y24787D01*
X22264Y24688D02*
X22464D01*
X22364D01*
Y25287D01*
X22264Y25187D01*
X11365Y19085D02*
X11265Y19185D01*
X11065D01*
X10965Y19085D01*
Y18685D01*
X11065Y18585D01*
X11265D01*
X11365Y18685D01*
X11565Y19185D02*
X11964D01*
Y19085D01*
X11565Y18685D01*
Y18585D01*
X11169Y24992D02*
X11069Y25092D01*
X10869D01*
X10769Y24992D01*
Y24592D01*
X10869Y24492D01*
X11069D01*
X11169Y24592D01*
X11769Y25092D02*
X11569Y24992D01*
X11369Y24792D01*
Y24592D01*
X11469Y24492D01*
X11669D01*
X11769Y24592D01*
Y24692D01*
X11669Y24792D01*
X11369D01*
X20103Y19036D02*
X20003Y19136D01*
X19803D01*
X19703Y19036D01*
Y18636D01*
X19803Y18536D01*
X20003D01*
X20103Y18636D01*
X20703Y19136D02*
X20303D01*
Y18836D01*
X20503Y18936D01*
X20603D01*
X20703Y18836D01*
Y18636D01*
X20603Y18536D01*
X20403D01*
X20303Y18636D01*
X14780Y24497D02*
X14680Y24397D01*
Y24197D01*
X14780Y24097D01*
X15179D01*
X15279Y24197D01*
Y24397D01*
X15179Y24497D01*
X15279Y24997D02*
X14680D01*
X14980Y24697D01*
Y25097D01*
X18783Y23325D02*
X18683Y23225D01*
Y23025D01*
X18783Y22925D01*
X19183D01*
X19283Y23025D01*
Y23225D01*
X19183Y23325D01*
X18783Y23525D02*
X18683Y23625D01*
Y23825D01*
X18783Y23925D01*
X18883D01*
X18983Y23825D01*
Y23725D01*
Y23825D01*
X19083Y23925D01*
X19183D01*
X19283Y23825D01*
Y23625D01*
X19183Y23525D01*
X12339Y24106D02*
X12239Y24006D01*
Y23806D01*
X12339Y23706D01*
X12739D01*
X12838Y23806D01*
Y24006D01*
X12739Y24106D01*
X12838Y24706D02*
Y24306D01*
X12439Y24706D01*
X12339D01*
X12239Y24606D01*
Y24406D01*
X12339Y24306D01*
X23030Y24890D02*
X22930Y24790D01*
Y24590D01*
X23030Y24490D01*
X23430D01*
X23530Y24590D01*
Y24790D01*
X23430Y24890D01*
X23530Y25090D02*
Y25290D01*
Y25190D01*
X22930D01*
X23030Y25090D01*
M02*
