G04*
G04 #@! TF.GenerationSoftware,Altium Limited,Altium Designer,21.8.1 (53)*
G04*
G04 Layer_Physical_Order=1*
G04 Layer_Color=255*
%FSLAX25Y25*%
%MOIN*%
G70*
G04*
G04 #@! TF.SameCoordinates,F690618D-AD4D-4C01-A63D-FBD870E761B6*
G04*
G04*
G04 #@! TF.FilePolarity,Positive*
G04*
G01*
G75*
%ADD10C,0.01000*%
%ADD14R,0.06102X0.02362*%
%ADD15R,0.05315X0.03937*%
%ADD16R,0.03347X0.02756*%
%ADD24R,0.05906X0.05906*%
%ADD25C,0.05906*%
%ADD26C,0.23622*%
%ADD27C,0.01968*%
D10*
X415378Y314272D02*
X417248D01*
X420224Y317248D02*
X430000D01*
X417248Y314272D02*
X420224Y317248D01*
X438000Y321500D02*
X443000Y316500D01*
X427000Y321500D02*
X438000D01*
X424772Y319272D02*
X427000Y321500D01*
X415630Y319272D02*
X424772D01*
X438000Y291500D02*
X443000Y296500D01*
X430000Y291500D02*
X438000D01*
X430295Y317248D02*
X435307Y312236D01*
X437264D01*
X430000Y317248D02*
X430295D01*
X437264Y312236D02*
X443000Y306500D01*
X384370Y314272D02*
X402272D01*
X407272Y319272D02*
X415378D01*
X402272Y314272D02*
X407272Y319272D01*
X377620Y308358D02*
X383000D01*
X377262Y308000D02*
X377620Y308358D01*
X377000Y308000D02*
X377262D01*
X377000Y315500D02*
X382858D01*
X383000Y315642D01*
X384370Y314272D01*
X383913Y309272D02*
X394118D01*
X383000Y308358D02*
X383913Y309272D01*
X368827Y306500D02*
X371056Y304272D01*
X394118D01*
X367500Y306500D02*
X368827D01*
X371025Y319272D02*
X394118D01*
X368254Y316500D02*
X371025Y319272D01*
X367500Y316500D02*
X368254D01*
X419728Y309272D02*
X422000Y307000D01*
X415378Y309272D02*
X419728D01*
X422000Y299500D02*
Y307000D01*
Y299500D02*
X430000Y291500D01*
Y301500D02*
Y310752D01*
D14*
X415630Y309272D02*
D03*
Y304272D02*
D03*
Y314272D02*
D03*
Y319272D02*
D03*
X394370D02*
D03*
Y314272D02*
D03*
Y309272D02*
D03*
Y304272D02*
D03*
D15*
X383000Y315642D02*
D03*
Y308358D02*
D03*
D16*
X430000Y310752D02*
D03*
Y317248D02*
D03*
D24*
X443000Y326500D02*
D03*
X367500D02*
D03*
X430000Y301500D02*
D03*
D25*
X443000Y316500D02*
D03*
Y306500D02*
D03*
Y296500D02*
D03*
X367500Y316500D02*
D03*
Y306500D02*
D03*
Y296500D02*
D03*
X430000Y291500D02*
D03*
D26*
X441000Y259000D02*
D03*
X370000Y258500D02*
D03*
X441000Y348500D02*
D03*
X370500Y347500D02*
D03*
D27*
X377000Y308000D02*
D03*
Y315500D02*
D03*
M02*
