G04*
G04 #@! TF.GenerationSoftware,Altium Limited,Altium Designer,21.8.1 (53)*
G04*
G04 Layer_Color=8388736*
%FSLAX25Y25*%
%MOIN*%
G70*
G04*
G04 #@! TF.SameCoordinates,F690618D-AD4D-4C01-A63D-FBD870E761B6*
G04*
G04*
G04 #@! TF.FilePolarity,Negative*
G04*
G01*
G75*
%ADD17R,0.06902X0.03162*%
%ADD18R,0.06115X0.04737*%
%ADD19R,0.04147X0.03556*%
%ADD20R,0.06706X0.06706*%
%ADD21C,0.06706*%
%ADD22C,0.24422*%
%ADD23C,0.02769*%
D17*
X415630Y309272D02*
D03*
Y304272D02*
D03*
Y314272D02*
D03*
Y319272D02*
D03*
X394370D02*
D03*
Y314272D02*
D03*
Y309272D02*
D03*
Y304272D02*
D03*
D18*
X383000Y315642D02*
D03*
Y308358D02*
D03*
D19*
X430000Y310752D02*
D03*
Y317248D02*
D03*
D20*
X443000Y326500D02*
D03*
X367500D02*
D03*
X430000Y301500D02*
D03*
D21*
X443000Y316500D02*
D03*
Y306500D02*
D03*
Y296500D02*
D03*
X367500Y316500D02*
D03*
Y306500D02*
D03*
Y296500D02*
D03*
X430000Y291500D02*
D03*
D22*
X441000Y259000D02*
D03*
X370000Y258500D02*
D03*
X441000Y348500D02*
D03*
X370500Y347500D02*
D03*
D23*
X377000Y308000D02*
D03*
Y315500D02*
D03*
M02*
