G04*
G04 #@! TF.GenerationSoftware,Altium Limited,Altium Designer,21.8.1 (53)*
G04*
G04 Layer_Color=32896*
%FSLAX25Y25*%
%MOIN*%
G70*
G04*
G04 #@! TF.SameCoordinates,F690618D-AD4D-4C01-A63D-FBD870E761B6*
G04*
G04*
G04 #@! TF.FilePolarity,Positive*
G04*
G01*
G75*
%ADD13C,0.00800*%
D13*
X426367Y281834D02*
X426951Y282417D01*
X428117D01*
X428700Y281834D01*
Y279502D01*
X428117Y278919D01*
X426951D01*
X426367Y279502D01*
X425201Y278919D02*
Y281251D01*
X424035Y282417D01*
X422868Y281251D01*
Y278919D01*
Y280668D01*
X425201D01*
X421702Y278919D02*
Y282417D01*
X419370Y278919D01*
Y282417D01*
X414705D02*
X412372D01*
X413538D01*
Y278919D01*
X411206Y281251D02*
Y278919D01*
Y280085D01*
X410623Y280668D01*
X410039Y281251D01*
X409456D01*
X407124D02*
X405957D01*
X405374Y280668D01*
Y278919D01*
X407124D01*
X407707Y279502D01*
X407124Y280085D01*
X405374D01*
X404208Y278919D02*
Y281251D01*
X402458D01*
X401875Y280668D01*
Y278919D01*
X400709D02*
X398960D01*
X398376Y279502D01*
X398960Y280085D01*
X400126D01*
X400709Y280668D01*
X400126Y281251D01*
X398376D01*
X394878D02*
X396627D01*
X397210Y280668D01*
Y279502D01*
X396627Y278919D01*
X394878D01*
X391962D02*
X393128D01*
X393711Y279502D01*
Y280668D01*
X393128Y281251D01*
X391962D01*
X391379Y280668D01*
Y280085D01*
X393711D01*
X390212Y278919D02*
X389046D01*
X389629D01*
Y281251D01*
X390212D01*
X387297D02*
X386130Y278919D01*
X384964Y281251D01*
X382048Y278919D02*
X383215D01*
X383798Y279502D01*
Y280668D01*
X383215Y281251D01*
X382048D01*
X381465Y280668D01*
Y280085D01*
X383798D01*
X380299Y281251D02*
Y278919D01*
Y280085D01*
X379716Y280668D01*
X379133Y281251D01*
X378550D01*
X428700Y272800D02*
Y276299D01*
X426951D01*
X426367Y275716D01*
Y274549D01*
X426951Y273966D01*
X428700D01*
X427534D02*
X426367Y272800D01*
X423452D02*
X424618D01*
X425201Y273383D01*
Y274549D01*
X424618Y275133D01*
X423452D01*
X422868Y274549D01*
Y273966D01*
X425201D01*
X421702Y275133D02*
X420536Y272800D01*
X419370Y275133D01*
X418203Y272800D02*
Y273383D01*
X417620D01*
Y272800D01*
X418203D01*
X412955D02*
X415288D01*
X412955Y275133D01*
Y275716D01*
X413538Y276299D01*
X414705D01*
X415288Y275716D01*
X407867Y272800D02*
X410200D01*
X407867Y275133D01*
Y275716D01*
X408451Y276299D01*
X409617D01*
X410200Y275716D01*
X406701D02*
X406118Y276299D01*
X404952D01*
X404369Y275716D01*
Y273383D01*
X404952Y272800D01*
X406118D01*
X406701Y273383D01*
Y275716D01*
X400870Y272800D02*
X403202D01*
X400870Y275133D01*
Y275716D01*
X401453Y276299D01*
X402619D01*
X403202Y275716D01*
X399703Y272800D02*
X398537D01*
X399120D01*
Y276299D01*
X399703Y275716D01*
X396788Y274549D02*
X394455D01*
X393289Y272800D02*
X392123D01*
X392706D01*
Y276299D01*
X393289Y275716D01*
X388040Y272800D02*
X390373D01*
X388040Y275133D01*
Y275716D01*
X388624Y276299D01*
X389790D01*
X390373Y275716D01*
X386874Y274549D02*
X384542D01*
X381043Y272800D02*
X383375D01*
X381043Y275133D01*
Y275716D01*
X381626Y276299D01*
X382792D01*
X383375Y275716D01*
X379876D02*
X379293Y276299D01*
X378127D01*
X377544Y275716D01*
Y275133D01*
X378127Y274549D01*
X377544Y273966D01*
Y273383D01*
X378127Y272800D01*
X379293D01*
X379876Y273383D01*
Y273966D01*
X379293Y274549D01*
X379876Y275133D01*
Y275716D01*
X379293Y274549D02*
X378127D01*
M02*
