G04*
G04 #@! TF.GenerationSoftware,Altium Limited,Altium Designer,20.2.3 (150)*
G04*
G04 Layer_Color=255*
%FSLAX24Y24*%
%MOIN*%
G70*
G04*
G04 #@! TF.SameCoordinates,5CD28015-20A0-4C02-B718-EEF65EA4BBC3*
G04*
G04*
G04 #@! TF.FilePolarity,Positive*
G04*
G01*
G75*
%ADD14R,0.0433X0.0551*%
%ADD15R,0.0610X0.0276*%
%ADD16R,0.0551X0.0433*%
%ADD17R,0.0945X0.0748*%
%ADD18R,0.0236X0.0581*%
%ADD19R,0.0581X0.0236*%
%ADD20R,0.0689X0.0374*%
%ADD21R,0.0689X0.1260*%
%ADD38C,0.2362*%
%ADD39R,0.0433X0.0433*%
%ADD40C,0.0433*%
%ADD41R,0.0650X0.0650*%
%ADD42C,0.0650*%
D14*
X17176Y16005D02*
D03*
X17767D02*
D03*
X17320Y19324D02*
D03*
X17911D02*
D03*
X18397Y18494D02*
D03*
X18987D02*
D03*
X18397Y17713D02*
D03*
X18987D02*
D03*
X18394Y16932D02*
D03*
X18985D02*
D03*
X11757Y19609D02*
D03*
X11167D02*
D03*
X11760Y24003D02*
D03*
X11169D02*
D03*
X19908Y19569D02*
D03*
X20498D02*
D03*
D15*
X17224Y18317D02*
D03*
Y17817D02*
D03*
Y17317D02*
D03*
Y16817D02*
D03*
X15078D02*
D03*
Y17317D02*
D03*
Y17817D02*
D03*
Y18317D02*
D03*
X23370Y20611D02*
D03*
Y20111D02*
D03*
Y19611D02*
D03*
Y19111D02*
D03*
X21225D02*
D03*
Y19611D02*
D03*
Y20111D02*
D03*
Y20611D02*
D03*
D16*
X14198Y24491D02*
D03*
Y23901D02*
D03*
X13320Y24494D02*
D03*
Y23903D02*
D03*
X23962Y24638D02*
D03*
Y24047D02*
D03*
X19813Y23713D02*
D03*
Y23122D02*
D03*
D17*
X11611Y22711D02*
D03*
Y21097D02*
D03*
D18*
X13877Y22897D02*
D03*
X14192D02*
D03*
X14507D02*
D03*
X14822D02*
D03*
X15137D02*
D03*
X15452D02*
D03*
X15767D02*
D03*
X16082D02*
D03*
Y19560D02*
D03*
X15767D02*
D03*
X15452D02*
D03*
X15137D02*
D03*
X14822D02*
D03*
X14507D02*
D03*
X14192D02*
D03*
X13877D02*
D03*
D19*
X16648Y22331D02*
D03*
Y22016D02*
D03*
Y21701D02*
D03*
Y21386D02*
D03*
Y21071D02*
D03*
Y20756D02*
D03*
Y20441D02*
D03*
Y20126D02*
D03*
X13311D02*
D03*
Y20441D02*
D03*
Y20756D02*
D03*
Y21071D02*
D03*
Y21386D02*
D03*
Y21701D02*
D03*
Y22016D02*
D03*
Y22331D02*
D03*
D20*
X23103Y22219D02*
D03*
Y23124D02*
D03*
Y24030D02*
D03*
D21*
X20623Y23124D02*
D03*
D38*
X26550Y24255D02*
D03*
X11611Y16688D02*
D03*
D39*
X17895Y24560D02*
D03*
D40*
Y24060D02*
D03*
X17395Y24560D02*
D03*
Y24060D02*
D03*
X16895Y24560D02*
D03*
Y24060D02*
D03*
X16395Y24560D02*
D03*
Y24060D02*
D03*
X15895Y24560D02*
D03*
Y24060D02*
D03*
D41*
X24939Y21961D02*
D03*
D42*
Y20976D02*
D03*
Y19992D02*
D03*
Y19008D02*
D03*
M02*
