G04*
G04 #@! TF.GenerationSoftware,Altium Limited,Altium Designer,20.2.3 (150)*
G04*
G04 Layer_Color=16711935*
%FSLAX24Y24*%
%MOIN*%
G70*
G04*
G04 #@! TF.SameCoordinates,5CD28015-20A0-4C02-B718-EEF65EA4BBC3*
G04*
G04*
G04 #@! TF.FilePolarity,Negative*
G04*
G01*
G75*
%ADD30C,0.2442*%
%ADD31R,0.0513X0.0513*%
%ADD32C,0.0513*%
%ADD33R,0.0730X0.0730*%
%ADD34C,0.0730*%
%ADD35C,0.0474*%
%ADD36C,0.0580*%
%ADD37C,0.0395*%
D30*
X26550Y24255D02*
D03*
X11611Y16688D02*
D03*
D31*
X17895Y24560D02*
D03*
D32*
Y24060D02*
D03*
X17395Y24560D02*
D03*
Y24060D02*
D03*
X16895Y24560D02*
D03*
Y24060D02*
D03*
X16395Y24560D02*
D03*
Y24060D02*
D03*
X15895Y24560D02*
D03*
Y24060D02*
D03*
D33*
X24939Y21961D02*
D03*
D34*
Y20976D02*
D03*
Y19992D02*
D03*
Y19008D02*
D03*
D35*
X14784Y18885D02*
D03*
D36*
X14345Y20984D02*
D03*
X19666Y20301D02*
D03*
X14784Y20398D02*
D03*
X16102Y18787D02*
D03*
X16639Y19569D02*
D03*
X14345Y17323D02*
D03*
X23572Y21228D02*
D03*
X19569Y22156D02*
D03*
X19666Y21375D02*
D03*
X12791Y18869D02*
D03*
X14980Y23620D02*
D03*
X23376Y18299D02*
D03*
X23962Y23376D02*
D03*
D37*
X17860Y18690D02*
D03*
M02*
