G04*
G04 #@! TF.GenerationSoftware,Altium Limited,Altium Designer,20.2.3 (150)*
G04*
G04 Layer_Color=32768*
%FSLAX24Y24*%
%MOIN*%
G70*
G04*
G04 #@! TF.SameCoordinates,5CD28015-20A0-4C02-B718-EEF65EA4BBC3*
G04*
G04*
G04 #@! TF.FilePolarity,Positive*
G04*
G01*
G75*
%ADD12C,0.0039*%
%ADD47C,0.0020*%
D12*
X17472Y15808D02*
Y16202D01*
X17275Y16005D02*
X17668D01*
X16920Y16320D02*
X18023D01*
X16920Y15690D02*
X18023D01*
X16920D02*
Y16320D01*
X18023Y15690D02*
Y16320D01*
X17616Y19128D02*
Y19521D01*
X17419Y19324D02*
X17813D01*
X17065Y19639D02*
X18167D01*
X17065Y19009D02*
X18167D01*
X17065D02*
Y19639D01*
X18167Y19009D02*
Y19639D01*
X18692Y18298D02*
Y18691D01*
X18495Y18494D02*
X18889D01*
X18141Y18809D02*
X19243D01*
X18141Y18180D02*
X19243D01*
X18141D02*
Y18809D01*
X19243Y18180D02*
Y18809D01*
X18692Y17517D02*
Y17910D01*
X18495Y17713D02*
X18889D01*
X18141Y18028D02*
X19243D01*
X18141Y17398D02*
X19243D01*
X18141D02*
Y18028D01*
X19243Y17398D02*
Y18028D01*
X18690Y16735D02*
Y17129D01*
X18493Y16932D02*
X18887D01*
X18139Y17247D02*
X19241D01*
X18139Y16617D02*
X19241D01*
X18139D02*
Y17247D01*
X19241Y16617D02*
Y17247D01*
X11462Y19413D02*
Y19806D01*
X11265Y19609D02*
X11659D01*
X10911Y19294D02*
X12013D01*
X10911Y19924D02*
X12013D01*
Y19294D02*
Y19924D01*
X10911Y19294D02*
Y19924D01*
X11465Y23806D02*
Y24200D01*
X11268Y24003D02*
X11661D01*
X10913Y23688D02*
X12016D01*
X10913Y24318D02*
X12016D01*
Y23688D02*
Y24318D01*
X10913Y23688D02*
Y24318D01*
X20203Y19372D02*
Y19765D01*
X20006Y19569D02*
X20400D01*
X19652Y19883D02*
X20754D01*
X19652Y19254D02*
X20754D01*
X19652D02*
Y19883D01*
X20754Y19254D02*
Y19883D01*
X14002Y24196D02*
X14395D01*
X14198Y23999D02*
Y24393D01*
X14513Y23645D02*
Y24747D01*
X13883Y23645D02*
Y24747D01*
X14513D01*
X13883Y23645D02*
X14513D01*
X13123Y24198D02*
X13517D01*
X13320Y24002D02*
Y24395D01*
X13635Y23647D02*
Y24750D01*
X13005Y23647D02*
Y24750D01*
X13635D01*
X13005Y23647D02*
X13635D01*
X10587Y20329D02*
Y23479D01*
X12635D01*
Y20329D02*
Y23479D01*
X10587Y20329D02*
X12635D01*
X23765Y24343D02*
X24159D01*
X23962Y24146D02*
Y24539D01*
X24277Y23791D02*
Y24894D01*
X23647Y23791D02*
Y24894D01*
X24277D01*
X23647Y23791D02*
X24277D01*
X19616Y23417D02*
X20009D01*
X19813Y23220D02*
Y23614D01*
X20128Y22866D02*
Y23969D01*
X19498Y22866D02*
Y23969D01*
X20128D01*
X19498Y22866D02*
X20128D01*
D47*
X14675Y16484D02*
Y18650D01*
Y16484D02*
X17628D01*
Y18650D01*
X14675D02*
X17628D01*
X12922Y19171D02*
Y23285D01*
Y19171D02*
X17037D01*
Y23285D01*
X12922D02*
X17037D01*
X20821Y18779D02*
Y20944D01*
Y18779D02*
X23774D01*
Y20944D01*
X20821D02*
X23774D01*
X20180Y21707D02*
X23546D01*
X20180D02*
Y24542D01*
X23546D01*
Y21707D02*
Y24542D01*
X18303Y23483D02*
Y25137D01*
X15488Y23483D02*
X18303D01*
X15488D02*
Y25137D01*
X18303D01*
X23974Y23043D02*
X25667D01*
Y17925D02*
Y23043D01*
X23974Y17925D02*
X25667D01*
X23974D02*
Y23043D01*
M02*
