G04*
G04 #@! TF.GenerationSoftware,Altium Limited,Altium Designer,20.2.3 (150)*
G04*
G04 Layer_Color=16711935*
%FSLAX24Y24*%
%MOIN*%
G70*
G04*
G04 #@! TF.SameCoordinates,5CD28015-20A0-4C02-B718-EEF65EA4BBC3*
G04*
G04*
G04 #@! TF.FilePolarity,Positive*
G04*
G01*
G75*
%ADD11C,0.0079*%
%ADD12C,0.0039*%
D11*
X10981Y20920D02*
Y22888D01*
X12241D01*
Y20920D02*
Y22888D01*
X10981Y20920D02*
X12241D01*
D12*
X17039Y16290D02*
X17905D01*
X17039Y15719D02*
X17905D01*
X17039D02*
Y16290D01*
X17905Y15719D02*
Y16290D01*
X17183Y19610D02*
X18049D01*
X17183Y19039D02*
X18049D01*
X17183D02*
Y19610D01*
X18049Y19039D02*
Y19610D01*
X18259Y18780D02*
X19125D01*
X18259Y18209D02*
X19125D01*
X18259D02*
Y18780D01*
X19125Y18209D02*
Y18780D01*
X18259Y17999D02*
X19125D01*
X18259Y17428D02*
X19125D01*
X18259D02*
Y17999D01*
X19125Y17428D02*
Y17999D01*
X18257Y17218D02*
X19123D01*
X18257Y16647D02*
X19123D01*
X18257D02*
Y17218D01*
X19123Y16647D02*
Y17218D01*
X15383Y18032D02*
X15883Y18532D01*
X15383Y16602D02*
Y18532D01*
Y16602D02*
X16919D01*
Y18532D01*
X15383D02*
X16919D01*
X11029Y19324D02*
X11895D01*
X11029Y19895D02*
X11895D01*
Y19324D02*
Y19895D01*
X11029Y19324D02*
Y19895D01*
X11032Y23718D02*
X11898D01*
X11032Y24289D02*
X11898D01*
Y23718D02*
Y24289D01*
X11032Y23718D02*
Y24289D01*
X19770Y19854D02*
X20636D01*
X19770Y19283D02*
X20636D01*
X19770D02*
Y19854D01*
X20636Y19283D02*
Y19854D01*
X14484Y23763D02*
Y24629D01*
X13913Y23763D02*
Y24629D01*
X14484D01*
X13913Y23763D02*
X14484D01*
X13605Y23765D02*
Y24632D01*
X13034Y23765D02*
Y24632D01*
X13605D01*
X13034Y23765D02*
X13605D01*
X13602Y22291D02*
X13917Y22606D01*
X13602Y19850D02*
Y22606D01*
Y19850D02*
X16357D01*
Y22606D01*
X13602D02*
X16357D01*
X21530Y20326D02*
X22030Y20826D01*
X21530Y18897D02*
Y20826D01*
Y18897D02*
X23065D01*
Y20826D01*
X21530D02*
X23065D01*
X24248Y23909D02*
Y24776D01*
X23677Y23909D02*
Y24776D01*
X24248D01*
X23677Y23909D02*
X24248D01*
X21174Y21845D02*
X22552D01*
X21174D02*
Y24404D01*
X22552D01*
Y21845D02*
Y24404D01*
X21646Y21845D02*
X22552Y22750D01*
X20098Y22984D02*
Y23850D01*
X19527Y22984D02*
Y23850D01*
X20098D01*
X19527Y22984D02*
X20098D01*
X18204Y23582D02*
Y25038D01*
X15586Y23582D02*
X18204D01*
X15586D02*
Y25038D01*
X18204D01*
X24072Y22945D02*
X25568D01*
Y18024D02*
Y22945D01*
X24072Y18024D02*
X25568D01*
X24072D02*
Y22945D01*
M02*
