M48
;Layer_Color=9474304
;FILE_FORMAT=2:4
INCH,TZ
;TYPE=PLATED
T1F00S00C0.0276
T2F00S00C0.0280
T3F00S00C0.0433
T4F00S00C0.1181
%
T01
X15895Y24060
Y24560
X16395
Y24060
X16895
Y24560
X17395
Y24060
X17895
Y24560
T02
X19227Y20252
X19666Y21375
X19569Y22156
X23572Y21228
X23962Y23376
X23376Y18299
X12783Y18787
X14980Y23620
T03
X16395Y17909
X24939Y19008
Y19992
Y20976
Y21961
X15411Y17909
X14427
T04
X26550Y24255
X11611Y16688
M30
