G04*
G04 #@! TF.GenerationSoftware,Altium Limited,Altium Designer,21.2.2 (38)*
G04*
G04 Layer_Color=65535*
%FSLAX25Y25*%
%MOIN*%
G70*
G04*
G04 #@! TF.SameCoordinates,6DF736DA-586D-4ED0-A9E8-28D565D663F1*
G04*
G04*
G04 #@! TF.FilePolarity,Positive*
G04*
G01*
G75*
%ADD10C,0.01575*%
%ADD11C,0.00787*%
%ADD12C,0.00600*%
%ADD13C,0.00800*%
G36*
X12608Y97816D02*
X13127D01*
Y97793D01*
X13330D01*
Y97771D01*
X13465D01*
Y97748D01*
X13601D01*
Y97726D01*
X13668D01*
Y97703D01*
X13826D01*
Y97681D01*
X13894D01*
Y97658D01*
X14007D01*
Y97613D01*
X14097D01*
Y97590D01*
X14210D01*
Y97568D01*
X14278D01*
Y97545D01*
X14368D01*
Y97523D01*
X14436D01*
Y97500D01*
X14526D01*
Y97477D01*
X14571D01*
Y97455D01*
X14639D01*
Y97432D01*
X14684D01*
Y97410D01*
X14774D01*
Y97387D01*
X14819D01*
Y97342D01*
X14865D01*
Y97319D01*
X14932D01*
Y97297D01*
X14955D01*
Y97274D01*
X15023D01*
Y97252D01*
X15045D01*
Y97229D01*
X15113D01*
Y97207D01*
X15158D01*
Y97184D01*
X15181D01*
Y97162D01*
X15226D01*
Y97139D01*
X15338D01*
Y97116D01*
X15361D01*
Y97094D01*
X15406D01*
Y97049D01*
X15474D01*
Y97026D01*
X15519D01*
Y97004D01*
X15564D01*
Y96981D01*
X15587D01*
Y96958D01*
X15609D01*
Y96936D01*
X15654D01*
Y96913D01*
X15677D01*
Y96891D01*
X15700D01*
Y96868D01*
X15722D01*
Y96846D01*
X15767D01*
Y96823D01*
X15790D01*
Y96778D01*
X15858D01*
Y96755D01*
X15880D01*
Y96733D01*
X15903D01*
Y96710D01*
X15925D01*
Y96688D01*
X15948D01*
Y96665D01*
X15970D01*
Y96642D01*
X16016D01*
Y96620D01*
X16038D01*
Y96597D01*
X16061D01*
Y96575D01*
X16106D01*
Y96552D01*
X16128D01*
Y96507D01*
X16151D01*
Y96484D01*
X16196D01*
Y96439D01*
X16219D01*
Y96417D01*
X16241D01*
Y96394D01*
X16264D01*
Y96372D01*
X16286D01*
Y96349D01*
X16309D01*
Y96326D01*
X16332D01*
Y96281D01*
X16354D01*
Y96236D01*
X16399D01*
Y96214D01*
X16422D01*
Y96168D01*
X16444D01*
Y96146D01*
X16467D01*
Y96101D01*
X16490D01*
Y96056D01*
X16512D01*
Y96033D01*
X16535D01*
Y95988D01*
X16580D01*
Y95920D01*
X16602D01*
Y95898D01*
X16625D01*
Y95852D01*
X16648D01*
Y95830D01*
X16670D01*
Y95762D01*
X16693D01*
Y95717D01*
X16715D01*
Y95649D01*
X16760D01*
Y95604D01*
X16783D01*
Y95559D01*
X16806D01*
Y95514D01*
X16828D01*
Y95469D01*
X16851D01*
Y95379D01*
X16873D01*
Y95333D01*
X16896D01*
Y95288D01*
X16941D01*
Y95243D01*
X16963D01*
Y95198D01*
X16986D01*
Y95108D01*
X17009D01*
Y95040D01*
X17031D01*
Y94995D01*
X17054D01*
Y94950D01*
X17076D01*
Y94882D01*
X17121D01*
Y94792D01*
X17144D01*
Y94679D01*
X17167D01*
Y94701D01*
X17189D01*
Y94792D01*
X17212D01*
Y94837D01*
X17234D01*
Y94927D01*
X17257D01*
Y94972D01*
X17279D01*
Y95040D01*
X17325D01*
Y95085D01*
X17347D01*
Y95175D01*
X17370D01*
Y95221D01*
X17392D01*
Y95266D01*
X17415D01*
Y95288D01*
X17437D01*
Y95356D01*
X17460D01*
Y95379D01*
X17505D01*
Y95446D01*
X17528D01*
Y95491D01*
X17550D01*
Y95537D01*
X17573D01*
Y95559D01*
X17595D01*
Y95604D01*
X17618D01*
Y95627D01*
X17641D01*
Y95672D01*
X17686D01*
Y95717D01*
X17708D01*
Y95740D01*
X17731D01*
Y95785D01*
X17753D01*
Y95807D01*
X17776D01*
Y95830D01*
X17799D01*
Y95875D01*
X17821D01*
Y95898D01*
X17866D01*
Y95920D01*
X17889D01*
Y95943D01*
X17911D01*
Y95988D01*
X17934D01*
Y96010D01*
X17957D01*
Y96033D01*
X17979D01*
Y96056D01*
X18024D01*
Y96078D01*
X18069D01*
Y96101D01*
X18092D01*
Y96123D01*
X18115D01*
Y96146D01*
X18137D01*
Y96168D01*
X18160D01*
Y96191D01*
X18182D01*
Y96214D01*
X18205D01*
Y96236D01*
X18250D01*
Y96281D01*
X18273D01*
Y96304D01*
X18318D01*
Y96326D01*
X18340D01*
Y96349D01*
X18363D01*
Y96372D01*
X18385D01*
Y96394D01*
X18453D01*
Y96417D01*
X18476D01*
Y96439D01*
X18521D01*
Y96462D01*
X18543D01*
Y96484D01*
X18566D01*
Y96507D01*
X18611D01*
Y96552D01*
X18656D01*
Y96575D01*
X18679D01*
Y96597D01*
X18701D01*
Y96620D01*
X18769D01*
Y96642D01*
X18814D01*
Y96665D01*
X18859D01*
Y96688D01*
X18882D01*
Y96710D01*
X18927D01*
Y96733D01*
X19017D01*
Y96755D01*
X19062D01*
Y96778D01*
X19108D01*
Y96823D01*
X19266D01*
Y96846D01*
X19378D01*
Y96868D01*
X19943D01*
Y96846D01*
X20033D01*
Y96823D01*
X20123D01*
Y96778D01*
X20146D01*
Y96755D01*
X20213D01*
Y96733D01*
X20236D01*
Y96710D01*
X20326D01*
Y96688D01*
X20349D01*
Y96665D01*
X20394D01*
Y96642D01*
X20417D01*
Y96620D01*
X20439D01*
Y96597D01*
X20484D01*
Y96575D01*
X20529D01*
Y96507D01*
X20552D01*
Y96484D01*
X20575D01*
Y96462D01*
X20597D01*
Y96439D01*
X20620D01*
Y96417D01*
X20665D01*
Y96394D01*
X20687D01*
Y96372D01*
X20710D01*
Y96326D01*
X20733D01*
Y96304D01*
X20755D01*
Y96236D01*
X20778D01*
Y96214D01*
X20800D01*
Y96168D01*
X20845D01*
Y96146D01*
X20868D01*
Y96101D01*
X20891D01*
Y96078D01*
X20913D01*
Y96033D01*
X20936D01*
Y95988D01*
X20958D01*
Y95920D01*
X20981D01*
Y95875D01*
X21026D01*
Y95852D01*
X21049D01*
Y95807D01*
X21071D01*
Y95762D01*
X21094D01*
Y95717D01*
X21116D01*
Y95649D01*
X21139D01*
Y95582D01*
X21161D01*
Y95537D01*
X21184D01*
Y95491D01*
X21229D01*
Y95446D01*
X21252D01*
Y95379D01*
X21274D01*
Y95333D01*
X21297D01*
Y95288D01*
X21319D01*
Y95221D01*
X21342D01*
Y95175D01*
X21365D01*
Y95108D01*
X21410D01*
Y95063D01*
X21432D01*
Y94995D01*
X21455D01*
Y94927D01*
X21477D01*
Y94837D01*
X21500D01*
Y94769D01*
X21523D01*
Y94724D01*
X21545D01*
Y94634D01*
X21590D01*
Y94543D01*
X21613D01*
Y94476D01*
X21635D01*
Y94431D01*
X21658D01*
Y94385D01*
X21681D01*
Y94273D01*
X21703D01*
Y94205D01*
X21726D01*
Y94115D01*
X21771D01*
Y93979D01*
X21793D01*
Y93911D01*
X21816D01*
Y93844D01*
X21838D01*
Y93708D01*
X21861D01*
Y93618D01*
X21884D01*
Y93505D01*
X21906D01*
Y93279D01*
X21951D01*
Y93121D01*
X21974D01*
Y92963D01*
X21996D01*
Y92828D01*
X22019D01*
Y92806D01*
X21996D01*
Y92693D01*
X22019D01*
Y92444D01*
X22042D01*
Y92016D01*
X22064D01*
Y91993D01*
X22042D01*
Y91654D01*
X22064D01*
Y91609D01*
X22042D01*
Y91496D01*
X22064D01*
Y91384D01*
X22042D01*
Y90323D01*
X22064D01*
Y90075D01*
X22087D01*
Y89962D01*
X22109D01*
Y89826D01*
X22154D01*
Y89714D01*
X22177D01*
Y89623D01*
X22200D01*
Y89510D01*
X22222D01*
Y89420D01*
X22245D01*
Y89285D01*
X22267D01*
Y89217D01*
X22290D01*
Y89104D01*
X22335D01*
Y88946D01*
X22358D01*
Y88833D01*
X22380D01*
Y88608D01*
X22403D01*
Y88156D01*
X22380D01*
Y87998D01*
X22358D01*
Y87840D01*
X22335D01*
Y87727D01*
X22290D01*
Y87660D01*
X22267D01*
Y87569D01*
X22245D01*
Y87524D01*
X22222D01*
Y87434D01*
X22200D01*
Y87389D01*
X22177D01*
Y87321D01*
X22154D01*
Y87253D01*
X22109D01*
Y87231D01*
X22087D01*
Y87186D01*
X22064D01*
Y87141D01*
X22042D01*
Y87073D01*
X22019D01*
Y87028D01*
X21996D01*
Y87005D01*
X21974D01*
Y86960D01*
X21951D01*
Y86937D01*
X21906D01*
Y86915D01*
X21884D01*
Y86892D01*
X21861D01*
Y86870D01*
X21838D01*
Y86847D01*
X21816D01*
Y86779D01*
X21793D01*
Y86757D01*
X21771D01*
Y86734D01*
X21726D01*
Y86712D01*
X21681D01*
Y86689D01*
X21658D01*
Y86667D01*
X21635D01*
Y86644D01*
X21613D01*
Y86621D01*
X21590D01*
Y86599D01*
X21523D01*
Y86576D01*
X21500D01*
Y86554D01*
X21455D01*
Y86509D01*
X21410D01*
Y86486D01*
X21365D01*
Y86463D01*
X21319D01*
Y86441D01*
X21252D01*
Y86418D01*
X21161D01*
Y86396D01*
X21071D01*
Y86373D01*
X20981D01*
Y86351D01*
X20507D01*
Y86373D01*
X20439D01*
Y86396D01*
X20371D01*
Y86418D01*
X20326D01*
Y86441D01*
X20281D01*
Y86463D01*
X20236D01*
Y86486D01*
X20191D01*
Y86509D01*
X20168D01*
Y86554D01*
X20146D01*
Y86576D01*
X20123D01*
Y86599D01*
X20056D01*
Y86621D01*
X20033D01*
Y86644D01*
X20010D01*
Y86667D01*
X19988D01*
Y86689D01*
X19965D01*
Y86734D01*
X19920D01*
Y86757D01*
X19875D01*
Y86779D01*
X19852D01*
Y86847D01*
X19830D01*
Y86870D01*
X19807D01*
Y86892D01*
X19785D01*
Y86915D01*
X19762D01*
Y86960D01*
X19740D01*
Y87005D01*
X19694D01*
Y87028D01*
X19672D01*
Y87118D01*
X19649D01*
Y87141D01*
X19627D01*
Y87208D01*
X19604D01*
Y87253D01*
X19582D01*
Y87344D01*
X19559D01*
Y87818D01*
X19582D01*
Y87885D01*
X19604D01*
Y87931D01*
Y87953D01*
Y87976D01*
X19627D01*
Y88043D01*
X19649D01*
Y88089D01*
X19672D01*
Y88156D01*
X19694D01*
Y88179D01*
X19740D01*
Y88247D01*
X19762D01*
Y88292D01*
X19785D01*
Y88337D01*
X19807D01*
Y88359D01*
X19830D01*
Y88405D01*
X19852D01*
Y88427D01*
X19875D01*
Y88495D01*
X19920D01*
Y88517D01*
X19943D01*
Y88540D01*
X19965D01*
Y88563D01*
X19988D01*
Y88608D01*
X20010D01*
Y88630D01*
X20033D01*
Y88653D01*
X20056D01*
Y88675D01*
X20101D01*
Y88721D01*
X20123D01*
Y88766D01*
X20146D01*
Y88788D01*
X20168D01*
Y88811D01*
X20191D01*
Y88833D01*
X20213D01*
Y88879D01*
X20236D01*
Y88901D01*
X20281D01*
Y88924D01*
X20304D01*
Y88969D01*
X20326D01*
Y88991D01*
X20349D01*
Y89014D01*
X20371D01*
Y89059D01*
X20394D01*
Y89082D01*
X20417D01*
Y89104D01*
X20439D01*
Y89127D01*
X20484D01*
Y89172D01*
X20529D01*
Y89194D01*
X20552D01*
Y89217D01*
X20575D01*
Y89240D01*
X20597D01*
Y89285D01*
X20620D01*
Y89330D01*
X20665D01*
Y89352D01*
X20687D01*
Y89375D01*
X20710D01*
Y89398D01*
X20733D01*
Y89420D01*
X20755D01*
Y89465D01*
X20778D01*
Y89488D01*
X20800D01*
Y89510D01*
X20845D01*
Y89533D01*
X20868D01*
Y89556D01*
X20891D01*
Y89601D01*
X20913D01*
Y89623D01*
X20936D01*
Y89646D01*
X20958D01*
Y89691D01*
X20981D01*
Y89714D01*
X21026D01*
Y89736D01*
X21049D01*
Y89759D01*
X21071D01*
Y89781D01*
X21094D01*
Y89804D01*
X21116D01*
Y89826D01*
X21139D01*
Y89849D01*
X21161D01*
Y89894D01*
X21184D01*
Y89939D01*
X21229D01*
Y89962D01*
X21252D01*
Y89984D01*
X21274D01*
Y90007D01*
X21297D01*
Y90052D01*
X21319D01*
Y90075D01*
X21342D01*
Y90120D01*
X21365D01*
Y90165D01*
X21410D01*
Y90210D01*
X21432D01*
Y90233D01*
X21455D01*
Y90278D01*
X21477D01*
Y90323D01*
X21500D01*
Y90368D01*
X21523D01*
Y90458D01*
X21545D01*
Y90504D01*
X21590D01*
Y90571D01*
X21613D01*
Y90639D01*
X21635D01*
Y90729D01*
X21658D01*
Y90842D01*
X21681D01*
Y90955D01*
X21703D01*
Y91226D01*
X21726D01*
Y91293D01*
X21703D01*
Y91338D01*
X21726D01*
Y91700D01*
X21771D01*
Y91745D01*
X21726D01*
Y91903D01*
X21771D01*
Y91925D01*
X21726D01*
Y92038D01*
X21771D01*
Y92128D01*
X21726D01*
Y92444D01*
X21703D01*
Y92806D01*
X21681D01*
Y92941D01*
X21658D01*
Y93121D01*
X21635D01*
Y93302D01*
X21613D01*
Y93415D01*
X21590D01*
Y93618D01*
X21545D01*
Y93663D01*
X21590D01*
Y93686D01*
X21545D01*
Y93799D01*
X21523D01*
Y93889D01*
X21500D01*
Y94002D01*
X21477D01*
Y94115D01*
X21455D01*
Y94182D01*
X21432D01*
Y94250D01*
X21410D01*
Y94340D01*
X21365D01*
Y94408D01*
X21342D01*
Y94498D01*
X21319D01*
Y94543D01*
X21297D01*
Y94634D01*
X21274D01*
Y94679D01*
X21252D01*
Y94747D01*
X21229D01*
Y94837D01*
X21184D01*
Y94927D01*
X21161D01*
Y94950D01*
X21139D01*
Y95017D01*
X21116D01*
Y95085D01*
X21094D01*
Y95153D01*
X21071D01*
Y95198D01*
X21049D01*
Y95243D01*
X21026D01*
Y95288D01*
X20981D01*
Y95333D01*
X20958D01*
Y95401D01*
X20936D01*
Y95491D01*
X20913D01*
Y95537D01*
X20891D01*
Y95559D01*
X20868D01*
Y95604D01*
X20845D01*
Y95649D01*
X20800D01*
Y95717D01*
X20778D01*
Y95762D01*
X20755D01*
Y95807D01*
X20733D01*
Y95830D01*
X20710D01*
Y95875D01*
X20687D01*
Y95898D01*
X20665D01*
Y95943D01*
X20620D01*
Y95988D01*
X20597D01*
Y96033D01*
X20575D01*
Y96056D01*
X20552D01*
Y96078D01*
X20529D01*
Y96123D01*
X20507D01*
Y96146D01*
X20484D01*
Y96168D01*
X20439D01*
Y96191D01*
X20417D01*
Y96214D01*
X20394D01*
Y96236D01*
X20371D01*
Y96281D01*
X20349D01*
Y96304D01*
X20326D01*
Y96326D01*
X20304D01*
Y96349D01*
X20281D01*
Y96372D01*
X20213D01*
Y96394D01*
X20191D01*
Y96417D01*
X20146D01*
Y96439D01*
X20123D01*
Y96462D01*
X20101D01*
Y96484D01*
X20033D01*
Y96507D01*
X20010D01*
Y96552D01*
X19965D01*
Y96575D01*
X19852D01*
Y96597D01*
X19762D01*
Y96620D01*
X19491D01*
Y96597D01*
X19401D01*
Y96575D01*
X19288D01*
Y96552D01*
X19198D01*
Y96507D01*
X19175D01*
Y96484D01*
X19085D01*
Y96462D01*
X19040D01*
Y96439D01*
X18995D01*
Y96417D01*
X18927D01*
Y96394D01*
X18904D01*
Y96372D01*
X18859D01*
Y96349D01*
X18814D01*
Y96326D01*
X18769D01*
Y96304D01*
X18724D01*
Y96281D01*
X18701D01*
Y96236D01*
X18656D01*
Y96214D01*
X18634D01*
Y96191D01*
X18611D01*
Y96168D01*
X18566D01*
Y96146D01*
X18543D01*
Y96123D01*
X18521D01*
Y96101D01*
X18476D01*
Y96078D01*
X18453D01*
Y96056D01*
X18431D01*
Y96033D01*
X18385D01*
Y96010D01*
X18363D01*
Y95988D01*
X18340D01*
Y95943D01*
X18318D01*
Y95920D01*
X18295D01*
Y95898D01*
X18273D01*
Y95875D01*
X18250D01*
Y95852D01*
X18205D01*
Y95830D01*
X18182D01*
Y95807D01*
X18160D01*
Y95785D01*
X18137D01*
Y95762D01*
X18115D01*
Y95740D01*
X18092D01*
Y95717D01*
X18069D01*
Y95672D01*
X18024D01*
Y95649D01*
X18002D01*
Y95627D01*
X17979D01*
Y95582D01*
X17957D01*
Y95559D01*
X17934D01*
Y95537D01*
X17911D01*
Y95491D01*
X17889D01*
Y95469D01*
X17866D01*
Y95446D01*
X17821D01*
Y95379D01*
X17799D01*
Y95356D01*
X17776D01*
Y95311D01*
X17753D01*
Y95266D01*
X17731D01*
Y95243D01*
X17708D01*
Y95198D01*
X17686D01*
Y95153D01*
X17641D01*
Y95085D01*
X17618D01*
Y95040D01*
X17595D01*
Y94995D01*
X17573D01*
Y94950D01*
X17550D01*
Y94905D01*
X17528D01*
Y94814D01*
X17505D01*
Y94769D01*
X17460D01*
Y94679D01*
X17437D01*
Y94566D01*
X17415D01*
Y94476D01*
X17392D01*
Y94431D01*
X17415D01*
Y94408D01*
X17437D01*
Y94385D01*
X17505D01*
Y94363D01*
X17550D01*
Y94340D01*
X17618D01*
Y94318D01*
X17686D01*
Y94273D01*
X17731D01*
Y94250D01*
X17753D01*
Y94227D01*
X17799D01*
Y94205D01*
X17866D01*
Y94182D01*
X17911D01*
Y94160D01*
X17934D01*
Y94137D01*
X17979D01*
Y94115D01*
X18024D01*
Y94092D01*
X18069D01*
Y94047D01*
X18092D01*
Y94002D01*
X18115D01*
Y93979D01*
X18160D01*
Y93957D01*
X18182D01*
Y93934D01*
X18205D01*
Y93911D01*
X18250D01*
Y93889D01*
X18273D01*
Y93866D01*
X18318D01*
Y93844D01*
X18340D01*
Y93821D01*
X18385D01*
Y93799D01*
X18431D01*
Y93776D01*
X18453D01*
Y93708D01*
X18476D01*
Y93686D01*
X18498D01*
Y93663D01*
X18521D01*
Y93641D01*
X18543D01*
Y93595D01*
X18566D01*
Y93573D01*
X18611D01*
Y93550D01*
X18634D01*
Y93505D01*
X18656D01*
Y93460D01*
X18679D01*
Y93437D01*
X18701D01*
Y93392D01*
X18724D01*
Y93370D01*
X18746D01*
Y93347D01*
X18769D01*
Y93302D01*
X18814D01*
Y93279D01*
X18837D01*
Y93234D01*
X18859D01*
Y93167D01*
X18882D01*
Y93121D01*
X18904D01*
Y93076D01*
X18927D01*
Y93054D01*
X18950D01*
Y92986D01*
X18995D01*
Y92941D01*
X19017D01*
Y92851D01*
X19040D01*
Y92806D01*
X19062D01*
Y92738D01*
X19085D01*
Y92670D01*
X19108D01*
Y92535D01*
X19130D01*
Y92490D01*
X19175D01*
Y92332D01*
X19198D01*
Y92106D01*
X19220D01*
Y91767D01*
X19198D01*
Y91654D01*
X19175D01*
Y91542D01*
X19130D01*
Y91406D01*
X19108D01*
Y91338D01*
X19085D01*
Y91271D01*
X19062D01*
Y91181D01*
X19040D01*
Y91135D01*
X19017D01*
Y91090D01*
X18995D01*
Y91045D01*
X18950D01*
Y90955D01*
X19130D01*
Y91000D01*
X19311D01*
Y91023D01*
X19536D01*
Y91045D01*
X19740D01*
Y91068D01*
X19943D01*
Y91090D01*
X20101D01*
Y91113D01*
X20304D01*
Y91135D01*
X20687D01*
Y91113D01*
X20800D01*
Y91090D01*
X20913D01*
Y91068D01*
X20981D01*
Y91045D01*
X21071D01*
Y91023D01*
X21116D01*
Y91000D01*
X21161D01*
Y90955D01*
X21184D01*
Y90932D01*
X21252D01*
Y90910D01*
X21274D01*
Y90887D01*
X21297D01*
Y90865D01*
X21319D01*
Y90842D01*
X21342D01*
Y90797D01*
X21365D01*
Y90752D01*
X21410D01*
Y90458D01*
X21365D01*
Y90368D01*
X21342D01*
Y90323D01*
X21319D01*
Y90278D01*
X21297D01*
Y90233D01*
X21274D01*
Y90188D01*
X21252D01*
Y90120D01*
X21229D01*
Y90097D01*
X21184D01*
Y90075D01*
X21161D01*
Y90052D01*
X21139D01*
Y90030D01*
X21116D01*
Y90007D01*
X21094D01*
Y89984D01*
X21071D01*
Y89962D01*
X21026D01*
Y89939D01*
X20981D01*
Y89917D01*
X20936D01*
Y89894D01*
X20913D01*
Y89849D01*
X20868D01*
Y89826D01*
X20800D01*
Y89804D01*
X20778D01*
Y89781D01*
X20733D01*
Y89759D01*
X20687D01*
Y89736D01*
X20597D01*
Y89714D01*
X20529D01*
Y89691D01*
X20417D01*
Y89668D01*
X20010D01*
Y89691D01*
X19875D01*
Y89714D01*
X19785D01*
Y89736D01*
X19627D01*
Y89759D01*
X19582D01*
Y89781D01*
X19491D01*
Y89804D01*
X19424D01*
Y89826D01*
X19356D01*
Y89849D01*
X19266D01*
Y89894D01*
X19220D01*
Y89917D01*
X19130D01*
Y89939D01*
X19062D01*
Y89962D01*
X19040D01*
Y89984D01*
X18995D01*
Y90007D01*
X18904D01*
Y90030D01*
X18882D01*
Y90052D01*
X18859D01*
Y90007D01*
X18882D01*
Y89962D01*
X18904D01*
Y89917D01*
X18927D01*
Y89849D01*
X18950D01*
Y89804D01*
X18995D01*
Y89736D01*
X19017D01*
Y89601D01*
X19040D01*
Y89217D01*
X19017D01*
Y89082D01*
X18995D01*
Y89059D01*
X18950D01*
Y88991D01*
X18927D01*
Y88969D01*
X18904D01*
Y88946D01*
X18882D01*
Y88924D01*
X18859D01*
Y88901D01*
X18837D01*
Y88879D01*
X18769D01*
Y88856D01*
X18521D01*
Y88879D01*
X18453D01*
Y88901D01*
X18385D01*
Y88924D01*
X18340D01*
Y88946D01*
X18295D01*
Y88969D01*
X18273D01*
Y88991D01*
X18250D01*
Y89014D01*
X18205D01*
Y89059D01*
X18182D01*
Y89082D01*
X18160D01*
Y89104D01*
X18137D01*
Y89149D01*
X18115D01*
Y89172D01*
X18092D01*
Y89194D01*
X18069D01*
Y89240D01*
X18024D01*
Y89285D01*
X18002D01*
Y89330D01*
X17979D01*
Y89375D01*
X17957D01*
Y89420D01*
X17934D01*
Y89465D01*
X17911D01*
Y89533D01*
X17889D01*
Y89601D01*
X17866D01*
Y89668D01*
X17821D01*
Y89736D01*
X17799D01*
Y89894D01*
X17776D01*
Y89939D01*
X17731D01*
Y89917D01*
X17686D01*
Y89894D01*
X17641D01*
Y89849D01*
X17618D01*
Y89826D01*
X17573D01*
Y89804D01*
X17528D01*
Y89781D01*
X17437D01*
Y89759D01*
X17370D01*
Y89736D01*
X17325D01*
Y89714D01*
X17257D01*
Y89691D01*
X17212D01*
Y89668D01*
X17144D01*
Y89646D01*
X17076D01*
Y89623D01*
X17009D01*
Y89601D01*
X16941D01*
Y89556D01*
X16851D01*
Y89533D01*
X16806D01*
Y89510D01*
X16715D01*
Y89488D01*
X16625D01*
Y89465D01*
X16490D01*
Y89443D01*
X16422D01*
Y89420D01*
X16264D01*
Y89398D01*
X16083D01*
Y89375D01*
X16016D01*
Y89330D01*
X15970D01*
Y89262D01*
X15948D01*
Y89240D01*
X15925D01*
Y89194D01*
X15903D01*
Y89172D01*
X15858D01*
Y89149D01*
X15835D01*
Y89127D01*
X15745D01*
Y89104D01*
X15609D01*
Y89127D01*
X15542D01*
Y89149D01*
X15496D01*
Y89172D01*
X15474D01*
Y89194D01*
X15451D01*
Y89217D01*
X15406D01*
Y89240D01*
X15384D01*
Y89262D01*
X15361D01*
Y89285D01*
X15338D01*
Y89330D01*
X15316D01*
Y89285D01*
X15000D01*
Y89330D01*
X14684D01*
Y89352D01*
X14436D01*
Y89375D01*
X14278D01*
Y89398D01*
X14165D01*
Y89420D01*
X14052D01*
Y89443D01*
X13917D01*
Y89465D01*
X13849D01*
Y89488D01*
X13736D01*
Y89510D01*
X13646D01*
Y89533D01*
X13601D01*
Y89556D01*
X13533D01*
Y89601D01*
X13488D01*
Y89623D01*
X13420D01*
Y89646D01*
X13330D01*
Y89668D01*
X13262D01*
Y89691D01*
X13194D01*
Y89714D01*
X13149D01*
Y89736D01*
X13104D01*
Y89759D01*
X13059D01*
Y89781D01*
X12991D01*
Y89804D01*
X12946D01*
Y89826D01*
X12901D01*
Y89849D01*
X12856D01*
Y89894D01*
X12788D01*
Y89917D01*
X12743D01*
Y89939D01*
X12698D01*
Y89962D01*
X12675D01*
Y89984D01*
X12630D01*
Y90007D01*
X12585D01*
Y90030D01*
X12540D01*
Y90052D01*
X12517D01*
Y90075D01*
X12495D01*
Y90097D01*
X12427D01*
Y90120D01*
X12404D01*
Y90165D01*
X12382D01*
Y90188D01*
X12359D01*
Y90210D01*
X12337D01*
Y90233D01*
X12314D01*
Y90255D01*
X12269D01*
Y90278D01*
X12246D01*
Y90300D01*
X12201D01*
Y90323D01*
X12179D01*
Y90346D01*
X12156D01*
Y90368D01*
X12134D01*
Y90391D01*
X12111D01*
Y90436D01*
X12066D01*
Y90458D01*
X12043D01*
Y90481D01*
X12021D01*
Y90504D01*
X11998D01*
Y90526D01*
X11976D01*
Y90571D01*
X11953D01*
Y90594D01*
X11931D01*
Y90639D01*
X11885D01*
Y90662D01*
X11863D01*
Y90729D01*
X11840D01*
Y90752D01*
X11818D01*
Y90797D01*
X11795D01*
Y90819D01*
X11773D01*
Y90865D01*
X11750D01*
Y90910D01*
X11705D01*
Y90955D01*
X11682D01*
Y91023D01*
X11660D01*
Y91068D01*
X11637D01*
Y91181D01*
X11615D01*
Y91226D01*
X11592D01*
Y91316D01*
X11502D01*
Y91293D01*
X11231D01*
Y91271D01*
X11208D01*
Y91293D01*
X10960D01*
Y91316D01*
X10870D01*
Y91338D01*
X10780D01*
Y91361D01*
X10712D01*
Y91384D01*
X10667D01*
Y91406D01*
X10622D01*
Y91429D01*
X10576D01*
Y91451D01*
X10531D01*
Y91474D01*
X10509D01*
Y91496D01*
X10464D01*
Y91542D01*
X10441D01*
Y91564D01*
X10396D01*
Y91587D01*
X10373D01*
Y91609D01*
X10351D01*
Y91654D01*
X10328D01*
Y91677D01*
X10306D01*
Y91700D01*
X10283D01*
Y91745D01*
X10260D01*
Y91790D01*
X10215D01*
Y91858D01*
X10193D01*
Y91903D01*
X10170D01*
Y92332D01*
X10193D01*
Y92399D01*
X10215D01*
Y92422D01*
X10260D01*
Y92467D01*
X10283D01*
Y92490D01*
X10306D01*
Y92512D01*
X10328D01*
Y92535D01*
X10351D01*
Y92557D01*
X10373D01*
Y92580D01*
X10441D01*
Y92602D01*
X10667D01*
Y92580D01*
X10712D01*
Y92557D01*
X10757D01*
Y92535D01*
X10825D01*
Y92512D01*
X10847D01*
Y92490D01*
X10892D01*
Y92467D01*
X10938D01*
Y92444D01*
X10960D01*
Y92422D01*
X11005D01*
Y92399D01*
X11050D01*
Y92377D01*
X11073D01*
Y92332D01*
X11118D01*
Y92309D01*
X11141D01*
Y92286D01*
X11208D01*
Y92264D01*
X11231D01*
Y92241D01*
X11276D01*
Y92219D01*
X11299D01*
Y92196D01*
X11366D01*
Y92174D01*
X11411D01*
Y92151D01*
X11479D01*
Y92128D01*
X11569D01*
Y92151D01*
X11592D01*
Y92241D01*
X11615D01*
Y92309D01*
X11637D01*
Y92422D01*
X11660D01*
Y92490D01*
X11682D01*
Y92557D01*
X11705D01*
Y92602D01*
X11750D01*
Y92670D01*
X11773D01*
Y92715D01*
X11795D01*
Y92760D01*
X11818D01*
Y92806D01*
X11840D01*
Y92828D01*
X11863D01*
Y92873D01*
X11885D01*
Y92941D01*
X11931D01*
Y92963D01*
X11953D01*
Y93009D01*
X11976D01*
Y93031D01*
X11998D01*
Y93076D01*
X12021D01*
Y93099D01*
X12043D01*
Y93121D01*
X12066D01*
Y93144D01*
X12111D01*
Y93167D01*
X12134D01*
Y93212D01*
X12156D01*
Y93257D01*
X12179D01*
Y93279D01*
X12201D01*
Y93302D01*
X12224D01*
Y93325D01*
X12246D01*
Y93347D01*
X12269D01*
Y93370D01*
X12314D01*
Y93392D01*
X12337D01*
Y93415D01*
X12359D01*
Y93437D01*
X12382D01*
Y93460D01*
X12404D01*
Y93528D01*
X12450D01*
Y93550D01*
X12495D01*
Y93573D01*
X12517D01*
Y93595D01*
X12540D01*
Y93618D01*
X12585D01*
Y93641D01*
X12608D01*
Y93663D01*
X12630D01*
Y93686D01*
X12675D01*
Y93708D01*
X12698D01*
Y93731D01*
X12743D01*
Y93776D01*
X12766D01*
Y93799D01*
X12788D01*
Y93821D01*
X12811D01*
Y93844D01*
X12878D01*
Y93866D01*
X12901D01*
Y93889D01*
X12946D01*
Y93911D01*
X12969D01*
Y93934D01*
X12991D01*
Y93957D01*
X13059D01*
Y93979D01*
X13104D01*
Y94002D01*
X13127D01*
Y94047D01*
X13172D01*
Y94069D01*
X13194D01*
Y94092D01*
X13262D01*
Y94115D01*
X13307D01*
Y94137D01*
X13330D01*
Y94160D01*
X13375D01*
Y94182D01*
X13443D01*
Y94205D01*
X13465D01*
Y94227D01*
X13510D01*
Y94250D01*
X13556D01*
Y94273D01*
X13646D01*
Y94318D01*
X13691D01*
Y94340D01*
X13736D01*
Y94363D01*
X13804D01*
Y94385D01*
X13849D01*
Y94408D01*
X13917D01*
Y94431D01*
X13984D01*
Y94453D01*
X14029D01*
Y94476D01*
X14097D01*
Y94498D01*
X14187D01*
Y94521D01*
X14255D01*
Y94543D01*
X14345D01*
Y94566D01*
X14413D01*
Y94611D01*
X14481D01*
Y94634D01*
X14594D01*
Y94656D01*
X14684D01*
Y94679D01*
X14842D01*
Y94701D01*
X14955D01*
Y94724D01*
X15045D01*
Y94747D01*
X15338D01*
Y94769D01*
X15722D01*
Y94747D01*
X16038D01*
Y94724D01*
X16083D01*
Y94747D01*
X16128D01*
Y94724D01*
X16332D01*
Y94701D01*
X16490D01*
Y94679D01*
X16625D01*
Y94656D01*
X16760D01*
Y94634D01*
X16851D01*
Y94656D01*
X16873D01*
Y94837D01*
X16851D01*
Y94905D01*
X16828D01*
Y94972D01*
X16806D01*
Y95017D01*
X16783D01*
Y95063D01*
X16760D01*
Y95153D01*
X16715D01*
Y95198D01*
X16693D01*
Y95243D01*
X16670D01*
Y95288D01*
X16648D01*
Y95333D01*
X16625D01*
Y95379D01*
X16602D01*
Y95446D01*
X16580D01*
Y95491D01*
X16535D01*
Y95514D01*
X16512D01*
Y95559D01*
X16490D01*
Y95604D01*
X16467D01*
Y95649D01*
X16444D01*
Y95672D01*
X16422D01*
Y95717D01*
X16399D01*
Y95762D01*
X16354D01*
Y95785D01*
X16332D01*
Y95830D01*
X16309D01*
Y95852D01*
X16286D01*
Y95898D01*
X16264D01*
Y95920D01*
X16241D01*
Y95988D01*
X16219D01*
Y96010D01*
X16196D01*
Y96056D01*
X16151D01*
Y96078D01*
X16128D01*
Y96123D01*
X16106D01*
Y96146D01*
X16083D01*
Y96168D01*
X16061D01*
Y96191D01*
X16038D01*
Y96214D01*
X16016D01*
Y96236D01*
X15970D01*
Y96281D01*
X15948D01*
Y96304D01*
X15925D01*
Y96326D01*
X15903D01*
Y96349D01*
X15880D01*
Y96394D01*
X15858D01*
Y96417D01*
X15835D01*
Y96439D01*
X15790D01*
Y96462D01*
X15767D01*
Y96484D01*
X15745D01*
Y96507D01*
X15700D01*
Y96552D01*
X15677D01*
Y96575D01*
X15654D01*
Y96597D01*
X15609D01*
Y96620D01*
X15587D01*
Y96642D01*
X15564D01*
Y96665D01*
X15542D01*
Y96688D01*
X15496D01*
Y96710D01*
X15474D01*
Y96733D01*
X15451D01*
Y96755D01*
X15384D01*
Y96778D01*
X15361D01*
Y96823D01*
X15316D01*
Y96846D01*
X15293D01*
Y96868D01*
X15226D01*
Y96891D01*
X15203D01*
Y96913D01*
X15158D01*
Y96936D01*
X15113D01*
Y96958D01*
X15090D01*
Y96981D01*
X15023D01*
Y97004D01*
X15000D01*
Y97026D01*
X14955D01*
Y97049D01*
X14910D01*
Y97094D01*
X14842D01*
Y97116D01*
X14797D01*
Y97139D01*
X14729D01*
Y97162D01*
X14661D01*
Y97184D01*
X14594D01*
Y97207D01*
X14549D01*
Y97229D01*
X14436D01*
Y97252D01*
X14391D01*
Y97274D01*
X14300D01*
Y97297D01*
X14233D01*
Y97319D01*
X14120D01*
Y97342D01*
X14052D01*
Y97387D01*
X13984D01*
Y97410D01*
X13871D01*
Y97432D01*
X13804D01*
Y97455D01*
X13646D01*
Y97477D01*
X13488D01*
Y97500D01*
X13307D01*
Y97523D01*
X13036D01*
Y97545D01*
X12675D01*
Y97568D01*
X12450D01*
Y97545D01*
X12404D01*
Y97568D01*
X12224D01*
Y97545D01*
X11931D01*
Y97523D01*
X11863D01*
Y97545D01*
X11818D01*
Y97523D01*
X11615D01*
Y97500D01*
X11502D01*
Y97477D01*
X11366D01*
Y97455D01*
X11276D01*
Y97432D01*
X11208D01*
Y97410D01*
X11095D01*
Y97387D01*
X11028D01*
Y97342D01*
X10960D01*
Y97319D01*
X10892D01*
Y97297D01*
X10847D01*
Y97274D01*
X10757D01*
Y97252D01*
X10712D01*
Y97229D01*
X10644D01*
Y97207D01*
X10576D01*
Y97184D01*
X10531D01*
Y97162D01*
X10486D01*
Y97139D01*
X10396D01*
Y97116D01*
X10351D01*
Y97094D01*
X10306D01*
Y97049D01*
X10260D01*
Y97026D01*
X10193D01*
Y97004D01*
X10170D01*
Y96981D01*
X10125D01*
Y96958D01*
X10080D01*
Y96936D01*
X10035D01*
Y96913D01*
X9990D01*
Y96891D01*
X9967D01*
Y96868D01*
X9945D01*
Y96846D01*
X9899D01*
Y96823D01*
X9854D01*
Y96778D01*
X9809D01*
Y96755D01*
X9787D01*
Y96733D01*
X9741D01*
Y96710D01*
X9719D01*
Y96688D01*
X9696D01*
Y96665D01*
X9629D01*
Y96642D01*
X9606D01*
Y96620D01*
X9561D01*
Y96597D01*
X9538D01*
Y96575D01*
X9471D01*
Y96552D01*
X9448D01*
Y96507D01*
X9425D01*
Y96484D01*
X9403D01*
Y96462D01*
X9358D01*
Y96439D01*
X9335D01*
Y96417D01*
X9290D01*
Y96394D01*
X9267D01*
Y96372D01*
X9245D01*
Y96349D01*
X9200D01*
Y96326D01*
X9177D01*
Y96304D01*
X9155D01*
Y96281D01*
X9109D01*
Y96236D01*
X9087D01*
Y96214D01*
X9064D01*
Y96191D01*
X9042D01*
Y96168D01*
X9019D01*
Y96146D01*
X8997D01*
Y96123D01*
X8974D01*
Y96101D01*
X8951D01*
Y96078D01*
X8906D01*
Y96056D01*
X8884D01*
Y96033D01*
X8861D01*
Y96010D01*
X8839D01*
Y95988D01*
X8816D01*
Y95943D01*
X8793D01*
Y95920D01*
X8771D01*
Y95875D01*
X8726D01*
Y95852D01*
X8703D01*
Y95830D01*
X8681D01*
Y95807D01*
X8658D01*
Y95785D01*
X8635D01*
Y95740D01*
X8613D01*
Y95717D01*
X8590D01*
Y95649D01*
X8545D01*
Y95604D01*
X8523D01*
Y95582D01*
X8500D01*
Y95559D01*
X8477D01*
Y95514D01*
X8455D01*
Y95469D01*
X8432D01*
Y95446D01*
X8410D01*
Y95379D01*
X8365D01*
Y95356D01*
X8342D01*
Y95311D01*
X8320D01*
Y95266D01*
X8297D01*
Y95221D01*
X8274D01*
Y95198D01*
X8252D01*
Y95108D01*
X8229D01*
Y95040D01*
X8207D01*
Y94972D01*
X8162D01*
Y94927D01*
X8139D01*
Y94837D01*
X8116D01*
Y94769D01*
X8094D01*
Y94634D01*
X8071D01*
Y94385D01*
X8049D01*
Y94273D01*
X8071D01*
Y94160D01*
X8094D01*
Y94092D01*
X8116D01*
Y93979D01*
X8139D01*
Y93911D01*
X8162D01*
Y93889D01*
X8207D01*
Y93844D01*
X8229D01*
Y93821D01*
X8252D01*
Y93776D01*
X8274D01*
Y93708D01*
X8297D01*
Y93686D01*
X8320D01*
Y93641D01*
X8342D01*
Y93618D01*
X8365D01*
Y93595D01*
X8410D01*
Y93550D01*
X8432D01*
Y93528D01*
X8455D01*
Y93505D01*
X8477D01*
Y93437D01*
X8500D01*
Y93415D01*
X8523D01*
Y93392D01*
X8545D01*
Y93370D01*
X8590D01*
Y93325D01*
X8613D01*
Y93302D01*
X8635D01*
Y93257D01*
X8658D01*
Y93234D01*
X8681D01*
Y93212D01*
X8703D01*
Y93167D01*
X8726D01*
Y93121D01*
X8771D01*
Y93099D01*
X8793D01*
Y93076D01*
X8816D01*
Y93031D01*
X8839D01*
Y93009D01*
X8861D01*
Y92986D01*
X8884D01*
Y92963D01*
X8906D01*
Y92941D01*
X8951D01*
Y92873D01*
X8974D01*
Y92851D01*
X8997D01*
Y92806D01*
X9019D01*
Y92760D01*
X9042D01*
Y92738D01*
X9064D01*
Y92715D01*
X9087D01*
Y92670D01*
X9109D01*
Y92625D01*
X9155D01*
Y92602D01*
X9177D01*
Y92557D01*
X9200D01*
Y92467D01*
X9222D01*
Y92422D01*
X9245D01*
Y92399D01*
X9267D01*
Y92332D01*
X9290D01*
Y92264D01*
X9335D01*
Y92174D01*
X9358D01*
Y92106D01*
X9380D01*
Y91993D01*
X9403D01*
Y91835D01*
X9425D01*
Y91609D01*
X9403D01*
Y91361D01*
X9380D01*
Y91316D01*
X9358D01*
Y91226D01*
X9335D01*
Y91181D01*
X9290D01*
Y91135D01*
X9267D01*
Y91090D01*
X9245D01*
Y91045D01*
X9222D01*
Y91000D01*
X9200D01*
Y90955D01*
X9177D01*
Y90910D01*
X9155D01*
Y90887D01*
X9109D01*
Y90865D01*
X9087D01*
Y90842D01*
X9064D01*
Y90819D01*
X9042D01*
Y90797D01*
X8997D01*
Y90774D01*
X8974D01*
Y90752D01*
X8906D01*
Y90729D01*
X8861D01*
Y90707D01*
X8839D01*
Y90662D01*
X8793D01*
Y90639D01*
X8703D01*
Y90616D01*
X8613D01*
Y90594D01*
X8432D01*
Y90571D01*
X8297D01*
Y90594D01*
X8139D01*
Y90616D01*
X8049D01*
Y90639D01*
X7981D01*
Y90662D01*
X7936D01*
Y90707D01*
X7891D01*
Y90729D01*
X7846D01*
Y90752D01*
X7778D01*
Y90774D01*
X7733D01*
Y90797D01*
X7710D01*
Y90819D01*
X7688D01*
Y90842D01*
X7620D01*
Y90865D01*
X7597D01*
Y90887D01*
X7575D01*
Y90910D01*
X7552D01*
Y90932D01*
X7530D01*
Y90955D01*
X7507D01*
Y91000D01*
X7484D01*
Y91023D01*
X7439D01*
Y91045D01*
X7417D01*
Y91090D01*
X7394D01*
Y91113D01*
X7372D01*
Y91158D01*
X7349D01*
Y91181D01*
X7326D01*
Y91203D01*
X7304D01*
Y91271D01*
X7281D01*
Y91316D01*
X7236D01*
Y91361D01*
X7214D01*
Y91406D01*
X7191D01*
Y91429D01*
X7168D01*
Y91496D01*
X7146D01*
Y91564D01*
X7123D01*
Y91654D01*
X7101D01*
Y91700D01*
X7056D01*
Y91835D01*
X7033D01*
Y91925D01*
X7010D01*
Y92061D01*
X6988D01*
Y92602D01*
X7010D01*
Y92760D01*
X7033D01*
Y92851D01*
X7056D01*
Y92941D01*
X7101D01*
Y93031D01*
X7123D01*
Y93121D01*
X7146D01*
Y93234D01*
X7168D01*
Y93302D01*
X7191D01*
Y93347D01*
X7214D01*
Y93415D01*
X7236D01*
Y93505D01*
X7281D01*
Y93550D01*
X7304D01*
Y93618D01*
X7326D01*
Y93663D01*
X7349D01*
Y93731D01*
X7372D01*
Y93821D01*
X7394D01*
Y93866D01*
X7417D01*
Y93934D01*
X7439D01*
Y93979D01*
X7484D01*
Y94047D01*
X7507D01*
Y94115D01*
X7530D01*
Y94182D01*
X7552D01*
Y94250D01*
X7575D01*
Y94318D01*
X7597D01*
Y94385D01*
X7620D01*
Y94431D01*
X7665D01*
Y94498D01*
X7688D01*
Y94543D01*
X7710D01*
Y94634D01*
X7733D01*
Y94679D01*
X7755D01*
Y94747D01*
X7778D01*
Y94769D01*
X7800D01*
Y94837D01*
X7846D01*
Y94905D01*
X7868D01*
Y94995D01*
X7891D01*
Y95085D01*
X7913D01*
Y95153D01*
X7936D01*
Y95198D01*
X7958D01*
Y95243D01*
X7981D01*
Y95288D01*
X8026D01*
Y95333D01*
X8049D01*
Y95379D01*
X8071D01*
Y95446D01*
X8094D01*
Y95491D01*
X8116D01*
Y95514D01*
X8139D01*
Y95559D01*
X8162D01*
Y95604D01*
X8207D01*
Y95649D01*
X8229D01*
Y95717D01*
X8252D01*
Y95740D01*
X8274D01*
Y95762D01*
X8297D01*
Y95785D01*
X8320D01*
Y95807D01*
X8342D01*
Y95830D01*
X8365D01*
Y95875D01*
X8410D01*
Y95898D01*
X8432D01*
Y95920D01*
X8455D01*
Y95988D01*
X8477D01*
Y96010D01*
X8500D01*
Y96056D01*
X8523D01*
Y96078D01*
X8545D01*
Y96101D01*
X8590D01*
Y96123D01*
X8613D01*
Y96168D01*
X8635D01*
Y96191D01*
X8658D01*
Y96214D01*
X8681D01*
Y96236D01*
X8703D01*
Y96281D01*
X8726D01*
Y96304D01*
X8771D01*
Y96326D01*
X8793D01*
Y96349D01*
X8839D01*
Y96394D01*
X8884D01*
Y96417D01*
X8906D01*
Y96439D01*
X8951D01*
Y96462D01*
X8974D01*
Y96484D01*
X8997D01*
Y96507D01*
X9019D01*
Y96552D01*
X9042D01*
Y96575D01*
X9087D01*
Y96597D01*
X9109D01*
Y96642D01*
X9177D01*
Y96665D01*
X9200D01*
Y96688D01*
X9222D01*
Y96710D01*
X9245D01*
Y96733D01*
X9290D01*
Y96755D01*
X9335D01*
Y96778D01*
X9380D01*
Y96823D01*
X9403D01*
Y96846D01*
X9425D01*
Y96868D01*
X9471D01*
Y96891D01*
X9516D01*
Y96913D01*
X9538D01*
Y96936D01*
X9561D01*
Y96958D01*
X9583D01*
Y96981D01*
X9629D01*
Y97004D01*
X9651D01*
Y97026D01*
X9719D01*
Y97049D01*
X9764D01*
Y97094D01*
X9809D01*
Y97116D01*
X9832D01*
Y97139D01*
X9854D01*
Y97162D01*
X9922D01*
Y97184D01*
X9967D01*
Y97207D01*
X10012D01*
Y97229D01*
X10035D01*
Y97252D01*
X10102D01*
Y97274D01*
X10170D01*
Y97297D01*
X10193D01*
Y97319D01*
X10260D01*
Y97342D01*
X10306D01*
Y97387D01*
X10351D01*
Y97410D01*
X10396D01*
Y97432D01*
X10464D01*
Y97455D01*
X10509D01*
Y97477D01*
X10554D01*
Y97500D01*
X10622D01*
Y97523D01*
X10689D01*
Y97545D01*
X10757D01*
Y97568D01*
X10847D01*
Y97590D01*
X10892D01*
Y97613D01*
X10960D01*
Y97658D01*
X11073D01*
Y97681D01*
X11208D01*
Y97703D01*
X11321D01*
Y97726D01*
X11434D01*
Y97748D01*
X11569D01*
Y97771D01*
X11795D01*
Y97793D01*
X12021D01*
Y97816D01*
X12450D01*
Y97838D01*
X12608D01*
Y97816D01*
D02*
G37*
%LPC*%
G36*
X12495Y97793D02*
X12404D01*
Y97771D01*
X12314D01*
Y97793D01*
X12269D01*
Y97771D01*
X11931D01*
Y97748D01*
X11750D01*
Y97726D01*
X11615D01*
Y97703D01*
X11457D01*
Y97681D01*
X11366D01*
Y97658D01*
X11231D01*
Y97613D01*
X11118D01*
Y97590D01*
X11028D01*
Y97568D01*
X10915D01*
Y97545D01*
X10870D01*
Y97523D01*
X10825D01*
Y97500D01*
X10734D01*
Y97477D01*
X10667D01*
Y97455D01*
X10576D01*
Y97432D01*
X10509D01*
Y97410D01*
X10464D01*
Y97387D01*
X10441D01*
Y97342D01*
X10351D01*
Y97319D01*
X10328D01*
Y97297D01*
X10283D01*
Y97274D01*
X10215D01*
Y97252D01*
X10170D01*
Y97229D01*
X10125D01*
Y97207D01*
X10080D01*
Y97184D01*
X10035D01*
Y97162D01*
X9990D01*
Y97139D01*
X9945D01*
Y97116D01*
X9922D01*
Y97094D01*
X9854D01*
Y97049D01*
X9809D01*
Y97026D01*
X9764D01*
Y97004D01*
X9741D01*
Y96981D01*
X9696D01*
Y96958D01*
X9651D01*
Y96936D01*
X9606D01*
Y96913D01*
X9583D01*
Y96891D01*
X9538D01*
Y96868D01*
X9516D01*
Y96846D01*
X9448D01*
Y96823D01*
X9425D01*
Y96778D01*
X9403D01*
Y96755D01*
X9380D01*
Y96733D01*
X9335D01*
Y96710D01*
X9290D01*
Y96688D01*
X9267D01*
Y96665D01*
X9245D01*
Y96642D01*
X9222D01*
Y96620D01*
X9200D01*
Y96597D01*
X9177D01*
Y96575D01*
X9109D01*
Y96552D01*
X9087D01*
Y96507D01*
X9064D01*
Y96484D01*
X9042D01*
Y96462D01*
X9019D01*
Y96439D01*
X8997D01*
Y96417D01*
X8974D01*
Y96394D01*
X8951D01*
Y96372D01*
X8884D01*
Y96349D01*
X8861D01*
Y96326D01*
X8839D01*
Y96304D01*
X8816D01*
Y96236D01*
X8793D01*
Y96214D01*
X8771D01*
Y96191D01*
X8703D01*
Y96168D01*
X8681D01*
Y96123D01*
X8658D01*
Y96101D01*
X8635D01*
Y96078D01*
X8613D01*
Y96056D01*
X8590D01*
Y96010D01*
X8545D01*
Y95988D01*
X8523D01*
Y95943D01*
X8500D01*
Y95898D01*
X8477D01*
Y95875D01*
X8455D01*
Y95852D01*
X8432D01*
Y95830D01*
X8410D01*
Y95807D01*
X8365D01*
Y95762D01*
X8342D01*
Y95740D01*
X8320D01*
Y95672D01*
X8297D01*
Y95649D01*
X8274D01*
Y95604D01*
X8252D01*
Y95559D01*
X8229D01*
Y95537D01*
X8207D01*
Y95491D01*
X8162D01*
Y95446D01*
X8139D01*
Y95401D01*
X8116D01*
Y95356D01*
X8094D01*
Y95288D01*
X8071D01*
Y95266D01*
X8049D01*
Y95221D01*
X8026D01*
Y95153D01*
X7981D01*
Y95063D01*
X7958D01*
Y95040D01*
X7936D01*
Y94995D01*
X7913D01*
Y94950D01*
X7891D01*
Y94882D01*
X7868D01*
Y94769D01*
X7846D01*
Y94724D01*
X7800D01*
Y94679D01*
X7778D01*
Y94611D01*
X7755D01*
Y94521D01*
X7733D01*
Y94453D01*
X7710D01*
Y94385D01*
X7688D01*
Y94340D01*
X7665D01*
Y94250D01*
X7620D01*
Y94182D01*
X7597D01*
Y94115D01*
X7575D01*
Y94069D01*
X7552D01*
Y93979D01*
X7530D01*
Y93934D01*
X7507D01*
Y93866D01*
X7484D01*
Y93821D01*
X7439D01*
Y93731D01*
X7417D01*
Y93686D01*
X7394D01*
Y93618D01*
X7372D01*
Y93573D01*
X7349D01*
Y93505D01*
X7326D01*
Y93415D01*
X7304D01*
Y93347D01*
X7281D01*
Y93279D01*
X7236D01*
Y93212D01*
X7214D01*
Y93121D01*
X7191D01*
Y93054D01*
X7168D01*
Y92963D01*
X7146D01*
Y92851D01*
X7123D01*
Y92738D01*
X7101D01*
Y92580D01*
X7056D01*
Y92467D01*
X7101D01*
Y92422D01*
X7056D01*
Y92016D01*
X7101D01*
Y91880D01*
X7123D01*
Y91745D01*
X7146D01*
Y91632D01*
X7168D01*
Y91587D01*
X7191D01*
Y91474D01*
X7214D01*
Y91451D01*
X7236D01*
Y91406D01*
X7281D01*
Y91361D01*
X7304D01*
Y91338D01*
X7326D01*
Y91293D01*
X7349D01*
Y91226D01*
X7372D01*
Y91203D01*
X7394D01*
Y91181D01*
X7417D01*
Y91135D01*
X7439D01*
Y91113D01*
X7484D01*
Y91090D01*
X7507D01*
Y91068D01*
X7530D01*
Y91045D01*
X7552D01*
Y91000D01*
X7575D01*
Y90955D01*
X7597D01*
Y90932D01*
X7665D01*
Y90910D01*
X7688D01*
Y90887D01*
X7710D01*
Y90865D01*
X7755D01*
Y90842D01*
X7778D01*
Y90819D01*
X7846D01*
Y90797D01*
X7891D01*
Y90774D01*
X7913D01*
Y90752D01*
X7981D01*
Y90729D01*
X8049D01*
Y90707D01*
X8139D01*
Y90662D01*
X8274D01*
Y90639D01*
X8613D01*
Y90662D01*
X8703D01*
Y90707D01*
X8793D01*
Y90729D01*
X8816D01*
Y90752D01*
X8884D01*
Y90774D01*
X8951D01*
Y90797D01*
X8974D01*
Y90819D01*
X8997D01*
Y90842D01*
X9042D01*
Y90865D01*
X9064D01*
Y90910D01*
X9087D01*
Y90932D01*
X9109D01*
Y90955D01*
X9155D01*
Y91023D01*
X9177D01*
Y91068D01*
X9200D01*
Y91090D01*
X9222D01*
Y91113D01*
X9245D01*
Y91158D01*
X9267D01*
Y91226D01*
X9290D01*
Y91338D01*
X9335D01*
Y91361D01*
X9358D01*
Y91406D01*
X9335D01*
Y91429D01*
X9358D01*
Y91700D01*
X9380D01*
Y91745D01*
X9358D01*
Y91948D01*
X9335D01*
Y92016D01*
X9290D01*
Y92128D01*
X9267D01*
Y92219D01*
X9245D01*
Y92286D01*
X9222D01*
Y92332D01*
X9200D01*
Y92422D01*
X9177D01*
Y92467D01*
X9155D01*
Y92512D01*
X9109D01*
Y92557D01*
X9087D01*
Y92580D01*
X9064D01*
Y92602D01*
X9042D01*
Y92670D01*
X9019D01*
Y92715D01*
X8997D01*
Y92760D01*
X8974D01*
Y92783D01*
X8951D01*
Y92828D01*
X8906D01*
Y92851D01*
X8884D01*
Y92896D01*
X8861D01*
Y92941D01*
X8816D01*
Y92986D01*
X8793D01*
Y93009D01*
X8771D01*
Y93031D01*
X8726D01*
Y93054D01*
X8703D01*
Y93076D01*
X8681D01*
Y93121D01*
X8658D01*
Y93144D01*
X8635D01*
Y93167D01*
X8613D01*
Y93212D01*
X8590D01*
Y93257D01*
X8545D01*
Y93279D01*
X8523D01*
Y93302D01*
X8500D01*
Y93347D01*
X8477D01*
Y93370D01*
X8455D01*
Y93392D01*
X8432D01*
Y93415D01*
X8410D01*
Y93460D01*
X8365D01*
Y93505D01*
X8342D01*
Y93528D01*
X8320D01*
Y93573D01*
X8297D01*
Y93595D01*
X8274D01*
Y93641D01*
X8252D01*
Y93663D01*
X8229D01*
Y93708D01*
X8207D01*
Y93776D01*
X8162D01*
Y93821D01*
X8139D01*
Y93866D01*
X8116D01*
Y93889D01*
X8094D01*
Y93934D01*
X8071D01*
Y94002D01*
X8049D01*
Y94092D01*
X8026D01*
Y94250D01*
X7981D01*
Y94340D01*
X8026D01*
Y94431D01*
X7981D01*
Y94498D01*
X8026D01*
Y94611D01*
X8049D01*
Y94769D01*
X8071D01*
Y94837D01*
X8094D01*
Y94927D01*
X8116D01*
Y94995D01*
X8139D01*
Y95085D01*
X8162D01*
Y95153D01*
X8207D01*
Y95198D01*
X8229D01*
Y95243D01*
X8252D01*
Y95311D01*
X8274D01*
Y95356D01*
X8297D01*
Y95379D01*
X8320D01*
Y95446D01*
X8342D01*
Y95469D01*
X8365D01*
Y95514D01*
X8410D01*
Y95537D01*
X8432D01*
Y95582D01*
X8455D01*
Y95604D01*
X8477D01*
Y95627D01*
X8500D01*
Y95672D01*
X8523D01*
Y95740D01*
X8545D01*
Y95762D01*
X8590D01*
Y95785D01*
X8613D01*
Y95830D01*
X8635D01*
Y95852D01*
X8658D01*
Y95898D01*
X8681D01*
Y95920D01*
X8703D01*
Y95943D01*
X8726D01*
Y95988D01*
X8771D01*
Y96010D01*
X8793D01*
Y96033D01*
X8816D01*
Y96056D01*
X8839D01*
Y96078D01*
X8861D01*
Y96101D01*
X8884D01*
Y96123D01*
X8906D01*
Y96146D01*
X8951D01*
Y96168D01*
X8974D01*
Y96191D01*
X8997D01*
Y96214D01*
X9019D01*
Y96236D01*
X9042D01*
Y96281D01*
X9064D01*
Y96304D01*
X9087D01*
Y96326D01*
X9109D01*
Y96349D01*
X9155D01*
Y96372D01*
X9177D01*
Y96394D01*
X9200D01*
Y96417D01*
X9245D01*
Y96439D01*
X9267D01*
Y96462D01*
X9290D01*
Y96484D01*
X9335D01*
Y96507D01*
X9380D01*
Y96552D01*
X9403D01*
Y96575D01*
X9425D01*
Y96597D01*
X9448D01*
Y96620D01*
X9516D01*
Y96642D01*
X9538D01*
Y96665D01*
X9583D01*
Y96688D01*
X9606D01*
Y96710D01*
X9651D01*
Y96733D01*
X9696D01*
Y96755D01*
X9719D01*
Y96778D01*
X9764D01*
Y96823D01*
X9787D01*
Y96846D01*
X9809D01*
Y96868D01*
X9854D01*
Y96891D01*
X9899D01*
Y96913D01*
X9945D01*
Y96936D01*
X9967D01*
Y96958D01*
X10012D01*
Y96981D01*
X10035D01*
Y97004D01*
X10102D01*
Y97026D01*
X10125D01*
Y97049D01*
X10170D01*
Y97094D01*
X10215D01*
Y97116D01*
X10283D01*
Y97139D01*
X10328D01*
Y97162D01*
X10373D01*
Y97184D01*
X10464D01*
Y97207D01*
X10509D01*
Y97229D01*
X10576D01*
Y97252D01*
X10644D01*
Y97274D01*
X10689D01*
Y97297D01*
X10757D01*
Y97319D01*
X10825D01*
Y97342D01*
X10892D01*
Y97387D01*
X10938D01*
Y97410D01*
X11028D01*
Y97432D01*
X11095D01*
Y97455D01*
X11186D01*
Y97477D01*
X11276D01*
Y97500D01*
X11366D01*
Y97523D01*
X11479D01*
Y97545D01*
X11637D01*
Y97568D01*
X11773D01*
Y97590D01*
X12021D01*
Y97613D01*
X12043D01*
Y97590D01*
X12156D01*
Y97613D01*
X12901D01*
Y97590D01*
X13172D01*
Y97568D01*
X13420D01*
Y97545D01*
X13601D01*
Y97523D01*
X13713D01*
Y97590D01*
X13736D01*
Y97613D01*
X13781D01*
Y97658D01*
X13646D01*
Y97681D01*
X13556D01*
Y97703D01*
X13420D01*
Y97726D01*
X13262D01*
Y97748D01*
X12991D01*
Y97771D01*
X12495D01*
Y97793D01*
D02*
G37*
G36*
X20010Y96778D02*
X19988D01*
Y96755D01*
X19965D01*
Y96778D01*
X19943D01*
Y96755D01*
X19965D01*
Y96688D01*
X19943D01*
Y96665D01*
X19965D01*
Y96642D01*
X19943D01*
Y96620D01*
X19965D01*
Y96597D01*
X20033D01*
Y96575D01*
X20101D01*
Y96552D01*
X20146D01*
Y96507D01*
X20168D01*
Y96484D01*
X20191D01*
Y96462D01*
X20236D01*
Y96439D01*
X20281D01*
Y96417D01*
X20326D01*
Y96394D01*
X20349D01*
Y96372D01*
X20371D01*
Y96349D01*
X20394D01*
Y96326D01*
X20417D01*
Y96304D01*
X20439D01*
Y96281D01*
X20484D01*
Y96236D01*
X20507D01*
Y96214D01*
X20529D01*
Y96168D01*
X20552D01*
Y96146D01*
X20575D01*
Y96123D01*
X20597D01*
Y96101D01*
X20620D01*
Y96056D01*
X20665D01*
Y96033D01*
X20687D01*
Y95988D01*
X20710D01*
Y95943D01*
X20733D01*
Y95898D01*
X20755D01*
Y95875D01*
X20778D01*
Y95830D01*
X20800D01*
Y95785D01*
X20845D01*
Y95740D01*
X20868D01*
Y95672D01*
X20891D01*
Y95604D01*
X20913D01*
Y95559D01*
X20936D01*
Y95537D01*
X20958D01*
Y95491D01*
X20981D01*
Y95446D01*
X21026D01*
Y95379D01*
X21049D01*
Y95311D01*
X21071D01*
Y95266D01*
X21094D01*
Y95243D01*
X21116D01*
Y95198D01*
X21139D01*
Y95153D01*
X21161D01*
Y95063D01*
X21184D01*
Y94995D01*
X21229D01*
Y94950D01*
X21252D01*
Y94837D01*
X21274D01*
Y94769D01*
X21297D01*
Y94724D01*
X21319D01*
Y94656D01*
X21342D01*
Y94611D01*
X21365D01*
Y94543D01*
X21410D01*
Y94476D01*
X21432D01*
Y94408D01*
X21455D01*
Y94318D01*
X21477D01*
Y94160D01*
X21500D01*
Y94069D01*
X21523D01*
Y93957D01*
X21545D01*
Y93889D01*
X21590D01*
Y93821D01*
X21613D01*
Y93708D01*
X21635D01*
Y93641D01*
X21658D01*
Y93505D01*
X21681D01*
Y93279D01*
X21703D01*
Y93054D01*
X21726D01*
Y92828D01*
X21771D01*
Y92490D01*
X21793D01*
Y92128D01*
X21816D01*
Y92106D01*
X21793D01*
Y91496D01*
X21816D01*
Y91451D01*
X21793D01*
Y91226D01*
X21771D01*
Y90910D01*
X21726D01*
Y90797D01*
X21703D01*
Y90729D01*
X21681D01*
Y90616D01*
X21658D01*
Y90549D01*
X21635D01*
Y90481D01*
X21613D01*
Y90436D01*
X21590D01*
Y90346D01*
X21545D01*
Y90300D01*
X21523D01*
Y90255D01*
X21500D01*
Y90210D01*
X21477D01*
Y90188D01*
X21455D01*
Y90120D01*
X21432D01*
Y90097D01*
X21410D01*
Y90052D01*
X21365D01*
Y90030D01*
X21342D01*
Y90007D01*
X21319D01*
Y89984D01*
X21297D01*
Y89939D01*
X21274D01*
Y89917D01*
X21252D01*
Y89894D01*
X21229D01*
Y89849D01*
X21184D01*
Y89826D01*
X21161D01*
Y89804D01*
X21139D01*
Y89781D01*
X21116D01*
Y89736D01*
X21094D01*
Y89714D01*
X21071D01*
Y89691D01*
X21049D01*
Y89668D01*
X21026D01*
Y89646D01*
X20981D01*
Y89623D01*
X20958D01*
Y89601D01*
X20936D01*
Y89533D01*
X20913D01*
Y89510D01*
X20891D01*
Y89488D01*
X20868D01*
Y89465D01*
X20845D01*
Y89443D01*
X20800D01*
Y89420D01*
X20778D01*
Y89398D01*
X20755D01*
Y89352D01*
X20733D01*
Y89330D01*
X20710D01*
Y89285D01*
X20687D01*
Y89262D01*
X20665D01*
Y89240D01*
X20620D01*
Y89217D01*
X20597D01*
Y89194D01*
X20575D01*
Y89172D01*
X20552D01*
Y89149D01*
X20529D01*
Y89127D01*
X20507D01*
Y89104D01*
X20484D01*
Y89082D01*
X20439D01*
Y89014D01*
X20417D01*
Y88991D01*
X20394D01*
Y88969D01*
X20371D01*
Y88924D01*
X20349D01*
Y88901D01*
X20326D01*
Y88879D01*
X20304D01*
Y88856D01*
X20281D01*
Y88833D01*
X20236D01*
Y88811D01*
X20213D01*
Y88788D01*
X20191D01*
Y88721D01*
X20168D01*
Y88698D01*
X20146D01*
Y88675D01*
X20123D01*
Y88653D01*
X20101D01*
Y88630D01*
X20056D01*
Y88608D01*
X20033D01*
Y88563D01*
X20010D01*
Y88540D01*
X19988D01*
Y88517D01*
X19965D01*
Y88450D01*
X19943D01*
Y88427D01*
X19920D01*
Y88405D01*
X19875D01*
Y88359D01*
X19852D01*
Y88314D01*
X19830D01*
Y88269D01*
X19807D01*
Y88224D01*
X19785D01*
Y88179D01*
X19762D01*
Y88111D01*
X19740D01*
Y88066D01*
X19694D01*
Y88043D01*
X19672D01*
Y87953D01*
X19649D01*
Y87863D01*
X19627D01*
Y87750D01*
X19604D01*
Y87524D01*
X19627D01*
Y87344D01*
X19649D01*
Y87276D01*
X19672D01*
Y87208D01*
X19694D01*
Y87141D01*
X19740D01*
Y87050D01*
X19762D01*
Y87028D01*
X19785D01*
Y86983D01*
X19807D01*
Y86937D01*
X19830D01*
Y86892D01*
X19852D01*
Y86870D01*
X19875D01*
Y86847D01*
X19920D01*
Y86825D01*
X19943D01*
Y86779D01*
X19965D01*
Y86757D01*
X19988D01*
Y86734D01*
X20010D01*
Y86712D01*
X20033D01*
Y86689D01*
X20056D01*
Y86667D01*
X20101D01*
Y86644D01*
X20123D01*
Y86621D01*
X20168D01*
Y86599D01*
X20191D01*
Y86576D01*
X20213D01*
Y86554D01*
X20281D01*
Y86509D01*
X20326D01*
Y86486D01*
X20371D01*
Y86463D01*
X20439D01*
Y86441D01*
X20529D01*
Y86418D01*
X21026D01*
Y86441D01*
X21116D01*
Y86463D01*
X21229D01*
Y86486D01*
X21252D01*
Y86509D01*
X21319D01*
Y86554D01*
X21410D01*
Y86576D01*
X21455D01*
Y86599D01*
X21477D01*
Y86621D01*
X21523D01*
Y86644D01*
X21545D01*
Y86667D01*
X21613D01*
Y86689D01*
X21635D01*
Y86712D01*
X21658D01*
Y86734D01*
X21681D01*
Y86757D01*
X21703D01*
Y86779D01*
X21726D01*
Y86847D01*
X21771D01*
Y86870D01*
X21793D01*
Y86892D01*
X21816D01*
Y86915D01*
X21838D01*
Y86937D01*
X21861D01*
Y86983D01*
X21884D01*
Y87005D01*
X21906D01*
Y87028D01*
X21951D01*
Y87050D01*
X21974D01*
Y87118D01*
X21996D01*
Y87141D01*
X22019D01*
Y87186D01*
X22042D01*
Y87231D01*
X22064D01*
Y87276D01*
X22087D01*
Y87321D01*
X22109D01*
Y87389D01*
X22154D01*
Y87479D01*
X22177D01*
Y87547D01*
X22200D01*
Y87592D01*
X22222D01*
Y87705D01*
X22245D01*
Y87818D01*
X22267D01*
Y87998D01*
X22290D01*
Y88111D01*
X22335D01*
Y88405D01*
X22358D01*
Y88427D01*
X22335D01*
Y88653D01*
X22290D01*
Y88833D01*
X22267D01*
Y88991D01*
X22245D01*
Y89104D01*
X22222D01*
Y89217D01*
X22200D01*
Y89330D01*
X22177D01*
Y89443D01*
X22154D01*
Y89533D01*
X22109D01*
Y89646D01*
X22087D01*
Y89714D01*
X22064D01*
Y89849D01*
X22042D01*
Y89984D01*
X22019D01*
Y90210D01*
X21996D01*
Y92377D01*
X21974D01*
Y92693D01*
X21951D01*
Y92941D01*
X21906D01*
Y93121D01*
X21884D01*
Y93234D01*
X21861D01*
Y93437D01*
X21838D01*
Y93573D01*
X21816D01*
Y93663D01*
X21793D01*
Y93776D01*
X21771D01*
Y93866D01*
X21726D01*
Y93979D01*
X21703D01*
Y94092D01*
X21681D01*
Y94160D01*
X21658D01*
Y94227D01*
X21635D01*
Y94340D01*
X21613D01*
Y94408D01*
X21590D01*
Y94498D01*
X21545D01*
Y94543D01*
X21523D01*
Y94634D01*
X21500D01*
Y94679D01*
X21477D01*
Y94747D01*
X21455D01*
Y94814D01*
X21432D01*
Y94882D01*
X21410D01*
Y94950D01*
X21365D01*
Y95017D01*
X21342D01*
Y95063D01*
X21319D01*
Y95153D01*
X21297D01*
Y95175D01*
X21274D01*
Y95243D01*
X21252D01*
Y95288D01*
X21229D01*
Y95333D01*
X21184D01*
Y95379D01*
X21161D01*
Y95446D01*
X21139D01*
Y95514D01*
X21116D01*
Y95559D01*
X21094D01*
Y95604D01*
X21071D01*
Y95672D01*
X21049D01*
Y95740D01*
X21026D01*
Y95785D01*
X20981D01*
Y95807D01*
X20958D01*
Y95852D01*
X20936D01*
Y95898D01*
X20913D01*
Y95943D01*
X20891D01*
Y95988D01*
X20868D01*
Y96033D01*
X20845D01*
Y96056D01*
X20800D01*
Y96101D01*
X20778D01*
Y96123D01*
X20755D01*
Y96168D01*
X20733D01*
Y96191D01*
X20710D01*
Y96236D01*
X20687D01*
Y96281D01*
X20665D01*
Y96304D01*
X20620D01*
Y96349D01*
X20597D01*
Y96372D01*
X20575D01*
Y96394D01*
X20552D01*
Y96417D01*
X20529D01*
Y96439D01*
X20507D01*
Y96462D01*
X20484D01*
Y96484D01*
X20439D01*
Y96507D01*
X20417D01*
Y96552D01*
X20394D01*
Y96575D01*
X20371D01*
Y96597D01*
X20326D01*
Y96620D01*
X20304D01*
Y96642D01*
X20281D01*
Y96665D01*
X20213D01*
Y96688D01*
X20191D01*
Y96710D01*
X20146D01*
Y96733D01*
X20056D01*
Y96755D01*
X20010D01*
Y96778D01*
D02*
G37*
G36*
X15970Y94701D02*
X15948D01*
Y94679D01*
X15925D01*
Y94701D01*
X15361D01*
Y94679D01*
X15045D01*
Y94656D01*
X14865D01*
Y94634D01*
X14819D01*
Y94611D01*
X14729D01*
Y94566D01*
X14616D01*
Y94543D01*
X14526D01*
Y94521D01*
X14413D01*
Y94498D01*
X14300D01*
Y94476D01*
X14210D01*
Y94453D01*
X14165D01*
Y94431D01*
X14075D01*
Y94408D01*
X14029D01*
Y94385D01*
X13939D01*
Y94363D01*
X13894D01*
Y94340D01*
X13849D01*
Y94318D01*
X13781D01*
Y94273D01*
X13713D01*
Y94250D01*
X13668D01*
Y94227D01*
X13623D01*
Y94205D01*
X13556D01*
Y94182D01*
X13510D01*
Y94160D01*
X13488D01*
Y94137D01*
X13443D01*
Y94115D01*
X13420D01*
Y94092D01*
X13352D01*
Y94069D01*
X13307D01*
Y94047D01*
X13262D01*
Y94002D01*
X13240D01*
Y93979D01*
X13172D01*
Y93957D01*
X13127D01*
Y93934D01*
X13104D01*
Y93911D01*
X13082D01*
Y93889D01*
X13036D01*
Y93866D01*
X12991D01*
Y93844D01*
X12946D01*
Y93821D01*
X12924D01*
Y93799D01*
X12878D01*
Y93776D01*
X12856D01*
Y93731D01*
X12788D01*
Y93708D01*
X12766D01*
Y93686D01*
X12743D01*
Y93663D01*
X12720D01*
Y93641D01*
X12675D01*
Y93618D01*
X12630D01*
Y93595D01*
X12608D01*
Y93573D01*
X12585D01*
Y93550D01*
X12540D01*
Y93528D01*
X12517D01*
Y93505D01*
X12495D01*
Y93460D01*
X12450D01*
Y93437D01*
X12427D01*
Y93415D01*
X12404D01*
Y93392D01*
X12382D01*
Y93370D01*
X12359D01*
Y93347D01*
X12337D01*
Y93325D01*
X12314D01*
Y93302D01*
X12269D01*
Y93279D01*
X12246D01*
Y93257D01*
X12224D01*
Y93234D01*
X12201D01*
Y93167D01*
X12179D01*
Y93144D01*
X12156D01*
Y93121D01*
X12134D01*
Y93099D01*
X12111D01*
Y93054D01*
X12066D01*
Y93031D01*
X12043D01*
Y93009D01*
X12021D01*
Y92963D01*
X11998D01*
Y92896D01*
X11976D01*
Y92873D01*
X11953D01*
Y92828D01*
X11931D01*
Y92783D01*
X11885D01*
Y92760D01*
X11863D01*
Y92715D01*
X11840D01*
Y92670D01*
X11818D01*
Y92602D01*
X11795D01*
Y92557D01*
X11773D01*
Y92512D01*
X11750D01*
Y92467D01*
X11705D01*
Y92399D01*
X11682D01*
Y92286D01*
X11660D01*
Y92219D01*
X11637D01*
Y92016D01*
X11615D01*
Y91948D01*
X11637D01*
Y91993D01*
X11660D01*
Y92038D01*
X11682D01*
Y92128D01*
X11705D01*
Y92174D01*
X11750D01*
Y92196D01*
X11773D01*
Y92241D01*
X11795D01*
Y92286D01*
X11818D01*
Y92309D01*
X11840D01*
Y92377D01*
X11863D01*
Y92399D01*
X11885D01*
Y92422D01*
X11931D01*
Y92467D01*
X11953D01*
Y92490D01*
X11976D01*
Y92512D01*
X12021D01*
Y92535D01*
X12043D01*
Y92557D01*
X12066D01*
Y92580D01*
X12111D01*
Y92602D01*
X12134D01*
Y92625D01*
X12179D01*
Y92670D01*
X12224D01*
Y92693D01*
X12269D01*
Y92715D01*
X12337D01*
Y92738D01*
X12427D01*
Y92760D01*
X12562D01*
Y92738D01*
X12608D01*
Y92715D01*
X12675D01*
Y92693D01*
X12698D01*
Y92670D01*
X12743D01*
Y92625D01*
X12766D01*
Y92602D01*
X12788D01*
Y92580D01*
X12811D01*
Y92557D01*
X12856D01*
Y92535D01*
X12878D01*
Y92512D01*
X12901D01*
Y92557D01*
X12924D01*
Y92512D01*
X12901D01*
Y92467D01*
X12924D01*
Y92444D01*
X12946D01*
Y92377D01*
X12969D01*
Y92309D01*
X12991D01*
Y92264D01*
X13036D01*
Y92128D01*
X13059D01*
Y92151D01*
X13082D01*
Y92128D01*
X13059D01*
Y91767D01*
X13036D01*
Y91609D01*
X12991D01*
Y91496D01*
X12969D01*
Y91406D01*
X12946D01*
Y91316D01*
X12924D01*
Y91226D01*
X12901D01*
Y91158D01*
X12878D01*
Y91113D01*
X12856D01*
Y91045D01*
X12811D01*
Y91023D01*
X12788D01*
Y90955D01*
X12766D01*
Y90910D01*
X12743D01*
Y90865D01*
X12720D01*
Y90842D01*
X12698D01*
Y90819D01*
X12675D01*
Y90797D01*
X12630D01*
Y90752D01*
X12608D01*
Y90707D01*
X12585D01*
Y90662D01*
X12562D01*
Y90639D01*
X12540D01*
Y90616D01*
X12517D01*
Y90594D01*
X12495D01*
Y90571D01*
X12450D01*
Y90549D01*
X12404D01*
Y90526D01*
X12359D01*
Y90504D01*
X12337D01*
Y90481D01*
X12156D01*
Y90504D01*
X12111D01*
Y90526D01*
X12066D01*
Y90504D01*
X12111D01*
Y90481D01*
X12134D01*
Y90458D01*
X12156D01*
Y90436D01*
X12179D01*
Y90391D01*
X12201D01*
Y90368D01*
X12224D01*
Y90346D01*
X12246D01*
Y90323D01*
X12269D01*
Y90300D01*
X12337D01*
Y90278D01*
X12359D01*
Y90255D01*
X12382D01*
Y90233D01*
X12404D01*
Y90210D01*
X12450D01*
Y90188D01*
X12495D01*
Y90165D01*
X12540D01*
Y90120D01*
X12585D01*
Y90097D01*
X12608D01*
Y90075D01*
X12630D01*
Y90052D01*
X12675D01*
Y90030D01*
X12720D01*
Y90007D01*
X12743D01*
Y89984D01*
X12788D01*
Y89962D01*
X12856D01*
Y89939D01*
X12901D01*
Y89917D01*
X12924D01*
Y89894D01*
X12969D01*
Y89849D01*
X13036D01*
Y89826D01*
X13082D01*
Y89804D01*
X13127D01*
Y89781D01*
X13172D01*
Y89759D01*
X13262D01*
Y89736D01*
X13307D01*
Y89714D01*
X13352D01*
Y89691D01*
X13420D01*
Y89668D01*
X13488D01*
Y89646D01*
X13556D01*
Y89623D01*
X13623D01*
Y89601D01*
X13713D01*
Y89556D01*
X13826D01*
Y89533D01*
X13894D01*
Y89510D01*
X14007D01*
Y89488D01*
X14097D01*
Y89465D01*
X14255D01*
Y89443D01*
X14436D01*
Y89420D01*
X14571D01*
Y89398D01*
X14752D01*
Y89375D01*
X14774D01*
Y89398D01*
X14797D01*
Y89375D01*
X14819D01*
Y89398D01*
X14910D01*
Y89375D01*
X15384D01*
Y89398D01*
X15406D01*
Y89375D01*
X15451D01*
Y89398D01*
X15767D01*
Y89420D01*
X16061D01*
Y89443D01*
X16128D01*
Y89465D01*
X16309D01*
Y89488D01*
X16444D01*
Y89510D01*
X16535D01*
Y89533D01*
X16625D01*
Y89556D01*
X16760D01*
Y89601D01*
X16828D01*
Y89623D01*
X16896D01*
Y89646D01*
X16986D01*
Y89668D01*
X17031D01*
Y89691D01*
X17121D01*
Y89714D01*
X17167D01*
Y89736D01*
X17212D01*
Y89759D01*
X17279D01*
Y89781D01*
X17347D01*
Y89804D01*
X17392D01*
Y89826D01*
X17460D01*
Y89849D01*
X17528D01*
Y89894D01*
X17573D01*
Y89917D01*
X17618D01*
Y89939D01*
X17641D01*
Y89962D01*
X17708D01*
Y89984D01*
X17731D01*
Y90007D01*
X17776D01*
Y90030D01*
X17821D01*
Y90052D01*
X17889D01*
Y90075D01*
X17934D01*
Y90097D01*
X17979D01*
Y90120D01*
X18024D01*
Y90165D01*
X18069D01*
Y90188D01*
X18092D01*
Y90210D01*
X18137D01*
Y90233D01*
X18160D01*
Y90255D01*
X18182D01*
Y90278D01*
X18205D01*
Y90300D01*
X18250D01*
Y90323D01*
X18295D01*
Y90346D01*
X18250D01*
Y90368D01*
X18205D01*
Y90391D01*
X18182D01*
Y90436D01*
X18160D01*
Y90481D01*
X18205D01*
Y90458D01*
X18250D01*
Y90436D01*
X18273D01*
Y90391D01*
X18318D01*
Y90368D01*
X18363D01*
Y90346D01*
X18385D01*
Y90323D01*
X18453D01*
Y90300D01*
X18498D01*
Y90278D01*
X18543D01*
Y90255D01*
X18566D01*
Y90233D01*
X18634D01*
Y90210D01*
X18679D01*
Y90188D01*
X18724D01*
Y90165D01*
X18769D01*
Y90120D01*
X18837D01*
Y90097D01*
X18904D01*
Y90075D01*
X18950D01*
Y90052D01*
X19017D01*
Y90030D01*
X19062D01*
Y90007D01*
X19108D01*
Y89984D01*
X19198D01*
Y89962D01*
X19243D01*
Y89939D01*
X19311D01*
Y89917D01*
X19378D01*
Y89894D01*
X19446D01*
Y89849D01*
X19536D01*
Y89826D01*
X19604D01*
Y89804D01*
X19672D01*
Y89781D01*
X19785D01*
Y89759D01*
X19875D01*
Y89736D01*
X20056D01*
Y89714D01*
X20281D01*
Y89736D01*
X20394D01*
Y89759D01*
X20507D01*
Y89781D01*
X20597D01*
Y89804D01*
X20665D01*
Y89826D01*
X20710D01*
Y89849D01*
X20755D01*
Y89894D01*
X20800D01*
Y89917D01*
X20845D01*
Y89939D01*
X20891D01*
Y89962D01*
X20936D01*
Y89984D01*
X20958D01*
Y90007D01*
X21026D01*
Y90030D01*
X21049D01*
Y90052D01*
X21071D01*
Y90075D01*
X21094D01*
Y90097D01*
X21139D01*
Y90120D01*
X21161D01*
Y90188D01*
X21184D01*
Y90210D01*
X21229D01*
Y90255D01*
X21252D01*
Y90278D01*
X21274D01*
Y90323D01*
X21297D01*
Y90368D01*
X21319D01*
Y90458D01*
X21342D01*
Y90594D01*
X21365D01*
Y90639D01*
X21342D01*
Y90774D01*
X21319D01*
Y90797D01*
X21297D01*
Y90819D01*
X21274D01*
Y90842D01*
X21252D01*
Y90865D01*
X21229D01*
Y90887D01*
X21184D01*
Y90910D01*
X21139D01*
Y90932D01*
X21094D01*
Y90955D01*
X21049D01*
Y91000D01*
X20958D01*
Y91023D01*
X20891D01*
Y91045D01*
X20755D01*
Y91068D01*
X20326D01*
Y91045D01*
X20101D01*
Y91023D01*
X19830D01*
Y91000D01*
X19627D01*
Y90955D01*
X19401D01*
Y90932D01*
X19243D01*
Y90910D01*
X19085D01*
Y90887D01*
X18814D01*
Y90865D01*
X18431D01*
Y90887D01*
X18295D01*
Y90910D01*
X18273D01*
Y90932D01*
X18769D01*
Y90955D01*
X18882D01*
Y91000D01*
X18904D01*
Y91045D01*
X18927D01*
Y91113D01*
X18950D01*
Y91158D01*
X18995D01*
Y91226D01*
X19017D01*
Y91293D01*
X19040D01*
Y91384D01*
X19062D01*
Y91451D01*
X19085D01*
Y91587D01*
X19108D01*
Y91722D01*
X19130D01*
Y92174D01*
X19108D01*
Y92377D01*
X19085D01*
Y92467D01*
X19062D01*
Y92557D01*
X19040D01*
Y92625D01*
X19017D01*
Y92715D01*
X18995D01*
Y92783D01*
X18950D01*
Y92851D01*
X18927D01*
Y92896D01*
X18904D01*
Y92963D01*
X18882D01*
Y92941D01*
X18859D01*
Y92986D01*
X18882D01*
Y93031D01*
X18859D01*
Y93076D01*
X18837D01*
Y93099D01*
X18814D01*
Y93144D01*
X18769D01*
Y93212D01*
X18746D01*
Y93257D01*
X18724D01*
Y93279D01*
X18701D01*
Y93325D01*
X18679D01*
Y93347D01*
X18656D01*
Y93370D01*
X18634D01*
Y93415D01*
X18611D01*
Y93437D01*
X18566D01*
Y93392D01*
X18543D01*
Y93437D01*
X18566D01*
Y93505D01*
X18543D01*
Y93528D01*
X18521D01*
Y93437D01*
X18498D01*
Y93460D01*
Y93483D01*
Y93528D01*
X18521D01*
Y93550D01*
X18498D01*
Y93595D01*
X18476D01*
Y93618D01*
X18453D01*
Y93641D01*
X18431D01*
Y93663D01*
X18385D01*
Y93686D01*
X18363D01*
Y93731D01*
X18318D01*
Y93799D01*
X18273D01*
Y93821D01*
X18250D01*
Y93844D01*
X18205D01*
Y93866D01*
X18182D01*
Y93889D01*
X18160D01*
Y93911D01*
X18115D01*
Y93844D01*
X18092D01*
Y93911D01*
X18115D01*
Y93934D01*
X18092D01*
Y93957D01*
X18069D01*
Y93889D01*
X18024D01*
Y93957D01*
X18069D01*
Y93979D01*
X18024D01*
Y94002D01*
X17979D01*
Y94047D01*
X17934D01*
Y94069D01*
X17911D01*
Y94092D01*
X17889D01*
Y94115D01*
X17866D01*
Y94137D01*
X17799D01*
Y94160D01*
X17753D01*
Y94182D01*
X17731D01*
Y94205D01*
X17686D01*
Y94227D01*
X17618D01*
Y94250D01*
X17573D01*
Y94273D01*
X17505D01*
Y94318D01*
X17437D01*
Y94340D01*
X17392D01*
Y94363D01*
X17347D01*
Y94385D01*
X17279D01*
Y94408D01*
X17212D01*
Y94431D01*
X17144D01*
Y94453D01*
X17076D01*
Y94476D01*
X17031D01*
Y94498D01*
X16963D01*
Y94521D01*
X16896D01*
Y94543D01*
X16783D01*
Y94566D01*
X16670D01*
Y94611D01*
X16580D01*
Y94634D01*
X16399D01*
Y94656D01*
X16151D01*
Y94679D01*
X15970D01*
Y94701D01*
D02*
G37*
G36*
X10689Y92535D02*
X10464D01*
Y92512D01*
X10396D01*
Y92490D01*
X10373D01*
Y92467D01*
X10351D01*
Y92444D01*
X10328D01*
Y92422D01*
X10306D01*
Y92399D01*
X10283D01*
Y92332D01*
X10260D01*
Y92241D01*
X10215D01*
Y92151D01*
X10193D01*
Y92016D01*
X10215D01*
Y91925D01*
X10260D01*
Y91880D01*
X10283D01*
Y91790D01*
X10306D01*
Y91767D01*
X10328D01*
Y91722D01*
X10351D01*
Y91677D01*
X10373D01*
Y91654D01*
X10396D01*
Y91609D01*
X10441D01*
Y91587D01*
X10486D01*
Y91564D01*
X10509D01*
Y91542D01*
X10531D01*
Y91496D01*
X10576D01*
Y91474D01*
X10644D01*
Y91451D01*
X10689D01*
Y91429D01*
X10734D01*
Y91406D01*
X10847D01*
Y91384D01*
X10915D01*
Y91361D01*
X11073D01*
Y91338D01*
X11321D01*
Y91361D01*
X11569D01*
Y91542D01*
X11524D01*
Y91564D01*
X11411D01*
Y91587D01*
X11366D01*
Y91609D01*
X11479D01*
Y91632D01*
X11569D01*
Y91700D01*
X11524D01*
Y91722D01*
X11434D01*
Y91745D01*
X11366D01*
Y91767D01*
X11276D01*
Y91790D01*
X11231D01*
Y91835D01*
X11208D01*
Y91858D01*
X11299D01*
Y91835D01*
X11389D01*
Y91790D01*
X11569D01*
Y92038D01*
X11502D01*
Y92061D01*
X11434D01*
Y92106D01*
X11389D01*
Y92128D01*
X11366D01*
Y92151D01*
X11276D01*
Y92174D01*
X11253D01*
Y92196D01*
X11208D01*
Y92219D01*
X11186D01*
Y92241D01*
X11141D01*
Y92264D01*
X11095D01*
Y92286D01*
X11073D01*
Y92309D01*
X11028D01*
Y92332D01*
X11005D01*
Y92377D01*
X10938D01*
Y92399D01*
X10915D01*
Y92422D01*
X10892D01*
Y92444D01*
X10847D01*
Y92467D01*
X10780D01*
Y92490D01*
X10757D01*
Y92512D01*
X10689D01*
Y92535D01*
D02*
G37*
G36*
X12540Y92693D02*
X12382D01*
Y92670D01*
X12314D01*
Y92625D01*
X12246D01*
Y92602D01*
X12201D01*
Y92580D01*
X12156D01*
Y92557D01*
X12134D01*
Y92535D01*
X12111D01*
Y92512D01*
X12066D01*
Y92490D01*
X12021D01*
Y92467D01*
X11998D01*
Y92444D01*
X11976D01*
Y92422D01*
X11953D01*
Y92377D01*
X11931D01*
Y92332D01*
X11885D01*
Y92309D01*
X11863D01*
Y92286D01*
X11840D01*
Y92241D01*
X11818D01*
Y92219D01*
X11795D01*
Y92174D01*
X11773D01*
Y92128D01*
X11750D01*
Y92061D01*
X11705D01*
Y91993D01*
X11682D01*
Y91948D01*
X11660D01*
Y91880D01*
X11637D01*
Y91722D01*
X11615D01*
Y91406D01*
X11637D01*
Y91271D01*
X11660D01*
Y91181D01*
X11682D01*
Y91113D01*
X11705D01*
Y91045D01*
X11750D01*
Y90955D01*
X11773D01*
Y90932D01*
X11795D01*
Y90887D01*
X11818D01*
Y90842D01*
X11840D01*
Y90797D01*
X11863D01*
Y90774D01*
X11885D01*
Y90752D01*
X11931D01*
Y90729D01*
X11953D01*
Y90662D01*
X11976D01*
Y90639D01*
X11998D01*
Y90616D01*
X12021D01*
Y90594D01*
X12066D01*
Y90571D01*
X12134D01*
Y90549D01*
X12314D01*
Y90571D01*
X12359D01*
Y90594D01*
X12404D01*
Y90639D01*
X12427D01*
Y90662D01*
X12495D01*
Y90707D01*
X12517D01*
Y90752D01*
X12540D01*
Y90774D01*
X12562D01*
Y90797D01*
X12608D01*
Y90842D01*
X12630D01*
Y90865D01*
X12675D01*
Y90887D01*
X12698D01*
Y90932D01*
X12720D01*
Y91000D01*
X12743D01*
Y91045D01*
X12766D01*
Y91090D01*
X12788D01*
Y91135D01*
X12811D01*
Y91203D01*
X12856D01*
Y91271D01*
X12878D01*
Y91384D01*
X12901D01*
Y91451D01*
X12924D01*
Y91587D01*
X12946D01*
Y91767D01*
X12969D01*
Y91790D01*
X12946D01*
Y91858D01*
X12969D01*
Y91903D01*
X12946D01*
Y91925D01*
X12969D01*
Y92061D01*
X12946D01*
Y92241D01*
X12924D01*
Y92286D01*
X12901D01*
Y92332D01*
X12878D01*
Y92399D01*
X12856D01*
Y92444D01*
X12811D01*
Y92490D01*
X12788D01*
Y92512D01*
X12766D01*
Y92535D01*
X12743D01*
Y92557D01*
X12720D01*
Y92580D01*
X12675D01*
Y92625D01*
X12585D01*
Y92670D01*
X12540D01*
Y92693D01*
D02*
G37*
G36*
X18950Y89398D02*
X18904D01*
Y89375D01*
X18927D01*
Y89285D01*
X18904D01*
Y89352D01*
X18837D01*
Y89285D01*
X18769D01*
Y89240D01*
X18746D01*
Y89262D01*
X18724D01*
Y89285D01*
X18701D01*
Y89262D01*
X18679D01*
Y89240D01*
X18634D01*
Y89194D01*
X18611D01*
Y89217D01*
X18566D01*
Y89194D01*
X18543D01*
Y89240D01*
X18498D01*
Y89217D01*
X18476D01*
Y89240D01*
X18453D01*
Y89217D01*
X18431D01*
Y89240D01*
X18385D01*
Y89217D01*
X18363D01*
Y89240D01*
X18295D01*
Y89217D01*
X18273D01*
Y89240D01*
X18160D01*
Y89262D01*
X18137D01*
Y89285D01*
X18115D01*
Y89240D01*
X18137D01*
Y89217D01*
X18160D01*
Y89194D01*
X18182D01*
Y89217D01*
X18205D01*
Y89194D01*
X18182D01*
Y89172D01*
X18205D01*
Y89127D01*
X18250D01*
Y89104D01*
X18273D01*
Y89082D01*
X18295D01*
Y89059D01*
X18340D01*
Y89014D01*
X18363D01*
Y88991D01*
X18431D01*
Y88969D01*
X18453D01*
Y88946D01*
X18498D01*
Y88924D01*
X18566D01*
Y88901D01*
X18701D01*
Y88924D01*
X18769D01*
Y88946D01*
X18837D01*
Y88969D01*
X18859D01*
Y88991D01*
X18882D01*
Y89014D01*
X18904D01*
Y89104D01*
X18927D01*
Y89149D01*
X18904D01*
Y89172D01*
X18927D01*
Y89194D01*
X18904D01*
Y89217D01*
X18882D01*
Y89240D01*
X18859D01*
Y89262D01*
X18882D01*
Y89240D01*
X18904D01*
Y89217D01*
X18927D01*
Y89194D01*
X18950D01*
Y89398D01*
D02*
G37*
G36*
X18611Y89262D02*
X18566D01*
Y89240D01*
X18611D01*
Y89262D01*
D02*
G37*
%LPD*%
G36*
X13601Y97613D02*
X13556D01*
Y97635D01*
Y97658D01*
X13601D01*
Y97613D01*
D02*
G37*
G36*
X13646Y97568D02*
X13623D01*
Y97590D01*
X13646D01*
Y97568D01*
D02*
G37*
G36*
X13601D02*
X13556D01*
Y97590D01*
X13601D01*
Y97568D01*
D02*
G37*
G36*
X20056Y96688D02*
X20033D01*
Y96710D01*
X20056D01*
Y96688D01*
D02*
G37*
G36*
X20010D02*
X19988D01*
Y96710D01*
X20010D01*
Y96688D01*
D02*
G37*
G36*
X16241Y94611D02*
X16219D01*
Y94634D01*
X16241D01*
Y94611D01*
D02*
G37*
G36*
X16196D02*
X16151D01*
Y94634D01*
X16196D01*
Y94611D01*
D02*
G37*
G36*
X16128D02*
X16106D01*
Y94634D01*
X16128D01*
Y94611D01*
D02*
G37*
G36*
X15519Y94318D02*
X15496D01*
Y94340D01*
X15519D01*
Y94318D01*
D02*
G37*
G36*
X17641Y94137D02*
X17618D01*
Y94160D01*
X17641D01*
Y94137D01*
D02*
G37*
G36*
X17753Y94092D02*
X17731D01*
Y94115D01*
X17753D01*
Y94092D01*
D02*
G37*
G36*
X17799Y94047D02*
X17776D01*
Y94069D01*
X17799D01*
Y94047D01*
D02*
G37*
G36*
X17708D02*
X17686D01*
Y94069D01*
X17708D01*
Y94047D01*
D02*
G37*
G36*
X17641Y94002D02*
X17618D01*
Y94047D01*
X17641D01*
Y94002D01*
D02*
G37*
G36*
X17957Y93979D02*
X17934D01*
Y94002D01*
X17957D01*
Y93979D01*
D02*
G37*
G36*
X17866D02*
X17821D01*
Y94024D01*
Y94047D01*
X17866D01*
Y93979D01*
D02*
G37*
G36*
X17753D02*
X17731D01*
Y94024D01*
Y94047D01*
X17753D01*
Y93979D01*
D02*
G37*
G36*
X17279D02*
X17257D01*
Y94002D01*
X17279D01*
Y93979D01*
D02*
G37*
G36*
X18002Y93934D02*
X17979D01*
Y93957D01*
Y93979D01*
X18002D01*
Y93934D01*
D02*
G37*
G36*
X17911Y93979D02*
Y93957D01*
Y93934D01*
X17889D01*
Y94002D01*
X17911D01*
Y93979D01*
D02*
G37*
G36*
X17799D02*
Y93957D01*
Y93934D01*
X17776D01*
Y94002D01*
X17799D01*
Y93979D01*
D02*
G37*
G36*
X17708Y93957D02*
Y93934D01*
X17686D01*
Y94002D01*
X17708D01*
Y93957D01*
D02*
G37*
G36*
X17595D02*
Y93934D01*
X17573D01*
Y93979D01*
X17595D01*
Y93957D01*
D02*
G37*
G36*
X17505D02*
Y93934D01*
X17460D01*
Y93979D01*
X17505D01*
Y93957D01*
D02*
G37*
G36*
X17866Y93889D02*
X17821D01*
Y93957D01*
X17866D01*
Y93889D01*
D02*
G37*
G36*
X17753Y93934D02*
Y93889D01*
X17731D01*
Y93957D01*
X17753D01*
Y93934D01*
D02*
G37*
G36*
X17708Y93889D02*
X17686D01*
Y93911D01*
X17708D01*
Y93889D01*
D02*
G37*
G36*
X17641D02*
X17618D01*
Y93957D01*
X17641D01*
Y93889D01*
D02*
G37*
G36*
X17550Y93911D02*
Y93889D01*
X17528D01*
Y93934D01*
X17550D01*
Y93911D01*
D02*
G37*
G36*
X17437Y93889D02*
X17415D01*
Y93934D01*
X17437D01*
Y93889D01*
D02*
G37*
G36*
X16986D02*
X16963D01*
Y93911D01*
X16986D01*
Y93889D01*
D02*
G37*
G36*
X17279Y93866D02*
X17257D01*
Y93889D01*
X17279D01*
Y93866D01*
D02*
G37*
G36*
X17957Y93934D02*
X17979D01*
Y93911D01*
X18002D01*
Y93844D01*
X17979D01*
Y93866D01*
Y93889D01*
Y93911D01*
X17957D01*
Y93889D01*
X17934D01*
Y93957D01*
X17957D01*
Y93934D01*
D02*
G37*
G36*
X17911Y93844D02*
X17889D01*
Y93866D01*
X17911D01*
Y93844D01*
D02*
G37*
G36*
X17799Y93889D02*
Y93844D01*
X17776D01*
Y93911D01*
X17799D01*
Y93889D01*
D02*
G37*
G36*
X17708Y93844D02*
X17686D01*
Y93866D01*
X17708D01*
Y93844D01*
D02*
G37*
G36*
X17595D02*
X17573D01*
Y93866D01*
Y93911D01*
X17595D01*
Y93844D01*
D02*
G37*
G36*
X17392D02*
X17370D01*
Y93889D01*
X17392D01*
Y93844D01*
D02*
G37*
G36*
X16625D02*
X16602D01*
Y93866D01*
X16625D01*
Y93844D01*
D02*
G37*
G36*
X17234Y93821D02*
X17212D01*
Y93844D01*
X17234D01*
Y93821D01*
D02*
G37*
G36*
X17144D02*
X17121D01*
Y93844D01*
X17144D01*
Y93821D01*
D02*
G37*
G36*
X18160Y93799D02*
X18137D01*
Y93821D01*
Y93844D01*
Y93866D01*
X18160D01*
Y93799D01*
D02*
G37*
G36*
X17866D02*
X17821D01*
Y93866D01*
X17866D01*
Y93799D01*
D02*
G37*
G36*
X17505Y93889D02*
X17528D01*
Y93866D01*
X17550D01*
Y93844D01*
Y93821D01*
Y93799D01*
X17528D01*
Y93866D01*
X17505D01*
Y93844D01*
X17460D01*
Y93866D01*
Y93889D01*
Y93911D01*
X17505D01*
Y93889D01*
D02*
G37*
G36*
X17437Y93799D02*
X17415D01*
Y93821D01*
Y93844D01*
Y93866D01*
X17437D01*
Y93799D01*
D02*
G37*
G36*
X17347Y93844D02*
Y93821D01*
Y93799D01*
X17325D01*
Y93866D01*
X17347D01*
Y93844D01*
D02*
G37*
G36*
X16873Y93799D02*
X16851D01*
Y93821D01*
X16873D01*
Y93799D01*
D02*
G37*
G36*
X17279Y93776D02*
X17257D01*
Y93799D01*
X17279D01*
Y93776D01*
D02*
G37*
G36*
X18205Y93753D02*
Y93731D01*
X18182D01*
Y93821D01*
X18205D01*
Y93753D01*
D02*
G37*
G36*
X17911Y93889D02*
X17934D01*
Y93866D01*
X17957D01*
Y93844D01*
X17979D01*
Y93821D01*
X18002D01*
Y93731D01*
X17979D01*
Y93776D01*
Y93799D01*
Y93821D01*
X17957D01*
Y93799D01*
X17934D01*
Y93821D01*
Y93844D01*
Y93866D01*
X17911D01*
Y93889D01*
X17889D01*
Y93911D01*
X17911D01*
Y93889D01*
D02*
G37*
G36*
Y93731D02*
X17889D01*
Y93753D01*
Y93776D01*
X17911D01*
Y93731D01*
D02*
G37*
G36*
X17799D02*
X17776D01*
Y93776D01*
X17799D01*
Y93731D01*
D02*
G37*
G36*
X17505Y93799D02*
Y93776D01*
Y93731D01*
X17460D01*
Y93821D01*
X17505D01*
Y93799D01*
D02*
G37*
G36*
X17392Y93731D02*
X17370D01*
Y93776D01*
Y93799D01*
Y93821D01*
X17392D01*
Y93731D01*
D02*
G37*
G36*
X17189Y93753D02*
Y93731D01*
X17167D01*
Y93776D01*
X17189D01*
Y93753D01*
D02*
G37*
G36*
X16422Y93731D02*
X16399D01*
Y93753D01*
Y93776D01*
X16422D01*
Y93731D01*
D02*
G37*
G36*
X17144Y93708D02*
X17121D01*
Y93731D01*
X17144D01*
Y93708D01*
D02*
G37*
G36*
X18273Y93731D02*
X18295D01*
Y93708D01*
X18318D01*
Y93686D01*
X18295D01*
Y93708D01*
X18273D01*
Y93686D01*
X18250D01*
Y93776D01*
X18273D01*
Y93731D01*
D02*
G37*
G36*
X17753Y93844D02*
X17776D01*
Y93821D01*
X17799D01*
Y93799D01*
X17821D01*
Y93776D01*
X17866D01*
Y93686D01*
X17821D01*
Y93776D01*
X17799D01*
Y93799D01*
X17776D01*
Y93821D01*
X17753D01*
Y93799D01*
X17731D01*
Y93844D01*
Y93866D01*
X17753D01*
Y93844D01*
D02*
G37*
G36*
X17550Y93686D02*
X17528D01*
Y93708D01*
Y93776D01*
X17550D01*
Y93686D01*
D02*
G37*
G36*
X17437Y93731D02*
Y93708D01*
Y93686D01*
X17415D01*
Y93776D01*
X17437D01*
Y93731D01*
D02*
G37*
G36*
X17347Y93686D02*
X17325D01*
Y93776D01*
X17347D01*
Y93686D01*
D02*
G37*
G36*
X17234Y93708D02*
Y93686D01*
X17212D01*
Y93731D01*
X17234D01*
Y93708D01*
D02*
G37*
G36*
X17076Y93686D02*
X17054D01*
Y93708D01*
X17076D01*
Y93686D01*
D02*
G37*
G36*
X17031D02*
X17009D01*
Y93708D01*
X17031D01*
Y93686D01*
D02*
G37*
G36*
X16986D02*
X16963D01*
Y93708D01*
X16986D01*
Y93686D01*
D02*
G37*
G36*
X17279Y93663D02*
X17257D01*
Y93686D01*
X17279D01*
Y93663D01*
D02*
G37*
G36*
X17189D02*
X17167D01*
Y93686D01*
X17189D01*
Y93663D01*
D02*
G37*
G36*
X18318Y93641D02*
X18295D01*
Y93663D01*
X18318D01*
Y93641D01*
D02*
G37*
G36*
X18069Y93844D02*
X18092D01*
Y93821D01*
X18115D01*
Y93799D01*
X18137D01*
Y93776D01*
X18160D01*
Y93731D01*
X18182D01*
Y93708D01*
X18205D01*
Y93686D01*
Y93663D01*
Y93641D01*
X18182D01*
Y93708D01*
X18160D01*
Y93686D01*
X18137D01*
Y93731D01*
Y93753D01*
Y93776D01*
X18115D01*
Y93753D01*
Y93731D01*
X18092D01*
Y93821D01*
X18069D01*
Y93799D01*
X18024D01*
Y93866D01*
X18069D01*
Y93844D01*
D02*
G37*
G36*
Y93731D02*
X18092D01*
Y93708D01*
X18115D01*
Y93641D01*
X18092D01*
Y93708D01*
X18069D01*
Y93686D01*
X18024D01*
Y93776D01*
X18069D01*
Y93731D01*
D02*
G37*
G36*
X17911Y93799D02*
X17934D01*
Y93776D01*
X17957D01*
Y93731D01*
X17979D01*
Y93708D01*
X18002D01*
Y93686D01*
X18024D01*
Y93663D01*
X18069D01*
Y93641D01*
X18024D01*
Y93663D01*
X18002D01*
Y93641D01*
X17979D01*
Y93663D01*
Y93686D01*
Y93708D01*
X17957D01*
Y93686D01*
X17934D01*
Y93776D01*
X17911D01*
Y93799D01*
X17889D01*
Y93821D01*
X17911D01*
Y93799D01*
D02*
G37*
G36*
Y93686D02*
X17934D01*
Y93663D01*
X17957D01*
Y93641D01*
X17934D01*
Y93663D01*
X17911D01*
Y93641D01*
X17889D01*
Y93708D01*
X17911D01*
Y93686D01*
D02*
G37*
G36*
X17799Y93641D02*
X17776D01*
Y93663D01*
X17799D01*
Y93641D01*
D02*
G37*
G36*
X17595Y93799D02*
X17618D01*
Y93776D01*
X17641D01*
Y93731D01*
X17686D01*
Y93708D01*
X17708D01*
Y93686D01*
Y93641D01*
X17686D01*
Y93708D01*
X17641D01*
Y93686D01*
X17618D01*
Y93776D01*
X17595D01*
Y93799D01*
X17573D01*
Y93821D01*
X17595D01*
Y93799D01*
D02*
G37*
G36*
Y93641D02*
X17573D01*
Y93708D01*
X17595D01*
Y93641D01*
D02*
G37*
G36*
X17505D02*
X17460D01*
Y93686D01*
Y93708D01*
X17505D01*
Y93641D01*
D02*
G37*
G36*
X17392D02*
X17370D01*
Y93663D01*
Y93708D01*
X17392D01*
Y93641D01*
D02*
G37*
G36*
X17144D02*
X17121D01*
Y93663D01*
X17144D01*
Y93641D01*
D02*
G37*
G36*
X16986D02*
X16963D01*
Y93663D01*
X16986D01*
Y93641D01*
D02*
G37*
G36*
X16941D02*
X16896D01*
Y93663D01*
X16941D01*
Y93641D01*
D02*
G37*
G36*
X16828D02*
X16806D01*
Y93663D01*
X16828D01*
Y93641D01*
D02*
G37*
G36*
X16783D02*
X16760D01*
Y93663D01*
X16783D01*
Y93641D01*
D02*
G37*
G36*
X16625Y93618D02*
X16602D01*
Y93641D01*
X16625D01*
Y93618D01*
D02*
G37*
G36*
X18160Y93595D02*
X18137D01*
Y93641D01*
Y93663D01*
X18160D01*
Y93595D01*
D02*
G37*
G36*
X18069D02*
X18024D01*
Y93618D01*
X18069D01*
Y93595D01*
D02*
G37*
G36*
X17957D02*
X17934D01*
Y93618D01*
X17957D01*
Y93595D01*
D02*
G37*
G36*
X17641Y93844D02*
X17686D01*
Y93821D01*
X17708D01*
Y93799D01*
X17731D01*
Y93776D01*
X17753D01*
Y93731D01*
X17776D01*
Y93708D01*
X17799D01*
Y93686D01*
X17821D01*
Y93663D01*
X17866D01*
Y93595D01*
X17821D01*
Y93663D01*
X17799D01*
Y93686D01*
X17776D01*
Y93708D01*
X17753D01*
Y93686D01*
X17731D01*
Y93776D01*
X17708D01*
Y93731D01*
X17686D01*
Y93799D01*
Y93821D01*
X17641D01*
Y93799D01*
X17618D01*
Y93866D01*
X17641D01*
Y93844D01*
D02*
G37*
G36*
X17753Y93595D02*
X17731D01*
Y93618D01*
Y93663D01*
X17753D01*
Y93595D01*
D02*
G37*
G36*
X17641D02*
X17618D01*
Y93663D01*
X17641D01*
Y93595D01*
D02*
G37*
G36*
X17550D02*
X17528D01*
Y93663D01*
X17550D01*
Y93595D01*
D02*
G37*
G36*
X17437Y93618D02*
Y93595D01*
X17415D01*
Y93663D01*
X17437D01*
Y93618D01*
D02*
G37*
G36*
X17347Y93595D02*
X17325D01*
Y93663D01*
X17347D01*
Y93595D01*
D02*
G37*
G36*
X17279D02*
X17257D01*
Y93618D01*
X17279D01*
Y93595D01*
D02*
G37*
G36*
X17234D02*
X17212D01*
Y93663D01*
X17234D01*
Y93595D01*
D02*
G37*
G36*
X17076D02*
X17054D01*
Y93618D01*
X17076D01*
Y93595D01*
D02*
G37*
G36*
X17031D02*
X17009D01*
Y93641D01*
Y93663D01*
X17031D01*
Y93595D01*
D02*
G37*
G36*
X16986D02*
X16963D01*
Y93618D01*
X16986D01*
Y93595D01*
D02*
G37*
G36*
X16715D02*
X16693D01*
Y93618D01*
X16715D01*
Y93595D01*
D02*
G37*
G36*
X18363Y93641D02*
X18385D01*
Y93618D01*
X18431D01*
Y93595D01*
Y93550D01*
X18385D01*
Y93618D01*
X18363D01*
Y93595D01*
X18340D01*
Y93663D01*
X18363D01*
Y93641D01*
D02*
G37*
G36*
X18205Y93550D02*
X18182D01*
Y93595D01*
Y93618D01*
X18205D01*
Y93550D01*
D02*
G37*
G36*
X17911Y93595D02*
X17934D01*
Y93573D01*
X17957D01*
Y93550D01*
X17934D01*
Y93573D01*
X17911D01*
Y93550D01*
X17889D01*
Y93618D01*
X17911D01*
Y93595D01*
D02*
G37*
G36*
X17799Y93550D02*
X17776D01*
Y93618D01*
X17799D01*
Y93550D01*
D02*
G37*
G36*
X17708D02*
X17686D01*
Y93618D01*
X17708D01*
Y93550D01*
D02*
G37*
G36*
X17595D02*
X17573D01*
Y93573D01*
Y93595D01*
Y93618D01*
X17595D01*
Y93550D01*
D02*
G37*
G36*
X17505Y93595D02*
Y93550D01*
X17460D01*
Y93618D01*
X17505D01*
Y93595D01*
D02*
G37*
G36*
X17392Y93573D02*
Y93550D01*
X17370D01*
Y93618D01*
X17392D01*
Y93573D01*
D02*
G37*
G36*
X17347Y93550D02*
X17325D01*
Y93573D01*
X17347D01*
Y93550D01*
D02*
G37*
G36*
X17189D02*
X17167D01*
Y93618D01*
X17189D01*
Y93550D01*
D02*
G37*
G36*
X16986D02*
X16963D01*
Y93573D01*
X16986D01*
Y93550D01*
D02*
G37*
G36*
X16941D02*
X16896D01*
Y93573D01*
X16941D01*
Y93550D01*
D02*
G37*
G36*
X16783D02*
X16760D01*
Y93573D01*
X16783D01*
Y93550D01*
D02*
G37*
G36*
X16670D02*
X16648D01*
Y93573D01*
X16670D01*
Y93550D01*
D02*
G37*
G36*
X16580D02*
X16535D01*
Y93573D01*
X16580D01*
Y93550D01*
D02*
G37*
G36*
X16467D02*
X16444D01*
Y93573D01*
Y93595D01*
X16467D01*
Y93550D01*
D02*
G37*
G36*
X16512Y93528D02*
X16490D01*
Y93550D01*
X16512D01*
Y93528D01*
D02*
G37*
G36*
X18476Y93505D02*
X18453D01*
Y93528D01*
Y93550D01*
Y93573D01*
X18476D01*
Y93505D01*
D02*
G37*
G36*
X17957D02*
X17934D01*
Y93528D01*
X17957D01*
Y93505D01*
D02*
G37*
G36*
X17866D02*
X17821D01*
Y93573D01*
X17866D01*
Y93505D01*
D02*
G37*
G36*
X17641Y93550D02*
Y93528D01*
Y93505D01*
X17618D01*
Y93573D01*
X17641D01*
Y93550D01*
D02*
G37*
G36*
X17550Y93505D02*
X17528D01*
Y93528D01*
Y93573D01*
X17550D01*
Y93505D01*
D02*
G37*
G36*
X17437D02*
X17415D01*
Y93550D01*
Y93573D01*
X17437D01*
Y93505D01*
D02*
G37*
G36*
X17392D02*
X17370D01*
Y93528D01*
X17392D01*
Y93505D01*
D02*
G37*
G36*
X17279D02*
X17257D01*
Y93528D01*
X17279D01*
Y93505D01*
D02*
G37*
G36*
X17234Y93528D02*
Y93505D01*
X17212D01*
Y93573D01*
X17234D01*
Y93528D01*
D02*
G37*
G36*
X17144Y93505D02*
X17121D01*
Y93528D01*
Y93550D01*
Y93573D01*
X17144D01*
Y93505D01*
D02*
G37*
G36*
X17031D02*
X17009D01*
Y93573D01*
X17031D01*
Y93505D01*
D02*
G37*
G36*
X16828D02*
X16806D01*
Y93528D01*
X16828D01*
Y93505D01*
D02*
G37*
G36*
X16625D02*
X16602D01*
Y93528D01*
X16625D01*
Y93505D01*
D02*
G37*
G36*
X16580D02*
X16535D01*
Y93528D01*
X16580D01*
Y93505D01*
D02*
G37*
G36*
X16467D02*
X16444D01*
Y93528D01*
X16467D01*
Y93505D01*
D02*
G37*
G36*
X15542D02*
X15519D01*
Y93528D01*
X15542D01*
Y93505D01*
D02*
G37*
G36*
X16783Y93460D02*
X16760D01*
Y93505D01*
X16783D01*
Y93460D01*
D02*
G37*
G36*
X16670Y93483D02*
Y93460D01*
X16648D01*
Y93505D01*
X16670D01*
Y93483D01*
D02*
G37*
G36*
X16264D02*
Y93460D01*
X16241D01*
Y93505D01*
X16264D01*
Y93483D01*
D02*
G37*
G36*
X18273Y93641D02*
X18295D01*
Y93618D01*
X18318D01*
Y93595D01*
X18340D01*
Y93573D01*
X18363D01*
Y93550D01*
X18385D01*
Y93528D01*
X18431D01*
Y93460D01*
Y93437D01*
X18385D01*
Y93528D01*
X18363D01*
Y93505D01*
X18340D01*
Y93573D01*
X18318D01*
Y93550D01*
X18295D01*
Y93595D01*
Y93618D01*
X18273D01*
Y93595D01*
X18250D01*
Y93663D01*
X18273D01*
Y93641D01*
D02*
G37*
G36*
X18205Y93437D02*
X18182D01*
Y93460D01*
X18205D01*
Y93437D01*
D02*
G37*
G36*
X18002Y93595D02*
X18024D01*
Y93573D01*
X18069D01*
Y93550D01*
X18092D01*
Y93528D01*
X18115D01*
Y93505D01*
Y93437D01*
X18092D01*
Y93528D01*
X18069D01*
Y93505D01*
X18024D01*
Y93573D01*
X18002D01*
Y93550D01*
X17979D01*
Y93618D01*
X18002D01*
Y93595D01*
D02*
G37*
G36*
X17911Y93505D02*
Y93483D01*
Y93437D01*
X17889D01*
Y93528D01*
X17911D01*
Y93505D01*
D02*
G37*
G36*
X17753Y93550D02*
X17776D01*
Y93528D01*
X17799D01*
Y93437D01*
X17776D01*
Y93528D01*
X17753D01*
Y93505D01*
X17731D01*
Y93528D01*
Y93550D01*
Y93573D01*
X17753D01*
Y93550D01*
D02*
G37*
G36*
X17708Y93437D02*
X17686D01*
Y93505D01*
Y93528D01*
X17708D01*
Y93437D01*
D02*
G37*
G36*
X17595D02*
X17573D01*
Y93505D01*
Y93528D01*
X17595D01*
Y93437D01*
D02*
G37*
G36*
X17505D02*
X17460D01*
Y93460D01*
Y93528D01*
X17505D01*
Y93437D01*
D02*
G37*
G36*
X17347D02*
X17325D01*
Y93460D01*
X17347D01*
Y93437D01*
D02*
G37*
G36*
X17189D02*
X17167D01*
Y93460D01*
Y93483D01*
Y93528D01*
X17189D01*
Y93437D01*
D02*
G37*
G36*
X17076D02*
X17054D01*
Y93528D01*
X17076D01*
Y93437D01*
D02*
G37*
G36*
X16986D02*
X16963D01*
Y93528D01*
X16986D01*
Y93437D01*
D02*
G37*
G36*
X16941D02*
X16896D01*
Y93460D01*
X16941D01*
Y93437D01*
D02*
G37*
G36*
X16873Y93505D02*
Y93437D01*
X16851D01*
Y93528D01*
X16873D01*
Y93505D01*
D02*
G37*
G36*
X16828Y93437D02*
X16806D01*
Y93460D01*
X16828D01*
Y93437D01*
D02*
G37*
G36*
X16715D02*
X16693D01*
Y93460D01*
X16715D01*
Y93437D01*
D02*
G37*
G36*
X16512D02*
X16490D01*
Y93460D01*
X16512D01*
Y93437D01*
D02*
G37*
G36*
X16422D02*
X16399D01*
Y93460D01*
X16422D01*
Y93437D01*
D02*
G37*
G36*
X16309D02*
X16286D01*
Y93460D01*
X16309D01*
Y93437D01*
D02*
G37*
G36*
X18476Y93392D02*
X18453D01*
Y93415D01*
Y93460D01*
X18476D01*
Y93392D01*
D02*
G37*
G36*
X18273Y93550D02*
X18295D01*
Y93528D01*
X18318D01*
Y93505D01*
X18340D01*
Y93460D01*
X18363D01*
Y93437D01*
Y93415D01*
Y93392D01*
X18340D01*
Y93460D01*
X18318D01*
Y93437D01*
X18295D01*
Y93528D01*
X18273D01*
Y93505D01*
X18250D01*
Y93573D01*
X18273D01*
Y93550D01*
D02*
G37*
G36*
X18318Y93392D02*
X18295D01*
Y93415D01*
X18318D01*
Y93392D01*
D02*
G37*
G36*
X18115Y93595D02*
X18137D01*
Y93573D01*
X18160D01*
Y93550D01*
X18182D01*
Y93528D01*
X18205D01*
Y93505D01*
X18250D01*
Y93460D01*
X18273D01*
Y93392D01*
X18250D01*
Y93460D01*
X18205D01*
Y93505D01*
X18182D01*
Y93528D01*
X18160D01*
Y93505D01*
X18137D01*
Y93573D01*
X18115D01*
Y93550D01*
X18092D01*
Y93618D01*
X18115D01*
Y93595D01*
D02*
G37*
G36*
X18160Y93437D02*
X18182D01*
Y93415D01*
X18205D01*
Y93392D01*
X18182D01*
Y93415D01*
X18160D01*
Y93392D01*
X18137D01*
Y93460D01*
X18160D01*
Y93437D01*
D02*
G37*
G36*
X18115Y93392D02*
X18092D01*
Y93415D01*
X18115D01*
Y93392D01*
D02*
G37*
G36*
X18002Y93505D02*
X18024D01*
Y93460D01*
X18069D01*
Y93392D01*
X18024D01*
Y93415D01*
Y93460D01*
X18002D01*
Y93437D01*
X17979D01*
Y93460D01*
Y93483D01*
Y93528D01*
X18002D01*
Y93505D01*
D02*
G37*
G36*
X17957Y93437D02*
Y93415D01*
Y93392D01*
X17934D01*
Y93460D01*
X17957D01*
Y93437D01*
D02*
G37*
G36*
X17866D02*
Y93392D01*
X17821D01*
Y93460D01*
X17866D01*
Y93437D01*
D02*
G37*
G36*
X17753Y93392D02*
X17731D01*
Y93415D01*
Y93437D01*
Y93460D01*
X17753D01*
Y93392D01*
D02*
G37*
G36*
X17641D02*
X17618D01*
Y93437D01*
Y93460D01*
X17641D01*
Y93392D01*
D02*
G37*
G36*
X17550Y93437D02*
Y93415D01*
Y93392D01*
X17528D01*
Y93460D01*
X17550D01*
Y93437D01*
D02*
G37*
G36*
X17437Y93392D02*
X17415D01*
Y93415D01*
Y93437D01*
Y93460D01*
X17437D01*
Y93392D01*
D02*
G37*
G36*
X17392D02*
X17370D01*
Y93415D01*
X17392D01*
Y93392D01*
D02*
G37*
G36*
X17279D02*
X17257D01*
Y93415D01*
X17279D01*
Y93392D01*
D02*
G37*
G36*
X17234D02*
X17212D01*
Y93460D01*
X17234D01*
Y93392D01*
D02*
G37*
G36*
X17144D02*
X17121D01*
Y93460D01*
X17144D01*
Y93392D01*
D02*
G37*
G36*
X16986D02*
X16963D01*
Y93415D01*
X16986D01*
Y93392D01*
D02*
G37*
G36*
X16670D02*
X16648D01*
Y93415D01*
X16670D01*
Y93392D01*
D02*
G37*
G36*
X16580D02*
X16535D01*
Y93415D01*
X16580D01*
Y93392D01*
D02*
G37*
G36*
X16354D02*
X16332D01*
Y93415D01*
X16354D01*
Y93392D01*
D02*
G37*
G36*
X16264D02*
X16241D01*
Y93415D01*
X16264D01*
Y93392D01*
D02*
G37*
G36*
X16219D02*
X16196D01*
Y93415D01*
Y93437D01*
X16219D01*
Y93392D01*
D02*
G37*
G36*
X16106D02*
X16083D01*
Y93415D01*
X16106D01*
Y93392D01*
D02*
G37*
G36*
X15858Y93370D02*
X15835D01*
Y93392D01*
X15858D01*
Y93370D01*
D02*
G37*
G36*
X18634Y93347D02*
X18611D01*
Y93370D01*
X18634D01*
Y93347D01*
D02*
G37*
G36*
X18476D02*
X18453D01*
Y93370D01*
X18476D01*
Y93347D01*
D02*
G37*
G36*
X18431D02*
X18385D01*
Y93415D01*
X18431D01*
Y93347D01*
D02*
G37*
G36*
X18363D02*
X18340D01*
Y93370D01*
X18363D01*
Y93347D01*
D02*
G37*
G36*
X18273D02*
X18250D01*
Y93370D01*
X18273D01*
Y93347D01*
D02*
G37*
G36*
X17911D02*
X17889D01*
Y93415D01*
X17911D01*
Y93347D01*
D02*
G37*
G36*
X17799D02*
X17776D01*
Y93370D01*
Y93392D01*
Y93415D01*
X17799D01*
Y93347D01*
D02*
G37*
G36*
X17708D02*
X17686D01*
Y93370D01*
Y93392D01*
Y93415D01*
X17708D01*
Y93347D01*
D02*
G37*
G36*
X17595Y93392D02*
Y93347D01*
X17573D01*
Y93415D01*
X17595D01*
Y93392D01*
D02*
G37*
G36*
X17505Y93347D02*
X17460D01*
Y93415D01*
X17505D01*
Y93347D01*
D02*
G37*
G36*
X17347D02*
X17325D01*
Y93370D01*
X17347D01*
Y93347D01*
D02*
G37*
G36*
X17189D02*
X17167D01*
Y93370D01*
Y93415D01*
X17189D01*
Y93347D01*
D02*
G37*
G36*
X17144D02*
X17121D01*
Y93370D01*
X17144D01*
Y93347D01*
D02*
G37*
G36*
X17031Y93437D02*
X17054D01*
Y93415D01*
X17076D01*
Y93347D01*
X17054D01*
Y93392D01*
Y93415D01*
X17031D01*
Y93392D01*
X17009D01*
Y93460D01*
X17031D01*
Y93437D01*
D02*
G37*
G36*
X16873Y93347D02*
X16851D01*
Y93415D01*
X16873D01*
Y93347D01*
D02*
G37*
G36*
X16783D02*
X16760D01*
Y93370D01*
Y93415D01*
X16783D01*
Y93347D01*
D02*
G37*
G36*
X16625D02*
X16602D01*
Y93370D01*
X16625D01*
Y93347D01*
D02*
G37*
G36*
X16512D02*
X16490D01*
Y93370D01*
X16512D01*
Y93347D01*
D02*
G37*
G36*
X16467D02*
X16444D01*
Y93392D01*
X16467D01*
Y93347D01*
D02*
G37*
G36*
X16151D02*
X16128D01*
Y93370D01*
X16151D01*
Y93347D01*
D02*
G37*
G36*
X15948D02*
X15925D01*
Y93370D01*
X15948D01*
Y93347D01*
D02*
G37*
G36*
X15090D02*
X15045D01*
Y93370D01*
X15090D01*
Y93347D01*
D02*
G37*
G36*
X14774D02*
X14752D01*
Y93370D01*
X14774D01*
Y93347D01*
D02*
G37*
G36*
X14661D02*
X14639D01*
Y93370D01*
X14661D01*
Y93347D01*
D02*
G37*
G36*
X18679Y93302D02*
X18656D01*
Y93325D01*
X18679D01*
Y93302D01*
D02*
G37*
G36*
X18634D02*
X18611D01*
Y93325D01*
X18634D01*
Y93302D01*
D02*
G37*
G36*
X18521Y93392D02*
X18543D01*
Y93370D01*
X18566D01*
Y93302D01*
X18543D01*
Y93325D01*
Y93370D01*
X18521D01*
Y93347D01*
X18498D01*
Y93415D01*
X18521D01*
Y93392D01*
D02*
G37*
G36*
X18160Y93302D02*
X18137D01*
Y93370D01*
X18160D01*
Y93302D01*
D02*
G37*
G36*
X18002Y93392D02*
X18024D01*
Y93370D01*
X18069D01*
Y93302D01*
X18024D01*
Y93325D01*
Y93370D01*
X18002D01*
Y93347D01*
X17979D01*
Y93415D01*
X18002D01*
Y93392D01*
D02*
G37*
G36*
X17957Y93302D02*
X17934D01*
Y93325D01*
Y93347D01*
Y93370D01*
X17957D01*
Y93302D01*
D02*
G37*
G36*
X17866D02*
X17821D01*
Y93370D01*
X17866D01*
Y93302D01*
D02*
G37*
G36*
X17753Y93347D02*
Y93325D01*
Y93302D01*
X17731D01*
Y93370D01*
X17753D01*
Y93347D01*
D02*
G37*
G36*
X17641Y93302D02*
X17618D01*
Y93370D01*
X17641D01*
Y93302D01*
D02*
G37*
G36*
X17550D02*
X17528D01*
Y93325D01*
Y93347D01*
Y93370D01*
X17550D01*
Y93302D01*
D02*
G37*
G36*
X17505D02*
X17460D01*
Y93325D01*
X17505D01*
Y93302D01*
D02*
G37*
G36*
X17437D02*
X17415D01*
Y93370D01*
X17437D01*
Y93302D01*
D02*
G37*
G36*
X17234D02*
X17212D01*
Y93370D01*
X17234D01*
Y93302D01*
D02*
G37*
G36*
X17189D02*
X17167D01*
Y93325D01*
X17189D01*
Y93302D01*
D02*
G37*
G36*
X17076D02*
X17054D01*
Y93325D01*
X17076D01*
Y93302D01*
D02*
G37*
G36*
X17031D02*
X17009D01*
Y93347D01*
Y93370D01*
X17031D01*
Y93302D01*
D02*
G37*
G36*
X16941D02*
X16896D01*
Y93347D01*
Y93370D01*
X16941D01*
Y93302D01*
D02*
G37*
G36*
X16828Y93347D02*
Y93302D01*
X16806D01*
Y93370D01*
X16828D01*
Y93347D01*
D02*
G37*
G36*
X16715Y93302D02*
X16693D01*
Y93325D01*
Y93370D01*
X16715D01*
Y93302D01*
D02*
G37*
G36*
X16422Y93347D02*
Y93325D01*
Y93302D01*
X16399D01*
Y93370D01*
X16422D01*
Y93347D01*
D02*
G37*
G36*
X16016Y93302D02*
X15970D01*
Y93325D01*
X16016D01*
Y93302D01*
D02*
G37*
G36*
X15903D02*
X15880D01*
Y93325D01*
X15903D01*
Y93302D01*
D02*
G37*
G36*
X18521D02*
Y93279D01*
Y93257D01*
X18498D01*
Y93325D01*
X18521D01*
Y93302D01*
D02*
G37*
G36*
X18431D02*
Y93257D01*
X18385D01*
Y93325D01*
X18431D01*
Y93302D01*
D02*
G37*
G36*
X18363Y93257D02*
X18340D01*
Y93279D01*
X18363D01*
Y93257D01*
D02*
G37*
G36*
X18318Y93279D02*
Y93257D01*
X18295D01*
Y93302D01*
X18318D01*
Y93279D01*
D02*
G37*
G36*
X18205Y93257D02*
X18182D01*
Y93279D01*
Y93302D01*
Y93325D01*
X18205D01*
Y93257D01*
D02*
G37*
G36*
X18160D02*
X18137D01*
Y93279D01*
X18160D01*
Y93257D01*
D02*
G37*
G36*
X18115Y93302D02*
Y93257D01*
X18092D01*
Y93325D01*
X18115D01*
Y93302D01*
D02*
G37*
G36*
X18069Y93257D02*
X18024D01*
Y93279D01*
X18069D01*
Y93257D01*
D02*
G37*
G36*
X18002Y93279D02*
Y93257D01*
X17979D01*
Y93325D01*
X18002D01*
Y93279D01*
D02*
G37*
G36*
X17911Y93302D02*
X17934D01*
Y93279D01*
X17957D01*
Y93257D01*
X17934D01*
Y93279D01*
X17911D01*
Y93257D01*
X17889D01*
Y93325D01*
X17911D01*
Y93302D01*
D02*
G37*
G36*
X17799Y93257D02*
X17776D01*
Y93325D01*
X17799D01*
Y93257D01*
D02*
G37*
G36*
X17708D02*
X17686D01*
Y93279D01*
Y93325D01*
X17708D01*
Y93257D01*
D02*
G37*
G36*
X17595Y93302D02*
Y93257D01*
X17573D01*
Y93325D01*
X17595D01*
Y93302D01*
D02*
G37*
G36*
X17392Y93257D02*
X17370D01*
Y93325D01*
X17392D01*
Y93257D01*
D02*
G37*
G36*
X17279D02*
X17257D01*
Y93279D01*
Y93325D01*
X17279D01*
Y93257D01*
D02*
G37*
G36*
X16986D02*
X16963D01*
Y93325D01*
X16986D01*
Y93257D01*
D02*
G37*
G36*
X16873D02*
X16851D01*
Y93325D01*
X16873D01*
Y93257D01*
D02*
G37*
G36*
X16783D02*
X16760D01*
Y93325D01*
X16783D01*
Y93257D01*
D02*
G37*
G36*
X16670Y93279D02*
Y93257D01*
X16648D01*
Y93325D01*
X16670D01*
Y93279D01*
D02*
G37*
G36*
X16467D02*
Y93257D01*
X16444D01*
Y93325D01*
X16467D01*
Y93279D01*
D02*
G37*
G36*
X16309Y93347D02*
X16332D01*
Y93325D01*
X16354D01*
Y93257D01*
X16332D01*
Y93325D01*
X16309D01*
Y93302D01*
X16286D01*
Y93370D01*
X16309D01*
Y93347D01*
D02*
G37*
G36*
X16264Y93302D02*
Y93279D01*
Y93257D01*
X16241D01*
Y93325D01*
X16264D01*
Y93302D01*
D02*
G37*
G36*
X16151Y93257D02*
X16128D01*
Y93279D01*
X16151D01*
Y93257D01*
D02*
G37*
G36*
X16061D02*
X16038D01*
Y93325D01*
X16061D01*
Y93257D01*
D02*
G37*
G36*
X15948D02*
X15925D01*
Y93279D01*
Y93302D01*
X15948D01*
Y93257D01*
D02*
G37*
G36*
X15745D02*
X15722D01*
Y93302D01*
X15745D01*
Y93257D01*
D02*
G37*
G36*
X18679Y93234D02*
X18656D01*
Y93257D01*
X18679D01*
Y93234D01*
D02*
G37*
G36*
X18476Y93257D02*
Y93234D01*
Y93212D01*
X18453D01*
Y93279D01*
X18476D01*
Y93257D01*
D02*
G37*
G36*
X18273Y93212D02*
X18250D01*
Y93234D01*
X18273D01*
Y93212D01*
D02*
G37*
G36*
X18160D02*
X18137D01*
Y93234D01*
X18160D01*
Y93212D01*
D02*
G37*
G36*
X18069D02*
X18024D01*
Y93234D01*
X18069D01*
Y93212D01*
D02*
G37*
G36*
X17957D02*
X17934D01*
Y93234D01*
X17957D01*
Y93212D01*
D02*
G37*
G36*
X17866D02*
X17821D01*
Y93279D01*
X17866D01*
Y93212D01*
D02*
G37*
G36*
X17753D02*
X17731D01*
Y93234D01*
Y93279D01*
X17753D01*
Y93212D01*
D02*
G37*
G36*
X17641Y93257D02*
Y93234D01*
Y93212D01*
X17618D01*
Y93279D01*
X17641D01*
Y93257D01*
D02*
G37*
G36*
X17550D02*
Y93234D01*
Y93212D01*
X17528D01*
Y93279D01*
X17550D01*
Y93257D01*
D02*
G37*
G36*
X17437Y93212D02*
X17415D01*
Y93234D01*
Y93257D01*
Y93279D01*
X17437D01*
Y93212D01*
D02*
G37*
G36*
X17347D02*
X17325D01*
Y93234D01*
Y93279D01*
X17347D01*
Y93212D01*
D02*
G37*
G36*
X17234D02*
X17212D01*
Y93279D01*
X17234D01*
Y93212D01*
D02*
G37*
G36*
X17144D02*
X17121D01*
Y93257D01*
Y93279D01*
X17144D01*
Y93212D01*
D02*
G37*
G36*
X17076D02*
X17054D01*
Y93234D01*
X17076D01*
Y93212D01*
D02*
G37*
G36*
X17031D02*
X17009D01*
Y93234D01*
Y93257D01*
X17031D01*
Y93212D01*
D02*
G37*
G36*
X16986D02*
X16963D01*
Y93234D01*
X16986D01*
Y93212D01*
D02*
G37*
G36*
X16941Y93234D02*
Y93212D01*
X16896D01*
Y93279D01*
X16941D01*
Y93234D01*
D02*
G37*
G36*
X16828Y93212D02*
X16806D01*
Y93279D01*
X16828D01*
Y93212D01*
D02*
G37*
G36*
X16783D02*
X16760D01*
Y93234D01*
X16783D01*
Y93212D01*
D02*
G37*
G36*
X16715D02*
X16693D01*
Y93279D01*
X16715D01*
Y93212D01*
D02*
G37*
G36*
X16580Y93302D02*
X16602D01*
Y93279D01*
X16625D01*
Y93234D01*
Y93212D01*
X16602D01*
Y93279D01*
X16580D01*
Y93257D01*
X16535D01*
Y93302D01*
Y93325D01*
X16580D01*
Y93302D01*
D02*
G37*
G36*
X16512Y93257D02*
Y93234D01*
Y93212D01*
X16490D01*
Y93279D01*
X16512D01*
Y93257D01*
D02*
G37*
G36*
X16422Y93212D02*
X16399D01*
Y93234D01*
Y93257D01*
Y93279D01*
X16422D01*
Y93212D01*
D02*
G37*
G36*
X16309Y93257D02*
Y93212D01*
X16286D01*
Y93279D01*
X16309D01*
Y93257D01*
D02*
G37*
G36*
X16219Y93212D02*
X16196D01*
Y93257D01*
Y93279D01*
X16219D01*
Y93212D01*
D02*
G37*
G36*
X16106D02*
X16083D01*
Y93234D01*
Y93279D01*
X16106D01*
Y93212D01*
D02*
G37*
G36*
X16016Y93257D02*
Y93212D01*
X15970D01*
Y93279D01*
X16016D01*
Y93257D01*
D02*
G37*
G36*
X15903Y93234D02*
Y93212D01*
X15880D01*
Y93257D01*
X15903D01*
Y93234D01*
D02*
G37*
G36*
X15790Y93257D02*
Y93212D01*
X15767D01*
Y93279D01*
X15790D01*
Y93257D01*
D02*
G37*
G36*
X15700Y93212D02*
X15677D01*
Y93234D01*
Y93279D01*
X15700D01*
Y93212D01*
D02*
G37*
G36*
X15587Y93234D02*
Y93212D01*
X15564D01*
Y93257D01*
X15587D01*
Y93234D01*
D02*
G37*
G36*
X15181Y93212D02*
X15158D01*
Y93234D01*
X15181D01*
Y93212D01*
D02*
G37*
G36*
X14774D02*
X14752D01*
Y93234D01*
X14774D01*
Y93212D01*
D02*
G37*
G36*
X18431Y93167D02*
X18385D01*
Y93234D01*
X18431D01*
Y93167D01*
D02*
G37*
G36*
X15451Y93189D02*
Y93167D01*
X15406D01*
Y93212D01*
X15451D01*
Y93189D01*
D02*
G37*
G36*
X15135D02*
Y93167D01*
X15113D01*
Y93212D01*
X15135D01*
Y93189D01*
D02*
G37*
G36*
X15023Y93167D02*
X15000D01*
Y93212D01*
X15023D01*
Y93167D01*
D02*
G37*
G36*
X14819Y93189D02*
Y93167D01*
X14797D01*
Y93212D01*
X14819D01*
Y93189D01*
D02*
G37*
G36*
X18724Y93144D02*
X18701D01*
Y93167D01*
X18724D01*
Y93144D01*
D02*
G37*
G36*
X18273Y93257D02*
X18295D01*
Y93234D01*
X18318D01*
Y93144D01*
X18295D01*
Y93189D01*
Y93212D01*
Y93234D01*
X18273D01*
Y93257D01*
X18250D01*
Y93279D01*
X18273D01*
Y93257D01*
D02*
G37*
G36*
X18205Y93212D02*
X18250D01*
Y93167D01*
X18273D01*
Y93144D01*
X18250D01*
Y93167D01*
X18205D01*
Y93144D01*
X18182D01*
Y93234D01*
X18205D01*
Y93212D01*
D02*
G37*
G36*
X18160Y93144D02*
X18137D01*
Y93167D01*
X18160D01*
Y93144D01*
D02*
G37*
G36*
X18115D02*
X18092D01*
Y93212D01*
Y93234D01*
X18115D01*
Y93144D01*
D02*
G37*
G36*
X18002Y93212D02*
X18024D01*
Y93167D01*
X18069D01*
Y93144D01*
X18024D01*
Y93167D01*
X18002D01*
Y93212D01*
X17979D01*
Y93234D01*
X18002D01*
Y93212D01*
D02*
G37*
G36*
Y93144D02*
X17979D01*
Y93167D01*
X18002D01*
Y93144D01*
D02*
G37*
G36*
X17799Y93212D02*
Y93144D01*
X17776D01*
Y93234D01*
X17799D01*
Y93212D01*
D02*
G37*
G36*
X17708D02*
X17731D01*
Y93167D01*
X17753D01*
Y93144D01*
X17731D01*
Y93167D01*
X17708D01*
Y93144D01*
X17686D01*
Y93212D01*
Y93234D01*
X17708D01*
Y93212D01*
D02*
G37*
G36*
X17641Y93144D02*
X17618D01*
Y93167D01*
X17641D01*
Y93144D01*
D02*
G37*
G36*
X17595D02*
X17573D01*
Y93234D01*
X17595D01*
Y93144D01*
D02*
G37*
G36*
X17550D02*
X17528D01*
Y93167D01*
X17550D01*
Y93144D01*
D02*
G37*
G36*
X17505D02*
X17460D01*
Y93167D01*
Y93234D01*
X17505D01*
Y93144D01*
D02*
G37*
G36*
X17392D02*
X17370D01*
Y93189D01*
Y93212D01*
Y93234D01*
X17392D01*
Y93144D01*
D02*
G37*
G36*
X17279Y93189D02*
Y93167D01*
Y93144D01*
X17257D01*
Y93234D01*
X17279D01*
Y93189D01*
D02*
G37*
G36*
X17189Y93167D02*
Y93144D01*
X17167D01*
Y93234D01*
X17189D01*
Y93167D01*
D02*
G37*
G36*
X17076Y93144D02*
X17054D01*
Y93167D01*
X17076D01*
Y93144D01*
D02*
G37*
G36*
X16986D02*
X16963D01*
Y93167D01*
X16986D01*
Y93144D01*
D02*
G37*
G36*
X16783D02*
X16760D01*
Y93167D01*
X16783D01*
Y93144D01*
D02*
G37*
G36*
X16580D02*
X16535D01*
Y93167D01*
Y93189D01*
Y93234D01*
X16580D01*
Y93144D01*
D02*
G37*
G36*
X16467D02*
X16444D01*
Y93167D01*
Y93189D01*
Y93234D01*
X16467D01*
Y93144D01*
D02*
G37*
G36*
X16354Y93189D02*
Y93167D01*
Y93144D01*
X16332D01*
Y93234D01*
X16354D01*
Y93189D01*
D02*
G37*
G36*
X16264Y93212D02*
Y93144D01*
X16241D01*
Y93234D01*
X16264D01*
Y93212D01*
D02*
G37*
G36*
X16151Y93167D02*
Y93144D01*
X16128D01*
Y93234D01*
X16151D01*
Y93167D01*
D02*
G37*
G36*
X16061Y93212D02*
Y93189D01*
Y93144D01*
X16038D01*
Y93234D01*
X16061D01*
Y93212D01*
D02*
G37*
G36*
X15948Y93189D02*
Y93144D01*
X15925D01*
Y93212D01*
X15948D01*
Y93189D01*
D02*
G37*
G36*
X15858Y93144D02*
X15835D01*
Y93167D01*
Y93234D01*
X15858D01*
Y93144D01*
D02*
G37*
G36*
X15745Y93212D02*
Y93144D01*
X15722D01*
Y93234D01*
X15745D01*
Y93212D01*
D02*
G37*
G36*
X15654Y93144D02*
X15609D01*
Y93167D01*
Y93234D01*
X15654D01*
Y93144D01*
D02*
G37*
G36*
X15542D02*
X15519D01*
Y93167D01*
Y93189D01*
Y93234D01*
X15542D01*
Y93144D01*
D02*
G37*
G36*
X14932D02*
X14910D01*
Y93189D01*
Y93212D01*
X14932D01*
Y93144D01*
D02*
G37*
G36*
X14729D02*
X14684D01*
Y93167D01*
X14729D01*
Y93144D01*
D02*
G37*
G36*
X14616D02*
X14594D01*
Y93167D01*
X14616D01*
Y93144D01*
D02*
G37*
G36*
X13736D02*
X13713D01*
Y93167D01*
X13736D01*
Y93144D01*
D02*
G37*
G36*
X16309D02*
X16332D01*
Y93121D01*
X16354D01*
Y93076D01*
Y93054D01*
X16332D01*
Y93031D01*
X16354D01*
Y93009D01*
Y92986D01*
X16332D01*
Y93031D01*
X16309D01*
Y93009D01*
X16286D01*
Y92986D01*
X16309D01*
Y92963D01*
X16286D01*
Y92986D01*
X16264D01*
Y92963D01*
X16241D01*
Y93031D01*
X16286D01*
Y93076D01*
X16264D01*
Y93054D01*
X16241D01*
Y93099D01*
Y93121D01*
X16219D01*
Y93099D01*
X16196D01*
Y93076D01*
X16219D01*
Y93009D01*
X16196D01*
Y92986D01*
X16219D01*
Y92941D01*
X16196D01*
Y92963D01*
Y92986D01*
X16151D01*
Y92963D01*
X16128D01*
Y92941D01*
X16151D01*
Y92896D01*
X16128D01*
Y92918D01*
Y92941D01*
X16106D01*
Y92896D01*
X16083D01*
Y92918D01*
Y92941D01*
Y92986D01*
X16061D01*
Y92963D01*
X16038D01*
Y93031D01*
X16016D01*
Y93054D01*
X15970D01*
Y93076D01*
X15948D01*
Y93054D01*
X15925D01*
Y93121D01*
X15903D01*
Y93099D01*
X15880D01*
Y93076D01*
X15903D01*
Y93054D01*
X15880D01*
Y93076D01*
X15858D01*
Y93054D01*
X15835D01*
Y93031D01*
X15858D01*
Y92963D01*
X15835D01*
Y93009D01*
Y93031D01*
X15790D01*
Y93009D01*
X15767D01*
Y92986D01*
X15790D01*
Y92896D01*
X15767D01*
Y92986D01*
X15745D01*
Y92963D01*
X15722D01*
Y92941D01*
X15745D01*
Y92918D01*
Y92896D01*
X15722D01*
Y92941D01*
X15700D01*
Y92896D01*
X15677D01*
Y92986D01*
X15654D01*
Y93009D01*
X15609D01*
Y93031D01*
X15587D01*
Y93009D01*
X15564D01*
Y92986D01*
X15654D01*
Y92963D01*
X15609D01*
Y92941D01*
X15587D01*
Y92963D01*
X15564D01*
Y92986D01*
X15542D01*
Y92963D01*
X15519D01*
Y93031D01*
X15496D01*
Y93009D01*
X15474D01*
Y93076D01*
X15451D01*
Y93099D01*
X15406D01*
Y93121D01*
X15474D01*
Y93167D01*
X15496D01*
Y93099D01*
X15474D01*
Y93076D01*
X15519D01*
Y93121D01*
X15564D01*
Y93167D01*
X15587D01*
Y93144D01*
X15609D01*
Y93121D01*
X15677D01*
Y93167D01*
X15700D01*
Y93099D01*
X15677D01*
Y93076D01*
X15700D01*
Y93009D01*
X15677D01*
Y92986D01*
X15722D01*
Y93031D01*
X15767D01*
Y93076D01*
X15745D01*
Y93054D01*
X15722D01*
Y93121D01*
X15790D01*
Y93099D01*
X15767D01*
Y93076D01*
X15835D01*
Y93121D01*
X15790D01*
Y93144D01*
X15767D01*
Y93167D01*
X15790D01*
Y93144D01*
X15835D01*
Y93121D01*
X15880D01*
Y93167D01*
X15903D01*
Y93144D01*
X15925D01*
Y93121D01*
X15970D01*
Y93167D01*
X16016D01*
Y93144D01*
X16038D01*
Y93121D01*
X16061D01*
Y93054D01*
X16038D01*
Y93031D01*
X16106D01*
Y93009D01*
X16083D01*
Y92986D01*
X16128D01*
Y93031D01*
X16106D01*
Y93054D01*
X16083D01*
Y93076D01*
X16128D01*
Y93099D01*
Y93121D01*
X16106D01*
Y93099D01*
X16083D01*
Y93167D01*
X16106D01*
Y93144D01*
X16128D01*
Y93121D01*
X16196D01*
Y93167D01*
X16219D01*
Y93144D01*
X16241D01*
Y93121D01*
X16286D01*
Y93167D01*
X16309D01*
Y93144D01*
D02*
G37*
G36*
X14774Y93121D02*
X14752D01*
Y93144D01*
X14774D01*
Y93121D01*
D02*
G37*
G36*
X13939Y93144D02*
Y93121D01*
X13917D01*
Y93167D01*
X13939D01*
Y93144D01*
D02*
G37*
G36*
X17911Y93212D02*
X17934D01*
Y93167D01*
X17957D01*
Y93099D01*
X17934D01*
Y93167D01*
X17911D01*
Y93144D01*
X17889D01*
Y93234D01*
X17911D01*
Y93212D01*
D02*
G37*
G36*
X17866Y93144D02*
X17889D01*
Y93121D01*
X17911D01*
Y93099D01*
X17889D01*
Y93121D01*
X17866D01*
Y93099D01*
X17821D01*
Y93121D01*
Y93167D01*
X17866D01*
Y93144D01*
D02*
G37*
G36*
X17799Y93099D02*
X17776D01*
Y93121D01*
X17799D01*
Y93099D01*
D02*
G37*
G36*
X17708D02*
X17686D01*
Y93121D01*
X17708D01*
Y93099D01*
D02*
G37*
G36*
X17505D02*
X17460D01*
Y93121D01*
X17505D01*
Y93099D01*
D02*
G37*
G36*
X17437Y93144D02*
Y93121D01*
Y93099D01*
X17415D01*
Y93167D01*
X17437D01*
Y93144D01*
D02*
G37*
G36*
X17392Y93099D02*
X17370D01*
Y93121D01*
X17392D01*
Y93099D01*
D02*
G37*
G36*
X17347D02*
X17325D01*
Y93144D01*
Y93167D01*
X17347D01*
Y93099D01*
D02*
G37*
G36*
X17279D02*
X17257D01*
Y93121D01*
X17279D01*
Y93099D01*
D02*
G37*
G36*
X17234D02*
X17212D01*
Y93167D01*
X17234D01*
Y93099D01*
D02*
G37*
G36*
X17189D02*
X17167D01*
Y93121D01*
X17189D01*
Y93099D01*
D02*
G37*
G36*
X17144Y93144D02*
Y93099D01*
X17121D01*
Y93167D01*
X17144D01*
Y93144D01*
D02*
G37*
G36*
X17076Y93099D02*
X17054D01*
Y93121D01*
X17076D01*
Y93099D01*
D02*
G37*
G36*
X17031D02*
X17009D01*
Y93167D01*
X17031D01*
Y93099D01*
D02*
G37*
G36*
X16873Y93212D02*
X16896D01*
Y93167D01*
X16941D01*
Y93144D01*
X16963D01*
Y93121D01*
X16986D01*
Y93099D01*
X16963D01*
Y93121D01*
X16941D01*
Y93099D01*
X16896D01*
Y93167D01*
X16873D01*
Y93144D01*
X16851D01*
Y93212D01*
Y93234D01*
X16873D01*
Y93212D01*
D02*
G37*
G36*
X16670D02*
X16693D01*
Y93189D01*
Y93167D01*
X16715D01*
Y93144D01*
X16760D01*
Y93121D01*
X16806D01*
Y93167D01*
X16828D01*
Y93144D01*
X16851D01*
Y93121D01*
X16873D01*
Y93099D01*
X16851D01*
Y93121D01*
X16828D01*
Y93099D01*
X16806D01*
Y93076D01*
X16760D01*
Y93121D01*
X16715D01*
Y93099D01*
X16693D01*
Y93121D01*
Y93144D01*
Y93167D01*
X16670D01*
Y93144D01*
X16648D01*
Y93234D01*
X16670D01*
Y93212D01*
D02*
G37*
G36*
X16512Y93099D02*
X16490D01*
Y93167D01*
X16512D01*
Y93099D01*
D02*
G37*
G36*
X16422Y93144D02*
X16444D01*
Y93121D01*
X16467D01*
Y93099D01*
X16444D01*
Y93121D01*
X16422D01*
Y93099D01*
X16399D01*
Y93144D01*
Y93167D01*
X16422D01*
Y93144D01*
D02*
G37*
G36*
X15293Y93121D02*
Y93099D01*
X15271D01*
Y93144D01*
X15293D01*
Y93121D01*
D02*
G37*
G36*
X15226Y93099D02*
X15203D01*
Y93121D01*
X15226D01*
Y93099D01*
D02*
G37*
G36*
X15181D02*
X15158D01*
Y93121D01*
X15181D01*
Y93099D01*
D02*
G37*
G36*
X15090D02*
X15045D01*
Y93144D01*
X15090D01*
Y93099D01*
D02*
G37*
G36*
X14977D02*
X14955D01*
Y93121D01*
Y93144D01*
X14977D01*
Y93099D01*
D02*
G37*
G36*
X14458Y93121D02*
Y93099D01*
X14436D01*
Y93144D01*
X14458D01*
Y93121D01*
D02*
G37*
G36*
X14368D02*
Y93099D01*
X14345D01*
Y93144D01*
X14368D01*
Y93121D01*
D02*
G37*
G36*
X17595Y93099D02*
Y93076D01*
X17573D01*
Y93121D01*
X17595D01*
Y93099D01*
D02*
G37*
G36*
X14097Y93076D02*
X14075D01*
Y93099D01*
X14097D01*
Y93076D01*
D02*
G37*
G36*
X13894D02*
X13871D01*
Y93099D01*
X13894D01*
Y93076D01*
D02*
G37*
G36*
X18115Y93054D02*
X18092D01*
Y93076D01*
X18115D01*
Y93054D01*
D02*
G37*
G36*
X16715D02*
X16693D01*
Y93076D01*
X16715D01*
Y93054D01*
D02*
G37*
G36*
X16625Y93144D02*
X16648D01*
Y93121D01*
X16670D01*
Y93054D01*
X16648D01*
Y93076D01*
Y93121D01*
X16625D01*
Y93099D01*
X16602D01*
Y93076D01*
X16625D01*
Y93054D01*
X16602D01*
Y93076D01*
X16580D01*
Y93099D01*
X16535D01*
Y93121D01*
X16602D01*
Y93167D01*
X16625D01*
Y93144D01*
D02*
G37*
G36*
X15226Y93054D02*
X15203D01*
Y93076D01*
X15226D01*
Y93054D01*
D02*
G37*
G36*
X15135Y93099D02*
Y93076D01*
Y93054D01*
X15113D01*
Y93121D01*
X15135D01*
Y93099D01*
D02*
G37*
G36*
X15023Y93054D02*
X15000D01*
Y93099D01*
X15023D01*
Y93054D01*
D02*
G37*
G36*
X14932D02*
X14910D01*
Y93099D01*
X14932D01*
Y93054D01*
D02*
G37*
G36*
X14819D02*
X14797D01*
Y93099D01*
X14819D01*
Y93054D01*
D02*
G37*
G36*
X14729D02*
X14684D01*
Y93076D01*
Y93099D01*
X14729D01*
Y93054D01*
D02*
G37*
G36*
X14616D02*
X14594D01*
Y93099D01*
X14616D01*
Y93054D01*
D02*
G37*
G36*
X14526D02*
X14481D01*
Y93099D01*
X14526D01*
Y93054D01*
D02*
G37*
G36*
X14413D02*
X14391D01*
Y93076D01*
Y93099D01*
X14413D01*
Y93054D01*
D02*
G37*
G36*
X14300D02*
X14278D01*
Y93099D01*
X14300D01*
Y93054D01*
D02*
G37*
G36*
X16580Y93031D02*
X16535D01*
Y93054D01*
Y93076D01*
X16580D01*
Y93031D01*
D02*
G37*
G36*
X13939D02*
X13917D01*
Y93054D01*
X13939D01*
Y93031D01*
D02*
G37*
G36*
X13646D02*
X13623D01*
Y93054D01*
X13646D01*
Y93031D01*
D02*
G37*
G36*
X13533D02*
X13510D01*
Y93054D01*
X13533D01*
Y93031D01*
D02*
G37*
G36*
X18634Y93009D02*
X18611D01*
Y93031D01*
X18634D01*
Y93009D01*
D02*
G37*
G36*
X16512D02*
X16490D01*
Y93054D01*
Y93076D01*
X16512D01*
Y93009D01*
D02*
G37*
G36*
X16467Y93054D02*
X16444D01*
Y93031D01*
X16467D01*
Y93009D01*
X16444D01*
Y93031D01*
X16422D01*
Y93054D01*
X16399D01*
Y93076D01*
X16467D01*
Y93054D01*
D02*
G37*
G36*
X16422Y93009D02*
X16399D01*
Y93031D01*
X16422D01*
Y93009D01*
D02*
G37*
G36*
X16016D02*
X15970D01*
Y93031D01*
X16016D01*
Y93009D01*
D02*
G37*
G36*
X15903D02*
X15880D01*
Y93031D01*
X15903D01*
Y93009D01*
D02*
G37*
G36*
X15293Y93031D02*
Y93009D01*
X15271D01*
Y93076D01*
X15293D01*
Y93031D01*
D02*
G37*
G36*
X15090Y93009D02*
X15045D01*
Y93076D01*
X15090D01*
Y93009D01*
D02*
G37*
G36*
X15023D02*
X15000D01*
Y93031D01*
X15023D01*
Y93009D01*
D02*
G37*
G36*
X14865Y93054D02*
Y93031D01*
Y93009D01*
X14842D01*
Y93076D01*
X14865D01*
Y93054D01*
D02*
G37*
G36*
X14774Y93009D02*
X14752D01*
Y93054D01*
Y93076D01*
X14774D01*
Y93009D01*
D02*
G37*
G36*
X14661D02*
X14639D01*
Y93031D01*
Y93076D01*
X14661D01*
Y93009D01*
D02*
G37*
G36*
X14571D02*
X14549D01*
Y93031D01*
Y93076D01*
X14571D01*
Y93009D01*
D02*
G37*
G36*
X14458D02*
X14436D01*
Y93031D01*
Y93076D01*
X14458D01*
Y93009D01*
D02*
G37*
G36*
X14368Y93054D02*
Y93031D01*
Y93009D01*
X14345D01*
Y93076D01*
X14368D01*
Y93054D01*
D02*
G37*
G36*
X14255D02*
Y93009D01*
X14233D01*
Y93076D01*
X14255D01*
Y93054D01*
D02*
G37*
G36*
X14165Y93009D02*
X14120D01*
Y93054D01*
X14165D01*
Y93009D01*
D02*
G37*
G36*
X14052D02*
X14029D01*
Y93031D01*
Y93054D01*
X14052D01*
Y93009D01*
D02*
G37*
G36*
X13849D02*
X13826D01*
Y93031D01*
Y93054D01*
X13849D01*
Y93009D01*
D02*
G37*
G36*
X13736D02*
X13713D01*
Y93031D01*
Y93054D01*
X13736D01*
Y93009D01*
D02*
G37*
G36*
X13443D02*
X13420D01*
Y93054D01*
X13443D01*
Y93009D01*
D02*
G37*
G36*
X13330D02*
X13307D01*
Y93054D01*
X13330D01*
Y93009D01*
D02*
G37*
G36*
X13804Y92986D02*
X13781D01*
Y93009D01*
Y93031D01*
X13804D01*
Y92986D01*
D02*
G37*
G36*
X13172D02*
X13149D01*
Y93031D01*
X13172D01*
Y92986D01*
D02*
G37*
G36*
X13082D02*
X13059D01*
Y93009D01*
Y93031D01*
X13082D01*
Y92986D01*
D02*
G37*
G36*
X18724Y92963D02*
X18701D01*
Y93009D01*
X18724D01*
Y92963D01*
D02*
G37*
G36*
X18273D02*
X18250D01*
Y92986D01*
X18273D01*
Y92963D01*
D02*
G37*
G36*
X15496D02*
X15474D01*
Y92986D01*
X15496D01*
Y92963D01*
D02*
G37*
G36*
X15384Y93099D02*
X15361D01*
Y93076D01*
X15451D01*
Y93054D01*
X15406D01*
Y93031D01*
X15451D01*
Y93009D01*
Y92986D01*
Y92963D01*
X15406D01*
Y93031D01*
X15384D01*
Y93009D01*
X15361D01*
Y93076D01*
X15338D01*
Y93054D01*
X15316D01*
Y93121D01*
X15361D01*
Y93144D01*
X15384D01*
Y93099D01*
D02*
G37*
G36*
X15226Y92963D02*
X15203D01*
Y92986D01*
Y93031D01*
X15226D01*
Y92963D01*
D02*
G37*
G36*
X15135D02*
X15113D01*
Y92986D01*
X15135D01*
Y92963D01*
D02*
G37*
G36*
X15090D02*
X15045D01*
Y92986D01*
X15090D01*
Y92963D01*
D02*
G37*
G36*
X14819Y93009D02*
Y92986D01*
Y92963D01*
X14797D01*
Y93031D01*
X14819D01*
Y93009D01*
D02*
G37*
G36*
X14729Y92963D02*
X14684D01*
Y93031D01*
X14729D01*
Y92963D01*
D02*
G37*
G36*
X14616D02*
X14594D01*
Y93031D01*
X14616D01*
Y92963D01*
D02*
G37*
G36*
X14526D02*
X14481D01*
Y93009D01*
X14526D01*
Y92963D01*
D02*
G37*
G36*
X14413Y92986D02*
Y92963D01*
X14391D01*
Y93009D01*
X14413D01*
Y92986D01*
D02*
G37*
G36*
X14300Y93009D02*
Y92963D01*
X14278D01*
Y93031D01*
X14300D01*
Y93009D01*
D02*
G37*
G36*
X14210Y92986D02*
Y92963D01*
X14187D01*
Y93031D01*
X14210D01*
Y92986D01*
D02*
G37*
G36*
X14097D02*
Y92963D01*
X14075D01*
Y93031D01*
X14097D01*
Y92986D01*
D02*
G37*
G36*
X14007Y92963D02*
X13984D01*
Y92986D01*
Y93031D01*
X14007D01*
Y92963D01*
D02*
G37*
G36*
X13894D02*
X13871D01*
Y93009D01*
Y93031D01*
X13894D01*
Y92963D01*
D02*
G37*
G36*
X13691D02*
X13668D01*
Y93009D01*
X13691D01*
Y92963D01*
D02*
G37*
G36*
X13601D02*
X13556D01*
Y92986D01*
Y93009D01*
X13601D01*
Y92963D01*
D02*
G37*
G36*
X13488D02*
X13465D01*
Y92986D01*
Y93009D01*
X13488D01*
Y92963D01*
D02*
G37*
G36*
X13375Y92986D02*
Y92963D01*
X13352D01*
Y93009D01*
X13375D01*
Y92986D01*
D02*
G37*
G36*
X13285D02*
Y92963D01*
X13262D01*
Y93009D01*
X13285D01*
Y92986D01*
D02*
G37*
G36*
X18679Y92941D02*
X18656D01*
Y92963D01*
X18679D01*
Y92941D01*
D02*
G37*
G36*
X18837Y92963D02*
X18814D01*
Y92941D01*
X18837D01*
Y92918D01*
Y92896D01*
X18814D01*
Y92941D01*
X18769D01*
Y92896D01*
X18746D01*
Y92873D01*
X18724D01*
Y92851D01*
X18701D01*
Y92941D01*
X18746D01*
Y92986D01*
X18814D01*
Y93009D01*
X18837D01*
Y92963D01*
D02*
G37*
G36*
X15587Y92896D02*
X15564D01*
Y92941D01*
X15587D01*
Y92896D01*
D02*
G37*
G36*
X15181Y93009D02*
X15158D01*
Y92986D01*
X15181D01*
Y92896D01*
X15158D01*
Y92918D01*
Y92941D01*
Y92986D01*
X15135D01*
Y93009D01*
X15113D01*
Y93031D01*
X15158D01*
Y93054D01*
Y93076D01*
X15181D01*
Y93009D01*
D02*
G37*
G36*
X15090Y92896D02*
X15045D01*
Y92941D01*
X15090D01*
Y92896D01*
D02*
G37*
G36*
X14977Y93009D02*
X14955D01*
Y92986D01*
X15023D01*
Y92963D01*
X15000D01*
Y92941D01*
X15023D01*
Y92896D01*
X15000D01*
Y92918D01*
Y92941D01*
X14977D01*
Y92896D01*
X14955D01*
Y92873D01*
X14932D01*
Y92851D01*
X14910D01*
Y92828D01*
X14955D01*
Y92851D01*
X14977D01*
Y92806D01*
X14955D01*
Y92783D01*
X14932D01*
Y92806D01*
X14910D01*
Y92828D01*
X14865D01*
Y92806D01*
X14842D01*
Y92783D01*
X14819D01*
Y92760D01*
X14797D01*
Y92806D01*
X14819D01*
Y92828D01*
X14842D01*
Y92851D01*
X14865D01*
Y92873D01*
X14910D01*
Y92896D01*
X14932D01*
Y92941D01*
X14955D01*
Y92986D01*
X14932D01*
Y92963D01*
X14910D01*
Y92941D01*
X14865D01*
Y92896D01*
X14842D01*
Y92873D01*
X14819D01*
Y92851D01*
X14797D01*
Y92873D01*
Y92896D01*
X14819D01*
Y92941D01*
X14842D01*
Y92986D01*
X14910D01*
Y93031D01*
X14955D01*
Y93076D01*
X14977D01*
Y93009D01*
D02*
G37*
G36*
X14774Y92918D02*
Y92896D01*
X14752D01*
Y92986D01*
X14774D01*
Y92918D01*
D02*
G37*
G36*
X14729Y92896D02*
X14684D01*
Y92941D01*
X14729D01*
Y92896D01*
D02*
G37*
G36*
X14661Y92918D02*
Y92896D01*
X14639D01*
Y92986D01*
X14661D01*
Y92918D01*
D02*
G37*
G36*
X14571Y92896D02*
X14549D01*
Y92986D01*
X14571D01*
Y92896D01*
D02*
G37*
G36*
X14458Y92918D02*
Y92896D01*
X14436D01*
Y92986D01*
X14458D01*
Y92918D01*
D02*
G37*
G36*
X14368Y92896D02*
X14345D01*
Y92918D01*
Y92986D01*
X14368D01*
Y92896D01*
D02*
G37*
G36*
X14255Y92963D02*
Y92896D01*
X14233D01*
Y92986D01*
X14255D01*
Y92963D01*
D02*
G37*
G36*
X14165Y92896D02*
X14120D01*
Y92986D01*
X14165D01*
Y92896D01*
D02*
G37*
G36*
X14052D02*
X14029D01*
Y92941D01*
Y92963D01*
X14052D01*
Y92896D01*
D02*
G37*
G36*
X13939D02*
X13917D01*
Y92986D01*
X13939D01*
Y92896D01*
D02*
G37*
G36*
X13849D02*
X13826D01*
Y92941D01*
Y92963D01*
Y92986D01*
X13849D01*
Y92896D01*
D02*
G37*
G36*
X13736D02*
X13713D01*
Y92963D01*
Y92986D01*
X13736D01*
Y92896D01*
D02*
G37*
G36*
X13646D02*
X13623D01*
Y92941D01*
Y92963D01*
Y92986D01*
X13646D01*
Y92896D01*
D02*
G37*
G36*
X13533Y92963D02*
Y92896D01*
X13510D01*
Y92986D01*
X13533D01*
Y92963D01*
D02*
G37*
G36*
X13443D02*
Y92896D01*
X13420D01*
Y92986D01*
X13443D01*
Y92963D01*
D02*
G37*
G36*
X13330Y92896D02*
X13307D01*
Y92918D01*
Y92986D01*
X13330D01*
Y92896D01*
D02*
G37*
G36*
X13240Y92941D02*
Y92918D01*
Y92896D01*
X13194D01*
Y92986D01*
X13240D01*
Y92941D01*
D02*
G37*
G36*
X13127Y92896D02*
X13104D01*
Y92963D01*
X13127D01*
Y92896D01*
D02*
G37*
G36*
X12924D02*
X12901D01*
Y92941D01*
Y92963D01*
X12924D01*
Y92896D01*
D02*
G37*
G36*
X18521Y92918D02*
Y92896D01*
Y92873D01*
X18498D01*
Y92941D01*
X18521D01*
Y92918D01*
D02*
G37*
G36*
X16061Y92851D02*
X16038D01*
Y92896D01*
X16061D01*
Y92851D01*
D02*
G37*
G36*
X16016Y92896D02*
X15970D01*
Y92873D01*
X16016D01*
Y92851D01*
X15970D01*
Y92873D01*
X15948D01*
Y92851D01*
X15925D01*
Y92873D01*
Y92896D01*
X15948D01*
Y92941D01*
X15970D01*
Y92986D01*
X16016D01*
Y92896D01*
D02*
G37*
G36*
X15948Y92963D02*
X15925D01*
Y92941D01*
X15903D01*
Y92896D01*
X15880D01*
Y92873D01*
X15858D01*
Y92851D01*
X15835D01*
Y92896D01*
X15858D01*
Y92918D01*
Y92941D01*
X15880D01*
Y92986D01*
X15925D01*
Y93031D01*
X15948D01*
Y92963D01*
D02*
G37*
G36*
X15745Y92851D02*
X15722D01*
Y92873D01*
X15745D01*
Y92851D01*
D02*
G37*
G36*
X15023D02*
X15000D01*
Y92873D01*
X15023D01*
Y92851D01*
D02*
G37*
G36*
X14526D02*
X14481D01*
Y92941D01*
X14526D01*
Y92851D01*
D02*
G37*
G36*
X14413D02*
X14391D01*
Y92941D01*
X14413D01*
Y92851D01*
D02*
G37*
G36*
X14300D02*
X14278D01*
Y92873D01*
Y92896D01*
Y92941D01*
X14300D01*
Y92851D01*
D02*
G37*
G36*
X14210D02*
X14187D01*
Y92873D01*
Y92896D01*
Y92941D01*
X14210D01*
Y92851D01*
D02*
G37*
G36*
X14097D02*
X14075D01*
Y92873D01*
Y92941D01*
X14097D01*
Y92851D01*
D02*
G37*
G36*
X14007D02*
X13984D01*
Y92896D01*
X14007D01*
Y92851D01*
D02*
G37*
G36*
X13894D02*
X13871D01*
Y92941D01*
X13894D01*
Y92851D01*
D02*
G37*
G36*
X13804D02*
X13781D01*
Y92941D01*
X13804D01*
Y92851D01*
D02*
G37*
G36*
X13691D02*
X13668D01*
Y92941D01*
X13691D01*
Y92851D01*
D02*
G37*
G36*
X13601D02*
X13556D01*
Y92941D01*
X13601D01*
Y92851D01*
D02*
G37*
G36*
X13488D02*
X13465D01*
Y92896D01*
X13488D01*
Y92851D01*
D02*
G37*
G36*
X13375D02*
X13352D01*
Y92896D01*
Y92918D01*
Y92941D01*
X13375D01*
Y92851D01*
D02*
G37*
G36*
X13285D02*
X13262D01*
Y92918D01*
Y92941D01*
X13285D01*
Y92851D01*
D02*
G37*
G36*
X13172Y92896D02*
Y92873D01*
Y92851D01*
X13149D01*
Y92941D01*
X13172D01*
Y92896D01*
D02*
G37*
G36*
X13082Y92851D02*
X13059D01*
Y92873D01*
Y92896D01*
X13082D01*
Y92851D01*
D02*
G37*
G36*
X12878D02*
X12856D01*
Y92896D01*
X12878D01*
Y92851D01*
D02*
G37*
G36*
X15338Y92963D02*
X15316D01*
Y92941D01*
X15361D01*
Y92986D01*
X15384D01*
Y92896D01*
X15361D01*
Y92873D01*
X15406D01*
Y92896D01*
X15451D01*
Y92941D01*
X15496D01*
Y92896D01*
X15474D01*
Y92873D01*
X15451D01*
Y92851D01*
X15406D01*
Y92828D01*
X15384D01*
Y92851D01*
X15361D01*
Y92873D01*
X15338D01*
Y92896D01*
X15316D01*
Y92918D01*
Y92941D01*
X15293D01*
Y92896D01*
X15271D01*
Y92873D01*
X15226D01*
Y92851D01*
X15203D01*
Y92828D01*
X15181D01*
Y92806D01*
X15158D01*
Y92851D01*
X15181D01*
Y92873D01*
X15203D01*
Y92896D01*
X15226D01*
Y92941D01*
X15271D01*
Y92986D01*
X15316D01*
Y93031D01*
X15338D01*
Y92963D01*
D02*
G37*
G36*
X18566Y92806D02*
X18543D01*
Y92828D01*
Y92851D01*
X18566D01*
Y92806D01*
D02*
G37*
G36*
X18476D02*
X18453D01*
Y92851D01*
X18476D01*
Y92806D01*
D02*
G37*
G36*
X15903D02*
X15880D01*
Y92828D01*
Y92851D01*
X15903D01*
Y92806D01*
D02*
G37*
G36*
X15790Y92828D02*
Y92806D01*
X15767D01*
Y92851D01*
X15790D01*
Y92828D01*
D02*
G37*
G36*
X15700D02*
Y92806D01*
X15677D01*
Y92851D01*
X15700D01*
Y92828D01*
D02*
G37*
G36*
X15654Y92851D02*
X15609D01*
Y92828D01*
X15587D01*
Y92806D01*
X15564D01*
Y92851D01*
X15587D01*
Y92873D01*
X15609D01*
Y92896D01*
X15654D01*
Y92851D01*
D02*
G37*
G36*
X15135Y92873D02*
Y92851D01*
X15113D01*
Y92828D01*
X15135D01*
Y92806D01*
X15113D01*
Y92828D01*
X15090D01*
Y92806D01*
X15045D01*
Y92783D01*
X15023D01*
Y92760D01*
X15000D01*
Y92738D01*
X14977D01*
Y92715D01*
X14955D01*
Y92693D01*
X14932D01*
Y92670D01*
X14910D01*
Y92625D01*
X14865D01*
Y92602D01*
X14842D01*
Y92580D01*
X14865D01*
Y92535D01*
X14842D01*
Y92580D01*
X14819D01*
Y92557D01*
X14797D01*
Y92602D01*
X14819D01*
Y92625D01*
X14842D01*
Y92670D01*
X14865D01*
Y92693D01*
X14910D01*
Y92715D01*
X14932D01*
Y92738D01*
X14955D01*
Y92760D01*
X14977D01*
Y92783D01*
X15000D01*
Y92806D01*
X15023D01*
Y92828D01*
X15045D01*
Y92851D01*
X15090D01*
Y92873D01*
X15113D01*
Y92896D01*
X15135D01*
Y92873D01*
D02*
G37*
G36*
X14774Y92806D02*
X14752D01*
Y92828D01*
Y92851D01*
X14774D01*
Y92806D01*
D02*
G37*
G36*
X14729Y92851D02*
X14684D01*
Y92828D01*
X14661D01*
Y92806D01*
X14639D01*
Y92851D01*
X14661D01*
Y92873D01*
X14729D01*
Y92851D01*
D02*
G37*
G36*
X14616D02*
X14594D01*
Y92828D01*
X14616D01*
Y92806D01*
X14594D01*
Y92828D01*
X14571D01*
Y92806D01*
X14549D01*
Y92783D01*
X14526D01*
Y92760D01*
X14481D01*
Y92738D01*
X14549D01*
Y92760D01*
X14571D01*
Y92783D01*
X14616D01*
Y92760D01*
X14594D01*
Y92738D01*
X14571D01*
Y92715D01*
X14549D01*
Y92693D01*
X14526D01*
Y92715D01*
X14481D01*
Y92738D01*
X14458D01*
Y92760D01*
X14436D01*
Y92783D01*
X14481D01*
Y92806D01*
X14526D01*
Y92828D01*
X14549D01*
Y92873D01*
X14594D01*
Y92896D01*
X14616D01*
Y92851D01*
D02*
G37*
G36*
X14458Y92806D02*
X14436D01*
Y92873D01*
X14458D01*
Y92806D01*
D02*
G37*
G36*
X14368D02*
X14345D01*
Y92851D01*
Y92873D01*
X14368D01*
Y92806D01*
D02*
G37*
G36*
X14255Y92851D02*
Y92828D01*
Y92806D01*
X14233D01*
Y92873D01*
X14255D01*
Y92851D01*
D02*
G37*
G36*
X14165Y92806D02*
X14120D01*
Y92873D01*
X14165D01*
Y92806D01*
D02*
G37*
G36*
X14052D02*
X14029D01*
Y92828D01*
Y92851D01*
Y92873D01*
X14052D01*
Y92806D01*
D02*
G37*
G36*
X13939D02*
X13917D01*
Y92828D01*
Y92851D01*
Y92873D01*
X13939D01*
Y92806D01*
D02*
G37*
G36*
X13849D02*
X13826D01*
Y92851D01*
Y92873D01*
X13849D01*
Y92806D01*
D02*
G37*
G36*
X13736Y92851D02*
Y92806D01*
X13713D01*
Y92873D01*
X13736D01*
Y92851D01*
D02*
G37*
G36*
X13646D02*
Y92806D01*
X13623D01*
Y92873D01*
X13646D01*
Y92851D01*
D02*
G37*
G36*
X13533Y92806D02*
X13510D01*
Y92851D01*
Y92873D01*
X13533D01*
Y92806D01*
D02*
G37*
G36*
X13443D02*
X13420D01*
Y92828D01*
Y92851D01*
X13443D01*
Y92806D01*
D02*
G37*
G36*
X13330D02*
X13307D01*
Y92851D01*
X13330D01*
Y92806D01*
D02*
G37*
G36*
X13240Y92828D02*
Y92806D01*
X13194D01*
Y92873D01*
X13240D01*
Y92828D01*
D02*
G37*
G36*
X13127Y92806D02*
X13104D01*
Y92851D01*
Y92873D01*
X13127D01*
Y92806D01*
D02*
G37*
G36*
X13036D02*
X12991D01*
Y92851D01*
X13036D01*
Y92806D01*
D02*
G37*
G36*
X12811D02*
X12788D01*
Y92828D01*
Y92851D01*
X12811D01*
Y92806D01*
D02*
G37*
G36*
X12720Y92828D02*
Y92806D01*
X12698D01*
Y92851D01*
X12720D01*
Y92828D01*
D02*
G37*
G36*
X12608Y92806D02*
X12585D01*
Y92851D01*
X12608D01*
Y92806D01*
D02*
G37*
G36*
X12878Y92783D02*
X12856D01*
Y92806D01*
X12878D01*
Y92783D01*
D02*
G37*
G36*
X12562D02*
X12540D01*
Y92828D01*
X12562D01*
Y92783D01*
D02*
G37*
G36*
X18769Y92760D02*
X18746D01*
Y92783D01*
X18769D01*
Y92760D01*
D02*
G37*
G36*
X15858D02*
X15835D01*
Y92806D01*
X15858D01*
Y92760D01*
D02*
G37*
G36*
X15745Y92783D02*
Y92760D01*
X15722D01*
Y92806D01*
X15745D01*
Y92783D01*
D02*
G37*
G36*
X15654Y92760D02*
X15609D01*
Y92806D01*
X15654D01*
Y92760D01*
D02*
G37*
G36*
X15542D02*
X15519D01*
Y92783D01*
Y92806D01*
X15542D01*
Y92760D01*
D02*
G37*
G36*
X14413Y92806D02*
Y92760D01*
X14391D01*
Y92828D01*
X14413D01*
Y92806D01*
D02*
G37*
G36*
X14368Y92760D02*
X14345D01*
Y92783D01*
X14368D01*
Y92760D01*
D02*
G37*
G36*
X14300Y92806D02*
Y92783D01*
Y92760D01*
X14278D01*
Y92828D01*
X14300D01*
Y92806D01*
D02*
G37*
G36*
X14210Y92783D02*
Y92760D01*
X14187D01*
Y92828D01*
X14210D01*
Y92783D01*
D02*
G37*
G36*
X14097Y92760D02*
X14075D01*
Y92806D01*
X14097D01*
Y92760D01*
D02*
G37*
G36*
X14007Y92783D02*
Y92760D01*
X13984D01*
Y92828D01*
X14007D01*
Y92783D01*
D02*
G37*
G36*
X13894Y92760D02*
X13871D01*
Y92806D01*
Y92828D01*
X13894D01*
Y92760D01*
D02*
G37*
G36*
X13804Y92783D02*
Y92760D01*
X13781D01*
Y92828D01*
X13804D01*
Y92783D01*
D02*
G37*
G36*
X13691Y92760D02*
X13668D01*
Y92828D01*
X13691D01*
Y92760D01*
D02*
G37*
G36*
X13601D02*
X13556D01*
Y92783D01*
Y92806D01*
Y92828D01*
X13601D01*
Y92760D01*
D02*
G37*
G36*
X13488Y92783D02*
Y92760D01*
X13465D01*
Y92806D01*
X13488D01*
Y92783D01*
D02*
G37*
G36*
X13375Y92760D02*
X13352D01*
Y92783D01*
Y92806D01*
Y92828D01*
X13375D01*
Y92760D01*
D02*
G37*
G36*
X13285Y92806D02*
Y92783D01*
Y92760D01*
X13262D01*
Y92828D01*
X13285D01*
Y92806D01*
D02*
G37*
G36*
X13172Y92783D02*
Y92760D01*
X13149D01*
Y92828D01*
X13172D01*
Y92783D01*
D02*
G37*
G36*
X13082D02*
Y92760D01*
X13059D01*
Y92828D01*
X13082D01*
Y92783D01*
D02*
G37*
G36*
X12969D02*
Y92760D01*
X12946D01*
Y92806D01*
X12969D01*
Y92783D01*
D02*
G37*
G36*
X12766Y92760D02*
X12743D01*
Y92806D01*
X12766D01*
Y92760D01*
D02*
G37*
G36*
X12675D02*
X12630D01*
Y92783D01*
Y92828D01*
X12675D01*
Y92760D01*
D02*
G37*
G36*
X12608D02*
X12585D01*
Y92783D01*
X12608D01*
Y92760D01*
D02*
G37*
G36*
X15790Y92738D02*
X15767D01*
Y92760D01*
Y92783D01*
X15790D01*
Y92738D01*
D02*
G37*
G36*
X15745Y92715D02*
X15722D01*
Y92738D01*
X15745D01*
Y92715D01*
D02*
G37*
G36*
X15700Y92760D02*
Y92738D01*
Y92715D01*
X15677D01*
Y92783D01*
X15700D01*
Y92760D01*
D02*
G37*
G36*
X15587D02*
Y92715D01*
X15564D01*
Y92783D01*
X15587D01*
Y92760D01*
D02*
G37*
G36*
X15496Y92738D02*
Y92715D01*
X15474D01*
Y92760D01*
X15496D01*
Y92738D01*
D02*
G37*
G36*
X15542Y92851D02*
X15519D01*
Y92828D01*
X15496D01*
Y92806D01*
X15474D01*
Y92783D01*
X15451D01*
Y92760D01*
X15406D01*
Y92738D01*
X15384D01*
Y92715D01*
X15361D01*
Y92760D01*
X15384D01*
Y92783D01*
X15406D01*
Y92806D01*
X15451D01*
Y92828D01*
X15474D01*
Y92851D01*
X15496D01*
Y92873D01*
X15519D01*
Y92896D01*
X15542D01*
Y92851D01*
D02*
G37*
G36*
X14932Y92760D02*
X14910D01*
Y92738D01*
X14865D01*
Y92715D01*
X14842D01*
Y92760D01*
X14865D01*
Y92783D01*
X14932D01*
Y92760D01*
D02*
G37*
G36*
X14458Y92715D02*
X14436D01*
Y92738D01*
X14458D01*
Y92715D01*
D02*
G37*
G36*
X14368D02*
X14345D01*
Y92738D01*
X14368D01*
Y92715D01*
D02*
G37*
G36*
X14300D02*
X14278D01*
Y92738D01*
X14300D01*
Y92715D01*
D02*
G37*
G36*
X14165D02*
X14120D01*
Y92738D01*
Y92760D01*
Y92783D01*
X14165D01*
Y92715D01*
D02*
G37*
G36*
X14052Y92738D02*
Y92715D01*
X14029D01*
Y92783D01*
X14052D01*
Y92738D01*
D02*
G37*
G36*
X13939Y92760D02*
Y92715D01*
X13917D01*
Y92783D01*
X13939D01*
Y92760D01*
D02*
G37*
G36*
X13849D02*
Y92738D01*
Y92715D01*
X13826D01*
Y92783D01*
X13849D01*
Y92760D01*
D02*
G37*
G36*
X13736Y92715D02*
X13713D01*
Y92783D01*
X13736D01*
Y92715D01*
D02*
G37*
G36*
X13646D02*
X13623D01*
Y92738D01*
Y92760D01*
Y92783D01*
X13646D01*
Y92715D01*
D02*
G37*
G36*
X13533Y92738D02*
Y92715D01*
X13510D01*
Y92760D01*
X13533D01*
Y92738D01*
D02*
G37*
G36*
X13443Y92715D02*
X13420D01*
Y92783D01*
X13443D01*
Y92715D01*
D02*
G37*
G36*
X13330Y92760D02*
Y92715D01*
X13307D01*
Y92783D01*
X13330D01*
Y92760D01*
D02*
G37*
G36*
X13240Y92715D02*
X13194D01*
Y92738D01*
Y92760D01*
Y92783D01*
X13240D01*
Y92715D01*
D02*
G37*
G36*
X13127D02*
X13104D01*
Y92783D01*
X13127D01*
Y92715D01*
D02*
G37*
G36*
X13036D02*
X12991D01*
Y92738D01*
Y92783D01*
X13036D01*
Y92715D01*
D02*
G37*
G36*
X12924Y92760D02*
Y92738D01*
Y92715D01*
X12901D01*
Y92783D01*
X12924D01*
Y92760D01*
D02*
G37*
G36*
X12811Y92715D02*
X12788D01*
Y92760D01*
X12811D01*
Y92715D01*
D02*
G37*
G36*
X12720D02*
X12698D01*
Y92760D01*
X12720D01*
Y92715D01*
D02*
G37*
G36*
X14729Y92760D02*
X14684D01*
Y92738D01*
X14752D01*
Y92760D01*
X14774D01*
Y92715D01*
X14752D01*
Y92693D01*
X14729D01*
Y92715D01*
X14684D01*
Y92738D01*
X14661D01*
Y92715D01*
X14639D01*
Y92693D01*
X14616D01*
Y92670D01*
X14594D01*
Y92625D01*
X14571D01*
Y92602D01*
X14549D01*
Y92580D01*
X14526D01*
Y92557D01*
X14481D01*
Y92602D01*
X14526D01*
Y92625D01*
X14549D01*
Y92670D01*
X14571D01*
Y92693D01*
X14594D01*
Y92715D01*
X14616D01*
Y92738D01*
X14639D01*
Y92760D01*
X14661D01*
Y92783D01*
X14684D01*
Y92806D01*
X14729D01*
Y92760D01*
D02*
G37*
G36*
X14255Y92715D02*
X14233D01*
Y92693D01*
X14187D01*
Y92715D01*
Y92738D01*
X14233D01*
Y92783D01*
X14255D01*
Y92715D01*
D02*
G37*
G36*
X15654Y92670D02*
X15609D01*
Y92715D01*
X15654D01*
Y92670D01*
D02*
G37*
G36*
X15542Y92715D02*
Y92693D01*
Y92670D01*
X15519D01*
Y92738D01*
X15542D01*
Y92715D01*
D02*
G37*
G36*
X15451Y92670D02*
X15406D01*
Y92715D01*
X15451D01*
Y92670D01*
D02*
G37*
G36*
X15338Y92693D02*
Y92670D01*
X15316D01*
Y92715D01*
X15338D01*
Y92693D01*
D02*
G37*
G36*
X15384Y92806D02*
X15361D01*
Y92783D01*
X15338D01*
Y92760D01*
X15316D01*
Y92738D01*
X15293D01*
Y92715D01*
X15271D01*
Y92693D01*
X15226D01*
Y92670D01*
X15203D01*
Y92715D01*
X15226D01*
Y92738D01*
X15271D01*
Y92760D01*
X15293D01*
Y92783D01*
X15316D01*
Y92806D01*
X15338D01*
Y92828D01*
X15384D01*
Y92806D01*
D02*
G37*
G36*
X15338Y92851D02*
X15316D01*
Y92828D01*
X15293D01*
Y92806D01*
X15271D01*
Y92783D01*
X15226D01*
Y92760D01*
X15203D01*
Y92738D01*
X15181D01*
Y92715D01*
X15158D01*
Y92693D01*
X15135D01*
Y92670D01*
X15113D01*
Y92715D01*
X15135D01*
Y92738D01*
X15158D01*
Y92760D01*
X15181D01*
Y92783D01*
X15203D01*
Y92806D01*
X15226D01*
Y92828D01*
X15271D01*
Y92851D01*
X15293D01*
Y92873D01*
X15338D01*
Y92851D01*
D02*
G37*
G36*
X15135Y92760D02*
X15113D01*
Y92738D01*
X15090D01*
Y92715D01*
X15045D01*
Y92693D01*
X15023D01*
Y92670D01*
X15000D01*
Y92715D01*
X15023D01*
Y92738D01*
X15045D01*
Y92760D01*
X15090D01*
Y92783D01*
X15135D01*
Y92760D01*
D02*
G37*
G36*
X14007Y92715D02*
Y92670D01*
X13984D01*
Y92738D01*
X14007D01*
Y92715D01*
D02*
G37*
G36*
X13894Y92670D02*
X13871D01*
Y92693D01*
Y92715D01*
Y92738D01*
X13894D01*
Y92670D01*
D02*
G37*
G36*
X13804D02*
X13781D01*
Y92693D01*
Y92715D01*
Y92738D01*
X13804D01*
Y92670D01*
D02*
G37*
G36*
X13691D02*
X13668D01*
Y92693D01*
Y92738D01*
X13691D01*
Y92670D01*
D02*
G37*
G36*
X13601D02*
X13556D01*
Y92738D01*
X13601D01*
Y92670D01*
D02*
G37*
G36*
X13488D02*
X13465D01*
Y92693D01*
Y92738D01*
X13488D01*
Y92670D01*
D02*
G37*
G36*
X13375D02*
X13352D01*
Y92693D01*
Y92715D01*
Y92738D01*
X13375D01*
Y92670D01*
D02*
G37*
G36*
X13285D02*
X13262D01*
Y92738D01*
X13285D01*
Y92670D01*
D02*
G37*
G36*
X13172D02*
X13149D01*
Y92693D01*
Y92738D01*
X13172D01*
Y92670D01*
D02*
G37*
G36*
X13082D02*
X13059D01*
Y92738D01*
X13082D01*
Y92670D01*
D02*
G37*
G36*
X12969D02*
X12946D01*
Y92715D01*
X12969D01*
Y92670D01*
D02*
G37*
G36*
X12878Y92693D02*
Y92670D01*
X12856D01*
Y92715D01*
X12878D01*
Y92693D01*
D02*
G37*
G36*
X12766Y92670D02*
X12743D01*
Y92693D01*
Y92715D01*
X12766D01*
Y92670D01*
D02*
G37*
G36*
X14097Y92715D02*
Y92693D01*
Y92670D01*
X14075D01*
Y92625D01*
X14052D01*
Y92670D01*
X14029D01*
Y92693D01*
X14075D01*
Y92738D01*
X14097D01*
Y92715D01*
D02*
G37*
G36*
X15587Y92648D02*
Y92625D01*
Y92602D01*
X15564D01*
Y92693D01*
X15587D01*
Y92648D01*
D02*
G37*
G36*
X15542Y92602D02*
X15519D01*
Y92625D01*
X15542D01*
Y92602D01*
D02*
G37*
G36*
X15496D02*
X15474D01*
Y92625D01*
Y92648D01*
Y92670D01*
X15496D01*
Y92602D01*
D02*
G37*
G36*
X15384Y92625D02*
Y92602D01*
X15361D01*
Y92670D01*
X15384D01*
Y92625D01*
D02*
G37*
G36*
X15293Y92602D02*
X15271D01*
Y92670D01*
X15293D01*
Y92602D01*
D02*
G37*
G36*
X15181D02*
X15158D01*
Y92625D01*
Y92670D01*
X15181D01*
Y92602D01*
D02*
G37*
G36*
X15090Y92648D02*
Y92625D01*
Y92602D01*
X15045D01*
Y92670D01*
X15090D01*
Y92648D01*
D02*
G37*
G36*
X14977Y92602D02*
X14955D01*
Y92670D01*
X14977D01*
Y92602D01*
D02*
G37*
G36*
X14729Y92670D02*
X14684D01*
Y92625D01*
X14661D01*
Y92602D01*
X14639D01*
Y92670D01*
X14661D01*
Y92693D01*
X14729D01*
Y92670D01*
D02*
G37*
G36*
X14165Y92602D02*
X14120D01*
Y92670D01*
Y92693D01*
X14165D01*
Y92602D01*
D02*
G37*
G36*
X13939D02*
X13917D01*
Y92693D01*
X13939D01*
Y92602D01*
D02*
G37*
G36*
X13849Y92670D02*
Y92602D01*
X13826D01*
Y92693D01*
X13849D01*
Y92670D01*
D02*
G37*
G36*
X13736Y92602D02*
X13713D01*
Y92670D01*
Y92693D01*
X13736D01*
Y92602D01*
D02*
G37*
G36*
X13646Y92625D02*
Y92602D01*
X13623D01*
Y92670D01*
X13646D01*
Y92625D01*
D02*
G37*
G36*
X13533Y92602D02*
X13510D01*
Y92625D01*
Y92648D01*
Y92693D01*
X13533D01*
Y92602D01*
D02*
G37*
G36*
X13443Y92670D02*
Y92648D01*
Y92602D01*
X13420D01*
Y92693D01*
X13443D01*
Y92670D01*
D02*
G37*
G36*
X13330Y92648D02*
Y92625D01*
Y92602D01*
X13307D01*
Y92693D01*
X13330D01*
Y92648D01*
D02*
G37*
G36*
X13240Y92602D02*
X13194D01*
Y92670D01*
X13240D01*
Y92602D01*
D02*
G37*
G36*
X13127D02*
X13104D01*
Y92670D01*
Y92693D01*
X13127D01*
Y92602D01*
D02*
G37*
G36*
X13036D02*
X12991D01*
Y92693D01*
X13036D01*
Y92602D01*
D02*
G37*
G36*
X12924D02*
X12901D01*
Y92693D01*
X12924D01*
Y92602D01*
D02*
G37*
G36*
X12811D02*
X12788D01*
Y92693D01*
X12811D01*
Y92602D01*
D02*
G37*
G36*
X15451D02*
Y92580D01*
X15406D01*
Y92625D01*
X15451D01*
Y92602D01*
D02*
G37*
G36*
X15338Y92580D02*
X15316D01*
Y92602D01*
Y92625D01*
X15338D01*
Y92580D01*
D02*
G37*
G36*
X13691D02*
X13668D01*
Y92602D01*
Y92625D01*
X13691D01*
Y92580D01*
D02*
G37*
G36*
X13601D02*
X13556D01*
Y92602D01*
Y92625D01*
X13601D01*
Y92580D01*
D02*
G37*
G36*
X13375D02*
X13352D01*
Y92625D01*
X13375D01*
Y92580D01*
D02*
G37*
G36*
X13285D02*
X13262D01*
Y92602D01*
X13285D01*
Y92580D01*
D02*
G37*
G36*
X12878D02*
X12856D01*
Y92602D01*
X12878D01*
Y92580D01*
D02*
G37*
G36*
X15293Y92557D02*
X15271D01*
Y92580D01*
X15293D01*
Y92557D01*
D02*
G37*
G36*
X15226D02*
X15203D01*
Y92580D01*
Y92602D01*
Y92625D01*
X15226D01*
Y92557D01*
D02*
G37*
G36*
X15135D02*
X15113D01*
Y92602D01*
Y92625D01*
X15135D01*
Y92557D01*
D02*
G37*
G36*
X15023D02*
X15000D01*
Y92580D01*
Y92602D01*
X15023D01*
Y92557D01*
D02*
G37*
G36*
X14932D02*
X14910D01*
Y92602D01*
X14932D01*
Y92557D01*
D02*
G37*
G36*
X14616Y92580D02*
Y92557D01*
X14594D01*
Y92602D01*
X14616D01*
Y92580D01*
D02*
G37*
G36*
X14526Y92670D02*
X14481D01*
Y92625D01*
X14458D01*
Y92602D01*
X14436D01*
Y92580D01*
X14413D01*
Y92557D01*
X14391D01*
Y92602D01*
X14413D01*
Y92625D01*
X14436D01*
Y92648D01*
Y92670D01*
X14458D01*
Y92693D01*
X14526D01*
Y92670D01*
D02*
G37*
G36*
X14300D02*
X14278D01*
Y92625D01*
X14255D01*
Y92602D01*
X14233D01*
Y92580D01*
X14210D01*
Y92557D01*
X14187D01*
Y92625D01*
X14233D01*
Y92670D01*
X14255D01*
Y92693D01*
X14300D01*
Y92670D01*
D02*
G37*
G36*
X14097Y92557D02*
X14075D01*
Y92602D01*
X14097D01*
Y92557D01*
D02*
G37*
G36*
X14052Y92602D02*
X14029D01*
Y92580D01*
X14007D01*
Y92557D01*
X13984D01*
Y92602D01*
Y92625D01*
X14052D01*
Y92602D01*
D02*
G37*
G36*
X13804Y92557D02*
X13781D01*
Y92580D01*
Y92602D01*
Y92625D01*
X13804D01*
Y92557D01*
D02*
G37*
G36*
X13488D02*
X13465D01*
Y92580D01*
Y92625D01*
X13488D01*
Y92557D01*
D02*
G37*
G36*
X13172Y92580D02*
Y92557D01*
X13149D01*
Y92602D01*
X13172D01*
Y92580D01*
D02*
G37*
G36*
X13082Y92557D02*
X13059D01*
Y92602D01*
Y92625D01*
X13082D01*
Y92557D01*
D02*
G37*
G36*
X12969Y92580D02*
Y92557D01*
X12946D01*
Y92625D01*
X12969D01*
Y92580D01*
D02*
G37*
G36*
X15090Y92557D02*
Y92535D01*
X15045D01*
Y92580D01*
X15090D01*
Y92557D01*
D02*
G37*
G36*
X14977D02*
Y92535D01*
X14955D01*
Y92580D01*
X14977D01*
Y92557D01*
D02*
G37*
G36*
X14819Y92670D02*
X14797D01*
Y92625D01*
X14774D01*
Y92602D01*
X14752D01*
Y92580D01*
X14774D01*
Y92535D01*
X14752D01*
Y92557D01*
Y92580D01*
X14729D01*
Y92557D01*
X14684D01*
Y92602D01*
X14729D01*
Y92625D01*
X14752D01*
Y92670D01*
X14774D01*
Y92693D01*
X14797D01*
Y92715D01*
X14819D01*
Y92670D01*
D02*
G37*
G36*
X14661Y92557D02*
Y92535D01*
X14639D01*
Y92580D01*
X14661D01*
Y92557D01*
D02*
G37*
G36*
X14413Y92670D02*
X14391D01*
Y92625D01*
X14368D01*
Y92602D01*
X14345D01*
Y92580D01*
X14368D01*
Y92535D01*
X14345D01*
Y92580D01*
X14300D01*
Y92557D01*
X14278D01*
Y92602D01*
X14300D01*
Y92625D01*
X14345D01*
Y92670D01*
X14368D01*
Y92693D01*
X14391D01*
Y92715D01*
X14413D01*
Y92670D01*
D02*
G37*
G36*
X13240Y92535D02*
X13194D01*
Y92557D01*
X13240D01*
Y92535D01*
D02*
G37*
G36*
X13036D02*
X12991D01*
Y92557D01*
X13036D01*
Y92535D01*
D02*
G37*
G36*
X14571Y92512D02*
X14549D01*
Y92535D01*
Y92557D01*
X14571D01*
Y92512D01*
D02*
G37*
G36*
X14458D02*
X14436D01*
Y92557D01*
X14458D01*
Y92512D01*
D02*
G37*
G36*
X14255D02*
X14233D01*
Y92535D01*
Y92557D01*
X14255D01*
Y92512D01*
D02*
G37*
G36*
X14165D02*
X14120D01*
Y92580D01*
X14165D01*
Y92512D01*
D02*
G37*
G36*
X14052D02*
X14029D01*
Y92557D01*
X14052D01*
Y92512D01*
D02*
G37*
G36*
X13939Y92535D02*
Y92512D01*
X13917D01*
Y92580D01*
X13939D01*
Y92535D01*
D02*
G37*
G36*
X13646Y92512D02*
X13623D01*
Y92535D01*
Y92557D01*
X13646D01*
Y92512D01*
D02*
G37*
G36*
X13533D02*
X13510D01*
Y92557D01*
X13533D01*
Y92512D01*
D02*
G37*
G36*
X13443Y92535D02*
Y92512D01*
X13420D01*
Y92557D01*
X13443D01*
Y92535D01*
D02*
G37*
G36*
X15135Y92490D02*
X15113D01*
Y92535D01*
X15135D01*
Y92490D01*
D02*
G37*
G36*
X14819Y92512D02*
Y92490D01*
X14797D01*
Y92535D01*
X14819D01*
Y92512D01*
D02*
G37*
G36*
X14526Y92490D02*
X14481D01*
Y92535D01*
X14526D01*
Y92490D01*
D02*
G37*
G36*
X14413D02*
X14391D01*
Y92512D01*
Y92535D01*
X14413D01*
Y92490D01*
D02*
G37*
G36*
X14300Y92512D02*
Y92490D01*
X14278D01*
Y92535D01*
X14300D01*
Y92512D01*
D02*
G37*
G36*
X14210Y92490D02*
X14187D01*
Y92535D01*
X14210D01*
Y92490D01*
D02*
G37*
G36*
X13804D02*
X13781D01*
Y92512D01*
X13804D01*
Y92490D01*
D02*
G37*
G36*
X13691D02*
X13668D01*
Y92512D01*
X13691D01*
Y92490D01*
D02*
G37*
G36*
X19040Y92467D02*
X19017D01*
Y92490D01*
Y92512D01*
X19040D01*
Y92467D01*
D02*
G37*
G36*
X14729Y92490D02*
Y92467D01*
X14684D01*
Y92512D01*
X14729D01*
Y92490D01*
D02*
G37*
G36*
X14007D02*
Y92467D01*
X13984D01*
Y92535D01*
X14007D01*
Y92490D01*
D02*
G37*
G36*
X13894Y92467D02*
X13871D01*
Y92512D01*
X13894D01*
Y92467D01*
D02*
G37*
G36*
X13375D02*
X13352D01*
Y92490D01*
Y92512D01*
X13375D01*
Y92467D01*
D02*
G37*
G36*
X13172D02*
X13149D01*
Y92512D01*
X13172D01*
Y92467D01*
D02*
G37*
G36*
X13082D02*
X13059D01*
Y92490D01*
Y92512D01*
X13082D01*
Y92467D01*
D02*
G37*
G36*
X12969D02*
X12946D01*
Y92512D01*
X12969D01*
Y92467D01*
D02*
G37*
G36*
X14865Y92444D02*
X14842D01*
Y92467D01*
X14865D01*
Y92444D01*
D02*
G37*
G36*
X14571D02*
X14549D01*
Y92490D01*
X14571D01*
Y92444D01*
D02*
G37*
G36*
X14458D02*
X14436D01*
Y92467D01*
Y92490D01*
X14458D01*
Y92444D01*
D02*
G37*
G36*
X14368D02*
X14345D01*
Y92490D01*
X14368D01*
Y92444D01*
D02*
G37*
G36*
X14052D02*
X14029D01*
Y92467D01*
X14052D01*
Y92444D01*
D02*
G37*
G36*
X13849D02*
X13826D01*
Y92467D01*
X13849D01*
Y92444D01*
D02*
G37*
G36*
X14165Y92422D02*
X14120D01*
Y92444D01*
Y92490D01*
X14165D01*
Y92422D01*
D02*
G37*
G36*
X13939Y92444D02*
Y92422D01*
X13917D01*
Y92467D01*
X13939D01*
Y92444D01*
D02*
G37*
G36*
X13646D02*
Y92422D01*
X13623D01*
Y92467D01*
X13646D01*
Y92444D01*
D02*
G37*
G36*
X13533Y92422D02*
X13510D01*
Y92444D01*
Y92467D01*
X13533D01*
Y92422D01*
D02*
G37*
G36*
X13330D02*
X13307D01*
Y92467D01*
X13330D01*
Y92422D01*
D02*
G37*
G36*
X13036D02*
X12991D01*
Y92467D01*
X13036D01*
Y92422D01*
D02*
G37*
G36*
X14616Y92399D02*
X14594D01*
Y92422D01*
X14616D01*
Y92399D01*
D02*
G37*
G36*
X14007D02*
X13984D01*
Y92422D01*
X14007D01*
Y92399D01*
D02*
G37*
G36*
X13082D02*
X13059D01*
Y92422D01*
X13082D01*
Y92399D01*
D02*
G37*
G36*
X14819Y92377D02*
X14797D01*
Y92422D01*
X14819D01*
Y92377D01*
D02*
G37*
G36*
X14526D02*
X14481D01*
Y92399D01*
Y92444D01*
X14526D01*
Y92377D01*
D02*
G37*
G36*
X14413Y92399D02*
Y92377D01*
X14391D01*
Y92444D01*
X14413D01*
Y92399D01*
D02*
G37*
G36*
X14300Y92377D02*
X14278D01*
Y92422D01*
Y92444D01*
X14300D01*
Y92377D01*
D02*
G37*
G36*
X14210Y92399D02*
Y92377D01*
X14187D01*
Y92422D01*
X14210D01*
Y92399D01*
D02*
G37*
G36*
X14097D02*
Y92377D01*
X14075D01*
Y92444D01*
X14097D01*
Y92399D01*
D02*
G37*
G36*
X13804Y92377D02*
X13781D01*
Y92399D01*
Y92422D01*
X13804D01*
Y92377D01*
D02*
G37*
G36*
X13691Y92399D02*
Y92377D01*
X13668D01*
Y92444D01*
X13691D01*
Y92399D01*
D02*
G37*
G36*
X13488Y92377D02*
X13465D01*
Y92422D01*
X13488D01*
Y92377D01*
D02*
G37*
G36*
X13375D02*
X13352D01*
Y92399D01*
Y92422D01*
X13375D01*
Y92377D01*
D02*
G37*
G36*
X18995Y92332D02*
X18950D01*
Y92354D01*
Y92377D01*
X18995D01*
Y92332D01*
D02*
G37*
G36*
X13939Y92377D02*
Y92332D01*
X13917D01*
Y92399D01*
X13939D01*
Y92377D01*
D02*
G37*
G36*
X13330Y92332D02*
X13307D01*
Y92377D01*
X13330D01*
Y92332D01*
D02*
G37*
G36*
X13240D02*
X13194D01*
Y92399D01*
X13240D01*
Y92332D01*
D02*
G37*
G36*
X14458Y92377D02*
Y92309D01*
X14436D01*
Y92399D01*
X14458D01*
Y92377D01*
D02*
G37*
G36*
X14368Y92309D02*
X14345D01*
Y92377D01*
Y92399D01*
X14368D01*
Y92309D01*
D02*
G37*
G36*
X14255D02*
X14233D01*
Y92354D01*
Y92377D01*
Y92399D01*
X14255D01*
Y92309D01*
D02*
G37*
G36*
X14165D02*
X14120D01*
Y92332D01*
Y92354D01*
Y92399D01*
X14165D01*
Y92309D01*
D02*
G37*
G36*
X14052D02*
X14029D01*
Y92332D01*
Y92399D01*
X14052D01*
Y92309D01*
D02*
G37*
G36*
X13736Y92354D02*
Y92332D01*
Y92309D01*
X13713D01*
Y92399D01*
X13736D01*
Y92354D01*
D02*
G37*
G36*
X13646Y92309D02*
X13623D01*
Y92377D01*
X13646D01*
Y92309D01*
D02*
G37*
G36*
X13601Y92377D02*
X13556D01*
Y92332D01*
X13533D01*
Y92309D01*
X13510D01*
Y92377D01*
Y92399D01*
X13556D01*
Y92444D01*
X13601D01*
Y92377D01*
D02*
G37*
G36*
X13443Y92309D02*
X13420D01*
Y92354D01*
Y92377D01*
Y92399D01*
X13443D01*
Y92309D01*
D02*
G37*
G36*
X13036Y92354D02*
Y92332D01*
Y92309D01*
X12991D01*
Y92399D01*
X13036D01*
Y92354D01*
D02*
G37*
G36*
X14413Y92286D02*
X14391D01*
Y92309D01*
Y92332D01*
X14413D01*
Y92286D01*
D02*
G37*
G36*
X14210D02*
X14187D01*
Y92332D01*
X14210D01*
Y92286D01*
D02*
G37*
G36*
X14097D02*
X14075D01*
Y92309D01*
Y92332D01*
X14097D01*
Y92286D01*
D02*
G37*
G36*
X13894Y92377D02*
X13871D01*
Y92332D01*
X13894D01*
Y92286D01*
X13871D01*
Y92332D01*
X13826D01*
Y92399D01*
X13871D01*
Y92444D01*
X13894D01*
Y92377D01*
D02*
G37*
G36*
X13804Y92286D02*
X13781D01*
Y92332D01*
X13804D01*
Y92286D01*
D02*
G37*
G36*
X13691Y92309D02*
Y92286D01*
X13668D01*
Y92332D01*
X13691D01*
Y92309D01*
D02*
G37*
G36*
X13285D02*
Y92286D01*
X13262D01*
Y92332D01*
X13285D01*
Y92309D01*
D02*
G37*
G36*
X13082Y92286D02*
X13059D01*
Y92309D01*
X13082D01*
Y92286D01*
D02*
G37*
G36*
X14300Y92264D02*
X14278D01*
Y92309D01*
Y92332D01*
X14300D01*
Y92264D01*
D02*
G37*
G36*
X14007D02*
X13984D01*
Y92309D01*
X14007D01*
Y92264D01*
D02*
G37*
G36*
X13601D02*
X13556D01*
Y92286D01*
Y92309D01*
X13601D01*
Y92264D01*
D02*
G37*
G36*
X13488D02*
X13465D01*
Y92286D01*
Y92309D01*
X13488D01*
Y92264D01*
D02*
G37*
G36*
X13375D02*
X13352D01*
Y92309D01*
Y92332D01*
X13375D01*
Y92264D01*
D02*
G37*
G36*
X13172D02*
X13149D01*
Y92309D01*
X13172D01*
Y92264D01*
D02*
G37*
G36*
X14255Y92241D02*
X14233D01*
Y92286D01*
X14255D01*
Y92241D01*
D02*
G37*
G36*
X14165Y92264D02*
Y92241D01*
X14120D01*
Y92286D01*
X14165D01*
Y92264D01*
D02*
G37*
G36*
X14052D02*
Y92241D01*
X14029D01*
Y92286D01*
X14052D01*
Y92264D01*
D02*
G37*
G36*
X13939D02*
Y92241D01*
X13917D01*
Y92286D01*
X13939D01*
Y92264D01*
D02*
G37*
G36*
X13736Y92241D02*
X13713D01*
Y92286D01*
X13736D01*
Y92241D01*
D02*
G37*
G36*
X13646Y92264D02*
Y92241D01*
X13623D01*
Y92286D01*
X13646D01*
Y92264D01*
D02*
G37*
G36*
X13849Y92219D02*
X13826D01*
Y92241D01*
Y92264D01*
X13849D01*
Y92219D01*
D02*
G37*
G36*
X13533D02*
X13510D01*
Y92264D01*
Y92286D01*
X13533D01*
Y92219D01*
D02*
G37*
G36*
X13443D02*
X13420D01*
Y92241D01*
Y92286D01*
X13443D01*
Y92219D01*
D02*
G37*
G36*
X13330Y92264D02*
Y92219D01*
X13307D01*
Y92286D01*
X13330D01*
Y92264D01*
D02*
G37*
G36*
X13240Y92219D02*
X13194D01*
Y92286D01*
X13240D01*
Y92219D01*
D02*
G37*
G36*
X13127D02*
X13104D01*
Y92241D01*
Y92264D01*
X13127D01*
Y92219D01*
D02*
G37*
G36*
X13894Y92196D02*
X13871D01*
Y92219D01*
X13894D01*
Y92196D01*
D02*
G37*
G36*
X13375D02*
X13352D01*
Y92219D01*
Y92241D01*
X13375D01*
Y92196D01*
D02*
G37*
G36*
X14007Y92174D02*
X13984D01*
Y92219D01*
X14007D01*
Y92174D01*
D02*
G37*
G36*
X13691Y92219D02*
Y92174D01*
X13668D01*
Y92241D01*
X13691D01*
Y92219D01*
D02*
G37*
G36*
X13601Y92174D02*
X13556D01*
Y92241D01*
X13601D01*
Y92174D01*
D02*
G37*
G36*
X13488D02*
X13465D01*
Y92219D01*
X13488D01*
Y92174D01*
D02*
G37*
G36*
X13285Y92219D02*
Y92174D01*
X13262D01*
Y92241D01*
X13285D01*
Y92219D01*
D02*
G37*
G36*
X13172Y92174D02*
X13149D01*
Y92241D01*
X13172D01*
Y92174D01*
D02*
G37*
G36*
X13082D02*
X13059D01*
Y92219D01*
X13082D01*
Y92174D01*
D02*
G37*
G36*
X13646D02*
Y92151D01*
X13623D01*
Y92196D01*
X13646D01*
Y92174D01*
D02*
G37*
G36*
X13443Y92151D02*
X13420D01*
Y92196D01*
X13443D01*
Y92151D01*
D02*
G37*
G36*
X13240D02*
X13194D01*
Y92196D01*
X13240D01*
Y92151D01*
D02*
G37*
G36*
X13533Y92174D02*
Y92151D01*
Y92128D01*
X13510D01*
Y92196D01*
X13533D01*
Y92174D01*
D02*
G37*
G36*
X13330Y92128D02*
X13307D01*
Y92151D01*
Y92196D01*
X13330D01*
Y92128D01*
D02*
G37*
G36*
X13127Y92151D02*
Y92128D01*
X13104D01*
Y92174D01*
X13127D01*
Y92151D01*
D02*
G37*
G36*
X13601Y92128D02*
Y92106D01*
X13556D01*
Y92151D01*
X13601D01*
Y92128D01*
D02*
G37*
G36*
X13488D02*
Y92106D01*
X13465D01*
Y92151D01*
X13488D01*
Y92128D01*
D02*
G37*
G36*
X13375Y92106D02*
X13352D01*
Y92128D01*
Y92151D01*
X13375D01*
Y92106D01*
D02*
G37*
G36*
X13285D02*
X13262D01*
Y92128D01*
Y92151D01*
X13285D01*
Y92106D01*
D02*
G37*
G36*
X13172Y92083D02*
Y92061D01*
X13149D01*
Y92128D01*
X13172D01*
Y92083D01*
D02*
G37*
G36*
X13330Y92038D02*
X13307D01*
Y92061D01*
X13330D01*
Y92038D01*
D02*
G37*
G36*
X13127Y92016D02*
X13104D01*
Y92061D01*
X13127D01*
Y92016D01*
D02*
G37*
G36*
X13285Y91993D02*
X13262D01*
Y92016D01*
X13285D01*
Y91993D01*
D02*
G37*
G36*
X13172Y91970D02*
X13149D01*
Y92016D01*
X13172D01*
Y91970D01*
D02*
G37*
G36*
X13127Y91948D02*
X13104D01*
Y91970D01*
X13127D01*
Y91948D01*
D02*
G37*
G36*
X13240Y91654D02*
X13194D01*
Y91677D01*
X13240D01*
Y91654D01*
D02*
G37*
G36*
X13127D02*
X13104D01*
Y91677D01*
X13127D01*
Y91654D01*
D02*
G37*
G36*
X13601Y91113D02*
X13556D01*
Y91135D01*
X13601D01*
Y91113D01*
D02*
G37*
G36*
X18363Y90729D02*
X18476D01*
Y90707D01*
X18566D01*
Y90662D01*
X18701D01*
Y90639D01*
X18882D01*
Y90616D01*
X19108D01*
Y90594D01*
X19378D01*
Y90571D01*
X18882D01*
Y90594D01*
X18634D01*
Y90616D01*
X18521D01*
Y90639D01*
X18431D01*
Y90662D01*
X18363D01*
Y90707D01*
X18340D01*
Y90752D01*
X18363D01*
Y90729D01*
D02*
G37*
G36*
X18340Y90549D02*
X18431D01*
Y90526D01*
X18476D01*
Y90504D01*
X18521D01*
Y90481D01*
X18611D01*
Y90458D01*
X18656D01*
Y90436D01*
X18724D01*
Y90391D01*
X18814D01*
Y90368D01*
X18679D01*
Y90391D01*
X18611D01*
Y90436D01*
X18521D01*
Y90458D01*
X18476D01*
Y90481D01*
X18385D01*
Y90504D01*
X18340D01*
Y90526D01*
X18318D01*
Y90571D01*
X18340D01*
Y90549D01*
D02*
G37*
G36*
X13375D02*
X13420D01*
Y90526D01*
X13443D01*
Y90504D01*
X13465D01*
Y90481D01*
X13488D01*
Y90436D01*
X13510D01*
Y90368D01*
X13533D01*
Y90300D01*
X13556D01*
Y90097D01*
X13533D01*
Y90075D01*
X13510D01*
Y90052D01*
X13420D01*
Y90075D01*
X13375D01*
Y90097D01*
X13352D01*
Y90120D01*
X13330D01*
Y90165D01*
X13307D01*
Y90210D01*
X13285D01*
Y90233D01*
X13262D01*
Y90300D01*
X13240D01*
Y90368D01*
X13194D01*
Y90458D01*
Y90481D01*
Y90504D01*
X13240D01*
Y90571D01*
X13375D01*
Y90549D01*
D02*
G37*
G36*
X13510Y89826D02*
X13488D01*
Y89849D01*
X13510D01*
Y89826D01*
D02*
G37*
G36*
X15338Y92241D02*
X15406D01*
Y92219D01*
X15519D01*
Y92196D01*
X15587D01*
Y92174D01*
X15654D01*
Y92151D01*
X15700D01*
Y92128D01*
X15722D01*
Y92106D01*
X15767D01*
Y92061D01*
X15790D01*
Y92038D01*
X15835D01*
Y92016D01*
X15880D01*
Y91970D01*
X15925D01*
Y91948D01*
X15948D01*
Y91925D01*
X15970D01*
Y91903D01*
X16016D01*
Y91880D01*
X16038D01*
Y91835D01*
X16061D01*
Y91790D01*
X16083D01*
Y91767D01*
X16106D01*
Y91722D01*
X16128D01*
Y91700D01*
X16151D01*
Y91654D01*
X16196D01*
Y91609D01*
X16219D01*
Y91542D01*
X16241D01*
Y91474D01*
X16264D01*
Y91406D01*
X16286D01*
Y91338D01*
X16309D01*
Y91271D01*
X16332D01*
Y91181D01*
X16354D01*
Y91068D01*
X16399D01*
Y90932D01*
X16354D01*
Y90887D01*
X16399D01*
Y90797D01*
X16354D01*
Y90571D01*
X16332D01*
Y90504D01*
X16309D01*
Y90391D01*
X16286D01*
Y90346D01*
X16264D01*
Y90300D01*
X16241D01*
Y90255D01*
X16219D01*
Y90210D01*
X16196D01*
Y90188D01*
X16151D01*
Y90120D01*
X16128D01*
Y90097D01*
X16106D01*
Y90075D01*
X16083D01*
Y90052D01*
X16061D01*
Y90030D01*
X16038D01*
Y90007D01*
X16016D01*
Y89984D01*
X15970D01*
Y89962D01*
X15948D01*
Y89939D01*
X15903D01*
Y89917D01*
X15880D01*
Y89894D01*
X15835D01*
Y89849D01*
X15790D01*
Y89826D01*
X15722D01*
Y89804D01*
X15587D01*
Y89781D01*
X15271D01*
Y89804D01*
X15181D01*
Y89826D01*
X15045D01*
Y89849D01*
X14977D01*
Y89894D01*
X14910D01*
Y89917D01*
X14842D01*
Y89939D01*
X14819D01*
Y89962D01*
X14797D01*
Y89984D01*
X14752D01*
Y90007D01*
X14684D01*
Y90030D01*
X14661D01*
Y90052D01*
X14616D01*
Y90075D01*
X14571D01*
Y90097D01*
X14549D01*
Y90120D01*
X14481D01*
Y90165D01*
X14458D01*
Y90188D01*
X14436D01*
Y90210D01*
X14413D01*
Y90233D01*
X14391D01*
Y90255D01*
X14368D01*
Y90300D01*
X14345D01*
Y90323D01*
X14300D01*
Y90346D01*
X14278D01*
Y90391D01*
X14255D01*
Y90436D01*
X14233D01*
Y90504D01*
X14210D01*
Y90526D01*
X14187D01*
Y90571D01*
X14165D01*
Y90616D01*
X14120D01*
Y90707D01*
X14097D01*
Y90774D01*
X14075D01*
Y90932D01*
X14052D01*
Y91271D01*
X14075D01*
Y91406D01*
X14097D01*
Y91542D01*
X14120D01*
Y91587D01*
X14165D01*
Y91632D01*
X14187D01*
Y91700D01*
X14210D01*
Y91722D01*
X14233D01*
Y91767D01*
X14255D01*
Y91835D01*
X14278D01*
Y91858D01*
X14300D01*
Y91903D01*
X14345D01*
Y91925D01*
X14368D01*
Y91970D01*
X14391D01*
Y91993D01*
X14413D01*
Y92016D01*
X14436D01*
Y92038D01*
X14481D01*
Y92061D01*
X14526D01*
Y92106D01*
X14571D01*
Y92128D01*
X14594D01*
Y92151D01*
X14639D01*
Y92174D01*
X14684D01*
Y92196D01*
X14752D01*
Y92219D01*
X14797D01*
Y92241D01*
X14932D01*
Y92264D01*
X15338D01*
Y92241D01*
D02*
G37*
G36*
X15090Y89781D02*
X15045D01*
Y89804D01*
X15090D01*
Y89781D01*
D02*
G37*
G36*
X14977D02*
X14955D01*
Y89804D01*
X14977D01*
Y89781D01*
D02*
G37*
G36*
X14865D02*
X14842D01*
Y89804D01*
X14865D01*
Y89781D01*
D02*
G37*
G36*
X14774D02*
X14752D01*
Y89804D01*
X14774D01*
Y89781D01*
D02*
G37*
G36*
X15451Y89736D02*
X15406D01*
Y89759D01*
X15451D01*
Y89736D01*
D02*
G37*
G36*
X15338D02*
X15316D01*
Y89759D01*
X15338D01*
Y89736D01*
D02*
G37*
G36*
X15293D02*
X15271D01*
Y89759D01*
X15293D01*
Y89736D01*
D02*
G37*
G36*
X15226D02*
X15203D01*
Y89759D01*
X15226D01*
Y89736D01*
D02*
G37*
G36*
X15181D02*
X15158D01*
Y89759D01*
X15181D01*
Y89736D01*
D02*
G37*
G36*
X15135D02*
X15113D01*
Y89759D01*
X15135D01*
Y89736D01*
D02*
G37*
G36*
X15023D02*
X15000D01*
Y89759D01*
X15023D01*
Y89736D01*
D02*
G37*
G36*
X14932D02*
X14910D01*
Y89759D01*
X14932D01*
Y89736D01*
D02*
G37*
G36*
X14819D02*
X14797D01*
Y89759D01*
X14819D01*
Y89736D01*
D02*
G37*
G36*
X14729D02*
X14684D01*
Y89759D01*
X14729D01*
Y89736D01*
D02*
G37*
G36*
X15496Y89691D02*
X15474D01*
Y89714D01*
X15496D01*
Y89691D01*
D02*
G37*
G36*
X15451D02*
X15406D01*
Y89714D01*
X15451D01*
Y89691D01*
D02*
G37*
G36*
X15384D02*
X15361D01*
Y89714D01*
X15384D01*
Y89691D01*
D02*
G37*
G36*
X15338D02*
X15316D01*
Y89714D01*
X15338D01*
Y89691D01*
D02*
G37*
G36*
X15293D02*
X15271D01*
Y89714D01*
X15293D01*
Y89691D01*
D02*
G37*
G36*
X15226D02*
X15203D01*
Y89714D01*
X15226D01*
Y89691D01*
D02*
G37*
G36*
X15181D02*
X15158D01*
Y89714D01*
X15181D01*
Y89691D01*
D02*
G37*
G36*
X15090D02*
X15045D01*
Y89714D01*
X15090D01*
Y89691D01*
D02*
G37*
G36*
X15023D02*
X15000D01*
Y89714D01*
X15023D01*
Y89691D01*
D02*
G37*
G36*
X14977D02*
X14955D01*
Y89714D01*
X14977D01*
Y89691D01*
D02*
G37*
G36*
X14865D02*
X14842D01*
Y89714D01*
X14865D01*
Y89691D01*
D02*
G37*
G36*
X14774D02*
X14752D01*
Y89714D01*
X14774D01*
Y89691D01*
D02*
G37*
G36*
X14661D02*
X14639D01*
Y89714D01*
X14661D01*
Y89691D01*
D02*
G37*
G36*
X15654Y89646D02*
X15609D01*
Y89668D01*
X15654D01*
Y89646D01*
D02*
G37*
G36*
X15587D02*
X15564D01*
Y89668D01*
X15587D01*
Y89646D01*
D02*
G37*
G36*
X15542D02*
X15519D01*
Y89668D01*
X15542D01*
Y89646D01*
D02*
G37*
G36*
X15496D02*
X15474D01*
Y89668D01*
X15496D01*
Y89646D01*
D02*
G37*
G36*
X15451D02*
X15406D01*
Y89668D01*
X15451D01*
Y89646D01*
D02*
G37*
G36*
X15384D02*
X15361D01*
Y89668D01*
X15384D01*
Y89646D01*
D02*
G37*
G36*
X15338D02*
X15316D01*
Y89668D01*
X15338D01*
Y89646D01*
D02*
G37*
G36*
X15293D02*
X15271D01*
Y89668D01*
X15293D01*
Y89646D01*
D02*
G37*
G36*
X15226D02*
X15203D01*
Y89668D01*
X15226D01*
Y89646D01*
D02*
G37*
G36*
X15181D02*
X15158D01*
Y89668D01*
X15181D01*
Y89646D01*
D02*
G37*
G36*
X15135D02*
X15113D01*
Y89668D01*
X15135D01*
Y89646D01*
D02*
G37*
G36*
X15090D02*
X15045D01*
Y89668D01*
X15090D01*
Y89646D01*
D02*
G37*
G36*
X15023D02*
X15000D01*
Y89668D01*
X15023D01*
Y89646D01*
D02*
G37*
G36*
X14977D02*
X14955D01*
Y89668D01*
X14977D01*
Y89646D01*
D02*
G37*
G36*
X14932D02*
X14910D01*
Y89668D01*
X14932D01*
Y89646D01*
D02*
G37*
G36*
X14819D02*
X14797D01*
Y89668D01*
X14819D01*
Y89646D01*
D02*
G37*
G36*
X14729D02*
X14684D01*
Y89668D01*
X14729D01*
Y89646D01*
D02*
G37*
G36*
X14616D02*
X14594D01*
Y89668D01*
X14616D01*
Y89646D01*
D02*
G37*
G36*
X14233D02*
X14210D01*
Y89668D01*
X14233D01*
Y89646D01*
D02*
G37*
G36*
X15700Y89601D02*
X15677D01*
Y89623D01*
X15700D01*
Y89601D01*
D02*
G37*
G36*
X15654D02*
X15609D01*
Y89623D01*
X15654D01*
Y89601D01*
D02*
G37*
G36*
X15587D02*
X15564D01*
Y89623D01*
X15587D01*
Y89601D01*
D02*
G37*
G36*
X15542D02*
X15519D01*
Y89623D01*
X15542D01*
Y89601D01*
D02*
G37*
G36*
X15496D02*
X15474D01*
Y89623D01*
X15496D01*
Y89601D01*
D02*
G37*
G36*
X15384D02*
X15361D01*
Y89623D01*
X15384D01*
Y89601D01*
D02*
G37*
G36*
X15338D02*
X15316D01*
Y89623D01*
X15338D01*
Y89601D01*
D02*
G37*
G36*
X15226D02*
X15203D01*
Y89623D01*
X15226D01*
Y89601D01*
D02*
G37*
G36*
X15181D02*
X15158D01*
Y89623D01*
X15181D01*
Y89601D01*
D02*
G37*
G36*
X15135D02*
X15113D01*
Y89623D01*
X15135D01*
Y89601D01*
D02*
G37*
G36*
X15090D02*
X15045D01*
Y89623D01*
X15090D01*
Y89601D01*
D02*
G37*
G36*
X15023D02*
X15000D01*
Y89623D01*
X15023D01*
Y89601D01*
D02*
G37*
G36*
X14977D02*
X14955D01*
Y89623D01*
X14977D01*
Y89601D01*
D02*
G37*
G36*
X14865D02*
X14842D01*
Y89623D01*
X14865D01*
Y89601D01*
D02*
G37*
G36*
X14774D02*
X14752D01*
Y89623D01*
X14774D01*
Y89601D01*
D02*
G37*
G36*
X14661D02*
X14639D01*
Y89623D01*
X14661D01*
Y89601D01*
D02*
G37*
G36*
X14571D02*
X14549D01*
Y89623D01*
X14571D01*
Y89601D01*
D02*
G37*
G36*
X15654Y89533D02*
X15609D01*
Y89556D01*
X15654D01*
Y89533D01*
D02*
G37*
G36*
X15542D02*
X15519D01*
Y89556D01*
X15542D01*
Y89533D01*
D02*
G37*
G36*
X15451D02*
X15406D01*
Y89556D01*
X15451D01*
Y89533D01*
D02*
G37*
G36*
X15338D02*
X15316D01*
Y89556D01*
X15338D01*
Y89533D01*
D02*
G37*
G36*
X15293Y89601D02*
Y89533D01*
X15271D01*
Y89623D01*
X15293D01*
Y89601D01*
D02*
G37*
G36*
X15226Y89533D02*
X15203D01*
Y89556D01*
X15226D01*
Y89533D01*
D02*
G37*
G36*
X15181D02*
X15158D01*
Y89556D01*
X15181D01*
Y89533D01*
D02*
G37*
G36*
X15135D02*
X15113D01*
Y89556D01*
X15135D01*
Y89533D01*
D02*
G37*
G36*
X15090D02*
X15045D01*
Y89556D01*
X15090D01*
Y89533D01*
D02*
G37*
G36*
X15023D02*
X15000D01*
Y89556D01*
X15023D01*
Y89533D01*
D02*
G37*
G36*
X14977D02*
X14955D01*
Y89556D01*
X14977D01*
Y89533D01*
D02*
G37*
G36*
X14932D02*
X14910D01*
Y89556D01*
X14932D01*
Y89533D01*
D02*
G37*
G36*
X14865D02*
X14842D01*
Y89556D01*
X14865D01*
Y89533D01*
D02*
G37*
G36*
X14819D02*
X14797D01*
Y89556D01*
X14819D01*
Y89533D01*
D02*
G37*
G36*
X14774D02*
X14752D01*
Y89556D01*
X14774D01*
Y89533D01*
D02*
G37*
G36*
X14729D02*
X14684D01*
Y89556D01*
X14729D01*
Y89533D01*
D02*
G37*
G36*
X14661D02*
X14639D01*
Y89556D01*
X14661D01*
Y89533D01*
D02*
G37*
G36*
X14616D02*
X14594D01*
Y89556D01*
X14616D01*
Y89533D01*
D02*
G37*
G36*
X15384Y89488D02*
X15361D01*
Y89510D01*
X15384D01*
Y89488D01*
D02*
G37*
G36*
X15293D02*
X15271D01*
Y89510D01*
X15293D01*
Y89488D01*
D02*
G37*
G36*
X15181D02*
X15158D01*
Y89510D01*
X15181D01*
Y89488D01*
D02*
G37*
G36*
X15135D02*
X15113D01*
Y89510D01*
X15135D01*
Y89488D01*
D02*
G37*
G36*
X15090D02*
X15045D01*
Y89510D01*
X15090D01*
Y89488D01*
D02*
G37*
G36*
X15023D02*
X15000D01*
Y89510D01*
X15023D01*
Y89488D01*
D02*
G37*
G36*
X14977D02*
X14955D01*
Y89510D01*
X14977D01*
Y89488D01*
D02*
G37*
G36*
X14932D02*
X14910D01*
Y89510D01*
X14932D01*
Y89488D01*
D02*
G37*
G36*
X14865D02*
X14842D01*
Y89510D01*
X14865D01*
Y89488D01*
D02*
G37*
G36*
X14819D02*
X14797D01*
Y89510D01*
X14819D01*
Y89488D01*
D02*
G37*
G36*
X15451Y89443D02*
X15406D01*
Y89465D01*
X15451D01*
Y89443D01*
D02*
G37*
G36*
X15226D02*
X15203D01*
Y89465D01*
X15226D01*
Y89443D01*
D02*
G37*
G36*
X15181D02*
X15158D01*
Y89465D01*
X15181D01*
Y89443D01*
D02*
G37*
G36*
X15135D02*
X15113D01*
Y89465D01*
X15135D01*
Y89443D01*
D02*
G37*
G36*
X15090D02*
X15045D01*
Y89465D01*
X15090D01*
Y89443D01*
D02*
G37*
G36*
X15023D02*
X15000D01*
Y89465D01*
X15023D01*
Y89443D01*
D02*
G37*
G36*
X14977D02*
X14955D01*
Y89465D01*
X14977D01*
Y89443D01*
D02*
G37*
G36*
X14932D02*
X14910D01*
Y89465D01*
X14932D01*
Y89443D01*
D02*
G37*
G36*
X15090Y89398D02*
X15045D01*
Y89420D01*
X15090D01*
Y89398D01*
D02*
G37*
G36*
X14977D02*
X14955D01*
Y89420D01*
X14977D01*
Y89398D01*
D02*
G37*
%LPC*%
G36*
X16332Y93121D02*
X16309D01*
Y93099D01*
X16286D01*
Y93076D01*
X16332D01*
Y93121D01*
D02*
G37*
G36*
X16038D02*
X16016D01*
Y93099D01*
X15970D01*
Y93076D01*
X16038D01*
Y93099D01*
Y93121D01*
D02*
G37*
G36*
X15609D02*
X15587D01*
Y93099D01*
X15564D01*
Y93076D01*
X15609D01*
Y93121D01*
D02*
G37*
G36*
X16196Y93076D02*
X16151D01*
Y93054D01*
X16128D01*
Y93031D01*
X16196D01*
Y93076D01*
D02*
G37*
G36*
X15677D02*
X15654D01*
Y93054D01*
X15609D01*
Y93031D01*
X15677D01*
Y93076D01*
D02*
G37*
G36*
X15564D02*
X15542D01*
Y93054D01*
X15519D01*
Y93031D01*
X15564D01*
Y93076D01*
D02*
G37*
G36*
X13375Y90481D02*
X13352D01*
Y90458D01*
X13330D01*
Y90436D01*
X13307D01*
Y90346D01*
X13285D01*
Y90323D01*
X13307D01*
Y90255D01*
X13330D01*
Y90233D01*
X13352D01*
Y90188D01*
X13375D01*
Y90165D01*
X13420D01*
Y90120D01*
X13465D01*
Y90165D01*
X13488D01*
Y90300D01*
X13465D01*
Y90368D01*
X13443D01*
Y90391D01*
Y90436D01*
X13420D01*
Y90458D01*
X13375D01*
Y90481D01*
D02*
G37*
G36*
X15338Y92219D02*
X15113D01*
Y92196D01*
X14910D01*
Y92174D01*
X14819D01*
Y92151D01*
X14752D01*
Y92128D01*
X14661D01*
Y92106D01*
X14639D01*
Y92061D01*
X14616D01*
Y92038D01*
X14594D01*
Y92016D01*
X14571D01*
Y91993D01*
X14526D01*
Y91970D01*
X14481D01*
Y91948D01*
X14458D01*
Y91925D01*
X14436D01*
Y91903D01*
X14413D01*
Y91880D01*
X14391D01*
Y91858D01*
X14368D01*
Y91790D01*
X14345D01*
Y91767D01*
X14300D01*
Y91722D01*
X14278D01*
Y91677D01*
X14255D01*
Y91632D01*
X14233D01*
Y91587D01*
X14210D01*
Y91542D01*
X14187D01*
Y91406D01*
X14165D01*
Y91316D01*
X14120D01*
Y91135D01*
X14097D01*
Y91068D01*
X14120D01*
Y90865D01*
X14165D01*
Y90797D01*
X14187D01*
Y90752D01*
X14165D01*
Y90729D01*
X14187D01*
Y90662D01*
X14210D01*
Y90616D01*
X14233D01*
Y90571D01*
X14255D01*
Y90526D01*
X14278D01*
Y90481D01*
X14300D01*
Y90458D01*
X14345D01*
Y90391D01*
X14368D01*
Y90368D01*
X14391D01*
Y90346D01*
X14413D01*
Y90323D01*
X14436D01*
Y90278D01*
X14458D01*
Y90255D01*
X14481D01*
Y90233D01*
X14526D01*
Y90210D01*
X14571D01*
Y90188D01*
X14594D01*
Y90165D01*
X14616D01*
Y90120D01*
X14661D01*
Y90097D01*
X14729D01*
Y90075D01*
X14752D01*
Y90052D01*
X14797D01*
Y90030D01*
X14819D01*
Y90007D01*
X14865D01*
Y89984D01*
X14910D01*
Y89962D01*
X14977D01*
Y89939D01*
X15045D01*
Y89917D01*
X15158D01*
Y89894D01*
X15271D01*
Y89849D01*
X15677D01*
Y89894D01*
X15767D01*
Y89917D01*
X15790D01*
Y89939D01*
X15858D01*
Y89962D01*
X15903D01*
Y89984D01*
X15925D01*
Y90007D01*
X15948D01*
Y90030D01*
X16016D01*
Y90052D01*
X16038D01*
Y90097D01*
X16061D01*
Y90120D01*
X16083D01*
Y90165D01*
X16106D01*
Y90188D01*
X16128D01*
Y90233D01*
X16151D01*
Y90255D01*
X16196D01*
Y90300D01*
X16219D01*
Y90346D01*
X16241D01*
Y90436D01*
X16264D01*
Y90481D01*
X16286D01*
Y90549D01*
X16309D01*
Y90639D01*
X16332D01*
Y90932D01*
X16309D01*
Y91068D01*
X16286D01*
Y91226D01*
X16264D01*
Y91338D01*
X16241D01*
Y91384D01*
X16219D01*
Y91451D01*
X16196D01*
Y91542D01*
X16151D01*
Y91609D01*
X16128D01*
Y91654D01*
X16106D01*
Y91700D01*
X16083D01*
Y91722D01*
X16061D01*
Y91745D01*
X16038D01*
Y91790D01*
X16016D01*
Y91835D01*
X15970D01*
Y91858D01*
X15948D01*
Y91880D01*
X15925D01*
Y91903D01*
X15903D01*
Y91925D01*
X15858D01*
Y91948D01*
X15835D01*
Y91970D01*
X15790D01*
Y91993D01*
X15767D01*
Y92016D01*
X15722D01*
Y92038D01*
X15700D01*
Y92061D01*
X15654D01*
Y92106D01*
X15587D01*
Y92128D01*
X15542D01*
Y92151D01*
X15496D01*
Y92174D01*
X15406D01*
Y92196D01*
X15338D01*
Y92219D01*
D02*
G37*
%LPD*%
G36*
X15271Y91700D02*
X15293D01*
Y91654D01*
X15316D01*
Y91587D01*
X15338D01*
Y91451D01*
X15361D01*
Y91271D01*
X15384D01*
Y91068D01*
X15406D01*
Y91045D01*
X15496D01*
Y91023D01*
X15542D01*
Y91045D01*
X15835D01*
Y91068D01*
X15880D01*
Y91045D01*
X16061D01*
Y91023D01*
X16083D01*
Y91000D01*
X16106D01*
Y90887D01*
X16083D01*
Y90865D01*
X16061D01*
Y90842D01*
X16038D01*
Y90819D01*
X16016D01*
Y90797D01*
X15948D01*
Y90774D01*
X15903D01*
Y90752D01*
X15790D01*
Y90729D01*
X15700D01*
Y90707D01*
X15496D01*
Y90662D01*
X15474D01*
Y90594D01*
X15496D01*
Y90571D01*
X15474D01*
Y90526D01*
Y90504D01*
Y90210D01*
X15451D01*
Y90120D01*
X15406D01*
Y90097D01*
X15316D01*
Y90120D01*
X15293D01*
Y90165D01*
X15271D01*
Y90210D01*
X15226D01*
Y90255D01*
X15203D01*
Y90278D01*
X15181D01*
Y90323D01*
X15158D01*
Y90391D01*
X15135D01*
Y90481D01*
X15113D01*
Y90549D01*
X15090D01*
Y90616D01*
X15045D01*
Y90639D01*
X14752D01*
Y90662D01*
X14571D01*
Y90707D01*
X14481D01*
Y90729D01*
X14413D01*
Y90752D01*
X14391D01*
Y90865D01*
X14413D01*
Y90910D01*
X14458D01*
Y90932D01*
X14526D01*
Y90955D01*
X14729D01*
Y91000D01*
X15000D01*
Y91023D01*
X15023D01*
Y91045D01*
X15045D01*
Y91068D01*
X15023D01*
Y91451D01*
X15045D01*
Y91587D01*
X15090D01*
Y91654D01*
X15113D01*
Y91700D01*
X15135D01*
Y91722D01*
X15271D01*
Y91700D01*
D02*
G37*
%LPC*%
G36*
X16061Y90955D02*
X16038D01*
Y90932D01*
X16061D01*
Y90955D01*
D02*
G37*
G36*
X15654D02*
X15609D01*
Y90932D01*
X15654D01*
Y90955D01*
D02*
G37*
G36*
X15542D02*
X15519D01*
Y90932D01*
X15542D01*
Y90955D01*
D02*
G37*
G36*
X15835Y90842D02*
X15790D01*
Y90819D01*
X15835D01*
Y90842D01*
D02*
G37*
G36*
X15722Y90819D02*
X15700D01*
Y90797D01*
X15722D01*
Y90819D01*
D02*
G37*
G36*
X15677D02*
X15654D01*
Y90797D01*
X15677D01*
Y90819D01*
D02*
G37*
G36*
X15542Y90774D02*
X15474D01*
Y90752D01*
X15542D01*
Y90774D01*
D02*
G37*
%LPD*%
G36*
X12404Y92196D02*
X12427D01*
Y92174D01*
X12450D01*
Y92151D01*
X12427D01*
Y92016D01*
X12404D01*
Y91925D01*
X12382D01*
Y91835D01*
X12359D01*
Y91722D01*
X12337D01*
Y91654D01*
X12314D01*
Y91587D01*
X12269D01*
Y91496D01*
X12246D01*
Y91384D01*
X12314D01*
Y91361D01*
X12337D01*
Y91338D01*
X12382D01*
Y91316D01*
X12404D01*
Y91293D01*
X12427D01*
Y91271D01*
X12450D01*
Y91226D01*
X12495D01*
Y91158D01*
X12450D01*
Y91135D01*
X12404D01*
Y91113D01*
X12337D01*
Y91090D01*
X12269D01*
Y91113D01*
X12246D01*
Y91090D01*
X12224D01*
Y91068D01*
X12201D01*
Y90865D01*
X12179D01*
Y90842D01*
X12156D01*
Y90819D01*
X12134D01*
Y90842D01*
X12066D01*
Y90865D01*
X12043D01*
Y90887D01*
X12021D01*
Y90932D01*
X11998D01*
Y91000D01*
X11976D01*
Y91045D01*
X11953D01*
Y91181D01*
X11931D01*
Y91271D01*
X11885D01*
Y91293D01*
X11863D01*
Y91338D01*
X11840D01*
Y91361D01*
X11818D01*
Y91406D01*
X11795D01*
Y91429D01*
X11773D01*
Y91474D01*
X11750D01*
Y91564D01*
X11705D01*
Y91700D01*
X11840D01*
Y91677D01*
X11885D01*
Y91654D01*
X11953D01*
Y91677D01*
X11976D01*
Y91722D01*
X11998D01*
Y91790D01*
X12021D01*
Y91880D01*
X12043D01*
Y91925D01*
X12066D01*
Y91993D01*
X12111D01*
Y92038D01*
X12134D01*
Y92061D01*
X12156D01*
Y92128D01*
X12179D01*
Y92151D01*
X12201D01*
Y92174D01*
X12224D01*
Y92196D01*
X12314D01*
Y92219D01*
X12404D01*
Y92196D01*
D02*
G37*
G36*
X18882Y89307D02*
Y89285D01*
X18859D01*
Y89330D01*
X18882D01*
Y89307D01*
D02*
G37*
G36*
X18927Y89240D02*
X18904D01*
Y89262D01*
X18927D01*
Y89240D01*
D02*
G37*
G36*
X18837D02*
X18814D01*
Y89262D01*
X18837D01*
Y89240D01*
D02*
G37*
G36*
X18724D02*
X18701D01*
Y89262D01*
X18724D01*
Y89240D01*
D02*
G37*
G36*
X18882Y89194D02*
X18859D01*
Y89217D01*
X18882D01*
Y89194D01*
D02*
G37*
G36*
X18769D02*
X18746D01*
Y89217D01*
X18769D01*
Y89194D01*
D02*
G37*
G36*
X18679D02*
X18656D01*
Y89217D01*
X18679D01*
Y89194D01*
D02*
G37*
G36*
X18476D02*
X18453D01*
Y89217D01*
X18476D01*
Y89194D01*
D02*
G37*
G36*
X18363D02*
X18340D01*
Y89217D01*
X18363D01*
Y89194D01*
D02*
G37*
G36*
X18318D02*
X18295D01*
Y89217D01*
X18318D01*
Y89194D01*
D02*
G37*
G36*
X18273D02*
X18250D01*
Y89217D01*
X18273D01*
Y89194D01*
D02*
G37*
G36*
X18837Y89149D02*
X18814D01*
Y89172D01*
X18837D01*
Y89149D01*
D02*
G37*
G36*
X18724D02*
X18701D01*
Y89172D01*
X18724D01*
Y89149D01*
D02*
G37*
G36*
X18656Y89172D02*
X18679D01*
Y89149D01*
X18656D01*
Y89172D01*
X18634D01*
Y89194D01*
X18656D01*
Y89172D01*
D02*
G37*
G36*
X18634Y89149D02*
X18611D01*
Y89172D01*
X18634D01*
Y89149D01*
D02*
G37*
G36*
X18521D02*
X18498D01*
Y89172D01*
X18521D01*
Y89149D01*
D02*
G37*
G36*
X18431D02*
X18385D01*
Y89172D01*
X18431D01*
Y89149D01*
D02*
G37*
G36*
X18318D02*
X18295D01*
Y89172D01*
X18318D01*
Y89149D01*
D02*
G37*
G36*
X18273D02*
X18250D01*
Y89172D01*
X18273D01*
Y89149D01*
D02*
G37*
G36*
X18814Y89217D02*
X18837D01*
Y89194D01*
X18859D01*
Y89172D01*
X18882D01*
Y89149D01*
X18904D01*
Y89127D01*
X18882D01*
Y89149D01*
X18859D01*
Y89172D01*
X18837D01*
Y89194D01*
X18814D01*
Y89217D01*
X18769D01*
Y89240D01*
X18814D01*
Y89217D01*
D02*
G37*
G36*
X18882Y89104D02*
X18859D01*
Y89127D01*
X18882D01*
Y89104D01*
D02*
G37*
G36*
X18769D02*
X18746D01*
Y89127D01*
X18769D01*
Y89104D01*
D02*
G37*
G36*
X18679D02*
X18656D01*
Y89127D01*
X18679D01*
Y89104D01*
D02*
G37*
G36*
X18521Y89194D02*
X18543D01*
Y89172D01*
X18566D01*
Y89149D01*
X18611D01*
Y89127D01*
X18634D01*
Y89104D01*
X18611D01*
Y89127D01*
X18566D01*
Y89149D01*
X18543D01*
Y89172D01*
X18521D01*
Y89194D01*
X18498D01*
Y89217D01*
X18521D01*
Y89194D01*
D02*
G37*
G36*
X18566Y89104D02*
X18543D01*
Y89127D01*
X18566D01*
Y89104D01*
D02*
G37*
G36*
X18476D02*
X18453D01*
Y89127D01*
X18476D01*
Y89104D01*
D02*
G37*
G36*
X18363D02*
X18340D01*
Y89127D01*
X18363D01*
Y89104D01*
D02*
G37*
G36*
X18701Y89217D02*
X18724D01*
Y89194D01*
X18746D01*
Y89172D01*
X18769D01*
Y89149D01*
X18814D01*
Y89127D01*
X18837D01*
Y89104D01*
X18859D01*
Y89082D01*
X18882D01*
Y89059D01*
X18859D01*
Y89082D01*
X18837D01*
Y89104D01*
X18814D01*
Y89127D01*
X18769D01*
Y89149D01*
X18746D01*
Y89172D01*
X18724D01*
Y89194D01*
X18701D01*
Y89217D01*
X18679D01*
Y89240D01*
X18701D01*
Y89217D01*
D02*
G37*
G36*
X18837Y89059D02*
X18814D01*
Y89082D01*
X18837D01*
Y89059D01*
D02*
G37*
G36*
X18724D02*
X18701D01*
Y89082D01*
X18724D01*
Y89059D01*
D02*
G37*
G36*
X18634D02*
X18611D01*
Y89082D01*
X18634D01*
Y89059D01*
D02*
G37*
G36*
X18431Y89194D02*
X18453D01*
Y89172D01*
X18476D01*
Y89149D01*
X18498D01*
Y89127D01*
X18521D01*
Y89104D01*
X18543D01*
Y89082D01*
X18566D01*
Y89059D01*
X18543D01*
Y89082D01*
X18521D01*
Y89104D01*
X18498D01*
Y89127D01*
X18476D01*
Y89149D01*
X18453D01*
Y89172D01*
X18431D01*
Y89194D01*
X18385D01*
Y89217D01*
X18431D01*
Y89194D01*
D02*
G37*
G36*
X18521Y89059D02*
X18498D01*
Y89082D01*
X18521D01*
Y89059D01*
D02*
G37*
G36*
X18363Y89149D02*
X18385D01*
Y89127D01*
X18431D01*
Y89104D01*
X18453D01*
Y89082D01*
X18476D01*
Y89059D01*
X18453D01*
Y89082D01*
X18431D01*
Y89104D01*
X18385D01*
Y89127D01*
X18363D01*
Y89149D01*
X18340D01*
Y89172D01*
X18363D01*
Y89149D01*
D02*
G37*
G36*
X18318Y89104D02*
X18340D01*
Y89082D01*
X18363D01*
Y89059D01*
X18340D01*
Y89082D01*
X18318D01*
Y89104D01*
X18295D01*
Y89127D01*
X18318D01*
Y89104D01*
D02*
G37*
G36*
X18431Y89059D02*
Y89037D01*
Y89014D01*
X18385D01*
Y89082D01*
X18431D01*
Y89059D01*
D02*
G37*
G36*
X18724Y89104D02*
X18746D01*
Y89082D01*
X18769D01*
Y89059D01*
X18814D01*
Y89037D01*
Y89014D01*
X18837D01*
Y88991D01*
X18814D01*
Y89014D01*
X18769D01*
Y89059D01*
X18746D01*
Y89082D01*
X18724D01*
Y89104D01*
X18701D01*
Y89127D01*
X18724D01*
Y89104D01*
D02*
G37*
G36*
X18769Y88991D02*
X18746D01*
Y89014D01*
X18769D01*
Y88991D01*
D02*
G37*
G36*
X18679D02*
X18656D01*
Y89014D01*
X18679D01*
Y88991D01*
D02*
G37*
G36*
X18634D02*
X18611D01*
Y89014D01*
X18634D01*
Y88991D01*
D02*
G37*
G36*
X18566D02*
X18543D01*
Y89014D01*
X18566D01*
Y88991D01*
D02*
G37*
G36*
X18521D02*
X18498D01*
Y89014D01*
X18521D01*
Y88991D01*
D02*
G37*
G36*
X18476D02*
X18453D01*
Y89014D01*
X18476D01*
Y88991D01*
D02*
G37*
G36*
X18679Y89059D02*
X18701D01*
Y89014D01*
X18724D01*
Y88991D01*
X18746D01*
Y88969D01*
X18769D01*
Y88946D01*
X18746D01*
Y88969D01*
X18724D01*
Y88991D01*
X18701D01*
Y89014D01*
X18679D01*
Y89037D01*
Y89059D01*
X18656D01*
Y89082D01*
X18679D01*
Y89059D01*
D02*
G37*
G36*
X18724Y88946D02*
X18701D01*
Y88969D01*
X18724D01*
Y88946D01*
D02*
G37*
G36*
X18679D02*
X18656D01*
Y88969D01*
X18679D01*
Y88946D01*
D02*
G37*
G36*
X18566D02*
X18543D01*
Y88969D01*
X18566D01*
Y88946D01*
D02*
G37*
G36*
X18521D02*
X18498D01*
Y88969D01*
X18521D01*
Y88946D01*
D02*
G37*
G36*
X18634Y88924D02*
X18611D01*
Y88946D01*
Y88969D01*
X18634D01*
Y88924D01*
D02*
G37*
D10*
X36776Y68748D02*
X36231Y69497D01*
X35351Y69211D01*
Y68285D01*
X36231Y67999D01*
X36776Y68748D01*
D11*
X53016Y85067D02*
X54984D01*
X53016Y80933D02*
X54984D01*
X122736Y49803D02*
Y50197D01*
X127264Y49803D02*
Y50197D01*
X15264Y56803D02*
Y57197D01*
X10736Y56803D02*
Y57197D01*
Y70803D02*
Y71197D01*
X15264Y70803D02*
Y71197D01*
X30264Y35803D02*
Y36197D01*
X25736Y35803D02*
Y36197D01*
X21264Y35803D02*
Y36197D01*
X16736Y35803D02*
Y36197D01*
X11264Y35803D02*
Y36197D01*
X6736Y35803D02*
Y36197D01*
X150606Y70280D02*
X151394D01*
X150606Y67721D02*
X151394D01*
X148803Y33264D02*
X149197D01*
X148803Y28736D02*
X149197D01*
X141354Y43701D02*
Y56299D01*
X160646D01*
Y43701D02*
Y56299D01*
X141354Y43701D02*
X160646D01*
X140744Y36220D02*
Y42323D01*
X151685Y2500D02*
Y25500D01*
X112185D02*
X151685D01*
X112185Y2500D02*
Y25500D01*
Y2500D02*
X151685D01*
X66000D02*
Y25500D01*
X26500D02*
X66000D01*
X26500Y2500D02*
Y25500D01*
Y2500D02*
X66000D01*
X53606Y75721D02*
X54394D01*
X53606Y78280D02*
X54394D01*
X127264Y61803D02*
Y62197D01*
X122736Y61803D02*
Y62197D01*
X92315Y75500D02*
Y98500D01*
Y75500D02*
X141815D01*
Y98500D01*
X92315D02*
X141815D01*
X81803Y34736D02*
X82197D01*
X81803Y39264D02*
X82197D01*
X41598Y40598D02*
Y65402D01*
Y40598D02*
X66402D01*
Y65402D01*
X41598D02*
X66402D01*
X36803Y78264D02*
X37197D01*
X36803Y73736D02*
X37197D01*
X69342Y2500D02*
X108843D01*
X69342D02*
Y25500D01*
X108843D01*
Y2500D02*
Y25500D01*
X85000Y88000D02*
Y98000D01*
X35000Y88000D02*
X85000D01*
X35000Y98000D02*
X85000D01*
X35000Y88000D02*
Y98000D01*
X112957Y45697D02*
X119846D01*
X110890Y45205D02*
Y70795D01*
X97110D02*
X110890D01*
X97110Y45205D02*
Y70795D01*
Y45205D02*
X110890D01*
D12*
X3600Y83600D02*
Y85199D01*
X4400D01*
X4666Y84933D01*
Y84400D01*
X4400Y84133D01*
X3600D01*
X5200Y85199D02*
X5733D01*
X5466D01*
Y83600D01*
X5200D01*
X5733D01*
X6532Y85199D02*
Y83600D01*
X7599D01*
X10798Y84933D02*
X10531Y85199D01*
X9998D01*
X9731Y84933D01*
Y83867D01*
X9998Y83600D01*
X10531D01*
X10798Y83867D01*
X11597Y83600D02*
X12131D01*
X12397Y83867D01*
Y84400D01*
X12131Y84666D01*
X11597D01*
X11331Y84400D01*
Y83867D01*
X11597Y83600D01*
X12930D02*
Y84666D01*
X13730D01*
X13997Y84400D01*
Y83600D01*
X14796Y84933D02*
Y84666D01*
X14530D01*
X15063D01*
X14796D01*
Y83867D01*
X15063Y83600D01*
X15863Y84666D02*
Y83600D01*
Y84133D01*
X16129Y84400D01*
X16396Y84666D01*
X16662D01*
X17729Y83600D02*
X18262D01*
X18529Y83867D01*
Y84400D01*
X18262Y84666D01*
X17729D01*
X17462Y84400D01*
Y83867D01*
X17729Y83600D01*
X19062D02*
X19595D01*
X19328D01*
Y85199D01*
X19062D01*
X21994D02*
Y83600D01*
X22794D01*
X23060Y83867D01*
Y84133D01*
X22794Y84400D01*
X21994D01*
X22794D01*
X23060Y84666D01*
Y84933D01*
X22794Y85199D01*
X21994D01*
X23860Y83600D02*
X24393D01*
X24660Y83867D01*
Y84400D01*
X24393Y84666D01*
X23860D01*
X23594Y84400D01*
Y83867D01*
X23860Y83600D01*
X25460Y84666D02*
X25993D01*
X26259Y84400D01*
Y83600D01*
X25460D01*
X25193Y83867D01*
X25460Y84133D01*
X26259D01*
X26792Y84666D02*
Y83600D01*
Y84133D01*
X27059Y84400D01*
X27326Y84666D01*
X27592D01*
X29458Y85199D02*
Y83600D01*
X28659D01*
X28392Y83867D01*
Y84400D01*
X28659Y84666D01*
X29458D01*
X3800Y81999D02*
X3200D01*
X3500D01*
Y80500D01*
X3200Y80200D01*
X2900D01*
X2600Y80500D01*
X4699Y80200D02*
X5299D01*
X5599Y80500D01*
Y81099D01*
X5299Y81399D01*
X4699D01*
X4399Y81099D01*
Y80500D01*
X4699Y80200D01*
X6499Y81399D02*
X7099D01*
X7398Y81099D01*
Y80200D01*
X6499D01*
X6199Y80500D01*
X6499Y80800D01*
X7398D01*
X7998Y80200D02*
Y81399D01*
X8898D01*
X9198Y81099D01*
Y80200D01*
X9798D02*
Y81399D01*
X10697D01*
X10997Y81099D01*
Y80200D01*
X11897Y81399D02*
X12497D01*
X12797Y81099D01*
Y80200D01*
X11897D01*
X11597Y80500D01*
X11897Y80800D01*
X12797D01*
X15196Y81999D02*
Y80200D01*
X16096D01*
X16396Y80500D01*
Y81699D01*
X16096Y81999D01*
X15196D01*
X17895Y80200D02*
X17295D01*
X16995Y80500D01*
Y81099D01*
X17295Y81399D01*
X17895D01*
X18195Y81099D01*
Y80800D01*
X16995D01*
X18795Y80200D02*
Y81399D01*
X19694D01*
X19994Y81099D01*
Y80200D01*
X21194Y79600D02*
X21494D01*
X21794Y79900D01*
Y81399D01*
X20894D01*
X20594Y81099D01*
Y80500D01*
X20894Y80200D01*
X21794D01*
D13*
X155084Y4251D02*
Y7749D01*
X156834D01*
X157417Y7166D01*
Y6000D01*
X156834Y5417D01*
X155084D01*
X158583Y7166D02*
X159166Y7749D01*
X160333D01*
X160916Y7166D01*
Y6583D01*
X160333Y6000D01*
X159749D01*
X160333D01*
X160916Y5417D01*
Y4834D01*
X160333Y4251D01*
X159166D01*
X158583Y4834D01*
X70084Y28251D02*
Y31749D01*
X71834D01*
X72417Y31166D01*
Y30000D01*
X71834Y29417D01*
X70084D01*
X75916Y28251D02*
X73583D01*
X75916Y30583D01*
Y31166D01*
X75333Y31749D01*
X74166D01*
X73583Y31166D01*
X27667Y63749D02*
Y63166D01*
X28834Y62000D01*
X30000Y63166D01*
Y63749D01*
X28834Y62000D02*
Y60251D01*
X31166D02*
X32333D01*
X31749D01*
Y63749D01*
X31166Y63166D01*
X69084Y71749D02*
Y68834D01*
X69667Y68251D01*
X70834D01*
X71417Y68834D01*
Y71749D01*
X72583Y71166D02*
X73166Y71749D01*
X74333D01*
X74916Y71166D01*
Y70583D01*
X74333Y70000D01*
X73749D01*
X74333D01*
X74916Y69417D01*
Y68834D01*
X74333Y68251D01*
X73166D01*
X72583Y68834D01*
X91251Y43084D02*
X94166D01*
X94749Y43667D01*
Y44834D01*
X94166Y45417D01*
X91251D01*
X94749Y48916D02*
Y46583D01*
X92417Y48916D01*
X91834D01*
X91251Y48333D01*
Y47166D01*
X91834Y46583D01*
X135251Y37667D02*
X138166D01*
X138749Y38251D01*
Y39417D01*
X138166Y40000D01*
X135251D01*
X138749Y41166D02*
Y42333D01*
Y41749D01*
X135251D01*
X135834Y41166D01*
X61084Y75251D02*
Y78749D01*
X62834D01*
X63417Y78166D01*
Y77000D01*
X62834Y76417D01*
X61084D01*
X62251D02*
X63417Y75251D01*
X66916D02*
X64583D01*
X66916Y77583D01*
Y78166D01*
X66333Y78749D01*
X65166D01*
X64583Y78166D01*
X160667Y67251D02*
Y70749D01*
X162417D01*
X163000Y70166D01*
Y69000D01*
X162417Y68417D01*
X160667D01*
X161834D02*
X163000Y67251D01*
X164166D02*
X165333D01*
X164749D01*
Y70749D01*
X164166Y70166D01*
X19667Y24251D02*
Y27749D01*
X21417D01*
X22000Y27166D01*
Y26000D01*
X21417Y25417D01*
X19667D01*
X23166Y24251D02*
X24333D01*
X23749D01*
Y27749D01*
X23166Y27166D01*
X35168Y85749D02*
Y82251D01*
X37501D01*
X41000Y85749D02*
X38667D01*
Y82251D01*
X41000D01*
X38667Y84000D02*
X39834D01*
X42166Y85749D02*
Y82251D01*
X43916D01*
X44499Y82834D01*
Y85166D01*
X43916Y85749D01*
X42166D01*
X45665Y82251D02*
X46832D01*
X46248D01*
Y85749D01*
X45665Y85166D01*
X6667Y46749D02*
Y43251D01*
X9000D01*
X10166D02*
X11333D01*
X10749D01*
Y46749D01*
X10166Y46166D01*
X147417Y78749D02*
X146251D01*
X146834D01*
Y75834D01*
X146251Y75251D01*
X145667D01*
X145084Y75834D01*
X150916Y75251D02*
X148583D01*
X150916Y77583D01*
Y78166D01*
X150333Y78749D01*
X149166D01*
X148583Y78166D01*
X82000Y84749D02*
X80834D01*
X81417D01*
Y81834D01*
X80834Y81251D01*
X80251D01*
X79667Y81834D01*
X83166Y81251D02*
X84333D01*
X83749D01*
Y84749D01*
X83166Y84166D01*
X131417Y48166D02*
X130834Y48749D01*
X129667D01*
X129084Y48166D01*
Y45834D01*
X129667Y45251D01*
X130834D01*
X131417Y45834D01*
X132583D02*
X133166Y45251D01*
X134333D01*
X134916Y45834D01*
Y48166D01*
X134333Y48749D01*
X133166D01*
X132583Y48166D01*
Y47583D01*
X133166Y47000D01*
X134916D01*
X131417Y67166D02*
X130834Y67749D01*
X129667D01*
X129084Y67166D01*
Y64834D01*
X129667Y64251D01*
X130834D01*
X131417Y64834D01*
X132583Y67166D02*
X133166Y67749D01*
X134333D01*
X134916Y67166D01*
Y66583D01*
X134333Y66000D01*
X134916Y65417D01*
Y64834D01*
X134333Y64251D01*
X133166D01*
X132583Y64834D01*
Y65417D01*
X133166Y66000D01*
X132583Y66583D01*
Y67166D01*
X133166Y66000D02*
X134333D01*
X5417Y69166D02*
X4834Y69749D01*
X3667D01*
X3084Y69166D01*
Y66834D01*
X3667Y66251D01*
X4834D01*
X5417Y66834D01*
X6583Y69749D02*
X8916D01*
Y69166D01*
X6583Y66834D01*
Y66251D01*
X5417Y54166D02*
X4834Y54749D01*
X3667D01*
X3084Y54166D01*
Y51834D01*
X3667Y51251D01*
X4834D01*
X5417Y51834D01*
X8916Y54749D02*
X7749Y54166D01*
X6583Y53000D01*
Y51834D01*
X7166Y51251D01*
X8333D01*
X8916Y51834D01*
Y52417D01*
X8333Y53000D01*
X6583D01*
X26417Y79166D02*
X25834Y79749D01*
X24667D01*
X24084Y79166D01*
Y76834D01*
X24667Y76251D01*
X25834D01*
X26417Y76834D01*
X29916Y79749D02*
X27583D01*
Y78000D01*
X28749Y78583D01*
X29333D01*
X29916Y78000D01*
Y76834D01*
X29333Y76251D01*
X28166D01*
X27583Y76834D01*
X71417Y38166D02*
X70834Y38749D01*
X69667D01*
X69084Y38166D01*
Y35834D01*
X69667Y35251D01*
X70834D01*
X71417Y35834D01*
X74333Y35251D02*
Y38749D01*
X72583Y37000D01*
X74916D01*
X29417Y46166D02*
X28834Y46749D01*
X27667D01*
X27084Y46166D01*
Y43834D01*
X27667Y43251D01*
X28834D01*
X29417Y43834D01*
X30583Y46166D02*
X31166Y46749D01*
X32333D01*
X32916Y46166D01*
Y45583D01*
X32333Y45000D01*
X31749D01*
X32333D01*
X32916Y44417D01*
Y43834D01*
X32333Y43251D01*
X31166D01*
X30583Y43834D01*
X18417Y46166D02*
X17834Y46749D01*
X16667D01*
X16084Y46166D01*
Y43834D01*
X16667Y43251D01*
X17834D01*
X18417Y43834D01*
X21916Y43251D02*
X19583D01*
X21916Y45583D01*
Y46166D01*
X21333Y46749D01*
X20166D01*
X19583Y46166D01*
X157000Y26166D02*
X156417Y26749D01*
X155251D01*
X154667Y26166D01*
Y23834D01*
X155251Y23251D01*
X156417D01*
X157000Y23834D01*
X158166Y23251D02*
X159333D01*
X158749D01*
Y26749D01*
X158166Y26166D01*
M02*
