G04*
G04 #@! TF.GenerationSoftware,Altium Limited,Altium Designer,21.2.2 (38)*
G04*
G04 Layer_Color=16711935*
%FSLAX25Y25*%
%MOIN*%
G70*
G04*
G04 #@! TF.SameCoordinates,6DF736DA-586D-4ED0-A9E8-28D565D663F1*
G04*
G04*
G04 #@! TF.FilePolarity,Positive*
G04*
G01*
G75*
%ADD11C,0.00787*%
D11*
X110Y9913D02*
X158Y8933D01*
X302Y7963D01*
X541Y7011D01*
X871Y6087D01*
X1291Y5199D01*
X1795Y4358D01*
X2380Y3570D01*
X3039Y2842D01*
X3766Y2183D01*
X4555Y1599D01*
X5396Y1094D01*
X6283Y675D01*
X7207Y344D01*
X8159Y106D01*
X9130Y-38D01*
X10110Y-87D01*
Y99992D02*
X9130Y99944D01*
X8159Y99800D01*
X7207Y99562D01*
X6283Y99231D01*
X5396Y98811D01*
X4555Y98307D01*
X3766Y97722D01*
X3039Y97063D01*
X2380Y96336D01*
X1795Y95548D01*
X1291Y94706D01*
X871Y93819D01*
X541Y92895D01*
X302Y91943D01*
X158Y90972D01*
X110Y89992D01*
X173906D02*
X173857Y90972D01*
X173713Y91943D01*
X173475Y92895D01*
X173144Y93819D01*
X172725Y94706D01*
X172220Y95548D01*
X171636Y96336D01*
X170977Y97063D01*
X170249Y97722D01*
X169461Y98307D01*
X168620Y98811D01*
X167732Y99231D01*
X166808Y99562D01*
X165856Y99800D01*
X164886Y99944D01*
X163906Y99992D01*
Y-87D02*
X164886Y-38D01*
X165856Y106D01*
X166808Y344D01*
X167732Y675D01*
X168620Y1094D01*
X169461Y1599D01*
X170249Y2183D01*
X170977Y2842D01*
X171636Y3570D01*
X172220Y4358D01*
X172725Y5199D01*
X173144Y6087D01*
X173475Y7011D01*
X173713Y7963D01*
X173857Y8933D01*
X173906Y9913D01*
X110D02*
Y89992D01*
X10110Y99992D02*
X163906D01*
X173906Y9913D02*
Y89992D01*
X10110Y-87D02*
X163906D01*
M02*
