G04*
G04 #@! TF.GenerationSoftware,Altium Limited,Altium Designer,21.2.2 (38)*
G04*
G04 Layer_Color=16711935*
%FSLAX25Y25*%
%MOIN*%
G70*
G04*
G04 #@! TF.SameCoordinates,6DF736DA-586D-4ED0-A9E8-28D565D663F1*
G04*
G04*
G04 #@! TF.FilePolarity,Negative*
G04*
G01*
G75*
G04:AMPARAMS|DCode=34|XSize=74.93mil|YSize=86.74mil|CornerRadius=20.73mil|HoleSize=0mil|Usage=FLASHONLY|Rotation=180.000|XOffset=0mil|YOffset=0mil|HoleType=Round|Shape=RoundedRectangle|*
%AMROUNDEDRECTD34*
21,1,0.07493,0.04528,0,0,180.0*
21,1,0.03347,0.08674,0,0,180.0*
1,1,0.04146,-0.01673,0.02264*
1,1,0.04146,0.01673,0.02264*
1,1,0.04146,0.01673,-0.02264*
1,1,0.04146,-0.01673,-0.02264*
%
%ADD34ROUNDEDRECTD34*%
%ADD35O,0.07493X0.08674*%
%ADD36C,0.06706*%
%ADD37R,0.06706X0.06706*%
%ADD38C,0.24422*%
%ADD39C,0.03556*%
D34*
X141685Y12000D02*
D03*
X56000D02*
D03*
X102315Y89000D02*
D03*
X98843Y12000D02*
D03*
D35*
X131843D02*
D03*
X122000D02*
D03*
X46158D02*
D03*
X36315D02*
D03*
X131843Y89000D02*
D03*
X122000D02*
D03*
X112157D02*
D03*
X79158Y12000D02*
D03*
X89000D02*
D03*
D36*
X40000Y93000D02*
D03*
X50000D02*
D03*
X60000D02*
D03*
X70000D02*
D03*
D37*
X80000D02*
D03*
D38*
X12000Y12500D02*
D03*
X162000Y88000D02*
D03*
D39*
X77736Y45357D02*
D03*
X33000Y84000D02*
D03*
X82000Y31000D02*
D03*
X24000Y46000D02*
D03*
X136543Y32591D02*
D03*
X107016Y52276D02*
D03*
X116858Y32591D02*
D03*
X97173Y71961D02*
D03*
Y32591D02*
D03*
X38118D02*
D03*
X28276Y12905D02*
D03*
X45000Y54000D02*
D03*
X83000Y59000D02*
D03*
X160000Y30000D02*
D03*
M02*
