G04*
G04 #@! TF.GenerationSoftware,Altium Limited,Altium Designer,20.2.4 (192)*
G04*
G04 Layer_Color=16711935*
%FSLAX25Y25*%
%MOIN*%
G70*
G04*
G04 #@! TF.SameCoordinates,55D3972F-6CA8-4F6D-9BD0-9A26AD12B5B1*
G04*
G04*
G04 #@! TF.FilePolarity,Positive*
G04*
G01*
G75*
%ADD56C,0.00394*%
%ADD57R,0.11220X0.02515*%
D56*
X398654Y340449D02*
X398390Y341433D01*
X397669Y342154D01*
X396685Y342417D01*
X395701Y342154D01*
X394980Y341433D01*
X394717Y340449D01*
X394980Y339465D01*
X395701Y338744D01*
X396685Y338480D01*
X397669Y338744D01*
X398390Y339465D01*
X398654Y340449D01*
X424850Y305504D02*
Y318496D01*
X431150Y305504D02*
Y318496D01*
X424850Y305504D02*
X431150D01*
X424850Y318496D02*
X431150D01*
X345425Y324398D02*
X348575D01*
X345425Y318098D02*
X348575D01*
Y324398D01*
X345425Y318098D02*
Y324398D01*
X361150Y338425D02*
Y341575D01*
X354850Y338425D02*
Y341575D01*
Y338425D02*
X361150D01*
X354850Y341575D02*
X361150D01*
X380295Y313638D02*
Y318362D01*
X372421Y313638D02*
Y318362D01*
Y313638D02*
X380295D01*
X372421Y318362D02*
X380295D01*
X370425Y327098D02*
X373575D01*
X370425Y333398D02*
X373575D01*
X370425Y327098D02*
Y333398D01*
X373575Y327098D02*
Y333398D01*
X373063Y305638D02*
Y310362D01*
X380937Y305638D02*
Y310362D01*
X373063D02*
X380937D01*
X373063Y305638D02*
X380937D01*
X379638Y326421D02*
X384362D01*
X379638Y334295D02*
X384362D01*
X379638Y326421D02*
Y334295D01*
X384362Y326421D02*
Y334295D01*
X379638Y347579D02*
X384362D01*
X379638Y339705D02*
X384362D01*
Y347579D01*
X379638Y339705D02*
Y347579D01*
X389602Y298929D02*
Y302079D01*
X395902Y298929D02*
Y302079D01*
X389602D02*
X395902D01*
X389602Y298929D02*
X395902D01*
X389850Y307575D02*
X396150D01*
X389850Y304425D02*
X396150D01*
X389850D02*
Y307575D01*
X396150Y304425D02*
Y307575D01*
X389063Y315362D02*
X396937D01*
X389063Y310638D02*
X396937D01*
X389063D02*
Y315362D01*
X396937Y310638D02*
Y315362D01*
X387638Y349421D02*
Y357295D01*
X392362Y349421D02*
Y357295D01*
X387638Y349421D02*
X392362D01*
X387638Y357295D02*
X392362D01*
X393142Y318008D02*
X410858D01*
X393142Y343992D02*
X410858D01*
Y318008D02*
Y343992D01*
X393142Y318008D02*
Y343992D01*
X408421Y302638D02*
X416295D01*
X408421Y307362D02*
X416295D01*
Y302638D02*
Y307362D01*
X408421Y302638D02*
Y307362D01*
X413421Y353362D02*
X421295D01*
X413421Y348638D02*
X421295D01*
X413421D02*
Y353362D01*
X421295Y348638D02*
Y353362D01*
X425390Y332650D02*
X436610D01*
X425390Y351350D02*
X436610D01*
X425390Y332650D02*
Y351350D01*
X436610Y332650D02*
Y351350D01*
X345425Y333602D02*
X348575D01*
X345425Y339902D02*
X348575D01*
X345425Y333602D02*
Y339902D01*
X348575Y333602D02*
Y339902D01*
X441787Y311787D02*
Y360213D01*
X490213Y311787D02*
Y360213D01*
X441787Y311787D02*
X490213D01*
X441787Y360213D02*
X490213D01*
X444850Y303425D02*
X451150D01*
X444850Y306575D02*
X451150D01*
Y303425D02*
Y306575D01*
X444850Y303425D02*
Y306575D01*
X459850Y303425D02*
X466150D01*
X459850Y306575D02*
X466150D01*
Y303425D02*
Y306575D01*
X459850Y303425D02*
Y306575D01*
X477850Y303425D02*
X484150D01*
X477850Y306575D02*
X484150D01*
Y303425D02*
Y306575D01*
X477850Y303425D02*
Y306575D01*
D57*
X431000Y350093D02*
D03*
M02*
