G04*
G04 #@! TF.GenerationSoftware,Altium Limited,Altium Designer,20.2.4 (192)*
G04*
G04 Layer_Color=8388736*
%FSLAX25Y25*%
%MOIN*%
G70*
G04*
G04 #@! TF.SameCoordinates,55D3972F-6CA8-4F6D-9BD0-9A26AD12B5B1*
G04*
G04*
G04 #@! TF.FilePolarity,Negative*
G04*
G01*
G75*
%ADD24R,0.01000X0.01000*%
%ADD26R,0.07690X0.05131*%
G04:AMPARAMS|DCode=27|XSize=47.37mil|YSize=47.37mil|CornerRadius=13.84mil|HoleSize=0mil|Usage=FLASHONLY|Rotation=90.000|XOffset=0mil|YOffset=0mil|HoleType=Round|Shape=RoundedRectangle|*
%AMROUNDEDRECTD27*
21,1,0.04737,0.01968,0,0,90.0*
21,1,0.01968,0.04737,0,0,90.0*
1,1,0.02769,0.00984,0.00984*
1,1,0.02769,0.00984,-0.00984*
1,1,0.02769,-0.00984,-0.00984*
1,1,0.02769,-0.00984,0.00984*
%
%ADD27ROUNDEDRECTD27*%
%ADD28R,0.04147X0.03556*%
%ADD29R,0.03556X0.04147*%
%ADD30R,0.04737X0.06115*%
%ADD31R,0.03753X0.05721*%
%ADD32R,0.06115X0.04737*%
%ADD33R,0.13202X0.18517*%
%ADD34O,0.06312X0.02572*%
%ADD35R,0.07099X0.10642*%
%ADD36R,0.20879X0.16548*%
%ADD37C,0.10642*%
%ADD38O,0.07493X0.08674*%
G04:AMPARAMS|DCode=39|XSize=74.93mil|YSize=86.74mil|CornerRadius=20.73mil|HoleSize=0mil|Usage=FLASHONLY|Rotation=0.000|XOffset=0mil|YOffset=0mil|HoleType=Round|Shape=RoundedRectangle|*
%AMROUNDEDRECTD39*
21,1,0.07493,0.04528,0,0,0.0*
21,1,0.03347,0.08674,0,0,0.0*
1,1,0.04146,0.01673,-0.02264*
1,1,0.04146,-0.01673,-0.02264*
1,1,0.04146,-0.01673,0.02264*
1,1,0.04146,0.01673,0.02264*
%
%ADD39ROUNDEDRECTD39*%
%ADD40C,0.24422*%
%ADD41C,0.04343*%
%ADD42C,0.05800*%
%ADD43C,0.02769*%
D24*
X357000Y330500D02*
D03*
Y329000D02*
D03*
X359000Y330500D02*
D03*
Y329000D02*
D03*
X480000Y298500D02*
D03*
Y300000D02*
D03*
X482000Y298500D02*
D03*
Y300000D02*
D03*
D26*
X428000Y305996D02*
D03*
Y318004D02*
D03*
D27*
X445000Y292000D02*
D03*
X439000Y364000D02*
D03*
X437000Y311000D02*
D03*
X364000Y348000D02*
D03*
D28*
X347000Y324496D02*
D03*
Y318000D02*
D03*
X372000Y327000D02*
D03*
Y333496D02*
D03*
X347000Y333504D02*
D03*
Y340000D02*
D03*
D29*
X361248D02*
D03*
X354752D02*
D03*
X389504Y300504D02*
D03*
X396000D02*
D03*
X389752Y306000D02*
D03*
X396248D02*
D03*
X451248Y305000D02*
D03*
X444752D02*
D03*
X459752D02*
D03*
X466248D02*
D03*
X484248Y305000D02*
D03*
X477752D02*
D03*
D30*
X380000Y316000D02*
D03*
X372716D02*
D03*
X389358Y313000D02*
D03*
X396642D02*
D03*
X416000Y305000D02*
D03*
X408717D02*
D03*
X413717Y351000D02*
D03*
X421000D02*
D03*
D31*
X373063Y308000D02*
D03*
X380937D02*
D03*
D32*
X382000Y326716D02*
D03*
Y334000D02*
D03*
Y347284D02*
D03*
Y340000D02*
D03*
X390000Y349716D02*
D03*
Y357000D02*
D03*
D33*
X402000Y331000D02*
D03*
D34*
X413614Y319484D02*
D03*
Y322043D02*
D03*
Y324602D02*
D03*
Y327162D02*
D03*
Y329721D02*
D03*
Y332280D02*
D03*
Y334839D02*
D03*
Y337398D02*
D03*
Y339957D02*
D03*
Y342516D02*
D03*
X390386Y319484D02*
D03*
Y322043D02*
D03*
Y324602D02*
D03*
Y327162D02*
D03*
Y329721D02*
D03*
Y332280D02*
D03*
Y334839D02*
D03*
Y337398D02*
D03*
Y339957D02*
D03*
Y342516D02*
D03*
D35*
X431000Y335701D02*
D03*
Y348299D02*
D03*
D36*
X466000Y317299D02*
D03*
Y354701D02*
D03*
D37*
X484512Y404000D02*
D03*
X514000D02*
D03*
X484512Y384315D02*
D03*
X514000D02*
D03*
X341512Y402000D02*
D03*
X371000D02*
D03*
X341512Y382315D02*
D03*
X371000D02*
D03*
X345000Y258000D02*
D03*
X315512D02*
D03*
X345000Y277685D02*
D03*
X315512D02*
D03*
X411512Y403685D02*
D03*
X441000D02*
D03*
X411512Y384000D02*
D03*
X441000D02*
D03*
X408000Y257000D02*
D03*
X378512D02*
D03*
X408000Y276685D02*
D03*
X378512D02*
D03*
X316614Y355150D02*
D03*
X330000D02*
D03*
X316614Y302000D02*
D03*
X330000D02*
D03*
X500614Y305000D02*
D03*
X514000D02*
D03*
X500614Y358150D02*
D03*
X514000D02*
D03*
D38*
X468000Y264000D02*
D03*
X458157D02*
D03*
X448315D02*
D03*
X534843D02*
D03*
X525000D02*
D03*
X515158D02*
D03*
D39*
X438472D02*
D03*
X505315D02*
D03*
D40*
X533500Y401500D02*
D03*
X320000Y401000D02*
D03*
D41*
X368000Y266000D02*
D03*
X437000Y292000D02*
D03*
X525000Y380000D02*
D03*
X356000Y398000D02*
D03*
X499000Y399000D02*
D03*
X471000D02*
D03*
X385000D02*
D03*
X320277Y379047D02*
D03*
X312943Y342064D02*
D03*
X402000Y332000D02*
D03*
X342000Y303000D02*
D03*
X541500Y380000D02*
D03*
X532000Y361000D02*
D03*
X541500Y342000D02*
D03*
X532000Y323000D02*
D03*
X541500Y304000D02*
D03*
X532000Y247000D02*
D03*
X513000Y323000D02*
D03*
Y285000D02*
D03*
Y247000D02*
D03*
X503500Y342000D02*
D03*
X494000Y323000D02*
D03*
Y285000D02*
D03*
Y247000D02*
D03*
X484500Y342000D02*
D03*
Y266000D02*
D03*
X475000Y247000D02*
D03*
X456000Y399000D02*
D03*
X465500Y380000D02*
D03*
Y342000D02*
D03*
X456000Y285000D02*
D03*
Y247000D02*
D03*
X446500Y342000D02*
D03*
X437000Y323000D02*
D03*
Y247000D02*
D03*
X427500Y380000D02*
D03*
X418000Y361000D02*
D03*
Y247000D02*
D03*
X399000Y399000D02*
D03*
Y361000D02*
D03*
Y247000D02*
D03*
X389500Y380000D02*
D03*
X380000Y361000D02*
D03*
X389500Y266000D02*
D03*
X380000Y247000D02*
D03*
X361000Y361000D02*
D03*
Y285000D02*
D03*
Y247000D02*
D03*
X342000Y361000D02*
D03*
Y247000D02*
D03*
X332500Y342000D02*
D03*
X323000Y323000D02*
D03*
X332500Y266000D02*
D03*
X323000Y247000D02*
D03*
D42*
X367000Y308000D02*
D03*
X535000Y281000D02*
D03*
X459752Y292248D02*
D03*
D43*
X397669Y337496D02*
D03*
X406331Y324504D02*
D03*
X397669D02*
D03*
X406331Y337496D02*
D03*
M02*
