G04*
G04 #@! TF.GenerationSoftware,Altium Limited,Altium Designer,20.2.4 (192)*
G04*
G04 Layer_Physical_Order=2*
G04 Layer_Color=16711680*
%FSLAX25Y25*%
%MOIN*%
G70*
G04*
G04 #@! TF.SameCoordinates,55D3972F-6CA8-4F6D-9BD0-9A26AD12B5B1*
G04*
G04*
G04 #@! TF.FilePolarity,Positive*
G04*
G01*
G75*
%ADD12C,0.01000*%
%ADD49C,0.09843*%
%ADD50O,0.06693X0.07874*%
G04:AMPARAMS|DCode=51|XSize=66.93mil|YSize=78.74mil|CornerRadius=16.73mil|HoleSize=0mil|Usage=FLASHONLY|Rotation=0.000|XOffset=0mil|YOffset=0mil|HoleType=Round|Shape=RoundedRectangle|*
%AMROUNDEDRECTD51*
21,1,0.06693,0.04528,0,0,0.0*
21,1,0.03347,0.07874,0,0,0.0*
1,1,0.03346,0.01673,-0.02264*
1,1,0.03346,-0.01673,-0.02264*
1,1,0.03346,-0.01673,0.02264*
1,1,0.03346,0.01673,0.02264*
%
%ADD51ROUNDEDRECTD51*%
%ADD52C,0.23622*%
%ADD53C,0.03543*%
%ADD54C,0.05000*%
%ADD55C,0.01968*%
G36*
X547000Y242000D02*
X305000D01*
Y415000D01*
X547000D01*
Y242000D01*
D02*
G37*
%LPC*%
G36*
X514000Y409950D02*
X512839Y409836D01*
X511723Y409497D01*
X510694Y408947D01*
X509793Y408207D01*
X509053Y407306D01*
X508503Y406277D01*
X508164Y405161D01*
X508050Y404000D01*
X508164Y402839D01*
X508503Y401723D01*
X509053Y400694D01*
X509793Y399793D01*
X510694Y399053D01*
X511723Y398503D01*
X512839Y398164D01*
X514000Y398050D01*
X515161Y398164D01*
X516277Y398503D01*
X517306Y399053D01*
X518207Y399793D01*
X518947Y400694D01*
X519497Y401723D01*
X519836Y402839D01*
X519950Y404000D01*
X519836Y405161D01*
X519497Y406277D01*
X518947Y407306D01*
X518207Y408207D01*
X517306Y408947D01*
X516277Y409497D01*
X515161Y409836D01*
X514000Y409950D01*
D02*
G37*
G36*
X484512D02*
X483351Y409836D01*
X482235Y409497D01*
X481206Y408947D01*
X480305Y408207D01*
X479565Y407306D01*
X479015Y406277D01*
X478676Y405161D01*
X478562Y404000D01*
X478676Y402839D01*
X479015Y401723D01*
X479565Y400694D01*
X480305Y399793D01*
X481206Y399053D01*
X482235Y398503D01*
X483351Y398164D01*
X484512Y398050D01*
X485673Y398164D01*
X486789Y398503D01*
X487817Y399053D01*
X488719Y399793D01*
X489459Y400694D01*
X490009Y401723D01*
X490347Y402839D01*
X490462Y404000D01*
X490347Y405161D01*
X490009Y406277D01*
X489459Y407306D01*
X488719Y408207D01*
X487817Y408947D01*
X486789Y409497D01*
X485673Y409836D01*
X484512Y409950D01*
D02*
G37*
G36*
X371000Y407950D02*
X369839Y407836D01*
X368723Y407497D01*
X367694Y406947D01*
X366793Y406207D01*
X366053Y405306D01*
X365503Y404277D01*
X365164Y403161D01*
X365050Y402000D01*
X365164Y400839D01*
X365503Y399723D01*
X366053Y398694D01*
X366793Y397793D01*
X367694Y397053D01*
X368723Y396503D01*
X369839Y396164D01*
X371000Y396050D01*
X372161Y396164D01*
X373277Y396503D01*
X374306Y397053D01*
X375207Y397793D01*
X375947Y398694D01*
X376497Y399723D01*
X376836Y400839D01*
X376950Y402000D01*
X376836Y403161D01*
X376497Y404277D01*
X375947Y405306D01*
X375207Y406207D01*
X374306Y406947D01*
X373277Y407497D01*
X372161Y407836D01*
X371000Y407950D01*
D02*
G37*
G36*
X341512D02*
X340351Y407836D01*
X339235Y407497D01*
X338206Y406947D01*
X337305Y406207D01*
X336565Y405306D01*
X336015Y404277D01*
X335676Y403161D01*
X335562Y402000D01*
X335676Y400839D01*
X336015Y399723D01*
X336565Y398694D01*
X337305Y397793D01*
X338206Y397053D01*
X339235Y396503D01*
X340351Y396164D01*
X341512Y396050D01*
X342673Y396164D01*
X343789Y396503D01*
X344817Y397053D01*
X345719Y397793D01*
X346459Y398694D01*
X347009Y399723D01*
X347347Y400839D01*
X347462Y402000D01*
X347347Y403161D01*
X347009Y404277D01*
X346459Y405306D01*
X345719Y406207D01*
X344817Y406947D01*
X343789Y407497D01*
X342673Y407836D01*
X341512Y407950D01*
D02*
G37*
G36*
X514000Y390265D02*
X512839Y390151D01*
X511723Y389812D01*
X510694Y389262D01*
X509793Y388522D01*
X509053Y387621D01*
X508503Y386592D01*
X508164Y385476D01*
X508050Y384315D01*
X508164Y383154D01*
X508503Y382038D01*
X509053Y381009D01*
X509793Y380108D01*
X510694Y379368D01*
X511723Y378818D01*
X512839Y378479D01*
X514000Y378365D01*
X515161Y378479D01*
X516277Y378818D01*
X517306Y379368D01*
X518207Y380108D01*
X518947Y381009D01*
X519497Y382038D01*
X519836Y383154D01*
X519950Y384315D01*
X519836Y385476D01*
X519497Y386592D01*
X518947Y387621D01*
X518207Y388522D01*
X517306Y389262D01*
X516277Y389812D01*
X515161Y390151D01*
X514000Y390265D01*
D02*
G37*
G36*
X484512D02*
X483351Y390151D01*
X482235Y389812D01*
X481206Y389262D01*
X480305Y388522D01*
X479565Y387621D01*
X479015Y386592D01*
X478676Y385476D01*
X478562Y384315D01*
X478676Y383154D01*
X479015Y382038D01*
X479565Y381009D01*
X480305Y380108D01*
X481206Y379368D01*
X482235Y378818D01*
X483351Y378479D01*
X484512Y378365D01*
X485673Y378479D01*
X486789Y378818D01*
X487817Y379368D01*
X488719Y380108D01*
X489459Y381009D01*
X490009Y382038D01*
X490347Y383154D01*
X490462Y384315D01*
X490347Y385476D01*
X490009Y386592D01*
X489459Y387621D01*
X488719Y388522D01*
X487817Y389262D01*
X486789Y389812D01*
X485673Y390151D01*
X484512Y390265D01*
D02*
G37*
G36*
X371000Y388265D02*
X369839Y388151D01*
X368723Y387812D01*
X367694Y387262D01*
X366793Y386522D01*
X366053Y385621D01*
X365503Y384592D01*
X365164Y383476D01*
X365050Y382315D01*
X365164Y381154D01*
X365503Y380038D01*
X366053Y379009D01*
X366793Y378108D01*
X367694Y377368D01*
X368723Y376818D01*
X369839Y376479D01*
X371000Y376365D01*
X372161Y376479D01*
X373277Y376818D01*
X374306Y377368D01*
X375207Y378108D01*
X375947Y379009D01*
X376497Y380038D01*
X376836Y381154D01*
X376950Y382315D01*
X376836Y383476D01*
X376497Y384592D01*
X375947Y385621D01*
X375207Y386522D01*
X374306Y387262D01*
X373277Y387812D01*
X372161Y388151D01*
X371000Y388265D01*
D02*
G37*
G36*
X341512D02*
X340351Y388151D01*
X339235Y387812D01*
X338206Y387262D01*
X337305Y386522D01*
X336565Y385621D01*
X336015Y384592D01*
X335676Y383476D01*
X335562Y382315D01*
X335676Y381154D01*
X336015Y380038D01*
X336565Y379009D01*
X337305Y378108D01*
X338206Y377368D01*
X339235Y376818D01*
X340351Y376479D01*
X341512Y376365D01*
X342673Y376479D01*
X343789Y376818D01*
X344817Y377368D01*
X345719Y378108D01*
X346459Y379009D01*
X347009Y380038D01*
X347347Y381154D01*
X347462Y382315D01*
X347347Y383476D01*
X347009Y384592D01*
X346459Y385621D01*
X345719Y386522D01*
X344817Y387262D01*
X343789Y387812D01*
X342673Y388151D01*
X341512Y388265D01*
D02*
G37*
G36*
X514000Y364100D02*
X512839Y363985D01*
X511723Y363647D01*
X510694Y363097D01*
X509793Y362357D01*
X509053Y361455D01*
X508503Y360426D01*
X508164Y359310D01*
X508050Y358150D01*
X508164Y356989D01*
X508503Y355873D01*
X509053Y354844D01*
X509793Y353942D01*
X510694Y353202D01*
X511723Y352653D01*
X512839Y352314D01*
X514000Y352200D01*
X515161Y352314D01*
X516277Y352653D01*
X517306Y353202D01*
X518207Y353942D01*
X518947Y354844D01*
X519497Y355873D01*
X519836Y356989D01*
X519950Y358150D01*
X519836Y359310D01*
X519497Y360426D01*
X518947Y361455D01*
X518207Y362357D01*
X517306Y363097D01*
X516277Y363647D01*
X515161Y363985D01*
X514000Y364100D01*
D02*
G37*
G36*
X500614D02*
X499453Y363985D01*
X498337Y363647D01*
X497309Y363097D01*
X496407Y362357D01*
X495667Y361455D01*
X495117Y360426D01*
X494779Y359310D01*
X494664Y358150D01*
X494779Y356989D01*
X495117Y355873D01*
X495667Y354844D01*
X496407Y353942D01*
X497309Y353202D01*
X498337Y352653D01*
X499453Y352314D01*
X500614Y352200D01*
X501775Y352314D01*
X502891Y352653D01*
X503920Y353202D01*
X504821Y353942D01*
X505561Y354844D01*
X506111Y355873D01*
X506450Y356989D01*
X506564Y358150D01*
X506450Y359310D01*
X506111Y360426D01*
X505561Y361455D01*
X504821Y362357D01*
X503920Y363097D01*
X502891Y363647D01*
X501775Y363985D01*
X500614Y364100D01*
D02*
G37*
G36*
X330000Y361100D02*
X328839Y360985D01*
X327723Y360647D01*
X326694Y360097D01*
X325793Y359357D01*
X325053Y358455D01*
X324503Y357427D01*
X324164Y356310D01*
X324050Y355150D01*
X324164Y353989D01*
X324503Y352873D01*
X325053Y351844D01*
X325793Y350942D01*
X326694Y350202D01*
X327723Y349653D01*
X328839Y349314D01*
X330000Y349200D01*
X331161Y349314D01*
X332277Y349653D01*
X333306Y350202D01*
X334207Y350942D01*
X334947Y351844D01*
X335497Y352873D01*
X335836Y353989D01*
X335950Y355150D01*
X335836Y356310D01*
X335497Y357427D01*
X334947Y358455D01*
X334207Y359357D01*
X333306Y360097D01*
X332277Y360647D01*
X331161Y360985D01*
X330000Y361100D01*
D02*
G37*
G36*
X316614D02*
X315453Y360985D01*
X314337Y360647D01*
X313309Y360097D01*
X312407Y359357D01*
X311667Y358455D01*
X311117Y357427D01*
X310779Y356310D01*
X310664Y355150D01*
X310779Y353989D01*
X311117Y352873D01*
X311667Y351844D01*
X312407Y350942D01*
X313309Y350202D01*
X314337Y349653D01*
X315453Y349314D01*
X316614Y349200D01*
X317775Y349314D01*
X318891Y349653D01*
X319920Y350202D01*
X320821Y350942D01*
X321561Y351844D01*
X322111Y352873D01*
X322450Y353989D01*
X322564Y355150D01*
X322450Y356310D01*
X322111Y357427D01*
X321561Y358455D01*
X320821Y359357D01*
X319920Y360097D01*
X318891Y360647D01*
X317775Y360985D01*
X316614Y361100D01*
D02*
G37*
G36*
X514000Y310950D02*
X512839Y310836D01*
X511723Y310497D01*
X510694Y309947D01*
X509793Y309207D01*
X509053Y308306D01*
X508503Y307277D01*
X508164Y306161D01*
X508050Y305000D01*
X508164Y303839D01*
X508503Y302723D01*
X509053Y301694D01*
X509793Y300793D01*
X510694Y300053D01*
X511723Y299503D01*
X512839Y299164D01*
X514000Y299050D01*
X515161Y299164D01*
X516277Y299503D01*
X517306Y300053D01*
X518207Y300793D01*
X518947Y301694D01*
X519497Y302723D01*
X519836Y303839D01*
X519950Y305000D01*
X519836Y306161D01*
X519497Y307277D01*
X518947Y308306D01*
X518207Y309207D01*
X517306Y309947D01*
X516277Y310497D01*
X515161Y310836D01*
X514000Y310950D01*
D02*
G37*
G36*
X500614D02*
X499453Y310836D01*
X498337Y310497D01*
X497309Y309947D01*
X496407Y309207D01*
X495667Y308306D01*
X495117Y307277D01*
X494779Y306161D01*
X494664Y305000D01*
X494779Y303839D01*
X495117Y302723D01*
X495667Y301694D01*
X496407Y300793D01*
X497309Y300053D01*
X498337Y299503D01*
X499453Y299164D01*
X500614Y299050D01*
X501775Y299164D01*
X502891Y299503D01*
X503920Y300053D01*
X504821Y300793D01*
X505561Y301694D01*
X506111Y302723D01*
X506450Y303839D01*
X506564Y305000D01*
X506450Y306161D01*
X506111Y307277D01*
X505561Y308306D01*
X504821Y309207D01*
X503920Y309947D01*
X502891Y310497D01*
X501775Y310836D01*
X500614Y310950D01*
D02*
G37*
G36*
X330000Y307950D02*
X328839Y307836D01*
X327723Y307497D01*
X326694Y306947D01*
X325793Y306207D01*
X325053Y305306D01*
X324503Y304277D01*
X324164Y303161D01*
X324050Y302000D01*
X324164Y300839D01*
X324503Y299723D01*
X325053Y298694D01*
X325793Y297793D01*
X326694Y297053D01*
X327723Y296503D01*
X328839Y296164D01*
X330000Y296050D01*
X331161Y296164D01*
X332277Y296503D01*
X333306Y297053D01*
X334207Y297793D01*
X334947Y298694D01*
X335497Y299723D01*
X335836Y300839D01*
X335950Y302000D01*
X335836Y303161D01*
X335497Y304277D01*
X334947Y305306D01*
X334207Y306207D01*
X333306Y306947D01*
X332277Y307497D01*
X331161Y307836D01*
X330000Y307950D01*
D02*
G37*
G36*
X316614D02*
X315453Y307836D01*
X314337Y307497D01*
X313309Y306947D01*
X312407Y306207D01*
X311667Y305306D01*
X311117Y304277D01*
X310779Y303161D01*
X310664Y302000D01*
X310779Y300839D01*
X311117Y299723D01*
X311667Y298694D01*
X312407Y297793D01*
X313309Y297053D01*
X314337Y296503D01*
X315453Y296164D01*
X316614Y296050D01*
X317775Y296164D01*
X318891Y296503D01*
X319920Y297053D01*
X320821Y297793D01*
X321561Y298694D01*
X322111Y299723D01*
X322450Y300839D01*
X322564Y302000D01*
X322450Y303161D01*
X322111Y304277D01*
X321561Y305306D01*
X320821Y306207D01*
X319920Y306947D01*
X318891Y307497D01*
X317775Y307836D01*
X316614Y307950D01*
D02*
G37*
G36*
X459752Y295778D02*
X458838Y295658D01*
X457987Y295305D01*
X457256Y294744D01*
X456695Y294013D01*
X456342Y293162D01*
X456222Y292248D01*
X456342Y291334D01*
X456695Y290483D01*
X457256Y289752D01*
X457987Y289191D01*
X458838Y288838D01*
X459752Y288718D01*
X460666Y288838D01*
X460901Y288936D01*
X469919Y279919D01*
X470415Y279587D01*
X471000Y279471D01*
X531845D01*
X531943Y279235D01*
X532504Y278504D01*
X533235Y277943D01*
X534086Y277590D01*
X535000Y277470D01*
X535914Y277590D01*
X536765Y277943D01*
X537496Y278504D01*
X538057Y279235D01*
X538410Y280086D01*
X538530Y281000D01*
X538410Y281914D01*
X538057Y282765D01*
X537496Y283496D01*
X536765Y284057D01*
X535914Y284410D01*
X535000Y284530D01*
X534086Y284410D01*
X533235Y284057D01*
X532504Y283496D01*
X531943Y282765D01*
X531845Y282529D01*
X471633D01*
X463064Y291099D01*
X463162Y291334D01*
X463282Y292248D01*
X463162Y293162D01*
X462809Y294013D01*
X462248Y294744D01*
X461517Y295305D01*
X460666Y295658D01*
X459752Y295778D01*
D02*
G37*
G36*
X345000Y283635D02*
X343839Y283521D01*
X342723Y283182D01*
X341694Y282632D01*
X340793Y281892D01*
X340053Y280991D01*
X339503Y279962D01*
X339164Y278846D01*
X339050Y277685D01*
X339164Y276524D01*
X339503Y275408D01*
X340053Y274379D01*
X340793Y273478D01*
X341694Y272738D01*
X342723Y272188D01*
X343839Y271849D01*
X345000Y271735D01*
X346161Y271849D01*
X347277Y272188D01*
X348306Y272738D01*
X349207Y273478D01*
X349947Y274379D01*
X350497Y275408D01*
X350836Y276524D01*
X350950Y277685D01*
X350836Y278846D01*
X350497Y279962D01*
X349947Y280991D01*
X349207Y281892D01*
X348306Y282632D01*
X347277Y283182D01*
X346161Y283521D01*
X345000Y283635D01*
D02*
G37*
G36*
X315512D02*
X314351Y283521D01*
X313235Y283182D01*
X312206Y282632D01*
X311305Y281892D01*
X310565Y280991D01*
X310015Y279962D01*
X309676Y278846D01*
X309562Y277685D01*
X309676Y276524D01*
X310015Y275408D01*
X310565Y274379D01*
X311305Y273478D01*
X312206Y272738D01*
X313235Y272188D01*
X314351Y271849D01*
X315512Y271735D01*
X316673Y271849D01*
X317789Y272188D01*
X318817Y272738D01*
X319719Y273478D01*
X320459Y274379D01*
X321009Y275408D01*
X321347Y276524D01*
X321462Y277685D01*
X321347Y278846D01*
X321009Y279962D01*
X320459Y280991D01*
X319719Y281892D01*
X318817Y282632D01*
X317789Y283182D01*
X316673Y283521D01*
X315512Y283635D01*
D02*
G37*
G36*
X506988Y268960D02*
X503642D01*
X502944Y268868D01*
X502294Y268599D01*
X501735Y268170D01*
X501307Y267612D01*
X501037Y266962D01*
X500946Y266264D01*
Y261736D01*
X501037Y261038D01*
X501307Y260388D01*
X501735Y259830D01*
X502294Y259401D01*
X502944Y259132D01*
X503642Y259040D01*
X506988D01*
X507686Y259132D01*
X508336Y259401D01*
X508895Y259830D01*
X509323Y260388D01*
X509593Y261038D01*
X509685Y261736D01*
Y266264D01*
X509593Y266962D01*
X509323Y267612D01*
X508895Y268170D01*
X508336Y268599D01*
X507686Y268868D01*
X506988Y268960D01*
D02*
G37*
G36*
X440146D02*
X436799D01*
X436101Y268868D01*
X435451Y268599D01*
X434893Y268170D01*
X434464Y267612D01*
X434195Y266962D01*
X434103Y266264D01*
Y261736D01*
X434195Y261038D01*
X434464Y260388D01*
X434893Y259830D01*
X435451Y259401D01*
X436101Y259132D01*
X436799Y259040D01*
X440146D01*
X440843Y259132D01*
X441494Y259401D01*
X442052Y259830D01*
X442481Y260388D01*
X442750Y261038D01*
X442842Y261736D01*
Y266264D01*
X442750Y266962D01*
X442481Y267612D01*
X442052Y268170D01*
X441494Y268599D01*
X440843Y268868D01*
X440146Y268960D01*
D02*
G37*
G36*
X534843Y268974D02*
X533708Y268825D01*
X532651Y268387D01*
X531743Y267690D01*
X531046Y266782D01*
X530608Y265725D01*
X530459Y264591D01*
Y263409D01*
X530608Y262275D01*
X531046Y261217D01*
X531743Y260310D01*
X532651Y259613D01*
X533708Y259175D01*
X534843Y259026D01*
X535977Y259175D01*
X537035Y259613D01*
X537943Y260310D01*
X538639Y261217D01*
X539077Y262275D01*
X539227Y263409D01*
Y264591D01*
X539077Y265725D01*
X538639Y266782D01*
X537943Y267690D01*
X537035Y268387D01*
X535977Y268825D01*
X534843Y268974D01*
D02*
G37*
G36*
X515158D02*
X514023Y268825D01*
X512966Y268387D01*
X512058Y267690D01*
X511361Y266782D01*
X510923Y265725D01*
X510774Y264591D01*
Y263409D01*
X510923Y262275D01*
X511361Y261217D01*
X512058Y260310D01*
X512966Y259613D01*
X514023Y259175D01*
X515158Y259026D01*
X516292Y259175D01*
X517350Y259613D01*
X518258Y260310D01*
X518954Y261217D01*
X519392Y262275D01*
X519542Y263409D01*
Y264591D01*
X519392Y265725D01*
X518954Y266782D01*
X518258Y267690D01*
X517350Y268387D01*
X516292Y268825D01*
X515158Y268974D01*
D02*
G37*
G36*
X468000D02*
X466865Y268825D01*
X465808Y268387D01*
X464900Y267690D01*
X464203Y266782D01*
X463765Y265725D01*
X463616Y264591D01*
Y263409D01*
X463765Y262275D01*
X464203Y261217D01*
X464900Y260310D01*
X465808Y259613D01*
X466865Y259175D01*
X468000Y259026D01*
X469135Y259175D01*
X470192Y259613D01*
X471100Y260310D01*
X471797Y261217D01*
X472235Y262275D01*
X472384Y263409D01*
Y264591D01*
X472235Y265725D01*
X471797Y266782D01*
X471100Y267690D01*
X470192Y268387D01*
X469135Y268825D01*
X468000Y268974D01*
D02*
G37*
G36*
X458157D02*
X457023Y268825D01*
X455965Y268387D01*
X455057Y267690D01*
X454361Y266782D01*
X453923Y265725D01*
X453773Y264591D01*
Y263409D01*
X453923Y262275D01*
X454361Y261217D01*
X455057Y260310D01*
X455965Y259613D01*
X457023Y259175D01*
X458157Y259026D01*
X459292Y259175D01*
X460349Y259613D01*
X461257Y260310D01*
X461954Y261217D01*
X462392Y262275D01*
X462541Y263409D01*
Y264591D01*
X462392Y265725D01*
X461954Y266782D01*
X461257Y267690D01*
X460349Y268387D01*
X459292Y268825D01*
X458157Y268974D01*
D02*
G37*
G36*
X448315D02*
X447180Y268825D01*
X446123Y268387D01*
X445215Y267690D01*
X444518Y266782D01*
X444080Y265725D01*
X443931Y264591D01*
Y263409D01*
X444080Y262275D01*
X444518Y261217D01*
X445215Y260310D01*
X446123Y259613D01*
X447180Y259175D01*
X448315Y259026D01*
X449450Y259175D01*
X450507Y259613D01*
X451415Y260310D01*
X452112Y261217D01*
X452550Y262275D01*
X452699Y263409D01*
Y264591D01*
X452550Y265725D01*
X452112Y266782D01*
X451415Y267690D01*
X450507Y268387D01*
X449450Y268825D01*
X448315Y268974D01*
D02*
G37*
G36*
X345000Y263950D02*
X343839Y263836D01*
X342723Y263497D01*
X341694Y262947D01*
X340793Y262207D01*
X340053Y261306D01*
X339503Y260277D01*
X339164Y259161D01*
X339050Y258000D01*
X339164Y256839D01*
X339503Y255723D01*
X340053Y254694D01*
X340793Y253793D01*
X341694Y253053D01*
X342723Y252503D01*
X343839Y252164D01*
X345000Y252050D01*
X346161Y252164D01*
X347277Y252503D01*
X348306Y253053D01*
X349207Y253793D01*
X349947Y254694D01*
X350497Y255723D01*
X350836Y256839D01*
X350950Y258000D01*
X350836Y259161D01*
X350497Y260277D01*
X349947Y261306D01*
X349207Y262207D01*
X348306Y262947D01*
X347277Y263497D01*
X346161Y263836D01*
X345000Y263950D01*
D02*
G37*
G36*
X315512D02*
X314351Y263836D01*
X313235Y263497D01*
X312206Y262947D01*
X311305Y262207D01*
X310565Y261306D01*
X310015Y260277D01*
X309676Y259161D01*
X309562Y258000D01*
X309676Y256839D01*
X310015Y255723D01*
X310565Y254694D01*
X311305Y253793D01*
X312206Y253053D01*
X313235Y252503D01*
X314351Y252164D01*
X315512Y252050D01*
X316673Y252164D01*
X317789Y252503D01*
X318817Y253053D01*
X319719Y253793D01*
X320459Y254694D01*
X321009Y255723D01*
X321347Y256839D01*
X321462Y258000D01*
X321347Y259161D01*
X321009Y260277D01*
X320459Y261306D01*
X319719Y262207D01*
X318817Y262947D01*
X317789Y263497D01*
X316673Y263836D01*
X315512Y263950D01*
D02*
G37*
%LPD*%
D12*
X459752Y292248D02*
X471000Y281000D01*
X535000D01*
D49*
X484512Y404000D02*
D03*
X514000D02*
D03*
X484512Y384315D02*
D03*
X514000D02*
D03*
X341512Y402000D02*
D03*
X371000D02*
D03*
X341512Y382315D02*
D03*
X371000D02*
D03*
X345000Y258000D02*
D03*
X315512D02*
D03*
X345000Y277685D02*
D03*
X315512D02*
D03*
X411512Y403685D02*
D03*
X441000D02*
D03*
X411512Y384000D02*
D03*
X441000D02*
D03*
X408000Y257000D02*
D03*
X378512D02*
D03*
X408000Y276685D02*
D03*
X378512D02*
D03*
X316614Y355150D02*
D03*
X330000D02*
D03*
X316614Y302000D02*
D03*
X330000D02*
D03*
X500614Y305000D02*
D03*
X514000D02*
D03*
X500614Y358150D02*
D03*
X514000D02*
D03*
D50*
X468000Y264000D02*
D03*
X458157D02*
D03*
X448315D02*
D03*
X534843D02*
D03*
X525000D02*
D03*
X515158D02*
D03*
D51*
X438472D02*
D03*
X505315D02*
D03*
D52*
X533500Y401500D02*
D03*
X320000Y401000D02*
D03*
D53*
X368000Y266000D02*
D03*
X437000Y292000D02*
D03*
X525000Y380000D02*
D03*
X356000Y398000D02*
D03*
X499000Y399000D02*
D03*
X471000D02*
D03*
X385000D02*
D03*
X320277Y379047D02*
D03*
X312943Y342064D02*
D03*
X402000Y332000D02*
D03*
X342000Y303000D02*
D03*
X541500Y380000D02*
D03*
X532000Y361000D02*
D03*
X541500Y342000D02*
D03*
X532000Y323000D02*
D03*
X541500Y304000D02*
D03*
X532000Y247000D02*
D03*
X513000Y323000D02*
D03*
Y285000D02*
D03*
Y247000D02*
D03*
X503500Y342000D02*
D03*
X494000Y323000D02*
D03*
Y285000D02*
D03*
Y247000D02*
D03*
X484500Y342000D02*
D03*
Y266000D02*
D03*
X475000Y247000D02*
D03*
X456000Y399000D02*
D03*
X465500Y380000D02*
D03*
Y342000D02*
D03*
X456000Y285000D02*
D03*
Y247000D02*
D03*
X446500Y342000D02*
D03*
X437000Y323000D02*
D03*
Y247000D02*
D03*
X427500Y380000D02*
D03*
X418000Y361000D02*
D03*
Y247000D02*
D03*
X399000Y399000D02*
D03*
Y361000D02*
D03*
Y247000D02*
D03*
X389500Y380000D02*
D03*
X380000Y361000D02*
D03*
X389500Y266000D02*
D03*
X380000Y247000D02*
D03*
X361000Y361000D02*
D03*
Y285000D02*
D03*
Y247000D02*
D03*
X342000Y361000D02*
D03*
Y247000D02*
D03*
X332500Y342000D02*
D03*
X323000Y323000D02*
D03*
X332500Y266000D02*
D03*
X323000Y247000D02*
D03*
D54*
X367000Y308000D02*
D03*
X535000Y281000D02*
D03*
X459752Y292248D02*
D03*
D55*
X397669Y337496D02*
D03*
X406331Y324504D02*
D03*
X397669D02*
D03*
X406331Y337496D02*
D03*
M02*
