M48
;Layer_Color=9474304
;FILE_FORMAT=2:5
INCH,TZ
;TYPE=PLATED
T1F00S00C0.00787
T2F00S00C0.02362
T3F00S00C0.02800
T4F00S00C0.03937
T5F00S00C0.06299
T6F00S00C0.07283
T7F00S00C0.11811
%
T01
X397669Y324504
X406331
Y337496
X397669
T02
X475000Y247000
X494000
X513000
X532000
X513000Y285000
X494000
X484500Y266000
X541500Y304000
X456000Y285000
X437000Y292000
Y247000
X456000
X418000
X399000
X380000
X361000
X342000
X323000
X332500Y266000
X368000
X389500
X361000Y285000
X342000Y303000
X323000Y323000
X332500Y342000
X312943Y342064
X320277Y379047
X342000Y361000
X361000
X380000
X399000
X418000
X427500Y380000
X465500
X456000Y399000
X399000
X385000
X389500Y380000
X356000Y398000
X402000Y332000
X437000Y323000
X446500Y342000
X465500
X484500
X503500
X513000Y323000
X532000
X541500Y342000
X532000Y361000
X525000Y380000
X541500
X499000Y399000
X471000
X494000Y323000
T03
X535000Y281000
X459752Y292248
X367000Y308000
T04
X505315Y264000
X515158
X525000
X534843
X468000
X458157
X448315
X438472
T05
X500614Y305000
X514000
X330000Y302000
X316614
Y355150
X330000
X500614Y358150
X514000
T06
X315512Y258000
Y277685
X345000
Y258000
X378512Y257000
Y276685
X408000
Y257000
X411512Y384000
Y403685
X441000
Y384000
X371000Y382315
Y402000
X341512
Y382315
X484512Y384315
Y404000
X514000
Y384315
T07
X320000Y401000
X533500Y401500
M30
