G04*
G04 #@! TF.GenerationSoftware,Altium Limited,Altium Designer,20.2.4 (192)*
G04*
G04 Layer_Color=8421504*
%FSLAX25Y25*%
%MOIN*%
G70*
G04*
G04 #@! TF.SameCoordinates,55D3972F-6CA8-4F6D-9BD0-9A26AD12B5B1*
G04*
G04*
G04 #@! TF.FilePolarity,Positive*
G04*
G01*
G75*
%ADD14R,0.06890X0.04331*%
G04:AMPARAMS|DCode=15|XSize=39.37mil|YSize=39.37mil|CornerRadius=9.84mil|HoleSize=0mil|Usage=FLASHONLY|Rotation=90.000|XOffset=0mil|YOffset=0mil|HoleType=Round|Shape=RoundedRectangle|*
%AMROUNDEDRECTD15*
21,1,0.03937,0.01968,0,0,90.0*
21,1,0.01968,0.03937,0,0,90.0*
1,1,0.01968,0.00984,0.00984*
1,1,0.01968,0.00984,-0.00984*
1,1,0.01968,-0.00984,-0.00984*
1,1,0.01968,-0.00984,0.00984*
%
%ADD15ROUNDEDRECTD15*%
%ADD16R,0.03347X0.02756*%
%ADD17R,0.02756X0.03347*%
%ADD18R,0.03937X0.05315*%
%ADD19R,0.02953X0.04921*%
%ADD20R,0.05315X0.03937*%
%ADD21R,0.12402X0.17717*%
%ADD22O,0.05512X0.01772*%
%ADD23R,0.06299X0.09843*%
%ADD24R,0.01000X0.01000*%
%ADD25R,0.20079X0.15748*%
D14*
X428000Y305996D02*
D03*
Y318004D02*
D03*
D15*
X445000Y292000D02*
D03*
X439000Y364000D02*
D03*
X437000Y311000D02*
D03*
X364000Y348000D02*
D03*
D16*
X347000Y324496D02*
D03*
Y318000D02*
D03*
X372000Y327000D02*
D03*
Y333496D02*
D03*
X347000Y333504D02*
D03*
Y340000D02*
D03*
D17*
X361248D02*
D03*
X354752D02*
D03*
X389504Y300504D02*
D03*
X396000D02*
D03*
X389752Y306000D02*
D03*
X396248D02*
D03*
X451248Y305000D02*
D03*
X444752D02*
D03*
X459752D02*
D03*
X466248D02*
D03*
X484248Y305000D02*
D03*
X477752D02*
D03*
D18*
X380000Y316000D02*
D03*
X372716D02*
D03*
X389358Y313000D02*
D03*
X396642D02*
D03*
X416000Y305000D02*
D03*
X408717D02*
D03*
X413717Y351000D02*
D03*
X421000D02*
D03*
D19*
X373063Y308000D02*
D03*
X380937D02*
D03*
D20*
X382000Y326716D02*
D03*
Y334000D02*
D03*
Y347284D02*
D03*
Y340000D02*
D03*
X390000Y349716D02*
D03*
Y357000D02*
D03*
D21*
X402000Y331000D02*
D03*
D22*
X413614Y319484D02*
D03*
Y322043D02*
D03*
Y324602D02*
D03*
Y327162D02*
D03*
Y329721D02*
D03*
Y332280D02*
D03*
Y334839D02*
D03*
Y337398D02*
D03*
Y339957D02*
D03*
Y342516D02*
D03*
X390386Y319484D02*
D03*
Y322043D02*
D03*
Y324602D02*
D03*
Y327162D02*
D03*
Y329721D02*
D03*
Y332280D02*
D03*
Y334839D02*
D03*
Y337398D02*
D03*
Y339957D02*
D03*
Y342516D02*
D03*
D23*
X431000Y335701D02*
D03*
Y348299D02*
D03*
D24*
X357000Y330500D02*
D03*
Y329000D02*
D03*
X359000Y330500D02*
D03*
Y329000D02*
D03*
X480000Y298500D02*
D03*
Y300000D02*
D03*
X482000Y298500D02*
D03*
Y300000D02*
D03*
D25*
X466000Y317299D02*
D03*
Y354701D02*
D03*
M02*
