G04*
G04 #@! TF.GenerationSoftware,Altium Limited,Altium Designer,20.1.11 (218)*
G04*
G04 Layer_Color=16711935*
%FSLAX25Y25*%
%MOIN*%
G70*
G04*
G04 #@! TF.SameCoordinates,DDD296A5-092D-4BAE-9FCA-48E2803F740F*
G04*
G04*
G04 #@! TF.FilePolarity,Positive*
G04*
G01*
G75*
%ADD10C,0.00787*%
%ADD11C,0.00394*%
D10*
X2224Y101394D02*
X18370Y91394D01*
X2224Y101394D02*
Y155803D01*
X18370Y165803D01*
X297110Y41787D02*
Y62457D01*
X277425Y41787D02*
X297110D01*
X277425D02*
Y62457D01*
Y169150D02*
Y189819D01*
X297110D01*
Y169150D02*
Y189819D01*
X41205Y169150D02*
Y189819D01*
X21520D02*
X41205D01*
X21520Y169150D02*
Y189819D01*
X41205Y41787D02*
Y62457D01*
X21520Y41787D02*
Y62457D01*
Y41787D02*
X41205D01*
X18370Y62457D02*
Y169150D01*
Y62457D02*
X300260D01*
Y169150D01*
X18370D02*
X300260D01*
D11*
X150354Y43169D02*
Y51831D01*
X144646Y43169D02*
Y51831D01*
X150354D01*
X144646Y43169D02*
X150354D01*
X126669Y33854D02*
X135331D01*
X126669Y28146D02*
X135331D01*
X126669D02*
Y33854D01*
X135331Y28146D02*
Y33854D01*
X157669Y14854D02*
X166331D01*
X157669Y9146D02*
X166331D01*
X157669D02*
Y14854D01*
X166331Y9146D02*
Y14854D01*
X170169D02*
X178831D01*
X170169Y9146D02*
X178831D01*
X170169D02*
Y14854D01*
X178831Y9146D02*
Y14854D01*
X138972Y17701D02*
Y32661D01*
X198028D01*
Y17701D02*
Y32661D01*
X138972Y17701D02*
X198028D01*
M02*
