G04*
G04 #@! TF.GenerationSoftware,Altium Limited,Altium Designer,20.1.11 (218)*
G04*
G04 Layer_Color=32768*
%FSLAX25Y25*%
%MOIN*%
G70*
G04*
G04 #@! TF.SameCoordinates,DDD296A5-092D-4BAE-9FCA-48E2803F740F*
G04*
G04*
G04 #@! TF.FilePolarity,Positive*
G04*
G01*
G75*
%ADD11C,0.00394*%
%ADD27C,0.00197*%
D11*
X145531Y47500D02*
X149469D01*
X147500Y45531D02*
Y49468D01*
X150650Y41988D02*
Y53012D01*
X144350Y41988D02*
Y53012D01*
X150650D01*
X144350Y41988D02*
X150650D01*
X-1772Y37850D02*
Y193756D01*
Y37850D02*
X304197D01*
Y193756D01*
X-1772D02*
X304197D01*
X131000Y29032D02*
Y32969D01*
X129032Y31000D02*
X132968D01*
X125488Y34150D02*
X136512D01*
X125488Y27850D02*
X136512D01*
X125488D02*
Y34150D01*
X136512Y27850D02*
Y34150D01*
X162000Y10031D02*
Y13969D01*
X160031Y12000D02*
X163969D01*
X156488Y15150D02*
X167512D01*
X156488Y8850D02*
X167512D01*
X156488D02*
Y15150D01*
X167512Y8850D02*
Y15150D01*
X174500Y10031D02*
Y13969D01*
X172531Y12000D02*
X176469D01*
X168988Y15150D02*
X180012D01*
X168988Y8850D02*
X180012D01*
X168988D02*
Y15150D01*
X180012Y8850D02*
Y15150D01*
D27*
X137988Y16716D02*
Y33646D01*
X199012D01*
Y16716D02*
Y33646D01*
X137988Y16716D02*
X199012D01*
M02*
