G04*
G04 #@! TF.GenerationSoftware,Altium Limited,Altium Designer,20.1.11 (218)*
G04*
G04 Layer_Color=65535*
%FSLAX25Y25*%
%MOIN*%
G70*
G04*
G04 #@! TF.SameCoordinates,DDD296A5-092D-4BAE-9FCA-48E2803F740F*
G04*
G04*
G04 #@! TF.FilePolarity,Positive*
G04*
G01*
G75*
%ADD10C,0.00787*%
%ADD11C,0.00394*%
%ADD12C,0.01000*%
D10*
X186480Y60882D02*
X187268D01*
X186480D01*
X148815Y17701D02*
X198028D01*
Y32661D01*
X138972D02*
X198028D01*
X138972Y24000D02*
Y32661D01*
D11*
X297110Y169150D02*
Y189819D01*
X277425D02*
X297110D01*
X277425Y169150D02*
Y189819D01*
X297110Y41787D02*
Y62457D01*
X277425Y41787D02*
X297110D01*
X277425D02*
Y62457D01*
X41205Y41787D02*
Y62457D01*
X21520Y41787D02*
X41205D01*
X21520D02*
Y62457D01*
X41205Y169150D02*
Y189819D01*
X21520D02*
X41205D01*
X21520Y168598D02*
Y189819D01*
X2224Y101394D02*
X18370Y91394D01*
X2224Y101394D02*
Y108598D01*
Y118598D02*
Y138598D01*
Y148598D02*
Y155803D01*
X18370Y165803D01*
Y62457D02*
Y169150D01*
X300260D01*
Y62457D02*
Y169150D01*
X18370Y62457D02*
X125559D01*
X194866D02*
X300260D01*
D12*
X181502Y9001D02*
Y14999D01*
X184501D01*
X185500Y13999D01*
Y12000D01*
X184501Y11000D01*
X181502D01*
X183501D02*
X185500Y9001D01*
X191498D02*
X187500D01*
X191498Y13000D01*
Y13999D01*
X190499Y14999D01*
X188499D01*
X187500Y13999D01*
X146501Y9001D02*
Y14999D01*
X149500D01*
X150500Y13999D01*
Y12000D01*
X149500Y11000D01*
X146501D01*
X148501D02*
X150500Y9001D01*
X152499D02*
X154499D01*
X153499D01*
Y14999D01*
X152499Y13999D01*
X205000Y31999D02*
X203001D01*
X204000D01*
Y27001D01*
X203001Y26001D01*
X202001D01*
X201001Y27001D01*
X206999Y26001D02*
X208999D01*
X207999D01*
Y31999D01*
X206999Y30999D01*
X54002Y54999D02*
Y49001D01*
X57001D01*
X58001Y50001D01*
Y53999D01*
X57001Y54999D01*
X54002D01*
X63999Y53999D02*
X62999Y54999D01*
X61000D01*
X60000Y53999D01*
Y53000D01*
X61000Y52000D01*
X62999D01*
X63999Y51000D01*
Y50001D01*
X62999Y49001D01*
X61000D01*
X60000Y50001D01*
X65998Y49001D02*
X67998D01*
X66998D01*
Y54999D01*
X65998Y53999D01*
X117500Y33499D02*
X116501Y34499D01*
X114501D01*
X113502Y33499D01*
Y29501D01*
X114501Y28501D01*
X116501D01*
X117500Y29501D01*
X123498Y28501D02*
X119500D01*
X123498Y32500D01*
Y33499D01*
X122499Y34499D01*
X120499D01*
X119500Y33499D01*
X138500Y49499D02*
X137500Y50499D01*
X135501D01*
X134501Y49499D01*
Y45501D01*
X135501Y44501D01*
X137500D01*
X138500Y45501D01*
X140499Y44501D02*
X142499D01*
X141499D01*
Y50499D01*
X140499Y49499D01*
M02*
