G04*
G04 #@! TF.GenerationSoftware,Altium Limited,Altium Designer,20.2.3 (150)*
G04*
G04 Layer_Color=8421504*
%FSLAX24Y24*%
%MOIN*%
G70*
G04*
G04 #@! TF.SameCoordinates,73A1D647-E0F8-48CE-BBA5-D16C20393ACE*
G04*
G04*
G04 #@! TF.FilePolarity,Positive*
G04*
G01*
G75*
%ADD14R,0.0551X0.0433*%
%ADD15R,0.0689X0.1260*%
%ADD16R,0.0689X0.0374*%
%ADD17R,0.0610X0.0276*%
%ADD18R,0.0433X0.0551*%
%ADD19R,0.0581X0.0236*%
%ADD20R,0.0236X0.0581*%
%ADD21R,0.0945X0.0748*%
D14*
X23962Y24047D02*
D03*
Y24638D02*
D03*
X14198Y23901D02*
D03*
Y24491D02*
D03*
X19813Y23122D02*
D03*
Y23713D02*
D03*
X13320Y24494D02*
D03*
Y23903D02*
D03*
D15*
X20623Y23124D02*
D03*
D16*
X23103Y24030D02*
D03*
Y23124D02*
D03*
Y22219D02*
D03*
D17*
X21225Y20611D02*
D03*
Y20111D02*
D03*
Y19611D02*
D03*
Y19111D02*
D03*
X23370D02*
D03*
Y19611D02*
D03*
Y20111D02*
D03*
Y20611D02*
D03*
D18*
X20498Y19609D02*
D03*
X19908D02*
D03*
X11760Y24003D02*
D03*
X11169D02*
D03*
X11757Y19609D02*
D03*
X11167D02*
D03*
D19*
X13311Y22331D02*
D03*
Y22016D02*
D03*
Y21701D02*
D03*
Y21386D02*
D03*
Y21071D02*
D03*
Y20756D02*
D03*
Y20441D02*
D03*
Y20126D02*
D03*
X16648D02*
D03*
Y20441D02*
D03*
Y20756D02*
D03*
Y21071D02*
D03*
Y21386D02*
D03*
Y21701D02*
D03*
Y22016D02*
D03*
Y22331D02*
D03*
D20*
X13877Y19560D02*
D03*
X14192D02*
D03*
X14507D02*
D03*
X14822D02*
D03*
X15137D02*
D03*
X15452D02*
D03*
X15767D02*
D03*
X16082D02*
D03*
Y22897D02*
D03*
X15767D02*
D03*
X15452D02*
D03*
X15137D02*
D03*
X14822D02*
D03*
X14507D02*
D03*
X14192D02*
D03*
X13877D02*
D03*
D21*
X11611Y21097D02*
D03*
Y22711D02*
D03*
M02*
