G04*
G04 #@! TF.GenerationSoftware,Altium Limited,Altium Designer,20.2.3 (150)*
G04*
G04 Layer_Color=8388736*
%FSLAX24Y24*%
%MOIN*%
G70*
G04*
G04 #@! TF.SameCoordinates,73A1D647-E0F8-48CE-BBA5-D16C20393ACE*
G04*
G04*
G04 #@! TF.FilePolarity,Negative*
G04*
G01*
G75*
%ADD22R,0.0631X0.0513*%
%ADD23R,0.0769X0.1340*%
%ADD24R,0.0769X0.0454*%
%ADD25R,0.0690X0.0356*%
%ADD26R,0.0513X0.0631*%
%ADD27R,0.0661X0.0316*%
%ADD28R,0.0316X0.0661*%
%ADD29R,0.1025X0.0828*%
%ADD30R,0.0730X0.0730*%
%ADD31C,0.0730*%
%ADD32C,0.2442*%
%ADD33C,0.0513*%
%ADD34R,0.0513X0.0513*%
%ADD35R,0.0730X0.0730*%
%ADD36C,0.0580*%
D22*
X23962Y24047D02*
D03*
Y24638D02*
D03*
X14198Y23901D02*
D03*
Y24491D02*
D03*
X19813Y23122D02*
D03*
Y23713D02*
D03*
X13320Y24494D02*
D03*
Y23903D02*
D03*
D23*
X20623Y23124D02*
D03*
D24*
X23103Y24030D02*
D03*
Y23124D02*
D03*
Y22219D02*
D03*
D25*
X21225Y20611D02*
D03*
Y20111D02*
D03*
Y19611D02*
D03*
Y19111D02*
D03*
X23370D02*
D03*
Y19611D02*
D03*
Y20111D02*
D03*
Y20611D02*
D03*
D26*
X20498Y19609D02*
D03*
X19908D02*
D03*
X11760Y24003D02*
D03*
X11169D02*
D03*
X11757Y19609D02*
D03*
X11167D02*
D03*
D27*
X13311Y22331D02*
D03*
Y22016D02*
D03*
Y21701D02*
D03*
Y21386D02*
D03*
Y21071D02*
D03*
Y20756D02*
D03*
Y20441D02*
D03*
Y20126D02*
D03*
X16648D02*
D03*
Y20441D02*
D03*
Y20756D02*
D03*
Y21071D02*
D03*
Y21386D02*
D03*
Y21701D02*
D03*
Y22016D02*
D03*
Y22331D02*
D03*
D28*
X13877Y19560D02*
D03*
X14192D02*
D03*
X14507D02*
D03*
X14822D02*
D03*
X15137D02*
D03*
X15452D02*
D03*
X15767D02*
D03*
X16082D02*
D03*
Y22897D02*
D03*
X15767D02*
D03*
X15452D02*
D03*
X15137D02*
D03*
X14822D02*
D03*
X14507D02*
D03*
X14192D02*
D03*
X13877D02*
D03*
D29*
X11611Y21097D02*
D03*
Y22711D02*
D03*
D30*
X16395Y17909D02*
D03*
D31*
X15411D02*
D03*
X14427D02*
D03*
X24939Y19008D02*
D03*
Y19992D02*
D03*
Y20976D02*
D03*
D32*
X26550Y24255D02*
D03*
X11611Y16688D02*
D03*
D33*
X15895Y24060D02*
D03*
Y24560D02*
D03*
X16395Y24060D02*
D03*
Y24560D02*
D03*
X16895Y24060D02*
D03*
Y24560D02*
D03*
X17395Y24060D02*
D03*
Y24560D02*
D03*
X17895Y24060D02*
D03*
D34*
Y24560D02*
D03*
D35*
X24939Y21961D02*
D03*
D36*
X19227Y20252D02*
D03*
X23572Y21228D02*
D03*
X19569Y22156D02*
D03*
X19666Y21375D02*
D03*
X14980Y23620D02*
D03*
X23376Y18299D02*
D03*
X23962Y23376D02*
D03*
X12783Y18787D02*
D03*
M02*
