G04*
G04 #@! TF.GenerationSoftware,Altium Limited,Altium Designer,20.2.3 (150)*
G04*
G04 Layer_Color=32768*
%FSLAX24Y24*%
%MOIN*%
G70*
G04*
G04 #@! TF.SameCoordinates,73A1D647-E0F8-48CE-BBA5-D16C20393ACE*
G04*
G04*
G04 #@! TF.FilePolarity,Positive*
G04*
G01*
G75*
%ADD12C,0.0039*%
%ADD45C,0.0020*%
D12*
X23647Y23791D02*
X24277D01*
X23647Y24894D02*
X24277D01*
X23647Y23791D02*
Y24894D01*
X24277Y23791D02*
Y24894D01*
X23962Y24146D02*
Y24539D01*
X23765Y24343D02*
X24159D01*
X13883Y23645D02*
X14513D01*
X13883Y24747D02*
X14513D01*
X13883Y23645D02*
Y24747D01*
X14513Y23645D02*
Y24747D01*
X14198Y23999D02*
Y24393D01*
X14002Y24196D02*
X14395D01*
X19498Y22866D02*
X20128D01*
X19498Y23969D02*
X20128D01*
X19498Y22866D02*
Y23969D01*
X20128Y22866D02*
Y23969D01*
X19813Y23220D02*
Y23614D01*
X19616Y23417D02*
X20009D01*
X20754Y19294D02*
Y19924D01*
X19652Y19294D02*
Y19924D01*
Y19294D02*
X20754D01*
X19652Y19924D02*
X20754D01*
X20006Y19609D02*
X20400D01*
X20203Y19413D02*
Y19806D01*
X13123Y24198D02*
X13517D01*
X13320Y24002D02*
Y24395D01*
X13635Y23647D02*
Y24750D01*
X13005Y23647D02*
Y24750D01*
X13635D01*
X13005Y23647D02*
X13635D01*
X11465Y23806D02*
Y24200D01*
X11268Y24003D02*
X11661D01*
X10913Y23688D02*
X12016D01*
X10913Y24318D02*
X12016D01*
Y23688D02*
Y24318D01*
X10913Y23688D02*
Y24318D01*
X10587Y20329D02*
Y23479D01*
X12635D01*
Y20329D02*
Y23479D01*
X10587Y20329D02*
X12635D01*
X11462Y19413D02*
Y19806D01*
X11265Y19609D02*
X11659D01*
X10911Y19294D02*
X12013D01*
X10911Y19924D02*
X12013D01*
Y19294D02*
Y19924D01*
X10911Y19294D02*
Y19924D01*
D45*
X17478Y17180D02*
Y18873D01*
X13344Y17180D02*
X17478D01*
X13344D02*
Y18873D01*
X17478D01*
X15488Y25137D02*
X18303D01*
X15488Y23483D02*
Y25137D01*
Y23483D02*
X18303D01*
Y25137D01*
X23546Y21707D02*
Y24542D01*
X20180D02*
X23546D01*
X20180Y21707D02*
Y24542D01*
Y21707D02*
X23546D01*
X20821Y20944D02*
X23774D01*
Y18779D02*
Y20944D01*
X20821Y18779D02*
X23774D01*
X20821D02*
Y20944D01*
X12922Y23285D02*
X17037D01*
Y19171D02*
Y23285D01*
X12922Y19171D02*
X17037D01*
X12922D02*
Y23285D01*
X23974Y17925D02*
Y23043D01*
Y17925D02*
X25667D01*
Y23043D01*
X23974D02*
X25667D01*
M02*
