G04*
G04 #@! TF.GenerationSoftware,Altium Limited,Altium Designer,20.2.3 (150)*
G04*
G04 Layer_Physical_Order=2*
G04 Layer_Color=16711680*
%FSLAX24Y24*%
%MOIN*%
G70*
G04*
G04 #@! TF.SameCoordinates,73A1D647-E0F8-48CE-BBA5-D16C20393ACE*
G04*
G04*
G04 #@! TF.FilePolarity,Positive*
G04*
G01*
G75*
%ADD13C,0.0100*%
%ADD37R,0.0650X0.0650*%
%ADD38C,0.0650*%
%ADD39C,0.2362*%
%ADD40C,0.0433*%
%ADD41R,0.0433X0.0433*%
%ADD42R,0.0650X0.0650*%
%ADD43C,0.0500*%
G36*
X26083Y25426D02*
X25976Y25381D01*
X25807Y25278D01*
X25656Y25149D01*
X25527Y24998D01*
X25424Y24829D01*
X25348Y24646D01*
X25301Y24453D01*
X25286Y24255D01*
X25301Y24057D01*
X25348Y23865D01*
X25424Y23681D01*
X25527Y23512D01*
X25656Y23362D01*
X25807Y23233D01*
X25976Y23129D01*
X26159Y23053D01*
X26352Y23007D01*
X26550Y22991D01*
X26747Y23007D01*
X26940Y23053D01*
X27123Y23129D01*
X27292Y23233D01*
X27443Y23362D01*
X27572Y23512D01*
X27676Y23681D01*
X27720Y23789D01*
X27770Y23779D01*
Y16468D01*
Y16369D01*
X27732Y16176D01*
X27656Y15994D01*
X27547Y15830D01*
X27408Y15691D01*
X27244Y15582D01*
X27062Y15506D01*
X26869Y15468D01*
X12087D01*
X12077Y15518D01*
X12185Y15562D01*
X12354Y15666D01*
X12505Y15795D01*
X12633Y15945D01*
X12737Y16114D01*
X12813Y16298D01*
X12859Y16490D01*
X12875Y16688D01*
X12859Y16886D01*
X12813Y17079D01*
X12737Y17262D01*
X12633Y17431D01*
X12505Y17582D01*
X12354Y17711D01*
X12185Y17814D01*
X12002Y17890D01*
X11809Y17936D01*
X11611Y17952D01*
X11413Y17936D01*
X11221Y17890D01*
X11037Y17814D01*
X10868Y17711D01*
X10717Y17582D01*
X10589Y17431D01*
X10485Y17262D01*
X10441Y17155D01*
X10391Y17164D01*
Y24476D01*
Y24574D01*
X10429Y24767D01*
X10504Y24949D01*
X10614Y25113D01*
X10753Y25252D01*
X10917Y25362D01*
X11099Y25437D01*
X11292Y25476D01*
X26073D01*
X26083Y25426D01*
D02*
G37*
%LPC*%
G36*
X17445Y24873D02*
Y24560D01*
X17345D01*
Y24873D01*
X17313Y24868D01*
X17236Y24836D01*
X17179Y24793D01*
X17145Y24788D01*
X17112Y24793D01*
X17055Y24836D01*
X16978Y24868D01*
X16945Y24873D01*
Y24560D01*
X16845D01*
Y24873D01*
X16813Y24868D01*
X16736Y24836D01*
X16670Y24786D01*
X16657Y24769D01*
X16607D01*
X16606Y24770D01*
X16544Y24818D01*
X16472Y24848D01*
X16395Y24858D01*
X16318Y24848D01*
X16246Y24818D01*
X16185Y24770D01*
X16170Y24752D01*
X16120D01*
X16106Y24770D01*
X16044Y24818D01*
X15972Y24848D01*
X15895Y24858D01*
X15818Y24848D01*
X15746Y24818D01*
X15685Y24770D01*
X15637Y24709D01*
X15608Y24637D01*
X15597Y24560D01*
X15608Y24483D01*
X15637Y24411D01*
X15685Y24349D01*
X15703Y24335D01*
Y24285D01*
X15685Y24270D01*
X15637Y24209D01*
X15608Y24137D01*
X15597Y24060D01*
X15608Y23983D01*
X15637Y23911D01*
X15685Y23849D01*
X15746Y23802D01*
X15818Y23772D01*
X15895Y23762D01*
X15972Y23772D01*
X16044Y23802D01*
X16106Y23849D01*
X16120Y23868D01*
X16170D01*
X16185Y23849D01*
X16246Y23802D01*
X16318Y23772D01*
X16395Y23762D01*
X16472Y23772D01*
X16544Y23802D01*
X16606Y23849D01*
X16620Y23868D01*
X16670D01*
X16685Y23849D01*
X16746Y23802D01*
X16818Y23772D01*
X16895Y23762D01*
X16972Y23772D01*
X17044Y23802D01*
X17106Y23849D01*
X17120Y23868D01*
X17170D01*
X17185Y23849D01*
X17246Y23802D01*
X17318Y23772D01*
X17395Y23762D01*
X17472Y23772D01*
X17544Y23802D01*
X17606Y23849D01*
X17620Y23868D01*
X17670D01*
X17685Y23849D01*
X17746Y23802D01*
X17818Y23772D01*
X17895Y23762D01*
X17972Y23772D01*
X18044Y23802D01*
X18106Y23849D01*
X18153Y23911D01*
X18183Y23983D01*
X18193Y24060D01*
X18183Y24137D01*
X18153Y24209D01*
X18145Y24220D01*
X18167Y24265D01*
X18191D01*
Y24855D01*
X17600D01*
X17600Y24855D01*
X17550Y24838D01*
X17478Y24868D01*
X17445Y24873D01*
D02*
G37*
G36*
X19619Y22502D02*
Y22206D01*
X19915D01*
X19909Y22247D01*
X19874Y22332D01*
X19818Y22406D01*
X19745Y22462D01*
X19660Y22497D01*
X19619Y22502D01*
D02*
G37*
G36*
X19519D02*
X19477Y22497D01*
X19392Y22462D01*
X19319Y22406D01*
X19263Y22332D01*
X19228Y22247D01*
X19222Y22206D01*
X19519D01*
Y22502D01*
D02*
G37*
G36*
X19915Y22106D02*
X19619D01*
Y21809D01*
X19660Y21815D01*
X19745Y21850D01*
X19818Y21906D01*
X19874Y21979D01*
X19909Y22065D01*
X19915Y22106D01*
D02*
G37*
G36*
X19519D02*
X19222D01*
X19228Y22065D01*
X19263Y21979D01*
X19319Y21906D01*
X19392Y21850D01*
X19477Y21815D01*
X19519Y21809D01*
Y22106D01*
D02*
G37*
G36*
X25342Y22364D02*
X24535D01*
Y21557D01*
X25342D01*
Y22364D01*
D02*
G37*
G36*
X23962Y23708D02*
X23876Y23697D01*
X23796Y23664D01*
X23728Y23611D01*
X23675Y23542D01*
X23642Y23462D01*
X23631Y23376D01*
X23642Y23291D01*
X23675Y23211D01*
X23728Y23142D01*
X23796Y23089D01*
X23831Y23075D01*
Y21534D01*
X23781Y21509D01*
X23748Y21534D01*
X23663Y21569D01*
X23622Y21575D01*
Y21228D01*
Y20882D01*
X23663Y20887D01*
X23748Y20923D01*
X23781Y20948D01*
X23831Y20923D01*
Y18939D01*
X23497Y18605D01*
X23462Y18619D01*
X23376Y18631D01*
X23291Y18619D01*
X23211Y18586D01*
X23142Y18534D01*
X23089Y18465D01*
X23056Y18385D01*
X23045Y18299D01*
X23056Y18213D01*
X23089Y18133D01*
X23142Y18065D01*
X23211Y18012D01*
X23291Y17979D01*
X23376Y17968D01*
X23462Y17979D01*
X23542Y18012D01*
X23611Y18065D01*
X23664Y18133D01*
X23697Y18213D01*
X23708Y18299D01*
X23697Y18385D01*
X23682Y18420D01*
X24055Y18792D01*
X24083Y18835D01*
X24093Y18885D01*
Y23075D01*
X24128Y23089D01*
X24197Y23142D01*
X24249Y23211D01*
X24282Y23291D01*
X24294Y23376D01*
X24282Y23462D01*
X24249Y23542D01*
X24197Y23611D01*
X24128Y23664D01*
X24048Y23697D01*
X23962Y23708D01*
D02*
G37*
G36*
X23522Y21575D02*
X23480Y21569D01*
X23395Y21534D01*
X23322Y21478D01*
X23266Y21405D01*
X23231Y21320D01*
X23225Y21278D01*
X23522D01*
Y21575D01*
D02*
G37*
G36*
X24989Y21398D02*
Y21026D01*
X25360D01*
X25352Y21087D01*
X25310Y21191D01*
X25242Y21279D01*
X25153Y21347D01*
X25049Y21390D01*
X24989Y21398D01*
D02*
G37*
G36*
X24889D02*
X24828Y21390D01*
X24724Y21347D01*
X24636Y21279D01*
X24568Y21191D01*
X24525Y21087D01*
X24517Y21026D01*
X24889D01*
Y21398D01*
D02*
G37*
G36*
X23522Y21178D02*
X23225D01*
X23231Y21137D01*
X23266Y21052D01*
X23322Y20979D01*
X23395Y20923D01*
X23480Y20887D01*
X23522Y20882D01*
Y21178D01*
D02*
G37*
G36*
X19666Y21706D02*
X19580Y21695D01*
X19500Y21662D01*
X19432Y21609D01*
X19379Y21541D01*
X19346Y21461D01*
X19335Y21375D01*
X19346Y21289D01*
X19379Y21209D01*
X19432Y21140D01*
X19500Y21088D01*
X19535Y21073D01*
Y20746D01*
X19347Y20558D01*
X19313Y20572D01*
X19227Y20584D01*
X19141Y20572D01*
X19061Y20539D01*
X18992Y20486D01*
X18940Y20418D01*
X18925Y20383D01*
X18739D01*
X18688Y20373D01*
X18646Y20345D01*
X16613Y18312D01*
X15992D01*
Y17505D01*
X16799D01*
Y18127D01*
X18793Y20121D01*
X18925D01*
X18940Y20086D01*
X18992Y20018D01*
X19061Y19965D01*
X19141Y19932D01*
X19227Y19920D01*
X19313Y19932D01*
X19393Y19965D01*
X19461Y20018D01*
X19514Y20086D01*
X19547Y20166D01*
X19558Y20252D01*
X19547Y20338D01*
X19533Y20372D01*
X19759Y20599D01*
X19787Y20641D01*
X19797Y20691D01*
Y21073D01*
X19832Y21088D01*
X19901Y21140D01*
X19953Y21209D01*
X19986Y21289D01*
X19998Y21375D01*
X19986Y21461D01*
X19953Y21541D01*
X19901Y21609D01*
X19832Y21662D01*
X19752Y21695D01*
X19666Y21706D01*
D02*
G37*
G36*
X25360Y20926D02*
X24989D01*
Y20554D01*
X25049Y20563D01*
X25153Y20605D01*
X25242Y20673D01*
X25310Y20762D01*
X25352Y20865D01*
X25360Y20926D01*
D02*
G37*
G36*
X24889D02*
X24517D01*
X24525Y20865D01*
X24568Y20762D01*
X24636Y20673D01*
X24724Y20605D01*
X24828Y20563D01*
X24889Y20554D01*
Y20926D01*
D02*
G37*
G36*
X24939Y20399D02*
X24833Y20385D01*
X24735Y20345D01*
X24651Y20280D01*
X24586Y20196D01*
X24545Y20097D01*
X24532Y19992D01*
X24545Y19887D01*
X24586Y19789D01*
X24651Y19704D01*
X24735Y19640D01*
X24833Y19599D01*
X24939Y19585D01*
X25044Y19599D01*
X25142Y19640D01*
X25226Y19704D01*
X25291Y19789D01*
X25332Y19887D01*
X25346Y19992D01*
X25332Y20097D01*
X25291Y20196D01*
X25226Y20280D01*
X25142Y20345D01*
X25044Y20385D01*
X24939Y20399D01*
D02*
G37*
G36*
X14980Y23952D02*
X14894Y23941D01*
X14814Y23908D01*
X14745Y23855D01*
X14692Y23786D01*
X14659Y23706D01*
X14648Y23620D01*
X14659Y23535D01*
X14692Y23455D01*
X14745Y23386D01*
X14814Y23333D01*
X14848Y23319D01*
Y21039D01*
X12903Y19093D01*
X12868Y19108D01*
X12783Y19119D01*
X12697Y19108D01*
X12617Y19075D01*
X12548Y19022D01*
X12496Y18953D01*
X12462Y18873D01*
X12451Y18787D01*
X12462Y18702D01*
X12496Y18622D01*
X12548Y18553D01*
X12617Y18500D01*
X12697Y18467D01*
X12783Y18456D01*
X12868Y18467D01*
X12948Y18500D01*
X13017Y18553D01*
X13070Y18622D01*
X13103Y18702D01*
X13114Y18787D01*
X13103Y18873D01*
X13089Y18908D01*
X15072Y20891D01*
X15101Y20934D01*
X15111Y20984D01*
Y23319D01*
X15145Y23333D01*
X15214Y23386D01*
X15267Y23455D01*
X15300Y23535D01*
X15311Y23620D01*
X15300Y23706D01*
X15267Y23786D01*
X15214Y23855D01*
X15145Y23908D01*
X15065Y23941D01*
X14980Y23952D01*
D02*
G37*
G36*
X24939Y19415D02*
X24833Y19401D01*
X24735Y19360D01*
X24651Y19296D01*
X24586Y19211D01*
X24545Y19113D01*
X24532Y19008D01*
X24545Y18903D01*
X24586Y18804D01*
X24651Y18720D01*
X24735Y18655D01*
X24833Y18615D01*
X24939Y18601D01*
X25044Y18615D01*
X25142Y18655D01*
X25226Y18720D01*
X25291Y18804D01*
X25332Y18903D01*
X25346Y19008D01*
X25332Y19113D01*
X25291Y19211D01*
X25226Y19296D01*
X25142Y19360D01*
X25044Y19401D01*
X24939Y19415D01*
D02*
G37*
G36*
X15461Y18331D02*
Y17959D01*
X15833D01*
X15825Y18020D01*
X15782Y18123D01*
X15714Y18212D01*
X15625Y18280D01*
X15522Y18323D01*
X15461Y18331D01*
D02*
G37*
G36*
X15361D02*
X15300Y18323D01*
X15197Y18280D01*
X15108Y18212D01*
X15040Y18123D01*
X14997Y18020D01*
X14989Y17959D01*
X15361D01*
Y18331D01*
D02*
G37*
G36*
X14427Y18316D02*
X14321Y18302D01*
X14223Y18261D01*
X14139Y18196D01*
X14074Y18112D01*
X14034Y18014D01*
X14020Y17909D01*
X14034Y17803D01*
X14074Y17705D01*
X14139Y17621D01*
X14223Y17556D01*
X14321Y17516D01*
X14427Y17502D01*
X14532Y17516D01*
X14630Y17556D01*
X14715Y17621D01*
X14779Y17705D01*
X14820Y17803D01*
X14834Y17909D01*
X14820Y18014D01*
X14779Y18112D01*
X14715Y18196D01*
X14630Y18261D01*
X14532Y18302D01*
X14427Y18316D01*
D02*
G37*
G36*
X15833Y17859D02*
X15461D01*
Y17487D01*
X15522Y17495D01*
X15625Y17538D01*
X15714Y17606D01*
X15782Y17694D01*
X15825Y17798D01*
X15833Y17859D01*
D02*
G37*
G36*
X15361D02*
X14989D01*
X14997Y17798D01*
X15040Y17694D01*
X15108Y17606D01*
X15197Y17538D01*
X15300Y17495D01*
X15361Y17487D01*
Y17859D01*
D02*
G37*
%LPD*%
D13*
X16395Y17909D02*
X18739Y20252D01*
X19227D01*
X19666Y20691D01*
Y21375D01*
X14980Y20984D02*
Y23620D01*
X23962Y18885D02*
Y23376D01*
X23376Y18299D02*
X23962Y18885D01*
X12783Y18787D02*
X14980Y20984D01*
D37*
X16395Y17909D02*
D03*
D38*
X15411D02*
D03*
X14427D02*
D03*
X24939Y19008D02*
D03*
Y19992D02*
D03*
Y20976D02*
D03*
D39*
X26550Y24255D02*
D03*
X11611Y16688D02*
D03*
D40*
X15895Y24060D02*
D03*
Y24560D02*
D03*
X16395Y24060D02*
D03*
Y24560D02*
D03*
X16895Y24060D02*
D03*
Y24560D02*
D03*
X17395Y24060D02*
D03*
Y24560D02*
D03*
X17895Y24060D02*
D03*
D41*
Y24560D02*
D03*
D42*
X24939Y21961D02*
D03*
D43*
X19227Y20252D02*
D03*
X23572Y21228D02*
D03*
X19569Y22156D02*
D03*
X19666Y21375D02*
D03*
X14980Y23620D02*
D03*
X23376Y18299D02*
D03*
X23962Y23376D02*
D03*
X12783Y18787D02*
D03*
M02*
