G04*
G04 #@! TF.GenerationSoftware,Altium Limited,Altium Designer,20.2.3 (150)*
G04*
G04 Layer_Color=16711935*
%FSLAX24Y24*%
%MOIN*%
G70*
G04*
G04 #@! TF.SameCoordinates,73A1D647-E0F8-48CE-BBA5-D16C20393ACE*
G04*
G04*
G04 #@! TF.FilePolarity,Positive*
G04*
G01*
G75*
%ADD11C,0.0079*%
%ADD12C,0.0039*%
D11*
X10981Y20920D02*
Y22888D01*
X12241D01*
Y20920D02*
Y22888D01*
X10981Y20920D02*
X12241D01*
D12*
X17380Y17279D02*
Y18775D01*
X13443Y17279D02*
X17380D01*
X13443D02*
Y18775D01*
X17380D01*
X23677Y23909D02*
X24248D01*
X23677Y24776D02*
X24248D01*
X23677Y23909D02*
Y24776D01*
X24248Y23909D02*
Y24776D01*
X13913Y23763D02*
X14484D01*
X13913Y24629D02*
X14484D01*
X13913Y23763D02*
Y24629D01*
X14484Y23763D02*
Y24629D01*
X15586Y25038D02*
X18204D01*
X15586Y23582D02*
Y25038D01*
Y23582D02*
X18204D01*
Y25038D01*
X19527Y22984D02*
X20098D01*
X19527Y23850D02*
X20098D01*
X19527Y22984D02*
Y23850D01*
X20098Y22984D02*
Y23850D01*
X21646Y21845D02*
X22552Y22750D01*
Y21845D02*
Y24404D01*
X21174D02*
X22552D01*
X21174Y21845D02*
Y24404D01*
Y21845D02*
X22552D01*
X21530Y20826D02*
X23065D01*
Y18897D02*
Y20826D01*
X21530Y18897D02*
X23065D01*
X21530D02*
Y20826D01*
Y20326D02*
X22030Y20826D01*
X20636Y19324D02*
Y19895D01*
X19770Y19324D02*
Y19895D01*
Y19324D02*
X20636D01*
X19770Y19895D02*
X20636D01*
X13602Y22606D02*
X16357D01*
Y19850D02*
Y22606D01*
X13602Y19850D02*
X16357D01*
X13602D02*
Y22606D01*
Y22291D02*
X13917Y22606D01*
X13605Y23765D02*
Y24632D01*
X13034Y23765D02*
Y24632D01*
X13605D01*
X13034Y23765D02*
X13605D01*
X11032Y23718D02*
X11898D01*
X11032Y24289D02*
X11898D01*
Y23718D02*
Y24289D01*
X11032Y23718D02*
Y24289D01*
X11029Y19324D02*
X11895D01*
X11029Y19895D02*
X11895D01*
Y19324D02*
Y19895D01*
X11029Y19324D02*
Y19895D01*
X24072Y18024D02*
Y22945D01*
Y18024D02*
X25568D01*
Y22945D01*
X24072D02*
X25568D01*
M02*
