M48
;Layer_Color=9474304
;FILE_FORMAT=2:5
INCH,TZ
;TYPE=PLATED
T1F00S00C0.01575
T2F00S00C0.03543
T3F00S00C0.03937
T4F00S00C0.13386
%
T01
X53213Y13437
X53575Y22488
X62976Y43449
X83102Y42173
X100079Y49795
X92945Y61858
X90315Y86898
X82067Y82733
X79087Y78598
X69323Y74693
X63417Y81543
X60047Y86898
X53575Y61858
X108418Y76075
X111278Y82210
X102520Y91780
X123512Y66882
X119606Y13181
X127417
X135716
X106913Y24898
X84945Y14646
X33686Y13437
X43732Y42173
X50283Y54189
X41496Y74693
X24047Y81543
X15623Y93012
X20992Y54677
T02
X69827Y9276
X79827
X89827
X99827
X109827
T03
X12693Y49795
Y59638
Y69480
Y79323
T04
X127905Y86409
X13669Y13669
M30
