G04*
G04 #@! TF.GenerationSoftware,Altium Limited,Altium Designer,21.4.1 (30)*
G04*
G04 Layer_Color=8388736*
%FSLAX25Y25*%
%MOIN*%
G70*
G04*
G04 #@! TF.SameCoordinates,1284AD4A-ECE2-4980-9B3C-821E3ADC8275*
G04*
G04*
G04 #@! TF.FilePolarity,Negative*
G04*
G01*
G75*
%ADD25R,0.03556X0.04147*%
G04:AMPARAMS|DCode=26|XSize=47.37mil|YSize=47.37mil|CornerRadius=13.84mil|HoleSize=0mil|Usage=FLASHONLY|Rotation=90.000|XOffset=0mil|YOffset=0mil|HoleType=Round|Shape=RoundedRectangle|*
%AMROUNDEDRECTD26*
21,1,0.04737,0.01968,0,0,90.0*
21,1,0.01968,0.04737,0,0,90.0*
1,1,0.02769,0.00984,0.00984*
1,1,0.02769,0.00984,-0.00984*
1,1,0.02769,-0.00984,-0.00984*
1,1,0.02769,-0.00984,0.00984*
%
%ADD26ROUNDEDRECTD26*%
%ADD27R,0.06115X0.04737*%
%ADD28R,0.07690X0.13398*%
%ADD29R,0.07690X0.04540*%
%ADD30R,0.08280X0.10249*%
%ADD31R,0.06607X0.03162*%
%ADD32R,0.03162X0.06607*%
%ADD33R,0.04737X0.06115*%
%ADD34R,0.03753X0.05721*%
%ADD35R,0.06902X0.03556*%
%ADD36R,0.04147X0.03556*%
%ADD37C,0.24422*%
G04:AMPARAMS|DCode=38|XSize=74.93mil|YSize=86.74mil|CornerRadius=20.73mil|HoleSize=0mil|Usage=FLASHONLY|Rotation=90.000|XOffset=0mil|YOffset=0mil|HoleType=Round|Shape=RoundedRectangle|*
%AMROUNDEDRECTD38*
21,1,0.07493,0.04528,0,0,90.0*
21,1,0.03347,0.08674,0,0,90.0*
1,1,0.04146,0.02264,0.01673*
1,1,0.04146,0.02264,-0.01673*
1,1,0.04146,-0.02264,-0.01673*
1,1,0.04146,-0.02264,0.01673*
%
%ADD38ROUNDEDRECTD38*%
%ADD39O,0.08674X0.07493*%
%ADD40C,0.06706*%
%ADD41R,0.06706X0.06706*%
%ADD42C,0.03556*%
D25*
X102520Y86898D02*
D03*
X96024D02*
D03*
Y76157D02*
D03*
X102520D02*
D03*
X70150Y83480D02*
D03*
X76646D02*
D03*
X96024Y81528D02*
D03*
X102520D02*
D03*
X92437Y26850D02*
D03*
X98933D02*
D03*
D26*
X97638Y96661D02*
D03*
X81528D02*
D03*
D27*
X124976Y53701D02*
D03*
Y60984D02*
D03*
X117654Y61248D02*
D03*
Y53965D02*
D03*
X66882Y29555D02*
D03*
Y36839D02*
D03*
X132299Y53740D02*
D03*
Y61024D02*
D03*
X118630Y22496D02*
D03*
Y29779D02*
D03*
X135228Y22496D02*
D03*
Y29779D02*
D03*
X127417Y22496D02*
D03*
Y29779D02*
D03*
D28*
X58291Y33685D02*
D03*
D29*
X33488Y24630D02*
D03*
Y33685D02*
D03*
Y42740D02*
D03*
D30*
X134772Y41496D02*
D03*
X118630D02*
D03*
D31*
X108953Y40724D02*
D03*
Y43874D02*
D03*
Y47024D02*
D03*
Y50173D02*
D03*
Y53323D02*
D03*
Y56472D02*
D03*
Y59622D02*
D03*
Y62772D02*
D03*
X75583D02*
D03*
Y59622D02*
D03*
Y56472D02*
D03*
Y53323D02*
D03*
Y50173D02*
D03*
Y47024D02*
D03*
Y43874D02*
D03*
Y40724D02*
D03*
D32*
X103291Y68433D02*
D03*
X100142D02*
D03*
X96992D02*
D03*
X93843D02*
D03*
X90693D02*
D03*
X87543D02*
D03*
X84394D02*
D03*
X81244D02*
D03*
Y35063D02*
D03*
X84394D02*
D03*
X87543D02*
D03*
X90693D02*
D03*
X93843D02*
D03*
X96992D02*
D03*
X100142D02*
D03*
X103291D02*
D03*
D33*
X53740Y73716D02*
D03*
X61024D02*
D03*
X75406Y68835D02*
D03*
X68122D02*
D03*
X15886Y31244D02*
D03*
X23169D02*
D03*
D34*
X92724Y20504D02*
D03*
X100598D02*
D03*
D35*
X61000Y52000D02*
D03*
Y57000D02*
D03*
Y62000D02*
D03*
Y67000D02*
D03*
X39543D02*
D03*
Y62000D02*
D03*
Y57000D02*
D03*
Y52000D02*
D03*
D36*
X31244Y55335D02*
D03*
Y61831D02*
D03*
D37*
X13669Y13669D02*
D03*
X127905Y86409D02*
D03*
D38*
X12693Y49795D02*
D03*
D39*
Y59638D02*
D03*
Y69480D02*
D03*
Y79323D02*
D03*
D40*
X109827Y9276D02*
D03*
X99827D02*
D03*
X89827D02*
D03*
X79827D02*
D03*
D41*
X69827D02*
D03*
D42*
X20992Y54677D02*
D03*
X79087Y78598D02*
D03*
X84945Y14646D02*
D03*
X102520Y91780D02*
D03*
X62976Y43449D02*
D03*
X92945Y61858D02*
D03*
X83102Y42173D02*
D03*
X63417Y81543D02*
D03*
X53575Y61858D02*
D03*
Y22488D02*
D03*
X43732Y42173D02*
D03*
X24047Y81543D02*
D03*
X90315Y86898D02*
D03*
X111278Y82210D02*
D03*
X108418Y76075D02*
D03*
X123512Y66882D02*
D03*
X50283Y54189D02*
D03*
X15623Y93012D02*
D03*
X60047Y86898D02*
D03*
X33686Y13437D02*
D03*
X53213D02*
D03*
X106913Y24898D02*
D03*
X119606Y13181D02*
D03*
X41496Y74693D02*
D03*
X135716Y13181D02*
D03*
X127417D02*
D03*
X69323Y74693D02*
D03*
X82067Y82733D02*
D03*
X100079Y49795D02*
D03*
M02*
