G04*
G04 #@! TF.GenerationSoftware,Altium Limited,Altium Designer,21.4.1 (30)*
G04*
G04 Layer_Color=8421504*
%FSLAX25Y25*%
%MOIN*%
G70*
G04*
G04 #@! TF.SameCoordinates,04E98196-19A4-425A-B086-7B381303791D*
G04*
G04*
G04 #@! TF.FilePolarity,Positive*
G04*
G01*
G75*
%ADD13R,0.02756X0.03347*%
G04:AMPARAMS|DCode=14|XSize=39.37mil|YSize=39.37mil|CornerRadius=9.84mil|HoleSize=0mil|Usage=FLASHONLY|Rotation=90.000|XOffset=0mil|YOffset=0mil|HoleType=Round|Shape=RoundedRectangle|*
%AMROUNDEDRECTD14*
21,1,0.03937,0.01968,0,0,90.0*
21,1,0.01968,0.03937,0,0,90.0*
1,1,0.01968,0.00984,0.00984*
1,1,0.01968,0.00984,-0.00984*
1,1,0.01968,-0.00984,-0.00984*
1,1,0.01968,-0.00984,0.00984*
%
%ADD14ROUNDEDRECTD14*%
%ADD15R,0.05315X0.03937*%
%ADD16R,0.06890X0.12598*%
%ADD17R,0.06890X0.03740*%
%ADD18R,0.07480X0.09449*%
%ADD19R,0.05807X0.02362*%
%ADD20R,0.02362X0.05807*%
%ADD21R,0.03937X0.05315*%
%ADD22R,0.02953X0.04921*%
%ADD23R,0.06102X0.02756*%
%ADD24R,0.03347X0.02756*%
D13*
X102520Y86898D02*
D03*
X96024D02*
D03*
Y76157D02*
D03*
X102520D02*
D03*
X70150Y83480D02*
D03*
X76646D02*
D03*
X96024Y81528D02*
D03*
X102520D02*
D03*
X92437Y26850D02*
D03*
X98933D02*
D03*
D14*
X97638Y96661D02*
D03*
X81528D02*
D03*
D15*
X124976Y53701D02*
D03*
Y60984D02*
D03*
X117654Y61248D02*
D03*
Y53965D02*
D03*
X66882Y29555D02*
D03*
Y36839D02*
D03*
X132299Y53740D02*
D03*
Y61024D02*
D03*
X118630Y22496D02*
D03*
Y29779D02*
D03*
X135228Y22496D02*
D03*
Y29779D02*
D03*
X127417Y22496D02*
D03*
Y29779D02*
D03*
D16*
X58291Y33685D02*
D03*
D17*
X33488Y24630D02*
D03*
Y33685D02*
D03*
Y42740D02*
D03*
D18*
X134772Y41496D02*
D03*
X118630D02*
D03*
D19*
X108953Y40724D02*
D03*
Y43874D02*
D03*
Y47024D02*
D03*
Y50173D02*
D03*
Y53323D02*
D03*
Y56472D02*
D03*
Y59622D02*
D03*
Y62772D02*
D03*
X75583D02*
D03*
Y59622D02*
D03*
Y56472D02*
D03*
Y53323D02*
D03*
Y50173D02*
D03*
Y47024D02*
D03*
Y43874D02*
D03*
Y40724D02*
D03*
D20*
X103291Y68433D02*
D03*
X100142D02*
D03*
X96992D02*
D03*
X93843D02*
D03*
X90693D02*
D03*
X87543D02*
D03*
X84394D02*
D03*
X81244D02*
D03*
Y35063D02*
D03*
X84394D02*
D03*
X87543D02*
D03*
X90693D02*
D03*
X93843D02*
D03*
X96992D02*
D03*
X100142D02*
D03*
X103291D02*
D03*
D21*
X53740Y73716D02*
D03*
X61024D02*
D03*
X75406Y68835D02*
D03*
X68122D02*
D03*
X15886Y31244D02*
D03*
X23169D02*
D03*
D22*
X92724Y20504D02*
D03*
X100598D02*
D03*
D23*
X61000Y52000D02*
D03*
Y57000D02*
D03*
Y62000D02*
D03*
Y67000D02*
D03*
X39543D02*
D03*
Y62000D02*
D03*
Y57000D02*
D03*
Y52000D02*
D03*
D24*
X31244Y55335D02*
D03*
Y61831D02*
D03*
M02*
