G04*
G04 #@! TF.GenerationSoftware,Altium Limited,Altium Designer,21.4.1 (30)*
G04*
G04 Layer_Color=16711935*
%FSLAX25Y25*%
%MOIN*%
G70*
G04*
G04 #@! TF.SameCoordinates,04E98196-19A4-425A-B086-7B381303791D*
G04*
G04*
G04 #@! TF.FilePolarity,Positive*
G04*
G01*
G75*
%ADD44C,0.01000*%
D44*
X2441Y96661D02*
X1818Y95965D01*
X1277Y95202D01*
X825Y94384D01*
X468Y93521D01*
X209Y92623D01*
X52Y91702D01*
X0Y90768D01*
X10691Y100079D02*
X9674Y100034D01*
X8665Y99901D01*
X7671Y99681D01*
X6701Y99375D01*
X5760Y98986D01*
X4857Y98516D01*
X3999Y97969D01*
X3191Y97349D01*
X2441Y96661D01*
X138039Y97756D02*
X137259Y98440D01*
X136397Y99016D01*
X135467Y99475D01*
X134484Y99809D01*
X133467Y100011D01*
X132432Y100079D01*
X141575Y89220D02*
X141529Y90272D01*
X141391Y91317D01*
X141164Y92345D01*
X140847Y93349D01*
X140444Y94322D01*
X139958Y95256D01*
X139392Y96144D01*
X138751Y96980D01*
X138039Y97756D01*
X139252Y3536D02*
X139936Y4315D01*
X140512Y5178D01*
X140971Y6108D01*
X141305Y7091D01*
X141507Y8108D01*
X141575Y9143D01*
X130717Y0D02*
X131769Y46D01*
X132813Y183D01*
X133841Y411D01*
X134845Y728D01*
X135818Y1131D01*
X136752Y1617D01*
X137640Y2183D01*
X138476Y2824D01*
X139252Y3536D01*
X3417Y2441D02*
X4114Y1818D01*
X4876Y1277D01*
X5694Y825D01*
X6558Y468D01*
X7456Y209D01*
X8377Y52D01*
X9310Y0D01*
X0Y10691D02*
X44Y9674D01*
X177Y8665D01*
X398Y7671D01*
X704Y6701D01*
X1093Y5760D01*
X1563Y4857D01*
X2110Y3999D01*
X2730Y3191D01*
X3417Y2441D01*
X0Y72252D02*
Y90768D01*
X10691Y100079D02*
X132432D01*
X141575Y9143D02*
Y89220D01*
X9310Y0D02*
X130717D01*
X0Y10691D02*
Y72252D01*
M02*
