G04*
G04 #@! TF.GenerationSoftware,Altium Limited,Altium Designer,21.4.1 (30)*
G04*
G04 Layer_Physical_Order=1*
G04 Layer_Color=255*
%FSLAX25Y25*%
%MOIN*%
G70*
G04*
G04 #@! TF.SameCoordinates,1284AD4A-ECE2-4980-9B3C-821E3ADC8275*
G04*
G04*
G04 #@! TF.FilePolarity,Positive*
G04*
G01*
G75*
%ADD13R,0.02756X0.03347*%
G04:AMPARAMS|DCode=14|XSize=39.37mil|YSize=39.37mil|CornerRadius=9.84mil|HoleSize=0mil|Usage=FLASHONLY|Rotation=90.000|XOffset=0mil|YOffset=0mil|HoleType=Round|Shape=RoundedRectangle|*
%AMROUNDEDRECTD14*
21,1,0.03937,0.01968,0,0,90.0*
21,1,0.01968,0.03937,0,0,90.0*
1,1,0.01968,0.00984,0.00984*
1,1,0.01968,0.00984,-0.00984*
1,1,0.01968,-0.00984,-0.00984*
1,1,0.01968,-0.00984,0.00984*
%
%ADD14ROUNDEDRECTD14*%
%ADD15R,0.05315X0.03937*%
%ADD16R,0.06890X0.12598*%
%ADD17R,0.06890X0.03740*%
%ADD18R,0.07480X0.09449*%
%ADD19R,0.05807X0.02362*%
%ADD20R,0.02362X0.05807*%
%ADD21R,0.03937X0.05315*%
%ADD22R,0.02953X0.04921*%
%ADD23R,0.06102X0.02756*%
%ADD24R,0.03347X0.02756*%
%ADD43C,0.01500*%
%ADD44C,0.01000*%
%ADD45C,0.23622*%
G04:AMPARAMS|DCode=46|XSize=66.93mil|YSize=78.74mil|CornerRadius=16.73mil|HoleSize=0mil|Usage=FLASHONLY|Rotation=90.000|XOffset=0mil|YOffset=0mil|HoleType=Round|Shape=RoundedRectangle|*
%AMROUNDEDRECTD46*
21,1,0.06693,0.04528,0,0,90.0*
21,1,0.03347,0.07874,0,0,90.0*
1,1,0.03346,0.02264,0.01673*
1,1,0.03346,0.02264,-0.01673*
1,1,0.03346,-0.02264,-0.01673*
1,1,0.03346,-0.02264,0.01673*
%
%ADD46ROUNDEDRECTD46*%
%ADD47O,0.07874X0.06693*%
%ADD48C,0.05906*%
%ADD49R,0.05906X0.05906*%
%ADD50C,0.02756*%
G36*
X10691Y98549D02*
X78461D01*
X78817Y98049D01*
X78737Y97646D01*
Y95677D01*
X78874Y94986D01*
X79266Y94400D01*
X79852Y94008D01*
X79998Y93979D01*
Y84033D01*
X78811D01*
Y85941D01*
X75643D01*
X75560Y85997D01*
X75169Y86075D01*
X71626D01*
X71236Y85997D01*
X71152Y85941D01*
X67984D01*
Y81020D01*
X69096D01*
X69129Y80855D01*
X69516Y80276D01*
X73058Y76734D01*
Y76222D01*
X71156D01*
X70783Y76596D01*
X70241Y76909D01*
X69636Y77071D01*
X69010D01*
X68405Y76909D01*
X67863Y76596D01*
X67420Y76153D01*
X67107Y75611D01*
X66945Y75006D01*
Y74380D01*
X67107Y73775D01*
X67420Y73233D01*
X67661Y72992D01*
X67454Y72492D01*
X65153D01*
Y71912D01*
X64692Y71721D01*
X63992Y72421D01*
Y73216D01*
X61024D01*
Y73716D01*
X60524D01*
Y77374D01*
X58055D01*
Y77295D01*
X55807D01*
X55417Y77218D01*
X55333Y77161D01*
X50984D01*
Y75501D01*
X50772D01*
X50089Y75365D01*
X49510Y74978D01*
X49510Y74978D01*
X44002Y69470D01*
X43425Y69473D01*
X43280Y69581D01*
Y73114D01*
X43399Y73233D01*
X43712Y73775D01*
X43874Y74380D01*
Y75006D01*
X43712Y75611D01*
X43399Y76153D01*
X42956Y76596D01*
X42414Y76909D01*
X41809Y77071D01*
X41183D01*
X40578Y76909D01*
X40036Y76596D01*
X39593Y76153D01*
X39280Y75611D01*
X39118Y75006D01*
Y74380D01*
X39280Y73775D01*
X39593Y73233D01*
X39712Y73114D01*
Y69165D01*
X35705D01*
Y64835D01*
X43003Y64835D01*
X43200Y64500D01*
X43003Y64165D01*
X35705D01*
Y62534D01*
X33705D01*
Y63996D01*
X28784D01*
Y62100D01*
X28710Y62040D01*
X28278Y61971D01*
X28187Y61990D01*
X25556Y64621D01*
Y70442D01*
X25421Y71125D01*
X25034Y71703D01*
X25034Y71703D01*
X19824Y76913D01*
X19245Y77300D01*
X18562Y77436D01*
X17656D01*
X17379Y77852D01*
X17518Y78188D01*
X17667Y79323D01*
X17518Y80458D01*
X17080Y81515D01*
X16383Y82423D01*
X15475Y83119D01*
X14418Y83557D01*
X13284Y83707D01*
X12102D01*
X10968Y83557D01*
X9910Y83119D01*
X9002Y82423D01*
X8306Y81515D01*
X7868Y80458D01*
X7718Y79323D01*
X7868Y78188D01*
X8306Y77131D01*
X9002Y76223D01*
X9910Y75526D01*
X10968Y75088D01*
X12102Y74939D01*
X13284D01*
X14335Y75077D01*
X15011Y74402D01*
X14335Y73726D01*
X13284Y73864D01*
X12102D01*
X10968Y73715D01*
X9910Y73277D01*
X9002Y72580D01*
X8306Y71672D01*
X7868Y70615D01*
X7718Y69480D01*
X7868Y68346D01*
X8306Y67288D01*
X9002Y66380D01*
X9910Y65684D01*
X10968Y65246D01*
X12102Y65096D01*
X13284D01*
X14418Y65246D01*
X15475Y65684D01*
X16383Y66380D01*
X17080Y67288D01*
X17518Y68346D01*
X17667Y69480D01*
X17622Y69826D01*
X18095Y70060D01*
X19488Y68667D01*
Y62846D01*
X19624Y62163D01*
X20010Y61584D01*
X25524Y56071D01*
X25524Y56071D01*
X26103Y55684D01*
X26785Y55548D01*
X26785Y55548D01*
X28619D01*
X28672Y55280D01*
X28784Y55114D01*
Y53169D01*
X33705D01*
Y55114D01*
X33816Y55280D01*
X33890Y55653D01*
X34702Y56466D01*
X35705D01*
Y54878D01*
X35705Y54835D01*
X35600Y54378D01*
X35492D01*
Y52500D01*
X39543D01*
Y51500D01*
X35492D01*
Y50115D01*
X17653D01*
Y51468D01*
X17561Y52166D01*
X17292Y52817D01*
X16863Y53375D01*
X16305Y53804D01*
X15655Y54073D01*
X14957Y54165D01*
X10429D01*
X9731Y54073D01*
X9081Y53804D01*
X8523Y53375D01*
X8094Y52817D01*
X7825Y52166D01*
X7733Y51468D01*
Y48122D01*
X7825Y47424D01*
X8094Y46774D01*
X8523Y46216D01*
X9081Y45787D01*
X9731Y45518D01*
X10429Y45426D01*
X14957D01*
X15110Y45446D01*
X21385Y39170D01*
Y35055D01*
X21102Y34823D01*
X18854D01*
Y34902D01*
X16386D01*
Y31244D01*
Y27587D01*
X18854D01*
Y27665D01*
X21102D01*
X21493Y27743D01*
X21577Y27799D01*
X25925D01*
Y27799D01*
X26195Y27911D01*
X29256Y24851D01*
Y21972D01*
X37721D01*
Y27287D01*
X31866D01*
X27771Y31383D01*
X27192Y31769D01*
X26509Y31905D01*
X25925D01*
Y34689D01*
X24954D01*
Y39909D01*
X24818Y40592D01*
X24431Y41171D01*
X19518Y46084D01*
X19709Y46546D01*
X43449D01*
X44132Y46682D01*
X44710Y47069D01*
X46525Y48884D01*
X46525Y48884D01*
X46912Y49463D01*
X47048Y50146D01*
X47048Y50146D01*
Y67470D01*
X50522Y70944D01*
X50984Y70753D01*
Y70272D01*
X51956D01*
Y67587D01*
X52092Y66904D01*
X52478Y66325D01*
X54109Y64695D01*
X54075Y64624D01*
Y62358D01*
X56341D01*
X56411Y62392D01*
X57161Y61642D01*
Y59835D01*
X57161D01*
X57057Y59378D01*
X56949D01*
Y57500D01*
X61000D01*
Y56500D01*
X56949D01*
Y54622D01*
X57057D01*
X57161Y54165D01*
X57161D01*
Y49835D01*
X62676D01*
X65887Y46623D01*
X66383Y46292D01*
X66969Y46175D01*
X71892D01*
Y44672D01*
X71561Y44606D01*
X71064Y44274D01*
X70310Y43520D01*
X69979Y43024D01*
X69862Y42439D01*
Y39807D01*
X67382D01*
Y36839D01*
X66882D01*
Y36339D01*
X63224D01*
Y33870D01*
X63303D01*
Y31622D01*
X63255Y31564D01*
X62524D01*
Y40591D01*
X62592Y40826D01*
X62900Y41071D01*
X63289D01*
X63894Y41233D01*
X64437Y41546D01*
X64879Y41989D01*
X65192Y42531D01*
X65304Y42949D01*
X60649D01*
X60760Y42531D01*
X61074Y41989D01*
X61516Y41546D01*
X61577Y41511D01*
X61705Y40859D01*
X61638Y40772D01*
X54059D01*
Y35469D01*
X37721D01*
Y36342D01*
X29256D01*
Y31028D01*
X37721D01*
Y31901D01*
X54059D01*
Y26598D01*
X62524D01*
Y27995D01*
X63437D01*
Y26799D01*
X65098D01*
Y12220D01*
X65233Y11538D01*
X65620Y10959D01*
X65874Y10705D01*
Y5323D01*
X71256D01*
X73935Y2644D01*
X74514Y2257D01*
X75197Y2121D01*
X113357D01*
X114040Y2257D01*
X114619Y2644D01*
X115791Y3816D01*
X115791Y3816D01*
X116178Y4395D01*
X116314Y5077D01*
Y11224D01*
X116178Y11906D01*
X115791Y12485D01*
X115791Y12485D01*
X115044Y13232D01*
Y19528D01*
X118130D01*
Y22496D01*
X118630D01*
Y22996D01*
X122287D01*
Y25465D01*
X122209D01*
Y27713D01*
X122131Y28103D01*
X122075Y28187D01*
Y31841D01*
X122537Y32033D01*
X123972Y30597D01*
Y28187D01*
X123916Y28103D01*
X123839Y27713D01*
Y25465D01*
X123760D01*
Y22996D01*
X127417D01*
Y22496D01*
X127917D01*
Y19528D01*
X131075D01*
Y19527D01*
X131571D01*
Y19528D01*
X134728D01*
Y22496D01*
X135228D01*
Y22996D01*
X138886D01*
Y25465D01*
X138807D01*
Y27713D01*
X138729Y28103D01*
X138673Y28187D01*
Y32535D01*
X136758D01*
Y35984D01*
X139299D01*
Y47008D01*
X132305D01*
X132117Y47133D01*
X131532Y47250D01*
X131181D01*
X129841Y48589D01*
X129345Y48921D01*
X128760Y49037D01*
X112644D01*
Y51793D01*
X114209D01*
Y51209D01*
X121098D01*
Y51209D01*
X121531Y51047D01*
Y50945D01*
X128371D01*
X128421Y50945D01*
Y50945D01*
X128854Y50984D01*
Y50984D01*
X135744D01*
Y55333D01*
X135800Y55417D01*
X135878Y55807D01*
Y58957D01*
X135800Y59347D01*
X135744Y59431D01*
Y63779D01*
X132643D01*
Y66370D01*
X132507Y67053D01*
X132120Y67632D01*
X126565Y73187D01*
X126786Y73635D01*
X127066Y73598D01*
X128745D01*
X130410Y73818D01*
X132032Y74252D01*
X133584Y74895D01*
X135038Y75735D01*
X136371Y76757D01*
X137558Y77944D01*
X138580Y79277D01*
X139420Y80731D01*
X139555Y81057D01*
X140045Y80959D01*
Y9143D01*
X140059Y9073D01*
X139943Y7890D01*
X139577Y6686D01*
X138984Y5575D01*
X138230Y4657D01*
X138171Y4617D01*
X138125Y4548D01*
X136926Y3524D01*
X135513Y2658D01*
X133981Y2024D01*
X132369Y1637D01*
X130798Y1513D01*
X130717Y1529D01*
X19119D01*
X19022Y2020D01*
X19348Y2155D01*
X20802Y2994D01*
X22134Y4017D01*
X23322Y5204D01*
X24344Y6537D01*
X25184Y7991D01*
X25826Y9543D01*
X26261Y11165D01*
X26480Y12830D01*
Y14509D01*
X26261Y16174D01*
X25826Y17796D01*
X25184Y19348D01*
X24344Y20802D01*
X23322Y22134D01*
X22134Y23322D01*
X20802Y24344D01*
X19348Y25184D01*
X17796Y25826D01*
X16174Y26261D01*
X14509Y26480D01*
X12830D01*
X11165Y26261D01*
X9543Y25826D01*
X7991Y25184D01*
X6537Y24344D01*
X5204Y23322D01*
X4017Y22134D01*
X2994Y20802D01*
X2155Y19348D01*
X2020Y19022D01*
X1529Y19119D01*
Y72252D01*
Y90768D01*
X1514Y90846D01*
X1638Y92100D01*
X2026Y93381D01*
X2657Y94562D01*
X3457Y95536D01*
X3522Y95580D01*
X3566Y95645D01*
X4719Y96630D01*
X6079Y97463D01*
X7552Y98074D01*
X9102Y98446D01*
X10614Y98565D01*
X10691Y98549D01*
D02*
G37*
G36*
X81754Y80355D02*
X81807D01*
X81915Y80247D01*
Y79442D01*
X82032Y78856D01*
X82363Y78360D01*
X88100Y72624D01*
X87893Y72124D01*
X83425D01*
Y72337D01*
X81744D01*
Y68433D01*
Y64530D01*
X83425D01*
Y64742D01*
X104763D01*
X105260Y64740D01*
X105262Y64243D01*
Y60803D01*
Y57653D01*
Y54504D01*
Y51514D01*
X101723D01*
X101539Y51698D01*
X100997Y52011D01*
X100392Y52173D01*
X99766D01*
X99161Y52011D01*
X98619Y51698D01*
X98176Y51255D01*
X97863Y50713D01*
X97701Y50108D01*
Y49482D01*
X97863Y48877D01*
X98176Y48335D01*
X98619Y47892D01*
X99161Y47579D01*
X99766Y47417D01*
X100392D01*
X100997Y47579D01*
X101539Y47892D01*
X101982Y48335D01*
X102051Y48455D01*
X105262D01*
Y45055D01*
Y41906D01*
Y38967D01*
X103791D01*
Y35563D01*
X105472D01*
Y38756D01*
X109572D01*
Y36364D01*
X109708Y35681D01*
X110095Y35102D01*
X115160Y30037D01*
Y29522D01*
X111998Y26360D01*
X111611Y25781D01*
X111476Y25098D01*
Y23921D01*
Y13444D01*
X110976Y13060D01*
X110347Y13228D01*
X109306D01*
X108301Y12959D01*
X107400Y12439D01*
X106664Y11703D01*
X106143Y10801D01*
X105874Y9796D01*
Y8755D01*
X106143Y7750D01*
X106664Y6848D01*
X107323Y6190D01*
X107213Y5690D01*
X102440D01*
X102331Y6190D01*
X102990Y6848D01*
X103510Y7750D01*
X103779Y8755D01*
Y9796D01*
X103510Y10801D01*
X102990Y11703D01*
X102254Y12439D01*
X101353Y12959D01*
X100347Y13228D01*
X99371D01*
X96707Y15892D01*
X96211Y16224D01*
X95626Y16340D01*
X91715D01*
X91260Y16794D01*
X91452Y17256D01*
X93825D01*
X93909Y17200D01*
X94299Y17122D01*
X98122D01*
Y17043D01*
X100098D01*
Y20504D01*
X100598D01*
Y21004D01*
X103075D01*
Y23965D01*
X101279D01*
X101098Y24390D01*
X101098D01*
Y29311D01*
X99778D01*
X99718Y29613D01*
X99387Y30109D01*
X98953Y30543D01*
Y31372D01*
X101110D01*
Y31159D01*
X102791D01*
Y35063D01*
Y38967D01*
X101110D01*
Y38754D01*
X79773D01*
X79276Y38756D01*
X79274Y39253D01*
Y41906D01*
Y45055D01*
Y48205D01*
Y51354D01*
Y54504D01*
Y57653D01*
Y60803D01*
Y64530D01*
X80744D01*
Y67933D01*
X79063D01*
Y64740D01*
X77678D01*
Y65390D01*
X78161D01*
Y72280D01*
X77678D01*
Y73716D01*
X77678Y73716D01*
X77542Y74399D01*
X77155Y74978D01*
X77155Y74978D01*
X76626Y75507D01*
Y77104D01*
X77126Y77238D01*
X77184Y77138D01*
X77627Y76696D01*
X78169Y76382D01*
X78587Y76271D01*
Y78598D01*
X79087D01*
Y79098D01*
X81415D01*
X81302Y79516D01*
X80991Y80057D01*
X80993Y80064D01*
X81270Y80485D01*
X81754Y80355D01*
D02*
G37*
G36*
X129074Y65631D02*
Y64097D01*
X128634Y63953D01*
X128634Y63953D01*
X125476D01*
Y60984D01*
X124476D01*
Y63953D01*
X121319D01*
X121311Y64217D01*
X118154D01*
Y61248D01*
X117654D01*
Y60748D01*
X113996D01*
Y58280D01*
X114075D01*
Y56032D01*
X114153Y55641D01*
X114209Y55557D01*
Y54852D01*
X112644D01*
Y57653D01*
Y60803D01*
Y64740D01*
X105759D01*
X105262Y64742D01*
X105260Y65239D01*
Y71163D01*
X123542D01*
X129074Y65631D01*
D02*
G37*
G36*
X68622Y65177D02*
X71091D01*
Y65256D01*
X73223D01*
X73484Y65023D01*
X73622Y64802D01*
X73606Y64740D01*
X71892D01*
Y60803D01*
Y57653D01*
Y54504D01*
Y51813D01*
X69944D01*
X66865Y54891D01*
Y55076D01*
X66868Y55089D01*
Y64840D01*
X67144Y65177D01*
X67622D01*
Y68835D01*
X68622D01*
Y65177D01*
D02*
G37*
G36*
X74140Y30222D02*
X74256Y29637D01*
X74588Y29141D01*
X90000Y13729D01*
X90001Y13728D01*
X89849Y13228D01*
X89306D01*
X88301Y12959D01*
X87400Y12439D01*
X86664Y11703D01*
X86143Y10801D01*
X85874Y9796D01*
Y9776D01*
X89827D01*
Y8776D01*
X85874D01*
Y8755D01*
X86143Y7750D01*
X86664Y6848D01*
X87322Y6190D01*
X87213Y5690D01*
X82440D01*
X82331Y6190D01*
X82990Y6848D01*
X83510Y7750D01*
X83780Y8755D01*
Y9796D01*
X83510Y10801D01*
X82990Y11703D01*
X82254Y12439D01*
X81353Y12959D01*
X80347Y13228D01*
X79306D01*
X78305Y12960D01*
X72921Y18344D01*
Y38756D01*
X74140D01*
Y30222D01*
D02*
G37*
%LPC*%
G36*
X16123Y95339D02*
Y93512D01*
X17951D01*
X17839Y93929D01*
X17526Y94472D01*
X17083Y94914D01*
X16541Y95227D01*
X16123Y95339D01*
D02*
G37*
G36*
X15123D02*
X14705Y95227D01*
X14163Y94914D01*
X13720Y94472D01*
X13407Y93929D01*
X13295Y93512D01*
X15123D01*
Y95339D01*
D02*
G37*
G36*
X17951Y92512D02*
X16123D01*
Y90684D01*
X16541Y90796D01*
X17083Y91109D01*
X17526Y91552D01*
X17839Y92094D01*
X17951Y92512D01*
D02*
G37*
G36*
X15123D02*
X13295D01*
X13407Y92094D01*
X13720Y91552D01*
X14163Y91109D01*
X14705Y90796D01*
X15123Y90684D01*
Y92512D01*
D02*
G37*
G36*
X60547Y89226D02*
Y87398D01*
X62375D01*
X62263Y87815D01*
X61950Y88358D01*
X61507Y88801D01*
X60965Y89113D01*
X60547Y89226D01*
D02*
G37*
G36*
X59547D02*
X59129Y89113D01*
X58587Y88801D01*
X58144Y88358D01*
X57831Y87815D01*
X57719Y87398D01*
X59547D01*
Y89226D01*
D02*
G37*
G36*
X62375Y86398D02*
X60547D01*
Y84570D01*
X60965Y84682D01*
X61507Y84995D01*
X61950Y85438D01*
X62263Y85980D01*
X62375Y86398D01*
D02*
G37*
G36*
X59547D02*
X57719D01*
X57831Y85980D01*
X58144Y85438D01*
X58587Y84995D01*
X59129Y84682D01*
X59547Y84570D01*
Y86398D01*
D02*
G37*
G36*
X63917Y83871D02*
Y82043D01*
X65745D01*
X65633Y82461D01*
X65320Y83003D01*
X64877Y83446D01*
X64335Y83759D01*
X63917Y83871D01*
D02*
G37*
G36*
X62917D02*
X62499Y83759D01*
X61957Y83446D01*
X61515Y83003D01*
X61201Y82461D01*
X61089Y82043D01*
X62917D01*
Y83871D01*
D02*
G37*
G36*
X24547D02*
Y82043D01*
X26375D01*
X26263Y82461D01*
X25950Y83003D01*
X25507Y83446D01*
X24965Y83759D01*
X24547Y83871D01*
D02*
G37*
G36*
X23547D02*
X23129Y83759D01*
X22587Y83446D01*
X22144Y83003D01*
X21831Y82461D01*
X21719Y82043D01*
X23547D01*
Y83871D01*
D02*
G37*
G36*
X65745Y81043D02*
X63917D01*
Y79215D01*
X64335Y79327D01*
X64877Y79641D01*
X65320Y80083D01*
X65633Y80625D01*
X65745Y81043D01*
D02*
G37*
G36*
X62917D02*
X61089D01*
X61201Y80625D01*
X61515Y80083D01*
X61957Y79641D01*
X62499Y79327D01*
X62917Y79215D01*
Y81043D01*
D02*
G37*
G36*
X26375D02*
X24547D01*
Y79215D01*
X24965Y79327D01*
X25507Y79641D01*
X25950Y80083D01*
X26263Y80625D01*
X26375Y81043D01*
D02*
G37*
G36*
X23547D02*
X21719D01*
X21831Y80625D01*
X22144Y80083D01*
X22587Y79641D01*
X23129Y79327D01*
X23547Y79215D01*
Y81043D01*
D02*
G37*
G36*
X63992Y77374D02*
X61524D01*
Y74217D01*
X63992D01*
Y77374D01*
D02*
G37*
G36*
X53075Y64186D02*
X52657Y64074D01*
X52115Y63761D01*
X51672Y63318D01*
X51359Y62776D01*
X51247Y62358D01*
X53075D01*
Y64186D01*
D02*
G37*
G36*
X13284Y64022D02*
X13193D01*
Y60138D01*
X17602D01*
X17518Y60773D01*
X17080Y61830D01*
X16383Y62738D01*
X15475Y63434D01*
X14418Y63872D01*
X13284Y64022D01*
D02*
G37*
G36*
X12193D02*
X12102D01*
X10968Y63872D01*
X9910Y63434D01*
X9002Y62738D01*
X8306Y61830D01*
X7868Y60773D01*
X7784Y60138D01*
X12193D01*
Y64022D01*
D02*
G37*
G36*
X55903Y61358D02*
X54075D01*
Y59530D01*
X54493Y59642D01*
X55035Y59955D01*
X55478Y60398D01*
X55791Y60940D01*
X55903Y61358D01*
D02*
G37*
G36*
X53075D02*
X51247D01*
X51359Y60940D01*
X51672Y60398D01*
X52115Y59955D01*
X52657Y59642D01*
X53075Y59530D01*
Y61358D01*
D02*
G37*
G36*
X17602Y59138D02*
X13193D01*
Y55254D01*
X13284D01*
X14418Y55403D01*
X15475Y55841D01*
X16383Y56538D01*
X17080Y57446D01*
X17518Y58503D01*
X17602Y59138D01*
D02*
G37*
G36*
X12193D02*
X7784D01*
X7868Y58503D01*
X8306Y57446D01*
X9002Y56538D01*
X9910Y55841D01*
X10968Y55403D01*
X12102Y55254D01*
X12193D01*
Y59138D01*
D02*
G37*
G36*
X21492Y57005D02*
Y55177D01*
X23320D01*
X23208Y55595D01*
X22895Y56137D01*
X22452Y56580D01*
X21910Y56893D01*
X21492Y57005D01*
D02*
G37*
G36*
X20492D02*
X20074Y56893D01*
X19532Y56580D01*
X19089Y56137D01*
X18776Y55595D01*
X18664Y55177D01*
X20492D01*
Y57005D01*
D02*
G37*
G36*
X50783Y56517D02*
Y54689D01*
X52611D01*
X52499Y55107D01*
X52186Y55649D01*
X51744Y56092D01*
X51201Y56405D01*
X50783Y56517D01*
D02*
G37*
G36*
X49784D02*
X49366Y56405D01*
X48823Y56092D01*
X48381Y55649D01*
X48068Y55107D01*
X47956Y54689D01*
X49784D01*
Y56517D01*
D02*
G37*
G36*
X23320Y54177D02*
X21492D01*
Y52349D01*
X21910Y52461D01*
X22452Y52774D01*
X22895Y53217D01*
X23208Y53759D01*
X23320Y54177D01*
D02*
G37*
G36*
X20492D02*
X18664D01*
X18776Y53759D01*
X19089Y53217D01*
X19532Y52774D01*
X20074Y52461D01*
X20492Y52349D01*
Y54177D01*
D02*
G37*
G36*
X52611Y53689D02*
X50783D01*
Y51861D01*
X51201Y51973D01*
X51744Y52286D01*
X52186Y52729D01*
X52499Y53271D01*
X52611Y53689D01*
D02*
G37*
G36*
X49784D02*
X47956D01*
X48068Y53271D01*
X48381Y52729D01*
X48823Y52286D01*
X49366Y51973D01*
X49784Y51861D01*
Y53689D01*
D02*
G37*
G36*
X63476Y45777D02*
Y43949D01*
X65304D01*
X65192Y44367D01*
X64879Y44909D01*
X64437Y45352D01*
X63894Y45665D01*
X63476Y45777D01*
D02*
G37*
G36*
X62476D02*
X62059Y45665D01*
X61516Y45352D01*
X61074Y44909D01*
X60760Y44367D01*
X60649Y43949D01*
X62476D01*
Y45777D01*
D02*
G37*
G36*
X37933Y45610D02*
X33988D01*
Y43240D01*
X37933D01*
Y45610D01*
D02*
G37*
G36*
X32988D02*
X29043D01*
Y43240D01*
X32988D01*
Y45610D01*
D02*
G37*
G36*
X44232Y44501D02*
Y42673D01*
X46060D01*
X45948Y43091D01*
X45635Y43633D01*
X45192Y44076D01*
X44650Y44389D01*
X44232Y44501D01*
D02*
G37*
G36*
X43232D02*
X42814Y44389D01*
X42272Y44076D01*
X41829Y43633D01*
X41516Y43091D01*
X41404Y42673D01*
X43232D01*
Y44501D01*
D02*
G37*
G36*
X37933Y42240D02*
X33988D01*
Y39870D01*
X37933D01*
Y42240D01*
D02*
G37*
G36*
X32988D02*
X29043D01*
Y39870D01*
X32988D01*
Y42240D01*
D02*
G37*
G36*
X46060Y41673D02*
X44232D01*
Y39845D01*
X44650Y39957D01*
X45192Y40270D01*
X45635Y40713D01*
X45948Y41255D01*
X46060Y41673D01*
D02*
G37*
G36*
X43232D02*
X41404D01*
X41516Y41255D01*
X41829Y40713D01*
X42272Y40270D01*
X42814Y39957D01*
X43232Y39845D01*
Y41673D01*
D02*
G37*
G36*
X66382Y39807D02*
X63224D01*
Y37339D01*
X66382D01*
Y39807D01*
D02*
G37*
G36*
X15386Y34902D02*
X12917D01*
Y31744D01*
X15386D01*
Y34902D01*
D02*
G37*
G36*
Y30744D02*
X12917D01*
Y27587D01*
X15386D01*
Y30744D01*
D02*
G37*
G36*
X54075Y24816D02*
Y22988D01*
X55903D01*
X55791Y23406D01*
X55478Y23948D01*
X55035Y24391D01*
X54493Y24704D01*
X54075Y24816D01*
D02*
G37*
G36*
X53075D02*
X52657Y24704D01*
X52115Y24391D01*
X51672Y23948D01*
X51359Y23406D01*
X51247Y22988D01*
X53075D01*
Y24816D01*
D02*
G37*
G36*
X55903Y21988D02*
X54075D01*
Y20160D01*
X54493Y20272D01*
X55035Y20585D01*
X55478Y21028D01*
X55791Y21570D01*
X55903Y21988D01*
D02*
G37*
G36*
X53075D02*
X51247D01*
X51359Y21570D01*
X51672Y21028D01*
X52115Y20585D01*
X52657Y20272D01*
X53075Y20160D01*
Y21988D01*
D02*
G37*
G36*
X138886Y21996D02*
X135728D01*
Y19528D01*
X138886D01*
Y21996D01*
D02*
G37*
G36*
X126917D02*
X123760D01*
Y19528D01*
X126917D01*
Y21996D01*
D02*
G37*
G36*
X122287D02*
X119130D01*
Y19528D01*
X122287D01*
Y21996D01*
D02*
G37*
G36*
X53713Y15765D02*
Y13937D01*
X55541D01*
X55429Y14355D01*
X55116Y14897D01*
X54673Y15340D01*
X54131Y15653D01*
X53713Y15765D01*
D02*
G37*
G36*
X52713D02*
X52296Y15653D01*
X51753Y15340D01*
X51311Y14897D01*
X50998Y14355D01*
X50885Y13937D01*
X52713D01*
Y15765D01*
D02*
G37*
G36*
X34186D02*
Y13937D01*
X36014D01*
X35902Y14355D01*
X35589Y14897D01*
X35146Y15340D01*
X34604Y15653D01*
X34186Y15765D01*
D02*
G37*
G36*
X33186D02*
X32768Y15653D01*
X32226Y15340D01*
X31783Y14897D01*
X31470Y14355D01*
X31358Y13937D01*
X33186D01*
Y15765D01*
D02*
G37*
G36*
X136216Y15509D02*
Y13681D01*
X138044D01*
X137932Y14099D01*
X137619Y14641D01*
X137177Y15084D01*
X136634Y15397D01*
X136216Y15509D01*
D02*
G37*
G36*
X135216D02*
X134799Y15397D01*
X134256Y15084D01*
X133814Y14641D01*
X133501Y14099D01*
X133389Y13681D01*
X135216D01*
Y15509D01*
D02*
G37*
G36*
X127917D02*
Y13681D01*
X129745D01*
X129633Y14099D01*
X129320Y14641D01*
X128877Y15084D01*
X128335Y15397D01*
X127917Y15509D01*
D02*
G37*
G36*
X126917D02*
X126499Y15397D01*
X125957Y15084D01*
X125514Y14641D01*
X125201Y14099D01*
X125090Y13681D01*
X126917D01*
Y15509D01*
D02*
G37*
G36*
X120106D02*
Y13681D01*
X121934D01*
X121822Y14099D01*
X121509Y14641D01*
X121066Y15084D01*
X120524Y15397D01*
X120106Y15509D01*
D02*
G37*
G36*
X119106D02*
X118688Y15397D01*
X118146Y15084D01*
X117703Y14641D01*
X117390Y14099D01*
X117278Y13681D01*
X119106D01*
Y15509D01*
D02*
G37*
G36*
X55541Y12937D02*
X53713D01*
Y11109D01*
X54131Y11221D01*
X54673Y11534D01*
X55116Y11977D01*
X55429Y12519D01*
X55541Y12937D01*
D02*
G37*
G36*
X52713D02*
X50885D01*
X50998Y12519D01*
X51311Y11977D01*
X51753Y11534D01*
X52296Y11221D01*
X52713Y11109D01*
Y12937D01*
D02*
G37*
G36*
X36014D02*
X34186D01*
Y11109D01*
X34604Y11221D01*
X35146Y11534D01*
X35589Y11977D01*
X35902Y12519D01*
X36014Y12937D01*
D02*
G37*
G36*
X33186D02*
X31358D01*
X31470Y12519D01*
X31783Y11977D01*
X32226Y11534D01*
X32768Y11221D01*
X33186Y11109D01*
Y12937D01*
D02*
G37*
G36*
X138044Y12681D02*
X136216D01*
Y10853D01*
X136634Y10965D01*
X137177Y11278D01*
X137619Y11721D01*
X137932Y12263D01*
X138044Y12681D01*
D02*
G37*
G36*
X135216D02*
X133389D01*
X133501Y12263D01*
X133814Y11721D01*
X134256Y11278D01*
X134799Y10965D01*
X135216Y10853D01*
Y12681D01*
D02*
G37*
G36*
X129745D02*
X127917D01*
Y10853D01*
X128335Y10965D01*
X128877Y11278D01*
X129320Y11721D01*
X129633Y12263D01*
X129745Y12681D01*
D02*
G37*
G36*
X126917D02*
X125090D01*
X125201Y12263D01*
X125514Y11721D01*
X125957Y11278D01*
X126499Y10965D01*
X126917Y10853D01*
Y12681D01*
D02*
G37*
G36*
X121934D02*
X120106D01*
Y10853D01*
X120524Y10965D01*
X121066Y11278D01*
X121509Y11721D01*
X121822Y12263D01*
X121934Y12681D01*
D02*
G37*
G36*
X119106D02*
X117278D01*
X117390Y12263D01*
X117703Y11721D01*
X118146Y11278D01*
X118688Y10965D01*
X119106Y10853D01*
Y12681D01*
D02*
G37*
G36*
X81415Y78098D02*
X79587D01*
Y76271D01*
X80005Y76382D01*
X80547Y76696D01*
X80989Y77138D01*
X81302Y77681D01*
X81415Y78098D01*
D02*
G37*
G36*
X80744Y72337D02*
X79063D01*
Y68933D01*
X80744D01*
Y72337D01*
D02*
G37*
G36*
X93445Y64186D02*
Y62358D01*
X95273D01*
X95161Y62776D01*
X94848Y63318D01*
X94405Y63761D01*
X93863Y64074D01*
X93445Y64186D01*
D02*
G37*
G36*
X92445D02*
X92027Y64074D01*
X91485Y63761D01*
X91042Y63318D01*
X90729Y62776D01*
X90617Y62358D01*
X92445D01*
Y64186D01*
D02*
G37*
G36*
X95273Y61358D02*
X93445D01*
Y59530D01*
X93863Y59642D01*
X94405Y59955D01*
X94848Y60398D01*
X95161Y60940D01*
X95273Y61358D01*
D02*
G37*
G36*
X92445D02*
X90617D01*
X90729Y60940D01*
X91042Y60398D01*
X91485Y59955D01*
X92027Y59642D01*
X92445Y59530D01*
Y61358D01*
D02*
G37*
G36*
X83602Y44501D02*
Y42673D01*
X85430D01*
X85318Y43091D01*
X85005Y43633D01*
X84562Y44076D01*
X84020Y44389D01*
X83602Y44501D01*
D02*
G37*
G36*
X82602D02*
X82184Y44389D01*
X81642Y44076D01*
X81200Y43633D01*
X80887Y43091D01*
X80774Y42673D01*
X82602D01*
Y44501D01*
D02*
G37*
G36*
X85430Y41673D02*
X83602D01*
Y39845D01*
X84020Y39957D01*
X84562Y40270D01*
X85005Y40713D01*
X85318Y41255D01*
X85430Y41673D01*
D02*
G37*
G36*
X82602D02*
X80774D01*
X80887Y41255D01*
X81200Y40713D01*
X81642Y40270D01*
X82184Y39957D01*
X82602Y39845D01*
Y41673D01*
D02*
G37*
G36*
X105472Y34563D02*
X103791D01*
Y31159D01*
X105472D01*
Y34563D01*
D02*
G37*
G36*
X107413Y27226D02*
Y25398D01*
X109241D01*
X109129Y25815D01*
X108816Y26358D01*
X108373Y26801D01*
X107831Y27114D01*
X107413Y27226D01*
D02*
G37*
G36*
X106413D02*
X105996Y27114D01*
X105453Y26801D01*
X105011Y26358D01*
X104698Y25815D01*
X104586Y25398D01*
X106413D01*
Y27226D01*
D02*
G37*
G36*
X109241Y24398D02*
X107413D01*
Y22570D01*
X107831Y22682D01*
X108373Y22995D01*
X108816Y23438D01*
X109129Y23980D01*
X109241Y24398D01*
D02*
G37*
G36*
X106413D02*
X104586D01*
X104698Y23980D01*
X105011Y23438D01*
X105453Y22995D01*
X105996Y22682D01*
X106413Y22570D01*
Y24398D01*
D02*
G37*
G36*
X103075Y20004D02*
X101098D01*
Y17043D01*
X103075D01*
Y20004D01*
D02*
G37*
G36*
X124012Y69210D02*
Y67382D01*
X125840D01*
X125728Y67800D01*
X125415Y68342D01*
X124972Y68785D01*
X124430Y69098D01*
X124012Y69210D01*
D02*
G37*
G36*
X123012D02*
X122594Y69098D01*
X122052Y68785D01*
X121609Y68342D01*
X121296Y67800D01*
X121184Y67382D01*
X123012D01*
Y69210D01*
D02*
G37*
G36*
X125840Y66382D02*
X124012D01*
Y64554D01*
X124430Y64666D01*
X124972Y64979D01*
X125415Y65422D01*
X125728Y65964D01*
X125840Y66382D01*
D02*
G37*
G36*
X123012D02*
X121184D01*
X121296Y65964D01*
X121609Y65422D01*
X122052Y64979D01*
X122594Y64666D01*
X123012Y64554D01*
Y66382D01*
D02*
G37*
G36*
X117154Y64217D02*
X113996D01*
Y61748D01*
X117154D01*
Y64217D01*
D02*
G37*
G36*
X85445Y16973D02*
Y15146D01*
X87273D01*
X87161Y15563D01*
X86848Y16106D01*
X86405Y16548D01*
X85863Y16862D01*
X85445Y16973D01*
D02*
G37*
G36*
X84445D02*
X84027Y16862D01*
X83485Y16548D01*
X83042Y16106D01*
X82729Y15563D01*
X82617Y15146D01*
X84445D01*
Y16973D01*
D02*
G37*
G36*
X87273Y14146D02*
X85445D01*
Y12318D01*
X85863Y12430D01*
X86405Y12743D01*
X86848Y13186D01*
X87161Y13728D01*
X87273Y14146D01*
D02*
G37*
G36*
X84445D02*
X82617D01*
X82729Y13728D01*
X83042Y13186D01*
X83485Y12743D01*
X84027Y12430D01*
X84445Y12318D01*
Y14146D01*
D02*
G37*
%LPD*%
D13*
X102520Y86898D02*
D03*
X96024D02*
D03*
Y76157D02*
D03*
X102520D02*
D03*
X70150Y83480D02*
D03*
X76646D02*
D03*
X96024Y81528D02*
D03*
X102520D02*
D03*
X92437Y26850D02*
D03*
X98933D02*
D03*
D14*
X97638Y96661D02*
D03*
X81528D02*
D03*
D15*
X124976Y53701D02*
D03*
Y60984D02*
D03*
X117654Y61248D02*
D03*
Y53965D02*
D03*
X66882Y29555D02*
D03*
Y36839D02*
D03*
X132299Y53740D02*
D03*
Y61024D02*
D03*
X118630Y22496D02*
D03*
Y29779D02*
D03*
X135228Y22496D02*
D03*
Y29779D02*
D03*
X127417Y22496D02*
D03*
Y29779D02*
D03*
D16*
X58291Y33685D02*
D03*
D17*
X33488Y24630D02*
D03*
Y33685D02*
D03*
Y42740D02*
D03*
D18*
X134772Y41496D02*
D03*
X118630D02*
D03*
D19*
X108953Y40724D02*
D03*
Y43874D02*
D03*
Y47024D02*
D03*
Y50173D02*
D03*
Y53323D02*
D03*
Y56472D02*
D03*
Y59622D02*
D03*
Y62772D02*
D03*
X75583D02*
D03*
Y59622D02*
D03*
Y56472D02*
D03*
Y53323D02*
D03*
Y50173D02*
D03*
Y47024D02*
D03*
Y43874D02*
D03*
Y40724D02*
D03*
D20*
X103291Y68433D02*
D03*
X100142D02*
D03*
X96992D02*
D03*
X93843D02*
D03*
X90693D02*
D03*
X87543D02*
D03*
X84394D02*
D03*
X81244D02*
D03*
Y35063D02*
D03*
X84394D02*
D03*
X87543D02*
D03*
X90693D02*
D03*
X93843D02*
D03*
X96992D02*
D03*
X100142D02*
D03*
X103291D02*
D03*
D21*
X53740Y73716D02*
D03*
X61024D02*
D03*
X75406Y68835D02*
D03*
X68122D02*
D03*
X15886Y31244D02*
D03*
X23169D02*
D03*
D22*
X92724Y20504D02*
D03*
X100598D02*
D03*
D23*
X61000Y52000D02*
D03*
Y57000D02*
D03*
Y62000D02*
D03*
Y67000D02*
D03*
X39543D02*
D03*
Y62000D02*
D03*
Y57000D02*
D03*
Y52000D02*
D03*
D24*
X31244Y55335D02*
D03*
Y61831D02*
D03*
D43*
X36620Y58250D02*
X37870Y57000D01*
X39543D01*
X33963Y58250D02*
X36620D01*
X32167Y56454D02*
X33963Y58250D01*
X32167Y55963D02*
Y56454D01*
X37870Y62000D02*
X39543D01*
X36620Y60750D02*
X37870Y62000D01*
X32620Y60750D02*
X36620D01*
X31244Y61831D02*
X31539D01*
X32620Y60750D01*
X12693Y79243D02*
X16284Y75652D01*
X18562D01*
X23772Y63881D02*
Y70442D01*
X27821Y59833D02*
X29442D01*
X23772Y63881D02*
X27821Y59833D01*
X30321Y60711D02*
Y61203D01*
X29442Y59833D02*
X30321Y60711D01*
X30949Y61831D02*
X31244D01*
X30321Y61203D02*
X30949Y61831D01*
X12693Y69480D02*
Y69560D01*
X30321Y55963D02*
Y56454D01*
X29442Y57333D02*
X30321Y56454D01*
X21272Y62846D02*
Y69406D01*
Y62846D02*
X26785Y57333D01*
X29442D01*
X17527Y73152D02*
X21272Y69406D01*
X16284Y73152D02*
X17527D01*
X12693Y69560D02*
X16284Y73152D01*
X30949Y55335D02*
X31244D01*
X18562Y75652D02*
X23772Y70442D01*
X30321Y55963D02*
X30949Y55335D01*
X12693Y79243D02*
Y79323D01*
X96342Y75374D02*
X96512D01*
X96652Y75234D01*
Y74703D02*
Y75234D01*
X98408Y72947D02*
X124282D01*
X96652Y74703D02*
X98408Y72947D01*
X90555Y86657D02*
X96264D01*
X96512Y86409D01*
X90315Y86898D02*
X90555Y86657D01*
X24293Y30121D02*
X26509D01*
X30793Y25837D01*
X23169Y31244D02*
X24293Y30121D01*
X23169Y31244D02*
Y39909D01*
X30793Y25750D02*
Y25837D01*
X31913Y24630D02*
X33488D01*
X30793Y25750D02*
X31913Y24630D01*
X14748Y48331D02*
X23169Y39909D01*
X130858Y61024D02*
Y66370D01*
X124282Y72947D02*
X130858Y66370D01*
X113260Y12493D02*
Y23921D01*
Y25098D01*
X117941Y29779D02*
X118630D01*
X113260Y25098D02*
X117941Y29779D01*
X111356Y36364D02*
X117941Y29779D01*
X108953Y40724D02*
X110675D01*
X111356Y40043D01*
Y36364D02*
Y40043D01*
X114530Y5077D02*
Y11224D01*
X113260Y12493D02*
X114530Y11224D01*
X75197Y3906D02*
X113357D01*
X114530Y5077D01*
X53740Y67587D02*
X59327Y62000D01*
X50772Y73716D02*
X53740D01*
Y67587D02*
Y73716D01*
X41496Y67628D02*
Y74693D01*
X39543Y67000D02*
X40868D01*
X41496Y67628D01*
X14748Y48331D02*
X43449D01*
X45264Y50146D01*
Y68209D01*
X75894Y63083D02*
Y73716D01*
X45264Y68209D02*
X50772Y73716D01*
X70778Y81537D02*
X74842Y77473D01*
X66882Y12220D02*
Y29555D01*
X96258Y81443D02*
Y85837D01*
X70778Y81537D02*
Y82852D01*
X96342Y75374D02*
Y80870D01*
X69323Y9276D02*
Y9780D01*
X33488Y33685D02*
X58095D01*
X70150Y83480D02*
X70778Y82852D01*
X96258Y81443D02*
X96342Y81358D01*
X66658Y29779D02*
X66882Y29555D01*
X75583Y62772D02*
X75894Y63083D01*
X74842Y74768D02*
X75894Y73716D01*
X66882Y12220D02*
X69323Y9780D01*
X74842Y74768D02*
Y77473D01*
X69827Y9276D02*
X75197Y3906D01*
X58095Y29779D02*
X66658D01*
X75522Y62340D02*
X75669Y62488D01*
X108677Y49984D02*
X108866Y49795D01*
X100079D02*
X100268Y49984D01*
X59327Y62000D02*
X61000D01*
D44*
X39459Y61915D02*
X39543Y62000D01*
X75669Y30222D02*
Y41076D01*
Y30222D02*
X91081Y14811D01*
X71392Y17711D02*
X79827Y9276D01*
X71392Y17711D02*
Y42439D01*
X81796Y83013D02*
Y83700D01*
X76646Y83382D02*
Y83480D01*
X81796Y82504D02*
Y83013D01*
X76646Y83382D02*
X77524Y82504D01*
X81796D01*
X81528Y83553D02*
Y96173D01*
X61024Y73028D02*
X62492Y71559D01*
X61024Y73028D02*
Y73716D01*
X62492Y71559D02*
X62691D01*
X65239Y69011D01*
X67682D01*
X67858Y68835D01*
X98126Y96173D02*
X102520Y91780D01*
X84945Y89729D02*
X86995Y91780D01*
X102520D01*
X102594Y91705D01*
Y86972D02*
Y91705D01*
X102520Y86898D02*
X102594Y86972D01*
X128760Y47508D02*
X130547Y45720D01*
X135228Y41496D02*
X135716Y41984D01*
X109020Y47508D02*
X128760D01*
X108378Y46866D02*
X109020Y47508D01*
X117654Y53323D02*
X124488D01*
X131433D01*
X108953D02*
X117654D01*
X131433D02*
X131811Y53701D01*
X111062Y81993D02*
X111278Y82210D01*
X103304Y81993D02*
X111062D01*
X103717Y76075D02*
X108418D01*
X102839Y81528D02*
X103304Y81993D01*
X103421Y76370D02*
X103717Y76075D01*
X69323Y74693D02*
X74205D01*
X83445Y79442D02*
X90050Y72837D01*
X83445Y79442D02*
Y80880D01*
X82067Y82258D02*
X83445Y80880D01*
X81528Y98126D02*
X81612Y98041D01*
X126465Y30268D02*
X127417D01*
X121870Y34862D02*
X126465Y30268D01*
X118630Y41496D02*
X121870Y38256D01*
Y34862D02*
Y38256D01*
X108953Y43874D02*
X116252D01*
X118630Y41496D01*
X135228Y30004D02*
Y41496D01*
X131532Y45720D02*
X134772Y42480D01*
X130547Y45720D02*
X131532D01*
X134772Y41496D02*
Y42480D01*
X90050Y69076D02*
Y72837D01*
Y69076D02*
X90693Y68433D01*
X84945Y80063D02*
Y89729D01*
Y80063D02*
X92384Y72624D01*
X93161Y69114D02*
X93843Y68433D01*
X92407Y72624D02*
X93161Y71870D01*
X92384Y72624D02*
X92407D01*
X93161Y69114D02*
Y71870D01*
X98888Y10214D02*
Y11548D01*
X91081Y14811D02*
X95626D01*
X98888Y10214D02*
X99827Y9276D01*
X95626Y14811D02*
X98888Y11548D01*
X100268Y49984D02*
X108677D01*
X98305Y27478D02*
Y29028D01*
Y27478D02*
X98933Y26850D01*
X97423Y29909D02*
X98305Y29028D01*
X97423Y29909D02*
Y34876D01*
X97150Y35150D02*
X97423Y34876D01*
X71392Y42439D02*
X72146Y43193D01*
X74902D02*
X75583Y43874D01*
X72146Y43193D02*
X74902D01*
X66969Y47705D02*
X77235D01*
X62673Y52000D02*
X66969Y47705D01*
X69310Y50283D02*
X75669D01*
X65336Y54258D02*
X69310Y50283D01*
X64057Y66122D02*
X65339Y64840D01*
Y55089D02*
Y64840D01*
X65336Y54258D02*
Y55086D01*
X65339Y55089D01*
X61878Y66122D02*
X64057D01*
X61000Y67000D02*
X61878Y66122D01*
X92665Y20563D02*
Y27279D01*
X92606Y27339D02*
X92665Y27279D01*
Y20563D02*
X92724Y20504D01*
X61000Y52000D02*
X62673D01*
D45*
X13669Y13669D02*
D03*
X127905Y86409D02*
D03*
D46*
X12693Y49795D02*
D03*
D47*
Y59638D02*
D03*
Y69480D02*
D03*
Y79323D02*
D03*
D48*
X109827Y9276D02*
D03*
X99827D02*
D03*
X89827D02*
D03*
X79827D02*
D03*
D49*
X69827D02*
D03*
D50*
X20992Y54677D02*
D03*
X79087Y78598D02*
D03*
X84945Y14646D02*
D03*
X102520Y91780D02*
D03*
X62976Y43449D02*
D03*
X92945Y61858D02*
D03*
X83102Y42173D02*
D03*
X63417Y81543D02*
D03*
X53575Y61858D02*
D03*
Y22488D02*
D03*
X43732Y42173D02*
D03*
X24047Y81543D02*
D03*
X90315Y86898D02*
D03*
X111278Y82210D02*
D03*
X108418Y76075D02*
D03*
X123512Y66882D02*
D03*
X50283Y54189D02*
D03*
X15623Y93012D02*
D03*
X60047Y86898D02*
D03*
X33686Y13437D02*
D03*
X53213D02*
D03*
X106913Y24898D02*
D03*
X119606Y13181D02*
D03*
X41496Y74693D02*
D03*
X135716Y13181D02*
D03*
X127417D02*
D03*
X69323Y74693D02*
D03*
X82067Y82733D02*
D03*
X100079Y49795D02*
D03*
M02*
