G04*
G04 #@! TF.GenerationSoftware,Altium Limited,Altium Designer,21.4.1 (30)*
G04*
G04 Layer_Physical_Order=2*
G04 Layer_Color=16711680*
%FSLAX25Y25*%
%MOIN*%
G70*
G04*
G04 #@! TF.SameCoordinates,1284AD4A-ECE2-4980-9B3C-821E3ADC8275*
G04*
G04*
G04 #@! TF.FilePolarity,Positive*
G04*
G01*
G75*
%ADD43C,0.01500*%
%ADD44C,0.01000*%
%ADD45C,0.23622*%
G04:AMPARAMS|DCode=46|XSize=66.93mil|YSize=78.74mil|CornerRadius=16.73mil|HoleSize=0mil|Usage=FLASHONLY|Rotation=90.000|XOffset=0mil|YOffset=0mil|HoleType=Round|Shape=RoundedRectangle|*
%AMROUNDEDRECTD46*
21,1,0.06693,0.04528,0,0,90.0*
21,1,0.03347,0.07874,0,0,90.0*
1,1,0.03346,0.02264,0.01673*
1,1,0.03346,0.02264,-0.01673*
1,1,0.03346,-0.02264,-0.01673*
1,1,0.03346,-0.02264,0.01673*
%
%ADD46ROUNDEDRECTD46*%
%ADD47O,0.07874X0.06693*%
%ADD48C,0.05906*%
%ADD49R,0.05906X0.05906*%
%ADD50C,0.02756*%
%ADD51R,0.04016X0.04016*%
G36*
X10691Y98549D02*
X26786D01*
Y82453D01*
X26286Y82353D01*
X26063Y82890D01*
X25394Y83559D01*
X24547Y83910D01*
Y81543D01*
Y79176D01*
X25394Y79527D01*
X26063Y80196D01*
X26286Y80733D01*
X26786Y80634D01*
Y77110D01*
X39897D01*
X39922Y77070D01*
X40051Y76610D01*
X39480Y76040D01*
X39118Y75166D01*
Y74220D01*
X39480Y73346D01*
X40149Y72677D01*
X41023Y72315D01*
X41969D01*
X42843Y72677D01*
X43075Y72909D01*
X67538D01*
Y13228D01*
X65874D01*
Y5323D01*
X73779D01*
Y13228D01*
X71107D01*
Y73114D01*
X71339Y73346D01*
X71701Y74220D01*
Y75166D01*
X71339Y76040D01*
X70670Y76709D01*
X70581Y76745D01*
X70484Y77236D01*
X78798Y85550D01*
X81348D01*
X81447Y85050D01*
X80720Y84749D01*
X80051Y84080D01*
X79689Y83206D01*
Y82260D01*
X80051Y81386D01*
X80174Y81263D01*
X79891Y80839D01*
X79587Y80965D01*
Y79098D01*
X81453D01*
X81103Y79945D01*
X80980Y80068D01*
X81263Y80492D01*
X81594Y80355D01*
X82540D01*
X83414Y80717D01*
X83900Y81204D01*
X86523D01*
X112219Y55508D01*
Y50381D01*
X112335Y49796D01*
X112667Y49300D01*
X114595Y47371D01*
X115091Y47040D01*
X115636Y46931D01*
Y43803D01*
X114858D01*
Y38213D01*
X116309D01*
X116580Y38032D01*
X117165Y37915D01*
X117751Y38032D01*
X118021Y38213D01*
X120449D01*
Y43803D01*
X118695D01*
Y47867D01*
X118621Y48240D01*
X118941Y48740D01*
X121283D01*
Y51248D01*
X118276D01*
Y51748D01*
X117776D01*
Y54756D01*
X115277D01*
Y56142D01*
X115161Y56727D01*
X114830Y57223D01*
X88238Y83815D01*
X87742Y84146D01*
X87157Y84263D01*
X83900D01*
X83414Y84749D01*
X82686Y85050D01*
X82687Y85236D01*
X82734Y85551D01*
X82958Y85602D01*
X88278D01*
X88299Y85551D01*
X88968Y84882D01*
X89842Y84520D01*
X90788D01*
X91662Y84882D01*
X92331Y85551D01*
X92693Y86425D01*
Y87371D01*
X92331Y88245D01*
X91662Y88914D01*
X90788Y89276D01*
X89842D01*
X89490Y89130D01*
X89287Y89170D01*
X82708D01*
X82708Y89170D01*
X82451Y89119D01*
X78059D01*
X77376Y88983D01*
X76797Y88596D01*
X64678Y76477D01*
X43424D01*
X43319Y76610D01*
X43561Y77110D01*
X56165D01*
Y98549D01*
X122411D01*
X122531Y98049D01*
X121191Y97366D01*
X119560Y96181D01*
X118134Y94755D01*
X116949Y93124D01*
X116033Y91327D01*
X115410Y89409D01*
X115094Y87418D01*
Y85401D01*
X115410Y83410D01*
X116033Y81492D01*
X116329Y80912D01*
X115922Y80608D01*
X113608Y82797D01*
X113294Y83557D01*
X112625Y84225D01*
X111751Y84588D01*
X110805D01*
X109979Y84246D01*
X109479Y84427D01*
Y89279D01*
X109363Y89864D01*
X109031Y90360D01*
X106530Y92861D01*
X106034Y93192D01*
X105449Y93309D01*
X104353D01*
X103867Y93796D01*
X102993Y94157D01*
X102047D01*
X101173Y93796D01*
X100504Y93126D01*
X100142Y92252D01*
Y91307D01*
X100504Y90433D01*
X101173Y89764D01*
X102047Y89402D01*
X102993D01*
X103867Y89764D01*
X104353Y90250D01*
X104815D01*
X106421Y88645D01*
Y80979D01*
X106537Y80394D01*
X106869Y79898D01*
X107852Y78915D01*
X107705Y78354D01*
X107071Y78091D01*
X106402Y77422D01*
X106040Y76548D01*
Y75602D01*
X106402Y74728D01*
X106889Y74241D01*
Y69283D01*
X107005Y68698D01*
X107336Y68201D01*
X120320Y55218D01*
X120129Y54756D01*
X118776D01*
Y52248D01*
X121283D01*
Y53601D01*
X121745Y53793D01*
X131124Y44414D01*
Y43803D01*
X129858D01*
Y38213D01*
X135449D01*
Y43803D01*
X134183D01*
Y45047D01*
X134066Y45632D01*
X133735Y46129D01*
X131586Y48278D01*
X131777Y48740D01*
X132776D01*
Y51248D01*
X130268D01*
Y50249D01*
X129806Y50058D01*
X116885Y62979D01*
X117076Y63441D01*
X121071D01*
Y65307D01*
X121216Y65385D01*
X121571Y65460D01*
X122165Y64866D01*
X123012Y64515D01*
Y66882D01*
X124012D01*
Y64515D01*
X124859Y64866D01*
X125528Y65535D01*
X125851Y66314D01*
X126196Y66466D01*
X126390Y66493D01*
X126637Y66259D01*
X126872Y66111D01*
X127102Y65957D01*
X127123Y65953D01*
X127142Y65941D01*
X127415Y65895D01*
X127688Y65841D01*
X130480D01*
Y63441D01*
X136071D01*
Y69032D01*
X130480D01*
Y68900D01*
X128296D01*
X122845Y74058D01*
X123107Y74498D01*
X124906Y73914D01*
X126897Y73598D01*
X128914D01*
X130905Y73914D01*
X132823Y74537D01*
X134620Y75453D01*
X136251Y76638D01*
X137677Y78064D01*
X138863Y79695D01*
X139545Y81035D01*
X140045Y80915D01*
Y9143D01*
X140052Y9109D01*
X139933Y7892D01*
X139568Y6690D01*
X138975Y5581D01*
X138200Y4637D01*
X138171Y4617D01*
X138146Y4581D01*
X136920Y3533D01*
X135508Y2668D01*
X133978Y2034D01*
X132368Y1647D01*
X130760Y1521D01*
X130717Y1529D01*
X19163D01*
X19043Y2029D01*
X20384Y2712D01*
X22015Y3898D01*
X23441Y5324D01*
X24626Y6955D01*
X25542Y8752D01*
X26165Y10669D01*
X26480Y12661D01*
Y14678D01*
X26165Y16669D01*
X25542Y18587D01*
X24626Y20384D01*
X23441Y22015D01*
X22015Y23441D01*
X20384Y24626D01*
X18587Y25542D01*
X16669Y26165D01*
X14678Y26480D01*
X12661D01*
X10669Y26165D01*
X8752Y25542D01*
X6955Y24626D01*
X5324Y23441D01*
X3898Y22015D01*
X2712Y20384D01*
X2029Y19043D01*
X1529Y19163D01*
Y72252D01*
Y90768D01*
X1521Y90810D01*
X1648Y92098D01*
X2036Y93377D01*
X2666Y94556D01*
X3488Y95557D01*
X3522Y95580D01*
X3576Y95661D01*
X5043Y96864D01*
X6801Y97804D01*
X8708Y98382D01*
X10596Y98568D01*
X10691Y98549D01*
D02*
G37*
G36*
X116124Y70642D02*
Y69032D01*
X115480D01*
Y65037D01*
X115018Y64845D01*
X109947Y69916D01*
Y74241D01*
X110434Y74728D01*
X110697Y75362D01*
X111258Y75508D01*
X116124Y70642D01*
D02*
G37*
%LPC*%
G36*
X16123Y95378D02*
Y93512D01*
X17990D01*
X17639Y94359D01*
X16970Y95028D01*
X16123Y95378D01*
D02*
G37*
G36*
X15123D02*
X14276Y95028D01*
X13607Y94359D01*
X13256Y93512D01*
X15123D01*
Y95378D01*
D02*
G37*
G36*
X17990Y92512D02*
X16123D01*
Y90645D01*
X16970Y90996D01*
X17639Y91665D01*
X17990Y92512D01*
D02*
G37*
G36*
X15123D02*
X13256D01*
X13607Y91665D01*
X14276Y90996D01*
X15123Y90645D01*
Y92512D01*
D02*
G37*
G36*
X60547Y89264D02*
Y87398D01*
X62414D01*
X62063Y88245D01*
X61394Y88914D01*
X60547Y89264D01*
D02*
G37*
G36*
X59547D02*
X58700Y88914D01*
X58031Y88245D01*
X57680Y87398D01*
X59547D01*
Y89264D01*
D02*
G37*
G36*
X62414Y86398D02*
X60547D01*
Y84531D01*
X61394Y84882D01*
X62063Y85551D01*
X62414Y86398D01*
D02*
G37*
G36*
X59547D02*
X57680D01*
X58031Y85551D01*
X58700Y84882D01*
X59547Y84531D01*
Y86398D01*
D02*
G37*
G36*
X63917Y83910D02*
Y82043D01*
X65784D01*
X65433Y82890D01*
X64764Y83559D01*
X63917Y83910D01*
D02*
G37*
G36*
X62917D02*
X62070Y83559D01*
X61401Y82890D01*
X61051Y82043D01*
X62917D01*
Y83910D01*
D02*
G37*
G36*
X23547D02*
X22700Y83559D01*
X22031Y82890D01*
X21680Y82043D01*
X23547D01*
Y83910D01*
D02*
G37*
G36*
X65784Y81043D02*
X63917D01*
Y79176D01*
X64764Y79527D01*
X65433Y80196D01*
X65784Y81043D01*
D02*
G37*
G36*
X62917D02*
X61051D01*
X61401Y80196D01*
X62070Y79527D01*
X62917Y79176D01*
Y81043D01*
D02*
G37*
G36*
X23547D02*
X21680D01*
X22031Y80196D01*
X22700Y79527D01*
X23547Y79176D01*
Y81043D01*
D02*
G37*
G36*
X78587Y80965D02*
X77740Y80614D01*
X77071Y79945D01*
X76720Y79098D01*
X78587D01*
Y80965D01*
D02*
G37*
G36*
X81453Y78098D02*
X79587D01*
Y76232D01*
X80434Y76582D01*
X81103Y77251D01*
X81453Y78098D01*
D02*
G37*
G36*
X78587D02*
X76720D01*
X77071Y77251D01*
X77740Y76582D01*
X78587Y76232D01*
Y78098D01*
D02*
G37*
G36*
X13284Y83707D02*
X12102D01*
X10968Y83557D01*
X9910Y83119D01*
X9002Y82423D01*
X8306Y81515D01*
X7868Y80458D01*
X7718Y79323D01*
X7868Y78188D01*
X8306Y77131D01*
X9002Y76223D01*
X9910Y75526D01*
X10968Y75088D01*
X12102Y74939D01*
X13284D01*
X14418Y75088D01*
X15475Y75526D01*
X16383Y76223D01*
X17080Y77131D01*
X17518Y78188D01*
X17667Y79323D01*
X17518Y80458D01*
X17080Y81515D01*
X16383Y82423D01*
X15475Y83119D01*
X14418Y83557D01*
X13284Y83707D01*
D02*
G37*
G36*
Y73864D02*
X12102D01*
X10968Y73715D01*
X9910Y73277D01*
X9002Y72580D01*
X8306Y71672D01*
X7868Y70615D01*
X7718Y69480D01*
X7868Y68346D01*
X8306Y67288D01*
X9002Y66380D01*
X9910Y65684D01*
X10968Y65246D01*
X12102Y65096D01*
X13284D01*
X14418Y65246D01*
X15475Y65684D01*
X16383Y66380D01*
X17080Y67288D01*
X17518Y68346D01*
X17667Y69480D01*
X17518Y70615D01*
X17080Y71672D01*
X16383Y72580D01*
X15475Y73277D01*
X14418Y73715D01*
X13284Y73864D01*
D02*
G37*
G36*
X93445Y64225D02*
Y62358D01*
X95312D01*
X94961Y63205D01*
X94292Y63874D01*
X93445Y64225D01*
D02*
G37*
G36*
X92445D02*
X91598Y63874D01*
X90929Y63205D01*
X90578Y62358D01*
X92445D01*
Y64225D01*
D02*
G37*
G36*
X54075D02*
Y62358D01*
X55942D01*
X55591Y63205D01*
X54922Y63874D01*
X54075Y64225D01*
D02*
G37*
G36*
X53075D02*
X52228Y63874D01*
X51559Y63205D01*
X51208Y62358D01*
X53075D01*
Y64225D01*
D02*
G37*
G36*
X13284Y64022D02*
X13193D01*
Y60138D01*
X17602D01*
X17518Y60773D01*
X17080Y61830D01*
X16383Y62738D01*
X15475Y63434D01*
X14418Y63872D01*
X13284Y64022D01*
D02*
G37*
G36*
X12193D02*
X12102D01*
X10968Y63872D01*
X9910Y63434D01*
X9002Y62738D01*
X8306Y61830D01*
X7868Y60773D01*
X7784Y60138D01*
X12193D01*
Y64022D01*
D02*
G37*
G36*
X95312Y61358D02*
X93445D01*
Y59491D01*
X94292Y59842D01*
X94961Y60511D01*
X95312Y61358D01*
D02*
G37*
G36*
X92445D02*
X90578D01*
X90929Y60511D01*
X91598Y59842D01*
X92445Y59491D01*
Y61358D01*
D02*
G37*
G36*
X55942D02*
X54075D01*
Y59491D01*
X54922Y59842D01*
X55591Y60511D01*
X55942Y61358D01*
D02*
G37*
G36*
X53075D02*
X51208D01*
X51559Y60511D01*
X52228Y59842D01*
X53075Y59491D01*
Y61358D01*
D02*
G37*
G36*
X17602Y59138D02*
X13193D01*
Y55254D01*
X13284D01*
X14418Y55403D01*
X15475Y55841D01*
X16383Y56538D01*
X17080Y57446D01*
X17518Y58503D01*
X17602Y59138D01*
D02*
G37*
G36*
X12193D02*
X7784D01*
X7868Y58503D01*
X8306Y57446D01*
X9002Y56538D01*
X9910Y55841D01*
X10968Y55403D01*
X12102Y55254D01*
X12193D01*
Y59138D01*
D02*
G37*
G36*
X21492Y57044D02*
Y55177D01*
X23359D01*
X23008Y56024D01*
X22339Y56693D01*
X21492Y57044D01*
D02*
G37*
G36*
X20492D02*
X19645Y56693D01*
X18976Y56024D01*
X18625Y55177D01*
X20492D01*
Y57044D01*
D02*
G37*
G36*
X50783Y56556D02*
Y54689D01*
X52650D01*
X52299Y55536D01*
X51631Y56205D01*
X50783Y56556D01*
D02*
G37*
G36*
X49784D02*
X48937Y56205D01*
X48267Y55536D01*
X47917Y54689D01*
X49784D01*
Y56556D01*
D02*
G37*
G36*
X23359Y54177D02*
X21492D01*
Y52310D01*
X22339Y52661D01*
X23008Y53330D01*
X23359Y54177D01*
D02*
G37*
G36*
X20492D02*
X18625D01*
X18976Y53330D01*
X19645Y52661D01*
X20492Y52310D01*
Y54177D01*
D02*
G37*
G36*
X136284Y54756D02*
X133776D01*
Y52248D01*
X136284D01*
Y54756D01*
D02*
G37*
G36*
X132776D02*
X130268D01*
Y52248D01*
X132776D01*
Y54756D01*
D02*
G37*
G36*
X52650Y53689D02*
X50783D01*
Y51822D01*
X51631Y52173D01*
X52299Y52842D01*
X52650Y53689D01*
D02*
G37*
G36*
X49784D02*
X47917D01*
X48267Y52842D01*
X48937Y52173D01*
X49784Y51822D01*
Y53689D01*
D02*
G37*
G36*
X136284Y51248D02*
X133776D01*
Y48740D01*
X136284D01*
Y51248D01*
D02*
G37*
G36*
X14957Y54165D02*
X10429D01*
X9731Y54073D01*
X9081Y53804D01*
X8523Y53375D01*
X8094Y52817D01*
X7825Y52166D01*
X7733Y51468D01*
Y48122D01*
X7825Y47424D01*
X8094Y46774D01*
X8523Y46216D01*
X9081Y45787D01*
X9731Y45518D01*
X10429Y45426D01*
X14957D01*
X15655Y45518D01*
X16305Y45787D01*
X16863Y46216D01*
X17292Y46774D01*
X17561Y47424D01*
X17653Y48122D01*
Y51468D01*
X17561Y52166D01*
X17292Y52817D01*
X16863Y53375D01*
X16305Y53804D01*
X15655Y54073D01*
X14957Y54165D01*
D02*
G37*
G36*
X63476Y45816D02*
Y43949D01*
X65343D01*
X64992Y44796D01*
X64323Y45465D01*
X63476Y45816D01*
D02*
G37*
G36*
X62476D02*
X61629Y45465D01*
X60961Y44796D01*
X60610Y43949D01*
X62476D01*
Y45816D01*
D02*
G37*
G36*
X83602Y44540D02*
Y42673D01*
X85469D01*
X85118Y43520D01*
X84449Y44189D01*
X83602Y44540D01*
D02*
G37*
G36*
X82602D02*
X81755Y44189D01*
X81086Y43520D01*
X80736Y42673D01*
X82602D01*
Y44540D01*
D02*
G37*
G36*
X44232D02*
Y42673D01*
X46099D01*
X45748Y43520D01*
X45079Y44189D01*
X44232Y44540D01*
D02*
G37*
G36*
X43232D02*
X42385Y44189D01*
X41716Y43520D01*
X41366Y42673D01*
X43232D01*
Y44540D01*
D02*
G37*
G36*
X65343Y42949D02*
X63476D01*
Y41082D01*
X64323Y41433D01*
X64992Y42102D01*
X65343Y42949D01*
D02*
G37*
G36*
X62476D02*
X60610D01*
X60961Y42102D01*
X61629Y41433D01*
X62476Y41082D01*
Y42949D01*
D02*
G37*
G36*
X85469Y41673D02*
X83602D01*
Y39807D01*
X84449Y40157D01*
X85118Y40826D01*
X85469Y41673D01*
D02*
G37*
G36*
X82602D02*
X80736D01*
X81086Y40826D01*
X81755Y40157D01*
X82602Y39807D01*
Y41673D01*
D02*
G37*
G36*
X46099D02*
X44232D01*
Y39807D01*
X45079Y40157D01*
X45748Y40826D01*
X46099Y41673D01*
D02*
G37*
G36*
X43232D02*
X41366D01*
X41716Y40826D01*
X42385Y40157D01*
X43232Y39807D01*
Y41673D01*
D02*
G37*
G36*
X135661Y29528D02*
X133153D01*
Y27020D01*
X135661D01*
Y29528D01*
D02*
G37*
G36*
X120661D02*
X118154D01*
Y27020D01*
X120661D01*
Y29528D01*
D02*
G37*
G36*
X132153D02*
X129646D01*
Y27020D01*
X132153D01*
Y29528D01*
D02*
G37*
G36*
X117154D02*
X114646D01*
Y27020D01*
X117154D01*
Y29528D01*
D02*
G37*
G36*
X107413Y27264D02*
Y25398D01*
X109280D01*
X108929Y26245D01*
X108260Y26914D01*
X107413Y27264D01*
D02*
G37*
G36*
X106413D02*
X105566Y26914D01*
X104897Y26245D01*
X104547Y25398D01*
X106413D01*
Y27264D01*
D02*
G37*
G36*
X135661Y26020D02*
X133153D01*
Y23512D01*
X135661D01*
Y26020D01*
D02*
G37*
G36*
X132153D02*
X129646D01*
Y23512D01*
X132153D01*
Y26020D01*
D02*
G37*
G36*
X120661D02*
X118154D01*
Y23512D01*
X120661D01*
Y26020D01*
D02*
G37*
G36*
X117154D02*
X114646D01*
Y23512D01*
X117154D01*
Y26020D01*
D02*
G37*
G36*
X54075Y24855D02*
Y22988D01*
X55942D01*
X55591Y23835D01*
X54922Y24504D01*
X54075Y24855D01*
D02*
G37*
G36*
X53075D02*
X52228Y24504D01*
X51559Y23835D01*
X51208Y22988D01*
X53075D01*
Y24855D01*
D02*
G37*
G36*
X109280Y24398D02*
X107413D01*
Y22531D01*
X108260Y22882D01*
X108929Y23551D01*
X109280Y24398D01*
D02*
G37*
G36*
X106413D02*
X104547D01*
X104897Y23551D01*
X105566Y22882D01*
X106413Y22531D01*
Y24398D01*
D02*
G37*
G36*
X55942Y21988D02*
X54075D01*
Y20121D01*
X54922Y20472D01*
X55591Y21141D01*
X55942Y21988D01*
D02*
G37*
G36*
X53075D02*
X51208D01*
X51559Y21141D01*
X52228Y20472D01*
X53075Y20121D01*
Y21988D01*
D02*
G37*
G36*
X85445Y17012D02*
Y15146D01*
X87312D01*
X86961Y15993D01*
X86292Y16662D01*
X85445Y17012D01*
D02*
G37*
G36*
X84445D02*
X83598Y16662D01*
X82929Y15993D01*
X82578Y15146D01*
X84445D01*
Y17012D01*
D02*
G37*
G36*
X53713Y15803D02*
Y13937D01*
X55580D01*
X55229Y14784D01*
X54560Y15453D01*
X53713Y15803D01*
D02*
G37*
G36*
X52713D02*
X51866Y15453D01*
X51197Y14784D01*
X50847Y13937D01*
X52713D01*
Y15803D01*
D02*
G37*
G36*
X34186D02*
Y13937D01*
X36053D01*
X35702Y14784D01*
X35033Y15453D01*
X34186Y15803D01*
D02*
G37*
G36*
X33186D02*
X32339Y15453D01*
X31670Y14784D01*
X31319Y13937D01*
X33186D01*
Y15803D01*
D02*
G37*
G36*
X136216Y15548D02*
Y13681D01*
X138083D01*
X137733Y14528D01*
X137064Y15197D01*
X136216Y15548D01*
D02*
G37*
G36*
X135216D02*
X134370Y15197D01*
X133701Y14528D01*
X133350Y13681D01*
X135216D01*
Y15548D01*
D02*
G37*
G36*
X127917D02*
Y13681D01*
X129784D01*
X129433Y14528D01*
X128764Y15197D01*
X127917Y15548D01*
D02*
G37*
G36*
X126917D02*
X126070Y15197D01*
X125401Y14528D01*
X125051Y13681D01*
X126917D01*
Y15548D01*
D02*
G37*
G36*
X120106D02*
Y13681D01*
X121973D01*
X121622Y14528D01*
X120953Y15197D01*
X120106Y15548D01*
D02*
G37*
G36*
X119106D02*
X118259Y15197D01*
X117590Y14528D01*
X117239Y13681D01*
X119106D01*
Y15548D01*
D02*
G37*
G36*
X87312Y14146D02*
X85445D01*
Y12279D01*
X86292Y12630D01*
X86961Y13299D01*
X87312Y14146D01*
D02*
G37*
G36*
X84445D02*
X82578D01*
X82929Y13299D01*
X83598Y12630D01*
X84445Y12279D01*
Y14146D01*
D02*
G37*
G36*
X55580Y12937D02*
X53713D01*
Y11070D01*
X54560Y11421D01*
X55229Y12090D01*
X55580Y12937D01*
D02*
G37*
G36*
X52713D02*
X50847D01*
X51197Y12090D01*
X51866Y11421D01*
X52713Y11070D01*
Y12937D01*
D02*
G37*
G36*
X36053D02*
X34186D01*
Y11070D01*
X35033Y11421D01*
X35702Y12090D01*
X36053Y12937D01*
D02*
G37*
G36*
X33186D02*
X31319D01*
X31670Y12090D01*
X32339Y11421D01*
X33186Y11070D01*
Y12937D01*
D02*
G37*
G36*
X138083Y12681D02*
X136216D01*
Y10814D01*
X137064Y11165D01*
X137733Y11834D01*
X138083Y12681D01*
D02*
G37*
G36*
X135216D02*
X133350D01*
X133701Y11834D01*
X134370Y11165D01*
X135216Y10814D01*
Y12681D01*
D02*
G37*
G36*
X129784D02*
X127917D01*
Y10814D01*
X128764Y11165D01*
X129433Y11834D01*
X129784Y12681D01*
D02*
G37*
G36*
X126917D02*
X125051D01*
X125401Y11834D01*
X126070Y11165D01*
X126917Y10814D01*
Y12681D01*
D02*
G37*
G36*
X121973D02*
X120106D01*
Y10814D01*
X120953Y11165D01*
X121622Y11834D01*
X121973Y12681D01*
D02*
G37*
G36*
X119106D02*
X117239D01*
X117590Y11834D01*
X118259Y11165D01*
X119106Y10814D01*
Y12681D01*
D02*
G37*
G36*
X90347Y13228D02*
X90327D01*
Y9776D01*
X93779D01*
Y9796D01*
X93510Y10801D01*
X92990Y11703D01*
X92254Y12439D01*
X91352Y12959D01*
X90347Y13228D01*
D02*
G37*
G36*
X89327D02*
X89306D01*
X88301Y12959D01*
X87400Y12439D01*
X86664Y11703D01*
X86143Y10801D01*
X85874Y9796D01*
Y9776D01*
X89327D01*
Y13228D01*
D02*
G37*
G36*
X100552Y52173D02*
X99606D01*
X98732Y51811D01*
X98063Y51142D01*
X97701Y50268D01*
Y49322D01*
X98063Y48448D01*
X98549Y47962D01*
Y19024D01*
X98666Y18438D01*
X98997Y17942D01*
X106142Y10797D01*
X105874Y9796D01*
Y8755D01*
X106143Y7750D01*
X106664Y6848D01*
X107400Y6113D01*
X108301Y5592D01*
X109306Y5323D01*
X110347D01*
X111353Y5592D01*
X112254Y6113D01*
X112990Y6848D01*
X113510Y7750D01*
X113779Y8755D01*
Y9796D01*
X113510Y10801D01*
X112990Y11703D01*
X112254Y12439D01*
X111353Y12959D01*
X110347Y13228D01*
X109306D01*
X108305Y12960D01*
X101608Y19657D01*
Y47962D01*
X102095Y48448D01*
X102457Y49322D01*
Y50268D01*
X102095Y51142D01*
X101426Y51811D01*
X100552Y52173D01*
D02*
G37*
G36*
X100347Y13228D02*
X99306D01*
X98301Y12959D01*
X97400Y12439D01*
X96664Y11703D01*
X96143Y10801D01*
X95874Y9796D01*
Y8755D01*
X96143Y7750D01*
X96664Y6848D01*
X97400Y6113D01*
X98301Y5592D01*
X99306Y5323D01*
X100347D01*
X101353Y5592D01*
X102254Y6113D01*
X102990Y6848D01*
X103510Y7750D01*
X103779Y8755D01*
Y9796D01*
X103510Y10801D01*
X102990Y11703D01*
X102254Y12439D01*
X101353Y12959D01*
X100347Y13228D01*
D02*
G37*
G36*
X93779Y8776D02*
X90327D01*
Y5323D01*
X90347D01*
X91352Y5592D01*
X92254Y6113D01*
X92990Y6848D01*
X93510Y7750D01*
X93779Y8755D01*
Y8776D01*
D02*
G37*
G36*
X89327D02*
X85874D01*
Y8755D01*
X86143Y7750D01*
X86664Y6848D01*
X87400Y6113D01*
X88301Y5592D01*
X89306Y5323D01*
X89327D01*
Y8776D01*
D02*
G37*
G36*
X80347Y13228D02*
X79306D01*
X78301Y12959D01*
X77400Y12439D01*
X76664Y11703D01*
X76143Y10801D01*
X75874Y9796D01*
Y8755D01*
X76143Y7750D01*
X76664Y6848D01*
X77400Y6113D01*
X78301Y5592D01*
X79306Y5323D01*
X80347D01*
X81353Y5592D01*
X82254Y6113D01*
X82990Y6848D01*
X83510Y7750D01*
X83780Y8755D01*
Y9796D01*
X83510Y10801D01*
X82990Y11703D01*
X82254Y12439D01*
X81353Y12959D01*
X80347Y13228D01*
D02*
G37*
%LPD*%
D43*
X82687Y87364D02*
X82708Y87386D01*
X89287D01*
X82687Y87364D02*
X82687Y87335D01*
X78059D02*
X82687D01*
X65417Y74693D02*
X78059Y87335D01*
X41496Y74693D02*
X65417D01*
X69323D01*
Y9780D02*
Y74693D01*
Y9780D02*
X69827Y9276D01*
D44*
X102520Y91780D02*
X105449D01*
X107950Y89279D01*
X111583Y82218D02*
X111995D01*
X111278Y82210D02*
X111570Y82218D01*
X111583Y82218D01*
X127688Y67370D02*
X131811D01*
X127399Y67644D02*
X127688Y67370D01*
X111995Y82218D02*
X127398Y67644D01*
X108418Y69283D02*
X132653Y45047D01*
X108418Y69283D02*
Y76075D01*
X131811Y67370D02*
X132787Y66394D01*
X117165Y39445D02*
Y47867D01*
X115676Y48453D02*
X116580D01*
X113748Y50381D02*
X115676Y48453D01*
X113748Y50381D02*
Y56142D01*
X116580Y48453D02*
X117165Y47867D01*
X87157Y82733D02*
X113748Y56142D01*
X107950Y80979D02*
X117654Y71276D01*
Y66457D02*
Y71276D01*
X107950Y80979D02*
Y89279D01*
X132653Y41008D02*
Y45047D01*
X82067Y82733D02*
X87157D01*
X100079Y19024D02*
X109901Y9202D01*
X109916D01*
X100079Y19024D02*
Y49795D01*
X51542Y97292D02*
X52853D01*
X52197D01*
Y94012D01*
X52853Y93356D01*
X53509D01*
X54165Y94012D01*
X48262Y93356D02*
X49574D01*
X50230Y94012D01*
Y95324D01*
X49574Y95980D01*
X48262D01*
X47606Y95324D01*
Y94668D01*
X50230D01*
X46294Y93356D02*
Y95980D01*
X44326D01*
X43670Y95324D01*
Y93356D01*
X42358D02*
Y95980D01*
X40390D01*
X39734Y95324D01*
Y93356D01*
X31863Y96636D02*
X32519Y97292D01*
X33831D01*
X34487Y96636D01*
Y94012D01*
X33831Y93356D01*
X32519D01*
X31863Y94012D01*
X54165Y86233D02*
Y88857D01*
X52853Y90169D01*
X51542Y88857D01*
Y86233D01*
Y88201D01*
X54165D01*
X50230Y86233D02*
X48918D01*
X49574D01*
Y90169D01*
X50230D01*
X46950Y86233D02*
X45638D01*
X46294D01*
Y90169D01*
X46950D01*
X41702Y86233D02*
X43014D01*
X43670Y86889D01*
Y88201D01*
X43014Y88857D01*
X41702D01*
X41046Y88201D01*
Y87545D01*
X43670D01*
X39734Y86233D02*
Y88857D01*
X37766D01*
X37110Y88201D01*
Y86233D01*
X31863Y90169D02*
X29239D01*
Y89513D01*
X31863Y86889D01*
Y86233D01*
X29239D01*
X54165Y83046D02*
Y82390D01*
X52853Y81078D01*
X51542Y82390D01*
Y83046D01*
X52853Y81078D02*
Y79110D01*
X50230Y81734D02*
Y79766D01*
X49574Y79110D01*
X47606D01*
Y81734D01*
X46294Y79110D02*
Y81734D01*
X44982Y83046D01*
X43670Y81734D01*
Y79110D01*
Y81078D01*
X46294D01*
X42358Y79110D02*
Y81734D01*
X40390D01*
X39734Y81078D01*
Y79110D01*
X31863Y82390D02*
X32519Y83046D01*
X33831D01*
X34487Y82390D01*
Y79766D01*
X33831Y79110D01*
X32519D01*
X31863Y79766D01*
D45*
X13669Y13669D02*
D03*
X127905Y86409D02*
D03*
D46*
X12693Y49795D02*
D03*
D47*
Y59638D02*
D03*
Y69480D02*
D03*
Y79323D02*
D03*
D48*
X109827Y9276D02*
D03*
X99827D02*
D03*
X89827D02*
D03*
X79827D02*
D03*
D49*
X69827D02*
D03*
D50*
X20992Y54677D02*
D03*
X79087Y78598D02*
D03*
X84945Y14646D02*
D03*
X102520Y91780D02*
D03*
X62976Y43449D02*
D03*
X92945Y61858D02*
D03*
X83102Y42173D02*
D03*
X63417Y81543D02*
D03*
X53575Y61858D02*
D03*
Y22488D02*
D03*
X43732Y42173D02*
D03*
X24047Y81543D02*
D03*
X90315Y86898D02*
D03*
X111278Y82210D02*
D03*
X108418Y76075D02*
D03*
X123512Y66882D02*
D03*
X50283Y54189D02*
D03*
X15623Y93012D02*
D03*
X60047Y86898D02*
D03*
X33686Y13437D02*
D03*
X53213D02*
D03*
X106913Y24898D02*
D03*
X119606Y13181D02*
D03*
X41496Y74693D02*
D03*
X135716Y13181D02*
D03*
X127417D02*
D03*
X69323Y74693D02*
D03*
X82067Y82733D02*
D03*
X100079Y49795D02*
D03*
D51*
X118276Y66236D02*
D03*
Y51748D02*
D03*
X133276Y66236D02*
D03*
Y51748D02*
D03*
X132653Y26520D02*
D03*
Y41008D02*
D03*
X117654Y26520D02*
D03*
Y41008D02*
D03*
M02*
