G04*
G04 #@! TF.GenerationSoftware,Altium Limited,Altium Designer,21.4.1 (30)*
G04*
G04 Layer_Color=16711935*
%FSLAX25Y25*%
%MOIN*%
G70*
G04*
G04 #@! TF.SameCoordinates,4DB3B217-B7BD-441B-8BB1-1C5CD1DCED83*
G04*
G04*
G04 #@! TF.FilePolarity,Negative*
G04*
G01*
G75*
%ADD39C,0.06706*%
%ADD40R,0.06706X0.06706*%
%ADD41C,0.16800*%
%ADD42O,0.07493X0.08674*%
G04:AMPARAMS|DCode=43|XSize=74.93mil|YSize=86.74mil|CornerRadius=20.73mil|HoleSize=0mil|Usage=FLASHONLY|Rotation=0.000|XOffset=0mil|YOffset=0mil|HoleType=Round|Shape=RoundedRectangle|*
%AMROUNDEDRECTD43*
21,1,0.07493,0.04528,0,0,0.0*
21,1,0.03347,0.08674,0,0,0.0*
1,1,0.04146,0.01673,-0.02264*
1,1,0.04146,-0.01673,-0.02264*
1,1,0.04146,-0.01673,0.02264*
1,1,0.04146,0.01673,0.02264*
%
%ADD43ROUNDEDRECTD43*%
%ADD44C,0.03556*%
%ADD45C,0.03162*%
D39*
X222673Y210500D02*
D03*
Y200500D02*
D03*
X212673Y210500D02*
D03*
Y200500D02*
D03*
X202673Y210500D02*
D03*
Y200500D02*
D03*
X192673Y210500D02*
D03*
Y200500D02*
D03*
X182673Y210500D02*
D03*
Y200500D02*
D03*
X172673Y210500D02*
D03*
Y200500D02*
D03*
X162673Y210500D02*
D03*
Y200500D02*
D03*
X152673Y210500D02*
D03*
Y200500D02*
D03*
X142673Y210500D02*
D03*
Y200500D02*
D03*
X132673Y210500D02*
D03*
Y200500D02*
D03*
X122673Y210500D02*
D03*
Y200500D02*
D03*
X112673Y210500D02*
D03*
Y200500D02*
D03*
X102673Y210500D02*
D03*
Y200500D02*
D03*
X92673Y210500D02*
D03*
Y200500D02*
D03*
X82673Y210500D02*
D03*
Y200500D02*
D03*
X72673Y210500D02*
D03*
Y200500D02*
D03*
X62673Y210500D02*
D03*
Y200500D02*
D03*
X52673Y210500D02*
D03*
Y200500D02*
D03*
X42673Y210500D02*
D03*
Y200500D02*
D03*
X32673Y210500D02*
D03*
D40*
Y200500D02*
D03*
D41*
X241846Y12587D02*
D03*
X13500D02*
D03*
Y205500D02*
D03*
X241846D02*
D03*
D42*
X128885Y171100D02*
D03*
X119043D02*
D03*
X109200D02*
D03*
D43*
X99357D02*
D03*
D44*
X187008Y137795D02*
D03*
Y177165D02*
D03*
X246063D02*
D03*
X236221Y157480D02*
D03*
X246063Y137795D02*
D03*
X236221Y118110D02*
D03*
X246063Y98425D02*
D03*
X236221Y78740D02*
D03*
X226378Y177165D02*
D03*
Y137795D02*
D03*
X216535Y118110D02*
D03*
X226378Y98425D02*
D03*
X216535Y78740D02*
D03*
X196850Y196850D02*
D03*
X206693Y177165D02*
D03*
X196850Y157480D02*
D03*
Y118110D02*
D03*
X206693Y98425D02*
D03*
X196850Y78740D02*
D03*
X187008Y98425D02*
D03*
X177165Y78740D02*
D03*
X157480D02*
D03*
X137795D02*
D03*
X118110D02*
D03*
X98425Y157480D02*
D03*
Y118110D02*
D03*
Y78740D02*
D03*
X78740Y196850D02*
D03*
X88583Y177165D02*
D03*
Y137795D02*
D03*
X78740Y118110D02*
D03*
X88583Y98425D02*
D03*
X78740Y78740D02*
D03*
X68898Y137795D02*
D03*
X59055Y118110D02*
D03*
X68898Y98425D02*
D03*
X59055Y78740D02*
D03*
X49213Y177165D02*
D03*
X39370Y157480D02*
D03*
X49213Y137795D02*
D03*
X39370Y118110D02*
D03*
X49213Y98425D02*
D03*
X39370Y78740D02*
D03*
X19685Y196850D02*
D03*
X29528Y177165D02*
D03*
X19685Y157480D02*
D03*
X29528Y137795D02*
D03*
X19685Y118110D02*
D03*
X29528Y98425D02*
D03*
X19685Y78740D02*
D03*
D45*
X132000Y129200D02*
D03*
X148023Y100377D02*
D03*
X143800Y100300D02*
D03*
X152100Y100400D02*
D03*
X148800Y116100D02*
D03*
X144300Y111800D02*
D03*
Y116100D02*
D03*
X153569Y180300D02*
D03*
X148969Y111800D02*
D03*
X144369Y126800D02*
D03*
X139200Y100300D02*
D03*
X138500Y124100D02*
D03*
X129600Y95500D02*
D03*
X126700Y134600D02*
D03*
M02*
