G04*
G04 #@! TF.GenerationSoftware,Altium Limited,Altium Designer,21.2.0 (30)*
G04*
G04 Layer_Color=255*
%FSLAX25Y25*%
%MOIN*%
G70*
G04*
G04 #@! TF.SameCoordinates,14206FE4-1D31-4024-8575-2447F3C89696*
G04*
G04*
G04 #@! TF.FilePolarity,Positive*
G04*
G01*
G75*
%ADD48C,0.05906*%
%ADD49R,0.05906X0.05906*%
%ADD50C,0.16000*%
%ADD51O,0.06693X0.07874*%
G04:AMPARAMS|DCode=52|XSize=66.93mil|YSize=78.74mil|CornerRadius=16.73mil|HoleSize=0mil|Usage=FLASHONLY|Rotation=0.000|XOffset=0mil|YOffset=0mil|HoleType=Round|Shape=RoundedRectangle|*
%AMROUNDEDRECTD52*
21,1,0.06693,0.04528,0,0,0.0*
21,1,0.03347,0.07874,0,0,0.0*
1,1,0.03346,0.01673,-0.02264*
1,1,0.03346,-0.01673,-0.02264*
1,1,0.03346,-0.01673,0.02264*
1,1,0.03346,0.01673,0.02264*
%
%ADD52ROUNDEDRECTD52*%
D48*
X222673Y210500D02*
D03*
Y200500D02*
D03*
X212673Y210500D02*
D03*
Y200500D02*
D03*
X202673Y210500D02*
D03*
Y200500D02*
D03*
X192673Y210500D02*
D03*
Y200500D02*
D03*
X182673Y210500D02*
D03*
Y200500D02*
D03*
X172673Y210500D02*
D03*
Y200500D02*
D03*
X162673Y210500D02*
D03*
Y200500D02*
D03*
X152673Y210500D02*
D03*
Y200500D02*
D03*
X142673Y210500D02*
D03*
Y200500D02*
D03*
X132673Y210500D02*
D03*
Y200500D02*
D03*
X122673Y210500D02*
D03*
Y200500D02*
D03*
X112673Y210500D02*
D03*
Y200500D02*
D03*
X102673Y210500D02*
D03*
Y200500D02*
D03*
X92673Y210500D02*
D03*
Y200500D02*
D03*
X82673Y210500D02*
D03*
Y200500D02*
D03*
X72673Y210500D02*
D03*
Y200500D02*
D03*
X62673Y210500D02*
D03*
Y200500D02*
D03*
X52673Y210500D02*
D03*
Y200500D02*
D03*
X42673Y210500D02*
D03*
Y200500D02*
D03*
X32673Y210500D02*
D03*
D49*
Y200500D02*
D03*
D50*
X241846Y12587D02*
D03*
X13500D02*
D03*
Y205500D02*
D03*
X241846D02*
D03*
D51*
X128885Y171100D02*
D03*
X119043D02*
D03*
X109200D02*
D03*
D52*
X99357D02*
D03*
M02*
