M48
;Layer_Color=9474304
;FILE_FORMAT=2:5
INCH,TZ
;TYPE=PLATED
T1F00S00C0.01181
T2F00S00C0.01968
T3F00S00C0.03543
T4F00S00C0.03937
T5F00S00C0.11811
%
T01
X129600Y95500
X139200Y100300
X143800
X148023Y100377
X152100Y100400
X148969Y111800
X148800Y116100
X144300
Y111800
X144369Y126800
X138500Y124100
X132000Y129200
X126700Y134600
X153569Y180300
T02
X19685Y78740
X39370
X59055
X78740
X98425
X118110
X137795
X88583Y98425
X68898
X49213
X29528
X39370Y118110
X59055
X78740
X98425
X88583Y137795
X68898
X49213
X29528
X19685Y118110
X196850
X216535
X236221
X246063Y137795
X226378
X187008
Y98425
X206693
X226378
X246063
X236221Y78740
X216535
X196850
X177165
X157480
X196850Y157480
X187008Y177165
X206693
X226378
X246063
X236221Y157480
X196850Y196850
X78740
X88583Y177165
X98425Y157480
X39370
X19685
X29528Y177165
X49213
X19685Y196850
T03
X162673Y200500
X172673
X182673
X192673
X202673
X212673
X222673
Y210500
X212673
X202673
X192673
X182673
X172673
X162673
X152673
Y200500
X142673
Y210500
X132673
Y200500
X122673
Y210500
X112673
Y200500
X102673
Y210500
X92673
Y200500
X82673
Y210500
X72673
Y200500
X62673
Y210500
X52673
Y200500
X42673
Y210500
X32673
Y200500
T04
X99357Y171100
X109200
X119043
X128885
T05
X13500Y12587
X241846
Y205500
X13500
M30
