G04*
G04 #@! TF.GenerationSoftware,Altium Limited,Altium Designer,21.2.0 (30)*
G04*
G04 Layer_Color=8421504*
%FSLAX25Y25*%
%MOIN*%
G70*
G04*
G04 #@! TF.SameCoordinates,14206FE4-1D31-4024-8575-2447F3C89696*
G04*
G04*
G04 #@! TF.FilePolarity,Positive*
G04*
G01*
G75*
%ADD15R,0.05315X0.03937*%
%ADD16R,0.09843X0.09843*%
%ADD17R,0.01181X0.02874*%
%ADD18R,0.02874X0.01181*%
G04:AMPARAMS|DCode=19|XSize=39.37mil|YSize=39.37mil|CornerRadius=9.84mil|HoleSize=0mil|Usage=FLASHONLY|Rotation=90.000|XOffset=0mil|YOffset=0mil|HoleType=Round|Shape=RoundedRectangle|*
%AMROUNDEDRECTD19*
21,1,0.03937,0.01968,0,0,90.0*
21,1,0.01968,0.03937,0,0,90.0*
1,1,0.01968,0.00984,0.00984*
1,1,0.01968,0.00984,-0.00984*
1,1,0.01968,-0.00984,-0.00984*
1,1,0.01968,-0.00984,0.00984*
%
%ADD19ROUNDEDRECTD19*%
%ADD20R,0.03937X0.05315*%
%ADD21R,0.09449X0.07480*%
%ADD22R,0.02756X0.06102*%
%ADD23R,0.03347X0.02756*%
%ADD24R,0.02756X0.03347*%
%ADD25R,0.06890X0.12598*%
%ADD26R,0.06890X0.03740*%
D15*
X130200Y117958D02*
D03*
Y125242D02*
D03*
X28800Y161358D02*
D03*
Y168642D02*
D03*
X78000Y172742D02*
D03*
Y165458D02*
D03*
D16*
X146236Y113837D02*
D03*
D17*
X142299Y121573D02*
D03*
X150173D02*
D03*
X148205D02*
D03*
X146236D02*
D03*
X144268D02*
D03*
X142299Y106101D02*
D03*
X150173D02*
D03*
X148205D02*
D03*
X146236D02*
D03*
X144268D02*
D03*
D18*
X138500Y109900D02*
D03*
Y117774D02*
D03*
Y115805D02*
D03*
Y113837D02*
D03*
Y111869D02*
D03*
X153972Y109900D02*
D03*
Y117774D02*
D03*
Y115805D02*
D03*
Y113837D02*
D03*
Y111869D02*
D03*
D19*
X163600Y82800D02*
D03*
X35100Y150600D02*
D03*
X128800Y86800D02*
D03*
D20*
X170783Y132700D02*
D03*
X163500D02*
D03*
X171042Y94900D02*
D03*
X163758D02*
D03*
X118885Y91547D02*
D03*
X111602D02*
D03*
D21*
X167400Y105329D02*
D03*
Y121471D02*
D03*
D22*
X107200Y101643D02*
D03*
X112200D02*
D03*
X117200D02*
D03*
X122200D02*
D03*
Y123100D02*
D03*
X117200D02*
D03*
X112200D02*
D03*
X107200D02*
D03*
D23*
X131500Y134700D02*
D03*
Y141196D02*
D03*
D24*
X110552Y138000D02*
D03*
X117048D02*
D03*
D25*
X39698Y168600D02*
D03*
D26*
X64502Y177655D02*
D03*
Y168600D02*
D03*
Y159545D02*
D03*
M02*
