G04*
G04 #@! TF.GenerationSoftware,Altium Limited,Altium Designer,21.2.0 (30)*
G04*
G04 Layer_Color=16711935*
%FSLAX25Y25*%
%MOIN*%
G70*
G04*
G04 #@! TF.SameCoordinates,14206FE4-1D31-4024-8575-2447F3C89696*
G04*
G04*
G04 #@! TF.FilePolarity,Negative*
G04*
G01*
G75*
%ADD39C,0.06706*%
%ADD40R,0.06706X0.06706*%
%ADD41C,0.16800*%
%ADD42O,0.07493X0.08674*%
G04:AMPARAMS|DCode=43|XSize=74.93mil|YSize=86.74mil|CornerRadius=20.73mil|HoleSize=0mil|Usage=FLASHONLY|Rotation=0.000|XOffset=0mil|YOffset=0mil|HoleType=Round|Shape=RoundedRectangle|*
%AMROUNDEDRECTD43*
21,1,0.07493,0.04528,0,0,0.0*
21,1,0.03347,0.08674,0,0,0.0*
1,1,0.04146,0.01673,-0.02264*
1,1,0.04146,-0.01673,-0.02264*
1,1,0.04146,-0.01673,0.02264*
1,1,0.04146,0.01673,0.02264*
%
%ADD43ROUNDEDRECTD43*%
%ADD44C,0.03162*%
D39*
X222673Y210500D02*
D03*
Y200500D02*
D03*
X212673Y210500D02*
D03*
Y200500D02*
D03*
X202673Y210500D02*
D03*
Y200500D02*
D03*
X192673Y210500D02*
D03*
Y200500D02*
D03*
X182673Y210500D02*
D03*
Y200500D02*
D03*
X172673Y210500D02*
D03*
Y200500D02*
D03*
X162673Y210500D02*
D03*
Y200500D02*
D03*
X152673Y210500D02*
D03*
Y200500D02*
D03*
X142673Y210500D02*
D03*
Y200500D02*
D03*
X132673Y210500D02*
D03*
Y200500D02*
D03*
X122673Y210500D02*
D03*
Y200500D02*
D03*
X112673Y210500D02*
D03*
Y200500D02*
D03*
X102673Y210500D02*
D03*
Y200500D02*
D03*
X92673Y210500D02*
D03*
Y200500D02*
D03*
X82673Y210500D02*
D03*
Y200500D02*
D03*
X72673Y210500D02*
D03*
Y200500D02*
D03*
X62673Y210500D02*
D03*
Y200500D02*
D03*
X52673Y210500D02*
D03*
Y200500D02*
D03*
X42673Y210500D02*
D03*
Y200500D02*
D03*
X32673Y210500D02*
D03*
D40*
Y200500D02*
D03*
D41*
X241846Y12587D02*
D03*
X13500D02*
D03*
Y205500D02*
D03*
X241846D02*
D03*
D42*
X128885Y171100D02*
D03*
X119043D02*
D03*
X109200D02*
D03*
D43*
X99357D02*
D03*
D44*
X248000Y192000D02*
D03*
X240000Y176000D02*
D03*
X248000Y160000D02*
D03*
X240000Y144000D02*
D03*
X248000Y128000D02*
D03*
X240000Y112000D02*
D03*
X248000Y96000D02*
D03*
X240000Y80000D02*
D03*
X232000Y192000D02*
D03*
X224000Y176000D02*
D03*
X232000Y160000D02*
D03*
X224000Y144000D02*
D03*
X232000Y128000D02*
D03*
X224000Y112000D02*
D03*
X232000Y96000D02*
D03*
X224000Y80000D02*
D03*
X208000Y208000D02*
D03*
Y176000D02*
D03*
X216000Y160000D02*
D03*
X208000Y144000D02*
D03*
X216000Y128000D02*
D03*
X208000Y112000D02*
D03*
X216000Y96000D02*
D03*
X208000Y80000D02*
D03*
X200000Y192000D02*
D03*
X192000Y176000D02*
D03*
Y144000D02*
D03*
X200000Y128000D02*
D03*
X192000Y112000D02*
D03*
X200000Y96000D02*
D03*
X192000Y80000D02*
D03*
X184000Y192000D02*
D03*
X176000Y176000D02*
D03*
X184000Y160000D02*
D03*
X176000Y144000D02*
D03*
X184000Y128000D02*
D03*
X176000Y112000D02*
D03*
X184000Y96000D02*
D03*
X176000Y80000D02*
D03*
X168000Y160000D02*
D03*
X152000Y96000D02*
D03*
X144000Y80000D02*
D03*
X128000Y144000D02*
D03*
Y80000D02*
D03*
X112000D02*
D03*
X104000Y192000D02*
D03*
Y160000D02*
D03*
X96000Y144000D02*
D03*
X104000Y96000D02*
D03*
X96000Y80000D02*
D03*
X80000Y112000D02*
D03*
X88000Y96000D02*
D03*
X80000Y80000D02*
D03*
X72000Y192000D02*
D03*
Y160000D02*
D03*
Y128000D02*
D03*
X64000Y112000D02*
D03*
X72000Y96000D02*
D03*
X64000Y80000D02*
D03*
X48000Y176000D02*
D03*
X56000Y160000D02*
D03*
X48000Y144000D02*
D03*
X56000Y128000D02*
D03*
X48000Y112000D02*
D03*
X56000Y96000D02*
D03*
X48000Y80000D02*
D03*
X40000Y192000D02*
D03*
X32000Y176000D02*
D03*
Y144000D02*
D03*
X40000Y128000D02*
D03*
X32000Y112000D02*
D03*
X40000Y96000D02*
D03*
X32000Y80000D02*
D03*
X24000Y192000D02*
D03*
X16000Y176000D02*
D03*
Y144000D02*
D03*
X24000Y128000D02*
D03*
X16000Y112000D02*
D03*
X24000Y96000D02*
D03*
X16000Y80000D02*
D03*
X131300Y129900D02*
D03*
X138446Y131409D02*
D03*
X128800Y98800D02*
D03*
X150700Y101000D02*
D03*
X147800Y96400D02*
D03*
X140800Y101500D02*
D03*
X144500Y92000D02*
D03*
X144980Y126800D02*
D03*
X144300Y111800D02*
D03*
Y116100D02*
D03*
X148800D02*
D03*
X148969Y111800D02*
D03*
M02*
