G04*
G04 #@! TF.GenerationSoftware,Altium Limited,Altium Designer,21.4.1 (30)*
G04*
G04 Layer_Physical_Order=2*
G04 Layer_Color=16711680*
%FSLAX25Y25*%
%MOIN*%
G70*
G04*
G04 #@! TF.SameCoordinates,4DB3B217-B7BD-441B-8BB1-1C5CD1DCED83*
G04*
G04*
G04 #@! TF.FilePolarity,Positive*
G04*
G01*
G75*
%ADD46C,0.05906*%
%ADD47R,0.05906X0.05906*%
%ADD48C,0.16000*%
%ADD49O,0.06693X0.07874*%
G04:AMPARAMS|DCode=50|XSize=66.93mil|YSize=78.74mil|CornerRadius=16.73mil|HoleSize=0mil|Usage=FLASHONLY|Rotation=0.000|XOffset=0mil|YOffset=0mil|HoleType=Round|Shape=RoundedRectangle|*
%AMROUNDEDRECTD50*
21,1,0.06693,0.04528,0,0,0.0*
21,1,0.03347,0.07874,0,0,0.0*
1,1,0.03346,0.01673,-0.02264*
1,1,0.03346,-0.01673,-0.02264*
1,1,0.03346,-0.01673,0.02264*
1,1,0.03346,0.01673,0.02264*
%
%ADD50ROUNDEDRECTD50*%
%ADD51C,0.02756*%
%ADD52C,0.02362*%
%ADD53C,0.01500*%
G36*
X3800Y217900D02*
X251400D01*
Y70300D01*
X249000Y67900D01*
X3000Y69000D01*
Y217900D01*
X3400Y218300D01*
X3800Y217900D01*
D02*
G37*
%LPC*%
G36*
X157376Y216987D02*
X156693Y216851D01*
X156114Y216464D01*
X156114Y216464D01*
X153911Y214261D01*
X153194Y214453D01*
X152153D01*
X151147Y214183D01*
X150246Y213663D01*
X149510Y212927D01*
X148990Y212026D01*
X148721Y211020D01*
Y210979D01*
X148258Y210787D01*
X147884Y211162D01*
X147305Y211548D01*
X146623Y211684D01*
X146448D01*
X146357Y212026D01*
X145836Y212927D01*
X145100Y213663D01*
X144199Y214183D01*
X143194Y214453D01*
X142153D01*
X141147Y214183D01*
X140246Y213663D01*
X139510Y212927D01*
X138990Y212026D01*
X138721Y211020D01*
Y210979D01*
X138259Y210787D01*
X137788Y211257D01*
X137210Y211644D01*
X136527Y211780D01*
X136422D01*
X136357Y212026D01*
X135836Y212927D01*
X135100Y213663D01*
X134199Y214183D01*
X133194Y214453D01*
X132153D01*
X131148Y214183D01*
X130246Y213663D01*
X129510Y212927D01*
X128990Y212026D01*
X128720Y211020D01*
Y209980D01*
X128990Y208974D01*
X129510Y208073D01*
X130246Y207337D01*
X131148Y206817D01*
X132153Y206547D01*
X133194D01*
X134199Y206817D01*
X135100Y207337D01*
X135836Y208073D01*
X135916Y208083D01*
X139464Y204536D01*
X139464Y204536D01*
X140042Y204149D01*
X140076Y204142D01*
X140175Y203864D01*
X140192Y203609D01*
X139510Y202927D01*
X138990Y202026D01*
X138721Y201020D01*
Y199980D01*
X138990Y198974D01*
X139510Y198073D01*
X140246Y197337D01*
X141147Y196817D01*
X142153Y196547D01*
X143194D01*
X144199Y196817D01*
X145100Y197337D01*
X145686Y197923D01*
X146186Y197716D01*
Y194851D01*
X146322Y194168D01*
X146709Y193589D01*
X157769Y182529D01*
Y116793D01*
X143458Y102481D01*
X143366D01*
X142564Y102149D01*
X141951Y101535D01*
X141771Y101100D01*
X141229D01*
X141049Y101535D01*
X140436Y102149D01*
X139634Y102481D01*
X138766D01*
X137964Y102149D01*
X137351Y101535D01*
X137019Y100734D01*
Y99866D01*
X137351Y99064D01*
X137964Y98451D01*
X138766Y98119D01*
X138858D01*
X141169Y95807D01*
X141169Y95807D01*
X141748Y95420D01*
X142431Y95285D01*
X142431Y95285D01*
X169079D01*
X169761Y95420D01*
X170340Y95807D01*
X218862Y144329D01*
X218862Y144329D01*
X219249Y144908D01*
X219384Y145590D01*
X219384Y145590D01*
Y197492D01*
X219884Y197699D01*
X220246Y197337D01*
X221147Y196817D01*
X222153Y196547D01*
X222173D01*
Y200500D01*
Y204453D01*
X222153D01*
X221147Y204183D01*
X220246Y203663D01*
X219884Y203301D01*
X219384Y203508D01*
Y204688D01*
X221436Y206739D01*
X222153Y206547D01*
X223194D01*
X224199Y206817D01*
X225100Y207337D01*
X225836Y208073D01*
X226357Y208974D01*
X226626Y209980D01*
Y211020D01*
X226357Y212026D01*
X225836Y212927D01*
X225100Y213663D01*
X224199Y214183D01*
X223194Y214453D01*
X222153D01*
X221147Y214183D01*
X220246Y213663D01*
X219510Y212927D01*
X218990Y212026D01*
X218721Y211020D01*
Y209980D01*
X218913Y209263D01*
X216338Y206688D01*
X215951Y206110D01*
X215816Y205427D01*
Y203601D01*
X215354Y203410D01*
X215100Y203663D01*
X214199Y204183D01*
X213194Y204453D01*
X212153D01*
X211147Y204183D01*
X210246Y203663D01*
X209510Y202927D01*
X208990Y202026D01*
X208720Y201020D01*
Y199980D01*
X208990Y198974D01*
X209510Y198073D01*
X210246Y197337D01*
X211147Y196817D01*
X212153Y196547D01*
X213194D01*
X214199Y196817D01*
X215100Y197337D01*
X215354Y197590D01*
X215816Y197399D01*
Y146329D01*
X179622Y110136D01*
X179160Y110327D01*
Y197716D01*
X179660Y197923D01*
X180246Y197337D01*
X181148Y196817D01*
X182153Y196547D01*
X183194D01*
X184199Y196817D01*
X185100Y197337D01*
X185836Y198073D01*
X186357Y198974D01*
X186626Y199980D01*
Y201020D01*
X186357Y202026D01*
X185836Y202927D01*
X185100Y203663D01*
X184199Y204183D01*
X183194Y204453D01*
X182153D01*
X181148Y204183D01*
X180246Y203663D01*
X179660Y203077D01*
X179160Y203284D01*
Y207716D01*
X179660Y207923D01*
X180246Y207337D01*
X181148Y206817D01*
X182153Y206547D01*
X183194D01*
X184199Y206817D01*
X185100Y207337D01*
X185836Y208073D01*
X186357Y208974D01*
X186626Y209980D01*
Y211020D01*
X186357Y212026D01*
X185836Y212927D01*
X185100Y213663D01*
X184199Y214183D01*
X183194Y214453D01*
X182153D01*
X181148Y214183D01*
X180246Y213663D01*
X179564Y212981D01*
X179309Y212998D01*
X179031Y213097D01*
X179025Y213131D01*
X178638Y213710D01*
X178638Y213710D01*
X175883Y216464D01*
X175304Y216851D01*
X174621Y216987D01*
X157376D01*
X157376Y216987D01*
D02*
G37*
G36*
X193194Y214453D02*
X193173D01*
Y211000D01*
X196626D01*
Y211020D01*
X196357Y212026D01*
X195836Y212927D01*
X195100Y213663D01*
X194199Y214183D01*
X193194Y214453D01*
D02*
G37*
G36*
X192173D02*
X192153D01*
X191147Y214183D01*
X190246Y213663D01*
X189510Y212927D01*
X188990Y212026D01*
X188721Y211020D01*
Y211000D01*
X192173D01*
Y214453D01*
D02*
G37*
G36*
X123194D02*
X123173D01*
Y211000D01*
X126626D01*
Y211020D01*
X126357Y212026D01*
X125836Y212927D01*
X125100Y213663D01*
X124199Y214183D01*
X123194Y214453D01*
D02*
G37*
G36*
X122173D02*
X122153D01*
X121148Y214183D01*
X120246Y213663D01*
X119510Y212927D01*
X118990Y212026D01*
X118720Y211020D01*
Y211000D01*
X122173D01*
Y214453D01*
D02*
G37*
G36*
X93194D02*
X93173D01*
Y211000D01*
X96626D01*
Y211020D01*
X96357Y212026D01*
X95836Y212927D01*
X95100Y213663D01*
X94199Y214183D01*
X93194Y214453D01*
D02*
G37*
G36*
X92173D02*
X92153D01*
X91148Y214183D01*
X90246Y213663D01*
X89510Y212927D01*
X88990Y212026D01*
X88721Y211020D01*
Y211000D01*
X92173D01*
Y214453D01*
D02*
G37*
G36*
X53194D02*
X53173D01*
Y211000D01*
X56626D01*
Y211020D01*
X56357Y212026D01*
X55836Y212927D01*
X55100Y213663D01*
X54199Y214183D01*
X53194Y214453D01*
D02*
G37*
G36*
X52173D02*
X52153D01*
X51148Y214183D01*
X50246Y213663D01*
X49510Y212927D01*
X48990Y212026D01*
X48720Y211020D01*
Y211000D01*
X52173D01*
Y214453D01*
D02*
G37*
G36*
X213194D02*
X212153D01*
X211147Y214183D01*
X210246Y213663D01*
X209510Y212927D01*
X208990Y212026D01*
X208720Y211020D01*
Y209980D01*
X208990Y208974D01*
X209510Y208073D01*
X210246Y207337D01*
X211147Y206817D01*
X212153Y206547D01*
X213194D01*
X214199Y206817D01*
X215100Y207337D01*
X215836Y208073D01*
X216357Y208974D01*
X216626Y209980D01*
Y211020D01*
X216357Y212026D01*
X215836Y212927D01*
X215100Y213663D01*
X214199Y214183D01*
X213194Y214453D01*
D02*
G37*
G36*
X203194D02*
X202153D01*
X201148Y214183D01*
X200246Y213663D01*
X199510Y212927D01*
X198990Y212026D01*
X198721Y211020D01*
Y209980D01*
X198990Y208974D01*
X199510Y208073D01*
X200246Y207337D01*
X201148Y206817D01*
X202153Y206547D01*
X203194D01*
X204199Y206817D01*
X205100Y207337D01*
X205836Y208073D01*
X206357Y208974D01*
X206626Y209980D01*
Y211020D01*
X206357Y212026D01*
X205836Y212927D01*
X205100Y213663D01*
X204199Y214183D01*
X203194Y214453D01*
D02*
G37*
G36*
X196626Y210000D02*
X193173D01*
Y206547D01*
X193194D01*
X194199Y206817D01*
X195100Y207337D01*
X195836Y208073D01*
X196357Y208974D01*
X196626Y209980D01*
Y210000D01*
D02*
G37*
G36*
X192173D02*
X188721D01*
Y209980D01*
X188990Y208974D01*
X189510Y208073D01*
X190246Y207337D01*
X191147Y206817D01*
X192153Y206547D01*
X192173D01*
Y210000D01*
D02*
G37*
G36*
X126626D02*
X123173D01*
Y206547D01*
X123194D01*
X124199Y206817D01*
X125100Y207337D01*
X125836Y208073D01*
X126357Y208974D01*
X126626Y209980D01*
Y210000D01*
D02*
G37*
G36*
X122173D02*
X118720D01*
Y209980D01*
X118990Y208974D01*
X119510Y208073D01*
X120246Y207337D01*
X121148Y206817D01*
X122153Y206547D01*
X122173D01*
Y210000D01*
D02*
G37*
G36*
X113194Y214453D02*
X112153D01*
X111147Y214183D01*
X110246Y213663D01*
X109510Y212927D01*
X108990Y212026D01*
X108721Y211020D01*
Y209980D01*
X108990Y208974D01*
X109510Y208073D01*
X110246Y207337D01*
X111147Y206817D01*
X112153Y206547D01*
X113194D01*
X114199Y206817D01*
X115100Y207337D01*
X115836Y208073D01*
X116357Y208974D01*
X116626Y209980D01*
Y211020D01*
X116357Y212026D01*
X115836Y212927D01*
X115100Y213663D01*
X114199Y214183D01*
X113194Y214453D01*
D02*
G37*
G36*
X103194D02*
X102153D01*
X101147Y214183D01*
X100246Y213663D01*
X99510Y212927D01*
X98990Y212026D01*
X98721Y211020D01*
Y209980D01*
X98990Y208974D01*
X99510Y208073D01*
X100246Y207337D01*
X101147Y206817D01*
X102153Y206547D01*
X103194D01*
X104199Y206817D01*
X105100Y207337D01*
X105836Y208073D01*
X106357Y208974D01*
X106626Y209980D01*
Y211020D01*
X106357Y212026D01*
X105836Y212927D01*
X105100Y213663D01*
X104199Y214183D01*
X103194Y214453D01*
D02*
G37*
G36*
X96626Y210000D02*
X93173D01*
Y206547D01*
X93194D01*
X94199Y206817D01*
X95100Y207337D01*
X95836Y208073D01*
X96357Y208974D01*
X96626Y209980D01*
Y210000D01*
D02*
G37*
G36*
X92173D02*
X88721D01*
Y209980D01*
X88990Y208974D01*
X89510Y208073D01*
X90246Y207337D01*
X91148Y206817D01*
X92153Y206547D01*
X92173D01*
Y210000D01*
D02*
G37*
G36*
X83194Y214453D02*
X82153D01*
X81147Y214183D01*
X80246Y213663D01*
X79510Y212927D01*
X78990Y212026D01*
X78720Y211020D01*
Y209980D01*
X78990Y208974D01*
X79510Y208073D01*
X80246Y207337D01*
X81147Y206817D01*
X82153Y206547D01*
X83194D01*
X84199Y206817D01*
X85100Y207337D01*
X85836Y208073D01*
X86357Y208974D01*
X86626Y209980D01*
Y211020D01*
X86357Y212026D01*
X85836Y212927D01*
X85100Y213663D01*
X84199Y214183D01*
X83194Y214453D01*
D02*
G37*
G36*
X73194D02*
X72153D01*
X71148Y214183D01*
X70246Y213663D01*
X69510Y212927D01*
X68990Y212026D01*
X68721Y211020D01*
Y209980D01*
X68990Y208974D01*
X69510Y208073D01*
X70246Y207337D01*
X71148Y206817D01*
X72153Y206547D01*
X73194D01*
X74199Y206817D01*
X75100Y207337D01*
X75836Y208073D01*
X76357Y208974D01*
X76626Y209980D01*
Y211020D01*
X76357Y212026D01*
X75836Y212927D01*
X75100Y213663D01*
X74199Y214183D01*
X73194Y214453D01*
D02*
G37*
G36*
X63194D02*
X62153D01*
X61147Y214183D01*
X60246Y213663D01*
X59510Y212927D01*
X58990Y212026D01*
X58720Y211020D01*
Y209980D01*
X58990Y208974D01*
X59510Y208073D01*
X60246Y207337D01*
X61147Y206817D01*
X62153Y206547D01*
X63194D01*
X64199Y206817D01*
X65100Y207337D01*
X65836Y208073D01*
X66357Y208974D01*
X66626Y209980D01*
Y211020D01*
X66357Y212026D01*
X65836Y212927D01*
X65100Y213663D01*
X64199Y214183D01*
X63194Y214453D01*
D02*
G37*
G36*
X56626Y210000D02*
X53173D01*
Y206547D01*
X53194D01*
X54199Y206817D01*
X55100Y207337D01*
X55836Y208073D01*
X56357Y208974D01*
X56626Y209980D01*
Y210000D01*
D02*
G37*
G36*
X52173D02*
X48720D01*
Y209980D01*
X48990Y208974D01*
X49510Y208073D01*
X50246Y207337D01*
X51148Y206817D01*
X52153Y206547D01*
X52173D01*
Y210000D01*
D02*
G37*
G36*
X43194Y214453D02*
X42153D01*
X41148Y214183D01*
X40246Y213663D01*
X39510Y212927D01*
X38990Y212026D01*
X38721Y211020D01*
Y209980D01*
X38990Y208974D01*
X39510Y208073D01*
X40246Y207337D01*
X41148Y206817D01*
X42153Y206547D01*
X43194D01*
X44199Y206817D01*
X45100Y207337D01*
X45836Y208073D01*
X46357Y208974D01*
X46626Y209980D01*
Y211020D01*
X46357Y212026D01*
X45836Y212927D01*
X45100Y213663D01*
X44199Y214183D01*
X43194Y214453D01*
D02*
G37*
G36*
X33194D02*
X32153D01*
X31148Y214183D01*
X30246Y213663D01*
X29510Y212927D01*
X28990Y212026D01*
X28721Y211020D01*
Y209980D01*
X28990Y208974D01*
X29510Y208073D01*
X30246Y207337D01*
X31148Y206817D01*
X32153Y206547D01*
X33194D01*
X34199Y206817D01*
X35100Y207337D01*
X35836Y208073D01*
X36357Y208974D01*
X36626Y209980D01*
Y211020D01*
X36357Y212026D01*
X35836Y212927D01*
X35100Y213663D01*
X34199Y214183D01*
X33194Y214453D01*
D02*
G37*
G36*
X223194Y204453D02*
X223173D01*
Y201000D01*
X226626D01*
Y201020D01*
X226357Y202026D01*
X225836Y202927D01*
X225100Y203663D01*
X224199Y204183D01*
X223194Y204453D01*
D02*
G37*
G36*
X73194D02*
X73173D01*
Y201000D01*
X76626D01*
Y201020D01*
X76357Y202026D01*
X75836Y202927D01*
X75100Y203663D01*
X74199Y204183D01*
X73194Y204453D01*
D02*
G37*
G36*
X72173D02*
X72153D01*
X71148Y204183D01*
X70246Y203663D01*
X69510Y202927D01*
X68990Y202026D01*
X68721Y201020D01*
Y201000D01*
X72173D01*
Y204453D01*
D02*
G37*
G36*
X203194D02*
X202153D01*
X201148Y204183D01*
X200246Y203663D01*
X199510Y202927D01*
X198990Y202026D01*
X198721Y201020D01*
Y199980D01*
X198990Y198974D01*
X199138Y198718D01*
X199117Y198654D01*
X198544Y198520D01*
X198197Y198866D01*
X197323Y199228D01*
X196835D01*
X196531Y199625D01*
X196626Y199980D01*
Y201020D01*
X196357Y202026D01*
X195836Y202927D01*
X195100Y203663D01*
X194199Y204183D01*
X193194Y204453D01*
X192153D01*
X191147Y204183D01*
X190246Y203663D01*
X189510Y202927D01*
X188990Y202026D01*
X188721Y201020D01*
Y199980D01*
X188990Y198974D01*
X189510Y198073D01*
X190246Y197337D01*
X191147Y196817D01*
X192153Y196547D01*
X193194D01*
X193972Y196756D01*
X194473Y196444D01*
Y196377D01*
X194834Y195503D01*
X195503Y194834D01*
X196350Y194484D01*
Y196850D01*
X196850D01*
Y197350D01*
X199217D01*
X199050Y197755D01*
X199444Y198109D01*
X199510Y198073D01*
X199587Y197996D01*
X200246Y197337D01*
X201148Y196817D01*
X202153Y196547D01*
X203194D01*
X204199Y196817D01*
X205100Y197337D01*
X205836Y198073D01*
X206357Y198974D01*
X206626Y199980D01*
Y201020D01*
X206357Y202026D01*
X205836Y202927D01*
X205100Y203663D01*
X204199Y204183D01*
X203194Y204453D01*
D02*
G37*
G36*
X226626Y200000D02*
X223173D01*
Y196547D01*
X223194D01*
X224199Y196817D01*
X225100Y197337D01*
X225836Y198073D01*
X226357Y198974D01*
X226626Y199980D01*
Y200000D01*
D02*
G37*
G36*
X133194Y204453D02*
X132153D01*
X131148Y204183D01*
X130246Y203663D01*
X129510Y202927D01*
X128990Y202026D01*
X128720Y201020D01*
Y199980D01*
X128990Y198974D01*
X129510Y198073D01*
X130246Y197337D01*
X131148Y196817D01*
X132153Y196547D01*
X133194D01*
X134199Y196817D01*
X135100Y197337D01*
X135836Y198073D01*
X136357Y198974D01*
X136626Y199980D01*
Y201020D01*
X136357Y202026D01*
X135836Y202927D01*
X135100Y203663D01*
X134199Y204183D01*
X133194Y204453D01*
D02*
G37*
G36*
X113194D02*
X112153D01*
X111147Y204183D01*
X110246Y203663D01*
X109510Y202927D01*
X108990Y202026D01*
X108721Y201020D01*
Y199980D01*
X108990Y198974D01*
X109510Y198073D01*
X110246Y197337D01*
X111147Y196817D01*
X112153Y196547D01*
X113194D01*
X114199Y196817D01*
X115100Y197337D01*
X115836Y198073D01*
X116357Y198974D01*
X116626Y199980D01*
Y201020D01*
X116357Y202026D01*
X115836Y202927D01*
X115100Y203663D01*
X114199Y204183D01*
X113194Y204453D01*
D02*
G37*
G36*
X93194D02*
X92153D01*
X91148Y204183D01*
X90246Y203663D01*
X89510Y202927D01*
X88990Y202026D01*
X88721Y201020D01*
Y199980D01*
X88990Y198974D01*
X89510Y198073D01*
X90246Y197337D01*
X91148Y196817D01*
X92153Y196547D01*
X93194D01*
X94199Y196817D01*
X95100Y197337D01*
X95836Y198073D01*
X96357Y198974D01*
X96626Y199980D01*
Y201020D01*
X96357Y202026D01*
X95836Y202927D01*
X95100Y203663D01*
X94199Y204183D01*
X93194Y204453D01*
D02*
G37*
G36*
X83194D02*
X82153D01*
X81147Y204183D01*
X80246Y203663D01*
X79510Y202927D01*
X78990Y202026D01*
X78720Y201020D01*
Y199980D01*
X78816Y199625D01*
X78511Y199228D01*
X78267D01*
X77393Y198866D01*
X76724Y198197D01*
X76373Y197350D01*
X78740D01*
Y196850D01*
X79240D01*
Y194484D01*
X80087Y194834D01*
X80756Y195503D01*
X81118Y196377D01*
X81618Y196690D01*
X82153Y196547D01*
X83194D01*
X84199Y196817D01*
X85100Y197337D01*
X85836Y198073D01*
X86357Y198974D01*
X86626Y199980D01*
Y201020D01*
X86357Y202026D01*
X85836Y202927D01*
X85100Y203663D01*
X84199Y204183D01*
X83194Y204453D01*
D02*
G37*
G36*
X76626Y200000D02*
X73173D01*
Y196547D01*
X73194D01*
X74199Y196817D01*
X75100Y197337D01*
X75836Y198073D01*
X76357Y198974D01*
X76626Y199980D01*
Y200000D01*
D02*
G37*
G36*
X72173D02*
X68721D01*
Y199980D01*
X68990Y198974D01*
X69510Y198073D01*
X70246Y197337D01*
X71148Y196817D01*
X72153Y196547D01*
X72173D01*
Y200000D01*
D02*
G37*
G36*
X63194Y204453D02*
X62153D01*
X61147Y204183D01*
X60246Y203663D01*
X59510Y202927D01*
X58990Y202026D01*
X58720Y201020D01*
Y199980D01*
X58990Y198974D01*
X59510Y198073D01*
X60246Y197337D01*
X61147Y196817D01*
X62153Y196547D01*
X63194D01*
X64199Y196817D01*
X65100Y197337D01*
X65836Y198073D01*
X66357Y198974D01*
X66626Y199980D01*
Y201020D01*
X66357Y202026D01*
X65836Y202927D01*
X65100Y203663D01*
X64199Y204183D01*
X63194Y204453D01*
D02*
G37*
G36*
X53194D02*
X52153D01*
X51148Y204183D01*
X50246Y203663D01*
X49510Y202927D01*
X48990Y202026D01*
X48720Y201020D01*
Y199980D01*
X48990Y198974D01*
X49510Y198073D01*
X50246Y197337D01*
X51148Y196817D01*
X52153Y196547D01*
X53194D01*
X54199Y196817D01*
X55100Y197337D01*
X55836Y198073D01*
X56357Y198974D01*
X56626Y199980D01*
Y201020D01*
X56357Y202026D01*
X55836Y202927D01*
X55100Y203663D01*
X54199Y204183D01*
X53194Y204453D01*
D02*
G37*
G36*
X43194D02*
X42153D01*
X41148Y204183D01*
X40246Y203663D01*
X39510Y202927D01*
X38990Y202026D01*
X38721Y201020D01*
Y199980D01*
X38990Y198974D01*
X39510Y198073D01*
X40246Y197337D01*
X41148Y196817D01*
X42153Y196547D01*
X43194D01*
X44199Y196817D01*
X45100Y197337D01*
X45836Y198073D01*
X46357Y198974D01*
X46626Y199980D01*
Y201020D01*
X46357Y202026D01*
X45836Y202927D01*
X45100Y203663D01*
X44199Y204183D01*
X43194Y204453D01*
D02*
G37*
G36*
X36626D02*
X28721D01*
Y196547D01*
X36626D01*
Y204453D01*
D02*
G37*
G36*
X242733Y214500D02*
X240960D01*
X239221Y214154D01*
X237583Y213476D01*
X236109Y212491D01*
X234856Y211237D01*
X233871Y209763D01*
X233192Y208125D01*
X232846Y206386D01*
Y204614D01*
X233192Y202875D01*
X233871Y201237D01*
X234856Y199763D01*
X236109Y198509D01*
X237583Y197524D01*
X239221Y196846D01*
X240960Y196500D01*
X242733D01*
X244472Y196846D01*
X246110Y197524D01*
X247584Y198509D01*
X248837Y199763D01*
X249822Y201237D01*
X250501Y202875D01*
X250847Y204614D01*
Y206386D01*
X250501Y208125D01*
X249822Y209763D01*
X248837Y211237D01*
X247584Y212491D01*
X246110Y213476D01*
X244472Y214154D01*
X242733Y214500D01*
D02*
G37*
G36*
X199217Y196350D02*
X197350D01*
Y194484D01*
X198197Y194834D01*
X198866Y195503D01*
X199217Y196350D01*
D02*
G37*
G36*
X78240D02*
X76373D01*
X76724Y195503D01*
X77393Y194834D01*
X78240Y194484D01*
Y196350D01*
D02*
G37*
G36*
X22052D02*
X20185D01*
Y194484D01*
X21032Y194834D01*
X21701Y195503D01*
X22052Y196350D01*
D02*
G37*
G36*
X14386Y214500D02*
X12614D01*
X10875Y214154D01*
X9237Y213476D01*
X7763Y212491D01*
X6509Y211237D01*
X5524Y209763D01*
X4846Y208125D01*
X4500Y206386D01*
Y204614D01*
X4846Y202875D01*
X5524Y201237D01*
X6509Y199763D01*
X7763Y198509D01*
X9237Y197524D01*
X10875Y196846D01*
X12614Y196500D01*
X14386D01*
X16125Y196846D01*
X16807Y197128D01*
X17307Y196794D01*
Y196377D01*
X17669Y195503D01*
X18338Y194834D01*
X19185Y194484D01*
Y196850D01*
X19685D01*
Y197350D01*
X22052D01*
X21701Y198197D01*
X21032Y198866D01*
X20515Y199080D01*
X20398Y199670D01*
X20491Y199763D01*
X21476Y201237D01*
X22154Y202875D01*
X22500Y204614D01*
Y206386D01*
X22154Y208125D01*
X21476Y209763D01*
X20491Y211237D01*
X19237Y212491D01*
X17763Y213476D01*
X16125Y214154D01*
X14386Y214500D01*
D02*
G37*
G36*
X154069Y182454D02*
Y180800D01*
X155723D01*
X155418Y181535D01*
X154804Y182149D01*
X154069Y182454D01*
D02*
G37*
G36*
X153069D02*
X152333Y182149D01*
X151720Y181535D01*
X151415Y180800D01*
X153069D01*
Y182454D01*
D02*
G37*
G36*
X155723Y179800D02*
X154069D01*
Y178146D01*
X154804Y178451D01*
X155418Y179065D01*
X155723Y179800D01*
D02*
G37*
G36*
X153069D02*
X151415D01*
X151720Y179065D01*
X152333Y178451D01*
X153069Y178146D01*
Y179800D01*
D02*
G37*
G36*
X246563Y179532D02*
Y177665D01*
X248430D01*
X248079Y178512D01*
X247410Y179181D01*
X246563Y179532D01*
D02*
G37*
G36*
X245563D02*
X244716Y179181D01*
X244047Y178512D01*
X243696Y177665D01*
X245563D01*
Y179532D01*
D02*
G37*
G36*
X226878D02*
Y177665D01*
X228745D01*
X228394Y178512D01*
X227725Y179181D01*
X226878Y179532D01*
D02*
G37*
G36*
X225878D02*
X225031Y179181D01*
X224362Y178512D01*
X224011Y177665D01*
X225878D01*
Y179532D01*
D02*
G37*
G36*
X207193D02*
Y177665D01*
X209060D01*
X208709Y178512D01*
X208040Y179181D01*
X207193Y179532D01*
D02*
G37*
G36*
X206193D02*
X205346Y179181D01*
X204677Y178512D01*
X204326Y177665D01*
X206193D01*
Y179532D01*
D02*
G37*
G36*
X187508D02*
Y177665D01*
X189375D01*
X189024Y178512D01*
X188355Y179181D01*
X187508Y179532D01*
D02*
G37*
G36*
X186508D02*
X185661Y179181D01*
X184992Y178512D01*
X184641Y177665D01*
X186508D01*
Y179532D01*
D02*
G37*
G36*
X89083D02*
Y177665D01*
X90949D01*
X90599Y178512D01*
X89930Y179181D01*
X89083Y179532D01*
D02*
G37*
G36*
X88083D02*
X87236Y179181D01*
X86567Y178512D01*
X86216Y177665D01*
X88083D01*
Y179532D01*
D02*
G37*
G36*
X49713D02*
Y177665D01*
X51579D01*
X51228Y178512D01*
X50560Y179181D01*
X49713Y179532D01*
D02*
G37*
G36*
X48713D02*
X47866Y179181D01*
X47197Y178512D01*
X46846Y177665D01*
X48713D01*
Y179532D01*
D02*
G37*
G36*
X30028D02*
Y177665D01*
X31894D01*
X31543Y178512D01*
X30875Y179181D01*
X30028Y179532D01*
D02*
G37*
G36*
X29028D02*
X28181Y179181D01*
X27512Y178512D01*
X27161Y177665D01*
X29028D01*
Y179532D01*
D02*
G37*
G36*
X248430Y176665D02*
X246563D01*
Y174799D01*
X247410Y175149D01*
X248079Y175818D01*
X248430Y176665D01*
D02*
G37*
G36*
X245563D02*
X243696D01*
X244047Y175818D01*
X244716Y175149D01*
X245563Y174799D01*
Y176665D01*
D02*
G37*
G36*
X228745D02*
X226878D01*
Y174799D01*
X227725Y175149D01*
X228394Y175818D01*
X228745Y176665D01*
D02*
G37*
G36*
X225878D02*
X224011D01*
X224362Y175818D01*
X225031Y175149D01*
X225878Y174799D01*
Y176665D01*
D02*
G37*
G36*
X209060D02*
X207193D01*
Y174799D01*
X208040Y175149D01*
X208709Y175818D01*
X209060Y176665D01*
D02*
G37*
G36*
X206193D02*
X204326D01*
X204677Y175818D01*
X205346Y175149D01*
X206193Y174799D01*
Y176665D01*
D02*
G37*
G36*
X189375D02*
X187508D01*
Y174799D01*
X188355Y175149D01*
X189024Y175818D01*
X189375Y176665D01*
D02*
G37*
G36*
X186508D02*
X184641D01*
X184992Y175818D01*
X185661Y175149D01*
X186508Y174799D01*
Y176665D01*
D02*
G37*
G36*
X90949D02*
X89083D01*
Y174799D01*
X89930Y175149D01*
X90599Y175818D01*
X90949Y176665D01*
D02*
G37*
G36*
X88083D02*
X86216D01*
X86567Y175818D01*
X87236Y175149D01*
X88083Y174799D01*
Y176665D01*
D02*
G37*
G36*
X51579D02*
X49713D01*
Y174799D01*
X50560Y175149D01*
X51228Y175818D01*
X51579Y176665D01*
D02*
G37*
G36*
X48713D02*
X46846D01*
X47197Y175818D01*
X47866Y175149D01*
X48713Y174799D01*
Y176665D01*
D02*
G37*
G36*
X31894D02*
X30028D01*
Y174799D01*
X30875Y175149D01*
X31543Y175818D01*
X31894Y176665D01*
D02*
G37*
G36*
X29028D02*
X27161D01*
X27512Y175818D01*
X28181Y175149D01*
X29028Y174799D01*
Y176665D01*
D02*
G37*
G36*
X109700Y176009D02*
Y171600D01*
X113584D01*
Y171691D01*
X113435Y172825D01*
X112997Y173882D01*
X112300Y174791D01*
X111392Y175487D01*
X110335Y175925D01*
X109700Y176009D01*
D02*
G37*
G36*
X108700D02*
X108065Y175925D01*
X107008Y175487D01*
X106100Y174791D01*
X105403Y173882D01*
X104965Y172825D01*
X104816Y171691D01*
Y171600D01*
X108700D01*
Y176009D01*
D02*
G37*
G36*
X113584Y170600D02*
X109700D01*
Y166191D01*
X110335Y166275D01*
X111392Y166713D01*
X112300Y167410D01*
X112997Y168317D01*
X113435Y169375D01*
X113584Y170509D01*
Y170600D01*
D02*
G37*
G36*
X108700D02*
X104816D01*
Y170509D01*
X104965Y169375D01*
X105403Y168317D01*
X106100Y167410D01*
X107008Y166713D01*
X108065Y166275D01*
X108700Y166191D01*
Y170600D01*
D02*
G37*
G36*
X119043Y176075D02*
X117908Y175925D01*
X116850Y175487D01*
X115943Y174791D01*
X115246Y173882D01*
X114808Y172825D01*
X114659Y171691D01*
Y170509D01*
X114808Y169375D01*
X115246Y168317D01*
X115943Y167410D01*
X116850Y166713D01*
X117908Y166275D01*
X119043Y166126D01*
X120177Y166275D01*
X121235Y166713D01*
X122143Y167410D01*
X122839Y168317D01*
X123277Y169375D01*
X123426Y170509D01*
Y171691D01*
X123277Y172825D01*
X122839Y173882D01*
X122143Y174791D01*
X121235Y175487D01*
X120177Y175925D01*
X119043Y176075D01*
D02*
G37*
G36*
X236720Y159847D02*
Y157980D01*
X238587D01*
X238236Y158827D01*
X237567Y159496D01*
X236720Y159847D01*
D02*
G37*
G36*
X235720D02*
X234874Y159496D01*
X234205Y158827D01*
X233854Y157980D01*
X235720D01*
Y159847D01*
D02*
G37*
G36*
X197350D02*
Y157980D01*
X199217D01*
X198866Y158827D01*
X198197Y159496D01*
X197350Y159847D01*
D02*
G37*
G36*
X196350D02*
X195503Y159496D01*
X194834Y158827D01*
X194484Y157980D01*
X196350D01*
Y159847D01*
D02*
G37*
G36*
X39870D02*
Y157980D01*
X41737D01*
X41386Y158827D01*
X40717Y159496D01*
X39870Y159847D01*
D02*
G37*
G36*
X38870D02*
X38023Y159496D01*
X37354Y158827D01*
X37003Y157980D01*
X38870D01*
Y159847D01*
D02*
G37*
G36*
X20185D02*
Y157980D01*
X22052D01*
X21701Y158827D01*
X21032Y159496D01*
X20185Y159847D01*
D02*
G37*
G36*
X19185D02*
X18338Y159496D01*
X17669Y158827D01*
X17318Y157980D01*
X19185D01*
Y159847D01*
D02*
G37*
G36*
X238587Y156980D02*
X236720D01*
Y155114D01*
X237567Y155464D01*
X238236Y156133D01*
X238587Y156980D01*
D02*
G37*
G36*
X235720D02*
X233854D01*
X234205Y156133D01*
X234874Y155464D01*
X235720Y155114D01*
Y156980D01*
D02*
G37*
G36*
X199217D02*
X197350D01*
Y155114D01*
X198197Y155464D01*
X198866Y156133D01*
X199217Y156980D01*
D02*
G37*
G36*
X196350D02*
X194484D01*
X194834Y156133D01*
X195503Y155464D01*
X196350Y155114D01*
Y156980D01*
D02*
G37*
G36*
X97925D02*
X96058D01*
X96409Y156133D01*
X97078Y155464D01*
X97925Y155114D01*
Y156980D01*
D02*
G37*
G36*
X41737D02*
X39870D01*
Y155114D01*
X40717Y155464D01*
X41386Y156133D01*
X41737Y156980D01*
D02*
G37*
G36*
X38870D02*
X37003D01*
X37354Y156133D01*
X38023Y155464D01*
X38870Y155114D01*
Y156980D01*
D02*
G37*
G36*
X22052D02*
X20185D01*
Y155114D01*
X21032Y155464D01*
X21701Y156133D01*
X22052Y156980D01*
D02*
G37*
G36*
X19185D02*
X17318D01*
X17669Y156133D01*
X18338Y155464D01*
X19185Y155114D01*
Y156980D01*
D02*
G37*
G36*
X246563Y140162D02*
Y138295D01*
X248430D01*
X248079Y139142D01*
X247410Y139811D01*
X246563Y140162D01*
D02*
G37*
G36*
X245563D02*
X244716Y139811D01*
X244047Y139142D01*
X243696Y138295D01*
X245563D01*
Y140162D01*
D02*
G37*
G36*
X226878D02*
Y138295D01*
X228745D01*
X228394Y139142D01*
X227725Y139811D01*
X226878Y140162D01*
D02*
G37*
G36*
X225878D02*
X225031Y139811D01*
X224362Y139142D01*
X224011Y138295D01*
X225878D01*
Y140162D01*
D02*
G37*
G36*
X187508D02*
Y138295D01*
X189375D01*
X189024Y139142D01*
X188355Y139811D01*
X187508Y140162D01*
D02*
G37*
G36*
X186508D02*
X185661Y139811D01*
X184992Y139142D01*
X184641Y138295D01*
X186508D01*
Y140162D01*
D02*
G37*
G36*
X89083D02*
Y138295D01*
X90949D01*
X90599Y139142D01*
X89930Y139811D01*
X89083Y140162D01*
D02*
G37*
G36*
X88083D02*
X87236Y139811D01*
X86567Y139142D01*
X86216Y138295D01*
X88083D01*
Y140162D01*
D02*
G37*
G36*
X69398D02*
Y138295D01*
X71264D01*
X70914Y139142D01*
X70245Y139811D01*
X69398Y140162D01*
D02*
G37*
G36*
X68398D02*
X67551Y139811D01*
X66882Y139142D01*
X66531Y138295D01*
X68398D01*
Y140162D01*
D02*
G37*
G36*
X49713D02*
Y138295D01*
X51579D01*
X51228Y139142D01*
X50560Y139811D01*
X49713Y140162D01*
D02*
G37*
G36*
X48713D02*
X47866Y139811D01*
X47197Y139142D01*
X46846Y138295D01*
X48713D01*
Y140162D01*
D02*
G37*
G36*
X30028D02*
Y138295D01*
X31894D01*
X31543Y139142D01*
X30875Y139811D01*
X30028Y140162D01*
D02*
G37*
G36*
X29028D02*
X28181Y139811D01*
X27512Y139142D01*
X27161Y138295D01*
X29028D01*
Y140162D01*
D02*
G37*
G36*
X248430Y137295D02*
X246563D01*
Y135429D01*
X247410Y135779D01*
X248079Y136448D01*
X248430Y137295D01*
D02*
G37*
G36*
X245563D02*
X243696D01*
X244047Y136448D01*
X244716Y135779D01*
X245563Y135429D01*
Y137295D01*
D02*
G37*
G36*
X228745D02*
X226878D01*
Y135429D01*
X227725Y135779D01*
X228394Y136448D01*
X228745Y137295D01*
D02*
G37*
G36*
X225878D02*
X224011D01*
X224362Y136448D01*
X225031Y135779D01*
X225878Y135429D01*
Y137295D01*
D02*
G37*
G36*
X189375D02*
X187508D01*
Y135429D01*
X188355Y135779D01*
X189024Y136448D01*
X189375Y137295D01*
D02*
G37*
G36*
X186508D02*
X184641D01*
X184992Y136448D01*
X185661Y135779D01*
X186508Y135429D01*
Y137295D01*
D02*
G37*
G36*
X90949D02*
X89083D01*
Y135429D01*
X89930Y135779D01*
X90599Y136448D01*
X90949Y137295D01*
D02*
G37*
G36*
X88083D02*
X86216D01*
X86567Y136448D01*
X87236Y135779D01*
X88083Y135429D01*
Y137295D01*
D02*
G37*
G36*
X71264D02*
X69398D01*
Y135429D01*
X70245Y135779D01*
X70914Y136448D01*
X71264Y137295D01*
D02*
G37*
G36*
X68398D02*
X66531D01*
X66882Y136448D01*
X67551Y135779D01*
X68398Y135429D01*
Y137295D01*
D02*
G37*
G36*
X51579D02*
X49713D01*
Y135429D01*
X50560Y135779D01*
X51228Y136448D01*
X51579Y137295D01*
D02*
G37*
G36*
X48713D02*
X46846D01*
X47197Y136448D01*
X47866Y135779D01*
X48713Y135429D01*
Y137295D01*
D02*
G37*
G36*
X31894D02*
X30028D01*
Y135429D01*
X30875Y135779D01*
X31543Y136448D01*
X31894Y137295D01*
D02*
G37*
G36*
X29028D02*
X27161D01*
X27512Y136448D01*
X28181Y135779D01*
X29028Y135429D01*
Y137295D01*
D02*
G37*
G36*
X132500Y131354D02*
Y129700D01*
X134154D01*
X133849Y130436D01*
X133236Y131049D01*
X132500Y131354D01*
D02*
G37*
G36*
X131500D02*
X130764Y131049D01*
X130151Y130436D01*
X129846Y129700D01*
X131500D01*
Y131354D01*
D02*
G37*
G36*
X134154Y128700D02*
X132500D01*
Y127046D01*
X133236Y127351D01*
X133849Y127964D01*
X134154Y128700D01*
D02*
G37*
G36*
X131500D02*
X129846D01*
X130151Y127964D01*
X130764Y127351D01*
X131500Y127046D01*
Y128700D01*
D02*
G37*
G36*
X123194Y204453D02*
X122153D01*
X121148Y204183D01*
X120246Y203663D01*
X119510Y202927D01*
X118990Y202026D01*
X118720Y201020D01*
Y199980D01*
X118990Y198974D01*
X119510Y198073D01*
X120246Y197337D01*
X121148Y196817D01*
X122153Y196547D01*
X123194D01*
X123910Y196739D01*
X142585Y178065D01*
Y128100D01*
X142520Y128035D01*
X142188Y127234D01*
Y126366D01*
X142520Y125565D01*
X143133Y124951D01*
X143935Y124619D01*
X144803D01*
X145604Y124951D01*
X146218Y125565D01*
X146550Y126366D01*
Y127234D01*
X146218Y128035D01*
X146153Y128100D01*
Y178804D01*
X146017Y179487D01*
X145631Y180066D01*
X126434Y199263D01*
X126626Y199980D01*
Y201020D01*
X126357Y202026D01*
X125836Y202927D01*
X125100Y203663D01*
X124199Y204183D01*
X123194Y204453D01*
D02*
G37*
G36*
X103194D02*
X102153D01*
X101147Y204183D01*
X100246Y203663D01*
X99510Y202927D01*
X98990Y202026D01*
X98721Y201020D01*
Y199980D01*
X98990Y198974D01*
X99510Y198073D01*
X100246Y197337D01*
X101147Y196817D01*
X102153Y196547D01*
X103194D01*
X103911Y196739D01*
X115182Y185468D01*
X115761Y185081D01*
X116444Y184945D01*
X120315D01*
X128705Y176555D01*
X128525Y176027D01*
X127750Y175925D01*
X126693Y175487D01*
X125785Y174791D01*
X125088Y173882D01*
X124651Y172825D01*
X124501Y171691D01*
Y170509D01*
X124651Y169375D01*
X125088Y168317D01*
X125785Y167410D01*
X126693Y166713D01*
X127750Y166275D01*
X128885Y166126D01*
X130020Y166275D01*
X131077Y166713D01*
X131985Y167410D01*
X132682Y168317D01*
X133120Y169375D01*
X133269Y170509D01*
Y171284D01*
X133769Y171491D01*
X136716Y168544D01*
Y125400D01*
X136651Y125336D01*
X136319Y124534D01*
Y123666D01*
X136651Y122864D01*
X137265Y122251D01*
X138066Y121919D01*
X138934D01*
X139735Y122251D01*
X140349Y122864D01*
X140681Y123666D01*
Y124534D01*
X140349Y125336D01*
X140284Y125400D01*
Y169283D01*
X140284Y169283D01*
X140148Y169966D01*
X139762Y170545D01*
X139762Y170545D01*
X122316Y187991D01*
X121737Y188378D01*
X121054Y188514D01*
X117183D01*
X106434Y199263D01*
X106626Y199980D01*
Y201020D01*
X106357Y202026D01*
X105836Y202927D01*
X105100Y203663D01*
X104199Y204183D01*
X103194Y204453D01*
D02*
G37*
G36*
X236720Y120477D02*
Y118610D01*
X238587D01*
X238236Y119457D01*
X237567Y120126D01*
X236720Y120477D01*
D02*
G37*
G36*
X235720D02*
X234874Y120126D01*
X234205Y119457D01*
X233854Y118610D01*
X235720D01*
Y120477D01*
D02*
G37*
G36*
X217035D02*
Y118610D01*
X218902D01*
X218551Y119457D01*
X217882Y120126D01*
X217035Y120477D01*
D02*
G37*
G36*
X216035D02*
X215188Y120126D01*
X214520Y119457D01*
X214169Y118610D01*
X216035D01*
Y120477D01*
D02*
G37*
G36*
X197350D02*
Y118610D01*
X199217D01*
X198866Y119457D01*
X198197Y120126D01*
X197350Y120477D01*
D02*
G37*
G36*
X196350D02*
X195503Y120126D01*
X194834Y119457D01*
X194484Y118610D01*
X196350D01*
Y120477D01*
D02*
G37*
G36*
X98925D02*
Y118610D01*
X100792D01*
X100441Y119457D01*
X99772Y120126D01*
X98925Y120477D01*
D02*
G37*
G36*
X97925D02*
X97078Y120126D01*
X96409Y119457D01*
X96058Y118610D01*
X97925D01*
Y120477D01*
D02*
G37*
G36*
X79240D02*
Y118610D01*
X81107D01*
X80756Y119457D01*
X80087Y120126D01*
X79240Y120477D01*
D02*
G37*
G36*
X78240D02*
X77393Y120126D01*
X76724Y119457D01*
X76373Y118610D01*
X78240D01*
Y120477D01*
D02*
G37*
G36*
X59555D02*
Y118610D01*
X61422D01*
X61071Y119457D01*
X60402Y120126D01*
X59555Y120477D01*
D02*
G37*
G36*
X58555D02*
X57708Y120126D01*
X57039Y119457D01*
X56688Y118610D01*
X58555D01*
Y120477D01*
D02*
G37*
G36*
X39870D02*
Y118610D01*
X41737D01*
X41386Y119457D01*
X40717Y120126D01*
X39870Y120477D01*
D02*
G37*
G36*
X38870D02*
X38023Y120126D01*
X37354Y119457D01*
X37003Y118610D01*
X38870D01*
Y120477D01*
D02*
G37*
G36*
X20185D02*
Y118610D01*
X22052D01*
X21701Y119457D01*
X21032Y120126D01*
X20185Y120477D01*
D02*
G37*
G36*
X19185D02*
X18338Y120126D01*
X17669Y119457D01*
X17318Y118610D01*
X19185D01*
Y120477D01*
D02*
G37*
G36*
X148300Y118254D02*
X147564Y117949D01*
X146951Y117335D01*
X146821Y117021D01*
X146279D01*
X146149Y117335D01*
X145536Y117949D01*
X144800Y118254D01*
Y116100D01*
X144300D01*
Y115600D01*
X142146D01*
X142451Y114865D01*
X143064Y114251D01*
X143187Y114200D01*
Y113700D01*
X143064Y113649D01*
X142451Y113036D01*
X142146Y112300D01*
X144300D01*
Y111800D01*
X144800D01*
Y109646D01*
X145536Y109951D01*
X146149Y110564D01*
X146364Y111083D01*
X146905D01*
X147120Y110564D01*
X147733Y109951D01*
X148469Y109646D01*
Y111800D01*
X148969D01*
Y112300D01*
X151123D01*
X150818Y113036D01*
X150204Y113649D01*
X150047Y113714D01*
X150036Y114251D01*
X150649Y114865D01*
X150954Y115600D01*
X148800D01*
Y116100D01*
X148300D01*
Y118254D01*
D02*
G37*
G36*
X149300D02*
Y116600D01*
X150954D01*
X150649Y117335D01*
X150036Y117949D01*
X149300Y118254D01*
D02*
G37*
G36*
X143800D02*
X143064Y117949D01*
X142451Y117335D01*
X142146Y116600D01*
X143800D01*
Y118254D01*
D02*
G37*
G36*
X238587Y117610D02*
X236720D01*
Y115744D01*
X237567Y116094D01*
X238236Y116763D01*
X238587Y117610D01*
D02*
G37*
G36*
X235720D02*
X233854D01*
X234205Y116763D01*
X234874Y116094D01*
X235720Y115744D01*
Y117610D01*
D02*
G37*
G36*
X218902D02*
X217035D01*
Y115744D01*
X217882Y116094D01*
X218551Y116763D01*
X218902Y117610D01*
D02*
G37*
G36*
X216035D02*
X214169D01*
X214520Y116763D01*
X215188Y116094D01*
X216035Y115744D01*
Y117610D01*
D02*
G37*
G36*
X199217D02*
X197350D01*
Y115744D01*
X198197Y116094D01*
X198866Y116763D01*
X199217Y117610D01*
D02*
G37*
G36*
X196350D02*
X194484D01*
X194834Y116763D01*
X195503Y116094D01*
X196350Y115744D01*
Y117610D01*
D02*
G37*
G36*
X100792D02*
X98925D01*
Y115744D01*
X99772Y116094D01*
X100441Y116763D01*
X100792Y117610D01*
D02*
G37*
G36*
X97925D02*
X96058D01*
X96409Y116763D01*
X97078Y116094D01*
X97925Y115744D01*
Y117610D01*
D02*
G37*
G36*
X81107D02*
X79240D01*
Y115744D01*
X80087Y116094D01*
X80756Y116763D01*
X81107Y117610D01*
D02*
G37*
G36*
X78240D02*
X76373D01*
X76724Y116763D01*
X77393Y116094D01*
X78240Y115744D01*
Y117610D01*
D02*
G37*
G36*
X61422D02*
X59555D01*
Y115744D01*
X60402Y116094D01*
X61071Y116763D01*
X61422Y117610D01*
D02*
G37*
G36*
X58555D02*
X56688D01*
X57039Y116763D01*
X57708Y116094D01*
X58555Y115744D01*
Y117610D01*
D02*
G37*
G36*
X41737D02*
X39870D01*
Y115744D01*
X40717Y116094D01*
X41386Y116763D01*
X41737Y117610D01*
D02*
G37*
G36*
X38870D02*
X37003D01*
X37354Y116763D01*
X38023Y116094D01*
X38870Y115744D01*
Y117610D01*
D02*
G37*
G36*
X22052D02*
X20185D01*
Y115744D01*
X21032Y116094D01*
X21701Y116763D01*
X22052Y117610D01*
D02*
G37*
G36*
X19185D02*
X17318D01*
X17669Y116763D01*
X18338Y116094D01*
X19185Y115744D01*
Y117610D01*
D02*
G37*
G36*
X151123Y111300D02*
X149469D01*
Y109646D01*
X150204Y109951D01*
X150818Y110564D01*
X151123Y111300D01*
D02*
G37*
G36*
X143800D02*
X142146D01*
X142451Y110564D01*
X143064Y109951D01*
X143800Y109646D01*
Y111300D01*
D02*
G37*
G36*
X246563Y100792D02*
Y98925D01*
X248430D01*
X248079Y99772D01*
X247410Y100441D01*
X246563Y100792D01*
D02*
G37*
G36*
X245563D02*
X244716Y100441D01*
X244047Y99772D01*
X243696Y98925D01*
X245563D01*
Y100792D01*
D02*
G37*
G36*
X226878D02*
Y98925D01*
X228745D01*
X228394Y99772D01*
X227725Y100441D01*
X226878Y100792D01*
D02*
G37*
G36*
X225878D02*
X225031Y100441D01*
X224362Y99772D01*
X224011Y98925D01*
X225878D01*
Y100792D01*
D02*
G37*
G36*
X207193D02*
Y98925D01*
X209060D01*
X208709Y99772D01*
X208040Y100441D01*
X207193Y100792D01*
D02*
G37*
G36*
X206193D02*
X205346Y100441D01*
X204677Y99772D01*
X204326Y98925D01*
X206193D01*
Y100792D01*
D02*
G37*
G36*
X187508D02*
Y98925D01*
X189375D01*
X189024Y99772D01*
X188355Y100441D01*
X187508Y100792D01*
D02*
G37*
G36*
X186508D02*
X185661Y100441D01*
X184992Y99772D01*
X184641Y98925D01*
X186508D01*
Y100792D01*
D02*
G37*
G36*
X89083D02*
Y98925D01*
X90949D01*
X90599Y99772D01*
X89930Y100441D01*
X89083Y100792D01*
D02*
G37*
G36*
X88083D02*
X87236Y100441D01*
X86567Y99772D01*
X86216Y98925D01*
X88083D01*
Y100792D01*
D02*
G37*
G36*
X69398D02*
Y98925D01*
X71264D01*
X70914Y99772D01*
X70245Y100441D01*
X69398Y100792D01*
D02*
G37*
G36*
X68398D02*
X67551Y100441D01*
X66882Y99772D01*
X66531Y98925D01*
X68398D01*
Y100792D01*
D02*
G37*
G36*
X49713D02*
Y98925D01*
X51579D01*
X51228Y99772D01*
X50560Y100441D01*
X49713Y100792D01*
D02*
G37*
G36*
X48713D02*
X47866Y100441D01*
X47197Y99772D01*
X46846Y98925D01*
X48713D01*
Y100792D01*
D02*
G37*
G36*
X30028D02*
Y98925D01*
X31894D01*
X31543Y99772D01*
X30875Y100441D01*
X30028Y100792D01*
D02*
G37*
G36*
X29028D02*
X28181Y100441D01*
X27512Y99772D01*
X27161Y98925D01*
X29028D01*
Y100792D01*
D02*
G37*
G36*
X248430Y97925D02*
X246563D01*
Y96058D01*
X247410Y96409D01*
X248079Y97078D01*
X248430Y97925D01*
D02*
G37*
G36*
X245563D02*
X243696D01*
X244047Y97078D01*
X244716Y96409D01*
X245563Y96058D01*
Y97925D01*
D02*
G37*
G36*
X228745D02*
X226878D01*
Y96058D01*
X227725Y96409D01*
X228394Y97078D01*
X228745Y97925D01*
D02*
G37*
G36*
X225878D02*
X224011D01*
X224362Y97078D01*
X225031Y96409D01*
X225878Y96058D01*
Y97925D01*
D02*
G37*
G36*
X209060D02*
X207193D01*
Y96058D01*
X208040Y96409D01*
X208709Y97078D01*
X209060Y97925D01*
D02*
G37*
G36*
X206193D02*
X204326D01*
X204677Y97078D01*
X205346Y96409D01*
X206193Y96058D01*
Y97925D01*
D02*
G37*
G36*
X189375D02*
X187508D01*
Y96058D01*
X188355Y96409D01*
X189024Y97078D01*
X189375Y97925D01*
D02*
G37*
G36*
X186508D02*
X184641D01*
X184992Y97078D01*
X185661Y96409D01*
X186508Y96058D01*
Y97925D01*
D02*
G37*
G36*
X90949D02*
X89083D01*
Y96058D01*
X89930Y96409D01*
X90599Y97078D01*
X90949Y97925D01*
D02*
G37*
G36*
X88083D02*
X86216D01*
X86567Y97078D01*
X87236Y96409D01*
X88083Y96058D01*
Y97925D01*
D02*
G37*
G36*
X71264D02*
X69398D01*
Y96058D01*
X70245Y96409D01*
X70914Y97078D01*
X71264Y97925D01*
D02*
G37*
G36*
X68398D02*
X66531D01*
X66882Y97078D01*
X67551Y96409D01*
X68398Y96058D01*
Y97925D01*
D02*
G37*
G36*
X51579D02*
X49713D01*
Y96058D01*
X50560Y96409D01*
X51228Y97078D01*
X51579Y97925D01*
D02*
G37*
G36*
X48713D02*
X46846D01*
X47197Y97078D01*
X47866Y96409D01*
X48713Y96058D01*
Y97925D01*
D02*
G37*
G36*
X31894D02*
X30028D01*
Y96058D01*
X30875Y96409D01*
X31543Y97078D01*
X31894Y97925D01*
D02*
G37*
G36*
X29028D02*
X27161D01*
X27512Y97078D01*
X28181Y96409D01*
X29028Y96058D01*
Y97925D01*
D02*
G37*
G36*
X101031Y176060D02*
X97684D01*
X96986Y175968D01*
X96336Y175699D01*
X95778Y175270D01*
X95349Y174712D01*
X95080Y174062D01*
X94988Y173364D01*
Y168836D01*
X95080Y168138D01*
X95349Y167488D01*
X95778Y166930D01*
X96336Y166501D01*
X96986Y166232D01*
X97573Y166155D01*
Y161943D01*
X97709Y161260D01*
X98096Y160681D01*
X98418Y160358D01*
X98211Y159858D01*
X97952D01*
X97078Y159496D01*
X96409Y158827D01*
X96058Y157980D01*
X98425D01*
Y157480D01*
X98925D01*
Y155114D01*
X99772Y155464D01*
X100441Y156133D01*
X100803Y157007D01*
Y157266D01*
X101303Y157474D01*
X124519Y134258D01*
Y134166D01*
X124851Y133364D01*
X124916Y133300D01*
Y98400D01*
X125051Y97717D01*
X125438Y97138D01*
X127419Y95158D01*
Y95066D01*
X127751Y94265D01*
X128365Y93651D01*
X129166Y93319D01*
X130034D01*
X130835Y93651D01*
X131449Y94265D01*
X131781Y95066D01*
Y95934D01*
X131449Y96736D01*
X130835Y97349D01*
X130034Y97681D01*
X129942D01*
X128484Y99139D01*
Y133300D01*
X128549Y133364D01*
X128881Y134166D01*
Y135034D01*
X128549Y135836D01*
X127936Y136449D01*
X127134Y136781D01*
X127042D01*
X101142Y162682D01*
Y166155D01*
X101729Y166232D01*
X102379Y166501D01*
X102937Y166930D01*
X103366Y167488D01*
X103635Y168138D01*
X103727Y168836D01*
Y173364D01*
X103635Y174062D01*
X103366Y174712D01*
X102937Y175270D01*
X102379Y175699D01*
X101729Y175968D01*
X101031Y176060D01*
D02*
G37*
G36*
X236720Y81107D02*
Y79240D01*
X238587D01*
X238236Y80087D01*
X237567Y80756D01*
X236720Y81107D01*
D02*
G37*
G36*
X235720D02*
X234874Y80756D01*
X234205Y80087D01*
X233854Y79240D01*
X235720D01*
Y81107D01*
D02*
G37*
G36*
X217035D02*
Y79240D01*
X218902D01*
X218551Y80087D01*
X217882Y80756D01*
X217035Y81107D01*
D02*
G37*
G36*
X216035D02*
X215188Y80756D01*
X214520Y80087D01*
X214169Y79240D01*
X216035D01*
Y81107D01*
D02*
G37*
G36*
X197350D02*
Y79240D01*
X199217D01*
X198866Y80087D01*
X198197Y80756D01*
X197350Y81107D01*
D02*
G37*
G36*
X196350D02*
X195503Y80756D01*
X194834Y80087D01*
X194484Y79240D01*
X196350D01*
Y81107D01*
D02*
G37*
G36*
X177665D02*
Y79240D01*
X179532D01*
X179181Y80087D01*
X178512Y80756D01*
X177665Y81107D01*
D02*
G37*
G36*
X176665D02*
X175818Y80756D01*
X175149Y80087D01*
X174799Y79240D01*
X176665D01*
Y81107D01*
D02*
G37*
G36*
X157980D02*
Y79240D01*
X159847D01*
X159496Y80087D01*
X158827Y80756D01*
X157980Y81107D01*
D02*
G37*
G36*
X156980D02*
X156133Y80756D01*
X155464Y80087D01*
X155114Y79240D01*
X156980D01*
Y81107D01*
D02*
G37*
G36*
X138295D02*
Y79240D01*
X140162D01*
X139811Y80087D01*
X139142Y80756D01*
X138295Y81107D01*
D02*
G37*
G36*
X137295D02*
X136448Y80756D01*
X135779Y80087D01*
X135429Y79240D01*
X137295D01*
Y81107D01*
D02*
G37*
G36*
X118610D02*
Y79240D01*
X120477D01*
X120126Y80087D01*
X119457Y80756D01*
X118610Y81107D01*
D02*
G37*
G36*
X117610D02*
X116763Y80756D01*
X116094Y80087D01*
X115744Y79240D01*
X117610D01*
Y81107D01*
D02*
G37*
G36*
X98925D02*
Y79240D01*
X100792D01*
X100441Y80087D01*
X99772Y80756D01*
X98925Y81107D01*
D02*
G37*
G36*
X97925D02*
X97078Y80756D01*
X96409Y80087D01*
X96058Y79240D01*
X97925D01*
Y81107D01*
D02*
G37*
G36*
X79240D02*
Y79240D01*
X81107D01*
X80756Y80087D01*
X80087Y80756D01*
X79240Y81107D01*
D02*
G37*
G36*
X78240D02*
X77393Y80756D01*
X76724Y80087D01*
X76373Y79240D01*
X78240D01*
Y81107D01*
D02*
G37*
G36*
X59555D02*
Y79240D01*
X61422D01*
X61071Y80087D01*
X60402Y80756D01*
X59555Y81107D01*
D02*
G37*
G36*
X58555D02*
X57708Y80756D01*
X57039Y80087D01*
X56688Y79240D01*
X58555D01*
Y81107D01*
D02*
G37*
G36*
X39870D02*
Y79240D01*
X41737D01*
X41386Y80087D01*
X40717Y80756D01*
X39870Y81107D01*
D02*
G37*
G36*
X38870D02*
X38023Y80756D01*
X37354Y80087D01*
X37003Y79240D01*
X38870D01*
Y81107D01*
D02*
G37*
G36*
X20185D02*
Y79240D01*
X22052D01*
X21701Y80087D01*
X21032Y80756D01*
X20185Y81107D01*
D02*
G37*
G36*
X19185D02*
X18338Y80756D01*
X17669Y80087D01*
X17318Y79240D01*
X19185D01*
Y81107D01*
D02*
G37*
G36*
X238587Y78240D02*
X236720D01*
Y76373D01*
X237567Y76724D01*
X238236Y77393D01*
X238587Y78240D01*
D02*
G37*
G36*
X235720D02*
X233854D01*
X234205Y77393D01*
X234874Y76724D01*
X235720Y76373D01*
Y78240D01*
D02*
G37*
G36*
X218902D02*
X217035D01*
Y76373D01*
X217882Y76724D01*
X218551Y77393D01*
X218902Y78240D01*
D02*
G37*
G36*
X216035D02*
X214169D01*
X214520Y77393D01*
X215188Y76724D01*
X216035Y76373D01*
Y78240D01*
D02*
G37*
G36*
X199217D02*
X197350D01*
Y76373D01*
X198197Y76724D01*
X198866Y77393D01*
X199217Y78240D01*
D02*
G37*
G36*
X196350D02*
X194484D01*
X194834Y77393D01*
X195503Y76724D01*
X196350Y76373D01*
Y78240D01*
D02*
G37*
G36*
X179532D02*
X177665D01*
Y76373D01*
X178512Y76724D01*
X179181Y77393D01*
X179532Y78240D01*
D02*
G37*
G36*
X176665D02*
X174799D01*
X175149Y77393D01*
X175818Y76724D01*
X176665Y76373D01*
Y78240D01*
D02*
G37*
G36*
X159847D02*
X157980D01*
Y76373D01*
X158827Y76724D01*
X159496Y77393D01*
X159847Y78240D01*
D02*
G37*
G36*
X156980D02*
X155114D01*
X155464Y77393D01*
X156133Y76724D01*
X156980Y76373D01*
Y78240D01*
D02*
G37*
G36*
X140162D02*
X138295D01*
Y76373D01*
X139142Y76724D01*
X139811Y77393D01*
X140162Y78240D01*
D02*
G37*
G36*
X137295D02*
X135429D01*
X135779Y77393D01*
X136448Y76724D01*
X137295Y76373D01*
Y78240D01*
D02*
G37*
G36*
X120477D02*
X118610D01*
Y76373D01*
X119457Y76724D01*
X120126Y77393D01*
X120477Y78240D01*
D02*
G37*
G36*
X117610D02*
X115744D01*
X116094Y77393D01*
X116763Y76724D01*
X117610Y76373D01*
Y78240D01*
D02*
G37*
G36*
X100792D02*
X98925D01*
Y76373D01*
X99772Y76724D01*
X100441Y77393D01*
X100792Y78240D01*
D02*
G37*
G36*
X97925D02*
X96058D01*
X96409Y77393D01*
X97078Y76724D01*
X97925Y76373D01*
Y78240D01*
D02*
G37*
G36*
X81107D02*
X79240D01*
Y76373D01*
X80087Y76724D01*
X80756Y77393D01*
X81107Y78240D01*
D02*
G37*
G36*
X78240D02*
X76373D01*
X76724Y77393D01*
X77393Y76724D01*
X78240Y76373D01*
Y78240D01*
D02*
G37*
G36*
X61422D02*
X59555D01*
Y76373D01*
X60402Y76724D01*
X61071Y77393D01*
X61422Y78240D01*
D02*
G37*
G36*
X58555D02*
X56688D01*
X57039Y77393D01*
X57708Y76724D01*
X58555Y76373D01*
Y78240D01*
D02*
G37*
G36*
X41737D02*
X39870D01*
Y76373D01*
X40717Y76724D01*
X41386Y77393D01*
X41737Y78240D01*
D02*
G37*
G36*
X38870D02*
X37003D01*
X37354Y77393D01*
X38023Y76724D01*
X38870Y76373D01*
Y78240D01*
D02*
G37*
G36*
X22052D02*
X20185D01*
Y76373D01*
X21032Y76724D01*
X21701Y77393D01*
X22052Y78240D01*
D02*
G37*
G36*
X19185D02*
X17318D01*
X17669Y77393D01*
X18338Y76724D01*
X19185Y76373D01*
Y78240D01*
D02*
G37*
%LPD*%
G36*
X169540Y212957D02*
X169510Y212927D01*
X168990Y212026D01*
X168720Y211020D01*
Y211000D01*
X172673D01*
Y210500D01*
X173173D01*
Y206547D01*
X173194D01*
X174199Y206817D01*
X175100Y207337D01*
X175130Y207366D01*
X175592Y207175D01*
Y203825D01*
X175130Y203633D01*
X175100Y203663D01*
X174199Y204183D01*
X173194Y204453D01*
X172153D01*
X171148Y204183D01*
X170246Y203663D01*
X169779Y203196D01*
X169548Y203162D01*
X169131Y203217D01*
X169130Y203217D01*
X165391Y206957D01*
X165292Y207085D01*
X165369Y207606D01*
X165836Y208073D01*
X166357Y208974D01*
X166626Y209980D01*
Y211020D01*
X166357Y212026D01*
X165836Y212927D01*
X165807Y212957D01*
X165998Y213419D01*
X169348D01*
X169540Y212957D01*
D02*
G37*
G36*
X160096Y203513D02*
X159510Y202927D01*
X158990Y202026D01*
X158721Y201020D01*
Y199980D01*
X158990Y198974D01*
X159510Y198073D01*
X160246Y197337D01*
X161147Y196817D01*
X162153Y196547D01*
X163194D01*
X164199Y196817D01*
X165100Y197337D01*
X165686Y197923D01*
X166186Y197716D01*
Y121710D01*
X161800Y117323D01*
X161338Y117515D01*
Y183268D01*
X161338Y183268D01*
X161202Y183951D01*
X160815Y184529D01*
X149755Y195590D01*
Y197175D01*
X150217Y197366D01*
X150246Y197337D01*
X151147Y196817D01*
X152153Y196547D01*
X152173D01*
Y200500D01*
X152673D01*
Y201000D01*
X156626D01*
Y201020D01*
X156357Y202026D01*
X155836Y202927D01*
X155250Y203513D01*
X155457Y204013D01*
X159889D01*
X160096Y203513D01*
D02*
G37*
%LPC*%
G36*
X172173Y210000D02*
X168720D01*
Y209980D01*
X168990Y208974D01*
X169510Y208073D01*
X170246Y207337D01*
X171148Y206817D01*
X172153Y206547D01*
X172173D01*
Y210000D01*
D02*
G37*
G36*
X156626Y200000D02*
X153173D01*
Y196547D01*
X153194D01*
X154199Y196817D01*
X155100Y197337D01*
X155836Y198073D01*
X156357Y198974D01*
X156626Y199980D01*
Y200000D01*
D02*
G37*
%LPD*%
D46*
X222673Y210500D02*
D03*
Y200500D02*
D03*
X212673Y210500D02*
D03*
Y200500D02*
D03*
X202673Y210500D02*
D03*
Y200500D02*
D03*
X192673Y210500D02*
D03*
Y200500D02*
D03*
X182673Y210500D02*
D03*
Y200500D02*
D03*
X172673Y210500D02*
D03*
Y200500D02*
D03*
X162673Y210500D02*
D03*
Y200500D02*
D03*
X152673Y210500D02*
D03*
Y200500D02*
D03*
X142673Y210500D02*
D03*
Y200500D02*
D03*
X132673Y210500D02*
D03*
Y200500D02*
D03*
X122673Y210500D02*
D03*
Y200500D02*
D03*
X112673Y210500D02*
D03*
Y200500D02*
D03*
X102673Y210500D02*
D03*
Y200500D02*
D03*
X92673Y210500D02*
D03*
Y200500D02*
D03*
X82673Y210500D02*
D03*
Y200500D02*
D03*
X72673Y210500D02*
D03*
Y200500D02*
D03*
X62673Y210500D02*
D03*
Y200500D02*
D03*
X52673Y210500D02*
D03*
Y200500D02*
D03*
X42673Y210500D02*
D03*
Y200500D02*
D03*
X32673Y210500D02*
D03*
D47*
Y200500D02*
D03*
D48*
X241846Y12587D02*
D03*
X13500D02*
D03*
Y205500D02*
D03*
X241846D02*
D03*
D49*
X128885Y171100D02*
D03*
X119043D02*
D03*
X109200D02*
D03*
D50*
X99357D02*
D03*
D51*
X187008Y137795D02*
D03*
Y177165D02*
D03*
X246063D02*
D03*
X236221Y157480D02*
D03*
X246063Y137795D02*
D03*
X236221Y118110D02*
D03*
X246063Y98425D02*
D03*
X236221Y78740D02*
D03*
X226378Y177165D02*
D03*
Y137795D02*
D03*
X216535Y118110D02*
D03*
X226378Y98425D02*
D03*
X216535Y78740D02*
D03*
X196850Y196850D02*
D03*
X206693Y177165D02*
D03*
X196850Y157480D02*
D03*
Y118110D02*
D03*
X206693Y98425D02*
D03*
X196850Y78740D02*
D03*
X187008Y98425D02*
D03*
X177165Y78740D02*
D03*
X157480D02*
D03*
X137795D02*
D03*
X118110D02*
D03*
X98425Y157480D02*
D03*
Y118110D02*
D03*
Y78740D02*
D03*
X78740Y196850D02*
D03*
X88583Y177165D02*
D03*
Y137795D02*
D03*
X78740Y118110D02*
D03*
X88583Y98425D02*
D03*
X78740Y78740D02*
D03*
X68898Y137795D02*
D03*
X59055Y118110D02*
D03*
X68898Y98425D02*
D03*
X59055Y78740D02*
D03*
X49213Y177165D02*
D03*
X39370Y157480D02*
D03*
X49213Y137795D02*
D03*
X39370Y118110D02*
D03*
X49213Y98425D02*
D03*
X39370Y78740D02*
D03*
X19685Y196850D02*
D03*
X29528Y177165D02*
D03*
X19685Y157480D02*
D03*
X29528Y137795D02*
D03*
X19685Y118110D02*
D03*
X29528Y98425D02*
D03*
X19685Y78740D02*
D03*
D52*
X132000Y129200D02*
D03*
X148023Y100377D02*
D03*
X143800Y100300D02*
D03*
X152100Y100400D02*
D03*
X148800Y116100D02*
D03*
X144300Y111800D02*
D03*
Y116100D02*
D03*
X153569Y180300D02*
D03*
X148969Y111800D02*
D03*
X144369Y126800D02*
D03*
X139200Y100300D02*
D03*
X138500Y124100D02*
D03*
X129600Y95500D02*
D03*
X126700Y134600D02*
D03*
D53*
X177376Y108195D02*
Y212448D01*
X169181Y100000D02*
X177376Y108195D01*
X174621Y215203D02*
X177376Y212448D01*
X150656Y103102D02*
Y103656D01*
X148023Y100468D02*
X150656Y103102D01*
Y103656D02*
X167971Y120970D01*
X159554Y116054D02*
Y183268D01*
X143800Y100300D02*
X159554Y116054D01*
X148023Y100377D02*
Y100468D01*
X167971Y120970D02*
Y201853D01*
X139200Y100300D02*
X142431Y97069D01*
X169079D01*
X217600Y145590D01*
X152100Y100400D02*
X160557D01*
X160957Y100000D01*
X169181D01*
X126700Y98400D02*
X129600Y95500D01*
X126700Y98400D02*
Y134600D01*
X99357Y161943D02*
X126700Y134600D01*
X146623Y209900D02*
X150725Y205797D01*
X143273Y209900D02*
X146623D01*
X142673Y210500D02*
X143273Y209900D01*
X132673Y210500D02*
X133177Y209996D01*
X136527D02*
X140725Y205797D01*
X133177Y209996D02*
X136527D01*
X147092Y205797D02*
X147970Y204919D01*
X140725Y205797D02*
X147092D01*
X147970Y194851D02*
X159554Y183268D01*
X147970Y194851D02*
Y204919D01*
X150725Y205797D02*
X164027D01*
X144369Y126800D02*
Y178804D01*
X164027Y205797D02*
X167971Y201853D01*
X157376Y215203D02*
X174621D01*
X152673Y210500D02*
X157376Y215203D01*
X217600Y145590D02*
Y205427D01*
X122673Y200500D02*
X144369Y178804D01*
X138500Y124100D02*
Y169283D01*
X102673Y200500D02*
X116444Y186729D01*
X121054D01*
X138500Y169283D01*
X99357Y161943D02*
Y171100D01*
X217600Y205427D02*
X222673Y210500D01*
M02*
