G04*
G04 #@! TF.GenerationSoftware,Altium Limited,Altium Designer,21.4.1 (30)*
G04*
G04 Layer_Physical_Order=1*
G04 Layer_Color=255*
%FSLAX25Y25*%
%MOIN*%
G70*
G04*
G04 #@! TF.SameCoordinates,4DB3B217-B7BD-441B-8BB1-1C5CD1DCED83*
G04*
G04*
G04 #@! TF.FilePolarity,Positive*
G04*
G01*
G75*
%ADD13C,0.01000*%
%ADD15R,0.05315X0.03937*%
%ADD16R,0.09843X0.09843*%
%ADD17R,0.01181X0.02874*%
%ADD18R,0.02874X0.01181*%
G04:AMPARAMS|DCode=19|XSize=39.37mil|YSize=39.37mil|CornerRadius=9.84mil|HoleSize=0mil|Usage=FLASHONLY|Rotation=90.000|XOffset=0mil|YOffset=0mil|HoleType=Round|Shape=RoundedRectangle|*
%AMROUNDEDRECTD19*
21,1,0.03937,0.01968,0,0,90.0*
21,1,0.01968,0.03937,0,0,90.0*
1,1,0.01968,0.00984,0.00984*
1,1,0.01968,0.00984,-0.00984*
1,1,0.01968,-0.00984,-0.00984*
1,1,0.01968,-0.00984,0.00984*
%
%ADD19ROUNDEDRECTD19*%
%ADD20R,0.03937X0.05315*%
%ADD21R,0.09449X0.07480*%
%ADD22R,0.02756X0.06102*%
%ADD23R,0.03347X0.02756*%
%ADD24R,0.02756X0.03347*%
%ADD25R,0.06890X0.12598*%
%ADD26R,0.06890X0.03740*%
%ADD46C,0.05906*%
%ADD47R,0.05906X0.05906*%
%ADD48C,0.16000*%
%ADD49O,0.06693X0.07874*%
G04:AMPARAMS|DCode=50|XSize=66.93mil|YSize=78.74mil|CornerRadius=16.73mil|HoleSize=0mil|Usage=FLASHONLY|Rotation=0.000|XOffset=0mil|YOffset=0mil|HoleType=Round|Shape=RoundedRectangle|*
%AMROUNDEDRECTD50*
21,1,0.06693,0.04528,0,0,0.0*
21,1,0.03347,0.07874,0,0,0.0*
1,1,0.03346,0.01673,-0.02264*
1,1,0.03346,-0.01673,-0.02264*
1,1,0.03346,-0.01673,0.02264*
1,1,0.03346,0.01673,0.02264*
%
%ADD50ROUNDEDRECTD50*%
%ADD51C,0.02756*%
%ADD52C,0.02362*%
G36*
X128322Y214609D02*
X126592Y212879D01*
X126511Y212758D01*
X125923Y212777D01*
X125836Y212927D01*
X125100Y213663D01*
X124199Y214183D01*
X123194Y214453D01*
X123173D01*
Y210500D01*
X122673D01*
Y210000D01*
X118720D01*
Y209980D01*
X118990Y208974D01*
X119510Y208073D01*
X119545Y208039D01*
X119353Y207577D01*
X115993D01*
X115802Y208039D01*
X115836Y208073D01*
X116357Y208974D01*
X116626Y209980D01*
Y211020D01*
X116358Y212022D01*
X119407Y215071D01*
X128130D01*
X128322Y214609D01*
D02*
G37*
G36*
X3700Y218200D02*
X117568D01*
X117720Y217700D01*
X117692Y217681D01*
X114195Y214184D01*
X113194Y214453D01*
X112153D01*
X111147Y214183D01*
X110246Y213663D01*
X109510Y212927D01*
X108990Y212026D01*
X108721Y211020D01*
Y209980D01*
X108990Y208974D01*
X109510Y208073D01*
X109545Y208039D01*
X109353Y207577D01*
X107759D01*
X106358Y208978D01*
X106626Y209980D01*
Y211020D01*
X106357Y212026D01*
X105836Y212927D01*
X105100Y213663D01*
X104199Y214183D01*
X103194Y214453D01*
X102153D01*
X101147Y214183D01*
X100246Y213663D01*
X99510Y212927D01*
X98990Y212026D01*
X98721Y211020D01*
Y209980D01*
X98990Y208974D01*
X99510Y208073D01*
X100246Y207337D01*
X101147Y206817D01*
X102153Y206547D01*
X103194D01*
X104195Y206816D01*
X106045Y204966D01*
X106541Y204634D01*
X107126Y204518D01*
X110727D01*
X110861Y204018D01*
X110246Y203663D01*
X109510Y202927D01*
X108990Y202026D01*
X108721Y201020D01*
Y199980D01*
X108990Y198974D01*
X109510Y198073D01*
X109545Y198039D01*
X109353Y197577D01*
X105993D01*
X105802Y198039D01*
X105836Y198073D01*
X106357Y198974D01*
X106626Y199980D01*
Y201020D01*
X106357Y202026D01*
X105836Y202927D01*
X105100Y203663D01*
X104199Y204183D01*
X103194Y204453D01*
X102153D01*
X101147Y204183D01*
X100246Y203663D01*
X99510Y202927D01*
X98990Y202026D01*
X98721Y201020D01*
Y199980D01*
X98990Y198974D01*
X99510Y198073D01*
X99545Y198039D01*
X99353Y197577D01*
X95993D01*
X95802Y198039D01*
X95836Y198073D01*
X96357Y198974D01*
X96626Y199980D01*
Y201020D01*
X96357Y202026D01*
X95836Y202927D01*
X95100Y203663D01*
X94199Y204183D01*
X93194Y204453D01*
X92153D01*
X91148Y204183D01*
X90246Y203663D01*
X89510Y202927D01*
X88990Y202026D01*
X88721Y201020D01*
Y199980D01*
X88990Y198974D01*
X89510Y198073D01*
X89545Y198039D01*
X89353Y197577D01*
X87760D01*
X86358Y198978D01*
X86626Y199980D01*
Y201020D01*
X86357Y202026D01*
X85836Y202927D01*
X85100Y203663D01*
X84199Y204183D01*
X83194Y204453D01*
X82153D01*
X81147Y204183D01*
X80246Y203663D01*
X79510Y202927D01*
X78990Y202026D01*
X78720Y201020D01*
Y199980D01*
X78816Y199625D01*
X78511Y199228D01*
X78267D01*
X77393Y198866D01*
X76724Y198197D01*
X76373Y197350D01*
X78740D01*
Y196850D01*
X79240D01*
Y194484D01*
X80087Y194834D01*
X80756Y195503D01*
X81118Y196377D01*
X81618Y196690D01*
X82153Y196547D01*
X83194D01*
X84195Y196816D01*
X86045Y194966D01*
X86541Y194634D01*
X87126Y194518D01*
X124518D01*
X125103Y194634D01*
X125599Y194966D01*
X128755Y198121D01*
X128835Y198242D01*
X129424Y198223D01*
X129510Y198073D01*
X130246Y197337D01*
X131148Y196817D01*
X132153Y196547D01*
X133194D01*
X134195Y196816D01*
X140158Y190852D01*
Y126233D01*
X139963Y126102D01*
X139658Y125981D01*
X138934Y126281D01*
X138066D01*
X137374Y125995D01*
X136874Y126212D01*
Y137646D01*
X136758Y138232D01*
X136426Y138728D01*
X133961Y141194D01*
Y143361D01*
X129039D01*
Y140194D01*
X128983Y140110D01*
X128906Y139720D01*
Y136179D01*
X128205D01*
X127936Y136449D01*
X127134Y136781D01*
X126266D01*
X125464Y136449D01*
X124851Y135836D01*
X124519Y135034D01*
Y134582D01*
X121119Y131181D01*
X120787Y130685D01*
X120671Y130100D01*
Y126939D01*
X120035D01*
Y119261D01*
X124365D01*
Y120943D01*
X124865Y121150D01*
X127734Y118281D01*
X127830Y117800D01*
X127955Y117612D01*
Y114161D01*
X132630D01*
X132868Y113866D01*
X132663Y113398D01*
X115752D01*
X115167Y113282D01*
X114671Y112950D01*
X107202Y105482D01*
X105035D01*
Y97805D01*
X109365D01*
Y97805D01*
X109822Y97700D01*
Y97592D01*
X111700D01*
Y101643D01*
X112700D01*
Y97592D01*
X114578D01*
Y97700D01*
X115035Y97805D01*
X115078Y97805D01*
X115671D01*
Y95126D01*
X114570D01*
Y95205D01*
X112102D01*
Y91547D01*
Y87890D01*
X114570D01*
Y87969D01*
X116818D01*
X117209Y88046D01*
X117293Y88102D01*
X121641D01*
Y88471D01*
X126218D01*
X126247Y88324D01*
X126638Y87739D01*
X127225Y87347D01*
X127916Y87209D01*
X129884D01*
X130576Y87347D01*
X131161Y87739D01*
X131553Y88324D01*
X131691Y89016D01*
Y90984D01*
X131553Y91676D01*
X131161Y92261D01*
X130869Y92457D01*
Y93684D01*
X131449Y94265D01*
X131781Y95066D01*
Y95934D01*
X131449Y96736D01*
X130835Y97349D01*
X130034Y97681D01*
X129166D01*
X128365Y97349D01*
X127751Y96736D01*
X127419Y95934D01*
Y95066D01*
X127751Y94265D01*
X127810Y94205D01*
Y92770D01*
X127225Y92653D01*
X126638Y92261D01*
X126247Y91676D01*
X126218Y91529D01*
X121641D01*
Y94992D01*
X118729D01*
Y97805D01*
X119365D01*
Y105482D01*
X115078D01*
X115035Y105482D01*
X114578Y105586D01*
Y105694D01*
X112394D01*
X112203Y106156D01*
X116385Y110339D01*
X123723D01*
X123914Y109877D01*
X121119Y107081D01*
X120787Y106585D01*
X120671Y106000D01*
Y105482D01*
X120035D01*
Y97805D01*
X124365D01*
Y105482D01*
X124365D01*
X124213Y105850D01*
X126734Y108371D01*
X138500D01*
X139085Y108487D01*
X139138Y108522D01*
X140315D01*
Y107916D01*
X140921D01*
Y106738D01*
X140886Y106686D01*
X140770Y106101D01*
Y104033D01*
X139218Y102481D01*
X138766D01*
X137964Y102149D01*
X137351Y101535D01*
X137019Y100734D01*
Y99866D01*
X137351Y99064D01*
X137964Y98451D01*
X138766Y98119D01*
X139634D01*
X140436Y98451D01*
X141049Y99064D01*
X141229Y99500D01*
X141771D01*
X141951Y99064D01*
X142564Y98451D01*
X143366Y98119D01*
X144234D01*
X145036Y98451D01*
X145649Y99064D01*
X145677Y99133D01*
X146208Y99107D01*
X146787Y98528D01*
X147589Y98196D01*
X148456D01*
X149258Y98528D01*
X149764Y99034D01*
X150042Y99108D01*
X150372Y99043D01*
X150865Y98551D01*
X151666Y98219D01*
X152534D01*
X153335Y98551D01*
X153949Y99164D01*
X154281Y99966D01*
Y100834D01*
X153949Y101636D01*
X153335Y102249D01*
X152534Y102581D01*
X152082D01*
X151703Y102960D01*
Y106101D01*
X151586Y106686D01*
X151551Y106738D01*
Y107916D01*
X152157D01*
Y108522D01*
X153335D01*
X153387Y108487D01*
X153972Y108371D01*
X157744D01*
X158626Y107488D01*
X159123Y107156D01*
X159708Y107040D01*
X161888D01*
Y100802D01*
X169512D01*
Y98858D01*
X169012Y98471D01*
X168975Y98479D01*
X166727D01*
Y98558D01*
X164258D01*
Y94900D01*
X163758D01*
Y94400D01*
X160790D01*
Y91242D01*
X162071D01*
Y85699D01*
X161841Y85653D01*
X161185Y85215D01*
X160747Y84558D01*
X160593Y83784D01*
Y83300D01*
X163600D01*
X166607D01*
Y83784D01*
X166453Y84558D01*
X166015Y85215D01*
X165358Y85653D01*
X165129Y85699D01*
Y91242D01*
X166727D01*
Y91321D01*
X168975D01*
X169365Y91399D01*
X169449Y91455D01*
X173798D01*
Y98345D01*
X172571D01*
Y100802D01*
X172912D01*
Y108645D01*
X173066Y108876D01*
X173144Y109266D01*
Y117534D01*
X173066Y117924D01*
X172912Y118155D01*
Y125998D01*
X172313D01*
Y129255D01*
X173539D01*
Y136145D01*
X169191D01*
X169107Y136201D01*
X168717Y136279D01*
X166469D01*
Y136357D01*
X164000D01*
Y132700D01*
Y129042D01*
X166469D01*
Y129121D01*
X168717D01*
X168754Y129129D01*
X169254Y128742D01*
Y125998D01*
X161888D01*
Y119106D01*
X159041Y116259D01*
X158652Y116578D01*
X158713Y116668D01*
X158829Y117253D01*
Y154966D01*
X168481Y164619D01*
X168813Y165115D01*
X168929Y165700D01*
Y198079D01*
X169429Y198213D01*
X169510Y198073D01*
X170246Y197337D01*
X171148Y196817D01*
X172153Y196547D01*
X173194D01*
X174199Y196817D01*
X175100Y197337D01*
X175836Y198073D01*
X176357Y198974D01*
X176626Y199980D01*
Y201020D01*
X176357Y202026D01*
X175836Y202927D01*
X175100Y203663D01*
X174199Y204183D01*
X173194Y204453D01*
X172153D01*
X171148Y204183D01*
X170246Y203663D01*
X169510Y202927D01*
X169429Y202787D01*
X168929Y202921D01*
Y208079D01*
X169429Y208213D01*
X169510Y208073D01*
X170246Y207337D01*
X171148Y206817D01*
X172153Y206547D01*
X172173D01*
Y210500D01*
Y214453D01*
X172153D01*
X171148Y214183D01*
X170246Y213663D01*
X169510Y212927D01*
X169429Y212787D01*
X168929Y212921D01*
Y216014D01*
X168813Y216599D01*
X168481Y217096D01*
X167896Y217681D01*
X167868Y217700D01*
X168020Y218200D01*
X251300D01*
Y206669D01*
X250800Y206620D01*
X250501Y208125D01*
X249822Y209763D01*
X248837Y211237D01*
X247584Y212491D01*
X246110Y213476D01*
X244472Y214154D01*
X242733Y214500D01*
X240960D01*
X239221Y214154D01*
X237583Y213476D01*
X236109Y212491D01*
X234856Y211237D01*
X233871Y209763D01*
X233192Y208125D01*
X232846Y206386D01*
Y204614D01*
X233192Y202875D01*
X233871Y201237D01*
X234856Y199763D01*
X236109Y198509D01*
X237583Y197524D01*
X239221Y196846D01*
X240960Y196500D01*
X242733D01*
X244472Y196846D01*
X246110Y197524D01*
X247584Y198509D01*
X248837Y199763D01*
X249822Y201237D01*
X250501Y202875D01*
X250800Y204380D01*
X251300Y204331D01*
Y70600D01*
X248900Y68200D01*
X2900Y69300D01*
Y218200D01*
X3300Y218600D01*
X3700Y218200D01*
D02*
G37*
G36*
X153173Y196547D02*
X153194D01*
X154199Y196817D01*
X155100Y197337D01*
X155371Y197607D01*
X155871Y197400D01*
Y181736D01*
X155591Y181612D01*
X155371Y181583D01*
X154804Y182149D01*
X154069Y182454D01*
Y180300D01*
Y178146D01*
X154804Y178451D01*
X155371Y179017D01*
X155591Y178988D01*
X155871Y178864D01*
Y164480D01*
X152891Y161500D01*
X152559Y161004D01*
X152443Y160418D01*
Y120140D01*
X152157Y119758D01*
X151551D01*
Y120935D01*
X151586Y120988D01*
X151703Y121573D01*
Y178375D01*
X152203Y178582D01*
X152333Y178451D01*
X153069Y178146D01*
Y180300D01*
Y182454D01*
X152333Y182149D01*
X152203Y182018D01*
X151703Y182225D01*
Y196257D01*
X152099Y196562D01*
X152153Y196547D01*
X152173D01*
Y200500D01*
X153173D01*
Y196547D01*
D02*
G37*
G36*
X129039Y132535D02*
X133816D01*
Y131122D01*
X133353Y130931D01*
X133236Y131049D01*
X132500Y131354D01*
Y129200D01*
X132000D01*
Y128700D01*
X129846D01*
X130151Y127964D01*
X130447Y127668D01*
X130240Y127169D01*
X127743D01*
Y124700D01*
X131400D01*
Y123700D01*
X127743D01*
Y123252D01*
X127281Y123060D01*
X126159Y124181D01*
X125663Y124513D01*
X125078Y124629D01*
X124365D01*
Y126939D01*
X123729D01*
Y129466D01*
X126682Y132419D01*
X127134D01*
X127936Y132751D01*
X128305Y133121D01*
X129039D01*
Y132535D01*
D02*
G37*
%LPC*%
G36*
X122173Y214453D02*
X122153D01*
X121148Y214183D01*
X120246Y213663D01*
X119510Y212927D01*
X118990Y212026D01*
X118720Y211020D01*
Y211000D01*
X122173D01*
Y214453D01*
D02*
G37*
G36*
X43194D02*
X42153D01*
X41148Y214183D01*
X40246Y213663D01*
X39510Y212927D01*
X38992Y212029D01*
X36355D01*
X35836Y212927D01*
X35100Y213663D01*
X34199Y214183D01*
X33194Y214453D01*
X32153D01*
X31148Y214183D01*
X30246Y213663D01*
X29510Y212927D01*
X28990Y212026D01*
X28721Y211020D01*
Y209980D01*
X28990Y208974D01*
X29510Y208073D01*
X30246Y207337D01*
X31148Y206817D01*
X32153Y206547D01*
X33194D01*
X34199Y206817D01*
X35100Y207337D01*
X35836Y208073D01*
X36355Y208971D01*
X38992D01*
X39510Y208073D01*
X40246Y207337D01*
X41148Y206817D01*
X42153Y206547D01*
X43194D01*
X44195Y206816D01*
X46691Y204319D01*
Y202446D01*
X46191Y202312D01*
X45836Y202927D01*
X45100Y203663D01*
X44199Y204183D01*
X43194Y204453D01*
X42153D01*
X41148Y204183D01*
X40246Y203663D01*
X39510Y202927D01*
X38990Y202026D01*
X38721Y201020D01*
Y199980D01*
X38990Y198974D01*
X39510Y198073D01*
X40246Y197337D01*
X41148Y196817D01*
X42153Y196547D01*
X43194D01*
X44199Y196817D01*
X45100Y197337D01*
X45836Y198073D01*
X46191Y198688D01*
X46505Y198668D01*
X46706Y198580D01*
X46808Y198070D01*
X47139Y197574D01*
X62972Y181741D01*
Y180313D01*
X60269D01*
Y174998D01*
X68734D01*
Y176126D01*
X71764D01*
X74555Y173335D01*
Y171149D01*
X74499Y171065D01*
X74421Y170675D01*
Y168427D01*
X74343D01*
Y165958D01*
X81657D01*
Y168427D01*
X81579D01*
Y169571D01*
X94988D01*
Y168836D01*
X95080Y168138D01*
X95349Y167488D01*
X95778Y166930D01*
X96336Y166501D01*
X96986Y166232D01*
X97684Y166140D01*
X101031D01*
X101729Y166232D01*
X102379Y166501D01*
X102937Y166930D01*
X103366Y167488D01*
X103635Y168138D01*
X103727Y168836D01*
Y173364D01*
X103635Y174062D01*
X103366Y174712D01*
X102937Y175270D01*
X102379Y175699D01*
X101729Y175968D01*
X101031Y176060D01*
X97684D01*
X96986Y175968D01*
X96336Y175699D01*
X95778Y175270D01*
X95349Y174712D01*
X95080Y174062D01*
X94988Y173364D01*
Y172629D01*
X81445D01*
Y175498D01*
X76718D01*
X73479Y178737D01*
X72983Y179068D01*
X72398Y179184D01*
X68734D01*
Y180313D01*
X66031D01*
Y182375D01*
X65914Y182960D01*
X65583Y183456D01*
X52954Y196085D01*
X53145Y196547D01*
X53194D01*
X54199Y196817D01*
X55100Y197337D01*
X55836Y198073D01*
X56357Y198974D01*
X56626Y199980D01*
Y201020D01*
X56357Y202026D01*
X55836Y202927D01*
X55100Y203663D01*
X54199Y204183D01*
X53194Y204453D01*
X52153D01*
X51148Y204183D01*
X50246Y203663D01*
X50212Y203629D01*
X49750Y203820D01*
Y204953D01*
X49633Y205538D01*
X49302Y206034D01*
X46358Y208978D01*
X46626Y209980D01*
Y211020D01*
X46357Y212026D01*
X45836Y212927D01*
X45100Y213663D01*
X44199Y214183D01*
X43194Y214453D01*
D02*
G37*
G36*
X193194D02*
X193173D01*
Y211000D01*
X196626D01*
Y211020D01*
X196357Y212026D01*
X195836Y212927D01*
X195100Y213663D01*
X194199Y214183D01*
X193194Y214453D01*
D02*
G37*
G36*
X192173D02*
X192153D01*
X191147Y214183D01*
X190246Y213663D01*
X189510Y212927D01*
X188990Y212026D01*
X188721Y211020D01*
Y211000D01*
X192173D01*
Y214453D01*
D02*
G37*
G36*
X173194D02*
X173173D01*
Y211000D01*
X176626D01*
Y211020D01*
X176357Y212026D01*
X175836Y212927D01*
X175100Y213663D01*
X174199Y214183D01*
X173194Y214453D01*
D02*
G37*
G36*
X93194D02*
X93173D01*
Y211000D01*
X96626D01*
Y211020D01*
X96357Y212026D01*
X95836Y212927D01*
X95100Y213663D01*
X94199Y214183D01*
X93194Y214453D01*
D02*
G37*
G36*
X92173D02*
X92153D01*
X91148Y214183D01*
X90246Y213663D01*
X89510Y212927D01*
X88990Y212026D01*
X88721Y211020D01*
Y211000D01*
X92173D01*
Y214453D01*
D02*
G37*
G36*
X53194D02*
X53173D01*
Y211000D01*
X56626D01*
Y211020D01*
X56357Y212026D01*
X55836Y212927D01*
X55100Y213663D01*
X54199Y214183D01*
X53194Y214453D01*
D02*
G37*
G36*
X52173D02*
X52153D01*
X51148Y214183D01*
X50246Y213663D01*
X49510Y212927D01*
X48990Y212026D01*
X48720Y211020D01*
Y211000D01*
X52173D01*
Y214453D01*
D02*
G37*
G36*
X223194D02*
X222153D01*
X221147Y214183D01*
X220246Y213663D01*
X219510Y212927D01*
X218990Y212026D01*
X218721Y211020D01*
Y209980D01*
X218990Y208974D01*
X219510Y208073D01*
X220246Y207337D01*
X221147Y206817D01*
X222153Y206547D01*
X223194D01*
X224199Y206817D01*
X225100Y207337D01*
X225836Y208073D01*
X226357Y208974D01*
X226626Y209980D01*
Y211020D01*
X226357Y212026D01*
X225836Y212927D01*
X225100Y213663D01*
X224199Y214183D01*
X223194Y214453D01*
D02*
G37*
G36*
X213194D02*
X212153D01*
X211147Y214183D01*
X210246Y213663D01*
X209510Y212927D01*
X208990Y212026D01*
X208720Y211020D01*
Y209980D01*
X208990Y208974D01*
X209510Y208073D01*
X210246Y207337D01*
X211147Y206817D01*
X212153Y206547D01*
X213194D01*
X214199Y206817D01*
X215100Y207337D01*
X215836Y208073D01*
X216357Y208974D01*
X216626Y209980D01*
Y211020D01*
X216357Y212026D01*
X215836Y212927D01*
X215100Y213663D01*
X214199Y214183D01*
X213194Y214453D01*
D02*
G37*
G36*
X203194D02*
X202153D01*
X201148Y214183D01*
X200246Y213663D01*
X199510Y212927D01*
X198990Y212026D01*
X198721Y211020D01*
Y209980D01*
X198990Y208974D01*
X199510Y208073D01*
X200246Y207337D01*
X201148Y206817D01*
X202153Y206547D01*
X203194D01*
X204199Y206817D01*
X205100Y207337D01*
X205836Y208073D01*
X206357Y208974D01*
X206626Y209980D01*
Y211020D01*
X206357Y212026D01*
X205836Y212927D01*
X205100Y213663D01*
X204199Y214183D01*
X203194Y214453D01*
D02*
G37*
G36*
X196626Y210000D02*
X193173D01*
Y206547D01*
X193194D01*
X194199Y206817D01*
X195100Y207337D01*
X195836Y208073D01*
X196357Y208974D01*
X196626Y209980D01*
Y210000D01*
D02*
G37*
G36*
X192173D02*
X188721D01*
Y209980D01*
X188990Y208974D01*
X189510Y208073D01*
X190246Y207337D01*
X191147Y206817D01*
X192153Y206547D01*
X192173D01*
Y210000D01*
D02*
G37*
G36*
X183194Y214453D02*
X182153D01*
X181148Y214183D01*
X180246Y213663D01*
X179510Y212927D01*
X178990Y212026D01*
X178720Y211020D01*
Y209980D01*
X178990Y208974D01*
X179510Y208073D01*
X180246Y207337D01*
X181148Y206817D01*
X182153Y206547D01*
X183194D01*
X184199Y206817D01*
X185100Y207337D01*
X185836Y208073D01*
X186357Y208974D01*
X186626Y209980D01*
Y211020D01*
X186357Y212026D01*
X185836Y212927D01*
X185100Y213663D01*
X184199Y214183D01*
X183194Y214453D01*
D02*
G37*
G36*
X176626Y210000D02*
X173173D01*
Y206547D01*
X173194D01*
X174199Y206817D01*
X175100Y207337D01*
X175836Y208073D01*
X176357Y208974D01*
X176626Y209980D01*
Y210000D01*
D02*
G37*
G36*
X96626D02*
X93173D01*
Y206547D01*
X93194D01*
X94199Y206817D01*
X95100Y207337D01*
X95836Y208073D01*
X96357Y208974D01*
X96626Y209980D01*
Y210000D01*
D02*
G37*
G36*
X92173D02*
X88721D01*
Y209980D01*
X88990Y208974D01*
X89510Y208073D01*
X90246Y207337D01*
X91148Y206817D01*
X92153Y206547D01*
X92173D01*
Y210000D01*
D02*
G37*
G36*
X83194Y214453D02*
X82153D01*
X81147Y214183D01*
X80246Y213663D01*
X79510Y212927D01*
X78990Y212026D01*
X78720Y211020D01*
Y209980D01*
X78990Y208974D01*
X79510Y208073D01*
X80246Y207337D01*
X81147Y206817D01*
X82153Y206547D01*
X83194D01*
X84199Y206817D01*
X85100Y207337D01*
X85836Y208073D01*
X86357Y208974D01*
X86626Y209980D01*
Y211020D01*
X86357Y212026D01*
X85836Y212927D01*
X85100Y213663D01*
X84199Y214183D01*
X83194Y214453D01*
D02*
G37*
G36*
X73194D02*
X72153D01*
X71148Y214183D01*
X70246Y213663D01*
X69510Y212927D01*
X68990Y212026D01*
X68721Y211020D01*
Y209980D01*
X68990Y208974D01*
X69510Y208073D01*
X70246Y207337D01*
X71148Y206817D01*
X72153Y206547D01*
X73194D01*
X74199Y206817D01*
X75100Y207337D01*
X75836Y208073D01*
X76357Y208974D01*
X76626Y209980D01*
Y211020D01*
X76357Y212026D01*
X75836Y212927D01*
X75100Y213663D01*
X74199Y214183D01*
X73194Y214453D01*
D02*
G37*
G36*
X63194D02*
X62153D01*
X61147Y214183D01*
X60246Y213663D01*
X59510Y212927D01*
X58990Y212026D01*
X58720Y211020D01*
Y209980D01*
X58990Y208974D01*
X59510Y208073D01*
X60246Y207337D01*
X61147Y206817D01*
X62153Y206547D01*
X63194D01*
X64199Y206817D01*
X65100Y207337D01*
X65836Y208073D01*
X66357Y208974D01*
X66626Y209980D01*
Y211020D01*
X66357Y212026D01*
X65836Y212927D01*
X65100Y213663D01*
X64199Y214183D01*
X63194Y214453D01*
D02*
G37*
G36*
X56626Y210000D02*
X53173D01*
Y206547D01*
X53194D01*
X54199Y206817D01*
X55100Y207337D01*
X55836Y208073D01*
X56357Y208974D01*
X56626Y209980D01*
Y210000D01*
D02*
G37*
G36*
X52173D02*
X48720D01*
Y209980D01*
X48990Y208974D01*
X49510Y208073D01*
X50246Y207337D01*
X51148Y206817D01*
X52153Y206547D01*
X52173D01*
Y210000D01*
D02*
G37*
G36*
X223194Y204453D02*
X223173D01*
Y201000D01*
X226626D01*
Y201020D01*
X226357Y202026D01*
X225836Y202927D01*
X225100Y203663D01*
X224199Y204183D01*
X223194Y204453D01*
D02*
G37*
G36*
X222173D02*
X222153D01*
X221147Y204183D01*
X220246Y203663D01*
X219510Y202927D01*
X218990Y202026D01*
X218721Y201020D01*
Y201000D01*
X222173D01*
Y204453D01*
D02*
G37*
G36*
X73194D02*
X73173D01*
Y201000D01*
X76626D01*
Y201020D01*
X76357Y202026D01*
X75836Y202927D01*
X75100Y203663D01*
X74199Y204183D01*
X73194Y204453D01*
D02*
G37*
G36*
X72173D02*
X72153D01*
X71148Y204183D01*
X70246Y203663D01*
X69510Y202927D01*
X68990Y202026D01*
X68721Y201020D01*
Y201000D01*
X72173D01*
Y204453D01*
D02*
G37*
G36*
X203194D02*
X202153D01*
X201148Y204183D01*
X200246Y203663D01*
X199510Y202927D01*
X198990Y202026D01*
X198721Y201020D01*
Y199980D01*
X198990Y198974D01*
X199138Y198718D01*
X199117Y198654D01*
X198544Y198520D01*
X198197Y198866D01*
X197323Y199228D01*
X196835D01*
X196531Y199625D01*
X196626Y199980D01*
Y201020D01*
X196357Y202026D01*
X195836Y202927D01*
X195100Y203663D01*
X194199Y204183D01*
X193194Y204453D01*
X192153D01*
X191147Y204183D01*
X190246Y203663D01*
X189510Y202927D01*
X188990Y202026D01*
X188721Y201020D01*
Y199980D01*
X188990Y198974D01*
X189510Y198073D01*
X190246Y197337D01*
X191147Y196817D01*
X192153Y196547D01*
X193194D01*
X193972Y196756D01*
X194473Y196444D01*
Y196377D01*
X194834Y195503D01*
X195503Y194834D01*
X196350Y194484D01*
Y196850D01*
X196850D01*
Y197350D01*
X199217D01*
X199050Y197755D01*
X199444Y198109D01*
X199510Y198073D01*
X199587Y197996D01*
X200246Y197337D01*
X201148Y196817D01*
X202153Y196547D01*
X203194D01*
X204199Y196817D01*
X205100Y197337D01*
X205836Y198073D01*
X206357Y198974D01*
X206626Y199980D01*
Y201020D01*
X206357Y202026D01*
X205836Y202927D01*
X205100Y203663D01*
X204199Y204183D01*
X203194Y204453D01*
D02*
G37*
G36*
X226626Y200000D02*
X223173D01*
Y196547D01*
X223194D01*
X224199Y196817D01*
X225100Y197337D01*
X225836Y198073D01*
X226357Y198974D01*
X226626Y199980D01*
Y200000D01*
D02*
G37*
G36*
X222173D02*
X218721D01*
Y199980D01*
X218990Y198974D01*
X219510Y198073D01*
X220246Y197337D01*
X221147Y196817D01*
X222153Y196547D01*
X222173D01*
Y200000D01*
D02*
G37*
G36*
X213194Y204453D02*
X212153D01*
X211147Y204183D01*
X210246Y203663D01*
X209510Y202927D01*
X208990Y202026D01*
X208720Y201020D01*
Y199980D01*
X208990Y198974D01*
X209510Y198073D01*
X210246Y197337D01*
X211147Y196817D01*
X212153Y196547D01*
X213194D01*
X214199Y196817D01*
X215100Y197337D01*
X215836Y198073D01*
X216357Y198974D01*
X216626Y199980D01*
Y201020D01*
X216357Y202026D01*
X215836Y202927D01*
X215100Y203663D01*
X214199Y204183D01*
X213194Y204453D01*
D02*
G37*
G36*
X183194D02*
X182153D01*
X181148Y204183D01*
X180246Y203663D01*
X179510Y202927D01*
X178990Y202026D01*
X178720Y201020D01*
Y199980D01*
X178990Y198974D01*
X179510Y198073D01*
X180246Y197337D01*
X181148Y196817D01*
X182153Y196547D01*
X183194D01*
X184199Y196817D01*
X185100Y197337D01*
X185836Y198073D01*
X186357Y198974D01*
X186626Y199980D01*
Y201020D01*
X186357Y202026D01*
X185836Y202927D01*
X185100Y203663D01*
X184199Y204183D01*
X183194Y204453D01*
D02*
G37*
G36*
X76626Y200000D02*
X73173D01*
Y196547D01*
X73194D01*
X74199Y196817D01*
X75100Y197337D01*
X75836Y198073D01*
X76357Y198974D01*
X76626Y199980D01*
Y200000D01*
D02*
G37*
G36*
X72173D02*
X68721D01*
Y199980D01*
X68990Y198974D01*
X69510Y198073D01*
X70246Y197337D01*
X71148Y196817D01*
X72153Y196547D01*
X72173D01*
Y200000D01*
D02*
G37*
G36*
X63194Y204453D02*
X62153D01*
X61147Y204183D01*
X60246Y203663D01*
X59510Y202927D01*
X58990Y202026D01*
X58720Y201020D01*
Y199980D01*
X58990Y198974D01*
X59510Y198073D01*
X60246Y197337D01*
X61147Y196817D01*
X62153Y196547D01*
X63194D01*
X64199Y196817D01*
X65100Y197337D01*
X65836Y198073D01*
X66357Y198974D01*
X66626Y199980D01*
Y201020D01*
X66357Y202026D01*
X65836Y202927D01*
X65100Y203663D01*
X64199Y204183D01*
X63194Y204453D01*
D02*
G37*
G36*
X36626D02*
X28721D01*
Y196547D01*
X36626D01*
Y204453D01*
D02*
G37*
G36*
X199217Y196350D02*
X197350D01*
Y194484D01*
X198197Y194834D01*
X198866Y195503D01*
X199217Y196350D01*
D02*
G37*
G36*
X78240D02*
X76373D01*
X76724Y195503D01*
X77393Y194834D01*
X78240Y194484D01*
Y196350D01*
D02*
G37*
G36*
X22052D02*
X20185D01*
Y194484D01*
X21032Y194834D01*
X21701Y195503D01*
X22052Y196350D01*
D02*
G37*
G36*
X14386Y214500D02*
X12614D01*
X10875Y214154D01*
X9237Y213476D01*
X7763Y212491D01*
X6509Y211237D01*
X5524Y209763D01*
X4846Y208125D01*
X4500Y206386D01*
Y204614D01*
X4846Y202875D01*
X5524Y201237D01*
X6509Y199763D01*
X7763Y198509D01*
X9237Y197524D01*
X10875Y196846D01*
X12614Y196500D01*
X14386D01*
X16125Y196846D01*
X16807Y197128D01*
X17307Y196794D01*
Y196377D01*
X17669Y195503D01*
X18338Y194834D01*
X19185Y194484D01*
Y196850D01*
X19685D01*
Y197350D01*
X22052D01*
X21701Y198197D01*
X21032Y198866D01*
X20515Y199080D01*
X20398Y199670D01*
X20491Y199763D01*
X21476Y201237D01*
X22154Y202875D01*
X22500Y204614D01*
Y206386D01*
X22154Y208125D01*
X21476Y209763D01*
X20491Y211237D01*
X19237Y212491D01*
X17763Y213476D01*
X16125Y214154D01*
X14386Y214500D01*
D02*
G37*
G36*
X246563Y179532D02*
Y177665D01*
X248430D01*
X248079Y178512D01*
X247410Y179181D01*
X246563Y179532D01*
D02*
G37*
G36*
X245563D02*
X244716Y179181D01*
X244047Y178512D01*
X243696Y177665D01*
X245563D01*
Y179532D01*
D02*
G37*
G36*
X226878D02*
Y177665D01*
X228745D01*
X228394Y178512D01*
X227725Y179181D01*
X226878Y179532D01*
D02*
G37*
G36*
X225878D02*
X225031Y179181D01*
X224362Y178512D01*
X224011Y177665D01*
X225878D01*
Y179532D01*
D02*
G37*
G36*
X207193D02*
Y177665D01*
X209060D01*
X208709Y178512D01*
X208040Y179181D01*
X207193Y179532D01*
D02*
G37*
G36*
X206193D02*
X205346Y179181D01*
X204677Y178512D01*
X204326Y177665D01*
X206193D01*
Y179532D01*
D02*
G37*
G36*
X187508D02*
Y177665D01*
X189375D01*
X189024Y178512D01*
X188355Y179181D01*
X187508Y179532D01*
D02*
G37*
G36*
X186508D02*
X185661Y179181D01*
X184992Y178512D01*
X184641Y177665D01*
X186508D01*
Y179532D01*
D02*
G37*
G36*
X89083D02*
Y177665D01*
X90949D01*
X90599Y178512D01*
X89930Y179181D01*
X89083Y179532D01*
D02*
G37*
G36*
X88083D02*
X87236Y179181D01*
X86567Y178512D01*
X86216Y177665D01*
X88083D01*
Y179532D01*
D02*
G37*
G36*
X49713D02*
Y177665D01*
X51579D01*
X51228Y178512D01*
X50560Y179181D01*
X49713Y179532D01*
D02*
G37*
G36*
X48713D02*
X47866Y179181D01*
X47197Y178512D01*
X46846Y177665D01*
X48713D01*
Y179532D01*
D02*
G37*
G36*
X30028D02*
Y177665D01*
X31894D01*
X31543Y178512D01*
X30875Y179181D01*
X30028Y179532D01*
D02*
G37*
G36*
X29028D02*
X28181Y179181D01*
X27512Y178512D01*
X27161Y177665D01*
X29028D01*
Y179532D01*
D02*
G37*
G36*
X248430Y176665D02*
X246563D01*
Y174799D01*
X247410Y175149D01*
X248079Y175818D01*
X248430Y176665D01*
D02*
G37*
G36*
X245563D02*
X243696D01*
X244047Y175818D01*
X244716Y175149D01*
X245563Y174799D01*
Y176665D01*
D02*
G37*
G36*
X228745D02*
X226878D01*
Y174799D01*
X227725Y175149D01*
X228394Y175818D01*
X228745Y176665D01*
D02*
G37*
G36*
X225878D02*
X224011D01*
X224362Y175818D01*
X225031Y175149D01*
X225878Y174799D01*
Y176665D01*
D02*
G37*
G36*
X209060D02*
X207193D01*
Y174799D01*
X208040Y175149D01*
X208709Y175818D01*
X209060Y176665D01*
D02*
G37*
G36*
X206193D02*
X204326D01*
X204677Y175818D01*
X205346Y175149D01*
X206193Y174799D01*
Y176665D01*
D02*
G37*
G36*
X189375D02*
X187508D01*
Y174799D01*
X188355Y175149D01*
X189024Y175818D01*
X189375Y176665D01*
D02*
G37*
G36*
X186508D02*
X184641D01*
X184992Y175818D01*
X185661Y175149D01*
X186508Y174799D01*
Y176665D01*
D02*
G37*
G36*
X90949D02*
X89083D01*
Y174799D01*
X89930Y175149D01*
X90599Y175818D01*
X90949Y176665D01*
D02*
G37*
G36*
X88083D02*
X86216D01*
X86567Y175818D01*
X87236Y175149D01*
X88083Y174799D01*
Y176665D01*
D02*
G37*
G36*
X51579D02*
X49713D01*
Y174799D01*
X50560Y175149D01*
X51228Y175818D01*
X51579Y176665D01*
D02*
G37*
G36*
X48713D02*
X46846D01*
X47197Y175818D01*
X47866Y175149D01*
X48713Y174799D01*
Y176665D01*
D02*
G37*
G36*
X31894D02*
X30028D01*
Y174799D01*
X30875Y175149D01*
X31543Y175818D01*
X31894Y176665D01*
D02*
G37*
G36*
X29028D02*
X27161D01*
X27512Y175818D01*
X28181Y175149D01*
X29028Y174799D01*
Y176665D01*
D02*
G37*
G36*
X43931Y175687D02*
X35466D01*
Y172871D01*
X29845D01*
Y174098D01*
X22955D01*
Y169749D01*
X22899Y169665D01*
X22821Y169275D01*
Y167027D01*
X22742D01*
Y164558D01*
X26400D01*
X30057D01*
Y167027D01*
X29979D01*
Y169275D01*
X29971Y169312D01*
X30358Y169812D01*
X35466D01*
Y161513D01*
X43931D01*
Y167071D01*
X60269D01*
Y165943D01*
X66571D01*
X74101Y158412D01*
Y158245D01*
X74009Y157784D01*
Y155816D01*
X74147Y155124D01*
X74538Y154539D01*
X75125Y154147D01*
X75816Y154009D01*
X77784D01*
X78475Y154147D01*
X79062Y154539D01*
X79453Y155124D01*
X79591Y155816D01*
Y157784D01*
X79453Y158475D01*
X79062Y159062D01*
X78475Y159453D01*
X77784Y159591D01*
X77052D01*
X77043Y159631D01*
X76712Y160127D01*
X74811Y162028D01*
X75003Y162490D01*
X77500D01*
Y164958D01*
X74343D01*
Y163150D01*
X73881Y162959D01*
X68734Y168105D01*
Y171257D01*
X60269D01*
Y170129D01*
X43931D01*
Y175687D01*
D02*
G37*
G36*
X109700Y176009D02*
Y171600D01*
X113584D01*
Y171691D01*
X113435Y172825D01*
X112997Y173882D01*
X112300Y174791D01*
X111392Y175487D01*
X110335Y175925D01*
X109700Y176009D01*
D02*
G37*
G36*
X108700D02*
X108065Y175925D01*
X107008Y175487D01*
X106100Y174791D01*
X105403Y173882D01*
X104965Y172825D01*
X104816Y171691D01*
Y171600D01*
X108700D01*
Y176009D01*
D02*
G37*
G36*
X113584Y170600D02*
X109700D01*
Y166191D01*
X110335Y166275D01*
X111392Y166713D01*
X112300Y167410D01*
X112997Y168317D01*
X113435Y169375D01*
X113584Y170509D01*
Y170600D01*
D02*
G37*
G36*
X108700D02*
X104816D01*
Y170509D01*
X104965Y169375D01*
X105403Y168317D01*
X106100Y167410D01*
X107008Y166713D01*
X108065Y166275D01*
X108700Y166191D01*
Y170600D01*
D02*
G37*
G36*
X81657Y164958D02*
X78500D01*
Y162490D01*
X81657D01*
Y164958D01*
D02*
G37*
G36*
X30057Y163558D02*
X26900D01*
Y161090D01*
X30057D01*
Y163558D01*
D02*
G37*
G36*
X25900D02*
X22742D01*
Y161090D01*
X25900D01*
Y163558D01*
D02*
G37*
G36*
X68946Y162415D02*
X65002D01*
Y160045D01*
X68946D01*
Y162415D01*
D02*
G37*
G36*
X64002D02*
X60057D01*
Y160045D01*
X64002D01*
Y162415D01*
D02*
G37*
G36*
X236720Y159847D02*
Y157980D01*
X238587D01*
X238236Y158827D01*
X237567Y159496D01*
X236720Y159847D01*
D02*
G37*
G36*
X235720D02*
X234874Y159496D01*
X234205Y158827D01*
X233854Y157980D01*
X235720D01*
Y159847D01*
D02*
G37*
G36*
X197350D02*
Y157980D01*
X199217D01*
X198866Y158827D01*
X198197Y159496D01*
X197350Y159847D01*
D02*
G37*
G36*
X196350D02*
X195503Y159496D01*
X194834Y158827D01*
X194484Y157980D01*
X196350D01*
Y159847D01*
D02*
G37*
G36*
X98925D02*
Y157980D01*
X100792D01*
X100441Y158827D01*
X99772Y159496D01*
X98925Y159847D01*
D02*
G37*
G36*
X97925D02*
X97078Y159496D01*
X96409Y158827D01*
X96058Y157980D01*
X97925D01*
Y159847D01*
D02*
G37*
G36*
X39870D02*
Y157980D01*
X41737D01*
X41386Y158827D01*
X40717Y159496D01*
X39870Y159847D01*
D02*
G37*
G36*
X38870D02*
X38023Y159496D01*
X37354Y158827D01*
X37003Y157980D01*
X38870D01*
Y159847D01*
D02*
G37*
G36*
X20185D02*
Y157980D01*
X22052D01*
X21701Y158827D01*
X21032Y159496D01*
X20185Y159847D01*
D02*
G37*
G36*
X19185D02*
X18338Y159496D01*
X17669Y158827D01*
X17318Y157980D01*
X19185D01*
Y159847D01*
D02*
G37*
G36*
X68946Y159045D02*
X65002D01*
Y156675D01*
X68946D01*
Y159045D01*
D02*
G37*
G36*
X64002D02*
X60057D01*
Y156675D01*
X64002D01*
Y159045D01*
D02*
G37*
G36*
X238587Y156980D02*
X236720D01*
Y155114D01*
X237567Y155464D01*
X238236Y156133D01*
X238587Y156980D01*
D02*
G37*
G36*
X235720D02*
X233854D01*
X234205Y156133D01*
X234874Y155464D01*
X235720Y155114D01*
Y156980D01*
D02*
G37*
G36*
X199217D02*
X197350D01*
Y155114D01*
X198197Y155464D01*
X198866Y156133D01*
X199217Y156980D01*
D02*
G37*
G36*
X196350D02*
X194484D01*
X194834Y156133D01*
X195503Y155464D01*
X196350Y155114D01*
Y156980D01*
D02*
G37*
G36*
X41737D02*
X39870D01*
Y155114D01*
X40717Y155464D01*
X41386Y156133D01*
X41737Y156980D01*
D02*
G37*
G36*
X38870D02*
X37003D01*
X37354Y156133D01*
X38023Y155464D01*
X38870Y155114D01*
Y156980D01*
D02*
G37*
G36*
X22052D02*
X20185D01*
Y155114D01*
X21032Y155464D01*
X21701Y156133D01*
X22052Y156980D01*
D02*
G37*
G36*
X19185D02*
X17318D01*
X17669Y156133D01*
X18338Y155464D01*
X19185Y155114D01*
Y156980D01*
D02*
G37*
G36*
X100792D02*
X98925D01*
Y155114D01*
X99772Y155464D01*
X100441Y156133D01*
X100792Y156980D01*
D02*
G37*
G36*
X97925D02*
X96058D01*
X96409Y156133D01*
X97078Y155464D01*
X97925Y155114D01*
Y156980D01*
D02*
G37*
G36*
X128885Y176075D02*
X127750Y175925D01*
X126693Y175487D01*
X125785Y174791D01*
X125088Y173882D01*
X124651Y172825D01*
X124501Y171691D01*
Y170509D01*
X124651Y169375D01*
X125088Y168317D01*
X125785Y167410D01*
X126693Y166713D01*
X127356Y166438D01*
Y150766D01*
X117051Y140461D01*
X116046D01*
X115962Y140517D01*
X115572Y140594D01*
X112081D01*
Y148209D01*
X120124Y156251D01*
X120456Y156747D01*
X120572Y157333D01*
Y166438D01*
X121235Y166713D01*
X122143Y167410D01*
X122839Y168317D01*
X123277Y169375D01*
X123426Y170509D01*
Y171691D01*
X123277Y172825D01*
X122839Y173882D01*
X122143Y174791D01*
X121235Y175487D01*
X120177Y175925D01*
X119043Y176075D01*
X117908Y175925D01*
X116850Y175487D01*
X115943Y174791D01*
X115246Y173882D01*
X114808Y172825D01*
X114659Y171691D01*
Y170509D01*
X114808Y169375D01*
X115246Y168317D01*
X115943Y167410D01*
X116850Y166713D01*
X117513Y166438D01*
Y157966D01*
X109470Y149924D01*
X109139Y149427D01*
X109023Y148842D01*
Y140461D01*
X108387D01*
Y135539D01*
X109023D01*
Y132502D01*
X109139Y131917D01*
X109470Y131421D01*
X110671Y130220D01*
Y126939D01*
X110078D01*
X110035Y126939D01*
X109578Y127043D01*
Y127151D01*
X107700D01*
Y123100D01*
Y119049D01*
X109578D01*
Y119157D01*
X110035Y119261D01*
X110078Y119261D01*
X114365D01*
Y126939D01*
X113729D01*
Y130854D01*
X113613Y131439D01*
X113281Y131935D01*
X112081Y133135D01*
Y135406D01*
X115572D01*
X115595Y135387D01*
Y126939D01*
X115035D01*
Y119261D01*
X119365D01*
Y126939D01*
X118653D01*
Y135539D01*
X119213D01*
Y138298D01*
X129966Y149051D01*
X130298Y149547D01*
X130414Y150132D01*
Y166438D01*
X131077Y166713D01*
X131985Y167410D01*
X132682Y168317D01*
X133120Y169375D01*
X133269Y170509D01*
Y171691D01*
X133120Y172825D01*
X132682Y173882D01*
X131985Y174791D01*
X131077Y175487D01*
X130020Y175925D01*
X128885Y176075D01*
D02*
G37*
G36*
X246563Y140162D02*
Y138295D01*
X248430D01*
X248079Y139142D01*
X247410Y139811D01*
X246563Y140162D01*
D02*
G37*
G36*
X245563D02*
X244716Y139811D01*
X244047Y139142D01*
X243696Y138295D01*
X245563D01*
Y140162D01*
D02*
G37*
G36*
X226878D02*
Y138295D01*
X228745D01*
X228394Y139142D01*
X227725Y139811D01*
X226878Y140162D01*
D02*
G37*
G36*
X225878D02*
X225031Y139811D01*
X224362Y139142D01*
X224011Y138295D01*
X225878D01*
Y140162D01*
D02*
G37*
G36*
X187508D02*
Y138295D01*
X189375D01*
X189024Y139142D01*
X188355Y139811D01*
X187508Y140162D01*
D02*
G37*
G36*
X186508D02*
X185661Y139811D01*
X184992Y139142D01*
X184641Y138295D01*
X186508D01*
Y140162D01*
D02*
G37*
G36*
X89083D02*
Y138295D01*
X90949D01*
X90599Y139142D01*
X89930Y139811D01*
X89083Y140162D01*
D02*
G37*
G36*
X88083D02*
X87236Y139811D01*
X86567Y139142D01*
X86216Y138295D01*
X88083D01*
Y140162D01*
D02*
G37*
G36*
X69398D02*
Y138295D01*
X71264D01*
X70914Y139142D01*
X70245Y139811D01*
X69398Y140162D01*
D02*
G37*
G36*
X68398D02*
X67551Y139811D01*
X66882Y139142D01*
X66531Y138295D01*
X68398D01*
Y140162D01*
D02*
G37*
G36*
X49713D02*
Y138295D01*
X51579D01*
X51228Y139142D01*
X50560Y139811D01*
X49713Y140162D01*
D02*
G37*
G36*
X48713D02*
X47866Y139811D01*
X47197Y139142D01*
X46846Y138295D01*
X48713D01*
Y140162D01*
D02*
G37*
G36*
X30028D02*
Y138295D01*
X31894D01*
X31543Y139142D01*
X30875Y139811D01*
X30028Y140162D01*
D02*
G37*
G36*
X29028D02*
X28181Y139811D01*
X27512Y139142D01*
X27161Y138295D01*
X29028D01*
Y140162D01*
D02*
G37*
G36*
X248430Y137295D02*
X246563D01*
Y135429D01*
X247410Y135779D01*
X248079Y136448D01*
X248430Y137295D01*
D02*
G37*
G36*
X245563D02*
X243696D01*
X244047Y136448D01*
X244716Y135779D01*
X245563Y135429D01*
Y137295D01*
D02*
G37*
G36*
X228745D02*
X226878D01*
Y135429D01*
X227725Y135779D01*
X228394Y136448D01*
X228745Y137295D01*
D02*
G37*
G36*
X225878D02*
X224011D01*
X224362Y136448D01*
X225031Y135779D01*
X225878Y135429D01*
Y137295D01*
D02*
G37*
G36*
X189375D02*
X187508D01*
Y135429D01*
X188355Y135779D01*
X189024Y136448D01*
X189375Y137295D01*
D02*
G37*
G36*
X186508D02*
X184641D01*
X184992Y136448D01*
X185661Y135779D01*
X186508Y135429D01*
Y137295D01*
D02*
G37*
G36*
X90949D02*
X89083D01*
Y135429D01*
X89930Y135779D01*
X90599Y136448D01*
X90949Y137295D01*
D02*
G37*
G36*
X88083D02*
X86216D01*
X86567Y136448D01*
X87236Y135779D01*
X88083Y135429D01*
Y137295D01*
D02*
G37*
G36*
X71264D02*
X69398D01*
Y135429D01*
X70245Y135779D01*
X70914Y136448D01*
X71264Y137295D01*
D02*
G37*
G36*
X68398D02*
X66531D01*
X66882Y136448D01*
X67551Y135779D01*
X68398Y135429D01*
Y137295D01*
D02*
G37*
G36*
X51579D02*
X49713D01*
Y135429D01*
X50560Y135779D01*
X51228Y136448D01*
X51579Y137295D01*
D02*
G37*
G36*
X48713D02*
X46846D01*
X47197Y136448D01*
X47866Y135779D01*
X48713Y135429D01*
Y137295D01*
D02*
G37*
G36*
X31894D02*
X30028D01*
Y135429D01*
X30875Y135779D01*
X31543Y136448D01*
X31894Y137295D01*
D02*
G37*
G36*
X29028D02*
X27161D01*
X27512Y136448D01*
X28181Y135779D01*
X29028Y135429D01*
Y137295D01*
D02*
G37*
G36*
X163000Y136357D02*
X160531D01*
Y133200D01*
X163000D01*
Y136357D01*
D02*
G37*
G36*
Y132200D02*
X160531D01*
Y129042D01*
X163000D01*
Y132200D01*
D02*
G37*
G36*
X106700Y127151D02*
X104822D01*
Y123600D01*
X106700D01*
Y127151D01*
D02*
G37*
G36*
Y122600D02*
X104822D01*
Y119049D01*
X106700D01*
Y122600D01*
D02*
G37*
G36*
X236720Y120477D02*
Y118610D01*
X238587D01*
X238236Y119457D01*
X237567Y120126D01*
X236720Y120477D01*
D02*
G37*
G36*
X235720D02*
X234874Y120126D01*
X234205Y119457D01*
X233854Y118610D01*
X235720D01*
Y120477D01*
D02*
G37*
G36*
X217035D02*
Y118610D01*
X218902D01*
X218551Y119457D01*
X217882Y120126D01*
X217035Y120477D01*
D02*
G37*
G36*
X216035D02*
X215188Y120126D01*
X214520Y119457D01*
X214169Y118610D01*
X216035D01*
Y120477D01*
D02*
G37*
G36*
X197350D02*
Y118610D01*
X199217D01*
X198866Y119457D01*
X198197Y120126D01*
X197350Y120477D01*
D02*
G37*
G36*
X196350D02*
X195503Y120126D01*
X194834Y119457D01*
X194484Y118610D01*
X196350D01*
Y120477D01*
D02*
G37*
G36*
X98925D02*
Y118610D01*
X100792D01*
X100441Y119457D01*
X99772Y120126D01*
X98925Y120477D01*
D02*
G37*
G36*
X97925D02*
X97078Y120126D01*
X96409Y119457D01*
X96058Y118610D01*
X97925D01*
Y120477D01*
D02*
G37*
G36*
X79240D02*
Y118610D01*
X81107D01*
X80756Y119457D01*
X80087Y120126D01*
X79240Y120477D01*
D02*
G37*
G36*
X78240D02*
X77393Y120126D01*
X76724Y119457D01*
X76373Y118610D01*
X78240D01*
Y120477D01*
D02*
G37*
G36*
X59555D02*
Y118610D01*
X61422D01*
X61071Y119457D01*
X60402Y120126D01*
X59555Y120477D01*
D02*
G37*
G36*
X58555D02*
X57708Y120126D01*
X57039Y119457D01*
X56688Y118610D01*
X58555D01*
Y120477D01*
D02*
G37*
G36*
X39870D02*
Y118610D01*
X41737D01*
X41386Y119457D01*
X40717Y120126D01*
X39870Y120477D01*
D02*
G37*
G36*
X38870D02*
X38023Y120126D01*
X37354Y119457D01*
X37003Y118610D01*
X38870D01*
Y120477D01*
D02*
G37*
G36*
X20185D02*
Y118610D01*
X22052D01*
X21701Y119457D01*
X21032Y120126D01*
X20185Y120477D01*
D02*
G37*
G36*
X19185D02*
X18338Y120126D01*
X17669Y119457D01*
X17318Y118610D01*
X19185D01*
Y120477D01*
D02*
G37*
G36*
X238587Y117610D02*
X236720D01*
Y115744D01*
X237567Y116094D01*
X238236Y116763D01*
X238587Y117610D01*
D02*
G37*
G36*
X235720D02*
X233854D01*
X234205Y116763D01*
X234874Y116094D01*
X235720Y115744D01*
Y117610D01*
D02*
G37*
G36*
X218902D02*
X217035D01*
Y115744D01*
X217882Y116094D01*
X218551Y116763D01*
X218902Y117610D01*
D02*
G37*
G36*
X216035D02*
X214169D01*
X214520Y116763D01*
X215188Y116094D01*
X216035Y115744D01*
Y117610D01*
D02*
G37*
G36*
X199217D02*
X197350D01*
Y115744D01*
X198197Y116094D01*
X198866Y116763D01*
X199217Y117610D01*
D02*
G37*
G36*
X196350D02*
X194484D01*
X194834Y116763D01*
X195503Y116094D01*
X196350Y115744D01*
Y117610D01*
D02*
G37*
G36*
X100792D02*
X98925D01*
Y115744D01*
X99772Y116094D01*
X100441Y116763D01*
X100792Y117610D01*
D02*
G37*
G36*
X97925D02*
X96058D01*
X96409Y116763D01*
X97078Y116094D01*
X97925Y115744D01*
Y117610D01*
D02*
G37*
G36*
X81107D02*
X79240D01*
Y115744D01*
X80087Y116094D01*
X80756Y116763D01*
X81107Y117610D01*
D02*
G37*
G36*
X78240D02*
X76373D01*
X76724Y116763D01*
X77393Y116094D01*
X78240Y115744D01*
Y117610D01*
D02*
G37*
G36*
X61422D02*
X59555D01*
Y115744D01*
X60402Y116094D01*
X61071Y116763D01*
X61422Y117610D01*
D02*
G37*
G36*
X58555D02*
X56688D01*
X57039Y116763D01*
X57708Y116094D01*
X58555Y115744D01*
Y117610D01*
D02*
G37*
G36*
X41737D02*
X39870D01*
Y115744D01*
X40717Y116094D01*
X41386Y116763D01*
X41737Y117610D01*
D02*
G37*
G36*
X38870D02*
X37003D01*
X37354Y116763D01*
X38023Y116094D01*
X38870Y115744D01*
Y117610D01*
D02*
G37*
G36*
X22052D02*
X20185D01*
Y115744D01*
X21032Y116094D01*
X21701Y116763D01*
X22052Y117610D01*
D02*
G37*
G36*
X19185D02*
X17318D01*
X17669Y116763D01*
X18338Y116094D01*
X19185Y115744D01*
Y117610D01*
D02*
G37*
G36*
X246563Y100792D02*
Y98925D01*
X248430D01*
X248079Y99772D01*
X247410Y100441D01*
X246563Y100792D01*
D02*
G37*
G36*
X245563D02*
X244716Y100441D01*
X244047Y99772D01*
X243696Y98925D01*
X245563D01*
Y100792D01*
D02*
G37*
G36*
X226878D02*
Y98925D01*
X228745D01*
X228394Y99772D01*
X227725Y100441D01*
X226878Y100792D01*
D02*
G37*
G36*
X225878D02*
X225031Y100441D01*
X224362Y99772D01*
X224011Y98925D01*
X225878D01*
Y100792D01*
D02*
G37*
G36*
X207193D02*
Y98925D01*
X209060D01*
X208709Y99772D01*
X208040Y100441D01*
X207193Y100792D01*
D02*
G37*
G36*
X206193D02*
X205346Y100441D01*
X204677Y99772D01*
X204326Y98925D01*
X206193D01*
Y100792D01*
D02*
G37*
G36*
X187508D02*
Y98925D01*
X189375D01*
X189024Y99772D01*
X188355Y100441D01*
X187508Y100792D01*
D02*
G37*
G36*
X186508D02*
X185661Y100441D01*
X184992Y99772D01*
X184641Y98925D01*
X186508D01*
Y100792D01*
D02*
G37*
G36*
X89083D02*
Y98925D01*
X90949D01*
X90599Y99772D01*
X89930Y100441D01*
X89083Y100792D01*
D02*
G37*
G36*
X88083D02*
X87236Y100441D01*
X86567Y99772D01*
X86216Y98925D01*
X88083D01*
Y100792D01*
D02*
G37*
G36*
X69398D02*
Y98925D01*
X71264D01*
X70914Y99772D01*
X70245Y100441D01*
X69398Y100792D01*
D02*
G37*
G36*
X68398D02*
X67551Y100441D01*
X66882Y99772D01*
X66531Y98925D01*
X68398D01*
Y100792D01*
D02*
G37*
G36*
X49713D02*
Y98925D01*
X51579D01*
X51228Y99772D01*
X50560Y100441D01*
X49713Y100792D01*
D02*
G37*
G36*
X48713D02*
X47866Y100441D01*
X47197Y99772D01*
X46846Y98925D01*
X48713D01*
Y100792D01*
D02*
G37*
G36*
X30028D02*
Y98925D01*
X31894D01*
X31543Y99772D01*
X30875Y100441D01*
X30028Y100792D01*
D02*
G37*
G36*
X29028D02*
X28181Y100441D01*
X27512Y99772D01*
X27161Y98925D01*
X29028D01*
Y100792D01*
D02*
G37*
G36*
X248430Y97925D02*
X246563D01*
Y96058D01*
X247410Y96409D01*
X248079Y97078D01*
X248430Y97925D01*
D02*
G37*
G36*
X245563D02*
X243696D01*
X244047Y97078D01*
X244716Y96409D01*
X245563Y96058D01*
Y97925D01*
D02*
G37*
G36*
X228745D02*
X226878D01*
Y96058D01*
X227725Y96409D01*
X228394Y97078D01*
X228745Y97925D01*
D02*
G37*
G36*
X225878D02*
X224011D01*
X224362Y97078D01*
X225031Y96409D01*
X225878Y96058D01*
Y97925D01*
D02*
G37*
G36*
X209060D02*
X207193D01*
Y96058D01*
X208040Y96409D01*
X208709Y97078D01*
X209060Y97925D01*
D02*
G37*
G36*
X206193D02*
X204326D01*
X204677Y97078D01*
X205346Y96409D01*
X206193Y96058D01*
Y97925D01*
D02*
G37*
G36*
X189375D02*
X187508D01*
Y96058D01*
X188355Y96409D01*
X189024Y97078D01*
X189375Y97925D01*
D02*
G37*
G36*
X186508D02*
X184641D01*
X184992Y97078D01*
X185661Y96409D01*
X186508Y96058D01*
Y97925D01*
D02*
G37*
G36*
X90949D02*
X89083D01*
Y96058D01*
X89930Y96409D01*
X90599Y97078D01*
X90949Y97925D01*
D02*
G37*
G36*
X88083D02*
X86216D01*
X86567Y97078D01*
X87236Y96409D01*
X88083Y96058D01*
Y97925D01*
D02*
G37*
G36*
X71264D02*
X69398D01*
Y96058D01*
X70245Y96409D01*
X70914Y97078D01*
X71264Y97925D01*
D02*
G37*
G36*
X68398D02*
X66531D01*
X66882Y97078D01*
X67551Y96409D01*
X68398Y96058D01*
Y97925D01*
D02*
G37*
G36*
X51579D02*
X49713D01*
Y96058D01*
X50560Y96409D01*
X51228Y97078D01*
X51579Y97925D01*
D02*
G37*
G36*
X48713D02*
X46846D01*
X47197Y97078D01*
X47866Y96409D01*
X48713Y96058D01*
Y97925D01*
D02*
G37*
G36*
X31894D02*
X30028D01*
Y96058D01*
X30875Y96409D01*
X31543Y97078D01*
X31894Y97925D01*
D02*
G37*
G36*
X29028D02*
X27161D01*
X27512Y97078D01*
X28181Y96409D01*
X29028Y96058D01*
Y97925D01*
D02*
G37*
G36*
X163258Y98558D02*
X160790D01*
Y95400D01*
X163258D01*
Y98558D01*
D02*
G37*
G36*
X111102Y95205D02*
X108633D01*
Y92047D01*
X111102D01*
Y95205D01*
D02*
G37*
G36*
Y91047D02*
X108633D01*
Y87890D01*
X111102D01*
Y91047D01*
D02*
G37*
G36*
X166607Y82300D02*
X164100D01*
Y79793D01*
X164584D01*
X165358Y79947D01*
X166015Y80385D01*
X166453Y81042D01*
X166607Y81816D01*
Y82300D01*
D02*
G37*
G36*
X163100D02*
X160593D01*
Y81816D01*
X160747Y81042D01*
X161185Y80385D01*
X161841Y79947D01*
X162616Y79793D01*
X163100D01*
Y82300D01*
D02*
G37*
G36*
X236720Y81107D02*
Y79240D01*
X238587D01*
X238236Y80087D01*
X237567Y80756D01*
X236720Y81107D01*
D02*
G37*
G36*
X235720D02*
X234874Y80756D01*
X234205Y80087D01*
X233854Y79240D01*
X235720D01*
Y81107D01*
D02*
G37*
G36*
X217035D02*
Y79240D01*
X218902D01*
X218551Y80087D01*
X217882Y80756D01*
X217035Y81107D01*
D02*
G37*
G36*
X216035D02*
X215188Y80756D01*
X214520Y80087D01*
X214169Y79240D01*
X216035D01*
Y81107D01*
D02*
G37*
G36*
X197350D02*
Y79240D01*
X199217D01*
X198866Y80087D01*
X198197Y80756D01*
X197350Y81107D01*
D02*
G37*
G36*
X196350D02*
X195503Y80756D01*
X194834Y80087D01*
X194484Y79240D01*
X196350D01*
Y81107D01*
D02*
G37*
G36*
X177665D02*
Y79240D01*
X179532D01*
X179181Y80087D01*
X178512Y80756D01*
X177665Y81107D01*
D02*
G37*
G36*
X176665D02*
X175818Y80756D01*
X175149Y80087D01*
X174799Y79240D01*
X176665D01*
Y81107D01*
D02*
G37*
G36*
X157980D02*
Y79240D01*
X159847D01*
X159496Y80087D01*
X158827Y80756D01*
X157980Y81107D01*
D02*
G37*
G36*
X156980D02*
X156133Y80756D01*
X155464Y80087D01*
X155114Y79240D01*
X156980D01*
Y81107D01*
D02*
G37*
G36*
X138295D02*
Y79240D01*
X140162D01*
X139811Y80087D01*
X139142Y80756D01*
X138295Y81107D01*
D02*
G37*
G36*
X137295D02*
X136448Y80756D01*
X135779Y80087D01*
X135429Y79240D01*
X137295D01*
Y81107D01*
D02*
G37*
G36*
X118610D02*
Y79240D01*
X120477D01*
X120126Y80087D01*
X119457Y80756D01*
X118610Y81107D01*
D02*
G37*
G36*
X117610D02*
X116763Y80756D01*
X116094Y80087D01*
X115744Y79240D01*
X117610D01*
Y81107D01*
D02*
G37*
G36*
X98925D02*
Y79240D01*
X100792D01*
X100441Y80087D01*
X99772Y80756D01*
X98925Y81107D01*
D02*
G37*
G36*
X97925D02*
X97078Y80756D01*
X96409Y80087D01*
X96058Y79240D01*
X97925D01*
Y81107D01*
D02*
G37*
G36*
X79240D02*
Y79240D01*
X81107D01*
X80756Y80087D01*
X80087Y80756D01*
X79240Y81107D01*
D02*
G37*
G36*
X78240D02*
X77393Y80756D01*
X76724Y80087D01*
X76373Y79240D01*
X78240D01*
Y81107D01*
D02*
G37*
G36*
X59555D02*
Y79240D01*
X61422D01*
X61071Y80087D01*
X60402Y80756D01*
X59555Y81107D01*
D02*
G37*
G36*
X58555D02*
X57708Y80756D01*
X57039Y80087D01*
X56688Y79240D01*
X58555D01*
Y81107D01*
D02*
G37*
G36*
X39870D02*
Y79240D01*
X41737D01*
X41386Y80087D01*
X40717Y80756D01*
X39870Y81107D01*
D02*
G37*
G36*
X38870D02*
X38023Y80756D01*
X37354Y80087D01*
X37003Y79240D01*
X38870D01*
Y81107D01*
D02*
G37*
G36*
X20185D02*
Y79240D01*
X22052D01*
X21701Y80087D01*
X21032Y80756D01*
X20185Y81107D01*
D02*
G37*
G36*
X19185D02*
X18338Y80756D01*
X17669Y80087D01*
X17318Y79240D01*
X19185D01*
Y81107D01*
D02*
G37*
G36*
X238587Y78240D02*
X236720D01*
Y76373D01*
X237567Y76724D01*
X238236Y77393D01*
X238587Y78240D01*
D02*
G37*
G36*
X235720D02*
X233854D01*
X234205Y77393D01*
X234874Y76724D01*
X235720Y76373D01*
Y78240D01*
D02*
G37*
G36*
X218902D02*
X217035D01*
Y76373D01*
X217882Y76724D01*
X218551Y77393D01*
X218902Y78240D01*
D02*
G37*
G36*
X216035D02*
X214169D01*
X214520Y77393D01*
X215188Y76724D01*
X216035Y76373D01*
Y78240D01*
D02*
G37*
G36*
X199217D02*
X197350D01*
Y76373D01*
X198197Y76724D01*
X198866Y77393D01*
X199217Y78240D01*
D02*
G37*
G36*
X196350D02*
X194484D01*
X194834Y77393D01*
X195503Y76724D01*
X196350Y76373D01*
Y78240D01*
D02*
G37*
G36*
X179532D02*
X177665D01*
Y76373D01*
X178512Y76724D01*
X179181Y77393D01*
X179532Y78240D01*
D02*
G37*
G36*
X176665D02*
X174799D01*
X175149Y77393D01*
X175818Y76724D01*
X176665Y76373D01*
Y78240D01*
D02*
G37*
G36*
X159847D02*
X157980D01*
Y76373D01*
X158827Y76724D01*
X159496Y77393D01*
X159847Y78240D01*
D02*
G37*
G36*
X156980D02*
X155114D01*
X155464Y77393D01*
X156133Y76724D01*
X156980Y76373D01*
Y78240D01*
D02*
G37*
G36*
X140162D02*
X138295D01*
Y76373D01*
X139142Y76724D01*
X139811Y77393D01*
X140162Y78240D01*
D02*
G37*
G36*
X137295D02*
X135429D01*
X135779Y77393D01*
X136448Y76724D01*
X137295Y76373D01*
Y78240D01*
D02*
G37*
G36*
X120477D02*
X118610D01*
Y76373D01*
X119457Y76724D01*
X120126Y77393D01*
X120477Y78240D01*
D02*
G37*
G36*
X117610D02*
X115744D01*
X116094Y77393D01*
X116763Y76724D01*
X117610Y76373D01*
Y78240D01*
D02*
G37*
G36*
X100792D02*
X98925D01*
Y76373D01*
X99772Y76724D01*
X100441Y77393D01*
X100792Y78240D01*
D02*
G37*
G36*
X97925D02*
X96058D01*
X96409Y77393D01*
X97078Y76724D01*
X97925Y76373D01*
Y78240D01*
D02*
G37*
G36*
X81107D02*
X79240D01*
Y76373D01*
X80087Y76724D01*
X80756Y77393D01*
X81107Y78240D01*
D02*
G37*
G36*
X78240D02*
X76373D01*
X76724Y77393D01*
X77393Y76724D01*
X78240Y76373D01*
Y78240D01*
D02*
G37*
G36*
X61422D02*
X59555D01*
Y76373D01*
X60402Y76724D01*
X61071Y77393D01*
X61422Y78240D01*
D02*
G37*
G36*
X58555D02*
X56688D01*
X57039Y77393D01*
X57708Y76724D01*
X58555Y76373D01*
Y78240D01*
D02*
G37*
G36*
X41737D02*
X39870D01*
Y76373D01*
X40717Y76724D01*
X41386Y77393D01*
X41737Y78240D01*
D02*
G37*
G36*
X38870D02*
X37003D01*
X37354Y77393D01*
X38023Y76724D01*
X38870Y76373D01*
Y78240D01*
D02*
G37*
G36*
X22052D02*
X20185D01*
Y76373D01*
X21032Y76724D01*
X21701Y77393D01*
X22052Y78240D01*
D02*
G37*
G36*
X19185D02*
X17318D01*
X17669Y77393D01*
X18338Y76724D01*
X19185Y76373D01*
Y78240D01*
D02*
G37*
G36*
X131500Y131354D02*
X130764Y131049D01*
X130151Y130436D01*
X129846Y129700D01*
X131500D01*
Y131354D01*
D02*
G37*
%LPD*%
D13*
X131795Y141196D02*
X135345Y137646D01*
Y117081D02*
Y137646D01*
Y117081D02*
X136530Y115896D01*
X148969Y112148D02*
X150657Y113837D01*
X148969Y111800D02*
Y112148D01*
X150657Y113837D02*
X153972D01*
X144061Y101229D02*
X144268Y101436D01*
X146236Y102428D02*
X148023Y100642D01*
X143800Y100300D02*
X144061Y100561D01*
X148023Y100377D02*
Y100642D01*
X144061Y100561D02*
Y101229D01*
X144268Y101436D02*
Y106101D01*
X150173Y102327D02*
X152100Y100400D01*
X146236Y102428D02*
Y106101D01*
X150173Y102327D02*
Y106101D01*
X32673Y210500D02*
X42673D01*
X122200Y123100D02*
X125078D01*
X130711Y116917D02*
X131400D01*
X129243Y118385D02*
X130711Y116917D01*
X125078Y123100D02*
X129243Y118935D01*
Y118385D02*
Y118935D01*
X122200Y123100D02*
Y130100D01*
X131400Y116917D02*
X132089D01*
X144268Y121573D02*
Y126699D01*
X144369Y126800D01*
X139200Y100300D02*
X142299Y103399D01*
X156814Y206047D02*
X157400Y205462D01*
Y163846D02*
Y205462D01*
X150829Y206047D02*
X156814D01*
X130829Y204953D02*
X144647D01*
X147673Y209203D02*
Y211797D01*
X127673Y201797D02*
X130829Y204953D01*
X124518Y206047D02*
X127673Y209203D01*
X102673Y210500D02*
X107126Y206047D01*
X124518D01*
X130829Y214953D02*
X144518D01*
X147673Y211797D01*
Y209203D02*
X150829Y206047D01*
X127673Y209203D02*
Y211797D01*
X130829Y214953D01*
X144647Y204953D02*
X146047Y203553D01*
X153972Y160418D02*
X157400Y163846D01*
X153972Y117774D02*
Y160418D01*
X166814Y216600D02*
X167400Y216014D01*
X112673Y210500D02*
X118773Y216600D01*
X166814D01*
X167400Y165700D02*
Y216014D01*
X157300Y155600D02*
X167400Y165700D01*
X154063Y115896D02*
X155943D01*
X157300Y117253D01*
Y155600D01*
X153972Y115805D02*
X154063Y115896D01*
X138500Y117774D02*
Y124100D01*
X129339Y90439D02*
Y95239D01*
X128900Y90000D02*
X129339Y90439D01*
Y95239D02*
X129600Y95500D01*
X122200Y130100D02*
X126700Y134600D01*
X131500Y141196D02*
X131795D01*
X136530Y115896D02*
X138409D01*
X138500Y115805D01*
X124518Y196047D02*
X127673Y199203D01*
X87126Y196047D02*
X124518D01*
X127673Y199203D02*
Y201797D01*
X131450Y134650D02*
X131500Y134700D01*
X126750Y134650D02*
X131450D01*
X126700Y134600D02*
X126750Y134650D01*
X128885Y150132D02*
Y171100D01*
X117048Y138295D02*
X128885Y150132D01*
X146047Y203553D02*
X147345Y202255D01*
Y199531D02*
Y202255D01*
X146047Y203553D02*
X146047D01*
X147345Y199531D02*
X150173Y196703D01*
X148205Y121573D02*
Y194968D01*
X142673Y200500D02*
X148205Y194968D01*
X150173Y121573D02*
Y196703D01*
X82673Y200500D02*
X87126Y196047D01*
X141688Y125689D02*
Y191485D01*
X132673Y200500D02*
X141688Y191485D01*
Y125689D02*
X142299Y125078D01*
Y103399D02*
Y106101D01*
X163600Y94742D02*
X163758Y94900D01*
X163600Y82800D02*
Y94742D01*
X118885Y91547D02*
Y92236D01*
Y91469D02*
Y91547D01*
X120354Y90000D02*
X128900D01*
X118885Y91469D02*
X120354Y90000D01*
X66076Y168600D02*
X75630Y159046D01*
Y157970D02*
X76800Y156800D01*
X64502Y168600D02*
X66076D01*
X75630Y157970D02*
Y159046D01*
X39698Y168600D02*
X64502D01*
X142299Y121573D02*
Y125078D01*
X132089Y116917D02*
X135169Y113837D01*
X138500D01*
X126100Y109900D02*
X138500D01*
X115752Y111869D02*
X138500D01*
X107200Y103316D02*
X115752Y111869D01*
X122200Y106000D02*
X126100Y109900D01*
X112200Y123100D02*
Y130854D01*
X117124Y123176D02*
X117200Y123100D01*
X117124Y123176D02*
Y137924D01*
X110552Y138000D02*
Y148842D01*
Y132502D02*
Y138000D01*
Y132502D02*
X112200Y130854D01*
X117048Y138000D02*
X117124Y137924D01*
X117048Y138000D02*
Y138295D01*
X36957Y171342D02*
X39698Y168600D01*
X26400Y171342D02*
X36957D01*
X167802Y105329D02*
X171042Y102089D01*
X167400Y105329D02*
X167802D01*
X171042Y94900D02*
Y102089D01*
X167543Y121471D02*
X170783Y124711D01*
Y132700D01*
X167400Y121471D02*
X167543D01*
X164160Y108569D02*
X167400Y105329D01*
X159708Y108569D02*
X164160D01*
X158377Y109900D02*
X159708Y108569D01*
X153972Y109900D02*
X158377D01*
X160043Y115002D02*
Y115098D01*
X156909Y111869D02*
X160043Y115002D01*
X166416Y121471D02*
X167400D01*
X160043Y115098D02*
X166416Y121471D01*
X153972Y111869D02*
X156909D01*
X122200Y101643D02*
Y106000D01*
X107200Y101643D02*
Y103316D01*
X117200Y93922D02*
Y101643D01*
Y93922D02*
X118885Y92236D01*
X110552Y148842D02*
X119043Y157333D01*
Y171100D01*
X77311Y172742D02*
X78000D01*
X64502Y177655D02*
X72398D01*
X77311Y172742D01*
X48221Y198656D02*
Y204953D01*
Y198656D02*
X64502Y182375D01*
Y177655D02*
Y182375D01*
X42673Y210500D02*
X48221Y204953D01*
X78689Y172742D02*
X80331Y171100D01*
X78000Y172742D02*
X78689D01*
X80331Y171100D02*
X99357D01*
D15*
X131400Y116917D02*
D03*
Y124200D02*
D03*
X26400Y164058D02*
D03*
Y171342D02*
D03*
X78000Y172742D02*
D03*
Y165458D02*
D03*
D16*
X146236Y113837D02*
D03*
D17*
X142299Y121573D02*
D03*
X150173D02*
D03*
X148205D02*
D03*
X146236D02*
D03*
X144268D02*
D03*
X142299Y106101D02*
D03*
X150173D02*
D03*
X148205D02*
D03*
X146236D02*
D03*
X144268D02*
D03*
D18*
X138500Y109900D02*
D03*
Y117774D02*
D03*
Y115805D02*
D03*
Y113837D02*
D03*
Y111869D02*
D03*
X153972Y109900D02*
D03*
Y117774D02*
D03*
Y115805D02*
D03*
Y113837D02*
D03*
Y111869D02*
D03*
D19*
X163600Y82800D02*
D03*
X76800Y156800D02*
D03*
X128900Y90000D02*
D03*
D20*
X170783Y132700D02*
D03*
X163500D02*
D03*
X171042Y94900D02*
D03*
X163758D02*
D03*
X118885Y91547D02*
D03*
X111602D02*
D03*
D21*
X167400Y105329D02*
D03*
Y121471D02*
D03*
D22*
X107200Y101643D02*
D03*
X112200D02*
D03*
X117200D02*
D03*
X122200D02*
D03*
Y123100D02*
D03*
X117200D02*
D03*
X112200D02*
D03*
X107200D02*
D03*
D23*
X131500Y134700D02*
D03*
Y141196D02*
D03*
D24*
X110552Y138000D02*
D03*
X117048D02*
D03*
D25*
X39698Y168600D02*
D03*
D26*
X64502Y177655D02*
D03*
Y168600D02*
D03*
Y159545D02*
D03*
D46*
X222673Y210500D02*
D03*
Y200500D02*
D03*
X212673Y210500D02*
D03*
Y200500D02*
D03*
X202673Y210500D02*
D03*
Y200500D02*
D03*
X192673Y210500D02*
D03*
Y200500D02*
D03*
X182673Y210500D02*
D03*
Y200500D02*
D03*
X172673Y210500D02*
D03*
Y200500D02*
D03*
X162673Y210500D02*
D03*
Y200500D02*
D03*
X152673Y210500D02*
D03*
Y200500D02*
D03*
X142673Y210500D02*
D03*
Y200500D02*
D03*
X132673Y210500D02*
D03*
Y200500D02*
D03*
X122673Y210500D02*
D03*
Y200500D02*
D03*
X112673Y210500D02*
D03*
Y200500D02*
D03*
X102673Y210500D02*
D03*
Y200500D02*
D03*
X92673Y210500D02*
D03*
Y200500D02*
D03*
X82673Y210500D02*
D03*
Y200500D02*
D03*
X72673Y210500D02*
D03*
Y200500D02*
D03*
X62673Y210500D02*
D03*
Y200500D02*
D03*
X52673Y210500D02*
D03*
Y200500D02*
D03*
X42673Y210500D02*
D03*
Y200500D02*
D03*
X32673Y210500D02*
D03*
D47*
Y200500D02*
D03*
D48*
X241846Y12587D02*
D03*
X13500D02*
D03*
Y205500D02*
D03*
X241846D02*
D03*
D49*
X128885Y171100D02*
D03*
X119043D02*
D03*
X109200D02*
D03*
D50*
X99357D02*
D03*
D51*
X187008Y137795D02*
D03*
Y177165D02*
D03*
X246063D02*
D03*
X236221Y157480D02*
D03*
X246063Y137795D02*
D03*
X236221Y118110D02*
D03*
X246063Y98425D02*
D03*
X236221Y78740D02*
D03*
X226378Y177165D02*
D03*
Y137795D02*
D03*
X216535Y118110D02*
D03*
X226378Y98425D02*
D03*
X216535Y78740D02*
D03*
X196850Y196850D02*
D03*
X206693Y177165D02*
D03*
X196850Y157480D02*
D03*
Y118110D02*
D03*
X206693Y98425D02*
D03*
X196850Y78740D02*
D03*
X187008Y98425D02*
D03*
X177165Y78740D02*
D03*
X157480D02*
D03*
X137795D02*
D03*
X118110D02*
D03*
X98425Y157480D02*
D03*
Y118110D02*
D03*
Y78740D02*
D03*
X78740Y196850D02*
D03*
X88583Y177165D02*
D03*
Y137795D02*
D03*
X78740Y118110D02*
D03*
X88583Y98425D02*
D03*
X78740Y78740D02*
D03*
X68898Y137795D02*
D03*
X59055Y118110D02*
D03*
X68898Y98425D02*
D03*
X59055Y78740D02*
D03*
X49213Y177165D02*
D03*
X39370Y157480D02*
D03*
X49213Y137795D02*
D03*
X39370Y118110D02*
D03*
X49213Y98425D02*
D03*
X39370Y78740D02*
D03*
X19685Y196850D02*
D03*
X29528Y177165D02*
D03*
X19685Y157480D02*
D03*
X29528Y137795D02*
D03*
X19685Y118110D02*
D03*
X29528Y98425D02*
D03*
X19685Y78740D02*
D03*
D52*
X132000Y129200D02*
D03*
X148023Y100377D02*
D03*
X143800Y100300D02*
D03*
X152100Y100400D02*
D03*
X148800Y116100D02*
D03*
X144300Y111800D02*
D03*
Y116100D02*
D03*
X153569Y180300D02*
D03*
X148969Y111800D02*
D03*
X144369Y126800D02*
D03*
X139200Y100300D02*
D03*
X138500Y124100D02*
D03*
X129600Y95500D02*
D03*
X126700Y134600D02*
D03*
M02*
