G04*
G04 #@! TF.GenerationSoftware,Altium Limited,Altium Designer,21.2.0 (30)*
G04*
G04 Layer_Physical_Order=1*
G04 Layer_Color=255*
%FSLAX25Y25*%
%MOIN*%
G70*
G04*
G04 #@! TF.SameCoordinates,14206FE4-1D31-4024-8575-2447F3C89696*
G04*
G04*
G04 #@! TF.FilePolarity,Positive*
G04*
G01*
G75*
%ADD13C,0.01000*%
%ADD15R,0.05315X0.03937*%
%ADD16R,0.09843X0.09843*%
%ADD17R,0.01181X0.02874*%
%ADD18R,0.02874X0.01181*%
G04:AMPARAMS|DCode=19|XSize=39.37mil|YSize=39.37mil|CornerRadius=9.84mil|HoleSize=0mil|Usage=FLASHONLY|Rotation=90.000|XOffset=0mil|YOffset=0mil|HoleType=Round|Shape=RoundedRectangle|*
%AMROUNDEDRECTD19*
21,1,0.03937,0.01968,0,0,90.0*
21,1,0.01968,0.03937,0,0,90.0*
1,1,0.01968,0.00984,0.00984*
1,1,0.01968,0.00984,-0.00984*
1,1,0.01968,-0.00984,-0.00984*
1,1,0.01968,-0.00984,0.00984*
%
%ADD19ROUNDEDRECTD19*%
%ADD20R,0.03937X0.05315*%
%ADD21R,0.09449X0.07480*%
%ADD22R,0.02756X0.06102*%
%ADD23R,0.03347X0.02756*%
%ADD24R,0.02756X0.03347*%
%ADD25R,0.06890X0.12598*%
%ADD26R,0.06890X0.03740*%
%ADD45C,0.01200*%
%ADD46C,0.01500*%
%ADD47C,0.01100*%
%ADD48C,0.05906*%
%ADD49R,0.05906X0.05906*%
%ADD50C,0.16000*%
%ADD51O,0.06693X0.07874*%
G04:AMPARAMS|DCode=52|XSize=66.93mil|YSize=78.74mil|CornerRadius=16.73mil|HoleSize=0mil|Usage=FLASHONLY|Rotation=0.000|XOffset=0mil|YOffset=0mil|HoleType=Round|Shape=RoundedRectangle|*
%AMROUNDEDRECTD52*
21,1,0.06693,0.04528,0,0,0.0*
21,1,0.03347,0.07874,0,0,0.0*
1,1,0.03346,0.01673,-0.02264*
1,1,0.03346,-0.01673,-0.02264*
1,1,0.03346,-0.01673,0.02264*
1,1,0.03346,0.01673,0.02264*
%
%ADD52ROUNDEDRECTD52*%
%ADD53C,0.02362*%
G36*
X128322Y214609D02*
X126592Y212879D01*
X126511Y212758D01*
X125923Y212777D01*
X125836Y212927D01*
X125100Y213663D01*
X124199Y214183D01*
X123194Y214453D01*
X123173D01*
Y210500D01*
X122673D01*
Y210000D01*
X118720D01*
Y209980D01*
X118990Y208974D01*
X119510Y208073D01*
X119545Y208039D01*
X119353Y207577D01*
X115993D01*
X115802Y208039D01*
X115836Y208073D01*
X116357Y208974D01*
X116626Y209980D01*
Y211020D01*
X116358Y212022D01*
X119407Y215071D01*
X128130D01*
X128322Y214609D01*
D02*
G37*
G36*
X3700Y218200D02*
X117568D01*
X117720Y217700D01*
X117692Y217681D01*
X114195Y214184D01*
X113194Y214453D01*
X112153D01*
X111147Y214183D01*
X110246Y213663D01*
X109510Y212927D01*
X108990Y212026D01*
X108721Y211020D01*
Y209980D01*
X108990Y208974D01*
X109510Y208073D01*
X109545Y208039D01*
X109353Y207577D01*
X107759D01*
X106358Y208978D01*
X106626Y209980D01*
Y211020D01*
X106357Y212026D01*
X105836Y212927D01*
X105100Y213663D01*
X104199Y214183D01*
X103194Y214453D01*
X102153D01*
X101147Y214183D01*
X100246Y213663D01*
X99510Y212927D01*
X98990Y212026D01*
X98721Y211020D01*
Y209980D01*
X98990Y208974D01*
X99510Y208073D01*
X100246Y207337D01*
X101147Y206817D01*
X102153Y206547D01*
X103194D01*
X104195Y206816D01*
X106045Y204966D01*
X106541Y204634D01*
X107126Y204518D01*
X110727D01*
X110861Y204018D01*
X110246Y203663D01*
X109510Y202927D01*
X108990Y202026D01*
X108721Y201020D01*
Y199980D01*
X108990Y198974D01*
X109510Y198073D01*
X110246Y197337D01*
X111147Y196817D01*
X112153Y196547D01*
X113194D01*
X114199Y196817D01*
X115100Y197337D01*
X115836Y198073D01*
X116357Y198974D01*
X116626Y199980D01*
Y201020D01*
X116357Y202026D01*
X115836Y202927D01*
X115100Y203663D01*
X114486Y204018D01*
X114620Y204518D01*
X120727D01*
X120861Y204018D01*
X120246Y203663D01*
X119510Y202927D01*
X118990Y202026D01*
X118720Y201020D01*
Y199980D01*
X118990Y198974D01*
X119510Y198073D01*
X120246Y197337D01*
X121148Y196817D01*
X122153Y196547D01*
X123194D01*
X124199Y196817D01*
X125100Y197337D01*
X125836Y198073D01*
X126357Y198974D01*
X126626Y199980D01*
Y201020D01*
X126357Y202026D01*
X125836Y202927D01*
X125100Y203663D01*
X124486Y204018D01*
X124506Y204332D01*
X124593Y204533D01*
X125103Y204634D01*
X125599Y204966D01*
X128755Y208121D01*
X128835Y208242D01*
X129424Y208223D01*
X129510Y208073D01*
X130246Y207337D01*
X131148Y206817D01*
X132153Y206547D01*
X133194D01*
X134199Y206817D01*
X134339Y206898D01*
X136819Y204419D01*
X137315Y204087D01*
X137900Y203971D01*
X139847D01*
X140054Y203471D01*
X139510Y202927D01*
X138990Y202026D01*
X138721Y201020D01*
Y199980D01*
X138990Y198974D01*
X139510Y198073D01*
X140246Y197337D01*
X141147Y196817D01*
X142153Y196547D01*
X143194D01*
X144195Y196816D01*
X146675Y194335D01*
Y128843D01*
X146175Y128666D01*
X145414Y128981D01*
X144546D01*
X144244Y128856D01*
X143829Y129134D01*
Y190874D01*
X143712Y191459D01*
X143381Y191955D01*
X136358Y198978D01*
X136626Y199980D01*
Y201020D01*
X136357Y202026D01*
X135836Y202927D01*
X135100Y203663D01*
X134199Y204183D01*
X133194Y204453D01*
X132153D01*
X131148Y204183D01*
X130246Y203663D01*
X129510Y202927D01*
X128990Y202026D01*
X128720Y201020D01*
Y199980D01*
X128990Y198974D01*
X129510Y198073D01*
X130246Y197337D01*
X131148Y196817D01*
X132153Y196547D01*
X133194D01*
X134195Y196816D01*
X140770Y190241D01*
Y132806D01*
X140399Y132680D01*
X140270Y132670D01*
X139682Y133258D01*
X138880Y133590D01*
X138013D01*
X137329Y133307D01*
X136829Y133530D01*
Y137691D01*
X136713Y138277D01*
X136381Y138773D01*
X133961Y141194D01*
Y143361D01*
X129039D01*
Y140194D01*
X128983Y140110D01*
X128906Y139720D01*
Y136176D01*
X128983Y135786D01*
X129039Y135702D01*
Y134770D01*
X124888Y130618D01*
X124545Y130105D01*
X124425Y129500D01*
Y127414D01*
X124365Y126939D01*
X120035D01*
Y119261D01*
X120620D01*
Y118592D01*
X117445Y115417D01*
X92262D01*
X43931Y163748D01*
Y166816D01*
X60269D01*
Y165943D01*
X68734D01*
Y171257D01*
X60269D01*
Y170384D01*
X43931D01*
Y175687D01*
X35466D01*
Y170426D01*
X32245D01*
Y171398D01*
X25355D01*
Y167049D01*
X25299Y166965D01*
X25221Y166575D01*
Y164327D01*
X25142D01*
Y161858D01*
X28800D01*
X32458D01*
Y164327D01*
X32379D01*
Y166575D01*
X32611Y166857D01*
X35466D01*
Y161513D01*
X38118D01*
Y155853D01*
X35656Y153391D01*
X34116D01*
X33424Y153253D01*
X32838Y152861D01*
X32447Y152276D01*
X32309Y151584D01*
Y149616D01*
X32447Y148925D01*
X32838Y148338D01*
X33424Y147947D01*
X34116Y147809D01*
X36084D01*
X36775Y147947D01*
X37361Y148338D01*
X37753Y148925D01*
X37891Y149616D01*
Y151156D01*
X40816Y154081D01*
X41159Y154594D01*
X41279Y155198D01*
Y161313D01*
X41779Y161430D01*
X90490Y112720D01*
X91002Y112377D01*
X91607Y112257D01*
X134192D01*
X134384Y111795D01*
X130418Y107829D01*
X110184D01*
X109598Y107713D01*
X109102Y107381D01*
X107202Y105482D01*
X105035D01*
Y97805D01*
X109365D01*
Y97805D01*
X109822Y97700D01*
Y97592D01*
X111700D01*
Y101643D01*
X112700D01*
Y97592D01*
X114578D01*
Y97592D01*
X115078Y97690D01*
X115416Y97509D01*
Y97200D01*
X115551Y96517D01*
X115938Y95938D01*
X116289Y95588D01*
X116097Y95126D01*
X114570D01*
Y95205D01*
X112102D01*
Y91547D01*
Y87890D01*
X114570D01*
Y87969D01*
X116818D01*
X117209Y88046D01*
X117293Y88102D01*
X121641D01*
Y89744D01*
X122183Y89851D01*
X122762Y90238D01*
X126554Y94030D01*
X127016Y93839D01*
Y89380D01*
X126539Y89061D01*
X126147Y88476D01*
X126009Y87784D01*
Y85816D01*
X126147Y85124D01*
X126539Y84539D01*
X127125Y84147D01*
X127816Y84009D01*
X129784D01*
X130475Y84147D01*
X131061Y84539D01*
X131453Y85124D01*
X131591Y85816D01*
Y87784D01*
X131453Y88476D01*
X131061Y89061D01*
X130584Y89380D01*
Y97500D01*
X130649Y97565D01*
X130981Y98366D01*
Y99234D01*
X130824Y99614D01*
X131158Y100114D01*
X135843D01*
X136429Y100230D01*
X136925Y100562D01*
X138119Y101756D01*
X138619Y101549D01*
Y101066D01*
X138951Y100265D01*
X139565Y99651D01*
X140366Y99319D01*
X141234D01*
X142035Y99651D01*
X142238Y99854D01*
X142738Y99647D01*
Y93323D01*
X142651Y93235D01*
X142319Y92434D01*
Y91566D01*
X142651Y90764D01*
X143264Y90151D01*
X144066Y89819D01*
X144934D01*
X145736Y90151D01*
X146349Y90764D01*
X146681Y91566D01*
Y92434D01*
X146349Y93235D01*
X145797Y93787D01*
Y94611D01*
X146297Y94818D01*
X146564Y94551D01*
X147366Y94219D01*
X148234D01*
X149036Y94551D01*
X149649Y95165D01*
X149981Y95966D01*
Y96834D01*
X149649Y97636D01*
X149329Y97955D01*
Y98666D01*
X149829Y99000D01*
X150266Y98819D01*
X151134D01*
X151936Y99151D01*
X152549Y99765D01*
X152881Y100566D01*
Y101434D01*
X152549Y102235D01*
X151936Y102849D01*
X151703Y102945D01*
Y106101D01*
X151586Y106686D01*
X151551Y106738D01*
Y107916D01*
X152157D01*
Y108522D01*
X153335D01*
X153387Y108487D01*
X153972Y108371D01*
X157744D01*
X158626Y107488D01*
X159123Y107156D01*
X159708Y107040D01*
X161888D01*
Y100802D01*
X169512D01*
Y98858D01*
X169012Y98471D01*
X168975Y98479D01*
X166727D01*
Y98558D01*
X164258D01*
Y94900D01*
X163758D01*
Y94400D01*
X160790D01*
Y91242D01*
X162071D01*
Y85699D01*
X161841Y85653D01*
X161185Y85215D01*
X160747Y84558D01*
X160593Y83784D01*
Y83300D01*
X163600D01*
Y82800D01*
D01*
Y83300D01*
X166607D01*
Y83784D01*
X166453Y84558D01*
X166015Y85215D01*
X165358Y85653D01*
X165129Y85699D01*
Y91242D01*
X166727D01*
Y91321D01*
X168975D01*
X169365Y91399D01*
X169449Y91455D01*
X173798D01*
Y98345D01*
X172571D01*
Y100802D01*
X172912D01*
Y108645D01*
X173066Y108876D01*
X173144Y109266D01*
Y117534D01*
X173066Y117924D01*
X172912Y118155D01*
Y125998D01*
X172313D01*
Y129255D01*
X173539D01*
Y136145D01*
X169191D01*
X169107Y136201D01*
X168717Y136279D01*
X166469D01*
Y136357D01*
X164000D01*
Y132700D01*
Y129042D01*
X166469D01*
Y129121D01*
X168717D01*
X168754Y129129D01*
X169254Y128742D01*
Y125998D01*
X161888D01*
Y119106D01*
X159041Y116259D01*
X158652Y116578D01*
X158713Y116668D01*
X158829Y117253D01*
Y154966D01*
X168481Y164619D01*
X168813Y165115D01*
X168929Y165700D01*
Y198079D01*
X169429Y198213D01*
X169510Y198073D01*
X170246Y197337D01*
X171148Y196817D01*
X172153Y196547D01*
X173194D01*
X174199Y196817D01*
X175100Y197337D01*
X175836Y198073D01*
X176357Y198974D01*
X176626Y199980D01*
Y201020D01*
X176357Y202026D01*
X175836Y202927D01*
X175100Y203663D01*
X174199Y204183D01*
X173194Y204453D01*
X172153D01*
X171148Y204183D01*
X170246Y203663D01*
X169510Y202927D01*
X169429Y202787D01*
X168929Y202921D01*
Y208079D01*
X169429Y208213D01*
X169510Y208073D01*
X170246Y207337D01*
X171148Y206817D01*
X172153Y206547D01*
X172173D01*
Y210500D01*
Y214453D01*
X172153D01*
X171148Y214183D01*
X170246Y213663D01*
X169510Y212927D01*
X169429Y212787D01*
X168929Y212921D01*
Y216014D01*
X168813Y216599D01*
X168481Y217096D01*
X167896Y217681D01*
X167868Y217700D01*
X168020Y218200D01*
X251300D01*
Y206669D01*
X250800Y206620D01*
X250501Y208125D01*
X249822Y209763D01*
X248837Y211237D01*
X247584Y212491D01*
X246110Y213476D01*
X244472Y214154D01*
X242733Y214500D01*
X240960D01*
X239221Y214154D01*
X237583Y213476D01*
X236109Y212491D01*
X234856Y211237D01*
X233871Y209763D01*
X233192Y208125D01*
X232846Y206386D01*
Y204614D01*
X233192Y202875D01*
X233871Y201237D01*
X234856Y199763D01*
X236109Y198509D01*
X237583Y197524D01*
X239221Y196846D01*
X240960Y196500D01*
X242733D01*
X244472Y196846D01*
X246110Y197524D01*
X247584Y198509D01*
X248837Y199763D01*
X249822Y201237D01*
X250501Y202875D01*
X250800Y204380D01*
X251300Y204331D01*
Y70600D01*
X248900Y68200D01*
X2900Y69300D01*
Y218200D01*
X3300Y218600D01*
X3700Y218200D01*
D02*
G37*
G36*
X153173Y196547D02*
X153194D01*
X154199Y196817D01*
X155100Y197337D01*
X155371Y197607D01*
X155871Y197400D01*
Y164480D01*
X152891Y161500D01*
X152559Y161004D01*
X152443Y160418D01*
Y120140D01*
X152157Y119758D01*
X151551D01*
Y120935D01*
X151586Y120988D01*
X151703Y121573D01*
Y196150D01*
X152090Y196543D01*
X152169Y196547D01*
X152173D01*
Y200500D01*
X153173D01*
Y196547D01*
D02*
G37*
%LPC*%
G36*
X122173Y214453D02*
X122153D01*
X121148Y214183D01*
X120246Y213663D01*
X119510Y212927D01*
X118990Y212026D01*
X118720Y211020D01*
Y211000D01*
X122173D01*
Y214453D01*
D02*
G37*
G36*
X43194D02*
X42153D01*
X41148Y214183D01*
X40246Y213663D01*
X39510Y212927D01*
X38992Y212029D01*
X36355D01*
X35836Y212927D01*
X35100Y213663D01*
X34199Y214183D01*
X33194Y214453D01*
X32153D01*
X31148Y214183D01*
X30246Y213663D01*
X29510Y212927D01*
X28990Y212026D01*
X28721Y211020D01*
Y209980D01*
X28990Y208974D01*
X29510Y208073D01*
X30246Y207337D01*
X31148Y206817D01*
X32153Y206547D01*
X33194D01*
X34199Y206817D01*
X35100Y207337D01*
X35836Y208073D01*
X36355Y208971D01*
X38992D01*
X39510Y208073D01*
X40246Y207337D01*
X41148Y206817D01*
X42153Y206547D01*
X43194D01*
X44195Y206816D01*
X46691Y204319D01*
Y202446D01*
X46191Y202312D01*
X45836Y202927D01*
X45100Y203663D01*
X44199Y204183D01*
X43194Y204453D01*
X42153D01*
X41148Y204183D01*
X40246Y203663D01*
X39510Y202927D01*
X38990Y202026D01*
X38721Y201020D01*
Y199980D01*
X38990Y198974D01*
X39510Y198073D01*
X40246Y197337D01*
X41148Y196817D01*
X42153Y196547D01*
X43194D01*
X44199Y196817D01*
X45100Y197337D01*
X45836Y198073D01*
X46191Y198688D01*
X46505Y198668D01*
X46706Y198580D01*
X46808Y198070D01*
X47139Y197574D01*
X62972Y181741D01*
Y180313D01*
X60269D01*
Y174998D01*
X68734D01*
Y176126D01*
X71764D01*
X74555Y173335D01*
Y171149D01*
X74499Y171065D01*
X74421Y170675D01*
Y168427D01*
X74343D01*
Y165958D01*
X81657D01*
Y168427D01*
X81579D01*
Y169571D01*
X94988D01*
Y168836D01*
X95080Y168138D01*
X95349Y167488D01*
X95778Y166930D01*
X96336Y166501D01*
X96986Y166232D01*
X97684Y166140D01*
X101031D01*
X101729Y166232D01*
X102379Y166501D01*
X102937Y166930D01*
X103366Y167488D01*
X103635Y168138D01*
X103727Y168836D01*
Y173364D01*
X103635Y174062D01*
X103366Y174712D01*
X102937Y175270D01*
X102379Y175699D01*
X101729Y175968D01*
X101031Y176060D01*
X97684D01*
X96986Y175968D01*
X96336Y175699D01*
X95778Y175270D01*
X95349Y174712D01*
X95080Y174062D01*
X94988Y173364D01*
Y172629D01*
X81445D01*
Y175498D01*
X76718D01*
X73479Y178737D01*
X72983Y179068D01*
X72398Y179184D01*
X68734D01*
Y180313D01*
X66031D01*
Y182375D01*
X65914Y182960D01*
X65583Y183456D01*
X52954Y196085D01*
X53145Y196547D01*
X53194D01*
X54199Y196817D01*
X55100Y197337D01*
X55836Y198073D01*
X56357Y198974D01*
X56626Y199980D01*
Y201020D01*
X56357Y202026D01*
X55836Y202927D01*
X55100Y203663D01*
X54199Y204183D01*
X53194Y204453D01*
X52153D01*
X51148Y204183D01*
X50246Y203663D01*
X50212Y203629D01*
X49750Y203820D01*
Y204953D01*
X49633Y205538D01*
X49302Y206034D01*
X46358Y208978D01*
X46626Y209980D01*
Y211020D01*
X46357Y212026D01*
X45836Y212927D01*
X45100Y213663D01*
X44199Y214183D01*
X43194Y214453D01*
D02*
G37*
G36*
X193194D02*
X193173D01*
Y211000D01*
X196626D01*
Y211020D01*
X196357Y212026D01*
X195836Y212927D01*
X195100Y213663D01*
X194199Y214183D01*
X193194Y214453D01*
D02*
G37*
G36*
X192173D02*
X192153D01*
X191147Y214183D01*
X190246Y213663D01*
X189510Y212927D01*
X188990Y212026D01*
X188721Y211020D01*
Y211000D01*
X192173D01*
Y214453D01*
D02*
G37*
G36*
X173194D02*
X173173D01*
Y211000D01*
X176626D01*
Y211020D01*
X176357Y212026D01*
X175836Y212927D01*
X175100Y213663D01*
X174199Y214183D01*
X173194Y214453D01*
D02*
G37*
G36*
X93194D02*
X93173D01*
Y211000D01*
X96626D01*
Y211020D01*
X96357Y212026D01*
X95836Y212927D01*
X95100Y213663D01*
X94199Y214183D01*
X93194Y214453D01*
D02*
G37*
G36*
X92173D02*
X92153D01*
X91148Y214183D01*
X90246Y213663D01*
X89510Y212927D01*
X88990Y212026D01*
X88721Y211020D01*
Y211000D01*
X92173D01*
Y214453D01*
D02*
G37*
G36*
X53194D02*
X53173D01*
Y211000D01*
X56626D01*
Y211020D01*
X56357Y212026D01*
X55836Y212927D01*
X55100Y213663D01*
X54199Y214183D01*
X53194Y214453D01*
D02*
G37*
G36*
X52173D02*
X52153D01*
X51148Y214183D01*
X50246Y213663D01*
X49510Y212927D01*
X48990Y212026D01*
X48720Y211020D01*
Y211000D01*
X52173D01*
Y214453D01*
D02*
G37*
G36*
X223194D02*
X222153D01*
X221147Y214183D01*
X220246Y213663D01*
X219510Y212927D01*
X218990Y212026D01*
X218721Y211020D01*
Y209980D01*
X218990Y208974D01*
X219510Y208073D01*
X220246Y207337D01*
X221147Y206817D01*
X222153Y206547D01*
X223194D01*
X224199Y206817D01*
X225100Y207337D01*
X225836Y208073D01*
X226357Y208974D01*
X226626Y209980D01*
Y211020D01*
X226357Y212026D01*
X225836Y212927D01*
X225100Y213663D01*
X224199Y214183D01*
X223194Y214453D01*
D02*
G37*
G36*
X213194D02*
X212153D01*
X211147Y214183D01*
X210246Y213663D01*
X209510Y212927D01*
X208990Y212026D01*
X208720Y211020D01*
Y209980D01*
X208990Y208974D01*
X209510Y208073D01*
X210246Y207337D01*
X211147Y206817D01*
X212153Y206547D01*
X213194D01*
X214199Y206817D01*
X215100Y207337D01*
X215836Y208073D01*
X216357Y208974D01*
X216626Y209980D01*
Y211020D01*
X216357Y212026D01*
X215836Y212927D01*
X215100Y213663D01*
X214199Y214183D01*
X213194Y214453D01*
D02*
G37*
G36*
X203194D02*
X202153D01*
X201148Y214183D01*
X200246Y213663D01*
X199510Y212927D01*
X198990Y212026D01*
X198721Y211020D01*
Y209980D01*
X198990Y208974D01*
X199510Y208073D01*
X200246Y207337D01*
X201148Y206817D01*
X202153Y206547D01*
X203194D01*
X204199Y206817D01*
X205100Y207337D01*
X205836Y208073D01*
X206357Y208974D01*
X206626Y209980D01*
Y211020D01*
X206357Y212026D01*
X205836Y212927D01*
X205100Y213663D01*
X204199Y214183D01*
X203194Y214453D01*
D02*
G37*
G36*
X196626Y210000D02*
X193173D01*
Y206547D01*
X193194D01*
X194199Y206817D01*
X195100Y207337D01*
X195836Y208073D01*
X196357Y208974D01*
X196626Y209980D01*
Y210000D01*
D02*
G37*
G36*
X192173D02*
X188721D01*
Y209980D01*
X188990Y208974D01*
X189510Y208073D01*
X190246Y207337D01*
X191147Y206817D01*
X192153Y206547D01*
X192173D01*
Y210000D01*
D02*
G37*
G36*
X183194Y214453D02*
X182153D01*
X181148Y214183D01*
X180246Y213663D01*
X179510Y212927D01*
X178990Y212026D01*
X178720Y211020D01*
Y209980D01*
X178990Y208974D01*
X179510Y208073D01*
X180246Y207337D01*
X181148Y206817D01*
X182153Y206547D01*
X183194D01*
X184199Y206817D01*
X185100Y207337D01*
X185836Y208073D01*
X186357Y208974D01*
X186626Y209980D01*
Y211020D01*
X186357Y212026D01*
X185836Y212927D01*
X185100Y213663D01*
X184199Y214183D01*
X183194Y214453D01*
D02*
G37*
G36*
X176626Y210000D02*
X173173D01*
Y206547D01*
X173194D01*
X174199Y206817D01*
X175100Y207337D01*
X175836Y208073D01*
X176357Y208974D01*
X176626Y209980D01*
Y210000D01*
D02*
G37*
G36*
X96626D02*
X93173D01*
Y206547D01*
X93194D01*
X94199Y206817D01*
X95100Y207337D01*
X95836Y208073D01*
X96357Y208974D01*
X96626Y209980D01*
Y210000D01*
D02*
G37*
G36*
X92173D02*
X88721D01*
Y209980D01*
X88990Y208974D01*
X89510Y208073D01*
X90246Y207337D01*
X91148Y206817D01*
X92153Y206547D01*
X92173D01*
Y210000D01*
D02*
G37*
G36*
X83194Y214453D02*
X82153D01*
X81147Y214183D01*
X80246Y213663D01*
X79510Y212927D01*
X78990Y212026D01*
X78720Y211020D01*
Y209980D01*
X78990Y208974D01*
X79510Y208073D01*
X80246Y207337D01*
X81147Y206817D01*
X82153Y206547D01*
X83194D01*
X84199Y206817D01*
X85100Y207337D01*
X85836Y208073D01*
X86357Y208974D01*
X86626Y209980D01*
Y211020D01*
X86357Y212026D01*
X85836Y212927D01*
X85100Y213663D01*
X84199Y214183D01*
X83194Y214453D01*
D02*
G37*
G36*
X73194D02*
X72153D01*
X71148Y214183D01*
X70246Y213663D01*
X69510Y212927D01*
X68990Y212026D01*
X68721Y211020D01*
Y209980D01*
X68990Y208974D01*
X69510Y208073D01*
X70246Y207337D01*
X71148Y206817D01*
X72153Y206547D01*
X73194D01*
X74199Y206817D01*
X75100Y207337D01*
X75836Y208073D01*
X76357Y208974D01*
X76626Y209980D01*
Y211020D01*
X76357Y212026D01*
X75836Y212927D01*
X75100Y213663D01*
X74199Y214183D01*
X73194Y214453D01*
D02*
G37*
G36*
X63194D02*
X62153D01*
X61147Y214183D01*
X60246Y213663D01*
X59510Y212927D01*
X58990Y212026D01*
X58720Y211020D01*
Y209980D01*
X58990Y208974D01*
X59510Y208073D01*
X60246Y207337D01*
X61147Y206817D01*
X62153Y206547D01*
X63194D01*
X64199Y206817D01*
X65100Y207337D01*
X65836Y208073D01*
X66357Y208974D01*
X66626Y209980D01*
Y211020D01*
X66357Y212026D01*
X65836Y212927D01*
X65100Y213663D01*
X64199Y214183D01*
X63194Y214453D01*
D02*
G37*
G36*
X56626Y210000D02*
X53173D01*
Y206547D01*
X53194D01*
X54199Y206817D01*
X55100Y207337D01*
X55836Y208073D01*
X56357Y208974D01*
X56626Y209980D01*
Y210000D01*
D02*
G37*
G36*
X52173D02*
X48720D01*
Y209980D01*
X48990Y208974D01*
X49510Y208073D01*
X50246Y207337D01*
X51148Y206817D01*
X52153Y206547D01*
X52173D01*
Y210000D01*
D02*
G37*
G36*
X223194Y204453D02*
X223173D01*
Y201000D01*
X226626D01*
Y201020D01*
X226357Y202026D01*
X225836Y202927D01*
X225100Y203663D01*
X224199Y204183D01*
X223194Y204453D01*
D02*
G37*
G36*
X222173D02*
X222153D01*
X221147Y204183D01*
X220246Y203663D01*
X219510Y202927D01*
X218990Y202026D01*
X218721Y201020D01*
Y201000D01*
X222173D01*
Y204453D01*
D02*
G37*
G36*
X73194D02*
X73173D01*
Y201000D01*
X76626D01*
Y201020D01*
X76357Y202026D01*
X75836Y202927D01*
X75100Y203663D01*
X74199Y204183D01*
X73194Y204453D01*
D02*
G37*
G36*
X72173D02*
X72153D01*
X71148Y204183D01*
X70246Y203663D01*
X69510Y202927D01*
X68990Y202026D01*
X68721Y201020D01*
Y201000D01*
X72173D01*
Y204453D01*
D02*
G37*
G36*
X226626Y200000D02*
X223173D01*
Y196547D01*
X223194D01*
X224199Y196817D01*
X225100Y197337D01*
X225836Y198073D01*
X226357Y198974D01*
X226626Y199980D01*
Y200000D01*
D02*
G37*
G36*
X222173D02*
X218721D01*
Y199980D01*
X218990Y198974D01*
X219510Y198073D01*
X220246Y197337D01*
X221147Y196817D01*
X222153Y196547D01*
X222173D01*
Y200000D01*
D02*
G37*
G36*
X213194Y204453D02*
X212153D01*
X211147Y204183D01*
X210246Y203663D01*
X209510Y202927D01*
X208990Y202026D01*
X208720Y201020D01*
Y199980D01*
X208990Y198974D01*
X209510Y198073D01*
X210246Y197337D01*
X211147Y196817D01*
X212153Y196547D01*
X213194D01*
X214199Y196817D01*
X215100Y197337D01*
X215836Y198073D01*
X216357Y198974D01*
X216626Y199980D01*
Y201020D01*
X216357Y202026D01*
X215836Y202927D01*
X215100Y203663D01*
X214199Y204183D01*
X213194Y204453D01*
D02*
G37*
G36*
X203194D02*
X202153D01*
X201148Y204183D01*
X200246Y203663D01*
X199510Y202927D01*
X198990Y202026D01*
X198721Y201020D01*
Y199980D01*
X198990Y198974D01*
X199510Y198073D01*
X200246Y197337D01*
X201148Y196817D01*
X202153Y196547D01*
X203194D01*
X204199Y196817D01*
X205100Y197337D01*
X205836Y198073D01*
X206357Y198974D01*
X206626Y199980D01*
Y201020D01*
X206357Y202026D01*
X205836Y202927D01*
X205100Y203663D01*
X204199Y204183D01*
X203194Y204453D01*
D02*
G37*
G36*
X193194D02*
X192153D01*
X191147Y204183D01*
X190246Y203663D01*
X189510Y202927D01*
X188990Y202026D01*
X188721Y201020D01*
Y199980D01*
X188990Y198974D01*
X189510Y198073D01*
X190246Y197337D01*
X191147Y196817D01*
X192153Y196547D01*
X193194D01*
X194199Y196817D01*
X195100Y197337D01*
X195836Y198073D01*
X196357Y198974D01*
X196626Y199980D01*
Y201020D01*
X196357Y202026D01*
X195836Y202927D01*
X195100Y203663D01*
X194199Y204183D01*
X193194Y204453D01*
D02*
G37*
G36*
X183194D02*
X182153D01*
X181148Y204183D01*
X180246Y203663D01*
X179510Y202927D01*
X178990Y202026D01*
X178720Y201020D01*
Y199980D01*
X178990Y198974D01*
X179510Y198073D01*
X180246Y197337D01*
X181148Y196817D01*
X182153Y196547D01*
X183194D01*
X184199Y196817D01*
X185100Y197337D01*
X185836Y198073D01*
X186357Y198974D01*
X186626Y199980D01*
Y201020D01*
X186357Y202026D01*
X185836Y202927D01*
X185100Y203663D01*
X184199Y204183D01*
X183194Y204453D01*
D02*
G37*
G36*
X103194D02*
X102153D01*
X101147Y204183D01*
X100246Y203663D01*
X99510Y202927D01*
X98990Y202026D01*
X98721Y201020D01*
Y199980D01*
X98990Y198974D01*
X99510Y198073D01*
X100246Y197337D01*
X101147Y196817D01*
X102153Y196547D01*
X103194D01*
X104199Y196817D01*
X105100Y197337D01*
X105836Y198073D01*
X106357Y198974D01*
X106626Y199980D01*
Y201020D01*
X106357Y202026D01*
X105836Y202927D01*
X105100Y203663D01*
X104199Y204183D01*
X103194Y204453D01*
D02*
G37*
G36*
X93194D02*
X92153D01*
X91148Y204183D01*
X90246Y203663D01*
X89510Y202927D01*
X88990Y202026D01*
X88721Y201020D01*
Y199980D01*
X88990Y198974D01*
X89510Y198073D01*
X90246Y197337D01*
X91148Y196817D01*
X92153Y196547D01*
X93194D01*
X94199Y196817D01*
X95100Y197337D01*
X95836Y198073D01*
X96357Y198974D01*
X96626Y199980D01*
Y201020D01*
X96357Y202026D01*
X95836Y202927D01*
X95100Y203663D01*
X94199Y204183D01*
X93194Y204453D01*
D02*
G37*
G36*
X83194D02*
X82153D01*
X81147Y204183D01*
X80246Y203663D01*
X79510Y202927D01*
X78990Y202026D01*
X78720Y201020D01*
Y199980D01*
X78990Y198974D01*
X79510Y198073D01*
X80246Y197337D01*
X81147Y196817D01*
X82153Y196547D01*
X83194D01*
X84199Y196817D01*
X85100Y197337D01*
X85836Y198073D01*
X86357Y198974D01*
X86626Y199980D01*
Y201020D01*
X86357Y202026D01*
X85836Y202927D01*
X85100Y203663D01*
X84199Y204183D01*
X83194Y204453D01*
D02*
G37*
G36*
X76626Y200000D02*
X73173D01*
Y196547D01*
X73194D01*
X74199Y196817D01*
X75100Y197337D01*
X75836Y198073D01*
X76357Y198974D01*
X76626Y199980D01*
Y200000D01*
D02*
G37*
G36*
X72173D02*
X68721D01*
Y199980D01*
X68990Y198974D01*
X69510Y198073D01*
X70246Y197337D01*
X71148Y196817D01*
X72153Y196547D01*
X72173D01*
Y200000D01*
D02*
G37*
G36*
X63194Y204453D02*
X62153D01*
X61147Y204183D01*
X60246Y203663D01*
X59510Y202927D01*
X58990Y202026D01*
X58720Y201020D01*
Y199980D01*
X58990Y198974D01*
X59510Y198073D01*
X60246Y197337D01*
X61147Y196817D01*
X62153Y196547D01*
X63194D01*
X64199Y196817D01*
X65100Y197337D01*
X65836Y198073D01*
X66357Y198974D01*
X66626Y199980D01*
Y201020D01*
X66357Y202026D01*
X65836Y202927D01*
X65100Y203663D01*
X64199Y204183D01*
X63194Y204453D01*
D02*
G37*
G36*
X36626D02*
X28721D01*
Y196547D01*
X36626D01*
Y204453D01*
D02*
G37*
G36*
X14386Y214500D02*
X12614D01*
X10875Y214154D01*
X9237Y213476D01*
X7763Y212491D01*
X6509Y211237D01*
X5524Y209763D01*
X4846Y208125D01*
X4500Y206386D01*
Y204614D01*
X4846Y202875D01*
X5524Y201237D01*
X6509Y199763D01*
X7763Y198509D01*
X9237Y197524D01*
X10875Y196846D01*
X12614Y196500D01*
X14386D01*
X16125Y196846D01*
X17763Y197524D01*
X19237Y198509D01*
X20491Y199763D01*
X21476Y201237D01*
X22154Y202875D01*
X22500Y204614D01*
Y206386D01*
X22154Y208125D01*
X21476Y209763D01*
X20491Y211237D01*
X19237Y212491D01*
X17763Y213476D01*
X16125Y214154D01*
X14386Y214500D01*
D02*
G37*
G36*
X109700Y176009D02*
Y171600D01*
X113584D01*
Y171691D01*
X113435Y172825D01*
X112997Y173882D01*
X112300Y174791D01*
X111392Y175487D01*
X110335Y175925D01*
X109700Y176009D01*
D02*
G37*
G36*
X108700D02*
X108065Y175925D01*
X107008Y175487D01*
X106100Y174791D01*
X105403Y173882D01*
X104965Y172825D01*
X104816Y171691D01*
Y171600D01*
X108700D01*
Y176009D01*
D02*
G37*
G36*
X113584Y170600D02*
X109700D01*
Y166191D01*
X110335Y166275D01*
X111392Y166713D01*
X112300Y167410D01*
X112997Y168317D01*
X113435Y169375D01*
X113584Y170509D01*
Y170600D01*
D02*
G37*
G36*
X108700D02*
X104816D01*
Y170509D01*
X104965Y169375D01*
X105403Y168317D01*
X106100Y167410D01*
X107008Y166713D01*
X108065Y166275D01*
X108700Y166191D01*
Y170600D01*
D02*
G37*
G36*
X81657Y164958D02*
X78500D01*
Y162490D01*
X81657D01*
Y164958D01*
D02*
G37*
G36*
X77500D02*
X74343D01*
Y162490D01*
X77500D01*
Y164958D01*
D02*
G37*
G36*
X68946Y162415D02*
X65002D01*
Y160045D01*
X68946D01*
Y162415D01*
D02*
G37*
G36*
X64002D02*
X60057D01*
Y160045D01*
X64002D01*
Y162415D01*
D02*
G37*
G36*
X32458Y160858D02*
X29300D01*
Y158390D01*
X32458D01*
Y160858D01*
D02*
G37*
G36*
X28300D02*
X25142D01*
Y158390D01*
X28300D01*
Y160858D01*
D02*
G37*
G36*
X68946Y159045D02*
X65002D01*
Y156675D01*
X68946D01*
Y159045D01*
D02*
G37*
G36*
X64002D02*
X60057D01*
Y156675D01*
X64002D01*
Y159045D01*
D02*
G37*
G36*
X128885Y176075D02*
X127750Y175925D01*
X126693Y175487D01*
X125785Y174791D01*
X125088Y173882D01*
X124651Y172825D01*
X124501Y171691D01*
Y170509D01*
X124651Y169375D01*
X125088Y168317D01*
X125785Y167410D01*
X126693Y166713D01*
X127356Y166438D01*
Y150766D01*
X117051Y140461D01*
X116046D01*
X115962Y140517D01*
X115572Y140594D01*
X112081D01*
Y148209D01*
X120124Y156251D01*
X120456Y156747D01*
X120572Y157333D01*
Y166438D01*
X121235Y166713D01*
X122143Y167410D01*
X122839Y168317D01*
X123277Y169375D01*
X123426Y170509D01*
Y171691D01*
X123277Y172825D01*
X122839Y173882D01*
X122143Y174791D01*
X121235Y175487D01*
X120177Y175925D01*
X119043Y176075D01*
X117908Y175925D01*
X116850Y175487D01*
X115943Y174791D01*
X115246Y173882D01*
X114808Y172825D01*
X114659Y171691D01*
Y170509D01*
X114808Y169375D01*
X115246Y168317D01*
X115943Y167410D01*
X116850Y166713D01*
X117513Y166438D01*
Y157966D01*
X109470Y149924D01*
X109139Y149427D01*
X109023Y148842D01*
Y140461D01*
X108387D01*
Y135539D01*
X109023D01*
Y132502D01*
X109139Y131917D01*
X109470Y131421D01*
X110671Y130220D01*
Y126939D01*
X110078D01*
X110035Y126939D01*
X109578Y127043D01*
Y127151D01*
X107700D01*
Y123100D01*
Y119049D01*
X109578D01*
Y119157D01*
X110035Y119261D01*
X110078Y119261D01*
X114365D01*
Y126939D01*
X113729D01*
Y130854D01*
X113613Y131439D01*
X113281Y131935D01*
X112081Y133135D01*
Y135406D01*
X115572D01*
X115595Y135387D01*
Y126939D01*
X115035D01*
Y119261D01*
X119365D01*
Y126939D01*
X118653D01*
Y135539D01*
X119213D01*
Y138298D01*
X129966Y149051D01*
X130298Y149547D01*
X130414Y150132D01*
Y166438D01*
X131077Y166713D01*
X131985Y167410D01*
X132682Y168317D01*
X133120Y169375D01*
X133269Y170509D01*
Y171691D01*
X133120Y172825D01*
X132682Y173882D01*
X131985Y174791D01*
X131077Y175487D01*
X130020Y175925D01*
X128885Y176075D01*
D02*
G37*
G36*
X163000Y136357D02*
X160531D01*
Y133200D01*
X163000D01*
Y136357D01*
D02*
G37*
G36*
Y132200D02*
X160531D01*
Y129042D01*
X163000D01*
Y132200D01*
D02*
G37*
G36*
X106700Y127151D02*
X104822D01*
Y123600D01*
X106700D01*
Y127151D01*
D02*
G37*
G36*
Y122600D02*
X104822D01*
Y119049D01*
X106700D01*
Y122600D01*
D02*
G37*
G36*
X163258Y98558D02*
X160790D01*
Y95400D01*
X163258D01*
Y98558D01*
D02*
G37*
G36*
X111102Y95205D02*
X108633D01*
Y92047D01*
X111102D01*
Y95205D01*
D02*
G37*
G36*
Y91047D02*
X108633D01*
Y87890D01*
X111102D01*
Y91047D01*
D02*
G37*
G36*
X166607Y82300D02*
X164100D01*
Y79793D01*
X164584D01*
X165358Y79947D01*
X166015Y80385D01*
X166453Y81042D01*
X166607Y81816D01*
Y82300D01*
D02*
G37*
G36*
X163100D02*
X160593D01*
Y81816D01*
X160747Y81042D01*
X161185Y80385D01*
X161841Y79947D01*
X162616Y79793D01*
X163100D01*
Y82300D01*
D02*
G37*
%LPD*%
D13*
X137089Y115896D02*
X138409D01*
X137089Y115896D02*
X137089Y115896D01*
X135300Y117065D02*
X136469Y115896D01*
X135300Y117065D02*
Y137691D01*
X136469Y115896D02*
X137089D01*
X138409Y115896D02*
X138500Y115805D01*
X131795Y141196D02*
X135300Y137691D01*
X138409Y131372D02*
X138446Y131409D01*
X138409Y117865D02*
Y131372D01*
X142299Y121573D02*
Y190874D01*
X132673Y200500D02*
X142299Y190874D01*
X136530Y111778D02*
X138409D01*
X131052Y106300D02*
X136530Y111778D01*
X110184Y106300D02*
X131052D01*
X107200Y103316D02*
X110184Y106300D01*
X107200Y101643D02*
Y103316D01*
X138409Y111778D02*
X138500Y111869D01*
Y104300D02*
Y109900D01*
X135843Y101643D02*
X138500Y104300D01*
X122200Y101643D02*
X135843D01*
X110552Y132502D02*
X112200Y130854D01*
X117124Y123176D02*
X117200Y123100D01*
X110552Y138000D02*
Y148842D01*
X112200Y123100D02*
Y130854D01*
X117124Y123176D02*
Y137924D01*
X110552Y132502D02*
Y138000D01*
X166814Y216600D02*
X167400Y216014D01*
X112673Y210500D02*
X118773Y216600D01*
X166814D01*
X167400Y165700D02*
Y216014D01*
X157300Y155600D02*
X167400Y165700D01*
X154063Y115896D02*
X155943D01*
X157300Y117253D01*
Y155600D01*
X153972Y115805D02*
X154063Y115896D01*
X150173Y101895D02*
X150700Y101369D01*
Y101000D02*
Y101369D01*
X150173Y101895D02*
Y106101D01*
X147800Y96400D02*
Y100864D01*
X146236Y102428D02*
X147800Y100864D01*
X142299Y103164D02*
Y106101D01*
X140800Y101665D02*
X142299Y103164D01*
X140800Y101500D02*
Y101665D01*
X144268Y92232D02*
Y106101D01*
Y92232D02*
X144500Y92000D01*
X132900Y210500D02*
X137900Y205500D01*
X132673Y210500D02*
X132900D01*
X137900Y205500D02*
X145500D01*
X147200Y199300D02*
Y203800D01*
Y199300D02*
X150173Y196327D01*
X145500Y205500D02*
X147200Y203800D01*
X150173Y121573D02*
Y196327D01*
X148205Y121573D02*
Y194968D01*
X142673Y200500D02*
X148205Y194968D01*
X138409Y117865D02*
X138500Y117774D01*
X144268Y121573D02*
Y125719D01*
X144980Y126431D01*
Y126800D01*
X146236Y102428D02*
Y106101D01*
X148969Y112148D02*
X150657Y113837D01*
X148969Y111800D02*
Y112148D01*
X150657Y113837D02*
X153972D01*
X32673Y210500D02*
X42673D01*
X156814Y206047D02*
X157400Y205462D01*
Y163846D02*
Y205462D01*
X150829Y206047D02*
X156814D01*
X147673Y209203D02*
Y211797D01*
X124518Y206047D02*
X127673Y209203D01*
X102673Y210500D02*
X107126Y206047D01*
X124518D01*
X130829Y214953D02*
X144518D01*
X147673Y211797D01*
Y209203D02*
X150829Y206047D01*
X127673Y209203D02*
Y211797D01*
X130829Y214953D01*
X153972Y160418D02*
X157400Y163846D01*
X153972Y117774D02*
Y160418D01*
X131500Y141196D02*
X131795D01*
X128885Y150132D02*
Y171100D01*
X117048Y138295D02*
X128885Y150132D01*
X163600Y94742D02*
X163758Y94900D01*
X163600Y82800D02*
Y94742D01*
X117048Y138000D02*
X117124Y137924D01*
X117048Y138000D02*
Y138295D01*
X167802Y105329D02*
X171042Y102089D01*
X167400Y105329D02*
X167802D01*
X171042Y94900D02*
Y102089D01*
X167543Y121471D02*
X170783Y124711D01*
Y132700D01*
X167400Y121471D02*
X167543D01*
X164160Y108569D02*
X167400Y105329D01*
X159708Y108569D02*
X164160D01*
X158377Y109900D02*
X159708Y108569D01*
X153972Y109900D02*
X158377D01*
X160043Y115002D02*
Y115098D01*
X156909Y111869D02*
X160043Y115002D01*
X166416Y121471D02*
X167400D01*
X160043Y115098D02*
X166416Y121471D01*
X153972Y111869D02*
X156909D01*
X110552Y148842D02*
X119043Y157333D01*
Y171100D01*
X77311Y172742D02*
X78000D01*
X64502Y177655D02*
X72398D01*
X77311Y172742D01*
X48221Y198656D02*
Y204953D01*
Y198656D02*
X64502Y182375D01*
Y177655D02*
Y182375D01*
X42673Y210500D02*
X48221Y204953D01*
X78689Y172742D02*
X80331Y171100D01*
X78000Y172742D02*
X78689D01*
X80331Y171100D02*
X99357D01*
D15*
X130200Y117958D02*
D03*
Y125242D02*
D03*
X28800Y161358D02*
D03*
Y168642D02*
D03*
X78000Y172742D02*
D03*
Y165458D02*
D03*
D16*
X146236Y113837D02*
D03*
D17*
X142299Y121573D02*
D03*
X150173D02*
D03*
X148205D02*
D03*
X146236D02*
D03*
X144268D02*
D03*
X142299Y106101D02*
D03*
X150173D02*
D03*
X148205D02*
D03*
X146236D02*
D03*
X144268D02*
D03*
D18*
X138500Y109900D02*
D03*
Y117774D02*
D03*
Y115805D02*
D03*
Y113837D02*
D03*
Y111869D02*
D03*
X153972Y109900D02*
D03*
Y117774D02*
D03*
Y115805D02*
D03*
Y113837D02*
D03*
Y111869D02*
D03*
D19*
X163600Y82800D02*
D03*
X35100Y150600D02*
D03*
X128800Y86800D02*
D03*
D20*
X170783Y132700D02*
D03*
X163500D02*
D03*
X171042Y94900D02*
D03*
X163758D02*
D03*
X118885Y91547D02*
D03*
X111602D02*
D03*
D21*
X167400Y105329D02*
D03*
Y121471D02*
D03*
D22*
X107200Y101643D02*
D03*
X112200D02*
D03*
X117200D02*
D03*
X122200D02*
D03*
Y123100D02*
D03*
X117200D02*
D03*
X112200D02*
D03*
X107200D02*
D03*
D23*
X131500Y134700D02*
D03*
Y141196D02*
D03*
D24*
X110552Y138000D02*
D03*
X117048D02*
D03*
D25*
X39698Y168600D02*
D03*
D26*
X64502Y177655D02*
D03*
Y168600D02*
D03*
Y159545D02*
D03*
D45*
X130200Y125242D02*
Y128660D01*
X131300Y129760D01*
Y129900D01*
D46*
X39698Y168600D02*
X64502D01*
X28800Y168642D02*
X39657D01*
X118800Y91633D02*
Y95600D01*
Y91633D02*
X118885Y91547D01*
X117200Y97200D02*
Y101643D01*
Y97200D02*
X118800Y95600D01*
X128800Y86800D02*
Y98800D01*
X118885Y91547D02*
X118933Y91500D01*
X121500D01*
X128800Y98800D01*
D47*
X39698Y165746D02*
Y168600D01*
Y155198D02*
Y165746D01*
X35100Y150600D02*
X39698Y155198D01*
X126005Y121464D02*
X129511Y117958D01*
X126005Y129500D02*
X131205Y134700D01*
X129511Y117958D02*
X130200D01*
X131205Y134700D02*
X131500D01*
X126005Y121464D02*
Y129500D01*
X118100Y113837D02*
X128537D01*
X91607D02*
X118100D01*
X122200Y117937D02*
Y123100D01*
X118100Y113837D02*
X122200Y117937D01*
X128537Y113837D02*
X138500D01*
X128537D02*
X130200Y115500D01*
Y117958D01*
X39698Y165746D02*
X91607Y113837D01*
X39657Y168642D02*
X39698Y168600D01*
D48*
X222673Y210500D02*
D03*
Y200500D02*
D03*
X212673Y210500D02*
D03*
Y200500D02*
D03*
X202673Y210500D02*
D03*
Y200500D02*
D03*
X192673Y210500D02*
D03*
Y200500D02*
D03*
X182673Y210500D02*
D03*
Y200500D02*
D03*
X172673Y210500D02*
D03*
Y200500D02*
D03*
X162673Y210500D02*
D03*
Y200500D02*
D03*
X152673Y210500D02*
D03*
Y200500D02*
D03*
X142673Y210500D02*
D03*
Y200500D02*
D03*
X132673Y210500D02*
D03*
Y200500D02*
D03*
X122673Y210500D02*
D03*
Y200500D02*
D03*
X112673Y210500D02*
D03*
Y200500D02*
D03*
X102673Y210500D02*
D03*
Y200500D02*
D03*
X92673Y210500D02*
D03*
Y200500D02*
D03*
X82673Y210500D02*
D03*
Y200500D02*
D03*
X72673Y210500D02*
D03*
Y200500D02*
D03*
X62673Y210500D02*
D03*
Y200500D02*
D03*
X52673Y210500D02*
D03*
Y200500D02*
D03*
X42673Y210500D02*
D03*
Y200500D02*
D03*
X32673Y210500D02*
D03*
D49*
Y200500D02*
D03*
D50*
X241846Y12587D02*
D03*
X13500D02*
D03*
Y205500D02*
D03*
X241846D02*
D03*
D51*
X128885Y171100D02*
D03*
X119043D02*
D03*
X109200D02*
D03*
D52*
X99357D02*
D03*
D53*
X248000Y192000D02*
D03*
X240000Y176000D02*
D03*
X248000Y160000D02*
D03*
X240000Y144000D02*
D03*
X248000Y128000D02*
D03*
X240000Y112000D02*
D03*
X248000Y96000D02*
D03*
X240000Y80000D02*
D03*
X232000Y192000D02*
D03*
X224000Y176000D02*
D03*
X232000Y160000D02*
D03*
X224000Y144000D02*
D03*
X232000Y128000D02*
D03*
X224000Y112000D02*
D03*
X232000Y96000D02*
D03*
X224000Y80000D02*
D03*
X208000Y208000D02*
D03*
Y176000D02*
D03*
X216000Y160000D02*
D03*
X208000Y144000D02*
D03*
X216000Y128000D02*
D03*
X208000Y112000D02*
D03*
X216000Y96000D02*
D03*
X208000Y80000D02*
D03*
X200000Y192000D02*
D03*
X192000Y176000D02*
D03*
Y144000D02*
D03*
X200000Y128000D02*
D03*
X192000Y112000D02*
D03*
X200000Y96000D02*
D03*
X192000Y80000D02*
D03*
X184000Y192000D02*
D03*
X176000Y176000D02*
D03*
X184000Y160000D02*
D03*
X176000Y144000D02*
D03*
X184000Y128000D02*
D03*
X176000Y112000D02*
D03*
X184000Y96000D02*
D03*
X176000Y80000D02*
D03*
X168000Y160000D02*
D03*
X152000Y96000D02*
D03*
X144000Y80000D02*
D03*
X128000Y144000D02*
D03*
Y80000D02*
D03*
X112000D02*
D03*
X104000Y192000D02*
D03*
Y160000D02*
D03*
X96000Y144000D02*
D03*
X104000Y96000D02*
D03*
X96000Y80000D02*
D03*
X80000Y112000D02*
D03*
X88000Y96000D02*
D03*
X80000Y80000D02*
D03*
X72000Y192000D02*
D03*
Y160000D02*
D03*
Y128000D02*
D03*
X64000Y112000D02*
D03*
X72000Y96000D02*
D03*
X64000Y80000D02*
D03*
X48000Y176000D02*
D03*
X56000Y160000D02*
D03*
X48000Y144000D02*
D03*
X56000Y128000D02*
D03*
X48000Y112000D02*
D03*
X56000Y96000D02*
D03*
X48000Y80000D02*
D03*
X40000Y192000D02*
D03*
X32000Y176000D02*
D03*
Y144000D02*
D03*
X40000Y128000D02*
D03*
X32000Y112000D02*
D03*
X40000Y96000D02*
D03*
X32000Y80000D02*
D03*
X24000Y192000D02*
D03*
X16000Y176000D02*
D03*
Y144000D02*
D03*
X24000Y128000D02*
D03*
X16000Y112000D02*
D03*
X24000Y96000D02*
D03*
X16000Y80000D02*
D03*
X131300Y129900D02*
D03*
X138446Y131409D02*
D03*
X128800Y98800D02*
D03*
X150700Y101000D02*
D03*
X147800Y96400D02*
D03*
X140800Y101500D02*
D03*
X144500Y92000D02*
D03*
X144980Y126800D02*
D03*
X144300Y111800D02*
D03*
Y116100D02*
D03*
X148800D02*
D03*
X148969Y111800D02*
D03*
M02*
