M48
;Layer_Color=9474304
;FILE_FORMAT=2:5
INCH,TZ
;TYPE=PLATED
T1F00S00C0.01181
T2F00S00C0.03543
T3F00S00C0.03937
T4F00S00C0.11811
%
T01
X16000Y80000
X32000
X48000
X64000
X80000
X96000
X112000
X128000
X144000
X144500Y92000
X147800Y96400
X152000Y96000
X150700Y101000
X140800Y101500
X144300Y111800
Y116100
X148800
X148969Y111800
X144980Y126800
X138446Y131409
X131300Y129900
X128000Y144000
X96000
X72000Y128000
X56000
X40000
X24000
X32000Y144000
X48000
Y112000
X64000
X80000
X88000Y96000
X104000
X128800Y98800
X72000Y96000
X56000
X40000
X24000
X32000Y112000
X16000
Y144000
X176000
X192000
X208000
X224000
X240000
X248000Y128000
X232000
X216000
X200000
X184000
X192000Y112000
X208000
X224000
X240000
X248000Y96000
X232000
X216000
X200000
X184000
X192000Y80000
X208000
X224000
X240000
X176000
Y112000
X184000Y160000
X168000
X176000Y176000
X192000
X208000
X224000
X240000
X248000Y192000
X232000
Y160000
X248000
X216000
X200000Y192000
X184000
X208000Y208000
X104000Y192000
Y160000
X72000
X56000
X48000Y176000
X32000
X16000
X24000Y192000
X40000
X72000
T02
X162673Y200500
X172673
X182673
X192673
X202673
X212673
X222673
Y210500
X212673
X202673
X192673
X182673
X172673
X162673
X152673
Y200500
X142673
Y210500
X132673
Y200500
X122673
Y210500
X112673
Y200500
X102673
Y210500
X92673
Y200500
X82673
Y210500
X72673
Y200500
X62673
Y210500
X52673
Y200500
X42673
Y210500
X32673
Y200500
T03
X99357Y171100
X109200
X119043
X128885
T04
X13500Y12587
X241846
Y205500
X13500
M30
