G04*
G04 #@! TF.GenerationSoftware,Altium Limited,Altium Designer,21.2.0 (30)*
G04*
G04 Layer_Physical_Order=2*
G04 Layer_Color=16711680*
%FSLAX25Y25*%
%MOIN*%
G70*
G04*
G04 #@! TF.SameCoordinates,14206FE4-1D31-4024-8575-2447F3C89696*
G04*
G04*
G04 #@! TF.FilePolarity,Positive*
G04*
G01*
G75*
%ADD13C,0.01000*%
%ADD46C,0.01500*%
%ADD48C,0.05906*%
%ADD49R,0.05906X0.05906*%
%ADD50C,0.16000*%
%ADD51O,0.06693X0.07874*%
G04:AMPARAMS|DCode=52|XSize=66.93mil|YSize=78.74mil|CornerRadius=16.73mil|HoleSize=0mil|Usage=FLASHONLY|Rotation=0.000|XOffset=0mil|YOffset=0mil|HoleType=Round|Shape=RoundedRectangle|*
%AMROUNDEDRECTD52*
21,1,0.06693,0.04528,0,0,0.0*
21,1,0.03347,0.07874,0,0,0.0*
1,1,0.03346,0.01673,-0.02264*
1,1,0.03346,-0.01673,-0.02264*
1,1,0.03346,-0.01673,0.02264*
1,1,0.03346,0.01673,0.02264*
%
%ADD52ROUNDEDRECTD52*%
%ADD53C,0.02362*%
G36*
X3800Y217900D02*
X251400D01*
Y70300D01*
X249000Y67900D01*
X3000Y69000D01*
Y217900D01*
X3400Y218300D01*
X3800Y217900D01*
D02*
G37*
%LPC*%
G36*
X193194Y214453D02*
X193173D01*
Y211000D01*
X196626D01*
Y211020D01*
X196357Y212026D01*
X195836Y212927D01*
X195100Y213663D01*
X194199Y214183D01*
X193194Y214453D01*
D02*
G37*
G36*
X192173D02*
X192153D01*
X191147Y214183D01*
X190246Y213663D01*
X189510Y212927D01*
X188990Y212026D01*
X188721Y211020D01*
Y211000D01*
X192173D01*
Y214453D01*
D02*
G37*
G36*
X173194D02*
X173173D01*
Y211000D01*
X176626D01*
Y211020D01*
X176357Y212026D01*
X175836Y212927D01*
X175100Y213663D01*
X174199Y214183D01*
X173194Y214453D01*
D02*
G37*
G36*
X172173D02*
X172153D01*
X171148Y214183D01*
X170246Y213663D01*
X169510Y212927D01*
X168990Y212026D01*
X168720Y211020D01*
Y211000D01*
X172173D01*
Y214453D01*
D02*
G37*
G36*
X123194D02*
X123173D01*
Y211000D01*
X126626D01*
Y211020D01*
X126357Y212026D01*
X125836Y212927D01*
X125100Y213663D01*
X124199Y214183D01*
X123194Y214453D01*
D02*
G37*
G36*
X122173D02*
X122153D01*
X121148Y214183D01*
X120246Y213663D01*
X119510Y212927D01*
X118990Y212026D01*
X118720Y211020D01*
Y211000D01*
X122173D01*
Y214453D01*
D02*
G37*
G36*
X93194D02*
X93173D01*
Y211000D01*
X96626D01*
Y211020D01*
X96357Y212026D01*
X95836Y212927D01*
X95100Y213663D01*
X94199Y214183D01*
X93194Y214453D01*
D02*
G37*
G36*
X92173D02*
X92153D01*
X91148Y214183D01*
X90246Y213663D01*
X89510Y212927D01*
X88990Y212026D01*
X88721Y211020D01*
Y211000D01*
X92173D01*
Y214453D01*
D02*
G37*
G36*
X53194D02*
X53173D01*
Y211000D01*
X56626D01*
Y211020D01*
X56357Y212026D01*
X55836Y212927D01*
X55100Y213663D01*
X54199Y214183D01*
X53194Y214453D01*
D02*
G37*
G36*
X52173D02*
X52153D01*
X51148Y214183D01*
X50246Y213663D01*
X49510Y212927D01*
X48990Y212026D01*
X48720Y211020D01*
Y211000D01*
X52173D01*
Y214453D01*
D02*
G37*
G36*
X213194D02*
X212153D01*
X211147Y214183D01*
X210246Y213663D01*
X209510Y212927D01*
X208990Y212026D01*
X208720Y211020D01*
Y209980D01*
X208990Y208974D01*
X209510Y208073D01*
X210246Y207337D01*
X211147Y206817D01*
X212153Y206547D01*
X213194D01*
X214199Y206817D01*
X215100Y207337D01*
X215836Y208073D01*
X216357Y208974D01*
X216626Y209980D01*
Y211020D01*
X216357Y212026D01*
X215836Y212927D01*
X215100Y213663D01*
X214199Y214183D01*
X213194Y214453D01*
D02*
G37*
G36*
X203194D02*
X202153D01*
X201148Y214183D01*
X200246Y213663D01*
X199510Y212927D01*
X198990Y212026D01*
X198721Y211020D01*
Y209980D01*
X198990Y208974D01*
X199510Y208073D01*
X200246Y207337D01*
X201148Y206817D01*
X202153Y206547D01*
X203194D01*
X204199Y206817D01*
X205100Y207337D01*
X205836Y208073D01*
X206357Y208974D01*
X206626Y209980D01*
Y211020D01*
X206357Y212026D01*
X205836Y212927D01*
X205100Y213663D01*
X204199Y214183D01*
X203194Y214453D01*
D02*
G37*
G36*
X196626Y210000D02*
X193173D01*
Y206547D01*
X193194D01*
X194199Y206817D01*
X195100Y207337D01*
X195836Y208073D01*
X196357Y208974D01*
X196626Y209980D01*
Y210000D01*
D02*
G37*
G36*
X192173D02*
X188721D01*
Y209980D01*
X188990Y208974D01*
X189510Y208073D01*
X190246Y207337D01*
X191147Y206817D01*
X192153Y206547D01*
X192173D01*
Y210000D01*
D02*
G37*
G36*
X183194Y214453D02*
X182153D01*
X181148Y214183D01*
X180246Y213663D01*
X179510Y212927D01*
X178990Y212026D01*
X178720Y211020D01*
Y209980D01*
X178990Y208974D01*
X179510Y208073D01*
X180246Y207337D01*
X181148Y206817D01*
X182153Y206547D01*
X183194D01*
X184199Y206817D01*
X185100Y207337D01*
X185836Y208073D01*
X186357Y208974D01*
X186626Y209980D01*
Y211020D01*
X186357Y212026D01*
X185836Y212927D01*
X185100Y213663D01*
X184199Y214183D01*
X183194Y214453D01*
D02*
G37*
G36*
X176626Y210000D02*
X173173D01*
Y206547D01*
X173194D01*
X174199Y206817D01*
X175100Y207337D01*
X175836Y208073D01*
X176357Y208974D01*
X176626Y209980D01*
Y210000D01*
D02*
G37*
G36*
X172173D02*
X168720D01*
Y209980D01*
X168990Y208974D01*
X169510Y208073D01*
X170246Y207337D01*
X171148Y206817D01*
X172153Y206547D01*
X172173D01*
Y210000D01*
D02*
G37*
G36*
X163194Y214453D02*
X162153D01*
X161147Y214183D01*
X160246Y213663D01*
X159510Y212927D01*
X158990Y212026D01*
X158721Y211020D01*
Y209980D01*
X158990Y208974D01*
X159510Y208073D01*
X160246Y207337D01*
X161147Y206817D01*
X162153Y206547D01*
X163194D01*
X164199Y206817D01*
X165100Y207337D01*
X165836Y208073D01*
X166357Y208974D01*
X166626Y209980D01*
Y211020D01*
X166357Y212026D01*
X165836Y212927D01*
X165100Y213663D01*
X164199Y214183D01*
X163194Y214453D01*
D02*
G37*
G36*
X153194D02*
X152153D01*
X151147Y214183D01*
X150246Y213663D01*
X149510Y212927D01*
X148990Y212026D01*
X148721Y211020D01*
Y209980D01*
X148990Y208974D01*
X149510Y208073D01*
X150246Y207337D01*
X151147Y206817D01*
X152153Y206547D01*
X153194D01*
X154199Y206817D01*
X155100Y207337D01*
X155836Y208073D01*
X156357Y208974D01*
X156626Y209980D01*
Y211020D01*
X156357Y212026D01*
X155836Y212927D01*
X155100Y213663D01*
X154199Y214183D01*
X153194Y214453D01*
D02*
G37*
G36*
X143194D02*
X142153D01*
X141147Y214183D01*
X140246Y213663D01*
X139510Y212927D01*
X138990Y212026D01*
X138721Y211020D01*
Y209980D01*
X138989Y208978D01*
X137139Y207129D01*
X136808Y206632D01*
X136691Y206047D01*
Y202446D01*
X136191Y202312D01*
X135836Y202927D01*
X135100Y203663D01*
X134199Y204183D01*
X133194Y204453D01*
X132153D01*
X131148Y204183D01*
X130246Y203663D01*
X129510Y202927D01*
X128990Y202026D01*
X128720Y201020D01*
Y199980D01*
X128990Y198974D01*
X129510Y198073D01*
X130246Y197337D01*
X131148Y196817D01*
X132153Y196547D01*
X133194D01*
X134199Y196817D01*
X135100Y197337D01*
X135836Y198073D01*
X136191Y198688D01*
X136691Y198554D01*
Y177652D01*
X136191Y177445D01*
X124203Y189433D01*
Y196819D01*
X125100Y197337D01*
X125836Y198073D01*
X126357Y198974D01*
X126626Y199980D01*
Y201020D01*
X126357Y202026D01*
X125836Y202927D01*
X125100Y203663D01*
X124199Y204183D01*
X123194Y204453D01*
X122153D01*
X121148Y204183D01*
X120246Y203663D01*
X119510Y202927D01*
X118990Y202026D01*
X118720Y201020D01*
Y199980D01*
X118990Y198974D01*
X119510Y198073D01*
X120246Y197337D01*
X121144Y196819D01*
Y188800D01*
X121260Y188214D01*
X121592Y187718D01*
X133871Y175439D01*
Y131323D01*
X133987Y130737D01*
X134283Y130295D01*
Y130100D01*
X134399Y129515D01*
X134731Y129019D01*
X138031Y125719D01*
X138527Y125387D01*
X139112Y125271D01*
X143425D01*
X143745Y124951D01*
X144546Y124619D01*
X145414D01*
X146216Y124951D01*
X146829Y125565D01*
X147161Y126366D01*
Y127234D01*
X146829Y128035D01*
X146216Y128649D01*
X145414Y128981D01*
X144546D01*
X143745Y128649D01*
X143425Y128329D01*
X139746D01*
X139240Y128835D01*
X139357Y129425D01*
X139682Y129560D01*
X140296Y130174D01*
X140628Y130975D01*
Y131843D01*
X140296Y132645D01*
X139750Y133190D01*
Y197180D01*
X140212Y197371D01*
X140246Y197337D01*
X141147Y196817D01*
X142153Y196547D01*
X143194D01*
X144199Y196817D01*
X145100Y197337D01*
X145836Y198073D01*
X146357Y198974D01*
X146626Y199980D01*
Y201020D01*
X146357Y202026D01*
X145836Y202927D01*
X145100Y203663D01*
X144199Y204183D01*
X143194Y204453D01*
X142153D01*
X141147Y204183D01*
X140246Y203663D01*
X140212Y203629D01*
X139750Y203820D01*
Y205414D01*
X141152Y206816D01*
X142153Y206547D01*
X143194D01*
X144199Y206817D01*
X145100Y207337D01*
X145836Y208073D01*
X146357Y208974D01*
X146626Y209980D01*
Y211020D01*
X146357Y212026D01*
X145836Y212927D01*
X145100Y213663D01*
X144199Y214183D01*
X143194Y214453D01*
D02*
G37*
G36*
X133194D02*
X132153D01*
X131148Y214183D01*
X130246Y213663D01*
X129510Y212927D01*
X128990Y212026D01*
X128720Y211020D01*
Y209980D01*
X128990Y208974D01*
X129510Y208073D01*
X130246Y207337D01*
X131148Y206817D01*
X132153Y206547D01*
X133194D01*
X134199Y206817D01*
X135100Y207337D01*
X135836Y208073D01*
X136357Y208974D01*
X136626Y209980D01*
Y211020D01*
X136357Y212026D01*
X135836Y212927D01*
X135100Y213663D01*
X134199Y214183D01*
X133194Y214453D01*
D02*
G37*
G36*
X126626Y210000D02*
X123173D01*
Y206547D01*
X123194D01*
X124199Y206817D01*
X125100Y207337D01*
X125836Y208073D01*
X126357Y208974D01*
X126626Y209980D01*
Y210000D01*
D02*
G37*
G36*
X122173D02*
X118720D01*
Y209980D01*
X118990Y208974D01*
X119510Y208073D01*
X120246Y207337D01*
X121148Y206817D01*
X122153Y206547D01*
X122173D01*
Y210000D01*
D02*
G37*
G36*
X113194Y214453D02*
X112153D01*
X111147Y214183D01*
X110246Y213663D01*
X109510Y212927D01*
X108990Y212026D01*
X108721Y211020D01*
Y209980D01*
X108990Y208974D01*
X109510Y208073D01*
X110246Y207337D01*
X111147Y206817D01*
X112153Y206547D01*
X113194D01*
X114199Y206817D01*
X115100Y207337D01*
X115836Y208073D01*
X116357Y208974D01*
X116626Y209980D01*
Y211020D01*
X116357Y212026D01*
X115836Y212927D01*
X115100Y213663D01*
X114199Y214183D01*
X113194Y214453D01*
D02*
G37*
G36*
X103194D02*
X102153D01*
X101147Y214183D01*
X100246Y213663D01*
X99510Y212927D01*
X98990Y212026D01*
X98721Y211020D01*
Y209980D01*
X98990Y208974D01*
X99510Y208073D01*
X100246Y207337D01*
X101147Y206817D01*
X102153Y206547D01*
X103194D01*
X104199Y206817D01*
X105100Y207337D01*
X105836Y208073D01*
X106357Y208974D01*
X106626Y209980D01*
Y211020D01*
X106357Y212026D01*
X105836Y212927D01*
X105100Y213663D01*
X104199Y214183D01*
X103194Y214453D01*
D02*
G37*
G36*
X96626Y210000D02*
X93173D01*
Y206547D01*
X93194D01*
X94199Y206817D01*
X95100Y207337D01*
X95836Y208073D01*
X96357Y208974D01*
X96626Y209980D01*
Y210000D01*
D02*
G37*
G36*
X92173D02*
X88721D01*
Y209980D01*
X88990Y208974D01*
X89510Y208073D01*
X90246Y207337D01*
X91148Y206817D01*
X92153Y206547D01*
X92173D01*
Y210000D01*
D02*
G37*
G36*
X56626D02*
X53173D01*
Y206547D01*
X53194D01*
X54199Y206817D01*
X55100Y207337D01*
X55836Y208073D01*
X56357Y208974D01*
X56626Y209980D01*
Y210000D01*
D02*
G37*
G36*
X52173D02*
X48720D01*
Y209980D01*
X48990Y208974D01*
X49510Y208073D01*
X50246Y207337D01*
X51148Y206817D01*
X52153Y206547D01*
X52173D01*
Y210000D01*
D02*
G37*
G36*
X43194Y214453D02*
X42153D01*
X41148Y214183D01*
X40246Y213663D01*
X39510Y212927D01*
X38990Y212026D01*
X38721Y211020D01*
Y209980D01*
X38990Y208974D01*
X39510Y208073D01*
X40246Y207337D01*
X41148Y206817D01*
X42153Y206547D01*
X43194D01*
X44199Y206817D01*
X45100Y207337D01*
X45836Y208073D01*
X46357Y208974D01*
X46626Y209980D01*
Y211020D01*
X46357Y212026D01*
X45836Y212927D01*
X45100Y213663D01*
X44199Y214183D01*
X43194Y214453D01*
D02*
G37*
G36*
X33194D02*
X32153D01*
X31148Y214183D01*
X30246Y213663D01*
X29510Y212927D01*
X28990Y212026D01*
X28721Y211020D01*
Y209980D01*
X28990Y208974D01*
X29510Y208073D01*
X30246Y207337D01*
X31148Y206817D01*
X32153Y206547D01*
X33194D01*
X34199Y206817D01*
X35100Y207337D01*
X35836Y208073D01*
X36357Y208974D01*
X36626Y209980D01*
Y211020D01*
X36357Y212026D01*
X35836Y212927D01*
X35100Y213663D01*
X34199Y214183D01*
X33194Y214453D01*
D02*
G37*
G36*
X223194D02*
X222153D01*
X221147Y214183D01*
X220246Y213663D01*
X219510Y212927D01*
X218990Y212026D01*
X218721Y211020D01*
Y209980D01*
X218990Y208974D01*
X219510Y208073D01*
X220246Y207337D01*
X220394Y207252D01*
Y206681D01*
X216421Y202708D01*
X215925Y202773D01*
X215836Y202927D01*
X215100Y203663D01*
X214199Y204183D01*
X213194Y204453D01*
X212153D01*
X211147Y204183D01*
X210246Y203663D01*
X209510Y202927D01*
X208990Y202026D01*
X208720Y201020D01*
Y199980D01*
X208990Y198974D01*
X209510Y198073D01*
X210246Y197337D01*
X211147Y196817D01*
X212153Y196547D01*
X213194D01*
X214199Y196817D01*
X215100Y197337D01*
X215135Y197371D01*
X215597Y197180D01*
Y176799D01*
X151434Y112636D01*
X150943Y112733D01*
X150818Y113036D01*
X150204Y113649D01*
X150047Y113714D01*
X150036Y114251D01*
X150649Y114865D01*
X150954Y115600D01*
X148800D01*
Y116100D01*
X148300D01*
Y118254D01*
X147564Y117949D01*
X146951Y117335D01*
X146821Y117021D01*
X146279D01*
X146149Y117335D01*
X145536Y117949D01*
X144800Y118254D01*
Y116100D01*
X144300D01*
Y115600D01*
X142146D01*
X142451Y114865D01*
X143064Y114251D01*
X143187Y114200D01*
Y113700D01*
X143064Y113649D01*
X142451Y113036D01*
X142146Y112300D01*
X144300D01*
Y111800D01*
X144800D01*
Y109646D01*
X145536Y109951D01*
X146149Y110564D01*
X146364Y111083D01*
X146905D01*
X147120Y110564D01*
X147733Y109951D01*
X148036Y109826D01*
X148133Y109335D01*
X142091Y103293D01*
X142035Y103349D01*
X141234Y103681D01*
X140366D01*
X139565Y103349D01*
X138951Y102735D01*
X138619Y101934D01*
Y101066D01*
X138951Y100265D01*
X139565Y99651D01*
X140366Y99319D01*
X141149D01*
X141315Y99085D01*
X141394Y98857D01*
X139067Y96529D01*
X130267D01*
X130196Y96659D01*
X130114Y97029D01*
X130649Y97565D01*
X130981Y98366D01*
Y99234D01*
X130649Y100036D01*
X130584Y100100D01*
Y121800D01*
X130448Y122483D01*
X130062Y123062D01*
X101142Y151982D01*
Y166155D01*
X101729Y166232D01*
X102379Y166501D01*
X102937Y166930D01*
X103366Y167488D01*
X103635Y168138D01*
X103727Y168836D01*
Y173364D01*
X103635Y174062D01*
X103366Y174712D01*
X102937Y175270D01*
X102379Y175699D01*
X101729Y175968D01*
X101031Y176060D01*
X97684D01*
X96986Y175968D01*
X96336Y175699D01*
X95778Y175270D01*
X95349Y174712D01*
X95080Y174062D01*
X94988Y173364D01*
Y168836D01*
X95080Y168138D01*
X95349Y167488D01*
X95778Y166930D01*
X96336Y166501D01*
X96986Y166232D01*
X97573Y166155D01*
Y151242D01*
X97709Y150560D01*
X98096Y149981D01*
X127016Y121061D01*
Y100100D01*
X126951Y100036D01*
X126619Y99234D01*
Y98366D01*
X126951Y97565D01*
X127486Y97029D01*
X127404Y96659D01*
X127333Y96529D01*
X121276D01*
X89750Y128056D01*
Y197180D01*
X90212Y197371D01*
X90246Y197337D01*
X91148Y196817D01*
X92153Y196547D01*
X93194D01*
X94199Y196817D01*
X95100Y197337D01*
X95836Y198073D01*
X96357Y198974D01*
X96626Y199980D01*
Y201020D01*
X96357Y202026D01*
X95836Y202927D01*
X95100Y203663D01*
X94199Y204183D01*
X93194Y204453D01*
X92153D01*
X91148Y204183D01*
X90246Y203663D01*
X90212Y203629D01*
X89750Y203820D01*
Y205879D01*
X89633Y206465D01*
X89302Y206961D01*
X86554Y209709D01*
X86626Y209980D01*
Y211020D01*
X86357Y212026D01*
X85836Y212927D01*
X85100Y213663D01*
X84199Y214183D01*
X83194Y214453D01*
X82153D01*
X81147Y214183D01*
X80246Y213663D01*
X79510Y212927D01*
X78990Y212026D01*
X78720Y211020D01*
Y209980D01*
X78990Y208974D01*
X79510Y208073D01*
X80246Y207337D01*
X81147Y206817D01*
X82153Y206547D01*
X83194D01*
X84199Y206817D01*
X84783Y207154D01*
X86691Y205246D01*
Y202446D01*
X86191Y202312D01*
X85836Y202927D01*
X85100Y203663D01*
X84199Y204183D01*
X83194Y204453D01*
X82153D01*
X81147Y204183D01*
X80246Y203663D01*
X80212Y203629D01*
X79750Y203820D01*
Y204953D01*
X79633Y205538D01*
X79302Y206034D01*
X76358Y208978D01*
X76626Y209980D01*
Y211020D01*
X76357Y212026D01*
X75836Y212927D01*
X75100Y213663D01*
X74199Y214183D01*
X73194Y214453D01*
X72153D01*
X71148Y214183D01*
X70246Y213663D01*
X69510Y212927D01*
X68990Y212026D01*
X68721Y211020D01*
Y209980D01*
X68990Y208974D01*
X69510Y208073D01*
X70246Y207337D01*
X71148Y206817D01*
X72153Y206547D01*
X73194D01*
X74195Y206816D01*
X76691Y204319D01*
Y202446D01*
X76191Y202312D01*
X75836Y202927D01*
X75100Y203663D01*
X74199Y204183D01*
X73194Y204453D01*
X73173D01*
Y200500D01*
Y196547D01*
X73194D01*
X74199Y196817D01*
X75100Y197337D01*
X75836Y198073D01*
X76191Y198688D01*
X76691Y198554D01*
Y137525D01*
X76229Y137334D01*
X69129Y144433D01*
Y197785D01*
X69629Y197954D01*
X70246Y197337D01*
X71148Y196817D01*
X72153Y196547D01*
X72173D01*
Y200500D01*
Y204453D01*
X72153D01*
X71148Y204183D01*
X70246Y203663D01*
X69629Y203046D01*
X69129Y203215D01*
Y205573D01*
X69013Y206158D01*
X68681Y206655D01*
X66358Y208978D01*
X66626Y209980D01*
Y211020D01*
X66357Y212026D01*
X65836Y212927D01*
X65100Y213663D01*
X64199Y214183D01*
X63194Y214453D01*
X62153D01*
X61147Y214183D01*
X60246Y213663D01*
X59510Y212927D01*
X58990Y212026D01*
X58720Y211020D01*
Y209980D01*
X58990Y208974D01*
X59510Y208073D01*
X60246Y207337D01*
X61147Y206817D01*
X62153Y206547D01*
X63194D01*
X64195Y206816D01*
X66071Y204940D01*
Y203400D01*
X65571Y203193D01*
X65100Y203663D01*
X64199Y204183D01*
X63194Y204453D01*
X62153D01*
X61147Y204183D01*
X60246Y203663D01*
X59510Y202927D01*
X58990Y202026D01*
X58720Y201020D01*
Y199980D01*
X58990Y198974D01*
X59510Y198073D01*
X60246Y197337D01*
X61147Y196817D01*
X62153Y196547D01*
X63194D01*
X64199Y196817D01*
X65100Y197337D01*
X65571Y197807D01*
X66071Y197600D01*
Y143800D01*
X66187Y143215D01*
X66519Y142719D01*
X118319Y90919D01*
X118815Y90587D01*
X119400Y90471D01*
X142945D01*
X143264Y90151D01*
X144066Y89819D01*
X144934D01*
X145736Y90151D01*
X146349Y90764D01*
X146681Y91566D01*
Y92434D01*
X146349Y93235D01*
X146355Y93297D01*
X146809Y93600D01*
X147428Y94219D01*
X148234D01*
X149036Y94551D01*
X149649Y95165D01*
X149981Y95966D01*
Y96834D01*
X149649Y97636D01*
X149036Y98249D01*
X148234Y98581D01*
X147366D01*
X146564Y98249D01*
X145951Y97636D01*
X145619Y96834D01*
Y96736D01*
X145094Y96210D01*
X143781D01*
X143573Y96710D01*
X146334Y99471D01*
X149145D01*
X149464Y99151D01*
X150266Y98819D01*
X151134D01*
X151936Y99151D01*
X152549Y99765D01*
X152881Y100566D01*
Y101434D01*
X152549Y102235D01*
X151936Y102849D01*
X151134Y103181D01*
X150266D01*
X149464Y102849D01*
X149145Y102529D01*
X146360D01*
X146153Y103029D01*
X218207Y175084D01*
X218539Y175580D01*
X218655Y176165D01*
Y198554D01*
X219155Y198688D01*
X219510Y198073D01*
X220246Y197337D01*
X221147Y196817D01*
X222153Y196547D01*
X222173D01*
Y200500D01*
X222673D01*
Y201000D01*
X226626D01*
Y201020D01*
X226357Y202026D01*
X225836Y202927D01*
X225100Y203663D01*
X224199Y204183D01*
X223194Y204453D01*
X223145D01*
X222954Y204915D01*
X223005Y204966D01*
X223336Y205462D01*
X223453Y206047D01*
Y206617D01*
X224199Y206817D01*
X225100Y207337D01*
X225836Y208073D01*
X226357Y208974D01*
X226626Y209980D01*
Y211020D01*
X226357Y212026D01*
X225836Y212927D01*
X225100Y213663D01*
X224199Y214183D01*
X223194Y214453D01*
D02*
G37*
G36*
X153194Y204453D02*
X153173D01*
Y201000D01*
X156626D01*
Y201020D01*
X156357Y202026D01*
X155836Y202927D01*
X155100Y203663D01*
X154199Y204183D01*
X153194Y204453D01*
D02*
G37*
G36*
X152173D02*
X152153D01*
X151147Y204183D01*
X150246Y203663D01*
X149510Y202927D01*
X148990Y202026D01*
X148721Y201020D01*
Y201000D01*
X152173D01*
Y204453D01*
D02*
G37*
G36*
X226626Y200000D02*
X223173D01*
Y196547D01*
X223194D01*
X224199Y196817D01*
X225100Y197337D01*
X225836Y198073D01*
X226357Y198974D01*
X226626Y199980D01*
Y200000D01*
D02*
G37*
G36*
X203194Y204453D02*
X202153D01*
X201148Y204183D01*
X200246Y203663D01*
X199510Y202927D01*
X198990Y202026D01*
X198721Y201020D01*
Y199980D01*
X198990Y198974D01*
X199510Y198073D01*
X200246Y197337D01*
X201148Y196817D01*
X202153Y196547D01*
X203194D01*
X204199Y196817D01*
X205100Y197337D01*
X205836Y198073D01*
X206357Y198974D01*
X206626Y199980D01*
Y201020D01*
X206357Y202026D01*
X205836Y202927D01*
X205100Y203663D01*
X204199Y204183D01*
X203194Y204453D01*
D02*
G37*
G36*
X193194D02*
X192153D01*
X191147Y204183D01*
X190246Y203663D01*
X189510Y202927D01*
X188990Y202026D01*
X188721Y201020D01*
Y199980D01*
X188990Y198974D01*
X189510Y198073D01*
X190246Y197337D01*
X191147Y196817D01*
X192153Y196547D01*
X193194D01*
X194199Y196817D01*
X195100Y197337D01*
X195836Y198073D01*
X196357Y198974D01*
X196626Y199980D01*
Y201020D01*
X196357Y202026D01*
X195836Y202927D01*
X195100Y203663D01*
X194199Y204183D01*
X193194Y204453D01*
D02*
G37*
G36*
X183194D02*
X182153D01*
X181148Y204183D01*
X180246Y203663D01*
X179510Y202927D01*
X178990Y202026D01*
X178720Y201020D01*
Y199980D01*
X178990Y198974D01*
X179510Y198073D01*
X180246Y197337D01*
X181148Y196817D01*
X182153Y196547D01*
X183194D01*
X184199Y196817D01*
X185100Y197337D01*
X185836Y198073D01*
X186357Y198974D01*
X186626Y199980D01*
Y201020D01*
X186357Y202026D01*
X185836Y202927D01*
X185100Y203663D01*
X184199Y204183D01*
X183194Y204453D01*
D02*
G37*
G36*
X173194D02*
X172153D01*
X171148Y204183D01*
X170246Y203663D01*
X169510Y202927D01*
X168990Y202026D01*
X168720Y201020D01*
Y199980D01*
X168990Y198974D01*
X169510Y198073D01*
X170246Y197337D01*
X171148Y196817D01*
X172153Y196547D01*
X173194D01*
X174199Y196817D01*
X175100Y197337D01*
X175836Y198073D01*
X176357Y198974D01*
X176626Y199980D01*
Y201020D01*
X176357Y202026D01*
X175836Y202927D01*
X175100Y203663D01*
X174199Y204183D01*
X173194Y204453D01*
D02*
G37*
G36*
X163194D02*
X162153D01*
X161147Y204183D01*
X160246Y203663D01*
X159510Y202927D01*
X158990Y202026D01*
X158721Y201020D01*
Y199980D01*
X158990Y198974D01*
X159510Y198073D01*
X160246Y197337D01*
X161147Y196817D01*
X162153Y196547D01*
X163194D01*
X164199Y196817D01*
X165100Y197337D01*
X165836Y198073D01*
X166357Y198974D01*
X166626Y199980D01*
Y201020D01*
X166357Y202026D01*
X165836Y202927D01*
X165100Y203663D01*
X164199Y204183D01*
X163194Y204453D01*
D02*
G37*
G36*
X156626Y200000D02*
X153173D01*
Y196547D01*
X153194D01*
X154199Y196817D01*
X155100Y197337D01*
X155836Y198073D01*
X156357Y198974D01*
X156626Y199980D01*
Y200000D01*
D02*
G37*
G36*
X152173D02*
X148721D01*
Y199980D01*
X148990Y198974D01*
X149510Y198073D01*
X150246Y197337D01*
X151147Y196817D01*
X152153Y196547D01*
X152173D01*
Y200000D01*
D02*
G37*
G36*
X113194Y204453D02*
X112153D01*
X111147Y204183D01*
X110246Y203663D01*
X109510Y202927D01*
X108990Y202026D01*
X108721Y201020D01*
Y199980D01*
X108990Y198974D01*
X109510Y198073D01*
X110246Y197337D01*
X111147Y196817D01*
X112153Y196547D01*
X113194D01*
X114199Y196817D01*
X115100Y197337D01*
X115836Y198073D01*
X116357Y198974D01*
X116626Y199980D01*
Y201020D01*
X116357Y202026D01*
X115836Y202927D01*
X115100Y203663D01*
X114199Y204183D01*
X113194Y204453D01*
D02*
G37*
G36*
X103194D02*
X102153D01*
X101147Y204183D01*
X100246Y203663D01*
X99510Y202927D01*
X98990Y202026D01*
X98721Y201020D01*
Y199980D01*
X98990Y198974D01*
X99510Y198073D01*
X100246Y197337D01*
X101147Y196817D01*
X102153Y196547D01*
X103194D01*
X104199Y196817D01*
X105100Y197337D01*
X105836Y198073D01*
X106357Y198974D01*
X106626Y199980D01*
Y201020D01*
X106357Y202026D01*
X105836Y202927D01*
X105100Y203663D01*
X104199Y204183D01*
X103194Y204453D01*
D02*
G37*
G36*
X53194D02*
X52153D01*
X51148Y204183D01*
X50246Y203663D01*
X49510Y202927D01*
X48990Y202026D01*
X48720Y201020D01*
Y199980D01*
X48990Y198974D01*
X49510Y198073D01*
X50246Y197337D01*
X51148Y196817D01*
X52153Y196547D01*
X53194D01*
X54199Y196817D01*
X55100Y197337D01*
X55836Y198073D01*
X56357Y198974D01*
X56626Y199980D01*
Y201020D01*
X56357Y202026D01*
X55836Y202927D01*
X55100Y203663D01*
X54199Y204183D01*
X53194Y204453D01*
D02*
G37*
G36*
X43194D02*
X42153D01*
X41148Y204183D01*
X40246Y203663D01*
X39510Y202927D01*
X38990Y202026D01*
X38721Y201020D01*
Y199980D01*
X38990Y198974D01*
X39510Y198073D01*
X40246Y197337D01*
X41148Y196817D01*
X42153Y196547D01*
X43194D01*
X44199Y196817D01*
X45100Y197337D01*
X45836Y198073D01*
X46357Y198974D01*
X46626Y199980D01*
Y201020D01*
X46357Y202026D01*
X45836Y202927D01*
X45100Y203663D01*
X44199Y204183D01*
X43194Y204453D01*
D02*
G37*
G36*
X36626D02*
X28721D01*
Y196547D01*
X36626D01*
Y204453D01*
D02*
G37*
G36*
X242733Y214500D02*
X240960D01*
X239221Y214154D01*
X237583Y213476D01*
X236109Y212491D01*
X234856Y211237D01*
X233871Y209763D01*
X233192Y208125D01*
X232846Y206386D01*
Y204614D01*
X233192Y202875D01*
X233871Y201237D01*
X234856Y199763D01*
X236109Y198509D01*
X237583Y197524D01*
X239221Y196846D01*
X240960Y196500D01*
X242733D01*
X244472Y196846D01*
X246110Y197524D01*
X247584Y198509D01*
X248837Y199763D01*
X249822Y201237D01*
X250501Y202875D01*
X250847Y204614D01*
Y206386D01*
X250501Y208125D01*
X249822Y209763D01*
X248837Y211237D01*
X247584Y212491D01*
X246110Y213476D01*
X244472Y214154D01*
X242733Y214500D01*
D02*
G37*
G36*
X14386D02*
X12614D01*
X10875Y214154D01*
X9237Y213476D01*
X7763Y212491D01*
X6509Y211237D01*
X5524Y209763D01*
X4846Y208125D01*
X4500Y206386D01*
Y204614D01*
X4846Y202875D01*
X5524Y201237D01*
X6509Y199763D01*
X7763Y198509D01*
X9237Y197524D01*
X10875Y196846D01*
X12614Y196500D01*
X14386D01*
X16125Y196846D01*
X17763Y197524D01*
X19237Y198509D01*
X20491Y199763D01*
X21476Y201237D01*
X22154Y202875D01*
X22500Y204614D01*
Y206386D01*
X22154Y208125D01*
X21476Y209763D01*
X20491Y211237D01*
X19237Y212491D01*
X17763Y213476D01*
X16125Y214154D01*
X14386Y214500D01*
D02*
G37*
G36*
X109700Y176009D02*
Y171600D01*
X113584D01*
Y171691D01*
X113435Y172825D01*
X112997Y173882D01*
X112300Y174791D01*
X111392Y175487D01*
X110335Y175925D01*
X109700Y176009D01*
D02*
G37*
G36*
X108700D02*
X108065Y175925D01*
X107008Y175487D01*
X106100Y174791D01*
X105403Y173882D01*
X104965Y172825D01*
X104816Y171691D01*
Y171600D01*
X108700D01*
Y176009D01*
D02*
G37*
G36*
X113584Y170600D02*
X109700D01*
Y166191D01*
X110335Y166275D01*
X111392Y166713D01*
X112300Y167410D01*
X112997Y168317D01*
X113435Y169375D01*
X113584Y170509D01*
Y170600D01*
D02*
G37*
G36*
X108700D02*
X104816D01*
Y170509D01*
X104965Y169375D01*
X105403Y168317D01*
X106100Y167410D01*
X107008Y166713D01*
X108065Y166275D01*
X108700Y166191D01*
Y170600D01*
D02*
G37*
G36*
X128885Y176075D02*
X127750Y175925D01*
X126693Y175487D01*
X125785Y174791D01*
X125088Y173882D01*
X124651Y172825D01*
X124501Y171691D01*
Y170509D01*
X124651Y169375D01*
X125088Y168317D01*
X125785Y167410D01*
X126693Y166713D01*
X127750Y166275D01*
X128885Y166126D01*
X130020Y166275D01*
X131077Y166713D01*
X131985Y167410D01*
X132682Y168317D01*
X133120Y169375D01*
X133269Y170509D01*
Y171691D01*
X133120Y172825D01*
X132682Y173882D01*
X131985Y174791D01*
X131077Y175487D01*
X130020Y175925D01*
X128885Y176075D01*
D02*
G37*
G36*
X119043D02*
X117908Y175925D01*
X116850Y175487D01*
X115943Y174791D01*
X115246Y173882D01*
X114808Y172825D01*
X114659Y171691D01*
Y170509D01*
X114808Y169375D01*
X115246Y168317D01*
X115943Y167410D01*
X116850Y166713D01*
X117908Y166275D01*
X119043Y166126D01*
X120177Y166275D01*
X121235Y166713D01*
X122143Y167410D01*
X122839Y168317D01*
X123277Y169375D01*
X123426Y170509D01*
Y171691D01*
X123277Y172825D01*
X122839Y173882D01*
X122143Y174791D01*
X121235Y175487D01*
X120177Y175925D01*
X119043Y176075D01*
D02*
G37*
G36*
X131800Y132054D02*
Y130400D01*
X133454D01*
X133149Y131135D01*
X132536Y131749D01*
X131800Y132054D01*
D02*
G37*
G36*
X130800D02*
X130064Y131749D01*
X129451Y131135D01*
X129146Y130400D01*
X130800D01*
Y132054D01*
D02*
G37*
G36*
X133454Y129400D02*
X131800D01*
Y127746D01*
X132536Y128051D01*
X133149Y128665D01*
X133454Y129400D01*
D02*
G37*
G36*
X130800D02*
X129146D01*
X129451Y128665D01*
X130064Y128051D01*
X130800Y127746D01*
Y129400D01*
D02*
G37*
G36*
X149300Y118254D02*
Y116600D01*
X150954D01*
X150649Y117335D01*
X150036Y117949D01*
X149300Y118254D01*
D02*
G37*
G36*
X143800D02*
X143064Y117949D01*
X142451Y117335D01*
X142146Y116600D01*
X143800D01*
Y118254D01*
D02*
G37*
G36*
Y111300D02*
X142146D01*
X142451Y110564D01*
X143064Y109951D01*
X143800Y109646D01*
Y111300D01*
D02*
G37*
%LPD*%
D13*
X135400Y131323D02*
Y176073D01*
Y131323D02*
X135812Y130911D01*
X138221Y131635D02*
Y206047D01*
X135812Y130100D02*
Y130911D01*
X138221Y131635D02*
X138446Y131409D01*
X135812Y130100D02*
X139112Y126800D01*
X120643Y95000D02*
X139700D01*
X119400Y92000D02*
X144500D01*
X120021Y93500D02*
X142208D01*
X78220Y135301D02*
X120021Y93500D01*
X67600Y143800D02*
Y205573D01*
X142208Y93500D02*
X143389Y94681D01*
X67600Y143800D02*
X119400Y92000D01*
X139700Y95000D02*
X145700Y101000D01*
X78220Y135301D02*
Y204953D01*
X88221Y127422D02*
X120643Y95000D01*
X145700Y101000D02*
X150700D01*
X143389Y94681D02*
X145727D01*
X88221Y127422D02*
Y205879D01*
X83600Y210500D02*
X88221Y205879D01*
X82673Y210500D02*
X83600D01*
X145727Y94681D02*
X147446Y96400D01*
X147800D01*
X72673Y210500D02*
X78220Y204953D01*
X62673Y210500D02*
X67600Y205573D01*
X140800Y101500D02*
X141061Y101761D01*
X142721D02*
X217126Y176165D01*
Y201250D01*
X221923Y206047D01*
Y209750D01*
X222673Y210500D01*
X141061Y101761D02*
X142721D01*
X139112Y126800D02*
X144980D01*
X122673Y188800D02*
X135400Y176073D01*
X138221Y206047D02*
X142673Y210500D01*
X122673Y188800D02*
Y200500D01*
D46*
X128800Y98800D02*
Y121800D01*
X99357Y151242D02*
Y171100D01*
Y151242D02*
X128800Y121800D01*
D48*
X222673Y210500D02*
D03*
Y200500D02*
D03*
X212673Y210500D02*
D03*
Y200500D02*
D03*
X202673Y210500D02*
D03*
Y200500D02*
D03*
X192673Y210500D02*
D03*
Y200500D02*
D03*
X182673Y210500D02*
D03*
Y200500D02*
D03*
X172673Y210500D02*
D03*
Y200500D02*
D03*
X162673Y210500D02*
D03*
Y200500D02*
D03*
X152673Y210500D02*
D03*
Y200500D02*
D03*
X142673Y210500D02*
D03*
Y200500D02*
D03*
X132673Y210500D02*
D03*
Y200500D02*
D03*
X122673Y210500D02*
D03*
Y200500D02*
D03*
X112673Y210500D02*
D03*
Y200500D02*
D03*
X102673Y210500D02*
D03*
Y200500D02*
D03*
X92673Y210500D02*
D03*
Y200500D02*
D03*
X82673Y210500D02*
D03*
Y200500D02*
D03*
X72673Y210500D02*
D03*
Y200500D02*
D03*
X62673Y210500D02*
D03*
Y200500D02*
D03*
X52673Y210500D02*
D03*
Y200500D02*
D03*
X42673Y210500D02*
D03*
Y200500D02*
D03*
X32673Y210500D02*
D03*
D49*
Y200500D02*
D03*
D50*
X241846Y12587D02*
D03*
X13500D02*
D03*
Y205500D02*
D03*
X241846D02*
D03*
D51*
X128885Y171100D02*
D03*
X119043D02*
D03*
X109200D02*
D03*
D52*
X99357D02*
D03*
D53*
X248000Y192000D02*
D03*
X240000Y176000D02*
D03*
X248000Y160000D02*
D03*
X240000Y144000D02*
D03*
X248000Y128000D02*
D03*
X240000Y112000D02*
D03*
X248000Y96000D02*
D03*
X240000Y80000D02*
D03*
X232000Y192000D02*
D03*
X224000Y176000D02*
D03*
X232000Y160000D02*
D03*
X224000Y144000D02*
D03*
X232000Y128000D02*
D03*
X224000Y112000D02*
D03*
X232000Y96000D02*
D03*
X224000Y80000D02*
D03*
X208000Y208000D02*
D03*
Y176000D02*
D03*
X216000Y160000D02*
D03*
X208000Y144000D02*
D03*
X216000Y128000D02*
D03*
X208000Y112000D02*
D03*
X216000Y96000D02*
D03*
X208000Y80000D02*
D03*
X200000Y192000D02*
D03*
X192000Y176000D02*
D03*
Y144000D02*
D03*
X200000Y128000D02*
D03*
X192000Y112000D02*
D03*
X200000Y96000D02*
D03*
X192000Y80000D02*
D03*
X184000Y192000D02*
D03*
X176000Y176000D02*
D03*
X184000Y160000D02*
D03*
X176000Y144000D02*
D03*
X184000Y128000D02*
D03*
X176000Y112000D02*
D03*
X184000Y96000D02*
D03*
X176000Y80000D02*
D03*
X168000Y160000D02*
D03*
X152000Y96000D02*
D03*
X144000Y80000D02*
D03*
X128000Y144000D02*
D03*
Y80000D02*
D03*
X112000D02*
D03*
X104000Y192000D02*
D03*
Y160000D02*
D03*
X96000Y144000D02*
D03*
X104000Y96000D02*
D03*
X96000Y80000D02*
D03*
X80000Y112000D02*
D03*
X88000Y96000D02*
D03*
X80000Y80000D02*
D03*
X72000Y192000D02*
D03*
Y160000D02*
D03*
Y128000D02*
D03*
X64000Y112000D02*
D03*
X72000Y96000D02*
D03*
X64000Y80000D02*
D03*
X48000Y176000D02*
D03*
X56000Y160000D02*
D03*
X48000Y144000D02*
D03*
X56000Y128000D02*
D03*
X48000Y112000D02*
D03*
X56000Y96000D02*
D03*
X48000Y80000D02*
D03*
X40000Y192000D02*
D03*
X32000Y176000D02*
D03*
Y144000D02*
D03*
X40000Y128000D02*
D03*
X32000Y112000D02*
D03*
X40000Y96000D02*
D03*
X32000Y80000D02*
D03*
X24000Y192000D02*
D03*
X16000Y176000D02*
D03*
Y144000D02*
D03*
X24000Y128000D02*
D03*
X16000Y112000D02*
D03*
X24000Y96000D02*
D03*
X16000Y80000D02*
D03*
X131300Y129900D02*
D03*
X138446Y131409D02*
D03*
X128800Y98800D02*
D03*
X150700Y101000D02*
D03*
X147800Y96400D02*
D03*
X140800Y101500D02*
D03*
X144500Y92000D02*
D03*
X144980Y126800D02*
D03*
X144300Y111800D02*
D03*
Y116100D02*
D03*
X148800D02*
D03*
X148969Y111800D02*
D03*
M02*
