G04*
G04 #@! TF.GenerationSoftware,Altium Limited,Altium Designer,20.2.4 (192)*
G04*
G04 Layer_Physical_Order=1*
G04 Layer_Color=255*
%FSLAX25Y25*%
%MOIN*%
G70*
G04*
G04 #@! TF.SameCoordinates,756CFB18-765A-4B9C-930C-300B3FFF0BD5*
G04*
G04*
G04 #@! TF.FilePolarity,Positive*
G04*
G01*
G75*
%ADD12C,0.01000*%
%ADD14R,0.06890X0.04331*%
G04:AMPARAMS|DCode=15|XSize=39.37mil|YSize=39.37mil|CornerRadius=9.84mil|HoleSize=0mil|Usage=FLASHONLY|Rotation=90.000|XOffset=0mil|YOffset=0mil|HoleType=Round|Shape=RoundedRectangle|*
%AMROUNDEDRECTD15*
21,1,0.03937,0.01968,0,0,90.0*
21,1,0.01968,0.03937,0,0,90.0*
1,1,0.01968,0.00984,0.00984*
1,1,0.01968,0.00984,-0.00984*
1,1,0.01968,-0.00984,-0.00984*
1,1,0.01968,-0.00984,0.00984*
%
%ADD15ROUNDEDRECTD15*%
%ADD16R,0.03347X0.02756*%
%ADD17R,0.02756X0.03347*%
%ADD18R,0.03937X0.05315*%
%ADD19R,0.02953X0.04921*%
%ADD20R,0.05315X0.03937*%
%ADD21R,0.12402X0.17717*%
%ADD22O,0.05512X0.01772*%
%ADD23R,0.06299X0.09843*%
%ADD24R,0.01000X0.01000*%
%ADD25R,0.20079X0.15748*%
%ADD26C,0.03000*%
%ADD27C,0.01700*%
%ADD28C,0.05000*%
%ADD29C,0.01500*%
%ADD30C,0.01200*%
%ADD31C,0.09843*%
%ADD32O,0.06693X0.07874*%
G04:AMPARAMS|DCode=33|XSize=66.93mil|YSize=78.74mil|CornerRadius=16.73mil|HoleSize=0mil|Usage=FLASHONLY|Rotation=0.000|XOffset=0mil|YOffset=0mil|HoleType=Round|Shape=RoundedRectangle|*
%AMROUNDEDRECTD33*
21,1,0.06693,0.04528,0,0,0.0*
21,1,0.03347,0.07874,0,0,0.0*
1,1,0.03346,0.01673,-0.02264*
1,1,0.03346,-0.01673,-0.02264*
1,1,0.03346,-0.01673,0.02264*
1,1,0.03346,0.01673,0.02264*
%
%ADD33ROUNDEDRECTD33*%
%ADD34C,0.23622*%
%ADD35C,0.03543*%
%ADD36C,0.05000*%
%ADD37C,0.01968*%
G36*
X547000Y242000D02*
X305000D01*
Y415000D01*
X547000D01*
Y242000D01*
D02*
G37*
%LPC*%
G36*
X514000Y409950D02*
X512839Y409836D01*
X511723Y409497D01*
X510694Y408947D01*
X509793Y408207D01*
X509053Y407306D01*
X508503Y406277D01*
X508164Y405161D01*
X508050Y404000D01*
X508164Y402839D01*
X508503Y401723D01*
X509053Y400694D01*
X509793Y399793D01*
X510470Y399237D01*
Y389078D01*
X509793Y388522D01*
X509237Y387845D01*
X489275D01*
X488719Y388522D01*
X488042Y389078D01*
Y399237D01*
X488719Y399793D01*
X489459Y400694D01*
X490009Y401723D01*
X490347Y402839D01*
X490462Y404000D01*
X490347Y405161D01*
X490009Y406277D01*
X489459Y407306D01*
X488719Y408207D01*
X487817Y408947D01*
X486789Y409497D01*
X485673Y409836D01*
X484512Y409950D01*
X483351Y409836D01*
X482235Y409497D01*
X481206Y408947D01*
X480305Y408207D01*
X479565Y407306D01*
X479015Y406277D01*
X478676Y405161D01*
X478562Y404000D01*
X478676Y402839D01*
X479015Y401723D01*
X479565Y400694D01*
X480305Y399793D01*
X480982Y399237D01*
Y389078D01*
X480305Y388522D01*
X479565Y387621D01*
X479015Y386592D01*
X478676Y385476D01*
X478562Y384315D01*
X478676Y383154D01*
X479015Y382038D01*
X479565Y381009D01*
X480305Y380108D01*
X481206Y379368D01*
X482235Y378818D01*
X483351Y378479D01*
X484512Y378365D01*
X485673Y378479D01*
X486789Y378818D01*
X487817Y379368D01*
X488719Y380108D01*
X489275Y380785D01*
X509237D01*
X509793Y380108D01*
X510470Y379552D01*
Y362912D01*
X509793Y362357D01*
X509237Y361680D01*
X505377D01*
X504821Y362357D01*
X503920Y363097D01*
X502891Y363647D01*
X501775Y363985D01*
X500614Y364100D01*
X499453Y363985D01*
X498337Y363647D01*
X497309Y363097D01*
X496407Y362357D01*
X495667Y361455D01*
X495117Y360426D01*
X494779Y359310D01*
X494664Y358150D01*
X494779Y356989D01*
X495117Y355873D01*
X495667Y354844D01*
X496407Y353942D01*
X497309Y353202D01*
X498337Y352653D01*
X499453Y352314D01*
X500614Y352200D01*
X501775Y352314D01*
X502891Y352653D01*
X503920Y353202D01*
X504821Y353942D01*
X505377Y354619D01*
X509237D01*
X509793Y353942D01*
X510694Y353202D01*
X511723Y352653D01*
X512839Y352314D01*
X514000Y352200D01*
X514872Y352286D01*
X520470Y346687D01*
Y284738D01*
X504692Y268960D01*
X503642D01*
X502944Y268868D01*
X502294Y268599D01*
X501735Y268170D01*
X501307Y267612D01*
X501037Y266962D01*
X500946Y266264D01*
Y261736D01*
X501037Y261038D01*
X501307Y260388D01*
X501735Y259830D01*
X502294Y259401D01*
X502944Y259132D01*
X503642Y259040D01*
X506988D01*
X507686Y259132D01*
X508155Y259326D01*
X508439Y258902D01*
X506066Y256529D01*
X435634D01*
X426529Y265634D01*
Y278000D01*
X426413Y278585D01*
X426081Y279081D01*
X418081Y287081D01*
X417585Y287413D01*
X417000Y287529D01*
X367634D01*
X355784Y299378D01*
X355812Y299490D01*
X356364Y299644D01*
X367090Y288919D01*
X367586Y288587D01*
X368172Y288471D01*
X428760D01*
X440864Y276366D01*
Y269370D01*
X440364Y268931D01*
X440146Y268960D01*
X436799D01*
X436101Y268868D01*
X435451Y268599D01*
X434893Y268170D01*
X434464Y267612D01*
X434195Y266962D01*
X434103Y266264D01*
Y261736D01*
X434195Y261038D01*
X434464Y260388D01*
X434893Y259830D01*
X435451Y259401D01*
X436101Y259132D01*
X436799Y259040D01*
X440146D01*
X440843Y259132D01*
X441494Y259401D01*
X442052Y259830D01*
X442481Y260388D01*
X442750Y261038D01*
X442842Y261736D01*
Y265417D01*
X443161Y265568D01*
X443342Y265584D01*
X443898Y265027D01*
X443981Y264972D01*
X443931Y264591D01*
Y263409D01*
X444080Y262275D01*
X444518Y261217D01*
X445215Y260310D01*
X446123Y259613D01*
X447180Y259175D01*
X448315Y259026D01*
X449450Y259175D01*
X450507Y259613D01*
X451415Y260310D01*
X452112Y261217D01*
X452550Y262275D01*
X452699Y263409D01*
Y264591D01*
X452550Y265725D01*
X452112Y266782D01*
X451415Y267690D01*
X450507Y268387D01*
X449450Y268825D01*
X448315Y268974D01*
X447180Y268825D01*
X446423Y268512D01*
X445923Y268841D01*
Y277828D01*
X445807Y278414D01*
X445475Y278910D01*
X431304Y293081D01*
X430807Y293413D01*
X430222Y293529D01*
X369634D01*
X363625Y299538D01*
X363816Y300000D01*
X381837D01*
X382415Y299423D01*
X382911Y299091D01*
X383496Y298975D01*
X387339D01*
Y298043D01*
X391669D01*
Y302965D01*
X387339D01*
Y302033D01*
X385000D01*
Y308095D01*
X385462Y308287D01*
X386243Y307506D01*
X386652Y307233D01*
X387587Y306298D01*
Y303539D01*
X391917D01*
Y308461D01*
X389750D01*
X389117Y309093D01*
X389308Y309555D01*
X392114D01*
Y316445D01*
X390888D01*
Y316725D01*
X390771Y317311D01*
X390440Y317807D01*
X389854Y318393D01*
X389358Y318724D01*
X388772Y318841D01*
X388249D01*
X387872Y319218D01*
Y319751D01*
X388468Y320347D01*
X388516Y320337D01*
X392256D01*
X392909Y320467D01*
X393462Y320837D01*
X393832Y321391D01*
X393962Y322043D01*
X393832Y322696D01*
X393672Y322935D01*
X393496Y323323D01*
X393672Y323711D01*
X393832Y323950D01*
X393962Y324602D01*
X393832Y325255D01*
X393672Y325494D01*
X393496Y325882D01*
X393672Y326270D01*
X393832Y326509D01*
X393962Y327162D01*
X393832Y327815D01*
X393672Y328053D01*
X393496Y328441D01*
X393672Y328829D01*
X393832Y329068D01*
X393962Y329721D01*
X393832Y330374D01*
X393672Y330612D01*
X393496Y331000D01*
X393672Y331388D01*
X393832Y331627D01*
X393962Y332280D01*
X393832Y332932D01*
X393672Y333171D01*
X393496Y333559D01*
X393672Y333947D01*
X393832Y334186D01*
X393962Y334839D01*
X393832Y335491D01*
X393462Y336045D01*
Y336192D01*
X393832Y336745D01*
X393962Y337398D01*
X393832Y338051D01*
X393672Y338290D01*
X393496Y338677D01*
X393672Y339065D01*
X393832Y339304D01*
X393962Y339957D01*
X393832Y340610D01*
X393672Y340849D01*
X393496Y341236D01*
X393672Y341624D01*
X393832Y341863D01*
X393962Y342516D01*
X393832Y343169D01*
X393462Y343722D01*
X392909Y344092D01*
X392256Y344222D01*
X390888D01*
Y346960D01*
X393445D01*
Y352472D01*
X386555D01*
Y346960D01*
X387829D01*
Y344069D01*
X387309Y343722D01*
X386940Y343169D01*
X386810Y342516D01*
X386940Y341863D01*
X387099Y341624D01*
X387276Y341236D01*
X387099Y340849D01*
X386940Y340610D01*
X386810Y339957D01*
X386844Y339784D01*
X386822Y339737D01*
X386390Y339506D01*
X385930Y339965D01*
X385497Y340255D01*
X385445Y340648D01*
Y342756D01*
X384158D01*
X383765Y343057D01*
X382914Y343410D01*
X382000Y343530D01*
X374530D01*
Y377552D01*
X375207Y378108D01*
X375947Y379009D01*
X376497Y380038D01*
X376836Y381154D01*
X376950Y382315D01*
X376836Y383476D01*
X376497Y384592D01*
X375947Y385621D01*
X375207Y386522D01*
X374530Y387078D01*
Y397237D01*
X375207Y397793D01*
X375947Y398694D01*
X376497Y399723D01*
X376836Y400839D01*
X376950Y402000D01*
X376836Y403161D01*
X376497Y404277D01*
X375947Y405306D01*
X375207Y406207D01*
X374306Y406947D01*
X373277Y407497D01*
X372161Y407836D01*
X371000Y407950D01*
X369839Y407836D01*
X368723Y407497D01*
X367694Y406947D01*
X366793Y406207D01*
X366053Y405306D01*
X365503Y404277D01*
X365164Y403161D01*
X365050Y402000D01*
X365164Y400839D01*
X365503Y399723D01*
X366053Y398694D01*
X366793Y397793D01*
X367470Y397237D01*
Y387078D01*
X366793Y386522D01*
X366237Y385845D01*
X346275D01*
X345719Y386522D01*
X345042Y387078D01*
Y397237D01*
X345719Y397793D01*
X346459Y398694D01*
X347009Y399723D01*
X347347Y400839D01*
X347462Y402000D01*
X347347Y403161D01*
X347009Y404277D01*
X346459Y405306D01*
X345719Y406207D01*
X344817Y406947D01*
X343789Y407497D01*
X342673Y407836D01*
X341512Y407950D01*
X340351Y407836D01*
X339235Y407497D01*
X338206Y406947D01*
X337305Y406207D01*
X336565Y405306D01*
X336015Y404277D01*
X335676Y403161D01*
X335562Y402000D01*
X335676Y400839D01*
X336015Y399723D01*
X336565Y398694D01*
X337305Y397793D01*
X337982Y397237D01*
Y387078D01*
X337305Y386522D01*
X336565Y385621D01*
X336015Y384592D01*
X335676Y383476D01*
X335562Y382315D01*
X335676Y381154D01*
X336015Y380038D01*
X336565Y379009D01*
X337305Y378108D01*
X338206Y377368D01*
X339235Y376818D01*
X340351Y376479D01*
X341512Y376365D01*
X342673Y376479D01*
X343789Y376818D01*
X344817Y377368D01*
X345719Y378108D01*
X346275Y378785D01*
X366237D01*
X366793Y378108D01*
X367470Y377552D01*
Y350010D01*
X366970Y349879D01*
X366496Y350496D01*
X365765Y351057D01*
X364914Y351410D01*
X364000Y351530D01*
X363086Y351410D01*
X362235Y351057D01*
X361504Y350496D01*
X360943Y349765D01*
X360590Y348914D01*
X360470Y348000D01*
Y343428D01*
X360334Y343410D01*
X359483Y343057D01*
X358752Y342496D01*
X358752Y342496D01*
X358504Y342248D01*
X358274Y341949D01*
X358197Y341919D01*
X357656Y341965D01*
X357248Y342496D01*
X356517Y343057D01*
X355666Y343410D01*
X354752Y343530D01*
X346612D01*
X335864Y354278D01*
X335950Y355150D01*
X335836Y356310D01*
X335497Y357427D01*
X334947Y358455D01*
X334207Y359357D01*
X333306Y360097D01*
X332277Y360647D01*
X331161Y360985D01*
X330000Y361100D01*
X328839Y360985D01*
X327723Y360647D01*
X326694Y360097D01*
X325793Y359357D01*
X325237Y358680D01*
X321377D01*
X320821Y359357D01*
X319920Y360097D01*
X318891Y360647D01*
X317775Y360985D01*
X316614Y361100D01*
X315453Y360985D01*
X314337Y360647D01*
X313309Y360097D01*
X312407Y359357D01*
X311667Y358455D01*
X311117Y357427D01*
X310779Y356310D01*
X310664Y355150D01*
X310779Y353989D01*
X311117Y352873D01*
X311667Y351844D01*
X312407Y350942D01*
X313309Y350202D01*
X314337Y349653D01*
X315453Y349314D01*
X316614Y349200D01*
X317775Y349314D01*
X318891Y349653D01*
X319920Y350202D01*
X320821Y350942D01*
X321377Y351619D01*
X325237D01*
X325793Y350942D01*
X326694Y350202D01*
X327723Y349653D01*
X328839Y349314D01*
X330000Y349200D01*
X330872Y349286D01*
X342653Y337504D01*
X343385Y336943D01*
X344236Y336590D01*
X345150Y336470D01*
X353223D01*
Y335000D01*
X353339Y334415D01*
X353671Y333919D01*
X355471Y332119D01*
Y329000D01*
Y323377D01*
X355408Y323329D01*
X354971Y323192D01*
X352585Y325577D01*
X352089Y325909D01*
X351504Y326025D01*
X349461D01*
Y326661D01*
X348529D01*
Y331339D01*
X349461D01*
Y335669D01*
X344539D01*
Y331339D01*
X345471D01*
Y326661D01*
X344539D01*
Y322331D01*
X349461D01*
Y322967D01*
X350870D01*
X352471Y321367D01*
Y299000D01*
X352587Y298415D01*
X352919Y297919D01*
X365919Y284919D01*
X366415Y284587D01*
X367000Y284471D01*
X416366D01*
X423471Y277366D01*
Y265000D01*
X423587Y264415D01*
X423919Y263919D01*
X433919Y253919D01*
X434415Y253587D01*
X435000Y253471D01*
X506699D01*
X507284Y253587D01*
X507781Y253919D01*
X513326Y259464D01*
X514023Y259175D01*
X515158Y259026D01*
X516292Y259175D01*
X517350Y259613D01*
X518258Y260310D01*
X518954Y261217D01*
X519392Y262275D01*
X519542Y263409D01*
Y264591D01*
X519392Y265725D01*
X518954Y266782D01*
X518258Y267690D01*
X517350Y268387D01*
X516292Y268825D01*
X515371Y268947D01*
X515174Y269457D01*
X526496Y280779D01*
X527057Y281510D01*
X527410Y282362D01*
X527530Y283276D01*
Y348149D01*
X527530Y348150D01*
X527410Y349063D01*
X527057Y349915D01*
X526496Y350646D01*
X519864Y357278D01*
X519950Y358150D01*
X519836Y359310D01*
X519497Y360426D01*
X518947Y361455D01*
X518207Y362357D01*
X517530Y362912D01*
Y379552D01*
X518207Y380108D01*
X518947Y381009D01*
X519497Y382038D01*
X519836Y383154D01*
X519950Y384315D01*
X519836Y385476D01*
X519497Y386592D01*
X518947Y387621D01*
X518207Y388522D01*
X517530Y389078D01*
Y399237D01*
X518207Y399793D01*
X518947Y400694D01*
X519497Y401723D01*
X519836Y402839D01*
X519950Y404000D01*
X519836Y405161D01*
X519497Y406277D01*
X518947Y407306D01*
X518207Y408207D01*
X517306Y408947D01*
X516277Y409497D01*
X515161Y409836D01*
X514000Y409950D01*
D02*
G37*
G36*
X441000Y407215D02*
X440086Y407095D01*
X439235Y406742D01*
X438504Y406181D01*
X437943Y405450D01*
X437590Y404599D01*
X437470Y403685D01*
Y384000D01*
X437590Y383086D01*
X437943Y382235D01*
X438504Y381504D01*
X439235Y380943D01*
X440086Y380590D01*
X441000Y380470D01*
X441914Y380590D01*
X442765Y380943D01*
X443496Y381504D01*
X444057Y382235D01*
X444410Y383086D01*
X444530Y384000D01*
Y403685D01*
X444410Y404599D01*
X444057Y405450D01*
X443496Y406181D01*
X442765Y406742D01*
X441914Y407095D01*
X441000Y407215D01*
D02*
G37*
G36*
X411512D02*
X410598Y407095D01*
X409747Y406742D01*
X409016Y406181D01*
X408455Y405450D01*
X408102Y404599D01*
X407982Y403685D01*
Y384000D01*
X408102Y383086D01*
X408455Y382235D01*
X409016Y381504D01*
X409747Y380943D01*
X410598Y380590D01*
X411512Y380470D01*
X412426Y380590D01*
X413277Y380943D01*
X414008Y381504D01*
X414569Y382235D01*
X414922Y383086D01*
X415042Y384000D01*
Y403685D01*
X414922Y404599D01*
X414569Y405450D01*
X414008Y406181D01*
X413277Y406742D01*
X412426Y407095D01*
X411512Y407215D01*
D02*
G37*
G36*
X439984Y366791D02*
X438016D01*
X437324Y366653D01*
X436738Y366262D01*
X436347Y365675D01*
X436209Y364984D01*
Y363016D01*
X436347Y362325D01*
X436451Y362169D01*
Y358214D01*
X435654Y358056D01*
X434828Y357503D01*
X431332Y354008D01*
X427063D01*
Y353549D01*
X423756D01*
Y354445D01*
X418244D01*
Y347555D01*
X418451D01*
Y339914D01*
X417226D01*
X417190Y339957D01*
X417060Y340610D01*
X416901Y340849D01*
X416724Y341236D01*
X416901Y341624D01*
X417060Y341863D01*
X417190Y342516D01*
X417060Y343169D01*
X416691Y343722D01*
X416137Y344092D01*
X415484Y344222D01*
X415195D01*
Y347555D01*
X416472D01*
Y354445D01*
X410961D01*
Y347555D01*
X412136D01*
Y344300D01*
X411744D01*
X411061Y344164D01*
X410482Y343777D01*
X410096Y343199D01*
X409960Y342516D01*
X410096Y341833D01*
X410482Y341254D01*
X410285Y340785D01*
X410168Y340610D01*
X410038Y339957D01*
X410168Y339304D01*
X410328Y339065D01*
X410504Y338677D01*
X410328Y338290D01*
X410168Y338051D01*
X410038Y337398D01*
X410168Y336745D01*
X410538Y336192D01*
Y336045D01*
X410168Y335491D01*
X410038Y334839D01*
X410168Y334186D01*
X410328Y333947D01*
X410504Y333559D01*
X410328Y333171D01*
X410168Y332932D01*
X410038Y332280D01*
X410168Y331627D01*
X410328Y331388D01*
X410504Y331000D01*
X410328Y330612D01*
X410168Y330374D01*
X410038Y329721D01*
X410168Y329068D01*
X410538Y328514D01*
X411091Y328145D01*
X411744Y328015D01*
X415484D01*
X416137Y328145D01*
X416691Y328514D01*
X417060Y329068D01*
X417190Y329721D01*
X417085Y330250D01*
X417364Y330750D01*
X427063D01*
Y329992D01*
X434937D01*
Y341409D01*
X427063D01*
Y333809D01*
X417364D01*
X417085Y334309D01*
X417186Y334816D01*
X421000D01*
X421976Y335010D01*
X422802Y335562D01*
X423355Y336389D01*
X423549Y337365D01*
Y347555D01*
X423756D01*
Y348451D01*
X427063D01*
Y342590D01*
X434937D01*
Y350403D01*
X437686Y353152D01*
X455173D01*
Y346039D01*
X476827D01*
Y363362D01*
X455173D01*
Y358250D01*
X441549D01*
Y362169D01*
X441653Y362325D01*
X441791Y363016D01*
Y364984D01*
X441653Y365675D01*
X441261Y366262D01*
X440675Y366653D01*
X439984Y366791D01*
D02*
G37*
G36*
X476827Y325961D02*
X455173D01*
Y320549D01*
X432232D01*
Y320957D01*
X423768D01*
Y320549D01*
X423000D01*
X422524Y320454D01*
X419601Y323377D01*
X418990Y323786D01*
X418268Y323930D01*
X415693D01*
X414971Y323786D01*
X414916Y323749D01*
X411744D01*
X411091Y323620D01*
X410538Y323250D01*
X410168Y322696D01*
X410038Y322043D01*
X410168Y321391D01*
X410328Y321152D01*
X410504Y320764D01*
X410328Y320376D01*
X410168Y320137D01*
X410038Y319484D01*
X410168Y318831D01*
X410538Y318278D01*
X411091Y317908D01*
X411744Y317778D01*
X412085D01*
Y317386D01*
X412201Y316800D01*
X412533Y316304D01*
X414471Y314367D01*
Y308445D01*
X413244D01*
Y301886D01*
X409004D01*
X408797Y302386D01*
X409798Y303387D01*
X410130Y303883D01*
X410246Y304468D01*
Y305000D01*
X410130Y305585D01*
X409798Y306081D01*
X409302Y306413D01*
X408717Y306529D01*
X408131Y306413D01*
X407635Y306081D01*
X407304Y305585D01*
X407212Y305127D01*
X406167Y304081D01*
X405835Y303585D01*
X405719Y303000D01*
X405835Y302415D01*
X405854Y302386D01*
X405587Y301886D01*
X398165D01*
Y302965D01*
X393835D01*
Y298043D01*
X398165D01*
Y298114D01*
X419000D01*
X419722Y298257D01*
X420334Y298666D01*
X422334Y300666D01*
X422743Y301278D01*
X422886Y302000D01*
Y311000D01*
X422743Y311722D01*
X422334Y312334D01*
X420886Y313781D01*
Y315832D01*
X421386Y316072D01*
X422024Y315645D01*
X423000Y315451D01*
X423768D01*
Y315051D01*
X432232D01*
Y315451D01*
X434451D01*
Y312831D01*
X434347Y312675D01*
X434209Y311984D01*
Y310016D01*
X434347Y309325D01*
X434738Y308738D01*
X435324Y308347D01*
X436016Y308209D01*
X437984D01*
X438675Y308347D01*
X439261Y308738D01*
X439653Y309325D01*
X439791Y310016D01*
Y311984D01*
X439653Y312675D01*
X439549Y312831D01*
Y315451D01*
X455173D01*
Y308638D01*
X463699D01*
Y305000D01*
X463893Y304025D01*
X464083Y303741D01*
Y302539D01*
X465804D01*
X466248Y302451D01*
X476223D01*
Y302248D01*
X476339Y301663D01*
X476671Y301167D01*
X478471Y299366D01*
Y298729D01*
X478425Y298500D01*
Y295088D01*
X460583Y277246D01*
X460252Y276749D01*
X460135Y276164D01*
X460252Y275579D01*
X460299Y275507D01*
Y268858D01*
X459884Y268580D01*
X459292Y268825D01*
X458157Y268974D01*
X457023Y268825D01*
X455965Y268387D01*
X455057Y267690D01*
X454361Y266782D01*
X453923Y265725D01*
X453773Y264591D01*
Y263409D01*
X453923Y262275D01*
X454361Y261217D01*
X455057Y260310D01*
X455965Y259613D01*
X457023Y259175D01*
X458157Y259026D01*
X459292Y259175D01*
X460349Y259613D01*
X461257Y260310D01*
X461954Y261217D01*
X462392Y262275D01*
X462541Y263409D01*
Y264591D01*
X462392Y265725D01*
X462314Y265914D01*
X462752Y266351D01*
X463079Y266456D01*
X463406Y266351D01*
X463843Y265914D01*
X463765Y265725D01*
X463616Y264591D01*
Y263409D01*
X463765Y262275D01*
X464203Y261217D01*
X464900Y260310D01*
X465808Y259613D01*
X466865Y259175D01*
X468000Y259026D01*
X469135Y259175D01*
X470192Y259613D01*
X471100Y260310D01*
X471797Y261217D01*
X472235Y262275D01*
X472384Y263409D01*
Y264591D01*
X472235Y265725D01*
X471797Y266782D01*
X471100Y267690D01*
X470192Y268387D01*
X469135Y268825D01*
X468000Y268974D01*
X466865Y268825D01*
X466274Y268580D01*
X465858Y268858D01*
Y275366D01*
X483036Y292544D01*
X483367Y293040D01*
X483484Y293626D01*
Y298000D01*
X483457Y298136D01*
X483529Y298500D01*
Y299366D01*
X485329Y301167D01*
X485532Y301470D01*
X495851D01*
X496407Y300793D01*
X497309Y300053D01*
X498337Y299503D01*
X499453Y299164D01*
X500614Y299050D01*
X501775Y299164D01*
X502891Y299503D01*
X503920Y300053D01*
X504821Y300793D01*
X505377Y301470D01*
X509237D01*
X509793Y300793D01*
X510694Y300053D01*
X511723Y299503D01*
X512839Y299164D01*
X514000Y299050D01*
X515161Y299164D01*
X516277Y299503D01*
X517306Y300053D01*
X518207Y300793D01*
X518947Y301694D01*
X519497Y302723D01*
X519836Y303839D01*
X519950Y305000D01*
X519836Y306161D01*
X519497Y307277D01*
X518947Y308306D01*
X518207Y309207D01*
X517306Y309947D01*
X516277Y310497D01*
X515161Y310836D01*
X514000Y310950D01*
X512839Y310836D01*
X511723Y310497D01*
X510694Y309947D01*
X509793Y309207D01*
X509237Y308530D01*
X505377D01*
X504821Y309207D01*
X503920Y309947D01*
X502891Y310497D01*
X501775Y310836D01*
X500614Y310950D01*
X499453Y310836D01*
X498337Y310497D01*
X497309Y309947D01*
X496407Y309207D01*
X495851Y308530D01*
X484248D01*
X483334Y308410D01*
X482483Y308057D01*
X481752Y307496D01*
X481191Y306765D01*
X480838Y305914D01*
X480755Y305281D01*
X480248Y305265D01*
X480107Y305976D01*
X479917Y306259D01*
Y307461D01*
X478196D01*
X477752Y307549D01*
X477752Y307549D01*
X468797D01*
Y308638D01*
X476827D01*
Y325961D01*
D02*
G37*
G36*
X461917Y307461D02*
X457587D01*
Y306529D01*
X453413D01*
Y307461D01*
X449083D01*
Y302539D01*
X453413D01*
Y303471D01*
X457587D01*
Y302539D01*
X458223D01*
Y295403D01*
X457987Y295305D01*
X457256Y294744D01*
X456695Y294013D01*
X456342Y293162D01*
X456222Y292248D01*
X456342Y291334D01*
X456695Y290483D01*
X457256Y289752D01*
X457987Y289191D01*
X458838Y288838D01*
X459752Y288718D01*
X460666Y288838D01*
X461517Y289191D01*
X462248Y289752D01*
X462809Y290483D01*
X463162Y291334D01*
X463282Y292248D01*
X463162Y293162D01*
X462809Y294013D01*
X462248Y294744D01*
X461517Y295305D01*
X461281Y295403D01*
Y302539D01*
X461917D01*
Y307461D01*
D02*
G37*
G36*
X330000Y307950D02*
X328839Y307836D01*
X327723Y307497D01*
X326694Y306947D01*
X325793Y306207D01*
X325237Y305530D01*
X321377D01*
X320821Y306207D01*
X319920Y306947D01*
X318891Y307497D01*
X317775Y307836D01*
X316614Y307950D01*
X315453Y307836D01*
X314337Y307497D01*
X313309Y306947D01*
X312407Y306207D01*
X311667Y305306D01*
X311117Y304277D01*
X310779Y303161D01*
X310664Y302000D01*
X310779Y300839D01*
X311117Y299723D01*
X311667Y298694D01*
X312407Y297793D01*
X312533Y297690D01*
Y282807D01*
X312206Y282632D01*
X311305Y281892D01*
X310565Y280991D01*
X310015Y279962D01*
X309676Y278846D01*
X309562Y277685D01*
X309676Y276524D01*
X310015Y275408D01*
X310565Y274379D01*
X311305Y273478D01*
X311982Y272922D01*
Y262763D01*
X311305Y262207D01*
X310565Y261306D01*
X310015Y260277D01*
X309676Y259161D01*
X309562Y258000D01*
X309676Y256839D01*
X310015Y255723D01*
X310565Y254694D01*
X311305Y253793D01*
X312206Y253053D01*
X313235Y252503D01*
X314351Y252164D01*
X315512Y252050D01*
X316673Y252164D01*
X317789Y252503D01*
X318817Y253053D01*
X319719Y253793D01*
X320459Y254694D01*
X321009Y255723D01*
X321347Y256839D01*
X321462Y258000D01*
X321347Y259161D01*
X321009Y260277D01*
X320459Y261306D01*
X319719Y262207D01*
X319042Y262763D01*
Y272922D01*
X319719Y273478D01*
X320275Y274155D01*
X340237D01*
X340793Y273478D01*
X341470Y272922D01*
Y262763D01*
X340793Y262207D01*
X340053Y261306D01*
X339503Y260277D01*
X339164Y259161D01*
X339050Y258000D01*
X339164Y256839D01*
X339503Y255723D01*
X340053Y254694D01*
X340793Y253793D01*
X341694Y253053D01*
X342723Y252503D01*
X343839Y252164D01*
X345000Y252050D01*
X346161Y252164D01*
X347277Y252503D01*
X348306Y253053D01*
X349207Y253793D01*
X349947Y254694D01*
X350497Y255723D01*
X350836Y256839D01*
X350950Y258000D01*
X350836Y259161D01*
X350497Y260277D01*
X349947Y261306D01*
X349207Y262207D01*
X348530Y262763D01*
Y272922D01*
X349207Y273478D01*
X349947Y274379D01*
X350497Y275408D01*
X350836Y276524D01*
X350950Y277685D01*
X350836Y278846D01*
X350497Y279962D01*
X349947Y280991D01*
X349207Y281892D01*
X348306Y282632D01*
X347277Y283182D01*
X346161Y283521D01*
X345000Y283635D01*
X343839Y283521D01*
X342723Y283182D01*
X341694Y282632D01*
X340793Y281892D01*
X340237Y281215D01*
X320275D01*
X319719Y281892D01*
X319593Y281996D01*
Y296878D01*
X319920Y297053D01*
X320821Y297793D01*
X321377Y298470D01*
X325237D01*
X325793Y297793D01*
X326694Y297053D01*
X327723Y296503D01*
X328839Y296164D01*
X330000Y296050D01*
X331161Y296164D01*
X332277Y296503D01*
X333306Y297053D01*
X334207Y297793D01*
X334947Y298694D01*
X335497Y299723D01*
X335836Y300839D01*
X335950Y302000D01*
X335836Y303161D01*
X335497Y304277D01*
X334947Y305306D01*
X334207Y306207D01*
X333306Y306947D01*
X332277Y307497D01*
X331161Y307836D01*
X330000Y307950D01*
D02*
G37*
G36*
X444752Y306529D02*
X444167Y306413D01*
X443671Y306081D01*
X443339Y305585D01*
X443307Y305422D01*
X442793Y304908D01*
X442461Y304412D01*
X442345Y303827D01*
X442461Y303241D01*
X442793Y302745D01*
X443289Y302414D01*
X443874Y302297D01*
X444459Y302414D01*
X444955Y302745D01*
X445833Y303623D01*
X446165Y304119D01*
X446281Y304705D01*
Y305000D01*
X446165Y305585D01*
X445833Y306081D01*
X445337Y306413D01*
X444752Y306529D01*
D02*
G37*
G36*
X408000Y280215D02*
X407086Y280095D01*
X406235Y279742D01*
X405504Y279181D01*
X404943Y278450D01*
X404590Y277599D01*
X404470Y276685D01*
Y260530D01*
X382042D01*
Y276685D01*
X381922Y277599D01*
X381569Y278450D01*
X381008Y279181D01*
X380277Y279742D01*
X379426Y280095D01*
X378512Y280215D01*
X377598Y280095D01*
X376747Y279742D01*
X376016Y279181D01*
X375455Y278450D01*
X375102Y277599D01*
X374982Y276685D01*
Y257000D01*
X375102Y256086D01*
X375455Y255235D01*
X376016Y254504D01*
X376747Y253943D01*
X377598Y253590D01*
X378512Y253470D01*
X408000D01*
X408914Y253590D01*
X409765Y253943D01*
X410496Y254504D01*
X411057Y255235D01*
X411410Y256086D01*
X411530Y257000D01*
Y276685D01*
X411410Y277599D01*
X411057Y278450D01*
X410496Y279181D01*
X409765Y279742D01*
X408914Y280095D01*
X408000Y280215D01*
D02*
G37*
G36*
X535000Y284530D02*
X534086Y284410D01*
X533235Y284057D01*
X532504Y283496D01*
X531943Y282765D01*
X531590Y281914D01*
X531470Y281000D01*
X531590Y280086D01*
X531943Y279235D01*
X532504Y278504D01*
X533235Y277943D01*
X533392Y277878D01*
Y268694D01*
X532651Y268387D01*
X531743Y267690D01*
X531046Y266782D01*
X530608Y265725D01*
X530459Y264591D01*
Y263409D01*
X530608Y262275D01*
X531046Y261217D01*
X531743Y260310D01*
X532651Y259613D01*
X533708Y259175D01*
X534843Y259026D01*
X535977Y259175D01*
X537035Y259613D01*
X537943Y260310D01*
X538639Y261217D01*
X539077Y262275D01*
X539227Y263409D01*
Y264591D01*
X539077Y265725D01*
X538639Y266782D01*
X537943Y267690D01*
X537035Y268387D01*
X536451Y268629D01*
Y277813D01*
X536765Y277943D01*
X537496Y278504D01*
X538057Y279235D01*
X538410Y280086D01*
X538530Y281000D01*
X538410Y281914D01*
X538057Y282765D01*
X537496Y283496D01*
X536765Y284057D01*
X535914Y284410D01*
X535000Y284530D01*
D02*
G37*
%LPD*%
G36*
X363000Y334803D02*
Y300816D01*
X362538Y300625D01*
X360529Y302634D01*
Y329000D01*
Y332366D01*
X362081Y333919D01*
X362413Y334415D01*
X362500Y334852D01*
X363000Y334803D01*
D02*
G37*
D12*
X413614Y332280D02*
X428350D01*
X431000Y334929D01*
Y335701D01*
X429732Y334433D02*
X431000Y335701D01*
X367000Y308000D02*
X373063D01*
X372000Y327000D02*
X372716Y326284D01*
Y316000D02*
Y326284D01*
X534843Y264000D02*
X534921Y264079D01*
Y280921D01*
X535000Y281000D01*
X479954Y294454D02*
Y298500D01*
X459752Y292248D02*
Y305000D01*
X482000Y300000D02*
X484248Y302248D01*
Y305000D01*
X477752Y302248D02*
Y305000D01*
Y302248D02*
X480000Y300000D01*
X481954Y297500D02*
Y298000D01*
Y293626D02*
Y297500D01*
X464329Y276000D02*
X481954Y293626D01*
X461664Y276164D02*
X479954Y294454D01*
X458238Y264000D02*
X461829Y267591D01*
Y276000D01*
X464329Y267591D02*
X467920Y264000D01*
X464329Y267591D02*
Y276000D01*
X506699Y255000D02*
X515428Y263729D01*
X435000Y255000D02*
X506699D01*
X425000Y265000D02*
X435000Y255000D01*
X425000Y265000D02*
Y278000D01*
X367000Y286000D02*
X417000D01*
X425000Y278000D01*
X354000Y299000D02*
X367000Y286000D01*
X347000Y324496D02*
X351504D01*
X354000Y299000D02*
Y322000D01*
X351504Y324496D02*
X354000Y322000D01*
X359000Y302000D02*
Y329000D01*
Y302000D02*
X369000Y292000D01*
X368172Y290000D02*
X429394D01*
X357000Y301172D02*
Y329000D01*
Y301172D02*
X368172Y290000D01*
X369000Y292000D02*
X430222D01*
X466000Y317299D02*
X466248Y317051D01*
X451248Y305000D02*
X459752D01*
X357000Y330500D02*
Y332752D01*
X354752Y335000D02*
X357000Y332752D01*
X354752Y335000D02*
Y340000D01*
X429394Y290000D02*
X442394Y277000D01*
X444394Y266695D02*
Y277828D01*
X430222Y292000D02*
X444394Y277828D01*
X445256Y266109D02*
X447365Y264000D01*
X441606Y267089D02*
X441808D01*
X438517Y264000D02*
X441606Y267089D01*
X438472Y264000D02*
X438517D01*
X444394Y266695D02*
X444979Y266109D01*
X445256D01*
X447365Y264000D02*
X448315D01*
X442394Y267675D02*
Y277000D01*
X441808Y267089D02*
X442394Y267675D01*
X515428Y263729D02*
Y263729D01*
X357000Y329000D02*
Y330500D01*
X359000Y329000D02*
Y330500D01*
Y333000D02*
X361000Y335000D01*
X359000Y330500D02*
Y333000D01*
X380937Y303063D02*
X383496Y300504D01*
X380000Y316000D02*
X380937Y315063D01*
X381469Y326716D02*
X382000D01*
X380000Y325532D02*
X381469Y327000D01*
X381212Y332716D02*
X382000D01*
X380716Y333212D02*
X381212D01*
X380716Y332716D02*
X382000D01*
X380716D02*
X381212Y333212D01*
X383000Y333642D02*
X383689D01*
X389752Y306000D02*
Y306295D01*
X389358Y313000D02*
Y316725D01*
X388772Y317311D02*
X389358Y316725D01*
X387615Y317311D02*
X388772D01*
X387854Y324455D02*
X390238D01*
X387854Y321896D02*
X390238D01*
X388145Y327000D02*
X388307Y327162D01*
X390386D01*
X390238Y329868D02*
X390386Y329721D01*
X389358Y342872D02*
X389715Y342516D01*
X390386D01*
X413614Y317386D02*
Y319484D01*
Y317386D02*
X416000Y315000D01*
X413614Y322043D02*
X415693D01*
X413614Y329721D02*
Y332280D01*
X422311Y318000D02*
X423000D01*
X431000Y348299D02*
Y349185D01*
X361000Y335000D02*
Y339752D01*
X380937Y303063D02*
Y308000D01*
Y315063D01*
X384842Y311069D02*
Y321444D01*
X386343Y318584D02*
Y320385D01*
X389358Y342872D02*
Y350000D01*
X408717Y304468D02*
Y305000D01*
X407248Y303000D02*
X408717Y304468D01*
X416000Y305000D02*
Y315000D01*
X413665Y342567D02*
Y350949D01*
X380000Y316000D02*
Y325532D01*
X372000Y333496D02*
X380716D01*
X387324Y308587D02*
X387460D01*
X389752Y306295D01*
X384842Y311069D02*
X387324Y308587D01*
X386343Y318584D02*
X387615Y317311D01*
X384842Y321444D02*
X387854Y324455D01*
X383689Y333642D02*
X387462Y329868D01*
X390238D01*
X386343Y320385D02*
X387854Y321896D01*
X347000Y324496D02*
Y333504D01*
X383496Y300504D02*
X389504D01*
X383321Y327000D02*
X388145D01*
X480000Y298500D02*
Y300000D01*
X482000Y298500D02*
Y300000D01*
X444752Y304705D02*
Y305000D01*
X443874Y303827D02*
X444752Y304705D01*
X533753Y265089D02*
X534843Y264000D01*
D14*
X428000Y305996D02*
D03*
Y318004D02*
D03*
D15*
X445000Y292000D02*
D03*
X439000Y364000D02*
D03*
X437000Y311000D02*
D03*
X364000Y348000D02*
D03*
D16*
X347000Y324496D02*
D03*
Y318000D02*
D03*
X372000Y327000D02*
D03*
Y333496D02*
D03*
X347000Y333504D02*
D03*
Y340000D02*
D03*
D17*
X361248D02*
D03*
X354752D02*
D03*
X389504Y300504D02*
D03*
X396000D02*
D03*
X389752Y306000D02*
D03*
X396248D02*
D03*
X451248Y305000D02*
D03*
X444752D02*
D03*
X459752D02*
D03*
X466248D02*
D03*
X484248Y305000D02*
D03*
X477752D02*
D03*
D18*
X380000Y316000D02*
D03*
X372716D02*
D03*
X389358Y313000D02*
D03*
X396642D02*
D03*
X416000Y305000D02*
D03*
X408717D02*
D03*
X413717Y351000D02*
D03*
X421000D02*
D03*
D19*
X373063Y308000D02*
D03*
X380937D02*
D03*
D20*
X382000Y326716D02*
D03*
Y334000D02*
D03*
Y347284D02*
D03*
Y340000D02*
D03*
X390000Y349716D02*
D03*
Y357000D02*
D03*
D21*
X402000Y331000D02*
D03*
D22*
X413614Y319484D02*
D03*
Y322043D02*
D03*
Y324602D02*
D03*
Y327162D02*
D03*
Y329721D02*
D03*
Y332280D02*
D03*
Y334839D02*
D03*
Y337398D02*
D03*
Y339957D02*
D03*
Y342516D02*
D03*
X390386Y319484D02*
D03*
Y322043D02*
D03*
Y324602D02*
D03*
Y327162D02*
D03*
Y329721D02*
D03*
Y332280D02*
D03*
Y334839D02*
D03*
Y337398D02*
D03*
Y339957D02*
D03*
Y342516D02*
D03*
D23*
X431000Y335701D02*
D03*
Y348299D02*
D03*
D24*
X357000Y330500D02*
D03*
Y329000D02*
D03*
X359000Y330500D02*
D03*
Y329000D02*
D03*
X480000Y298500D02*
D03*
Y300000D02*
D03*
X482000Y298500D02*
D03*
Y300000D02*
D03*
D25*
X466000Y317299D02*
D03*
Y354701D02*
D03*
D26*
X427000Y318000D02*
X437000D01*
X423000D02*
X427000D01*
X437000Y311000D02*
Y318000D01*
X462701D01*
X413614Y337398D02*
Y339343D01*
Y335453D02*
Y337398D01*
X413648Y337365D01*
X421000D01*
Y351000D01*
X429350D01*
X431000Y349350D01*
X477752Y305000D02*
X477752Y305000D01*
X466248Y305000D02*
Y317051D01*
Y305000D02*
X477752D01*
X431000Y349185D02*
Y349350D01*
Y349185D02*
X432000Y350185D01*
X436630Y355701D02*
X439000D01*
X432000Y350185D02*
Y351071D01*
X439000Y355701D02*
Y364000D01*
X432000Y351071D02*
X436630Y355701D01*
X439000D02*
X463000D01*
D27*
X419000Y313000D02*
X421000Y311000D01*
X419000Y300000D02*
X421000Y302000D01*
X396504Y300000D02*
X419000D01*
X421000Y302000D02*
Y311000D01*
X396000Y300504D02*
X396504Y300000D01*
X384596Y338632D02*
X385830Y337398D01*
X383368Y338632D02*
X384596D01*
X385830Y337398D02*
X390386D01*
X418268Y322043D02*
X419000Y321311D01*
Y313000D02*
Y321311D01*
X422311Y318000D01*
X415693Y322043D02*
X418268D01*
D28*
X364000Y340000D02*
Y348000D01*
X484512Y384315D02*
Y404000D01*
Y384315D02*
X514000D01*
Y404000D01*
Y358150D02*
Y384315D01*
X500614Y305000D02*
X500614Y305000D01*
X484248Y305000D02*
X500614D01*
X345150Y340000D02*
X347000D01*
X330000Y355150D02*
X345150Y340000D01*
X371000Y341000D02*
Y382315D01*
Y341000D02*
X372000Y340000D01*
X364000D02*
X372000D01*
X524000Y283276D02*
Y348150D01*
X505315Y264000D02*
Y264591D01*
X524000Y283276D01*
X514000Y358150D02*
X524000Y348150D01*
X361000Y339752D02*
X361248Y340000D01*
X364000D01*
X347000D02*
X354752D01*
X372000D02*
X382000D01*
X340985Y381788D02*
X341512Y382315D01*
Y402000D01*
Y382315D02*
X371000D01*
Y402000D01*
X315512Y277685D02*
X316063Y278236D01*
Y301449D02*
X316614Y302000D01*
X315512Y258000D02*
Y277685D01*
X316063Y278236D02*
Y301449D01*
X378512Y257000D02*
Y276685D01*
X411512Y384000D02*
Y403685D01*
X345000Y258000D02*
Y277685D01*
X441000Y384000D02*
Y403685D01*
X408000Y257000D02*
Y276685D01*
X316614Y355150D02*
X330000D01*
X315512Y277685D02*
X345000D01*
X316614Y302000D02*
X330000D01*
X500614Y305000D02*
X514000D01*
X500614Y358150D02*
X514000D01*
X378512Y257000D02*
X408000D01*
D29*
X458157Y264000D02*
X458238D01*
X467920D02*
X468000D01*
X413614Y342516D02*
X413665Y342567D01*
Y350949D02*
X413717Y351000D01*
X413958Y350759D01*
X411744Y342516D02*
X413614D01*
D30*
X382000Y340000D02*
X383368Y338632D01*
X390386Y334839D02*
Y337398D01*
D31*
X484512Y404000D02*
D03*
X514000D02*
D03*
X484512Y384315D02*
D03*
X514000D02*
D03*
X341512Y402000D02*
D03*
X371000D02*
D03*
X341512Y382315D02*
D03*
X371000D02*
D03*
X345000Y258000D02*
D03*
X315512D02*
D03*
X345000Y277685D02*
D03*
X315512D02*
D03*
X411512Y403685D02*
D03*
X441000D02*
D03*
X411512Y384000D02*
D03*
X441000D02*
D03*
X408000Y257000D02*
D03*
X378512D02*
D03*
X408000Y276685D02*
D03*
X378512D02*
D03*
X316614Y355150D02*
D03*
X330000D02*
D03*
X316614Y302000D02*
D03*
X330000D02*
D03*
X500614Y305000D02*
D03*
X514000D02*
D03*
X500614Y358150D02*
D03*
X514000D02*
D03*
D32*
X468000Y264000D02*
D03*
X458157D02*
D03*
X448315D02*
D03*
X534843D02*
D03*
X525000D02*
D03*
X515158D02*
D03*
D33*
X438472D02*
D03*
X505315D02*
D03*
D34*
X533500Y401500D02*
D03*
X320000Y401000D02*
D03*
D35*
X368000Y266000D02*
D03*
X437000Y292000D02*
D03*
X525000Y380000D02*
D03*
X356000Y398000D02*
D03*
X499000Y399000D02*
D03*
X471000D02*
D03*
X385000D02*
D03*
X320277Y379047D02*
D03*
X312943Y342064D02*
D03*
X402000Y332000D02*
D03*
X342000Y303000D02*
D03*
X541500Y380000D02*
D03*
X532000Y361000D02*
D03*
X541500Y342000D02*
D03*
X532000Y323000D02*
D03*
X541500Y304000D02*
D03*
X532000Y247000D02*
D03*
X513000Y323000D02*
D03*
Y285000D02*
D03*
Y247000D02*
D03*
X503500Y342000D02*
D03*
X494000Y323000D02*
D03*
Y285000D02*
D03*
Y247000D02*
D03*
X484500Y342000D02*
D03*
Y266000D02*
D03*
X475000Y247000D02*
D03*
X456000Y399000D02*
D03*
X465500Y380000D02*
D03*
Y342000D02*
D03*
X456000Y285000D02*
D03*
Y247000D02*
D03*
X446500Y342000D02*
D03*
X437000Y323000D02*
D03*
Y247000D02*
D03*
X427500Y380000D02*
D03*
X418000Y361000D02*
D03*
Y247000D02*
D03*
X399000Y399000D02*
D03*
Y361000D02*
D03*
Y247000D02*
D03*
X389500Y380000D02*
D03*
X380000Y361000D02*
D03*
X389500Y266000D02*
D03*
X380000Y247000D02*
D03*
X361000Y361000D02*
D03*
Y285000D02*
D03*
Y247000D02*
D03*
X342000Y361000D02*
D03*
Y247000D02*
D03*
X332500Y342000D02*
D03*
X323000Y323000D02*
D03*
X332500Y266000D02*
D03*
X323000Y247000D02*
D03*
D36*
X367000Y308000D02*
D03*
X535000Y281000D02*
D03*
X459752Y292248D02*
D03*
D37*
X397669Y337496D02*
D03*
X406331Y324504D02*
D03*
X397669D02*
D03*
X406331Y337496D02*
D03*
M02*
