G04*
G04 #@! TF.GenerationSoftware,Altium Limited,Altium Designer,20.2.4 (192)*
G04*
G04 Layer_Color=65535*
%FSLAX25Y25*%
%MOIN*%
G70*
G04*
G04 #@! TF.SameCoordinates,756CFB18-765A-4B9C-930C-300B3FFF0BD5*
G04*
G04*
G04 #@! TF.FilePolarity,Positive*
G04*
G01*
G75*
%ADD10C,0.00984*%
%ADD11C,0.00787*%
%ADD12C,0.01000*%
%ADD13C,0.00800*%
G36*
X440842Y342787D02*
X438480Y340425D01*
X443205Y340425D01*
X440842Y342787D01*
D02*
G37*
D10*
X390878Y345567D02*
X390140Y345993D01*
Y345141D01*
X390878Y345567D01*
D11*
X424949Y309638D02*
Y314362D01*
X431051Y309638D02*
Y314362D01*
X478500Y378315D02*
Y423815D01*
Y378315D02*
X520000D01*
Y423815D01*
X478500D02*
X520000D01*
X348280Y320854D02*
Y321642D01*
X345720Y320854D02*
Y321642D01*
X357606Y338720D02*
X358394D01*
X357606Y341280D02*
X358394D01*
X376161Y313736D02*
X376555D01*
X376161Y318264D02*
X376555D01*
X370720Y329854D02*
Y330642D01*
X373280Y329854D02*
Y330642D01*
X376016Y310067D02*
X377984D01*
X376016Y305933D02*
X377984D01*
X379736Y330161D02*
Y330555D01*
X384264Y330161D02*
Y330555D01*
Y343445D02*
Y343839D01*
X379736Y343445D02*
Y343839D01*
X392358Y301784D02*
X393146D01*
X392358Y299224D02*
X393146D01*
X392606Y307280D02*
X393394D01*
X392606Y304720D02*
X393394D01*
X392803Y315264D02*
X393197D01*
X392803Y310736D02*
X393197D01*
X387736Y353161D02*
Y353555D01*
X392264Y353161D02*
Y353555D01*
X394717Y318008D02*
X409283D01*
X394717Y343992D02*
X409283D01*
X412161Y302736D02*
X412555D01*
X412161Y307264D02*
X412555D01*
X417161Y353264D02*
X417555D01*
X417161Y348736D02*
X417555D01*
X425291Y332551D02*
Y351449D01*
X436709Y332551D02*
Y351449D01*
X425291Y332551D02*
X426276D01*
X425291Y351449D02*
X426276D01*
X435724Y332551D02*
X436709D01*
X435724Y351449D02*
X436709D01*
X345720Y336358D02*
Y337146D01*
X348280Y336358D02*
Y337146D01*
X441787Y311787D02*
X454386D01*
X441787Y360213D02*
X454386D01*
X477614Y311787D02*
X490213D01*
X477614Y360213D02*
X490213D01*
X441787Y311787D02*
Y360213D01*
X490213Y311787D02*
Y360213D01*
X335500Y376315D02*
Y421815D01*
Y376315D02*
X377000D01*
Y421815D01*
X335500D02*
X377000D01*
X447606Y303720D02*
X448394D01*
X447606Y306280D02*
X448394D01*
X462606Y303720D02*
X463394D01*
X462606Y306280D02*
X463394D01*
X480606Y303720D02*
X481394D01*
X480606Y306280D02*
X481394D01*
X428472Y250500D02*
Y273500D01*
Y250500D02*
X477972D01*
Y273500D01*
X428472D02*
X477972D01*
X495315Y250500D02*
Y273500D01*
Y250500D02*
X544815D01*
Y273500D01*
X495315D02*
X544815D01*
X351012Y238185D02*
Y283685D01*
X309512D02*
X351012D01*
X309512Y238185D02*
Y283685D01*
Y238185D02*
X351012D01*
X405500Y378000D02*
Y423500D01*
Y378000D02*
X447000D01*
Y423500D01*
X405500D02*
X447000D01*
X414012Y237185D02*
Y282685D01*
X372512D02*
X414012D01*
X372512Y237185D02*
Y282685D01*
Y237185D02*
X414012D01*
D12*
X438874Y342787D02*
X442811D01*
X440843Y338063D02*
Y340425D01*
Y342787D02*
Y345150D01*
X478999Y375998D02*
X475000D01*
Y372999D01*
X476999Y373999D01*
X477999D01*
X478999Y372999D01*
Y371000D01*
X477999Y370000D01*
X476000D01*
X475000Y371000D01*
X480998Y375998D02*
Y371999D01*
X482997Y370000D01*
X484997Y371999D01*
Y375998D01*
X495993D02*
X493994D01*
X492994Y374998D01*
Y371000D01*
X493994Y370000D01*
X495993D01*
X496993Y371000D01*
Y374998D01*
X495993Y375998D01*
X498992D02*
Y371000D01*
X499992Y370000D01*
X501991D01*
X502991Y371000D01*
Y375998D01*
X504990D02*
X508989D01*
X506990D01*
Y370000D01*
X324999Y286000D02*
X321000D01*
X324999Y289999D01*
Y290998D01*
X323999Y291998D01*
X322000D01*
X321000Y290998D01*
X329997Y286000D02*
Y291998D01*
X326998Y288999D01*
X330997D01*
X332996Y291998D02*
Y287999D01*
X334996Y286000D01*
X336995Y287999D01*
Y291998D01*
X344992D02*
X346992D01*
X345992D01*
Y286000D01*
X344992D01*
X346992D01*
X349991D02*
Y291998D01*
X353989Y286000D01*
Y291998D01*
D13*
X442667Y288166D02*
X442084Y288749D01*
X440918D01*
X440335Y288166D01*
Y285834D01*
X440918Y285251D01*
X442084D01*
X442667Y285834D01*
Y287000D01*
X441501D01*
X443834Y285251D02*
Y288749D01*
X446166Y285251D01*
Y288749D01*
X447333D02*
Y285251D01*
X449082D01*
X449665Y285834D01*
Y288166D01*
X449082Y288749D01*
X447333D01*
X438417Y371166D02*
X437834Y371749D01*
X436667D01*
X436084Y371166D01*
Y370583D01*
X436667Y370000D01*
X437834D01*
X438417Y369417D01*
Y368834D01*
X437834Y368251D01*
X436667D01*
X436084Y368834D01*
X439583Y371749D02*
Y368251D01*
X440749Y369417D01*
X441916Y368251D01*
Y371749D01*
X436417Y305749D02*
X434084D01*
Y304000D01*
X435251Y304583D01*
X435834D01*
X436417Y304000D01*
Y302834D01*
X435834Y302251D01*
X434667D01*
X434084Y302834D01*
X437583Y305749D02*
Y303417D01*
X438749Y302251D01*
X439916Y303417D01*
Y305749D01*
X358667Y353251D02*
X356335D01*
X358667Y355583D01*
Y356166D01*
X358084Y356749D01*
X356918D01*
X356335Y356166D01*
X361583Y353251D02*
Y356749D01*
X359834Y355000D01*
X362166D01*
X363333Y356749D02*
Y354417D01*
X364499Y353251D01*
X365665Y354417D01*
Y356749D01*
X385084Y246251D02*
Y249749D01*
X386834D01*
X387417Y249166D01*
Y248000D01*
X386834Y247417D01*
X385084D01*
X388583Y249166D02*
X389166Y249749D01*
X390333D01*
X390916Y249166D01*
Y248583D01*
X390333Y248000D01*
X390916Y247417D01*
Y246834D01*
X390333Y246251D01*
X389166D01*
X388583Y246834D01*
Y247417D01*
X389166Y248000D01*
X388583Y248583D01*
Y249166D01*
X389166Y248000D02*
X390333D01*
X338084Y409565D02*
Y413064D01*
X339834D01*
X340417Y412481D01*
Y411315D01*
X339834Y410732D01*
X338084D01*
X343916Y413064D02*
X342749Y412481D01*
X341583Y411315D01*
Y410149D01*
X342166Y409565D01*
X343333D01*
X343916Y410149D01*
Y410732D01*
X343333Y411315D01*
X341583D01*
X408084Y410251D02*
Y413749D01*
X409834D01*
X410417Y413166D01*
Y412000D01*
X409834Y411417D01*
X408084D01*
X413916Y413749D02*
X411583D01*
Y412000D01*
X412749Y412583D01*
X413333D01*
X413916Y412000D01*
Y410834D01*
X413333Y410251D01*
X412166D01*
X411583Y410834D01*
X427417Y325166D02*
X426834Y325749D01*
X425667D01*
X425084Y325166D01*
Y322834D01*
X425667Y322251D01*
X426834D01*
X427417Y322834D01*
X430916Y325749D02*
X429749Y325166D01*
X428583Y324000D01*
Y322834D01*
X429166Y322251D01*
X430333D01*
X430916Y322834D01*
Y323417D01*
X430333Y324000D01*
X428583D01*
X403667Y350749D02*
Y347834D01*
X404251Y347251D01*
X405417D01*
X406000Y347834D01*
Y350749D01*
X407166Y347251D02*
X408333D01*
X407749D01*
Y350749D01*
X407166Y350166D01*
X443626Y297251D02*
Y300749D01*
X445376D01*
X445959Y300166D01*
Y299000D01*
X445376Y298417D01*
X443626D01*
X444793D02*
X445959Y297251D01*
X447125D02*
X448292D01*
X447708D01*
Y300749D01*
X447125Y300166D01*
X450041D02*
X450624Y300749D01*
X451790D01*
X452374Y300166D01*
Y297834D01*
X451790Y297251D01*
X450624D01*
X450041Y297834D01*
Y300166D01*
X462084Y297251D02*
Y300749D01*
X463834D01*
X464417Y300166D01*
Y299000D01*
X463834Y298417D01*
X462084D01*
X463251D02*
X464417Y297251D01*
X465583Y297834D02*
X466166Y297251D01*
X467333D01*
X467916Y297834D01*
Y300166D01*
X467333Y300749D01*
X466166D01*
X465583Y300166D01*
Y299583D01*
X466166Y299000D01*
X467916D01*
X337084Y316251D02*
Y319749D01*
X338834D01*
X339417Y319166D01*
Y318000D01*
X338834Y317417D01*
X337084D01*
X338251D02*
X339417Y316251D01*
X340583Y319166D02*
X341166Y319749D01*
X342333D01*
X342916Y319166D01*
Y318583D01*
X342333Y318000D01*
X342916Y317417D01*
Y316834D01*
X342333Y316251D01*
X341166D01*
X340583Y316834D01*
Y317417D01*
X341166Y318000D01*
X340583Y318583D01*
Y319166D01*
X341166Y318000D02*
X342333D01*
X337084Y332251D02*
Y335749D01*
X338834D01*
X339417Y335166D01*
Y334000D01*
X338834Y333417D01*
X337084D01*
X338251D02*
X339417Y332251D01*
X340583Y335749D02*
X342916D01*
Y335166D01*
X340583Y332834D01*
Y332251D01*
X363084Y328251D02*
Y331749D01*
X364834D01*
X365417Y331166D01*
Y330000D01*
X364834Y329417D01*
X363084D01*
X364251D02*
X365417Y328251D01*
X368916Y331749D02*
X367749Y331166D01*
X366583Y330000D01*
Y328834D01*
X367166Y328251D01*
X368333D01*
X368916Y328834D01*
Y329417D01*
X368333Y330000D01*
X366583D01*
X373084Y300251D02*
Y303749D01*
X374834D01*
X375417Y303166D01*
Y302000D01*
X374834Y301417D01*
X373084D01*
X374251D02*
X375417Y300251D01*
X378916Y303749D02*
X376583D01*
Y302000D01*
X377749Y302583D01*
X378333D01*
X378916Y302000D01*
Y300834D01*
X378333Y300251D01*
X377166D01*
X376583Y300834D01*
X399084Y298251D02*
Y301749D01*
X400834D01*
X401417Y301166D01*
Y300000D01*
X400834Y299417D01*
X399084D01*
X400251D02*
X401417Y298251D01*
X404333D02*
Y301749D01*
X402583Y300000D01*
X404916D01*
X399084Y304251D02*
Y307749D01*
X400834D01*
X401417Y307166D01*
Y306000D01*
X400834Y305417D01*
X399084D01*
X400251D02*
X401417Y304251D01*
X402583Y307166D02*
X403166Y307749D01*
X404333D01*
X404916Y307166D01*
Y306583D01*
X404333Y306000D01*
X403749D01*
X404333D01*
X404916Y305417D01*
Y304834D01*
X404333Y304251D01*
X403166D01*
X402583Y304834D01*
X487084Y297251D02*
Y300749D01*
X488834D01*
X489417Y300166D01*
Y299000D01*
X488834Y298417D01*
X487084D01*
X488251D02*
X489417Y297251D01*
X492916D02*
X490583D01*
X492916Y299583D01*
Y300166D01*
X492333Y300749D01*
X491166D01*
X490583Y300166D01*
X354667Y345251D02*
Y348749D01*
X356417D01*
X357000Y348166D01*
Y347000D01*
X356417Y346417D01*
X354667D01*
X355834D02*
X357000Y345251D01*
X358166D02*
X359333D01*
X358749D01*
Y348749D01*
X358166Y348166D01*
X480596Y410251D02*
Y413749D01*
X482345D01*
X482929Y413166D01*
Y412000D01*
X482345Y411417D01*
X480596D01*
X485844Y410251D02*
Y413749D01*
X484095Y412000D01*
X486427D01*
X312084Y245251D02*
Y248749D01*
X313834D01*
X314417Y248166D01*
Y247000D01*
X313834Y246417D01*
X312084D01*
X315583Y248166D02*
X316166Y248749D01*
X317333D01*
X317916Y248166D01*
Y247583D01*
X317333Y247000D01*
X316749D01*
X317333D01*
X317916Y246417D01*
Y245834D01*
X317333Y245251D01*
X316166D01*
X315583Y245834D01*
X498084Y244251D02*
Y247749D01*
X499834D01*
X500417Y247166D01*
Y246000D01*
X499834Y245417D01*
X498084D01*
X503916Y244251D02*
X501583D01*
X503916Y246583D01*
Y247166D01*
X503333Y247749D01*
X502166D01*
X501583Y247166D01*
X428667Y244251D02*
Y247749D01*
X430417D01*
X431000Y247166D01*
Y246000D01*
X430417Y245417D01*
X428667D01*
X432166Y244251D02*
X433333D01*
X432749D01*
Y247749D01*
X432166Y247166D01*
X484667Y365749D02*
Y362251D01*
X487000D01*
X488166D02*
X489333D01*
X488749D01*
Y365749D01*
X488166Y365166D01*
X524417Y361749D02*
X522084D01*
Y360000D01*
X523251D01*
X522084D01*
Y358251D01*
X527916D02*
X525583D01*
X527916Y360583D01*
Y361166D01*
X527333Y361749D01*
X526166D01*
X525583Y361166D01*
X314500Y373249D02*
X312168D01*
Y371500D01*
X313334D01*
X312168D01*
Y369751D01*
X315666D02*
X316833D01*
X316249D01*
Y373249D01*
X315666Y372666D01*
X428667Y360049D02*
Y356550D01*
X430417D01*
X431000Y357133D01*
Y359466D01*
X430417Y360049D01*
X428667D01*
X432166Y356550D02*
X433333D01*
X432749D01*
Y360049D01*
X432166Y359466D01*
X365417Y317166D02*
X364834Y317749D01*
X363667D01*
X363084Y317166D01*
Y314834D01*
X363667Y314251D01*
X364834D01*
X365417Y314834D01*
X366583Y317166D02*
X367166Y317749D01*
X368333D01*
X368916Y317166D01*
Y316583D01*
X368333Y316000D01*
X368916Y315417D01*
Y314834D01*
X368333Y314251D01*
X367166D01*
X366583Y314834D01*
Y315417D01*
X367166Y316000D01*
X366583Y316583D01*
Y317166D01*
X367166Y316000D02*
X368333D01*
X381417Y323166D02*
X380834Y323749D01*
X379667D01*
X379084Y323166D01*
Y320834D01*
X379667Y320251D01*
X380834D01*
X381417Y320834D01*
X382583Y323749D02*
X384916D01*
Y323166D01*
X382583Y320834D01*
Y320251D01*
X402417Y313166D02*
X401834Y313749D01*
X400667D01*
X400084Y313166D01*
Y310834D01*
X400667Y310251D01*
X401834D01*
X402417Y310834D01*
X405916Y313749D02*
X403583D01*
Y312000D01*
X404749Y312583D01*
X405333D01*
X405916Y312000D01*
Y310834D01*
X405333Y310251D01*
X404166D01*
X403583Y310834D01*
X389417Y364166D02*
X388834Y364749D01*
X387667D01*
X387084Y364166D01*
Y361834D01*
X387667Y361251D01*
X388834D01*
X389417Y361834D01*
X392333Y361251D02*
Y364749D01*
X390583Y363000D01*
X392916D01*
X411417Y313166D02*
X410834Y313749D01*
X409667D01*
X409084Y313166D01*
Y310834D01*
X409667Y310251D01*
X410834D01*
X411417Y310834D01*
X412583Y313166D02*
X413166Y313749D01*
X414333D01*
X414916Y313166D01*
Y312583D01*
X414333Y312000D01*
X413749D01*
X414333D01*
X414916Y311417D01*
Y310834D01*
X414333Y310251D01*
X413166D01*
X412583Y310834D01*
X381417Y355166D02*
X380834Y355749D01*
X379667D01*
X379084Y355166D01*
Y352834D01*
X379667Y352251D01*
X380834D01*
X381417Y352834D01*
X384916Y352251D02*
X382583D01*
X384916Y354583D01*
Y355166D01*
X384333Y355749D01*
X383166D01*
X382583Y355166D01*
X414000Y359166D02*
X413417Y359749D01*
X412251D01*
X411667Y359166D01*
Y356834D01*
X412251Y356251D01*
X413417D01*
X414000Y356834D01*
X415166Y356251D02*
X416333D01*
X415749D01*
Y359749D01*
X415166Y359166D01*
M02*
