M48
;Layer_Color=9474304
;FILE_FORMAT=2:4
INCH,TZ
;TYPE=PLATED
T1F00S00C0.0079
T2F00S00C0.0236
T3F00S00C0.0280
T4F00S00C0.0394
T5F00S00C0.0630
T6F00S00C0.0728
T7F00S00C0.1181
%
T01
X39767Y32450
X40633
Y33750
X39767
T02
X47500Y24700
X49400
X51300
X53200
X51300Y28500
X49400
X48450Y26600
X54150Y30400
X45600Y28500
X43700Y29200
Y24700
X45600
X41800
X39900
X38000
X36100
X34200
X32300
X33250Y26600
X36800
X38950
X36100Y28500
X34200Y30300
X32300Y32300
X33250Y34200
X31294Y34206
X32028Y37905
X34200Y36100
X36100
X38000
X39900
X41800
X42750Y38000
X46550
X45600Y39900
X39900
X38500
X38950Y38000
X35600Y39800
X40200Y33200
X43700Y32300
X44650Y34200
X46550
X48450
X50350
X51300Y32300
X53200
X54150Y34200
X53200Y36100
X52500Y38000
X54150
X49900Y39900
X47100
X49400Y32300
T03
X53500Y28100
X45975Y29225
X36700Y30800
T04
X50532Y26400
X51516
X52500
X53484
X46800
X45816
X44832
X43847
T05
X50061Y30500
X51400
X33000Y30200
X31661
Y35515
X33000
X50061Y35815
X51400
T06
X31551Y25800
Y27768
X34500
Y25800
X37851Y25700
Y27668
X40800
Y25700
X41151Y38400
Y40368
X44100
Y38400
X37100Y38231
Y40200
X34151
Y38231
X48451Y38431
Y40400
X51400
Y38431
T07
X32000Y40100
X53350Y40150
M30
