G04*
G04 #@! TF.GenerationSoftware,Altium Limited,Altium Designer,20.2.3 (150)*
G04*
G04 Layer_Color=65535*
%FSLAX25Y25*%
%MOIN*%
G70*
G04*
G04 #@! TF.SameCoordinates,FEE7AC8F-F901-45B1-A19B-458FA38B073B*
G04*
G04*
G04 #@! TF.FilePolarity,Positive*
G04*
G01*
G75*
%ADD10C,0.00984*%
%ADD11C,0.01575*%
%ADD12C,0.00600*%
%ADD13C,0.00787*%
%ADD14C,0.01000*%
%ADD15C,0.00800*%
G36*
X318952Y345236D02*
X319015D01*
Y345174D01*
X319077D01*
Y345111D01*
X319140D01*
Y345048D01*
X319203D01*
Y344986D01*
X319266D01*
Y344923D01*
Y344860D01*
X319328D01*
Y344797D01*
Y344735D01*
X319391D01*
Y344672D01*
Y344609D01*
Y344547D01*
Y344484D01*
X319454D01*
Y344421D01*
Y344358D01*
Y344296D01*
X319516D01*
Y344233D01*
Y344170D01*
Y344107D01*
Y344045D01*
Y343982D01*
Y343919D01*
X319579D01*
Y343857D01*
Y343794D01*
Y343731D01*
Y343668D01*
Y343606D01*
Y343543D01*
Y343480D01*
Y343417D01*
X319516D01*
Y343355D01*
Y343292D01*
Y343229D01*
Y343166D01*
Y343104D01*
Y343041D01*
Y342978D01*
Y342916D01*
Y342853D01*
X319454D01*
Y342790D01*
Y342727D01*
Y342665D01*
Y342602D01*
X319391D01*
Y342539D01*
Y342477D01*
Y342414D01*
Y342351D01*
Y342288D01*
Y342226D01*
Y342163D01*
Y342100D01*
Y342037D01*
X319328D01*
Y341975D01*
Y341912D01*
Y341849D01*
Y341787D01*
X319266D01*
Y341724D01*
Y341661D01*
Y341598D01*
Y341536D01*
X319203D01*
Y341473D01*
X319266D01*
Y341410D01*
X319203D01*
Y341347D01*
Y341285D01*
Y341222D01*
Y341159D01*
X319140D01*
Y341096D01*
Y341034D01*
X319077D01*
Y340971D01*
Y340908D01*
Y340846D01*
Y340783D01*
Y340720D01*
Y340657D01*
X319015D01*
Y340595D01*
Y340532D01*
Y340469D01*
X318952D01*
Y340406D01*
Y340344D01*
Y340281D01*
X318889D01*
Y340218D01*
Y340156D01*
X318952D01*
Y340093D01*
X318889D01*
Y340030D01*
Y339967D01*
X318826D01*
Y339905D01*
Y339842D01*
Y339779D01*
X318764D01*
Y339717D01*
Y339654D01*
Y339591D01*
Y339528D01*
Y339466D01*
Y339403D01*
X318701D01*
Y339340D01*
Y339277D01*
Y339215D01*
X318638D01*
Y339152D01*
Y339089D01*
Y339026D01*
X318576D01*
Y338964D01*
Y338901D01*
Y338838D01*
Y338776D01*
Y338713D01*
Y338650D01*
X318513D01*
Y338587D01*
Y338525D01*
X318450D01*
Y338462D01*
Y338399D01*
Y338336D01*
Y338274D01*
Y338211D01*
Y338148D01*
Y338086D01*
X318387D01*
Y338023D01*
Y337960D01*
Y337897D01*
X318325D01*
Y337835D01*
Y337772D01*
Y337709D01*
X318262D01*
Y337647D01*
Y337584D01*
Y337521D01*
Y337458D01*
Y337396D01*
Y337333D01*
Y337270D01*
Y337207D01*
X318199D01*
Y337145D01*
Y337082D01*
Y337019D01*
Y336957D01*
Y336894D01*
X318136D01*
Y336831D01*
Y336768D01*
Y336706D01*
Y336643D01*
Y336580D01*
Y336517D01*
Y336455D01*
X318074D01*
Y336392D01*
Y336329D01*
Y336266D01*
Y336204D01*
Y336141D01*
Y336078D01*
Y336016D01*
Y335953D01*
Y335890D01*
Y335827D01*
X318136D01*
Y335765D01*
Y335702D01*
Y335639D01*
X318576D01*
Y335577D01*
X318764D01*
Y335514D01*
X318952D01*
Y335451D01*
X319266D01*
Y335388D01*
X319454D01*
Y335451D01*
X319516D01*
Y335514D01*
Y335577D01*
Y335639D01*
Y335702D01*
Y335765D01*
X319579D01*
Y335827D01*
Y335890D01*
X319642D01*
Y335953D01*
Y336016D01*
Y336078D01*
X319705D01*
Y336141D01*
Y336204D01*
X319642D01*
Y336266D01*
X319705D01*
Y336329D01*
Y336392D01*
X319767D01*
Y336455D01*
Y336517D01*
Y336580D01*
X319830D01*
Y336643D01*
Y336706D01*
Y336768D01*
Y336831D01*
Y336894D01*
X319893D01*
Y336957D01*
Y337019D01*
Y337082D01*
X319955D01*
Y337145D01*
Y337207D01*
Y337270D01*
X320018D01*
Y337333D01*
X319955D01*
Y337396D01*
X320018D01*
Y337458D01*
Y337521D01*
Y337584D01*
X320081D01*
Y337647D01*
Y337709D01*
Y337772D01*
X320144D01*
Y337835D01*
Y337897D01*
Y337960D01*
Y338023D01*
Y338086D01*
X320206D01*
Y338148D01*
Y338211D01*
X320269D01*
Y338274D01*
Y338336D01*
Y338399D01*
X320332D01*
Y338462D01*
Y338525D01*
Y338587D01*
Y338650D01*
Y338713D01*
X320395D01*
Y338776D01*
Y338838D01*
Y338901D01*
X320457D01*
Y338964D01*
Y339026D01*
Y339089D01*
Y339152D01*
Y339215D01*
X320520D01*
Y339277D01*
Y339340D01*
Y339403D01*
X320583D01*
Y339466D01*
Y339528D01*
Y339591D01*
X320645D01*
Y339654D01*
Y339717D01*
Y339779D01*
Y339842D01*
Y339905D01*
X320708D01*
Y339967D01*
Y340030D01*
Y340093D01*
X320771D01*
Y340156D01*
Y340218D01*
Y340281D01*
X320834D01*
Y340344D01*
Y340406D01*
X320771D01*
Y340469D01*
X320834D01*
Y340532D01*
Y340595D01*
Y340657D01*
X320896D01*
Y340720D01*
Y340783D01*
Y340846D01*
X320959D01*
Y340908D01*
Y340971D01*
Y341034D01*
Y341096D01*
Y341159D01*
X321022D01*
Y341222D01*
Y341285D01*
Y341347D01*
X321085D01*
Y341410D01*
Y341473D01*
Y341536D01*
X321147D01*
Y341598D01*
Y341661D01*
Y341724D01*
Y341787D01*
Y341849D01*
X321210D01*
Y341912D01*
Y341975D01*
Y342037D01*
X321273D01*
Y342100D01*
Y342163D01*
Y342226D01*
Y342288D01*
Y342351D01*
X321336D01*
Y342414D01*
Y342477D01*
Y342539D01*
X321398D01*
Y342602D01*
Y342665D01*
Y342727D01*
X321461D01*
Y342790D01*
Y342853D01*
Y342916D01*
Y342978D01*
X321524D01*
Y343041D01*
X321649D01*
Y343104D01*
X321900D01*
Y343166D01*
X322025D01*
Y343229D01*
X322151D01*
Y343292D01*
X322402D01*
Y343355D01*
X322527D01*
Y343417D01*
X322715D01*
Y343480D01*
X322966D01*
Y343543D01*
X323092D01*
Y343606D01*
X323406D01*
Y343668D01*
X323531D01*
Y343731D01*
X323719D01*
Y343794D01*
X323970D01*
Y343857D01*
X324158D01*
Y343919D01*
X324409D01*
Y343982D01*
X324597D01*
Y344045D01*
X324785D01*
Y344107D01*
X325099D01*
Y344170D01*
X325225D01*
Y344233D01*
X325538D01*
Y344170D01*
X325726D01*
Y344107D01*
X325915D01*
Y344045D01*
X326040D01*
Y343982D01*
X326166D01*
Y343919D01*
X326291D01*
Y343857D01*
X326354D01*
Y343794D01*
X326416D01*
Y343731D01*
X326479D01*
Y343668D01*
Y343606D01*
X326542D01*
Y343543D01*
Y343480D01*
Y343417D01*
Y343355D01*
X326605D01*
Y343292D01*
Y343229D01*
X326542D01*
Y343166D01*
Y343104D01*
X326605D01*
Y343041D01*
X326542D01*
Y342978D01*
Y342916D01*
Y342853D01*
X326479D01*
Y342790D01*
Y342727D01*
Y342665D01*
X326416D01*
Y342602D01*
Y342539D01*
Y342477D01*
Y342414D01*
Y342351D01*
Y342288D01*
X326354D01*
Y342226D01*
Y342163D01*
Y342100D01*
X326291D01*
Y342037D01*
Y341975D01*
Y341912D01*
X326228D01*
Y341849D01*
Y341787D01*
Y341724D01*
Y341661D01*
Y341598D01*
Y341536D01*
Y341473D01*
X326166D01*
Y341410D01*
Y341347D01*
Y341285D01*
X326103D01*
Y341222D01*
Y341159D01*
Y341096D01*
Y341034D01*
Y340971D01*
Y340908D01*
X326040D01*
Y340846D01*
Y340783D01*
Y340720D01*
X325977D01*
Y340657D01*
Y340595D01*
Y340532D01*
X325915D01*
Y340469D01*
Y340406D01*
Y340344D01*
Y340281D01*
Y340218D01*
Y340156D01*
X325852D01*
Y340093D01*
Y340030D01*
Y339967D01*
X325789D01*
Y339905D01*
Y339842D01*
Y339779D01*
X325726D01*
Y339717D01*
Y339654D01*
X325789D01*
Y339591D01*
X325726D01*
Y339528D01*
Y339466D01*
X325664D01*
Y339403D01*
Y339340D01*
Y339277D01*
Y339215D01*
X325601D01*
Y339152D01*
Y339089D01*
Y339026D01*
Y338964D01*
Y338901D01*
Y338838D01*
X325538D01*
Y338776D01*
Y338713D01*
Y338650D01*
X325476D01*
Y338587D01*
Y338525D01*
X325413D01*
Y338462D01*
Y338399D01*
Y338336D01*
Y338274D01*
Y338211D01*
Y338148D01*
X325350D01*
Y338086D01*
Y338023D01*
Y337960D01*
X325287D01*
Y337897D01*
Y337835D01*
Y337772D01*
Y337709D01*
Y337647D01*
Y337584D01*
X325225D01*
Y337521D01*
Y337458D01*
Y337396D01*
X325162D01*
Y337333D01*
Y337270D01*
Y337207D01*
X325099D01*
Y337145D01*
Y337082D01*
Y337019D01*
Y336957D01*
Y336894D01*
X325036D01*
Y336831D01*
Y336768D01*
Y336706D01*
X324974D01*
Y336643D01*
Y336580D01*
Y336517D01*
X324911D01*
Y336455D01*
Y336392D01*
X324974D01*
Y336329D01*
X324911D01*
Y336266D01*
Y336204D01*
Y336141D01*
X324848D01*
Y336078D01*
Y336016D01*
Y335953D01*
X324785D01*
Y335890D01*
Y335827D01*
Y335765D01*
Y335702D01*
Y335639D01*
Y335577D01*
X324723D01*
Y335514D01*
Y335451D01*
Y335388D01*
X324660D01*
Y335326D01*
Y335263D01*
Y335200D01*
X324597D01*
Y335137D01*
Y335075D01*
Y335012D01*
Y334949D01*
Y334887D01*
X324535D01*
Y334824D01*
Y334761D01*
Y334698D01*
Y334636D01*
X324472D01*
Y334573D01*
Y334510D01*
Y334447D01*
Y334385D01*
Y334322D01*
Y334259D01*
X324409D01*
Y334196D01*
Y334134D01*
X324346D01*
Y334071D01*
Y334008D01*
Y333946D01*
X324284D01*
Y333883D01*
Y333820D01*
Y333757D01*
Y333695D01*
Y333632D01*
Y333569D01*
X324221D01*
Y333506D01*
Y333444D01*
Y333381D01*
X324158D01*
Y333318D01*
Y333256D01*
Y333193D01*
X324096D01*
Y333130D01*
Y333067D01*
X324158D01*
Y333005D01*
X324096D01*
Y332942D01*
Y332879D01*
Y332817D01*
X324033D01*
Y332754D01*
Y332691D01*
X324096D01*
Y332628D01*
X324158D01*
Y332565D01*
Y332503D01*
X324221D01*
Y332440D01*
Y332377D01*
X324284D01*
Y332315D01*
Y332252D01*
X324346D01*
Y332189D01*
Y332126D01*
X324409D01*
Y332064D01*
Y332001D01*
X324472D01*
Y331938D01*
Y331875D01*
Y331813D01*
X324535D01*
Y331750D01*
X324597D01*
Y331687D01*
Y331625D01*
Y331562D01*
Y331499D01*
X324660D01*
Y331436D01*
Y331374D01*
X324723D01*
Y331311D01*
Y331248D01*
X324785D01*
Y331186D01*
Y331123D01*
Y331060D01*
Y330997D01*
X324848D01*
Y330935D01*
Y330872D01*
X324911D01*
Y330809D01*
Y330747D01*
X324974D01*
Y330684D01*
X324911D01*
Y330621D01*
X324974D01*
Y330558D01*
Y330496D01*
Y330433D01*
X325036D01*
Y330370D01*
Y330307D01*
Y330245D01*
X325099D01*
Y330182D01*
Y330119D01*
Y330056D01*
Y329994D01*
Y329931D01*
X325162D01*
Y329868D01*
Y329805D01*
Y329743D01*
X325225D01*
Y329680D01*
Y329617D01*
X325287D01*
Y329555D01*
Y329492D01*
Y329429D01*
Y329366D01*
Y329304D01*
Y329241D01*
X325350D01*
Y329178D01*
Y329116D01*
Y329053D01*
X325413D01*
Y328990D01*
Y328927D01*
Y328865D01*
Y328802D01*
Y328739D01*
X325476D01*
Y328676D01*
Y328614D01*
Y328551D01*
X325538D01*
Y328488D01*
Y328426D01*
X325601D01*
Y328363D01*
Y328300D01*
Y328237D01*
Y328175D01*
Y328112D01*
Y328049D01*
X325664D01*
Y327986D01*
Y327924D01*
Y327861D01*
X325726D01*
Y327798D01*
Y327735D01*
Y327673D01*
Y327610D01*
Y327547D01*
Y327485D01*
Y327422D01*
X325789D01*
Y327359D01*
Y327296D01*
Y327234D01*
X325852D01*
Y327171D01*
Y327108D01*
Y327045D01*
Y326983D01*
Y326920D01*
X325915D01*
Y326857D01*
Y326795D01*
Y326732D01*
Y326669D01*
Y326606D01*
Y326544D01*
Y326481D01*
Y326418D01*
Y326356D01*
Y326293D01*
Y326230D01*
Y326167D01*
X325977D01*
Y326105D01*
Y326042D01*
Y325979D01*
Y325916D01*
Y325854D01*
Y325791D01*
Y325728D01*
Y325665D01*
Y325603D01*
Y325540D01*
X326040D01*
Y325477D01*
Y325415D01*
Y325352D01*
Y325289D01*
Y325226D01*
Y325164D01*
Y325101D01*
Y325038D01*
Y324975D01*
Y324913D01*
Y324850D01*
Y324787D01*
Y324725D01*
Y324662D01*
Y324599D01*
Y324536D01*
Y324474D01*
Y324411D01*
Y324348D01*
X325977D01*
Y324286D01*
Y324223D01*
Y324160D01*
Y324097D01*
Y324035D01*
Y323972D01*
Y323909D01*
Y323846D01*
Y323784D01*
Y323721D01*
X325915D01*
Y323658D01*
Y323595D01*
Y323533D01*
Y323470D01*
Y323407D01*
Y323345D01*
Y323282D01*
Y323219D01*
Y323156D01*
Y323094D01*
Y323031D01*
Y322968D01*
X325852D01*
Y322905D01*
Y322843D01*
Y322780D01*
Y322717D01*
X325789D01*
Y322655D01*
Y322592D01*
Y322529D01*
Y322466D01*
Y322404D01*
X325726D01*
Y322341D01*
Y322278D01*
Y322216D01*
Y322153D01*
Y322090D01*
Y322027D01*
Y321965D01*
X325664D01*
Y321902D01*
Y321839D01*
Y321776D01*
Y321714D01*
X325601D01*
Y321651D01*
Y321588D01*
Y321526D01*
Y321463D01*
Y321400D01*
X325538D01*
Y321337D01*
Y321275D01*
X325476D01*
Y321212D01*
Y321149D01*
Y321086D01*
X325413D01*
Y321024D01*
Y320961D01*
Y320898D01*
Y320835D01*
Y320773D01*
X325350D01*
Y320710D01*
Y320647D01*
X325413D01*
Y320585D01*
X325476D01*
Y320522D01*
X325601D01*
Y320459D01*
X325664D01*
Y320396D01*
X325726D01*
Y320334D01*
X325789D01*
Y320271D01*
X325852D01*
Y320208D01*
X325977D01*
Y320146D01*
X326040D01*
Y320083D01*
X326166D01*
Y320020D01*
X326228D01*
Y319957D01*
X326291D01*
Y319895D01*
X326354D01*
Y319832D01*
X326479D01*
Y319769D01*
X326605D01*
Y319706D01*
X326667D01*
Y319644D01*
X326793D01*
Y319581D01*
X326855D01*
Y319518D01*
X326981D01*
Y319456D01*
X327106D01*
Y319393D01*
X327169D01*
Y319330D01*
X327295D01*
Y319267D01*
X327420D01*
Y319205D01*
X327545D01*
Y319142D01*
X327608D01*
Y319079D01*
X327734D01*
Y319016D01*
X327859D01*
Y318954D01*
X327985D01*
Y318891D01*
X328110D01*
Y318828D01*
X328236D01*
Y318765D01*
X328298D01*
Y318703D01*
X328361D01*
Y318640D01*
X328424D01*
Y318577D01*
X328549D01*
Y318515D01*
Y318452D01*
X328612D01*
Y318389D01*
X328675D01*
Y318326D01*
X328737D01*
Y318264D01*
X328800D01*
Y318201D01*
X328863D01*
Y318138D01*
X328925D01*
Y318075D01*
X328988D01*
Y318013D01*
X329051D01*
Y317950D01*
X329114D01*
Y317887D01*
X329176D01*
Y317825D01*
Y317762D01*
X329239D01*
Y317699D01*
Y317636D01*
X329302D01*
Y317574D01*
X329365D01*
Y317511D01*
Y317448D01*
X329490D01*
Y317386D01*
Y317323D01*
Y317260D01*
X329553D01*
Y317197D01*
X329615D01*
Y317135D01*
Y317072D01*
X329678D01*
Y317009D01*
X329741D01*
Y316946D01*
Y316884D01*
X329804D01*
Y316821D01*
Y316758D01*
X329867D01*
Y316695D01*
Y316633D01*
X329929D01*
Y316570D01*
X329992D01*
Y316507D01*
Y316444D01*
Y316382D01*
X330055D01*
Y316319D01*
Y316256D01*
X330117D01*
Y316194D01*
X330180D01*
Y316131D01*
Y316068D01*
Y316005D01*
X330243D01*
Y315943D01*
X330306D01*
Y315880D01*
Y315817D01*
Y315755D01*
X330368D01*
Y315692D01*
Y315629D01*
X330431D01*
Y315566D01*
X330494D01*
Y315504D01*
Y315441D01*
Y315378D01*
X330557D01*
Y315316D01*
Y315253D01*
X330619D01*
Y315190D01*
Y315127D01*
X330682D01*
Y315065D01*
Y315002D01*
Y314939D01*
X330745D01*
Y314876D01*
X330807D01*
Y314814D01*
Y314751D01*
Y314688D01*
X330870D01*
Y314626D01*
X330933D01*
Y314563D01*
Y314500D01*
X330995D01*
Y314437D01*
X330933D01*
Y314374D01*
X330995D01*
Y314312D01*
X331058D01*
Y314249D01*
Y314186D01*
X331121D01*
Y314124D01*
Y314061D01*
Y313998D01*
X331184D01*
Y313935D01*
Y313873D01*
X331246D01*
Y313810D01*
X331309D01*
Y313747D01*
Y313685D01*
Y313622D01*
X331372D01*
Y313559D01*
Y313496D01*
X331435D01*
Y313434D01*
Y313371D01*
X331497D01*
Y313308D01*
Y313245D01*
Y313183D01*
X331560D01*
Y313120D01*
X331623D01*
Y313057D01*
Y312995D01*
Y312932D01*
Y312869D01*
X331686D01*
Y312806D01*
X331748D01*
Y312744D01*
Y312681D01*
X331811D01*
Y312618D01*
X331748D01*
Y312556D01*
X331811D01*
Y312493D01*
X331874D01*
Y312430D01*
Y312367D01*
X331937D01*
Y312304D01*
Y312242D01*
Y312179D01*
X331999D01*
Y312116D01*
Y312054D01*
Y311991D01*
X332062D01*
Y311928D01*
X332125D01*
Y311865D01*
Y311803D01*
Y311740D01*
Y311677D01*
X332187D01*
Y311614D01*
X332250D01*
Y311552D01*
Y311489D01*
Y311426D01*
Y311364D01*
X332313D01*
Y311301D01*
Y311238D01*
X332376D01*
Y311175D01*
Y311113D01*
X332438D01*
Y311050D01*
Y310987D01*
Y310925D01*
Y310862D01*
X332501D01*
Y310799D01*
Y310736D01*
X332564D01*
Y310674D01*
Y310611D01*
X332627D01*
Y310548D01*
X332564D01*
Y310485D01*
X332627D01*
Y310423D01*
Y310360D01*
Y310297D01*
X332689D01*
Y310234D01*
Y310172D01*
X332752D01*
Y310109D01*
Y310046D01*
Y309984D01*
Y309921D01*
X332815D01*
Y309858D01*
Y309795D01*
Y309733D01*
X332877D01*
Y309670D01*
Y309607D01*
Y309544D01*
X332940D01*
Y309482D01*
Y309419D01*
Y309356D01*
Y309294D01*
Y309231D01*
Y309168D01*
Y309105D01*
X333003D01*
Y309043D01*
Y308980D01*
Y308917D01*
Y308855D01*
X333066D01*
Y308792D01*
Y308729D01*
Y308666D01*
Y308604D01*
Y308541D01*
Y308478D01*
Y308415D01*
Y308353D01*
Y308290D01*
Y308227D01*
Y308165D01*
Y308102D01*
Y308039D01*
X333003D01*
Y307976D01*
Y307914D01*
Y307851D01*
X332940D01*
Y307788D01*
Y307725D01*
Y307663D01*
Y307600D01*
X332877D01*
Y307537D01*
X332815D01*
Y307474D01*
Y307412D01*
X332752D01*
Y307349D01*
Y307286D01*
Y307224D01*
X332689D01*
Y307161D01*
X332627D01*
Y307098D01*
Y307035D01*
X332564D01*
Y306973D01*
Y306910D01*
X332501D01*
Y306847D01*
X332438D01*
Y306785D01*
Y306722D01*
X332313D01*
Y306659D01*
Y306596D01*
X332250D01*
Y306534D01*
Y306471D01*
X332187D01*
Y306408D01*
X332125D01*
Y306345D01*
Y306283D01*
X331999D01*
Y306220D01*
Y306157D01*
X331937D01*
Y306095D01*
X331874D01*
Y306032D01*
Y305969D01*
X331811D01*
Y305906D01*
X331748D01*
Y305844D01*
Y305781D01*
X331686D01*
Y305718D01*
X331623D01*
Y305655D01*
Y305593D01*
X331560D01*
Y305530D01*
X331435D01*
Y305467D01*
Y305404D01*
X331372D01*
Y305342D01*
X331309D01*
Y305279D01*
X331246D01*
Y305216D01*
X331184D01*
Y305154D01*
X331121D01*
Y305091D01*
Y305028D01*
X330995D01*
Y304965D01*
X330933D01*
Y304903D01*
X330870D01*
Y304840D01*
X330807D01*
Y304777D01*
X330745D01*
Y304714D01*
X330682D01*
Y304652D01*
X330619D01*
Y304589D01*
X330494D01*
Y304526D01*
X330431D01*
Y304464D01*
X330243D01*
Y304401D01*
X330180D01*
Y304338D01*
X328549D01*
Y304275D01*
X328361D01*
Y304213D01*
X328236D01*
Y304150D01*
X328047D01*
Y304087D01*
X327922D01*
Y304025D01*
X327044D01*
Y304087D01*
X326981D01*
Y304150D01*
Y304213D01*
X326918D01*
Y304275D01*
Y304338D01*
X326855D01*
Y304401D01*
X326793D01*
Y304464D01*
Y304526D01*
Y304589D01*
X326730D01*
Y304652D01*
X326667D01*
Y304714D01*
Y304777D01*
Y304840D01*
Y304903D01*
X326605D01*
Y304965D01*
X326542D01*
Y305028D01*
Y305091D01*
X326479D01*
Y305154D01*
Y305216D01*
Y305279D01*
X326416D01*
Y305342D01*
X326354D01*
Y305404D01*
Y305467D01*
X326291D01*
Y305530D01*
X326228D01*
Y305593D01*
X326166D01*
Y305655D01*
X326103D01*
Y305718D01*
X326040D01*
Y305781D01*
X325915D01*
Y305844D01*
X325852D01*
Y305906D01*
X325789D01*
Y305969D01*
X325664D01*
Y306032D01*
X325601D01*
Y306095D01*
X325538D01*
Y306157D01*
X325476D01*
Y306220D01*
X325413D01*
Y306283D01*
X325350D01*
Y306345D01*
X325287D01*
Y306408D01*
X325225D01*
Y306471D01*
X325162D01*
Y306534D01*
Y306596D01*
X325099D01*
Y306659D01*
Y306722D01*
Y306785D01*
X325036D01*
Y306847D01*
Y306910D01*
Y306973D01*
Y307035D01*
Y307098D01*
Y307161D01*
Y307224D01*
Y307286D01*
Y307349D01*
X325099D01*
Y307412D01*
Y307474D01*
X325162D01*
Y307537D01*
Y307600D01*
Y307663D01*
Y307725D01*
X325225D01*
Y307788D01*
X325287D01*
Y307851D01*
Y307914D01*
X325350D01*
Y307976D01*
Y308039D01*
Y308102D01*
X325413D01*
Y308165D01*
X325476D01*
Y308227D01*
Y308290D01*
X325538D01*
Y308353D01*
Y308415D01*
Y308478D01*
X325601D01*
Y308541D01*
Y308604D01*
Y308666D01*
Y308729D01*
Y308792D01*
Y308855D01*
Y308917D01*
Y308980D01*
X325664D01*
Y309043D01*
Y309105D01*
Y309168D01*
Y309231D01*
Y309294D01*
Y309356D01*
Y309419D01*
Y309482D01*
Y309544D01*
Y309607D01*
Y309670D01*
Y309733D01*
Y309795D01*
Y309858D01*
Y309921D01*
Y309984D01*
Y310046D01*
Y310109D01*
Y310172D01*
Y310234D01*
Y310297D01*
Y310360D01*
Y310423D01*
Y310485D01*
Y310548D01*
Y310611D01*
Y310674D01*
Y310736D01*
Y310799D01*
X325601D01*
Y310862D01*
Y310925D01*
Y310987D01*
Y311050D01*
Y311113D01*
Y311175D01*
Y311238D01*
Y311301D01*
Y311364D01*
X325538D01*
Y311426D01*
Y311489D01*
Y311552D01*
Y311614D01*
Y311677D01*
Y311740D01*
Y311803D01*
Y311865D01*
Y311928D01*
Y311991D01*
Y312054D01*
Y312116D01*
Y312179D01*
Y312242D01*
Y312304D01*
X325476D01*
Y312367D01*
Y312430D01*
Y312493D01*
Y312556D01*
Y312618D01*
X325413D01*
Y312681D01*
Y312744D01*
Y312806D01*
Y312869D01*
Y312932D01*
X325350D01*
Y312995D01*
Y313057D01*
Y313120D01*
Y313183D01*
Y313245D01*
Y313308D01*
Y313371D01*
Y313434D01*
Y313496D01*
Y313559D01*
Y313622D01*
Y313685D01*
X325287D01*
Y313747D01*
Y313810D01*
Y313873D01*
Y313935D01*
X325225D01*
Y313998D01*
Y314061D01*
Y314124D01*
Y314186D01*
Y314249D01*
Y314312D01*
Y314374D01*
Y314437D01*
Y314500D01*
Y314563D01*
X325162D01*
Y314626D01*
Y314688D01*
Y314751D01*
Y314814D01*
Y314876D01*
Y314939D01*
X325099D01*
Y315002D01*
Y315065D01*
Y315127D01*
Y315190D01*
Y315253D01*
X325036D01*
Y315316D01*
Y315378D01*
Y315441D01*
Y315504D01*
Y315566D01*
Y315629D01*
Y315692D01*
Y315755D01*
Y315817D01*
Y315880D01*
X324974D01*
Y315943D01*
Y316005D01*
Y316068D01*
Y316131D01*
Y316194D01*
Y316256D01*
X324911D01*
Y316319D01*
Y316382D01*
Y316444D01*
Y316507D01*
Y316570D01*
Y316633D01*
X324848D01*
Y316695D01*
X324911D01*
Y316758D01*
Y316821D01*
Y316884D01*
Y316946D01*
Y317009D01*
Y317072D01*
X324848D01*
Y317135D01*
Y317197D01*
Y317260D01*
Y317323D01*
Y317386D01*
Y317448D01*
Y317511D01*
X324785D01*
Y317574D01*
Y317636D01*
Y317699D01*
Y317762D01*
Y317825D01*
Y317887D01*
Y317950D01*
Y318013D01*
Y318075D01*
Y318138D01*
X324723D01*
Y318201D01*
Y318264D01*
X324660D01*
Y318326D01*
Y318389D01*
X324597D01*
Y318452D01*
X324535D01*
Y318389D01*
X324472D01*
Y318326D01*
X324409D01*
Y318264D01*
Y318201D01*
X324346D01*
Y318138D01*
Y318075D01*
X324284D01*
Y318013D01*
Y317950D01*
X324221D01*
Y317887D01*
Y317825D01*
X324158D01*
Y317762D01*
Y317699D01*
X324096D01*
Y317636D01*
Y317574D01*
X324033D01*
Y317511D01*
Y317448D01*
X323970D01*
Y317386D01*
Y317323D01*
X323907D01*
Y317260D01*
X323845D01*
Y317197D01*
X323782D01*
Y317135D01*
X323845D01*
Y317072D01*
X323782D01*
Y317009D01*
X323719D01*
Y316946D01*
X323656D01*
Y316884D01*
Y316821D01*
X323594D01*
Y316758D01*
Y316695D01*
X323468D01*
Y316633D01*
Y316570D01*
Y316507D01*
X323406D01*
Y316444D01*
X323343D01*
Y316382D01*
Y316319D01*
X323280D01*
Y316256D01*
X323217D01*
Y316194D01*
X323155D01*
Y316131D01*
Y316068D01*
X323092D01*
Y316005D01*
Y315943D01*
X322966D01*
Y315880D01*
Y315817D01*
X322904D01*
Y315755D01*
X322841D01*
Y315692D01*
Y315629D01*
X322778D01*
Y315566D01*
X322715D01*
Y315504D01*
Y315441D01*
X322653D01*
Y315378D01*
X322590D01*
Y315316D01*
X322527D01*
Y315253D01*
X322465D01*
Y315190D01*
X322402D01*
Y315127D01*
Y315065D01*
X322339D01*
Y315002D01*
X322276D01*
Y314939D01*
X322214D01*
Y314876D01*
Y314814D01*
X322151D01*
Y314751D01*
X322088D01*
Y314688D01*
X322025D01*
Y314626D01*
X321963D01*
Y314563D01*
X321900D01*
Y314500D01*
Y314437D01*
X321837D01*
Y314374D01*
X321775D01*
Y314312D01*
X321712D01*
Y314249D01*
X321649D01*
Y314186D01*
X321586D01*
Y314124D01*
X321524D01*
Y314061D01*
X321398D01*
Y313998D01*
X321336D01*
Y313935D01*
X321273D01*
Y313873D01*
X321210D01*
Y313810D01*
X321147D01*
Y313747D01*
X321022D01*
Y313685D01*
X320959D01*
Y313622D01*
X320896D01*
Y313559D01*
X320771D01*
Y313496D01*
X320708D01*
Y313434D01*
X320645D01*
Y313371D01*
X320583D01*
Y313308D01*
X320457D01*
Y313245D01*
X320332D01*
Y313183D01*
X320269D01*
Y313120D01*
X320144D01*
Y313057D01*
X320081D01*
Y312995D01*
X319955D01*
Y312932D01*
X319830D01*
Y312869D01*
X319767D01*
Y312806D01*
X319579D01*
Y312744D01*
X319454D01*
Y312681D01*
X319391D01*
Y312618D01*
X319203D01*
Y312556D01*
X319140D01*
Y312493D01*
X318889D01*
Y312430D01*
Y312367D01*
Y312304D01*
X318952D01*
Y312242D01*
X318889D01*
Y312179D01*
X318952D01*
Y312116D01*
Y312054D01*
X319015D01*
Y311991D01*
X319077D01*
Y311928D01*
Y311865D01*
Y311803D01*
Y311740D01*
X319140D01*
Y311677D01*
X319203D01*
Y311614D01*
Y311552D01*
X319266D01*
Y311489D01*
Y311426D01*
Y311364D01*
X319391D01*
Y311301D01*
Y311238D01*
X319454D01*
Y311175D01*
X319516D01*
Y311113D01*
X319642D01*
Y311050D01*
X319767D01*
Y310987D01*
X319830D01*
Y310925D01*
X319893D01*
Y310862D01*
X320018D01*
Y310799D01*
X320144D01*
Y310736D01*
X320206D01*
Y310674D01*
X320269D01*
Y310611D01*
X320395D01*
Y310548D01*
X320520D01*
Y310485D01*
X320645D01*
Y310423D01*
X320771D01*
Y310360D01*
X320834D01*
Y310297D01*
X320959D01*
Y310234D01*
X321085D01*
Y310172D01*
X321147D01*
Y310109D01*
X321273D01*
Y310046D01*
X321398D01*
Y309984D01*
X321461D01*
Y309921D01*
X321586D01*
Y309858D01*
X321649D01*
Y309795D01*
X321775D01*
Y309733D01*
X321900D01*
Y309670D01*
X321963D01*
Y309607D01*
X322025D01*
Y309544D01*
X322088D01*
Y309482D01*
X322214D01*
Y309419D01*
X322276D01*
Y309356D01*
X322339D01*
Y309294D01*
X322402D01*
Y309231D01*
X322527D01*
Y309168D01*
X322590D01*
Y309105D01*
X322653D01*
Y309043D01*
X322715D01*
Y308980D01*
X322778D01*
Y308917D01*
X322841D01*
Y308855D01*
X322904D01*
Y308792D01*
X322966D01*
Y308729D01*
X323029D01*
Y308666D01*
X322966D01*
Y308604D01*
X323092D01*
Y308541D01*
X323155D01*
Y308478D01*
Y308415D01*
X323217D01*
Y308353D01*
X323280D01*
Y308290D01*
X323343D01*
Y308227D01*
Y308165D01*
Y308102D01*
X323406D01*
Y308039D01*
X323468D01*
Y307976D01*
Y307914D01*
Y307851D01*
X323531D01*
Y307788D01*
X323594D01*
Y307725D01*
Y307663D01*
Y307600D01*
X323656D01*
Y307537D01*
Y307474D01*
Y307412D01*
Y307349D01*
Y307286D01*
X323719D01*
Y307224D01*
Y307161D01*
Y307098D01*
Y307035D01*
X323782D01*
Y306973D01*
Y306910D01*
Y306847D01*
Y306785D01*
Y306722D01*
Y306659D01*
Y306596D01*
Y306534D01*
Y306471D01*
Y306408D01*
Y306345D01*
X323719D01*
Y306283D01*
Y306220D01*
Y306157D01*
Y306095D01*
X323656D01*
Y306032D01*
Y305969D01*
Y305906D01*
Y305844D01*
Y305781D01*
Y305718D01*
X323594D01*
Y305655D01*
Y305593D01*
X323531D01*
Y305530D01*
Y305467D01*
X323468D01*
Y305404D01*
Y305342D01*
Y305279D01*
X323406D01*
Y305216D01*
Y305154D01*
X323343D01*
Y305091D01*
Y305028D01*
X323280D01*
Y304965D01*
X323217D01*
Y304903D01*
Y304840D01*
X323155D01*
Y304777D01*
X323092D01*
Y304714D01*
X323029D01*
Y304652D01*
X322966D01*
Y304589D01*
X322904D01*
Y304526D01*
X322841D01*
Y304464D01*
X322778D01*
Y304401D01*
X322715D01*
Y304338D01*
X322653D01*
Y304275D01*
X322527D01*
Y304213D01*
X322402D01*
Y304150D01*
X322276D01*
Y304087D01*
X322151D01*
Y304025D01*
X321900D01*
Y303962D01*
X321649D01*
Y303899D01*
X321336D01*
Y303836D01*
X320771D01*
Y303899D01*
X320395D01*
Y303962D01*
X320144D01*
Y304025D01*
X319830D01*
Y304087D01*
X319705D01*
Y304150D01*
X319454D01*
Y304213D01*
X319266D01*
Y304275D01*
X319203D01*
Y304338D01*
X318952D01*
Y304401D01*
X318889D01*
Y304464D01*
X318701D01*
Y304526D01*
X318638D01*
Y304589D01*
X318513D01*
Y304652D01*
X318325D01*
Y304714D01*
X318262D01*
Y304777D01*
X318199D01*
Y304840D01*
X318074D01*
Y304903D01*
X318011D01*
Y304965D01*
X317823D01*
Y305028D01*
Y305091D01*
X317697D01*
Y305154D01*
X317635D01*
Y305216D01*
X317572D01*
Y305279D01*
X317446D01*
Y305342D01*
X317384D01*
Y305404D01*
X317258D01*
Y305467D01*
X317196D01*
Y305530D01*
X317133D01*
Y305593D01*
X317070D01*
Y305655D01*
X317007D01*
Y305718D01*
X316945D01*
Y305781D01*
X316882D01*
Y305844D01*
X316819D01*
Y305906D01*
X316756D01*
Y305969D01*
X316694D01*
Y306032D01*
X316631D01*
Y306095D01*
X316568D01*
Y306157D01*
X316506D01*
Y306220D01*
X316443D01*
Y306283D01*
X316380D01*
Y306345D01*
X316317D01*
Y306408D01*
X316255D01*
Y306471D01*
Y306534D01*
Y306596D01*
X316129D01*
Y306659D01*
X316066D01*
Y306722D01*
Y306785D01*
X316004D01*
Y306847D01*
Y306910D01*
X315878D01*
Y306973D01*
Y307035D01*
Y307098D01*
X315815D01*
Y307161D01*
X315753D01*
Y307224D01*
Y307286D01*
X315690D01*
Y307349D01*
Y307412D01*
X315627D01*
Y307474D01*
X315565D01*
Y307537D01*
Y307600D01*
Y307663D01*
X315502D01*
Y307725D01*
Y307788D01*
X315439D01*
Y307851D01*
Y307914D01*
Y307976D01*
Y308039D01*
X315376D01*
Y308102D01*
Y308165D01*
Y308227D01*
X315314D01*
Y308290D01*
Y308353D01*
Y308415D01*
X315251D01*
Y308478D01*
Y308541D01*
Y308604D01*
Y308666D01*
Y308729D01*
Y308792D01*
Y308855D01*
Y308917D01*
X315314D01*
Y308980D01*
Y309043D01*
Y309105D01*
X315376D01*
Y309168D01*
Y309231D01*
X315439D01*
Y309294D01*
Y309356D01*
Y309419D01*
X315502D01*
Y309482D01*
Y309544D01*
X315565D01*
Y309607D01*
Y309670D01*
X315627D01*
Y309733D01*
X315690D01*
Y309795D01*
Y309858D01*
X315753D01*
Y309921D01*
X315815D01*
Y309984D01*
X315941D01*
Y310046D01*
Y310109D01*
X316004D01*
Y310172D01*
X316066D01*
Y310234D01*
X316129D01*
Y310297D01*
X316192D01*
Y310360D01*
X316255D01*
Y310423D01*
X316317D01*
Y310485D01*
Y310548D01*
X316380D01*
Y310611D01*
Y310674D01*
X316443D01*
Y310736D01*
Y310799D01*
Y310862D01*
Y310925D01*
Y310987D01*
Y311050D01*
Y311113D01*
Y311175D01*
Y311238D01*
Y311301D01*
X316380D01*
Y311364D01*
X316443D01*
Y311426D01*
Y311489D01*
Y311552D01*
Y311614D01*
Y311677D01*
Y311740D01*
X316380D01*
Y311803D01*
Y311865D01*
Y311928D01*
X316192D01*
Y311865D01*
X314373D01*
Y311928D01*
X313808D01*
Y311991D01*
X313181D01*
Y312054D01*
X312867D01*
Y312116D01*
X312491D01*
Y312179D01*
X312366D01*
Y312242D01*
X312177D01*
Y312304D01*
X311926D01*
Y312367D01*
X311738D01*
Y312430D01*
X311613D01*
Y312493D01*
X311424D01*
Y312556D01*
X311299D01*
Y312618D01*
X311111D01*
Y312681D01*
X310985D01*
Y312744D01*
X310860D01*
Y312806D01*
X310735D01*
Y312869D01*
X310609D01*
Y312806D01*
Y312744D01*
Y312681D01*
Y312618D01*
Y312556D01*
Y312493D01*
X310546D01*
Y312430D01*
Y312367D01*
Y312304D01*
Y312242D01*
Y312179D01*
Y312116D01*
X310609D01*
Y312054D01*
Y311991D01*
Y311928D01*
Y311865D01*
Y311803D01*
Y311740D01*
X310672D01*
Y311677D01*
X310735D01*
Y311614D01*
X310797D01*
Y311552D01*
Y311489D01*
X310860D01*
Y311426D01*
Y311364D01*
X310923D01*
Y311301D01*
Y311238D01*
X311048D01*
Y311175D01*
X311111D01*
Y311113D01*
Y311050D01*
X311174D01*
Y310987D01*
Y310925D01*
X311236D01*
Y310862D01*
X311299D01*
Y310799D01*
X311362D01*
Y310736D01*
Y310674D01*
X311424D01*
Y310611D01*
Y310548D01*
Y310485D01*
X311487D01*
Y310423D01*
X311550D01*
Y310360D01*
Y310297D01*
X311613D01*
Y310234D01*
X311550D01*
Y310172D01*
X311613D01*
Y310109D01*
Y310046D01*
Y309984D01*
Y309921D01*
Y309858D01*
Y309795D01*
Y309733D01*
Y309670D01*
Y309607D01*
X311550D01*
Y309544D01*
X311613D01*
Y309482D01*
X311550D01*
Y309419D01*
Y309356D01*
X311487D01*
Y309294D01*
Y309231D01*
X311424D01*
Y309168D01*
Y309105D01*
X311362D01*
Y309043D01*
Y308980D01*
X311236D01*
Y308917D01*
Y308855D01*
X311174D01*
Y308792D01*
X311111D01*
Y308729D01*
Y308666D01*
X311048D01*
Y308604D01*
X310985D01*
Y308541D01*
X310923D01*
Y308478D01*
X310860D01*
Y308415D01*
X310797D01*
Y308353D01*
X310735D01*
Y308290D01*
X310609D01*
Y308227D01*
X310546D01*
Y308165D01*
X310484D01*
Y308102D01*
Y308039D01*
X310358D01*
Y307976D01*
X310295D01*
Y307914D01*
X310170D01*
Y307851D01*
X310107D01*
Y307788D01*
X310045D01*
Y307725D01*
X309919D01*
Y307663D01*
X309856D01*
Y307600D01*
X309731D01*
Y307537D01*
X309605D01*
Y307474D01*
X309480D01*
Y307412D01*
X309354D01*
Y307349D01*
X309229D01*
Y307286D01*
X309166D01*
Y307224D01*
X308915D01*
Y307161D01*
X308853D01*
Y307098D01*
X308602D01*
Y307035D01*
X308414D01*
Y306973D01*
X308288D01*
Y306910D01*
X307975D01*
Y306847D01*
X307786D01*
Y306785D01*
X307410D01*
Y306722D01*
X307159D01*
Y306659D01*
X306845D01*
Y306596D01*
X305026D01*
Y306659D01*
X304775D01*
Y306722D01*
X304587D01*
Y306785D01*
X304336D01*
Y306847D01*
X304274D01*
Y306910D01*
X304085D01*
Y306973D01*
X303960D01*
Y307035D01*
X303897D01*
Y307098D01*
X303772D01*
Y307161D01*
X303709D01*
Y307224D01*
X303584D01*
Y307286D01*
X303521D01*
Y307349D01*
X303458D01*
Y307412D01*
Y307474D01*
X303395D01*
Y307537D01*
X303333D01*
Y307600D01*
Y307663D01*
X303270D01*
Y307725D01*
X303207D01*
Y307788D01*
Y307851D01*
Y307914D01*
X303145D01*
Y307976D01*
Y308039D01*
X303082D01*
Y308102D01*
Y308165D01*
Y308227D01*
Y308290D01*
Y308353D01*
Y308415D01*
Y308478D01*
Y308541D01*
Y308604D01*
Y308666D01*
Y308729D01*
Y308792D01*
X303145D01*
Y308855D01*
Y308917D01*
X303207D01*
Y308980D01*
Y309043D01*
Y309105D01*
Y309168D01*
Y309231D01*
X303270D01*
Y309294D01*
X303333D01*
Y309356D01*
Y309419D01*
X303395D01*
Y309482D01*
Y309544D01*
Y309607D01*
X303458D01*
Y309670D01*
X303521D01*
Y309733D01*
Y309795D01*
X303584D01*
Y309858D01*
Y309921D01*
X303646D01*
Y309984D01*
X303709D01*
Y310046D01*
Y310109D01*
X303772D01*
Y310172D01*
X303835D01*
Y310234D01*
X303897D01*
Y310297D01*
X303960D01*
Y310360D01*
X304023D01*
Y310423D01*
X304085D01*
Y310485D01*
X304148D01*
Y310548D01*
X304211D01*
Y310611D01*
X304274D01*
Y310674D01*
X304336D01*
Y310736D01*
X304399D01*
Y310799D01*
X304462D01*
Y310862D01*
X304524D01*
Y310925D01*
X304587D01*
Y310987D01*
X304650D01*
Y311050D01*
X304775D01*
Y311113D01*
X304838D01*
Y311175D01*
X304964D01*
Y311238D01*
X305026D01*
Y311301D01*
X305152D01*
Y311364D01*
X305215D01*
Y311426D01*
X305277D01*
Y311489D01*
X305403D01*
Y311552D01*
X305528D01*
Y311614D01*
X305654D01*
Y311677D01*
X305716D01*
Y311740D01*
X305842D01*
Y311803D01*
X305967D01*
Y311865D01*
X306030D01*
Y311928D01*
X306155D01*
Y311991D01*
X306281D01*
Y312054D01*
X306406D01*
Y312116D01*
X306469D01*
Y312179D01*
X306657D01*
Y312242D01*
X306720D01*
Y312304D01*
X306783D01*
Y312367D01*
X306908D01*
Y312430D01*
X307034D01*
Y312493D01*
X307159D01*
Y312556D01*
X307222D01*
Y312618D01*
X307347D01*
Y312681D01*
X307473D01*
Y312744D01*
X307535D01*
Y312806D01*
X307598D01*
Y312869D01*
X307724D01*
Y312932D01*
X307786D01*
Y312995D01*
X307849D01*
Y313057D01*
X307975D01*
Y313120D01*
X308037D01*
Y313183D01*
X308100D01*
Y313245D01*
X308163D01*
Y313308D01*
X308225D01*
Y313371D01*
X308288D01*
Y313434D01*
Y313496D01*
X308351D01*
Y313559D01*
X308414D01*
Y313622D01*
X308476D01*
Y313685D01*
X308539D01*
Y313747D01*
X308602D01*
Y313810D01*
Y313873D01*
X308664D01*
Y313935D01*
X308727D01*
Y313998D01*
Y314061D01*
X308790D01*
Y314124D01*
Y314186D01*
Y314249D01*
X308727D01*
Y314312D01*
X308664D01*
Y314374D01*
X308539D01*
Y314437D01*
X308476D01*
Y314500D01*
X308414D01*
Y314563D01*
X308351D01*
Y314626D01*
X308288D01*
Y314688D01*
X308225D01*
Y314751D01*
Y314814D01*
X308163D01*
Y314876D01*
X308100D01*
Y314939D01*
X308037D01*
Y315002D01*
X307975D01*
Y315065D01*
X307912D01*
Y315127D01*
Y315190D01*
X307786D01*
Y315253D01*
X307724D01*
Y315316D01*
Y315378D01*
X307661D01*
Y315441D01*
X307598D01*
Y315504D01*
X307535D01*
Y315566D01*
Y315629D01*
X307473D01*
Y315692D01*
Y315755D01*
X307410D01*
Y315817D01*
X307347D01*
Y315880D01*
X307284D01*
Y315943D01*
X307222D01*
Y316005D01*
Y316068D01*
X307159D01*
Y316131D01*
X307096D01*
Y316194D01*
Y316256D01*
X307034D01*
Y316319D01*
Y316382D01*
X306971D01*
Y316444D01*
Y316507D01*
X306908D01*
Y316570D01*
X306845D01*
Y316633D01*
Y316695D01*
X306783D01*
Y316758D01*
Y316821D01*
X306720D01*
Y316884D01*
X306657D01*
Y316946D01*
Y317009D01*
Y317072D01*
X306594D01*
Y317135D01*
Y317197D01*
X306469D01*
Y317260D01*
Y317323D01*
Y317386D01*
Y317448D01*
X306406D01*
Y317511D01*
X306344D01*
Y317574D01*
Y317636D01*
X306281D01*
Y317699D01*
Y317762D01*
Y317825D01*
X306218D01*
Y317887D01*
Y317950D01*
X306155D01*
Y318013D01*
Y318075D01*
Y318138D01*
X306093D01*
Y318201D01*
Y318264D01*
X306030D01*
Y318326D01*
Y318389D01*
X305967D01*
Y318452D01*
Y318515D01*
Y318577D01*
Y318640D01*
X305905D01*
Y318703D01*
Y318765D01*
Y318828D01*
X305842D01*
Y318891D01*
Y318954D01*
Y319016D01*
Y319079D01*
X305779D01*
Y319142D01*
Y319205D01*
X305716D01*
Y319267D01*
Y319330D01*
Y319393D01*
X305654D01*
Y319456D01*
Y319518D01*
Y319581D01*
Y319644D01*
Y319706D01*
Y319769D01*
X305591D01*
Y319832D01*
Y319895D01*
Y319957D01*
X305528D01*
Y320020D01*
Y320083D01*
Y320146D01*
X305465D01*
Y320208D01*
X305528D01*
Y320271D01*
Y320334D01*
Y320396D01*
X305465D01*
Y320459D01*
Y320522D01*
Y320585D01*
Y320647D01*
X305403D01*
Y320710D01*
Y320773D01*
Y320835D01*
Y320898D01*
Y320961D01*
X305340D01*
Y321024D01*
Y321086D01*
Y321149D01*
Y321212D01*
Y321275D01*
Y321337D01*
Y321400D01*
Y321463D01*
Y321526D01*
Y321588D01*
Y321651D01*
Y321714D01*
Y321776D01*
Y321839D01*
X305277D01*
Y321902D01*
Y321965D01*
Y322027D01*
Y322090D01*
Y322153D01*
Y322216D01*
Y322278D01*
Y322341D01*
Y322404D01*
Y322466D01*
Y322529D01*
Y322592D01*
Y322655D01*
Y322717D01*
Y322780D01*
Y322843D01*
Y322905D01*
Y322968D01*
Y323031D01*
Y323094D01*
Y323156D01*
Y323219D01*
Y323282D01*
Y323345D01*
Y323407D01*
Y323470D01*
Y323533D01*
X305152D01*
Y323595D01*
X305089D01*
Y323658D01*
X305026D01*
Y323721D01*
X304964D01*
Y323784D01*
X304901D01*
Y323846D01*
X304838D01*
Y323909D01*
Y323972D01*
X304775D01*
Y324035D01*
X304713D01*
Y324097D01*
X304650D01*
Y324160D01*
X304587D01*
Y324223D01*
X304524D01*
Y324286D01*
X304462D01*
Y324348D01*
X304399D01*
Y324411D01*
X304336D01*
Y324474D01*
X304274D01*
Y324536D01*
X304211D01*
Y324599D01*
X304148D01*
Y324662D01*
X304085D01*
Y324725D01*
X304023D01*
Y324787D01*
Y324850D01*
X303960D01*
Y324913D01*
X303897D01*
Y324975D01*
X303835D01*
Y325038D01*
X303772D01*
Y325101D01*
X303709D01*
Y325164D01*
X303646D01*
Y325226D01*
X303584D01*
Y325289D01*
X303521D01*
Y325352D01*
X303458D01*
Y325415D01*
X303395D01*
Y325477D01*
X303333D01*
Y325540D01*
X303270D01*
Y325603D01*
X303207D01*
Y325665D01*
X303145D01*
Y325728D01*
X303082D01*
Y325791D01*
Y325854D01*
X303019D01*
Y325916D01*
X302956D01*
Y325979D01*
X302894D01*
Y326042D01*
X302831D01*
Y326105D01*
X302705D01*
Y326167D01*
X302643D01*
Y326230D01*
X302517D01*
Y326293D01*
X302392D01*
Y326356D01*
X302266D01*
Y326418D01*
X302141D01*
Y326481D01*
X302015D01*
Y326544D01*
X301890D01*
Y326606D01*
X301764D01*
Y326669D01*
X301702D01*
Y326732D01*
X301639D01*
Y326795D01*
X301514D01*
Y326857D01*
X301388D01*
Y326920D01*
X301325D01*
Y326983D01*
X301200D01*
Y327045D01*
X301137D01*
Y327108D01*
X301075D01*
Y327171D01*
X301012D01*
Y327234D01*
X300949D01*
Y327296D01*
X300886D01*
Y327359D01*
X300823D01*
Y327422D01*
X300761D01*
Y327485D01*
X300698D01*
Y327547D01*
X300635D01*
Y327610D01*
X300573D01*
Y327673D01*
X300510D01*
Y327735D01*
Y327798D01*
X300384D01*
Y327861D01*
X300322D01*
Y327924D01*
X300259D01*
Y327986D01*
Y328049D01*
Y328112D01*
X300134D01*
Y328175D01*
Y328237D01*
X300071D01*
Y328300D01*
X300008D01*
Y328363D01*
Y328426D01*
X299945D01*
Y328488D01*
Y328551D01*
X299820D01*
Y328614D01*
Y328676D01*
X299757D01*
Y328739D01*
Y328802D01*
X299694D01*
Y328865D01*
Y328927D01*
X299632D01*
Y328990D01*
Y329053D01*
X299569D01*
Y329116D01*
Y329178D01*
X299506D01*
Y329241D01*
X299444D01*
Y329304D01*
X299506D01*
Y329366D01*
X299444D01*
Y329429D01*
X299381D01*
Y329492D01*
Y329555D01*
X299318D01*
Y329617D01*
Y329680D01*
Y329743D01*
Y329805D01*
X299255D01*
Y329868D01*
Y329931D01*
X299193D01*
Y329994D01*
Y330056D01*
X299130D01*
Y330119D01*
Y330182D01*
Y330245D01*
Y330307D01*
Y330370D01*
X299067D01*
Y330433D01*
Y330496D01*
Y330558D01*
X299005D01*
Y330621D01*
Y330684D01*
Y330747D01*
Y330809D01*
Y330872D01*
X298942D01*
Y330935D01*
Y330997D01*
X298879D01*
Y331060D01*
Y331123D01*
Y331186D01*
X298816D01*
Y331248D01*
Y331311D01*
Y331374D01*
Y331436D01*
Y331499D01*
Y331562D01*
Y331625D01*
Y331687D01*
X298753D01*
Y331750D01*
Y331813D01*
Y331875D01*
Y331938D01*
Y332001D01*
X298691D01*
Y332064D01*
Y332126D01*
Y332189D01*
Y332252D01*
Y332315D01*
Y332377D01*
Y332440D01*
Y332503D01*
Y332565D01*
Y332628D01*
Y332691D01*
Y332754D01*
Y332817D01*
X298628D01*
Y332879D01*
Y332942D01*
Y333005D01*
Y333067D01*
Y333130D01*
Y333193D01*
Y333256D01*
Y333318D01*
X298565D01*
Y333381D01*
Y333444D01*
Y333506D01*
Y333569D01*
Y333632D01*
Y333695D01*
Y333757D01*
Y333820D01*
Y333883D01*
Y333946D01*
Y334008D01*
Y334071D01*
Y334134D01*
Y334196D01*
Y334259D01*
Y334322D01*
Y334385D01*
Y334447D01*
Y334510D01*
Y334573D01*
Y334636D01*
Y334698D01*
Y334761D01*
Y334824D01*
Y334887D01*
Y334949D01*
Y335012D01*
Y335075D01*
Y335137D01*
Y335200D01*
Y335263D01*
Y335326D01*
Y335388D01*
Y335451D01*
Y335514D01*
Y335577D01*
Y335639D01*
Y335702D01*
Y335765D01*
Y335827D01*
Y335890D01*
Y335953D01*
Y336016D01*
Y336078D01*
Y336141D01*
Y336204D01*
X298628D01*
Y336266D01*
Y336329D01*
Y336392D01*
Y336455D01*
Y336517D01*
Y336580D01*
Y336643D01*
Y336706D01*
X298691D01*
Y336768D01*
Y336831D01*
Y336894D01*
Y336957D01*
Y337019D01*
Y337082D01*
X298628D01*
Y337145D01*
X298691D01*
Y337207D01*
Y337270D01*
Y337333D01*
Y337396D01*
Y337458D01*
X298753D01*
Y337521D01*
Y337584D01*
Y337647D01*
Y337709D01*
Y337772D01*
X298816D01*
Y337835D01*
Y337897D01*
Y337960D01*
Y338023D01*
Y338086D01*
Y338148D01*
Y338211D01*
X298879D01*
Y338274D01*
Y338336D01*
Y338399D01*
X298942D01*
Y338462D01*
Y338525D01*
Y338587D01*
X299005D01*
Y338650D01*
Y338713D01*
Y338776D01*
Y338838D01*
Y338901D01*
X299067D01*
Y338964D01*
Y339026D01*
X299130D01*
Y339089D01*
Y339152D01*
Y339215D01*
Y339277D01*
X299193D01*
Y339340D01*
Y339403D01*
X299255D01*
Y339466D01*
Y339528D01*
X299318D01*
Y339591D01*
Y339654D01*
Y339717D01*
X299381D01*
Y339779D01*
Y339842D01*
X299444D01*
Y339905D01*
Y339967D01*
Y340030D01*
X299506D01*
Y340093D01*
Y340156D01*
X299569D01*
Y340218D01*
X299632D01*
Y340281D01*
Y340344D01*
X299694D01*
Y340406D01*
Y340469D01*
X299757D01*
Y340532D01*
Y340595D01*
X299820D01*
Y340657D01*
X299883D01*
Y340720D01*
Y340783D01*
X299945D01*
Y340846D01*
X300008D01*
Y340908D01*
X300071D01*
Y340971D01*
Y341034D01*
X300134D01*
Y341096D01*
X300196D01*
Y341159D01*
X300259D01*
Y341222D01*
X300322D01*
Y341285D01*
Y341347D01*
X300384D01*
Y341410D01*
X300447D01*
Y341473D01*
X300510D01*
Y341536D01*
X300573D01*
Y341598D01*
X300635D01*
Y341661D01*
X300698D01*
Y341724D01*
X300761D01*
Y341787D01*
Y341849D01*
X300823D01*
Y341912D01*
X300886D01*
Y341975D01*
X300949D01*
Y342037D01*
X301012D01*
Y342100D01*
X301075D01*
Y342163D01*
X301137D01*
Y342226D01*
X301263D01*
Y342288D01*
X301388D01*
Y342351D01*
X301514D01*
Y342414D01*
X301576D01*
Y342477D01*
X301702D01*
Y342539D01*
X301764D01*
Y342602D01*
X301890D01*
Y342665D01*
X302015D01*
Y342727D01*
X302078D01*
Y342790D01*
X302266D01*
Y342853D01*
X302329D01*
Y342916D01*
X302454D01*
Y342978D01*
X302643D01*
Y343041D01*
X302831D01*
Y343104D01*
X303145D01*
Y343166D01*
X303772D01*
Y343229D01*
X303897D01*
Y343292D01*
X304085D01*
Y343355D01*
X304336D01*
Y343417D01*
X304524D01*
Y343355D01*
X304775D01*
Y343292D01*
X304964D01*
Y343229D01*
X305026D01*
Y343166D01*
X305089D01*
Y343104D01*
X305152D01*
Y343041D01*
Y342978D01*
X305215D01*
Y342916D01*
X305277D01*
Y342853D01*
X305215D01*
Y342790D01*
X305277D01*
Y342727D01*
Y342665D01*
Y342602D01*
Y342539D01*
Y342477D01*
X305340D01*
Y342414D01*
X305403D01*
Y342351D01*
X305465D01*
Y342288D01*
X305528D01*
Y342226D01*
X305591D01*
Y342163D01*
Y342100D01*
X305654D01*
Y342037D01*
X305716D01*
Y341975D01*
X305779D01*
Y341912D01*
X305842D01*
Y341849D01*
Y341787D01*
X305905D01*
Y341724D01*
Y341661D01*
Y341598D01*
X305967D01*
Y341536D01*
X306030D01*
Y341473D01*
X306093D01*
Y341410D01*
X306030D01*
Y341347D01*
X306093D01*
Y341285D01*
X306155D01*
Y341222D01*
Y341159D01*
X306218D01*
Y341096D01*
Y341034D01*
Y340971D01*
Y340908D01*
X306281D01*
Y340846D01*
X306344D01*
Y340783D01*
Y340720D01*
Y340657D01*
X306406D01*
Y340595D01*
X306469D01*
Y340532D01*
X306532D01*
Y340469D01*
X306594D01*
Y340406D01*
X306720D01*
Y340344D01*
Y340281D01*
X306783D01*
Y340218D01*
Y340156D01*
X306845D01*
Y340093D01*
Y340030D01*
Y339967D01*
Y339905D01*
Y339842D01*
Y339779D01*
Y339717D01*
Y339654D01*
Y339591D01*
X306783D01*
Y339528D01*
Y339466D01*
X306720D01*
Y339403D01*
Y339340D01*
Y339277D01*
X306657D01*
Y339215D01*
Y339152D01*
Y339089D01*
Y339026D01*
Y338964D01*
Y338901D01*
X306720D01*
Y338838D01*
Y338776D01*
Y338713D01*
Y338650D01*
Y338587D01*
Y338525D01*
Y338462D01*
Y338399D01*
Y338336D01*
Y338274D01*
Y338211D01*
Y338148D01*
Y338086D01*
Y338023D01*
Y337960D01*
Y337897D01*
Y337835D01*
Y337772D01*
Y337709D01*
Y337647D01*
Y337584D01*
Y337521D01*
Y337458D01*
Y337396D01*
Y337333D01*
Y337270D01*
Y337207D01*
Y337145D01*
Y337082D01*
Y337019D01*
Y336957D01*
Y336894D01*
Y336831D01*
Y336768D01*
Y336706D01*
Y336643D01*
Y336580D01*
Y336517D01*
Y336455D01*
Y336392D01*
Y336329D01*
Y336266D01*
Y336204D01*
Y336141D01*
X306657D01*
Y336078D01*
Y336016D01*
Y335953D01*
Y335890D01*
Y335827D01*
Y335765D01*
Y335702D01*
Y335639D01*
Y335577D01*
X306594D01*
Y335514D01*
Y335451D01*
Y335388D01*
Y335326D01*
Y335263D01*
Y335200D01*
X306532D01*
Y335137D01*
Y335075D01*
Y335012D01*
Y334949D01*
Y334887D01*
Y334824D01*
Y334761D01*
Y334698D01*
Y334636D01*
Y334573D01*
Y334510D01*
Y334447D01*
X306469D01*
Y334385D01*
Y334322D01*
Y334259D01*
Y334196D01*
X306406D01*
Y334134D01*
Y334071D01*
Y334008D01*
Y333946D01*
Y333883D01*
X306344D01*
Y333820D01*
Y333757D01*
Y333695D01*
X306406D01*
Y333632D01*
X306344D01*
Y333569D01*
Y333506D01*
Y333444D01*
Y333381D01*
Y333318D01*
X306281D01*
Y333256D01*
Y333193D01*
Y333130D01*
X306218D01*
Y333067D01*
Y333005D01*
Y332942D01*
Y332879D01*
Y332817D01*
Y332754D01*
Y332691D01*
Y332628D01*
X306155D01*
Y332565D01*
Y332503D01*
Y332440D01*
X306093D01*
Y332377D01*
Y332315D01*
Y332252D01*
Y332189D01*
Y332126D01*
X306030D01*
Y332064D01*
Y332001D01*
X306093D01*
Y331938D01*
X306030D01*
Y331875D01*
Y331813D01*
Y331750D01*
X305967D01*
Y331687D01*
Y331625D01*
Y331562D01*
Y331499D01*
X305905D01*
Y331436D01*
Y331374D01*
Y331311D01*
Y331248D01*
Y331186D01*
Y331123D01*
Y331060D01*
Y330997D01*
X305842D01*
Y330935D01*
Y330872D01*
X305779D01*
Y330809D01*
Y330747D01*
Y330684D01*
Y330621D01*
X305716D01*
Y330558D01*
Y330496D01*
Y330433D01*
Y330370D01*
Y330307D01*
Y330245D01*
Y330182D01*
X305654D01*
Y330119D01*
Y330056D01*
Y329994D01*
Y329931D01*
X305591D01*
Y329868D01*
Y329805D01*
Y329743D01*
Y329680D01*
X305528D01*
Y329617D01*
Y329555D01*
X305591D01*
Y329492D01*
X305528D01*
Y329429D01*
Y329366D01*
Y329304D01*
X305465D01*
Y329241D01*
Y329178D01*
Y329116D01*
Y329053D01*
X305403D01*
Y328990D01*
Y328927D01*
Y328865D01*
Y328802D01*
Y328739D01*
Y328676D01*
Y328614D01*
X305340D01*
Y328551D01*
Y328488D01*
Y328426D01*
Y328363D01*
X305277D01*
Y328300D01*
Y328237D01*
Y328175D01*
Y328112D01*
Y328049D01*
X305215D01*
Y327986D01*
Y327924D01*
X305277D01*
Y327861D01*
X305215D01*
Y327798D01*
Y327735D01*
Y327673D01*
Y327610D01*
Y327547D01*
X305152D01*
Y327485D01*
Y327422D01*
Y327359D01*
Y327296D01*
X305089D01*
Y327234D01*
Y327171D01*
X305152D01*
Y327108D01*
X305215D01*
Y327045D01*
X305277D01*
Y326983D01*
X305403D01*
Y326920D01*
X305465D01*
Y326857D01*
X305591D01*
Y326795D01*
X305654D01*
Y326732D01*
X305716D01*
Y326669D01*
X305842D01*
Y326732D01*
Y326795D01*
Y326857D01*
X305905D01*
Y326920D01*
Y326983D01*
X305967D01*
Y327045D01*
Y327108D01*
Y327171D01*
Y327234D01*
Y327296D01*
X306030D01*
Y327359D01*
Y327422D01*
X306093D01*
Y327485D01*
Y327547D01*
X306155D01*
Y327610D01*
Y327673D01*
Y327735D01*
Y327798D01*
X306218D01*
Y327861D01*
Y327924D01*
X306281D01*
Y327986D01*
X306344D01*
Y328049D01*
Y328112D01*
Y328175D01*
Y328237D01*
X306406D01*
Y328300D01*
Y328363D01*
X306469D01*
Y328426D01*
Y328488D01*
Y328551D01*
X306532D01*
Y328614D01*
X306594D01*
Y328676D01*
Y328739D01*
Y328802D01*
Y328865D01*
X306657D01*
Y328927D01*
X306720D01*
Y328990D01*
Y329053D01*
X306783D01*
Y329116D01*
Y329178D01*
Y329241D01*
X306845D01*
Y329304D01*
X306908D01*
Y329366D01*
Y329429D01*
X306971D01*
Y329492D01*
Y329555D01*
X307034D01*
Y329617D01*
X307096D01*
Y329680D01*
Y329743D01*
Y329805D01*
X307159D01*
Y329868D01*
X307222D01*
Y329931D01*
X307284D01*
Y329994D01*
Y330056D01*
Y330119D01*
X307347D01*
Y330182D01*
X307410D01*
Y330245D01*
Y330307D01*
X307473D01*
Y330370D01*
Y330433D01*
X307598D01*
Y330496D01*
Y330558D01*
X307661D01*
Y330621D01*
Y330684D01*
X307724D01*
Y330747D01*
X307786D01*
Y330809D01*
Y330872D01*
X307849D01*
Y330935D01*
X307912D01*
Y330997D01*
Y331060D01*
X307975D01*
Y331123D01*
X308037D01*
Y331186D01*
X308100D01*
Y331248D01*
Y331311D01*
X308163D01*
Y331374D01*
X308225D01*
Y331436D01*
X308288D01*
Y331499D01*
Y331562D01*
X308351D01*
Y331625D01*
X308414D01*
Y331687D01*
X308476D01*
Y331750D01*
Y331813D01*
X308539D01*
Y331875D01*
X308602D01*
Y331938D01*
X308664D01*
Y332001D01*
X308727D01*
Y332064D01*
X308790D01*
Y332126D01*
X308853D01*
Y332189D01*
X308915D01*
Y332252D01*
X308978D01*
Y332315D01*
X309041D01*
Y332377D01*
X309104D01*
Y332440D01*
X309166D01*
Y332503D01*
X309229D01*
Y332565D01*
X309292D01*
Y332628D01*
X309354D01*
Y332691D01*
X309417D01*
Y332754D01*
X309480D01*
Y332817D01*
X309543D01*
Y332879D01*
X309605D01*
Y332942D01*
X309668D01*
Y333005D01*
X309731D01*
Y333067D01*
X309794D01*
Y333130D01*
X309856D01*
Y333193D01*
X309919D01*
Y333256D01*
X309982D01*
Y333318D01*
X310045D01*
Y333381D01*
X310170D01*
Y333444D01*
X310233D01*
Y333506D01*
X310358D01*
Y333569D01*
X310421D01*
Y333632D01*
X310484D01*
Y333695D01*
X310609D01*
Y333757D01*
X310672D01*
Y333820D01*
X310735D01*
Y333883D01*
X310797D01*
Y333946D01*
X310923D01*
Y334008D01*
X311048D01*
Y334071D01*
X311111D01*
Y334134D01*
X311174D01*
Y334196D01*
X311299D01*
Y334259D01*
X311362D01*
Y334322D01*
X311550D01*
Y334385D01*
X311613D01*
Y334447D01*
X311675D01*
Y334510D01*
X311864D01*
Y334573D01*
X311926D01*
Y334636D01*
X312052D01*
Y334698D01*
X312177D01*
Y334761D01*
X312303D01*
Y334824D01*
X312366D01*
Y334887D01*
Y334949D01*
X312303D01*
Y335012D01*
X312366D01*
Y335075D01*
Y335137D01*
Y335200D01*
Y335263D01*
Y335326D01*
X312428D01*
Y335388D01*
Y335451D01*
X312491D01*
Y335514D01*
Y335577D01*
Y335639D01*
Y335702D01*
Y335765D01*
Y335827D01*
Y335890D01*
Y335953D01*
X312554D01*
Y336016D01*
Y336078D01*
Y336141D01*
X312616D01*
Y336204D01*
Y336266D01*
Y336329D01*
Y336392D01*
X312679D01*
Y336455D01*
Y336517D01*
Y336580D01*
Y336643D01*
Y336706D01*
Y336768D01*
X312742D01*
Y336831D01*
Y336894D01*
Y336957D01*
X312805D01*
Y337019D01*
Y337082D01*
Y337145D01*
Y337207D01*
Y337270D01*
X312867D01*
Y337333D01*
X312805D01*
Y337396D01*
X312867D01*
Y337458D01*
Y337521D01*
Y337584D01*
X312930D01*
Y337647D01*
Y337709D01*
Y337772D01*
X312993D01*
Y337835D01*
Y337897D01*
Y337960D01*
Y338023D01*
Y338086D01*
Y338148D01*
Y338211D01*
X313055D01*
Y338274D01*
Y338336D01*
Y338399D01*
X313118D01*
Y338462D01*
Y338525D01*
Y338587D01*
X313181D01*
Y338650D01*
Y338713D01*
X313118D01*
Y338776D01*
X313181D01*
Y338838D01*
Y338901D01*
Y338964D01*
Y339026D01*
X313244D01*
Y339089D01*
Y339152D01*
X313306D01*
Y339215D01*
Y339277D01*
Y339340D01*
Y339403D01*
Y339466D01*
Y339528D01*
X313369D01*
Y339591D01*
Y339654D01*
Y339717D01*
X313432D01*
Y339779D01*
Y339842D01*
Y339905D01*
X313494D01*
Y339967D01*
Y340030D01*
Y340093D01*
Y340156D01*
Y340218D01*
Y340281D01*
X313557D01*
Y340344D01*
Y340406D01*
Y340469D01*
Y340532D01*
X313620D01*
Y340595D01*
Y340657D01*
Y340720D01*
Y340783D01*
Y340846D01*
X313683D01*
Y340908D01*
Y340971D01*
Y341034D01*
X313745D01*
Y341096D01*
Y341159D01*
X313808D01*
Y341222D01*
Y341285D01*
Y341347D01*
Y341410D01*
Y341473D01*
Y341536D01*
X313871D01*
Y341598D01*
Y341661D01*
Y341724D01*
X313934D01*
Y341787D01*
Y341849D01*
Y341912D01*
X313996D01*
Y341975D01*
Y342037D01*
X313934D01*
Y342100D01*
X313996D01*
Y342163D01*
Y342226D01*
X314059D01*
Y342288D01*
Y342351D01*
Y342414D01*
X314122D01*
Y342477D01*
Y342539D01*
Y342602D01*
Y342665D01*
Y342727D01*
X314184D01*
Y342790D01*
Y342853D01*
X314247D01*
Y342916D01*
Y342978D01*
Y343041D01*
X314310D01*
Y343104D01*
Y343166D01*
Y343229D01*
Y343292D01*
Y343355D01*
X314373D01*
Y343417D01*
Y343480D01*
X314436D01*
Y343543D01*
Y343606D01*
Y343668D01*
Y343731D01*
Y343794D01*
X314498D01*
Y343857D01*
Y343919D01*
Y343982D01*
X314561D01*
Y344045D01*
Y344107D01*
X314624D01*
Y344170D01*
Y344233D01*
Y344296D01*
Y344358D01*
Y344421D01*
X314686D01*
Y344484D01*
Y344547D01*
Y344609D01*
X314749D01*
Y344672D01*
Y344735D01*
Y344797D01*
X314812D01*
Y344860D01*
X314937D01*
Y344923D01*
X315251D01*
Y344986D01*
X315565D01*
Y345048D01*
X315753D01*
Y345111D01*
X316317D01*
Y345174D01*
X316694D01*
Y345236D01*
X317823D01*
Y345299D01*
X318952D01*
Y345236D01*
D02*
G37*
G36*
X405979Y277129D02*
Y277069D01*
X405919D01*
Y277009D01*
Y276949D01*
Y276889D01*
X405859D01*
Y276830D01*
Y276770D01*
X405799D01*
Y276710D01*
Y276650D01*
Y276590D01*
X405739D01*
Y276530D01*
Y276471D01*
X405680D01*
Y276411D01*
Y276351D01*
X405620D01*
Y276291D01*
Y276231D01*
X405560D01*
Y276171D01*
Y276112D01*
X405500D01*
Y276052D01*
X405440D01*
Y275992D01*
X405380D01*
Y275932D01*
X405321D01*
Y275872D01*
X405261D01*
Y275812D01*
X405081D01*
Y275752D01*
X404782D01*
Y275812D01*
X404602D01*
Y275872D01*
X404483D01*
Y275932D01*
X404423D01*
Y275992D01*
X404363D01*
Y276052D01*
X404303D01*
Y276112D01*
Y276171D01*
X404243D01*
Y276231D01*
Y276291D01*
Y276351D01*
X404184D01*
Y276411D01*
Y276471D01*
Y276530D01*
Y276590D01*
X404243D01*
Y276650D01*
Y276710D01*
Y276770D01*
X404303D01*
Y276830D01*
Y276889D01*
X404363D01*
Y276949D01*
X404423D01*
Y277009D01*
X404483D01*
Y277069D01*
X404543D01*
Y277129D01*
X404782D01*
Y277189D01*
X405979D01*
Y277129D01*
D02*
G37*
G36*
X434700Y275932D02*
X434880D01*
Y275872D01*
X435059D01*
Y275812D01*
X435179D01*
Y275752D01*
X435299D01*
Y275693D01*
X435359D01*
Y275633D01*
X435419D01*
Y275573D01*
X435538D01*
Y275513D01*
X435598D01*
Y275453D01*
Y275394D01*
X435658D01*
Y275334D01*
X435718D01*
Y275274D01*
X435778D01*
Y275214D01*
Y275154D01*
X435837D01*
Y275094D01*
Y275034D01*
X435897D01*
Y274975D01*
Y274915D01*
Y274855D01*
X435957D01*
Y274795D01*
Y274735D01*
Y274675D01*
Y274616D01*
Y274556D01*
Y274496D01*
Y274436D01*
X436017D01*
Y274376D01*
Y274316D01*
Y274257D01*
X435957D01*
Y274197D01*
Y274137D01*
Y274077D01*
Y274017D01*
Y273957D01*
Y273898D01*
Y273838D01*
Y273778D01*
X435897D01*
Y273718D01*
Y273658D01*
Y273598D01*
X435837D01*
Y273538D01*
Y273479D01*
Y273419D01*
X435778D01*
Y273359D01*
Y273299D01*
X435718D01*
Y273239D01*
Y273180D01*
X435658D01*
Y273120D01*
X435598D01*
Y273060D01*
Y273000D01*
X435538D01*
Y272940D01*
X435478D01*
Y272880D01*
Y272820D01*
X435419D01*
Y272761D01*
X435359D01*
Y272701D01*
X435299D01*
Y272641D01*
X435179D01*
Y272581D01*
X435119D01*
Y272521D01*
X435059D01*
Y272462D01*
X434940D01*
Y272402D01*
X434820D01*
Y272342D01*
X434700D01*
Y272282D01*
X434581D01*
Y272222D01*
X434401D01*
Y272162D01*
X433982D01*
Y272102D01*
X433683D01*
Y272162D01*
X433264D01*
Y272222D01*
X433085D01*
Y272282D01*
X432905D01*
Y272342D01*
X432845D01*
Y272402D01*
X432726D01*
Y272462D01*
X432666D01*
Y272521D01*
X432546D01*
Y272581D01*
X432486D01*
Y272641D01*
X432427D01*
Y272701D01*
Y272761D01*
Y272820D01*
X432486D01*
Y272880D01*
Y272940D01*
X432546D01*
Y273000D01*
Y273060D01*
Y273120D01*
Y273180D01*
X432606D01*
Y273239D01*
Y273299D01*
Y273359D01*
Y273419D01*
X432486D01*
Y273359D01*
X432427D01*
Y273299D01*
Y273239D01*
X432367D01*
Y273180D01*
X432307D01*
Y273120D01*
Y273060D01*
X432247D01*
Y273000D01*
X432187D01*
Y272940D01*
Y272880D01*
X432128D01*
Y272820D01*
X432068D01*
Y272761D01*
X432008D01*
Y272701D01*
X431948D01*
Y272641D01*
X431888D01*
Y272581D01*
X431769D01*
Y272521D01*
X431709D01*
Y272462D01*
X431649D01*
Y272402D01*
X431529D01*
Y272342D01*
X431410D01*
Y272282D01*
X431230D01*
Y272222D01*
X431050D01*
Y272162D01*
X430751D01*
Y272102D01*
X430272D01*
Y272162D01*
X429914D01*
Y272222D01*
X429734D01*
Y272282D01*
X429614D01*
Y272342D01*
X429495D01*
Y272402D01*
X429375D01*
Y272462D01*
X429315D01*
Y272521D01*
X429255D01*
Y272581D01*
X429195D01*
Y272641D01*
X429136D01*
Y272701D01*
X429076D01*
Y272761D01*
X429016D01*
Y272820D01*
X428956D01*
Y272880D01*
Y272940D01*
X428896D01*
Y273000D01*
Y273060D01*
X428836D01*
Y273120D01*
Y273180D01*
X428777D01*
Y273239D01*
Y273299D01*
Y273359D01*
Y273419D01*
X428717D01*
Y273479D01*
Y273538D01*
Y273598D01*
Y273658D01*
Y273718D01*
Y273778D01*
Y273838D01*
Y273898D01*
Y273957D01*
Y274017D01*
Y274077D01*
Y274137D01*
Y274197D01*
Y274257D01*
X428777D01*
Y274316D01*
Y274376D01*
Y274436D01*
Y274496D01*
X428836D01*
Y274556D01*
Y274616D01*
Y274675D01*
X428896D01*
Y274735D01*
Y274795D01*
X428956D01*
Y274855D01*
Y274915D01*
X429016D01*
Y274975D01*
Y275034D01*
X429076D01*
Y275094D01*
X429136D01*
Y275154D01*
X429195D01*
Y275214D01*
Y275274D01*
X429255D01*
Y275334D01*
X429315D01*
Y275394D01*
X429375D01*
Y275453D01*
X429435D01*
Y275513D01*
X429495D01*
Y275573D01*
X429614D01*
Y275633D01*
X429674D01*
Y275693D01*
X429794D01*
Y275752D01*
X429854D01*
Y275812D01*
X430033D01*
Y275872D01*
X430153D01*
Y275932D01*
X430392D01*
Y275992D01*
X431350D01*
Y275932D01*
X431529D01*
Y275872D01*
X431709D01*
Y275812D01*
X431828D01*
Y275752D01*
X431948D01*
Y275693D01*
X432008D01*
Y275633D01*
X432128D01*
Y275573D01*
X432187D01*
Y275513D01*
X432247D01*
Y275453D01*
X432307D01*
Y275394D01*
X432247D01*
Y275334D01*
Y275274D01*
X432187D01*
Y275214D01*
Y275154D01*
X432128D01*
Y275094D01*
Y275034D01*
Y274975D01*
Y274915D01*
Y274855D01*
Y274795D01*
Y274735D01*
Y274675D01*
X432187D01*
Y274735D01*
X432247D01*
Y274795D01*
Y274855D01*
X432307D01*
Y274915D01*
Y274975D01*
X432367D01*
Y275034D01*
Y275094D01*
X432427D01*
Y275154D01*
X432486D01*
Y275214D01*
X432546D01*
Y275274D01*
Y275334D01*
X432606D01*
Y275394D01*
X432666D01*
Y275453D01*
X432726D01*
Y275513D01*
X432845D01*
Y275573D01*
X432905D01*
Y275633D01*
X432965D01*
Y275693D01*
X433085D01*
Y275752D01*
X433205D01*
Y275812D01*
X433324D01*
Y275872D01*
X433504D01*
Y275932D01*
X433683D01*
Y275992D01*
X434700D01*
Y275932D01*
D02*
G37*
G36*
X438949Y275872D02*
X439128D01*
Y275812D01*
X439248D01*
Y275752D01*
X439308D01*
Y275693D01*
X439368D01*
Y275633D01*
X439428D01*
Y275573D01*
X439488D01*
Y275513D01*
X439547D01*
Y275453D01*
X439607D01*
Y275394D01*
Y275334D01*
Y275274D01*
X439667D01*
Y275214D01*
Y275154D01*
Y275094D01*
Y275034D01*
Y274975D01*
Y274915D01*
Y274855D01*
Y274795D01*
Y274735D01*
Y274675D01*
Y274616D01*
X439607D01*
Y274556D01*
Y274496D01*
Y274436D01*
X439547D01*
Y274376D01*
Y274316D01*
X439488D01*
Y274257D01*
Y274197D01*
X439428D01*
Y274137D01*
X439368D01*
Y274077D01*
X439308D01*
Y274017D01*
X439248D01*
Y273957D01*
X439188D01*
Y273898D01*
X439128D01*
Y273838D01*
X439009D01*
Y273778D01*
X438889D01*
Y273718D01*
X438710D01*
Y273658D01*
X438171D01*
Y273598D01*
X437154D01*
Y273538D01*
Y273479D01*
X437094D01*
Y273419D01*
Y273359D01*
Y273299D01*
Y273239D01*
Y273180D01*
X437034D01*
Y273120D01*
Y273060D01*
Y273000D01*
Y272940D01*
X436974D01*
Y272880D01*
Y272820D01*
Y272761D01*
Y272701D01*
X436914D01*
Y272641D01*
Y272581D01*
X436855D01*
Y272521D01*
X436795D01*
Y272462D01*
Y272402D01*
X436675D01*
Y272342D01*
X436615D01*
Y272282D01*
X436496D01*
Y272222D01*
X436256D01*
Y272282D01*
Y272342D01*
Y272402D01*
X436316D01*
Y272462D01*
Y272521D01*
Y272581D01*
Y272641D01*
Y272701D01*
X436376D01*
Y272761D01*
Y272820D01*
Y272880D01*
Y272940D01*
X436436D01*
Y273000D01*
Y273060D01*
Y273120D01*
Y273180D01*
X436496D01*
Y273239D01*
Y273299D01*
Y273359D01*
Y273419D01*
Y273479D01*
X436555D01*
Y273538D01*
Y273598D01*
Y273658D01*
Y273718D01*
X436615D01*
Y273778D01*
Y273838D01*
Y273898D01*
Y273957D01*
X436675D01*
Y274017D01*
Y274077D01*
Y274137D01*
Y274197D01*
Y274257D01*
X436735D01*
Y274316D01*
Y274376D01*
Y274436D01*
Y274496D01*
X436795D01*
Y274556D01*
Y274616D01*
Y274675D01*
Y274735D01*
Y274795D01*
X436855D01*
Y274855D01*
Y274915D01*
Y274975D01*
Y275034D01*
X436914D01*
Y275094D01*
Y275154D01*
Y275214D01*
Y275274D01*
X436974D01*
Y275334D01*
Y275394D01*
Y275453D01*
Y275513D01*
Y275573D01*
X437034D01*
Y275633D01*
X437094D01*
Y275693D01*
X437154D01*
Y275752D01*
X437214D01*
Y275812D01*
X437274D01*
Y275872D01*
X437393D01*
Y275932D01*
X438949D01*
Y275872D01*
D02*
G37*
G36*
X427161D02*
X427101D01*
Y275812D01*
Y275752D01*
Y275693D01*
Y275633D01*
Y275573D01*
X427041D01*
Y275513D01*
Y275453D01*
Y275394D01*
Y275334D01*
Y275274D01*
X426981D01*
Y275214D01*
Y275154D01*
Y275094D01*
Y275034D01*
X426922D01*
Y274975D01*
Y274915D01*
Y274855D01*
Y274795D01*
Y274735D01*
X426862D01*
Y274675D01*
Y274616D01*
Y274556D01*
Y274496D01*
Y274436D01*
X426802D01*
Y274376D01*
Y274316D01*
Y274257D01*
Y274197D01*
X426742D01*
Y274137D01*
Y274077D01*
Y274017D01*
Y273957D01*
Y273898D01*
X426682D01*
Y273838D01*
Y273778D01*
Y273718D01*
Y273658D01*
X426622D01*
Y273598D01*
Y273538D01*
Y273479D01*
Y273419D01*
Y273359D01*
X426563D01*
Y273299D01*
Y273239D01*
Y273180D01*
Y273120D01*
X426503D01*
Y273060D01*
Y273000D01*
Y272940D01*
Y272880D01*
Y272820D01*
X426443D01*
Y272761D01*
Y272701D01*
X428118D01*
Y272641D01*
Y272581D01*
X428059D01*
Y272521D01*
X427999D01*
Y272462D01*
Y272402D01*
X427939D01*
Y272342D01*
X427819D01*
Y272282D01*
X427700D01*
Y272222D01*
X427221D01*
Y272162D01*
X425725D01*
Y272222D01*
Y272282D01*
Y272342D01*
X425785D01*
Y272402D01*
Y272462D01*
Y272521D01*
Y272581D01*
Y272641D01*
X425845D01*
Y272701D01*
Y272761D01*
Y272820D01*
Y272880D01*
X425904D01*
Y272940D01*
Y273000D01*
Y273060D01*
Y273120D01*
Y273180D01*
X425964D01*
Y273239D01*
Y273299D01*
Y273359D01*
Y273419D01*
X426024D01*
Y273479D01*
Y273538D01*
Y273598D01*
Y273658D01*
Y273718D01*
X426084D01*
Y273778D01*
Y273838D01*
Y273898D01*
Y273957D01*
X426144D01*
Y274017D01*
Y274077D01*
Y274137D01*
Y274197D01*
Y274257D01*
X426204D01*
Y274316D01*
Y274376D01*
Y274436D01*
Y274496D01*
X426264D01*
Y274556D01*
Y274616D01*
Y274675D01*
Y274735D01*
X426323D01*
Y274795D01*
Y274855D01*
Y274915D01*
Y274975D01*
Y275034D01*
X426383D01*
Y275094D01*
Y275154D01*
Y275214D01*
Y275274D01*
X426443D01*
Y275334D01*
Y275394D01*
Y275453D01*
Y275513D01*
X426503D01*
Y275573D01*
Y275633D01*
X426563D01*
Y275693D01*
X426622D01*
Y275752D01*
X426682D01*
Y275812D01*
X426742D01*
Y275872D01*
X426862D01*
Y275932D01*
X427161D01*
Y275872D01*
D02*
G37*
G36*
X424827D02*
X424947D01*
Y275812D01*
X425067D01*
Y275752D01*
X425186D01*
Y275693D01*
X425246D01*
Y275633D01*
X425306D01*
Y275573D01*
X425366D01*
Y275513D01*
X425426D01*
Y275453D01*
Y275394D01*
X425486D01*
Y275334D01*
Y275274D01*
X425545D01*
Y275214D01*
Y275154D01*
Y275094D01*
Y275034D01*
Y274975D01*
Y274915D01*
Y274855D01*
Y274795D01*
Y274735D01*
Y274675D01*
Y274616D01*
Y274556D01*
X425486D01*
Y274496D01*
Y274436D01*
X425426D01*
Y274376D01*
Y274316D01*
X425366D01*
Y274257D01*
Y274197D01*
X425306D01*
Y274137D01*
X425246D01*
Y274077D01*
Y274017D01*
X425186D01*
Y273957D01*
X425067D01*
Y273898D01*
X425007D01*
Y273838D01*
X424887D01*
Y273778D01*
X424767D01*
Y273718D01*
X424588D01*
Y273658D01*
X424408D01*
Y273598D01*
Y273538D01*
X424468D01*
Y273479D01*
Y273419D01*
X424528D01*
Y273359D01*
Y273299D01*
Y273239D01*
X424588D01*
Y273180D01*
Y273120D01*
X424648D01*
Y273060D01*
Y273000D01*
Y272940D01*
X424708D01*
Y272880D01*
Y272820D01*
X424767D01*
Y272761D01*
Y272701D01*
Y272641D01*
Y272581D01*
Y272521D01*
X424708D01*
Y272462D01*
Y272402D01*
X424648D01*
Y272342D01*
X424588D01*
Y272282D01*
X424528D01*
Y272222D01*
X424349D01*
Y272162D01*
X424289D01*
Y272222D01*
Y272282D01*
Y272342D01*
X424229D01*
Y272402D01*
Y272462D01*
X424169D01*
Y272521D01*
Y272581D01*
Y272641D01*
X424109D01*
Y272701D01*
Y272761D01*
Y272820D01*
X424050D01*
Y272880D01*
Y272940D01*
X423990D01*
Y273000D01*
Y273060D01*
Y273120D01*
X423930D01*
Y273180D01*
Y273239D01*
Y273299D01*
X423870D01*
Y273359D01*
Y273419D01*
Y273479D01*
X423810D01*
Y273538D01*
Y273598D01*
X423032D01*
Y273538D01*
X422972D01*
Y273479D01*
Y273419D01*
Y273359D01*
Y273299D01*
Y273239D01*
X422913D01*
Y273180D01*
Y273120D01*
Y273060D01*
Y273000D01*
Y272940D01*
X422853D01*
Y272880D01*
Y272820D01*
Y272761D01*
Y272701D01*
X422793D01*
Y272641D01*
Y272581D01*
Y272521D01*
Y272462D01*
X422733D01*
Y272402D01*
Y272342D01*
X422673D01*
Y272282D01*
X422554D01*
Y272222D01*
X422374D01*
Y272162D01*
X422135D01*
Y272222D01*
Y272282D01*
Y272342D01*
Y272402D01*
X422194D01*
Y272462D01*
Y272521D01*
Y272581D01*
Y272641D01*
Y272701D01*
X422254D01*
Y272761D01*
Y272820D01*
Y272880D01*
Y272940D01*
Y273000D01*
X422314D01*
Y273060D01*
Y273120D01*
Y273180D01*
Y273239D01*
X422374D01*
Y273299D01*
Y273359D01*
Y273419D01*
Y273479D01*
Y273538D01*
X422434D01*
Y273598D01*
Y273658D01*
Y273718D01*
Y273778D01*
X422494D01*
Y273838D01*
Y273898D01*
Y273957D01*
Y274017D01*
Y274077D01*
X422554D01*
Y274137D01*
Y274197D01*
Y274257D01*
Y274316D01*
X422613D01*
Y274376D01*
Y274436D01*
Y274496D01*
Y274556D01*
Y274616D01*
X422673D01*
Y274675D01*
Y274735D01*
Y274795D01*
Y274855D01*
X422733D01*
Y274915D01*
Y274975D01*
Y275034D01*
Y275094D01*
X422793D01*
Y275154D01*
Y275214D01*
Y275274D01*
Y275334D01*
Y275394D01*
X422853D01*
Y275453D01*
Y275513D01*
Y275573D01*
Y275633D01*
X422913D01*
Y275693D01*
Y275752D01*
X422972D01*
Y275812D01*
X423032D01*
Y275872D01*
X423092D01*
Y275932D01*
X424827D01*
Y275872D01*
D02*
G37*
G36*
X422194D02*
X422135D01*
Y275812D01*
Y275752D01*
X422075D01*
Y275693D01*
X422015D01*
Y275633D01*
X421955D01*
Y275573D01*
X421895D01*
Y275513D01*
X421776D01*
Y275453D01*
X420160D01*
Y275394D01*
X420100D01*
Y275334D01*
Y275274D01*
Y275214D01*
Y275154D01*
X420040D01*
Y275094D01*
Y275034D01*
Y274975D01*
Y274915D01*
X419981D01*
Y274855D01*
Y274795D01*
Y274735D01*
Y274675D01*
X419921D01*
Y274616D01*
Y274556D01*
Y274496D01*
Y274436D01*
Y274376D01*
X421776D01*
Y274316D01*
Y274257D01*
X421716D01*
Y274197D01*
Y274137D01*
X421656D01*
Y274077D01*
X421596D01*
Y274017D01*
X421536D01*
Y273957D01*
X421477D01*
Y273898D01*
X421357D01*
Y273838D01*
X419741D01*
Y273778D01*
Y273718D01*
Y273658D01*
Y273598D01*
Y273538D01*
X419681D01*
Y273479D01*
Y273419D01*
Y273359D01*
Y273299D01*
X419622D01*
Y273239D01*
Y273180D01*
Y273120D01*
Y273060D01*
X419562D01*
Y273000D01*
Y272940D01*
Y272880D01*
Y272820D01*
X419502D01*
Y272761D01*
X419562D01*
Y272701D01*
X421477D01*
Y272641D01*
X421417D01*
Y272581D01*
Y272521D01*
X421357D01*
Y272462D01*
X421297D01*
Y272402D01*
X421237D01*
Y272342D01*
X421177D01*
Y272282D01*
X421058D01*
Y272222D01*
X420519D01*
Y272162D01*
X419143D01*
Y272222D01*
X418784D01*
Y272282D01*
X418844D01*
Y272342D01*
Y272402D01*
Y272462D01*
Y272521D01*
X418903D01*
Y272581D01*
Y272641D01*
Y272701D01*
Y272761D01*
Y272820D01*
X418963D01*
Y272880D01*
Y272940D01*
Y273000D01*
Y273060D01*
X419023D01*
Y273120D01*
Y273180D01*
Y273239D01*
Y273299D01*
Y273359D01*
X419083D01*
Y273419D01*
Y273479D01*
Y273538D01*
Y273598D01*
Y273658D01*
X419143D01*
Y273718D01*
Y273778D01*
Y273838D01*
Y273898D01*
X419203D01*
Y273957D01*
Y274017D01*
Y274077D01*
Y274137D01*
Y274197D01*
X419263D01*
Y274257D01*
Y274316D01*
Y274376D01*
Y274436D01*
X419322D01*
Y274496D01*
Y274556D01*
Y274616D01*
Y274675D01*
Y274735D01*
X419382D01*
Y274795D01*
Y274855D01*
Y274915D01*
Y274975D01*
X419442D01*
Y275034D01*
Y275094D01*
Y275154D01*
Y275214D01*
X419502D01*
Y275274D01*
Y275334D01*
Y275394D01*
Y275453D01*
X419562D01*
Y275513D01*
Y275573D01*
Y275633D01*
X419622D01*
Y275693D01*
X419681D01*
Y275752D01*
X419741D01*
Y275812D01*
X419801D01*
Y275872D01*
X419981D01*
Y275932D01*
X422194D01*
Y275872D01*
D02*
G37*
G36*
X418963D02*
Y275812D01*
X418903D01*
Y275752D01*
Y275693D01*
X418844D01*
Y275633D01*
X418784D01*
Y275573D01*
X418724D01*
Y275513D01*
X418604D01*
Y275453D01*
X418305D01*
Y275394D01*
X417707D01*
Y275334D01*
Y275274D01*
Y275214D01*
X417647D01*
Y275154D01*
Y275094D01*
Y275034D01*
Y274975D01*
Y274915D01*
X417587D01*
Y274855D01*
Y274795D01*
Y274735D01*
Y274675D01*
X417527D01*
Y274616D01*
Y274556D01*
Y274496D01*
Y274436D01*
Y274376D01*
X417467D01*
Y274316D01*
Y274257D01*
Y274197D01*
Y274137D01*
X417408D01*
Y274077D01*
Y274017D01*
Y273957D01*
Y273898D01*
Y273838D01*
X417348D01*
Y273778D01*
Y273718D01*
Y273658D01*
Y273598D01*
X417288D01*
Y273538D01*
Y273479D01*
Y273419D01*
Y273359D01*
X417228D01*
Y273299D01*
Y273239D01*
Y273180D01*
Y273120D01*
Y273060D01*
X417168D01*
Y273000D01*
Y272940D01*
Y272880D01*
Y272820D01*
X417108D01*
Y272761D01*
Y272701D01*
Y272641D01*
Y272581D01*
X417049D01*
Y272521D01*
X416989D01*
Y272462D01*
Y272402D01*
X416929D01*
Y272342D01*
X416809D01*
Y272282D01*
X416749D01*
Y272222D01*
X416510D01*
Y272162D01*
X416390D01*
Y272222D01*
Y272282D01*
Y272342D01*
X416450D01*
Y272402D01*
Y272462D01*
Y272521D01*
Y272581D01*
X416510D01*
Y272641D01*
Y272701D01*
Y272761D01*
Y272820D01*
Y272880D01*
X416570D01*
Y272940D01*
Y273000D01*
Y273060D01*
Y273120D01*
X416630D01*
Y273180D01*
Y273239D01*
Y273299D01*
Y273359D01*
Y273419D01*
X416689D01*
Y273479D01*
Y273538D01*
Y273598D01*
Y273658D01*
X416749D01*
Y273718D01*
Y273778D01*
Y273838D01*
Y273898D01*
Y273957D01*
X416809D01*
Y274017D01*
Y274077D01*
Y274137D01*
Y274197D01*
Y274257D01*
X416869D01*
Y274316D01*
Y274376D01*
Y274436D01*
Y274496D01*
X416929D01*
Y274556D01*
Y274616D01*
Y274675D01*
Y274735D01*
Y274795D01*
X416989D01*
Y274855D01*
Y274915D01*
Y274975D01*
Y275034D01*
X417049D01*
Y275094D01*
Y275154D01*
Y275214D01*
Y275274D01*
X417108D01*
Y275334D01*
Y275394D01*
X415972D01*
Y275453D01*
Y275513D01*
X416031D01*
Y275573D01*
Y275633D01*
X416091D01*
Y275693D01*
X416151D01*
Y275752D01*
X416211D01*
Y275812D01*
X416271D01*
Y275872D01*
X416390D01*
Y275932D01*
X418963D01*
Y275872D01*
D02*
G37*
G36*
X414715D02*
Y275812D01*
Y275752D01*
Y275693D01*
X414775D01*
Y275633D01*
Y275573D01*
Y275513D01*
Y275453D01*
Y275394D01*
Y275334D01*
X414835D01*
Y275274D01*
Y275214D01*
Y275154D01*
Y275094D01*
Y275034D01*
X414894D01*
Y274975D01*
Y274915D01*
Y274855D01*
Y274795D01*
Y274735D01*
Y274675D01*
X414954D01*
Y274616D01*
Y274556D01*
Y274496D01*
Y274436D01*
Y274376D01*
X415014D01*
Y274316D01*
Y274257D01*
Y274197D01*
Y274137D01*
Y274077D01*
Y274017D01*
X415074D01*
Y273957D01*
Y273898D01*
Y273838D01*
Y273778D01*
Y273718D01*
Y273658D01*
X415134D01*
Y273598D01*
Y273538D01*
Y273479D01*
Y273419D01*
Y273359D01*
X415194D01*
Y273299D01*
Y273239D01*
Y273180D01*
Y273120D01*
Y273060D01*
Y273000D01*
Y272940D01*
X415253D01*
Y272880D01*
Y272820D01*
Y272761D01*
Y272701D01*
Y272641D01*
Y272581D01*
Y272521D01*
X415194D01*
Y272462D01*
X415134D01*
Y272402D01*
Y272342D01*
X415074D01*
Y272282D01*
X414954D01*
Y272222D01*
X414775D01*
Y272162D01*
X414715D01*
Y272222D01*
Y272282D01*
Y272342D01*
Y272402D01*
Y272462D01*
X414655D01*
Y272521D01*
Y272581D01*
Y272641D01*
Y272701D01*
Y272761D01*
Y272820D01*
X414595D01*
Y272880D01*
Y272940D01*
X412740D01*
Y272880D01*
X412680D01*
Y272820D01*
Y272761D01*
X412621D01*
Y272701D01*
Y272641D01*
X412561D01*
Y272581D01*
X412501D01*
Y272521D01*
Y272462D01*
X412441D01*
Y272402D01*
X412381D01*
Y272342D01*
Y272282D01*
X412262D01*
Y272222D01*
X412082D01*
Y272162D01*
X411663D01*
Y272222D01*
Y272282D01*
Y272342D01*
X411723D01*
Y272402D01*
X411783D01*
Y272462D01*
Y272521D01*
X411843D01*
Y272581D01*
Y272641D01*
X411903D01*
Y272701D01*
X411962D01*
Y272761D01*
Y272820D01*
X412022D01*
Y272880D01*
Y272940D01*
X412082D01*
Y273000D01*
X412142D01*
Y273060D01*
Y273120D01*
X412202D01*
Y273180D01*
X412262D01*
Y273239D01*
Y273299D01*
X412321D01*
Y273359D01*
Y273419D01*
X412381D01*
Y273479D01*
X412441D01*
Y273538D01*
Y273598D01*
X412501D01*
Y273658D01*
Y273718D01*
X412561D01*
Y273778D01*
X412621D01*
Y273838D01*
Y273898D01*
X412680D01*
Y273957D01*
X412740D01*
Y274017D01*
Y274077D01*
X412800D01*
Y274137D01*
Y274197D01*
X412860D01*
Y274257D01*
X412920D01*
Y274316D01*
Y274376D01*
X412980D01*
Y274436D01*
X413039D01*
Y274496D01*
Y274556D01*
X413099D01*
Y274616D01*
Y274675D01*
X413159D01*
Y274735D01*
X413219D01*
Y274795D01*
Y274855D01*
X413279D01*
Y274915D01*
Y274975D01*
X413339D01*
Y275034D01*
X413399D01*
Y275094D01*
Y275154D01*
X413458D01*
Y275214D01*
X413518D01*
Y275274D01*
Y275334D01*
X413578D01*
Y275394D01*
Y275453D01*
X413638D01*
Y275513D01*
X413698D01*
Y275573D01*
Y275633D01*
X413758D01*
Y275693D01*
Y275752D01*
X413817D01*
Y275812D01*
X413877D01*
Y275872D01*
X413997D01*
Y275932D01*
X414715D01*
Y275872D01*
D02*
G37*
G36*
X412621Y277189D02*
X412680D01*
Y277129D01*
X412621D01*
Y277069D01*
X412561D01*
Y277009D01*
Y276949D01*
X412501D01*
Y276889D01*
Y276830D01*
X412441D01*
Y276770D01*
X412381D01*
Y276710D01*
Y276650D01*
X412321D01*
Y276590D01*
Y276530D01*
X412262D01*
Y276471D01*
X412202D01*
Y276411D01*
Y276351D01*
X412142D01*
Y276291D01*
Y276231D01*
X412082D01*
Y276171D01*
X412022D01*
Y276112D01*
Y276052D01*
X411962D01*
Y275992D01*
X411903D01*
Y275932D01*
Y275872D01*
X411843D01*
Y275812D01*
Y275752D01*
X411783D01*
Y275693D01*
X411723D01*
Y275633D01*
Y275573D01*
X411663D01*
Y275513D01*
Y275453D01*
X411603D01*
Y275394D01*
X411544D01*
Y275334D01*
Y275274D01*
X411484D01*
Y275214D01*
Y275154D01*
X411424D01*
Y275094D01*
X411364D01*
Y275034D01*
Y274975D01*
X411304D01*
Y274915D01*
X411244D01*
Y274855D01*
Y274795D01*
X411185D01*
Y274735D01*
Y274675D01*
X411125D01*
Y274616D01*
X411065D01*
Y274556D01*
Y274496D01*
X411005D01*
Y274436D01*
Y274376D01*
X410945D01*
Y274316D01*
X410885D01*
Y274257D01*
Y274197D01*
X410825D01*
Y274137D01*
X410766D01*
Y274077D01*
Y274017D01*
X410706D01*
Y273957D01*
Y273898D01*
X410646D01*
Y273838D01*
X410586D01*
Y273778D01*
Y273718D01*
X410526D01*
Y273658D01*
Y273598D01*
X410466D01*
Y273538D01*
X410407D01*
Y273479D01*
Y273419D01*
X410347D01*
Y273359D01*
X410287D01*
Y273299D01*
Y273239D01*
X410227D01*
Y273180D01*
Y273120D01*
X410167D01*
Y273060D01*
X410108D01*
Y273000D01*
Y272940D01*
X410048D01*
Y272880D01*
Y272820D01*
X409988D01*
Y272761D01*
X409928D01*
Y272701D01*
Y272641D01*
X409868D01*
Y272581D01*
X409808D01*
Y272521D01*
X409748D01*
Y272462D01*
X409689D01*
Y272402D01*
X409569D01*
Y272342D01*
X409449D01*
Y272282D01*
X409330D01*
Y272222D01*
X408911D01*
Y272162D01*
X408372D01*
Y272222D01*
Y272282D01*
Y272342D01*
X408432D01*
Y272402D01*
X408492D01*
Y272462D01*
Y272521D01*
X408552D01*
Y272581D01*
Y272641D01*
X408611D01*
Y272701D01*
X408671D01*
Y272761D01*
Y272820D01*
X408731D01*
Y272880D01*
Y272940D01*
X408791D01*
Y273000D01*
X408851D01*
Y273060D01*
Y273120D01*
X408911D01*
Y273180D01*
Y273239D01*
X408971D01*
Y273299D01*
X409030D01*
Y273359D01*
Y273419D01*
X409090D01*
Y273479D01*
X409150D01*
Y273538D01*
Y273598D01*
X409210D01*
Y273658D01*
Y273718D01*
X409270D01*
Y273778D01*
X409330D01*
Y273838D01*
Y273898D01*
X409389D01*
Y273957D01*
Y274017D01*
X409449D01*
Y274077D01*
X409509D01*
Y274137D01*
Y274197D01*
X409569D01*
Y274257D01*
X409629D01*
Y274316D01*
Y274376D01*
X409689D01*
Y274436D01*
Y274496D01*
X409748D01*
Y274556D01*
X409808D01*
Y274616D01*
Y274675D01*
X409868D01*
Y274735D01*
Y274795D01*
X409928D01*
Y274855D01*
X409988D01*
Y274915D01*
Y274975D01*
X410048D01*
Y275034D01*
X410108D01*
Y275094D01*
Y275154D01*
X410167D01*
Y275214D01*
Y275274D01*
X410227D01*
Y275334D01*
X410287D01*
Y275394D01*
Y275453D01*
X410347D01*
Y275513D01*
X410407D01*
Y275573D01*
Y275633D01*
X410466D01*
Y275693D01*
Y275752D01*
X410526D01*
Y275812D01*
X410586D01*
Y275872D01*
Y275932D01*
X410646D01*
Y275992D01*
Y276052D01*
X410706D01*
Y276112D01*
X410766D01*
Y276171D01*
Y276231D01*
X410825D01*
Y276291D01*
X410885D01*
Y276351D01*
Y276411D01*
X410945D01*
Y276471D01*
Y276530D01*
X411005D01*
Y276590D01*
X411065D01*
Y276650D01*
Y276710D01*
X411125D01*
Y276770D01*
X411185D01*
Y276830D01*
Y276889D01*
X411244D01*
Y276949D01*
X411364D01*
Y277009D01*
X411424D01*
Y277069D01*
X411544D01*
Y277129D01*
X411663D01*
Y277189D01*
X412202D01*
Y277248D01*
X412621D01*
Y277189D01*
D02*
G37*
G36*
X409389D02*
Y277129D01*
X409330D01*
Y277069D01*
Y277009D01*
X409270D01*
Y276949D01*
X409210D01*
Y276889D01*
Y276830D01*
X409150D01*
Y276770D01*
Y276710D01*
X409090D01*
Y276650D01*
X409030D01*
Y276590D01*
Y276530D01*
X408971D01*
Y276471D01*
Y276411D01*
X408911D01*
Y276351D01*
X408851D01*
Y276291D01*
Y276231D01*
X408791D01*
Y276171D01*
Y276112D01*
X408731D01*
Y276052D01*
X408671D01*
Y275992D01*
Y275932D01*
X408611D01*
Y275872D01*
Y275812D01*
X408552D01*
Y275752D01*
X408492D01*
Y275693D01*
Y275633D01*
X408432D01*
Y275573D01*
X408372D01*
Y275513D01*
Y275453D01*
X408312D01*
Y275394D01*
Y275334D01*
X408252D01*
Y275274D01*
X408193D01*
Y275214D01*
Y275154D01*
X408133D01*
Y275094D01*
Y275034D01*
X408073D01*
Y274975D01*
X408013D01*
Y274915D01*
Y274855D01*
X407953D01*
Y274795D01*
Y274735D01*
X407894D01*
Y274675D01*
X407834D01*
Y274616D01*
Y274556D01*
X407774D01*
Y274496D01*
X407714D01*
Y274436D01*
Y274376D01*
X407654D01*
Y274316D01*
Y274257D01*
X407594D01*
Y274197D01*
X407535D01*
Y274137D01*
Y274077D01*
X407475D01*
Y274017D01*
Y273957D01*
X407415D01*
Y273898D01*
X407355D01*
Y273838D01*
Y273778D01*
X407295D01*
Y273718D01*
X407235D01*
Y273658D01*
Y273598D01*
X407175D01*
Y273538D01*
Y273479D01*
X407116D01*
Y273419D01*
X407056D01*
Y273359D01*
Y273299D01*
X406996D01*
Y273239D01*
Y273180D01*
X406936D01*
Y273120D01*
X406876D01*
Y273060D01*
Y273000D01*
X406816D01*
Y272940D01*
X406757D01*
Y272880D01*
Y272820D01*
X406697D01*
Y272761D01*
X406637D01*
Y272701D01*
Y272641D01*
X406577D01*
Y272581D01*
X406517D01*
Y272521D01*
X406457D01*
Y272462D01*
X406398D01*
Y272402D01*
X406278D01*
Y272342D01*
X406218D01*
Y272282D01*
X406039D01*
Y272222D01*
X405680D01*
Y272162D01*
X405081D01*
Y272222D01*
Y272282D01*
X405141D01*
Y272342D01*
Y272402D01*
X405201D01*
Y272462D01*
X405261D01*
Y272521D01*
Y272581D01*
X405321D01*
Y272641D01*
Y272701D01*
X405380D01*
Y272761D01*
X405440D01*
Y272820D01*
Y272880D01*
X405500D01*
Y272940D01*
Y273000D01*
X405560D01*
Y273060D01*
X405620D01*
Y273120D01*
Y273180D01*
X405680D01*
Y273239D01*
X405739D01*
Y273299D01*
Y273359D01*
X405799D01*
Y273419D01*
Y273479D01*
X405859D01*
Y273538D01*
X405919D01*
Y273598D01*
Y273658D01*
X405979D01*
Y273718D01*
Y273778D01*
X406039D01*
Y273838D01*
X406098D01*
Y273898D01*
Y273957D01*
X406158D01*
Y274017D01*
Y274077D01*
X406218D01*
Y274137D01*
X406278D01*
Y274197D01*
Y274257D01*
X406338D01*
Y274316D01*
X406398D01*
Y274376D01*
Y274436D01*
X406457D01*
Y274496D01*
Y274556D01*
X406517D01*
Y274616D01*
X406577D01*
Y274675D01*
Y274735D01*
X406637D01*
Y274795D01*
Y274855D01*
X406697D01*
Y274915D01*
X406757D01*
Y274975D01*
Y275034D01*
X406816D01*
Y275094D01*
X406876D01*
Y275154D01*
Y275214D01*
X406936D01*
Y275274D01*
Y275334D01*
X406996D01*
Y275394D01*
X407056D01*
Y275453D01*
Y275513D01*
X407116D01*
Y275573D01*
Y275633D01*
X407175D01*
Y275693D01*
X407235D01*
Y275752D01*
Y275812D01*
X407295D01*
Y275872D01*
X407355D01*
Y275932D01*
Y275992D01*
X407415D01*
Y276052D01*
Y276112D01*
X407475D01*
Y276171D01*
X407535D01*
Y276231D01*
Y276291D01*
X407594D01*
Y276351D01*
Y276411D01*
X407654D01*
Y276471D01*
X407714D01*
Y276530D01*
Y276590D01*
X407774D01*
Y276650D01*
Y276710D01*
X407834D01*
Y276770D01*
X407894D01*
Y276830D01*
X407953D01*
Y276889D01*
X408013D01*
Y276949D01*
X408073D01*
Y277009D01*
X408193D01*
Y277069D01*
X408252D01*
Y277129D01*
X408432D01*
Y277189D01*
X408911D01*
Y277248D01*
X409389D01*
Y277189D01*
D02*
G37*
%LPC*%
G36*
X304713Y343229D02*
X304148D01*
Y343166D01*
X303960D01*
Y343104D01*
X303897D01*
Y343041D01*
X303772D01*
Y342978D01*
Y342916D01*
Y342853D01*
Y342790D01*
X303835D01*
Y342727D01*
Y342665D01*
Y342602D01*
Y342539D01*
Y342477D01*
Y342414D01*
Y342351D01*
Y342288D01*
Y342226D01*
Y342163D01*
Y342100D01*
X303897D01*
Y342037D01*
Y341975D01*
Y341912D01*
Y341849D01*
X303960D01*
Y341787D01*
X303897D01*
Y341724D01*
X303960D01*
Y341661D01*
Y341598D01*
Y341536D01*
X304023D01*
Y341473D01*
X304085D01*
Y341410D01*
Y341347D01*
X304399D01*
Y341410D01*
X304462D01*
Y341473D01*
X304587D01*
Y341536D01*
X304650D01*
Y341598D01*
X304713D01*
Y341661D01*
X304775D01*
Y341724D01*
X304838D01*
Y341787D01*
Y341849D01*
X304964D01*
Y341912D01*
Y341975D01*
X305026D01*
Y342037D01*
Y342100D01*
Y342163D01*
X305089D01*
Y342226D01*
Y342288D01*
Y342351D01*
X305152D01*
Y342414D01*
Y342477D01*
Y342539D01*
Y342602D01*
Y342665D01*
Y342727D01*
Y342790D01*
Y342853D01*
X305089D01*
Y342916D01*
X305026D01*
Y342978D01*
Y343041D01*
X304964D01*
Y343104D01*
X304838D01*
Y343166D01*
X304713D01*
Y343229D01*
D02*
G37*
G36*
X301953Y342226D02*
X301576D01*
Y342163D01*
X301388D01*
Y342100D01*
X301263D01*
Y342037D01*
X301137D01*
Y341975D01*
X301075D01*
Y341912D01*
X301012D01*
Y341849D01*
Y341787D01*
X300949D01*
Y341724D01*
Y341661D01*
Y341598D01*
Y341536D01*
Y341473D01*
Y341410D01*
Y341347D01*
Y341285D01*
Y341222D01*
Y341159D01*
X301012D01*
Y341096D01*
Y341034D01*
Y340971D01*
X301075D01*
Y340908D01*
Y340846D01*
X301200D01*
Y340783D01*
X301137D01*
Y340720D01*
X301263D01*
Y340657D01*
Y340595D01*
X301325D01*
Y340532D01*
X301388D01*
Y340469D01*
X301451D01*
Y340406D01*
X301514D01*
Y340344D01*
X301576D01*
Y340281D01*
X301702D01*
Y340218D01*
X301827D01*
Y340156D01*
X301953D01*
Y340093D01*
X302141D01*
Y340030D01*
X302266D01*
Y340093D01*
X302517D01*
Y340156D01*
X302580D01*
Y340218D01*
Y340281D01*
Y340344D01*
Y340406D01*
Y340469D01*
Y340532D01*
Y340595D01*
Y340657D01*
Y340720D01*
Y340783D01*
Y340846D01*
X302643D01*
Y340908D01*
Y340971D01*
Y341034D01*
X302580D01*
Y341096D01*
Y341159D01*
Y341222D01*
Y341285D01*
Y341347D01*
Y341410D01*
Y341473D01*
Y341536D01*
Y341598D01*
X302517D01*
Y341661D01*
Y341724D01*
X302454D01*
Y341787D01*
X302392D01*
Y341849D01*
Y341912D01*
X302329D01*
Y341975D01*
Y342037D01*
X302204D01*
Y342100D01*
X302078D01*
Y342163D01*
X301953D01*
Y342226D01*
D02*
G37*
G36*
X303646Y343041D02*
X303395D01*
Y342978D01*
X303019D01*
Y342916D01*
X302768D01*
Y342853D01*
X302643D01*
Y342790D01*
X302454D01*
Y342727D01*
X302329D01*
Y342665D01*
X302204D01*
Y342602D01*
X302078D01*
Y342539D01*
X302015D01*
Y342477D01*
X301890D01*
Y342414D01*
Y342351D01*
X302078D01*
Y342288D01*
X302266D01*
Y342226D01*
X302329D01*
Y342163D01*
X302392D01*
Y342100D01*
X302454D01*
Y342037D01*
X302517D01*
Y341975D01*
Y341912D01*
X302580D01*
Y341849D01*
X302643D01*
Y341787D01*
Y341724D01*
Y341661D01*
X302705D01*
Y341598D01*
Y341536D01*
Y341473D01*
X302768D01*
Y341410D01*
Y341347D01*
Y341285D01*
X302831D01*
Y341222D01*
X302768D01*
Y341159D01*
Y341096D01*
Y341034D01*
Y340971D01*
Y340908D01*
Y340846D01*
Y340783D01*
Y340720D01*
Y340657D01*
X302831D01*
Y340595D01*
X302768D01*
Y340532D01*
Y340469D01*
Y340406D01*
Y340344D01*
Y340281D01*
X302705D01*
Y340218D01*
Y340156D01*
Y340093D01*
Y340030D01*
X302643D01*
Y339967D01*
X302454D01*
Y339905D01*
X301953D01*
Y339967D01*
X301764D01*
Y340030D01*
X301702D01*
Y340093D01*
X301576D01*
Y340156D01*
X301514D01*
Y340218D01*
X301388D01*
Y340281D01*
X301325D01*
Y340344D01*
X301263D01*
Y340406D01*
X301200D01*
Y340469D01*
X301137D01*
Y340532D01*
Y340595D01*
X301075D01*
Y340657D01*
Y340720D01*
X301012D01*
Y340783D01*
X300949D01*
Y340846D01*
Y340908D01*
Y340971D01*
X300886D01*
Y341034D01*
X300823D01*
Y341096D01*
Y341159D01*
X300761D01*
Y341222D01*
Y341285D01*
Y341347D01*
Y341410D01*
X300635D01*
Y341347D01*
X300573D01*
Y341285D01*
X300510D01*
Y341222D01*
X300447D01*
Y341159D01*
X300384D01*
Y341096D01*
Y341034D01*
X300322D01*
Y340971D01*
X300259D01*
Y340908D01*
X300196D01*
Y340846D01*
Y340783D01*
X300071D01*
Y340720D01*
Y340657D01*
X300008D01*
Y340595D01*
X299945D01*
Y340532D01*
Y340469D01*
X299883D01*
Y340406D01*
Y340344D01*
X299820D01*
Y340281D01*
X299757D01*
Y340218D01*
Y340156D01*
X299694D01*
Y340093D01*
Y340030D01*
Y339967D01*
X299632D01*
Y339905D01*
X299569D01*
Y339842D01*
Y339779D01*
Y339717D01*
X299506D01*
Y339654D01*
X299444D01*
Y339591D01*
Y339528D01*
Y339466D01*
X299381D01*
Y339403D01*
Y339340D01*
Y339277D01*
X299318D01*
Y339215D01*
Y339152D01*
X299255D01*
Y339089D01*
Y339026D01*
Y338964D01*
X299193D01*
Y338901D01*
Y338838D01*
Y338776D01*
Y338713D01*
Y338650D01*
X299130D01*
Y338587D01*
Y338525D01*
X299067D01*
Y338462D01*
Y338399D01*
Y338336D01*
Y338274D01*
Y338211D01*
Y338148D01*
X299005D01*
Y338086D01*
Y338023D01*
Y337960D01*
Y337897D01*
X298942D01*
Y337835D01*
Y337772D01*
Y337709D01*
Y337647D01*
X298879D01*
Y337584D01*
Y337521D01*
Y337458D01*
X298942D01*
Y337396D01*
X299130D01*
Y337333D01*
X299193D01*
Y337270D01*
X299318D01*
Y337207D01*
X299444D01*
Y337145D01*
X299506D01*
Y337082D01*
X299632D01*
Y337019D01*
X299694D01*
Y336957D01*
X299883D01*
Y336894D01*
X299945D01*
Y336831D01*
X300008D01*
Y336768D01*
X300196D01*
Y336706D01*
X300259D01*
Y336643D01*
X300447D01*
Y336580D01*
X300573D01*
Y336517D01*
X300698D01*
Y336455D01*
X300949D01*
Y336392D01*
X301075D01*
Y336329D01*
X301263D01*
Y336266D01*
X301639D01*
Y336204D01*
X301890D01*
Y336141D01*
X302517D01*
Y336078D01*
X304336D01*
Y336141D01*
X305026D01*
Y336204D01*
X305277D01*
Y336266D01*
X305716D01*
Y336329D01*
X305905D01*
Y336392D01*
X306155D01*
Y336455D01*
X306406D01*
Y336517D01*
X306532D01*
Y336580D01*
Y336643D01*
Y336706D01*
Y336768D01*
Y336831D01*
Y336894D01*
Y336957D01*
Y337019D01*
Y337082D01*
Y337145D01*
Y337207D01*
Y337270D01*
Y337333D01*
Y337396D01*
Y337458D01*
Y337521D01*
Y337584D01*
Y337647D01*
Y337709D01*
Y337772D01*
Y337835D01*
Y337897D01*
Y337960D01*
Y338023D01*
Y338086D01*
Y338148D01*
Y338211D01*
Y338274D01*
Y338336D01*
Y338399D01*
Y338462D01*
Y338525D01*
Y338587D01*
Y338650D01*
Y338713D01*
X306469D01*
Y338776D01*
Y338838D01*
Y338901D01*
Y338964D01*
Y339026D01*
X306406D01*
Y338964D01*
X305842D01*
Y339026D01*
X305591D01*
Y339089D01*
X305403D01*
Y339152D01*
X305340D01*
Y339215D01*
X305215D01*
Y339277D01*
X305152D01*
Y339340D01*
X305026D01*
Y339403D01*
X304964D01*
Y339466D01*
X304901D01*
Y339528D01*
X304838D01*
Y339591D01*
Y339654D01*
X304775D01*
Y339717D01*
X304713D01*
Y339779D01*
X304650D01*
Y339842D01*
Y339905D01*
X304587D01*
Y339967D01*
X304524D01*
Y340030D01*
Y340093D01*
Y340156D01*
Y340218D01*
X304587D01*
Y340281D01*
X304650D01*
Y340344D01*
X304713D01*
Y340406D01*
X304775D01*
Y340469D01*
X304838D01*
Y340532D01*
X304964D01*
Y340595D01*
X305026D01*
Y340657D01*
X305152D01*
Y340720D01*
X305340D01*
Y340783D01*
X305528D01*
Y340846D01*
X305967D01*
Y340783D01*
X306155D01*
Y340846D01*
Y340908D01*
X306093D01*
Y340971D01*
Y341034D01*
X306030D01*
Y341096D01*
X305967D01*
Y341159D01*
Y341222D01*
Y341285D01*
X305905D01*
Y341347D01*
Y341410D01*
X305842D01*
Y341473D01*
Y341536D01*
Y341598D01*
X305779D01*
Y341661D01*
X305716D01*
Y341724D01*
Y341787D01*
X305654D01*
Y341849D01*
X305591D01*
Y341912D01*
X305528D01*
Y341975D01*
X305465D01*
Y342037D01*
X305528D01*
Y342100D01*
X305403D01*
Y342163D01*
X305340D01*
Y342226D01*
X305215D01*
Y342163D01*
Y342100D01*
Y342037D01*
X305152D01*
Y341975D01*
Y341912D01*
X305089D01*
Y341849D01*
Y341787D01*
Y341724D01*
X304964D01*
Y341661D01*
X304901D01*
Y341598D01*
Y341536D01*
X304838D01*
Y341473D01*
X304775D01*
Y341410D01*
X304650D01*
Y341347D01*
X304587D01*
Y341285D01*
X304462D01*
Y341222D01*
X304336D01*
Y341159D01*
X304211D01*
Y341096D01*
X304023D01*
Y341159D01*
Y341222D01*
Y341285D01*
X303897D01*
Y341347D01*
Y341410D01*
Y341473D01*
Y341536D01*
X303835D01*
Y341598D01*
X303772D01*
Y341661D01*
Y341724D01*
Y341787D01*
X303709D01*
Y341849D01*
Y341912D01*
Y341975D01*
Y342037D01*
Y342100D01*
Y342163D01*
Y342226D01*
Y342288D01*
Y342351D01*
Y342414D01*
X303646D01*
Y342477D01*
Y342539D01*
Y342602D01*
Y342665D01*
Y342727D01*
Y342790D01*
Y342853D01*
Y342916D01*
Y342978D01*
Y343041D01*
D02*
G37*
G36*
X306030Y340657D02*
X305465D01*
Y340595D01*
X305340D01*
Y340532D01*
X305215D01*
Y340469D01*
X305026D01*
Y340406D01*
X304964D01*
Y340344D01*
X304901D01*
Y340281D01*
X304838D01*
Y340218D01*
X304713D01*
Y340156D01*
Y340093D01*
Y340030D01*
Y339967D01*
X304775D01*
Y339905D01*
Y339842D01*
X304901D01*
Y339779D01*
Y339717D01*
X304964D01*
Y339654D01*
X305026D01*
Y339591D01*
X305089D01*
Y339528D01*
X305152D01*
Y339466D01*
X305215D01*
Y339403D01*
X305340D01*
Y339340D01*
X305465D01*
Y339277D01*
X305528D01*
Y339215D01*
X305779D01*
Y339152D01*
X305967D01*
Y339089D01*
X306218D01*
Y339152D01*
X306406D01*
Y339215D01*
X306469D01*
Y339277D01*
X306532D01*
Y339340D01*
Y339403D01*
X306594D01*
Y339466D01*
X306657D01*
Y339528D01*
Y339591D01*
Y339654D01*
Y339717D01*
Y339779D01*
X306720D01*
Y339842D01*
Y339905D01*
Y339967D01*
Y340030D01*
X306657D01*
Y340093D01*
Y340156D01*
Y340218D01*
X306532D01*
Y340281D01*
X306469D01*
Y340344D01*
X306406D01*
Y340406D01*
X306344D01*
Y340469D01*
X306281D01*
Y340532D01*
X306155D01*
Y340595D01*
X306030D01*
Y340657D01*
D02*
G37*
G36*
X318889Y345111D02*
X317635D01*
Y345048D01*
X316631D01*
Y344986D01*
X316255D01*
Y344923D01*
X315878D01*
Y344860D01*
X315439D01*
Y344797D01*
X315251D01*
Y344735D01*
X315000D01*
Y344672D01*
X314875D01*
Y344609D01*
Y344547D01*
Y344484D01*
X314812D01*
Y344421D01*
X314875D01*
Y344358D01*
X314812D01*
Y344296D01*
Y344233D01*
X314749D01*
Y344170D01*
Y344107D01*
Y344045D01*
X314686D01*
Y343982D01*
Y343919D01*
Y343857D01*
Y343794D01*
Y343731D01*
X314624D01*
Y343668D01*
Y343606D01*
X314561D01*
Y343543D01*
Y343480D01*
X314498D01*
Y343417D01*
Y343355D01*
X314561D01*
Y343292D01*
X314498D01*
Y343229D01*
Y343166D01*
Y343104D01*
X314436D01*
Y343041D01*
Y342978D01*
Y342916D01*
X314373D01*
Y342853D01*
Y342790D01*
Y342727D01*
Y342665D01*
Y342602D01*
X314310D01*
Y342539D01*
Y342477D01*
X314247D01*
Y342414D01*
Y342351D01*
Y342288D01*
X314184D01*
Y342226D01*
Y342163D01*
Y342100D01*
Y342037D01*
Y341975D01*
X314122D01*
Y341912D01*
Y341849D01*
Y341787D01*
X314059D01*
Y341724D01*
Y341661D01*
Y341598D01*
X313996D01*
Y341536D01*
Y341473D01*
Y341410D01*
Y341347D01*
Y341285D01*
X313934D01*
Y341222D01*
Y341159D01*
Y341096D01*
X313871D01*
Y341034D01*
Y340971D01*
Y340908D01*
Y340846D01*
Y340783D01*
Y340720D01*
X313808D01*
Y340657D01*
Y340595D01*
X313745D01*
Y340532D01*
Y340469D01*
Y340406D01*
X313683D01*
Y340344D01*
Y340281D01*
X313745D01*
Y340218D01*
X313683D01*
Y340156D01*
Y340093D01*
Y340030D01*
Y339967D01*
X313620D01*
Y339905D01*
Y339842D01*
X313557D01*
Y339779D01*
Y339717D01*
Y339654D01*
Y339591D01*
Y339528D01*
Y339466D01*
X313494D01*
Y339403D01*
Y339340D01*
Y339277D01*
X313432D01*
Y339215D01*
Y339152D01*
Y339089D01*
Y339026D01*
X313369D01*
Y338964D01*
Y338901D01*
Y338838D01*
Y338776D01*
Y338713D01*
Y338650D01*
X313306D01*
Y338587D01*
Y338525D01*
X313244D01*
Y338462D01*
Y338399D01*
Y338336D01*
Y338274D01*
X313181D01*
Y338211D01*
Y338148D01*
X313244D01*
Y338086D01*
X313181D01*
Y338023D01*
Y337960D01*
Y337897D01*
Y337835D01*
X313118D01*
Y337772D01*
Y337709D01*
X313055D01*
Y337647D01*
Y337584D01*
Y337521D01*
Y337458D01*
Y337396D01*
Y337333D01*
X312993D01*
Y337270D01*
Y337207D01*
Y337145D01*
Y337082D01*
X312930D01*
Y337019D01*
Y336957D01*
Y336894D01*
X312867D01*
Y336831D01*
Y336768D01*
Y336706D01*
Y336643D01*
Y336580D01*
Y336517D01*
Y336455D01*
X312805D01*
Y336392D01*
Y336329D01*
Y336266D01*
Y336204D01*
X312742D01*
Y336141D01*
Y336078D01*
Y336016D01*
Y335953D01*
Y335890D01*
Y335827D01*
X312679D01*
Y335765D01*
Y335702D01*
Y335639D01*
Y335577D01*
X312616D01*
Y335514D01*
Y335451D01*
Y335388D01*
X312554D01*
Y335326D01*
Y335263D01*
Y335200D01*
Y335137D01*
Y335075D01*
Y335012D01*
Y334949D01*
X312491D01*
Y334887D01*
Y334824D01*
Y334761D01*
Y334698D01*
Y334636D01*
X312428D01*
Y334573D01*
Y334510D01*
Y334447D01*
X312366D01*
Y334385D01*
Y334322D01*
Y334259D01*
X312428D01*
Y334196D01*
X312366D01*
Y334134D01*
Y334071D01*
Y334008D01*
X312303D01*
Y333946D01*
Y333883D01*
Y333820D01*
Y333757D01*
X312240D01*
Y333695D01*
Y333632D01*
Y333569D01*
Y333506D01*
Y333444D01*
Y333381D01*
Y333318D01*
Y333256D01*
Y333193D01*
X312177D01*
Y333130D01*
Y333067D01*
Y333005D01*
Y332942D01*
X312115D01*
Y332879D01*
Y332817D01*
Y332754D01*
Y332691D01*
X312052D01*
Y332628D01*
Y332565D01*
Y332503D01*
Y332440D01*
X312115D01*
Y332377D01*
X312052D01*
Y332315D01*
Y332252D01*
X311989D01*
Y332189D01*
X311864D01*
Y332252D01*
Y332315D01*
Y332377D01*
Y332440D01*
Y332503D01*
Y332565D01*
Y332628D01*
Y332691D01*
X311926D01*
Y332754D01*
Y332817D01*
Y332879D01*
X311989D01*
Y332942D01*
Y333005D01*
Y333067D01*
Y333130D01*
Y333193D01*
Y333256D01*
X312052D01*
Y333318D01*
Y333381D01*
X311989D01*
Y333444D01*
X312052D01*
Y333506D01*
Y333569D01*
Y333632D01*
Y333695D01*
Y333757D01*
X312115D01*
Y333820D01*
Y333883D01*
Y333946D01*
X312177D01*
Y334008D01*
Y334071D01*
Y334134D01*
Y334196D01*
Y334259D01*
Y334322D01*
Y334385D01*
X312240D01*
Y334447D01*
Y334510D01*
X312115D01*
Y334447D01*
X311926D01*
Y334385D01*
X311801D01*
Y334322D01*
X311738D01*
Y334259D01*
X311613D01*
Y334196D01*
X311550D01*
Y334134D01*
X311424D01*
Y334071D01*
X311362D01*
Y334008D01*
X311236D01*
Y333946D01*
X311111D01*
Y333883D01*
X311048D01*
Y333820D01*
X310923D01*
Y333757D01*
X310860D01*
Y333695D01*
X310797D01*
Y333632D01*
X310672D01*
Y333569D01*
X310609D01*
Y333506D01*
X310546D01*
Y333444D01*
X310421D01*
Y333381D01*
X310358D01*
Y333318D01*
X310295D01*
Y333256D01*
X310170D01*
Y333193D01*
Y333130D01*
X310045D01*
Y333067D01*
X309982D01*
Y333005D01*
X309919D01*
Y332942D01*
X309856D01*
Y332879D01*
X309794D01*
Y332817D01*
X309731D01*
Y332754D01*
X309668D01*
Y332691D01*
X309605D01*
Y332628D01*
X309543D01*
Y332565D01*
X309480D01*
Y332503D01*
X309417D01*
Y332440D01*
X309354D01*
Y332377D01*
X309292D01*
Y332315D01*
X309229D01*
Y332252D01*
X309166D01*
Y332189D01*
X309104D01*
Y332126D01*
X309041D01*
Y332064D01*
X308978D01*
Y332001D01*
X308915D01*
Y331938D01*
X308853D01*
Y331875D01*
X308790D01*
Y331813D01*
X308727D01*
Y331750D01*
X308664D01*
Y331687D01*
Y331625D01*
X308539D01*
Y331562D01*
Y331499D01*
X308476D01*
Y331436D01*
X308414D01*
Y331374D01*
X308351D01*
Y331311D01*
Y331248D01*
X308288D01*
Y331186D01*
X308163D01*
Y331123D01*
Y331060D01*
Y330997D01*
X308100D01*
Y330935D01*
X308037D01*
Y330872D01*
X307975D01*
Y330809D01*
Y330747D01*
X307912D01*
Y330684D01*
X307849D01*
Y330621D01*
Y330558D01*
X307786D01*
Y330496D01*
X307724D01*
Y330433D01*
X307661D01*
Y330370D01*
Y330307D01*
X307598D01*
Y330245D01*
Y330182D01*
X307535D01*
Y330119D01*
Y330056D01*
X307473D01*
Y329994D01*
X307410D01*
Y329931D01*
X307347D01*
Y329868D01*
Y329805D01*
Y329743D01*
X307222D01*
Y329680D01*
Y329617D01*
Y329555D01*
X307159D01*
Y329492D01*
Y329429D01*
X307096D01*
Y329366D01*
X307034D01*
Y329304D01*
Y329241D01*
Y329178D01*
X306971D01*
Y329116D01*
Y329053D01*
X306908D01*
Y328990D01*
X306845D01*
Y328927D01*
Y328865D01*
Y328802D01*
X306783D01*
Y328739D01*
X306720D01*
Y328676D01*
Y328614D01*
Y328551D01*
X306657D01*
Y328488D01*
Y328426D01*
X306594D01*
Y328363D01*
Y328300D01*
X306532D01*
Y328237D01*
Y328175D01*
Y328112D01*
X306469D01*
Y328049D01*
Y327986D01*
X306406D01*
Y327924D01*
Y327861D01*
Y327798D01*
X306344D01*
Y327735D01*
Y327673D01*
Y327610D01*
X306281D01*
Y327547D01*
X306218D01*
Y327485D01*
Y327422D01*
Y327359D01*
Y327296D01*
X306155D01*
Y327234D01*
Y327171D01*
Y327108D01*
X306093D01*
Y327045D01*
Y326983D01*
X306030D01*
Y326920D01*
Y326857D01*
Y326795D01*
Y326732D01*
Y326669D01*
X305967D01*
Y326606D01*
Y326544D01*
Y326481D01*
X305905D01*
Y326418D01*
Y326356D01*
Y326293D01*
Y326230D01*
Y326167D01*
X305842D01*
Y326105D01*
Y326042D01*
Y325979D01*
X305779D01*
Y325916D01*
Y325854D01*
Y325791D01*
X305716D01*
Y325728D01*
Y325665D01*
Y325603D01*
Y325540D01*
Y325477D01*
Y325415D01*
Y325352D01*
X305654D01*
Y325289D01*
Y325226D01*
Y325164D01*
Y325101D01*
Y325038D01*
X305591D01*
Y324975D01*
Y324913D01*
Y324850D01*
Y324787D01*
X305528D01*
Y324725D01*
Y324662D01*
Y324599D01*
Y324536D01*
X305591D01*
Y324474D01*
X305528D01*
Y324411D01*
Y324348D01*
Y324286D01*
Y324223D01*
Y324160D01*
Y324097D01*
Y324035D01*
X305465D01*
Y323972D01*
Y323909D01*
Y323846D01*
Y323784D01*
Y323721D01*
Y323658D01*
Y323595D01*
Y323533D01*
X305528D01*
Y323470D01*
Y323407D01*
X305591D01*
Y323345D01*
Y323282D01*
X305654D01*
Y323219D01*
X305716D01*
Y323156D01*
Y323094D01*
Y323031D01*
X305779D01*
Y322968D01*
Y322905D01*
X305905D01*
Y322843D01*
Y322780D01*
Y322717D01*
X305967D01*
Y322655D01*
Y322592D01*
X306093D01*
Y322529D01*
X306030D01*
Y322466D01*
X306093D01*
Y322404D01*
X306155D01*
Y322341D01*
X306218D01*
Y322278D01*
Y322216D01*
Y322153D01*
X306344D01*
Y322090D01*
Y322027D01*
X306406D01*
Y321965D01*
Y321902D01*
X306469D01*
Y321839D01*
X306532D01*
Y321776D01*
Y321714D01*
X306657D01*
Y321651D01*
X306720D01*
Y321588D01*
Y321526D01*
Y321463D01*
X306845D01*
Y321400D01*
X306908D01*
Y321337D01*
X306971D01*
Y321275D01*
X307096D01*
Y321212D01*
X307159D01*
Y321149D01*
X307222D01*
Y321086D01*
X307284D01*
Y321024D01*
X307347D01*
Y320961D01*
Y320898D01*
Y320835D01*
Y320773D01*
Y320710D01*
Y320647D01*
Y320585D01*
Y320522D01*
Y320459D01*
Y320396D01*
Y320334D01*
Y320271D01*
Y320208D01*
Y320146D01*
Y320083D01*
Y320020D01*
Y319957D01*
Y319895D01*
Y319832D01*
Y319769D01*
Y319706D01*
X307284D01*
Y319644D01*
X307096D01*
Y319706D01*
X307034D01*
Y319769D01*
X306783D01*
Y319832D01*
X306720D01*
Y319895D01*
X306594D01*
Y319957D01*
X306406D01*
Y320020D01*
X306281D01*
Y320083D01*
X306155D01*
Y320146D01*
X306030D01*
Y320208D01*
X305905D01*
Y320271D01*
X305716D01*
Y320208D01*
Y320146D01*
Y320083D01*
Y320020D01*
Y319957D01*
Y319895D01*
Y319832D01*
X305779D01*
Y319769D01*
Y319706D01*
Y319644D01*
X305842D01*
Y319581D01*
Y319518D01*
Y319456D01*
X305905D01*
Y319393D01*
Y319330D01*
X305967D01*
Y319267D01*
X306030D01*
Y319205D01*
X306093D01*
Y319142D01*
X306218D01*
Y319079D01*
X306281D01*
Y319016D01*
X306344D01*
Y318954D01*
X306469D01*
Y318891D01*
X306532D01*
Y318828D01*
X306594D01*
Y318765D01*
X306657D01*
Y318703D01*
X306783D01*
Y318640D01*
X306845D01*
Y318577D01*
X306908D01*
Y318515D01*
X307034D01*
Y318452D01*
X307159D01*
Y318389D01*
X307222D01*
Y318326D01*
X307347D01*
Y318264D01*
X307473D01*
Y318201D01*
X307598D01*
Y318138D01*
X307661D01*
Y318075D01*
Y318013D01*
X307724D01*
Y317950D01*
X307661D01*
Y317887D01*
Y317825D01*
X307724D01*
Y317762D01*
Y317699D01*
X307786D01*
Y317636D01*
X307912D01*
Y317574D01*
X308037D01*
Y317511D01*
X308100D01*
Y317448D01*
X308163D01*
Y317386D01*
X308288D01*
Y317323D01*
X308414D01*
Y317260D01*
X308476D01*
Y317197D01*
X308539D01*
Y317135D01*
X308664D01*
Y317072D01*
X308790D01*
Y317009D01*
X308853D01*
Y316946D01*
X308978D01*
Y316884D01*
X309104D01*
Y316821D01*
X309166D01*
Y316758D01*
X309292D01*
Y316695D01*
X309354D01*
Y316633D01*
X309480D01*
Y316570D01*
X309668D01*
Y316507D01*
X309731D01*
Y316444D01*
X309856D01*
Y316382D01*
X309982D01*
Y316319D01*
X310107D01*
Y316256D01*
X310233D01*
Y316194D01*
X310358D01*
Y316131D01*
X310484D01*
Y316068D01*
X310546D01*
Y316131D01*
Y316194D01*
X310609D01*
Y316256D01*
Y316319D01*
X310672D01*
Y316382D01*
Y316444D01*
X310735D01*
Y316507D01*
Y316570D01*
Y316633D01*
Y316695D01*
Y316758D01*
X310797D01*
Y316821D01*
Y316884D01*
X310860D01*
Y316946D01*
Y317009D01*
Y317072D01*
Y317135D01*
X310923D01*
Y317197D01*
Y317260D01*
X310860D01*
Y317323D01*
X310735D01*
Y317386D01*
X310609D01*
Y317448D01*
X310546D01*
Y317511D01*
X310358D01*
Y317574D01*
X310295D01*
Y317636D01*
X310170D01*
Y317699D01*
X310045D01*
Y317762D01*
X309982D01*
Y317825D01*
X309856D01*
Y317887D01*
X309731D01*
Y317950D01*
X309605D01*
Y318013D01*
X309543D01*
Y318075D01*
X309417D01*
Y318138D01*
X309229D01*
Y318201D01*
X309166D01*
Y318264D01*
X309104D01*
Y318326D01*
X308915D01*
Y318389D01*
X308853D01*
Y318452D01*
X308727D01*
Y318515D01*
X308602D01*
Y318577D01*
X308539D01*
Y318640D01*
X308414D01*
Y318703D01*
X308288D01*
Y318765D01*
X308225D01*
Y318828D01*
X308037D01*
Y318891D01*
X307975D01*
Y318954D01*
X307912D01*
Y319016D01*
X307849D01*
Y319079D01*
X307912D01*
Y319142D01*
Y319205D01*
Y319267D01*
X307975D01*
Y319330D01*
Y319393D01*
X308100D01*
Y319456D01*
Y319518D01*
Y319581D01*
X308163D01*
Y319644D01*
Y319706D01*
X308225D01*
Y319769D01*
Y319832D01*
X308288D01*
Y319895D01*
X308351D01*
Y319957D01*
Y320020D01*
X308414D01*
Y320083D01*
Y320146D01*
Y320208D01*
X308539D01*
Y320271D01*
Y320334D01*
X308602D01*
Y320396D01*
Y320459D01*
X308664D01*
Y320522D01*
Y320585D01*
X308727D01*
Y320647D01*
Y320710D01*
X308790D01*
Y320773D01*
Y320835D01*
X308853D01*
Y320898D01*
X308915D01*
Y320961D01*
Y321024D01*
X308978D01*
Y321086D01*
Y321149D01*
X309041D01*
Y321212D01*
X309104D01*
Y321275D01*
Y321337D01*
Y321400D01*
X309166D01*
Y321463D01*
Y321526D01*
X309229D01*
Y321588D01*
Y321651D01*
X309292D01*
Y321714D01*
X309354D01*
Y321776D01*
Y321839D01*
X309417D01*
Y321902D01*
Y321965D01*
X309480D01*
Y322027D01*
X309543D01*
Y322090D01*
Y322153D01*
Y322216D01*
X309605D01*
Y322278D01*
Y322341D01*
X309731D01*
Y322404D01*
Y322466D01*
Y322529D01*
X309794D01*
Y322592D01*
X309856D01*
Y322655D01*
Y322717D01*
Y322780D01*
X309919D01*
Y322843D01*
X309982D01*
Y322905D01*
X310045D01*
Y322968D01*
Y323031D01*
Y323094D01*
X310107D01*
Y323156D01*
X310170D01*
Y323219D01*
Y323282D01*
X310233D01*
Y323345D01*
Y323407D01*
X310295D01*
Y323470D01*
Y323533D01*
X310358D01*
Y323595D01*
Y323658D01*
X310421D01*
Y323721D01*
Y323784D01*
X310672D01*
Y323721D01*
X310797D01*
Y323658D01*
X310923D01*
Y323595D01*
X311111D01*
Y323533D01*
X311299D01*
Y323470D01*
X311424D01*
Y323407D01*
X311613D01*
Y323345D01*
X311738D01*
Y323282D01*
X311926D01*
Y323219D01*
X312115D01*
Y323156D01*
X312240D01*
Y323094D01*
X312428D01*
Y323031D01*
X312554D01*
Y322968D01*
X312742D01*
Y322905D01*
X312930D01*
Y322843D01*
X313055D01*
Y322780D01*
X313244D01*
Y322717D01*
X313369D01*
Y322655D01*
X313557D01*
Y322592D01*
X313745D01*
Y322529D01*
X313871D01*
Y322466D01*
X314059D01*
Y322404D01*
X314247D01*
Y322341D01*
Y322278D01*
Y322216D01*
Y322153D01*
X314184D01*
Y322090D01*
Y322027D01*
X314059D01*
Y321965D01*
Y321902D01*
X313996D01*
Y321839D01*
Y321776D01*
X313934D01*
Y321714D01*
X313871D01*
Y321651D01*
Y321588D01*
X313808D01*
Y321526D01*
X313745D01*
Y321463D01*
Y321400D01*
X313683D01*
Y321337D01*
X313620D01*
Y321275D01*
X313557D01*
Y321212D01*
Y321149D01*
X313494D01*
Y321086D01*
Y321024D01*
X313369D01*
Y320961D01*
Y320898D01*
X313306D01*
Y320835D01*
Y320773D01*
X313244D01*
Y320710D01*
Y320647D01*
X313181D01*
Y320585D01*
X313118D01*
Y320522D01*
Y320459D01*
X313055D01*
Y320396D01*
X312993D01*
Y320334D01*
X312930D01*
Y320271D01*
Y320208D01*
X312867D01*
Y320146D01*
Y320083D01*
X312805D01*
Y320020D01*
X312742D01*
Y319957D01*
X312679D01*
Y319895D01*
X312616D01*
Y319832D01*
Y319769D01*
X312554D01*
Y319706D01*
Y319644D01*
X312428D01*
Y319581D01*
Y319518D01*
Y319456D01*
X312366D01*
Y319393D01*
X312303D01*
Y319330D01*
X312240D01*
Y319267D01*
Y319205D01*
X312177D01*
Y319142D01*
X312115D01*
Y319079D01*
Y319016D01*
X312240D01*
Y318954D01*
X312366D01*
Y318891D01*
X312554D01*
Y318828D01*
X312616D01*
Y318765D01*
X312679D01*
Y318703D01*
X312867D01*
Y318640D01*
X312993D01*
Y318577D01*
X313055D01*
Y318515D01*
X313181D01*
Y318452D01*
X313306D01*
Y318389D01*
X313432D01*
Y318326D01*
X313494D01*
Y318264D01*
X313620D01*
Y318201D01*
X313745D01*
Y318138D01*
X313871D01*
Y318075D01*
X313996D01*
Y318013D01*
X314059D01*
Y317950D01*
Y317887D01*
Y317825D01*
X313996D01*
Y317762D01*
X313934D01*
Y317699D01*
X313871D01*
Y317636D01*
X313745D01*
Y317574D01*
X313683D01*
Y317511D01*
X313620D01*
Y317448D01*
X313557D01*
Y317386D01*
X313494D01*
Y317323D01*
X313369D01*
Y317260D01*
X313306D01*
Y317197D01*
X313244D01*
Y317135D01*
X313181D01*
Y317072D01*
X313118D01*
Y317009D01*
X313055D01*
Y316946D01*
X312930D01*
Y316884D01*
X312867D01*
Y316821D01*
X312805D01*
Y316758D01*
X312742D01*
Y316695D01*
X312679D01*
Y316633D01*
X312616D01*
Y316570D01*
X312554D01*
Y316507D01*
X312491D01*
Y316444D01*
X312428D01*
Y316382D01*
X312366D01*
Y316319D01*
X312303D01*
Y316256D01*
X312177D01*
Y316194D01*
X312115D01*
Y316131D01*
X312052D01*
Y316068D01*
X311989D01*
Y316005D01*
X311926D01*
Y315943D01*
X311864D01*
Y315880D01*
X311738D01*
Y315817D01*
X311675D01*
Y315755D01*
X311613D01*
Y315692D01*
X311550D01*
Y315629D01*
Y315566D01*
X311675D01*
Y315504D01*
X311801D01*
Y315441D01*
X311989D01*
Y315378D01*
X312177D01*
Y315316D01*
X312303D01*
Y315253D01*
X312428D01*
Y315190D01*
X312616D01*
Y315127D01*
X312867D01*
Y315065D01*
X312993D01*
Y315002D01*
X313181D01*
Y314939D01*
X313432D01*
Y314876D01*
X313620D01*
Y314814D01*
X313934D01*
Y314751D01*
X314122D01*
Y314688D01*
X314310D01*
Y314626D01*
X314749D01*
Y314563D01*
X315000D01*
Y314500D01*
X315063D01*
Y314563D01*
X315125D01*
Y314626D01*
Y314688D01*
X315188D01*
Y314751D01*
Y314814D01*
X315251D01*
Y314876D01*
Y314939D01*
Y315002D01*
Y315065D01*
Y315127D01*
X315314D01*
Y315190D01*
Y315253D01*
X315376D01*
Y315316D01*
Y315378D01*
Y315441D01*
X315439D01*
Y315504D01*
Y315566D01*
Y315629D01*
Y315692D01*
X315502D01*
Y315755D01*
X315690D01*
Y315692D01*
X316004D01*
Y315629D01*
X316443D01*
Y315566D01*
X316694D01*
Y315504D01*
X317007D01*
Y315441D01*
X317635D01*
Y315378D01*
X318011D01*
Y315316D01*
X318638D01*
Y315253D01*
X320332D01*
Y315316D01*
X320395D01*
Y315378D01*
X320520D01*
Y315441D01*
X320708D01*
Y315504D01*
X320771D01*
Y315566D01*
X320896D01*
Y315629D01*
X321022D01*
Y315692D01*
X321085D01*
Y315755D01*
X321273D01*
Y315817D01*
X321336D01*
Y315880D01*
X321461D01*
Y315943D01*
X321524D01*
Y316005D01*
X321586D01*
Y316068D01*
X321712D01*
Y316131D01*
X321837D01*
Y316194D01*
Y316256D01*
X321336D01*
Y316194D01*
X319579D01*
Y316256D01*
X318952D01*
Y316319D01*
X318576D01*
Y316382D01*
X318011D01*
Y316444D01*
X317760D01*
Y316507D01*
X317384D01*
Y316570D01*
X317196D01*
Y316633D01*
X317007D01*
Y316695D01*
X316694D01*
Y316758D01*
X316568D01*
Y316821D01*
X316380D01*
Y316884D01*
X316129D01*
Y316946D01*
X316004D01*
Y317009D01*
X315753D01*
Y317072D01*
X315690D01*
Y317135D01*
Y317197D01*
Y317260D01*
Y317323D01*
Y317386D01*
Y317448D01*
Y317511D01*
Y317574D01*
X315753D01*
Y317636D01*
Y317699D01*
Y317762D01*
Y317825D01*
Y317887D01*
Y317950D01*
Y318013D01*
Y318075D01*
Y318138D01*
Y318201D01*
Y318264D01*
Y318326D01*
Y318389D01*
Y318452D01*
X315815D01*
Y318515D01*
X316317D01*
Y318452D01*
X316506D01*
Y318389D01*
X316819D01*
Y318326D01*
X317070D01*
Y318264D01*
X317258D01*
Y318201D01*
X317885D01*
Y318138D01*
X318199D01*
Y318075D01*
X320708D01*
Y318138D01*
X321398D01*
Y318201D01*
X322088D01*
Y318264D01*
X322339D01*
Y318326D01*
X322590D01*
Y318389D01*
X323029D01*
Y318452D01*
X323217D01*
Y318515D01*
X323531D01*
Y318577D01*
X323656D01*
Y318640D01*
Y318703D01*
X323594D01*
Y318765D01*
X323531D01*
Y318828D01*
X323468D01*
Y318891D01*
X323343D01*
Y318954D01*
Y319016D01*
X323217D01*
Y319079D01*
X323155D01*
Y319142D01*
X323092D01*
Y319205D01*
X323029D01*
Y319267D01*
X322966D01*
Y319330D01*
X322904D01*
Y319393D01*
X322841D01*
Y319456D01*
X322778D01*
Y319518D01*
X322715D01*
Y319581D01*
X322653D01*
Y319644D01*
X322590D01*
Y319706D01*
X322527D01*
Y319769D01*
X322402D01*
Y319832D01*
Y319895D01*
X322465D01*
Y319957D01*
X322402D01*
Y320020D01*
X322465D01*
Y320083D01*
Y320146D01*
X322527D01*
Y320208D01*
X322590D01*
Y320271D01*
Y320334D01*
X322653D01*
Y320396D01*
X322715D01*
Y320459D01*
X322778D01*
Y320522D01*
X322841D01*
Y320585D01*
X322904D01*
Y320647D01*
X323029D01*
Y320585D01*
X323155D01*
Y320522D01*
Y320459D01*
X323280D01*
Y320396D01*
X323343D01*
Y320334D01*
X323406D01*
Y320271D01*
X323468D01*
Y320208D01*
X323531D01*
Y320146D01*
X323594D01*
Y320083D01*
X323656D01*
Y320020D01*
X323719D01*
Y319957D01*
Y319895D01*
X323782D01*
Y319832D01*
X323845D01*
Y319769D01*
X323907D01*
Y319706D01*
X323970D01*
Y319644D01*
Y319581D01*
X324096D01*
Y319518D01*
X324158D01*
Y319456D01*
Y319393D01*
Y319330D01*
X324284D01*
Y319267D01*
Y319205D01*
X324346D01*
Y319142D01*
Y319079D01*
X324409D01*
Y319016D01*
X324472D01*
Y318954D01*
Y318891D01*
Y318828D01*
Y318765D01*
Y318703D01*
X324597D01*
Y318640D01*
X324660D01*
Y318577D01*
X324723D01*
Y318515D01*
Y318452D01*
X324785D01*
Y318389D01*
X324848D01*
Y318326D01*
Y318264D01*
X324911D01*
Y318201D01*
Y318138D01*
Y318075D01*
Y318013D01*
Y317950D01*
Y317887D01*
X324974D01*
Y317825D01*
Y317762D01*
Y317699D01*
Y317636D01*
Y317574D01*
Y317511D01*
Y317448D01*
Y317386D01*
Y317323D01*
Y317260D01*
X325036D01*
Y317197D01*
Y317135D01*
Y317072D01*
Y317009D01*
Y316946D01*
Y316884D01*
Y316821D01*
X325099D01*
Y316758D01*
Y316695D01*
Y316633D01*
Y316570D01*
Y316507D01*
Y316444D01*
Y316382D01*
Y316319D01*
Y316256D01*
Y316194D01*
Y316131D01*
Y316068D01*
X325162D01*
Y316005D01*
Y315943D01*
Y315880D01*
Y315817D01*
Y315755D01*
Y315692D01*
Y315629D01*
X325225D01*
Y315566D01*
Y315504D01*
Y315441D01*
Y315378D01*
X325287D01*
Y315316D01*
Y315253D01*
Y315190D01*
Y315127D01*
Y315065D01*
Y315002D01*
Y314939D01*
Y314876D01*
Y314814D01*
Y314751D01*
X325350D01*
Y314688D01*
Y314626D01*
Y314563D01*
X326166D01*
Y314626D01*
X327106D01*
Y314688D01*
X327420D01*
Y314751D01*
X327671D01*
Y314814D01*
X328047D01*
Y314876D01*
X328236D01*
Y314939D01*
X328612D01*
Y315002D01*
X328800D01*
Y315065D01*
X328925D01*
Y315127D01*
X329239D01*
Y315190D01*
X329365D01*
Y315253D01*
X329553D01*
Y315316D01*
X329741D01*
Y315378D01*
X329867D01*
Y315441D01*
X330055D01*
Y315504D01*
X330243D01*
Y315566D01*
Y315629D01*
Y315692D01*
X330180D01*
Y315755D01*
X330117D01*
Y315817D01*
Y315880D01*
X330055D01*
Y315943D01*
X330117D01*
Y316005D01*
X330055D01*
Y316068D01*
X329992D01*
Y316131D01*
Y316194D01*
X329929D01*
Y316256D01*
X329867D01*
Y316319D01*
Y316382D01*
X329804D01*
Y316444D01*
Y316507D01*
X329741D01*
Y316570D01*
Y316633D01*
Y316695D01*
X329678D01*
Y316758D01*
X329615D01*
Y316821D01*
Y316884D01*
X329553D01*
Y316946D01*
Y317009D01*
X329490D01*
Y317072D01*
X329427D01*
Y317135D01*
Y317197D01*
X329365D01*
Y317260D01*
Y317323D01*
X329302D01*
Y317386D01*
X329239D01*
Y317448D01*
X329176D01*
Y317511D01*
Y317574D01*
X329114D01*
Y317636D01*
X329051D01*
Y317699D01*
Y317762D01*
X328988D01*
Y317825D01*
X328925D01*
Y317887D01*
Y317950D01*
X328800D01*
Y318013D01*
X328737D01*
Y318075D01*
X328675D01*
Y318138D01*
X328612D01*
Y318201D01*
Y318264D01*
X328549D01*
Y318326D01*
X328486D01*
Y318389D01*
X328361D01*
Y318452D01*
X328298D01*
Y318515D01*
X328236D01*
Y318577D01*
X328173D01*
Y318640D01*
X328047D01*
Y318703D01*
X327985D01*
Y318765D01*
X327859D01*
Y318828D01*
X327734D01*
Y318891D01*
X327608D01*
Y318954D01*
X327483D01*
Y319016D01*
X327420D01*
Y319079D01*
X327295D01*
Y319142D01*
X327169D01*
Y319205D01*
X327044D01*
Y319267D01*
X326981D01*
Y319330D01*
X326855D01*
Y319393D01*
X326793D01*
Y319456D01*
X326667D01*
Y319518D01*
X326605D01*
Y319581D01*
X326479D01*
Y319644D01*
X326354D01*
Y319706D01*
X326291D01*
Y319769D01*
X326166D01*
Y319832D01*
X326103D01*
Y319895D01*
X326040D01*
Y319957D01*
X325915D01*
Y320020D01*
X325852D01*
Y320083D01*
X325789D01*
Y320146D01*
X325664D01*
Y320208D01*
X325601D01*
Y320271D01*
X325538D01*
Y320334D01*
X325476D01*
Y320396D01*
X325350D01*
Y320459D01*
X325287D01*
Y320522D01*
X325225D01*
Y320585D01*
X325162D01*
Y320647D01*
X325099D01*
Y320710D01*
X325036D01*
Y320773D01*
X324974D01*
Y320835D01*
X324911D01*
Y320898D01*
X324785D01*
Y320961D01*
X324723D01*
Y321024D01*
Y321086D01*
X324660D01*
Y321149D01*
X324597D01*
Y321212D01*
X324535D01*
Y321275D01*
X324472D01*
Y321337D01*
Y321400D01*
Y321463D01*
X324597D01*
Y321400D01*
X324660D01*
Y321337D01*
X324723D01*
Y321275D01*
X324785D01*
Y321212D01*
X324848D01*
Y321149D01*
X324911D01*
Y321086D01*
X324974D01*
Y321024D01*
X325036D01*
Y320961D01*
X325099D01*
Y320898D01*
X325162D01*
Y320835D01*
X325225D01*
Y320898D01*
Y320961D01*
X325287D01*
Y321024D01*
Y321086D01*
Y321149D01*
X325350D01*
Y321212D01*
Y321275D01*
Y321337D01*
Y321400D01*
Y321463D01*
X325413D01*
Y321526D01*
Y321588D01*
Y321651D01*
X325476D01*
Y321714D01*
Y321776D01*
Y321839D01*
X325538D01*
Y321902D01*
Y321965D01*
Y322027D01*
Y322090D01*
Y322153D01*
Y322216D01*
Y322278D01*
X325601D01*
Y322341D01*
Y322404D01*
Y322466D01*
Y322529D01*
X325664D01*
Y322592D01*
Y322655D01*
Y322717D01*
Y322780D01*
Y322843D01*
X325726D01*
Y322905D01*
Y322968D01*
Y323031D01*
X325664D01*
Y323094D01*
X325726D01*
Y323156D01*
Y323219D01*
Y323282D01*
Y323345D01*
Y323407D01*
Y323470D01*
X325789D01*
Y323533D01*
Y323595D01*
Y323658D01*
Y323721D01*
Y323784D01*
Y323846D01*
Y323909D01*
Y323972D01*
Y324035D01*
X325852D01*
Y324097D01*
Y324160D01*
Y324223D01*
Y324286D01*
Y324348D01*
Y324411D01*
Y324474D01*
Y324536D01*
Y324599D01*
Y324662D01*
Y324725D01*
Y324787D01*
Y324850D01*
Y324913D01*
Y324975D01*
Y325038D01*
Y325101D01*
Y325164D01*
Y325226D01*
Y325289D01*
Y325352D01*
Y325415D01*
Y325477D01*
Y325540D01*
Y325603D01*
Y325665D01*
Y325728D01*
Y325791D01*
Y325854D01*
Y325916D01*
X325789D01*
Y325979D01*
Y326042D01*
Y326105D01*
Y326167D01*
Y326230D01*
Y326293D01*
Y326356D01*
Y326418D01*
Y326481D01*
X325726D01*
Y326544D01*
Y326606D01*
Y326669D01*
Y326732D01*
Y326795D01*
X325664D01*
Y326857D01*
X325726D01*
Y326920D01*
Y326983D01*
Y327045D01*
Y327108D01*
X325664D01*
Y327171D01*
Y327234D01*
Y327296D01*
Y327359D01*
X325601D01*
Y327422D01*
Y327485D01*
Y327547D01*
Y327610D01*
X325538D01*
Y327673D01*
Y327735D01*
Y327798D01*
Y327861D01*
Y327924D01*
Y327986D01*
X325476D01*
Y328049D01*
Y328112D01*
Y328175D01*
X325413D01*
Y328237D01*
Y328300D01*
Y328363D01*
X325350D01*
Y328426D01*
Y328488D01*
Y328551D01*
Y328614D01*
X325287D01*
Y328676D01*
Y328739D01*
X325225D01*
Y328802D01*
Y328865D01*
Y328927D01*
Y328990D01*
Y329053D01*
X325162D01*
Y329116D01*
Y329178D01*
Y329241D01*
X325099D01*
Y329304D01*
Y329366D01*
Y329429D01*
X325036D01*
Y329492D01*
Y329555D01*
Y329617D01*
Y329680D01*
Y329743D01*
Y329805D01*
Y329868D01*
X324974D01*
Y329931D01*
Y329994D01*
Y330056D01*
X324911D01*
Y330119D01*
Y330182D01*
Y330245D01*
Y330307D01*
X324848D01*
Y330370D01*
Y330433D01*
Y330496D01*
Y330558D01*
X324785D01*
Y330621D01*
Y330684D01*
X324723D01*
Y330747D01*
Y330809D01*
Y330872D01*
Y330935D01*
X324660D01*
Y330997D01*
Y331060D01*
X324597D01*
Y331123D01*
Y331186D01*
X324535D01*
Y331248D01*
Y331311D01*
Y331374D01*
Y331436D01*
X324472D01*
Y331499D01*
Y331562D01*
X324409D01*
Y331625D01*
Y331687D01*
Y331750D01*
Y331813D01*
X324346D01*
Y331875D01*
X324284D01*
Y331938D01*
Y332001D01*
X324221D01*
Y332064D01*
Y332126D01*
Y332189D01*
X324158D01*
Y332252D01*
X324096D01*
Y332315D01*
X324033D01*
Y332377D01*
Y332440D01*
Y332503D01*
X323970D01*
Y332565D01*
X323907D01*
Y332628D01*
Y332691D01*
Y332754D01*
Y332817D01*
Y332879D01*
Y332942D01*
Y333005D01*
Y333067D01*
Y333130D01*
X323970D01*
Y333193D01*
Y333256D01*
X324033D01*
Y333318D01*
Y333381D01*
Y333444D01*
X324096D01*
Y333506D01*
Y333569D01*
X324033D01*
Y333632D01*
X324096D01*
Y333695D01*
Y333757D01*
Y333820D01*
X324158D01*
Y333883D01*
Y333946D01*
Y334008D01*
X324221D01*
Y334071D01*
Y334134D01*
Y334196D01*
Y334259D01*
Y334322D01*
X324284D01*
Y334385D01*
Y334447D01*
Y334510D01*
X324346D01*
Y334573D01*
Y334636D01*
Y334698D01*
X324409D01*
Y334761D01*
Y334824D01*
Y334887D01*
Y334949D01*
Y335012D01*
Y335075D01*
X324472D01*
Y335137D01*
Y335200D01*
Y335263D01*
X324535D01*
Y335326D01*
Y335388D01*
Y335451D01*
Y335514D01*
Y335577D01*
Y335639D01*
X324597D01*
Y335702D01*
Y335765D01*
Y335827D01*
X324660D01*
Y335890D01*
Y335953D01*
X324723D01*
Y336016D01*
Y336078D01*
Y336141D01*
Y336204D01*
Y336266D01*
Y336329D01*
Y336392D01*
X324785D01*
Y336455D01*
Y336517D01*
Y336580D01*
X324848D01*
Y336643D01*
Y336706D01*
Y336768D01*
X324911D01*
Y336831D01*
Y336894D01*
Y336957D01*
Y337019D01*
Y337082D01*
X324974D01*
Y337145D01*
Y337207D01*
Y337270D01*
X325036D01*
Y337333D01*
Y337396D01*
Y337458D01*
Y337521D01*
Y337584D01*
Y337647D01*
X325099D01*
Y337709D01*
Y337772D01*
Y337835D01*
X325162D01*
Y337897D01*
Y337960D01*
Y338023D01*
X325225D01*
Y338086D01*
Y338148D01*
X325162D01*
Y338211D01*
X325225D01*
Y338274D01*
Y338336D01*
Y338399D01*
X325287D01*
Y338462D01*
Y338525D01*
Y338587D01*
X325350D01*
Y338650D01*
Y338713D01*
Y338776D01*
Y338838D01*
Y338901D01*
X325413D01*
Y338964D01*
Y339026D01*
Y339089D01*
X325476D01*
Y339152D01*
Y339215D01*
Y339277D01*
X325538D01*
Y339340D01*
Y339403D01*
Y339466D01*
Y339528D01*
Y339591D01*
Y339654D01*
X325601D01*
Y339717D01*
Y339779D01*
Y339842D01*
X325664D01*
Y339905D01*
Y339967D01*
Y340030D01*
Y340093D01*
X325726D01*
Y340156D01*
X325664D01*
Y340218D01*
X325726D01*
Y340281D01*
Y340344D01*
Y340406D01*
X325789D01*
Y340469D01*
Y340532D01*
Y340595D01*
X325852D01*
Y340657D01*
Y340720D01*
Y340783D01*
Y340846D01*
Y340908D01*
Y340971D01*
Y341034D01*
X325915D01*
Y341096D01*
Y341159D01*
X325977D01*
Y341222D01*
Y341285D01*
Y341347D01*
X326040D01*
Y341410D01*
Y341473D01*
Y341536D01*
Y341598D01*
Y341661D01*
Y341724D01*
X326103D01*
Y341787D01*
Y341849D01*
Y341912D01*
Y341975D01*
X326166D01*
Y342037D01*
Y342100D01*
Y342163D01*
Y342226D01*
Y342288D01*
X326228D01*
Y342351D01*
Y342414D01*
Y342477D01*
X326291D01*
Y342539D01*
Y342602D01*
Y342665D01*
Y342727D01*
X326354D01*
Y342790D01*
Y342853D01*
Y342916D01*
Y342978D01*
Y343041D01*
Y343104D01*
X326416D01*
Y343166D01*
Y343229D01*
Y343292D01*
Y343355D01*
Y343417D01*
Y343480D01*
X326354D01*
Y343543D01*
Y343606D01*
X326291D01*
Y343668D01*
X326228D01*
Y343731D01*
X326166D01*
Y343794D01*
X326040D01*
Y343857D01*
X325977D01*
Y343919D01*
X325789D01*
Y343982D01*
X325601D01*
Y344045D01*
X325162D01*
Y343982D01*
X324974D01*
Y343919D01*
X324723D01*
Y343857D01*
X324535D01*
Y343794D01*
X324409D01*
Y343731D01*
X324096D01*
Y343668D01*
X323907D01*
Y343606D01*
X323782D01*
Y343543D01*
X323468D01*
Y343480D01*
X323343D01*
Y343417D01*
X323092D01*
Y343355D01*
X322904D01*
Y343292D01*
X322778D01*
Y343229D01*
X322527D01*
Y343166D01*
X322402D01*
Y343104D01*
X322151D01*
Y343041D01*
X321963D01*
Y342978D01*
X321837D01*
Y342916D01*
X321586D01*
Y342853D01*
Y342790D01*
Y342727D01*
Y342665D01*
X321524D01*
Y342602D01*
Y342539D01*
Y342477D01*
Y342414D01*
Y342351D01*
X321461D01*
Y342288D01*
Y342226D01*
Y342163D01*
X321398D01*
Y342100D01*
Y342037D01*
Y341975D01*
X321336D01*
Y341912D01*
Y341849D01*
Y341787D01*
Y341724D01*
Y341661D01*
Y341598D01*
X321273D01*
Y341536D01*
Y341473D01*
X321210D01*
Y341410D01*
Y341347D01*
Y341285D01*
Y341222D01*
Y341159D01*
Y341096D01*
X321147D01*
Y341034D01*
Y340971D01*
X321085D01*
Y340908D01*
Y340846D01*
Y340783D01*
Y340720D01*
X321022D01*
Y340657D01*
Y340595D01*
Y340532D01*
Y340469D01*
Y340406D01*
X320959D01*
Y340344D01*
Y340281D01*
Y340218D01*
X320896D01*
Y340156D01*
Y340093D01*
Y340030D01*
X320834D01*
Y339967D01*
Y339905D01*
X320896D01*
Y339842D01*
X320834D01*
Y339779D01*
Y339717D01*
X320771D01*
Y339654D01*
Y339591D01*
Y339528D01*
X320708D01*
Y339466D01*
Y339403D01*
Y339340D01*
Y339277D01*
Y339215D01*
X320645D01*
Y339152D01*
Y339089D01*
Y339026D01*
X320583D01*
Y338964D01*
Y338901D01*
Y338838D01*
X320520D01*
Y338776D01*
Y338713D01*
Y338650D01*
Y338587D01*
Y338525D01*
X320457D01*
Y338462D01*
Y338399D01*
Y338336D01*
X320395D01*
Y338274D01*
Y338211D01*
Y338148D01*
Y338086D01*
Y338023D01*
X320332D01*
Y337960D01*
Y337897D01*
Y337835D01*
X320269D01*
Y337772D01*
Y337709D01*
X320206D01*
Y337647D01*
Y337584D01*
Y337521D01*
Y337458D01*
Y337396D01*
X320144D01*
Y337333D01*
Y337270D01*
Y337207D01*
X320081D01*
Y337145D01*
Y337082D01*
Y337019D01*
Y336957D01*
Y336894D01*
X320018D01*
Y336831D01*
Y336768D01*
Y336706D01*
X319955D01*
Y336643D01*
Y336580D01*
Y336517D01*
X319893D01*
Y336455D01*
Y336392D01*
Y336329D01*
Y336266D01*
Y336204D01*
X319830D01*
Y336141D01*
Y336078D01*
Y336016D01*
X319767D01*
Y335953D01*
Y335890D01*
X319705D01*
Y335827D01*
Y335765D01*
X319767D01*
Y335702D01*
X319705D01*
Y335639D01*
Y335577D01*
X319642D01*
Y335514D01*
Y335451D01*
Y335388D01*
X319579D01*
Y335326D01*
Y335263D01*
Y335200D01*
Y335137D01*
Y335075D01*
X319516D01*
Y335012D01*
Y334949D01*
Y334887D01*
X319454D01*
Y334824D01*
Y334761D01*
X319391D01*
Y334698D01*
Y334636D01*
Y334573D01*
Y334510D01*
Y334447D01*
Y334385D01*
X319328D01*
Y334322D01*
Y334259D01*
X319266D01*
Y334196D01*
Y334134D01*
Y334071D01*
Y334008D01*
Y333946D01*
X319203D01*
Y333883D01*
Y333820D01*
Y333757D01*
X319140D01*
Y333695D01*
Y333632D01*
Y333569D01*
X319077D01*
Y333506D01*
Y333444D01*
Y333381D01*
Y333318D01*
Y333256D01*
X319015D01*
Y333193D01*
Y333130D01*
X318952D01*
Y333067D01*
Y333005D01*
Y332942D01*
X318889D01*
Y332879D01*
Y332817D01*
Y332754D01*
Y332691D01*
Y332628D01*
X318826D01*
Y332565D01*
Y332503D01*
X318764D01*
Y332440D01*
Y332377D01*
Y332315D01*
Y332252D01*
Y332189D01*
X318701D01*
Y332126D01*
Y332064D01*
Y332001D01*
X318638D01*
Y331938D01*
Y331875D01*
Y331813D01*
X318576D01*
Y331750D01*
Y331687D01*
Y331625D01*
Y331562D01*
Y331499D01*
X318513D01*
Y331436D01*
Y331374D01*
X318450D01*
Y331311D01*
Y331248D01*
Y331186D01*
Y331123D01*
Y331060D01*
Y330997D01*
X318387D01*
Y330935D01*
Y330872D01*
X318450D01*
Y330809D01*
Y330747D01*
X318513D01*
Y330684D01*
X318576D01*
Y330621D01*
Y330558D01*
X318638D01*
Y330496D01*
X318701D01*
Y330433D01*
X318764D01*
Y330370D01*
X318826D01*
Y330307D01*
Y330245D01*
X318889D01*
Y330182D01*
Y330119D01*
X318826D01*
Y330056D01*
X318764D01*
Y330119D01*
X318701D01*
Y330182D01*
X318638D01*
Y330245D01*
Y330307D01*
X318576D01*
Y330370D01*
X318513D01*
Y330433D01*
X318450D01*
Y330496D01*
X318387D01*
Y330558D01*
Y330621D01*
X318325D01*
Y330684D01*
X318262D01*
Y330747D01*
Y330809D01*
X318199D01*
Y330872D01*
Y330935D01*
Y330997D01*
Y331060D01*
Y331123D01*
X318262D01*
Y331186D01*
Y331248D01*
X318325D01*
Y331311D01*
Y331374D01*
Y331436D01*
X318387D01*
Y331499D01*
Y331562D01*
Y331625D01*
Y331687D01*
Y331750D01*
X318450D01*
Y331813D01*
Y331875D01*
X318513D01*
Y331938D01*
Y332001D01*
Y332064D01*
Y332126D01*
Y332189D01*
Y332252D01*
X318576D01*
Y332315D01*
Y332377D01*
X318638D01*
Y332440D01*
Y332503D01*
Y332565D01*
X318701D01*
Y332628D01*
Y332691D01*
Y332754D01*
Y332817D01*
Y332879D01*
X318764D01*
Y332942D01*
Y333005D01*
X318826D01*
Y333067D01*
Y333130D01*
Y333193D01*
Y333256D01*
Y333318D01*
X318889D01*
Y333381D01*
Y333444D01*
Y333506D01*
X318952D01*
Y333569D01*
Y333632D01*
Y333695D01*
X319015D01*
Y333757D01*
Y333820D01*
Y333883D01*
Y333946D01*
Y334008D01*
X319077D01*
Y334071D01*
Y334134D01*
Y334196D01*
X319140D01*
Y334259D01*
Y334322D01*
X319203D01*
Y334385D01*
Y334447D01*
Y334510D01*
Y334573D01*
Y334636D01*
X319266D01*
Y334698D01*
Y334761D01*
Y334824D01*
X319328D01*
Y334887D01*
Y334949D01*
Y335012D01*
Y335075D01*
Y335137D01*
Y335200D01*
X319266D01*
Y335263D01*
X319015D01*
Y335326D01*
X318826D01*
Y335388D01*
X318638D01*
Y335451D01*
X318325D01*
Y335514D01*
X318199D01*
Y335451D01*
X318011D01*
Y335514D01*
Y335577D01*
Y335639D01*
X317948D01*
Y335702D01*
Y335765D01*
Y335827D01*
Y335890D01*
Y335953D01*
Y336016D01*
Y336078D01*
Y336141D01*
Y336204D01*
Y336266D01*
Y336329D01*
Y336392D01*
Y336455D01*
Y336517D01*
Y336580D01*
Y336643D01*
Y336706D01*
Y336768D01*
X318011D01*
Y336831D01*
Y336894D01*
Y336957D01*
Y337019D01*
Y337082D01*
X318074D01*
Y337145D01*
Y337207D01*
Y337270D01*
X318011D01*
Y337333D01*
X318074D01*
Y337396D01*
Y337458D01*
Y337521D01*
Y337584D01*
X318136D01*
Y337647D01*
Y337709D01*
Y337772D01*
Y337835D01*
X318199D01*
Y337897D01*
Y337960D01*
Y338023D01*
Y338086D01*
Y338148D01*
Y338211D01*
X318262D01*
Y338274D01*
Y338336D01*
Y338399D01*
X318325D01*
Y338462D01*
Y338525D01*
Y338587D01*
X318387D01*
Y338650D01*
Y338713D01*
Y338776D01*
Y338838D01*
Y338901D01*
Y338964D01*
X318450D01*
Y339026D01*
Y339089D01*
Y339152D01*
X318513D01*
Y339215D01*
Y339277D01*
Y339340D01*
Y339403D01*
Y339466D01*
Y339528D01*
X318576D01*
Y339591D01*
Y339654D01*
X318638D01*
Y339717D01*
Y339779D01*
Y339842D01*
Y339905D01*
X318701D01*
Y339967D01*
Y340030D01*
Y340093D01*
Y340156D01*
Y340218D01*
X318764D01*
Y340281D01*
Y340344D01*
X318826D01*
Y340406D01*
Y340469D01*
Y340532D01*
Y340595D01*
X318889D01*
Y340657D01*
X318826D01*
Y340720D01*
X318889D01*
Y340783D01*
Y340846D01*
Y340908D01*
X318952D01*
Y340971D01*
Y341034D01*
Y341096D01*
X319015D01*
Y341159D01*
Y341222D01*
Y341285D01*
Y341347D01*
Y341410D01*
Y341473D01*
X319077D01*
Y341536D01*
Y341598D01*
Y341661D01*
Y341724D01*
X319140D01*
Y341787D01*
Y341849D01*
Y341912D01*
Y341975D01*
X319203D01*
Y342037D01*
Y342100D01*
Y342163D01*
Y342226D01*
Y342288D01*
Y342351D01*
Y342414D01*
Y342477D01*
X319266D01*
Y342539D01*
Y342602D01*
Y342665D01*
Y342727D01*
X319328D01*
Y342790D01*
Y342853D01*
Y342916D01*
Y342978D01*
Y343041D01*
Y343104D01*
Y343166D01*
Y343229D01*
Y343292D01*
Y343355D01*
Y343417D01*
Y343480D01*
Y343543D01*
Y343606D01*
Y343668D01*
Y343731D01*
Y343794D01*
Y343857D01*
Y343919D01*
Y343982D01*
Y344045D01*
Y344107D01*
Y344170D01*
Y344233D01*
Y344296D01*
Y344358D01*
X319266D01*
Y344421D01*
Y344484D01*
Y344547D01*
X319203D01*
Y344609D01*
Y344672D01*
Y344735D01*
Y344797D01*
X319140D01*
Y344860D01*
X319077D01*
Y344923D01*
X319015D01*
Y344986D01*
X318952D01*
Y345048D01*
X318889D01*
Y345111D01*
D02*
G37*
G36*
X298816Y334196D02*
X298691D01*
Y334134D01*
Y334071D01*
Y334008D01*
Y333946D01*
Y333883D01*
X298753D01*
Y333820D01*
Y333757D01*
Y333695D01*
Y333632D01*
Y333569D01*
Y333506D01*
Y333444D01*
Y333381D01*
Y333318D01*
Y333256D01*
Y333193D01*
Y333130D01*
Y333067D01*
Y333005D01*
X298816D01*
Y332942D01*
Y332879D01*
Y332817D01*
Y332754D01*
Y332691D01*
Y332628D01*
Y332565D01*
Y332503D01*
X298879D01*
Y332440D01*
Y332377D01*
Y332315D01*
Y332252D01*
Y332189D01*
Y332126D01*
Y332064D01*
Y332001D01*
Y331938D01*
Y331875D01*
X299005D01*
Y331813D01*
X299130D01*
Y331750D01*
X299255D01*
Y331687D01*
X299318D01*
Y331625D01*
X299444D01*
Y331562D01*
X299569D01*
Y331499D01*
X299632D01*
Y331436D01*
X299757D01*
Y331374D01*
X299945D01*
Y331311D01*
X300071D01*
Y331248D01*
X300259D01*
Y331186D01*
X300384D01*
Y331123D01*
X300510D01*
Y331060D01*
X300698D01*
Y330997D01*
X300886D01*
Y330935D01*
X301137D01*
Y330872D01*
X301325D01*
Y330809D01*
X301576D01*
Y330747D01*
X303897D01*
Y330809D01*
X304148D01*
Y330872D01*
X304399D01*
Y330935D01*
X304775D01*
Y330997D01*
X304964D01*
Y331060D01*
X305215D01*
Y331123D01*
X305403D01*
Y331186D01*
X305528D01*
Y331248D01*
X305716D01*
Y331311D01*
Y331374D01*
X305779D01*
Y331436D01*
Y331499D01*
Y331562D01*
X305842D01*
Y331625D01*
Y331687D01*
Y331750D01*
Y331813D01*
Y331875D01*
Y331938D01*
Y332001D01*
Y332064D01*
X305905D01*
Y332126D01*
Y332189D01*
Y332252D01*
X305967D01*
Y332315D01*
Y332377D01*
Y332440D01*
Y332503D01*
Y332565D01*
Y332628D01*
Y332691D01*
X306030D01*
Y332754D01*
Y332817D01*
Y332879D01*
Y332942D01*
Y333005D01*
X305905D01*
Y332942D01*
X305716D01*
Y332879D01*
X305591D01*
Y332817D01*
X305215D01*
Y332754D01*
X305026D01*
Y332691D01*
X304838D01*
Y332628D01*
X304524D01*
Y332565D01*
X304211D01*
Y332503D01*
X303709D01*
Y332440D01*
X303207D01*
Y332377D01*
X302266D01*
Y332440D01*
X301827D01*
Y332503D01*
X301388D01*
Y332565D01*
X301200D01*
Y332628D01*
X300949D01*
Y332691D01*
X300823D01*
Y332754D01*
X300698D01*
Y332817D01*
X300573D01*
Y332879D01*
X300447D01*
Y332942D01*
X300384D01*
Y333005D01*
X300259D01*
Y333067D01*
X300196D01*
Y333130D01*
X300071D01*
Y333193D01*
X300008D01*
Y333256D01*
X299883D01*
Y333318D01*
X299820D01*
Y333381D01*
X299694D01*
Y333444D01*
X299632D01*
Y333506D01*
X299569D01*
Y333569D01*
X299506D01*
Y333632D01*
X299444D01*
Y333695D01*
X299381D01*
Y333757D01*
X299255D01*
Y333820D01*
X299193D01*
Y333883D01*
X299130D01*
Y333946D01*
X299067D01*
Y334008D01*
X299005D01*
Y334071D01*
X298942D01*
Y334134D01*
X298816D01*
Y334196D01*
D02*
G37*
G36*
X299883Y329116D02*
X299757D01*
Y329053D01*
Y328990D01*
X299820D01*
Y328927D01*
X299883D01*
Y328865D01*
Y328802D01*
X299945D01*
Y328739D01*
X300008D01*
Y328676D01*
Y328614D01*
Y328551D01*
X300071D01*
Y328488D01*
X300134D01*
Y328426D01*
X300196D01*
Y328363D01*
Y328300D01*
X300259D01*
Y328237D01*
X300322D01*
Y328175D01*
X300384D01*
Y328112D01*
Y328049D01*
X300447D01*
Y327986D01*
X300510D01*
Y327924D01*
Y327861D01*
X300635D01*
Y327798D01*
X300698D01*
Y327735D01*
X300761D01*
Y327673D01*
X300823D01*
Y327610D01*
X300886D01*
Y327547D01*
X300949D01*
Y327485D01*
X301012D01*
Y327422D01*
X301075D01*
Y327359D01*
X301137D01*
Y327296D01*
X301200D01*
Y327234D01*
X301263D01*
Y327171D01*
X301325D01*
Y327108D01*
X301451D01*
Y327045D01*
X301639D01*
Y327108D01*
X301827D01*
Y327171D01*
X302643D01*
Y327108D01*
X302831D01*
Y327045D01*
X302956D01*
Y326983D01*
X303082D01*
Y326920D01*
X303207D01*
Y326857D01*
X303270D01*
Y326795D01*
X303333D01*
Y326732D01*
X303458D01*
Y326669D01*
X303521D01*
Y326606D01*
X303584D01*
Y326544D01*
X303646D01*
Y326481D01*
X303709D01*
Y326418D01*
X303772D01*
Y326356D01*
X303835D01*
Y326293D01*
Y326230D01*
X303960D01*
Y326167D01*
Y326105D01*
X304023D01*
Y326042D01*
X304085D01*
Y325979D01*
X304148D01*
Y325916D01*
X304211D01*
Y325854D01*
Y325791D01*
X304274D01*
Y325728D01*
X304336D01*
Y325665D01*
Y325603D01*
X304399D01*
Y325540D01*
X304462D01*
Y325477D01*
X304524D01*
Y325415D01*
X304587D01*
Y325352D01*
Y325289D01*
X304650D01*
Y325226D01*
Y325164D01*
X304713D01*
Y325101D01*
X304775D01*
Y325038D01*
Y324975D01*
X304838D01*
Y324913D01*
X304901D01*
Y324850D01*
X304964D01*
Y324787D01*
Y324725D01*
X305026D01*
Y324662D01*
X305089D01*
Y324599D01*
Y324536D01*
X305152D01*
Y324474D01*
X305215D01*
Y324411D01*
X305340D01*
Y324474D01*
Y324536D01*
Y324599D01*
Y324662D01*
Y324725D01*
X305403D01*
Y324787D01*
Y324850D01*
Y324913D01*
Y324975D01*
X305465D01*
Y325038D01*
Y325101D01*
Y325164D01*
Y325226D01*
X305528D01*
Y325289D01*
Y325352D01*
Y325415D01*
X305465D01*
Y325477D01*
X305528D01*
Y325540D01*
Y325603D01*
Y325665D01*
Y325728D01*
X305591D01*
Y325791D01*
Y325854D01*
Y325916D01*
X305654D01*
Y325979D01*
Y326042D01*
Y326105D01*
Y326167D01*
Y326230D01*
Y326293D01*
X305716D01*
Y326356D01*
Y326418D01*
Y326481D01*
X305654D01*
Y326544D01*
X305591D01*
Y326606D01*
X305465D01*
Y326669D01*
Y326732D01*
X305403D01*
Y326795D01*
X305277D01*
Y326857D01*
X305215D01*
Y326920D01*
X305152D01*
Y326983D01*
X305026D01*
Y327045D01*
X304964D01*
Y327108D01*
Y327171D01*
Y327234D01*
Y327296D01*
Y327359D01*
X305026D01*
Y327422D01*
Y327485D01*
Y327547D01*
Y327610D01*
Y327673D01*
Y327735D01*
Y327798D01*
Y327861D01*
Y327924D01*
X305089D01*
Y327986D01*
Y328049D01*
Y328112D01*
Y328175D01*
X305152D01*
Y328237D01*
Y328300D01*
Y328363D01*
Y328426D01*
Y328488D01*
Y328551D01*
Y328614D01*
Y328676D01*
X305215D01*
Y328739D01*
Y328802D01*
Y328865D01*
Y328927D01*
X305089D01*
Y328865D01*
X304901D01*
Y328802D01*
X304775D01*
Y328739D01*
X304462D01*
Y328676D01*
X304274D01*
Y328614D01*
X303897D01*
Y328551D01*
X303521D01*
Y328488D01*
X302956D01*
Y328426D01*
X302580D01*
Y328488D01*
X302015D01*
Y328551D01*
X301702D01*
Y328614D01*
X301263D01*
Y328676D01*
X301075D01*
Y328739D01*
X300761D01*
Y328802D01*
X300635D01*
Y328865D01*
X300447D01*
Y328927D01*
X300259D01*
Y328990D01*
X300071D01*
Y329053D01*
X299883D01*
Y329116D01*
D02*
G37*
G36*
X324158Y318828D02*
X324033D01*
Y318765D01*
Y318703D01*
X324158D01*
Y318765D01*
Y318828D01*
D02*
G37*
G36*
X307284Y316570D02*
X307159D01*
Y316507D01*
Y316444D01*
X307284D01*
Y316507D01*
Y316570D01*
D02*
G37*
G36*
X323092Y316444D02*
X322966D01*
Y316382D01*
Y316319D01*
X323092D01*
Y316382D01*
Y316444D01*
D02*
G37*
G36*
X318701Y313685D02*
X318576D01*
Y313622D01*
Y313559D01*
X318701D01*
Y313622D01*
Y313685D01*
D02*
G37*
G36*
X320520Y313622D02*
X320395D01*
Y313559D01*
Y313496D01*
X320520D01*
Y313559D01*
Y313622D01*
D02*
G37*
G36*
X331058Y313873D02*
X330933D01*
Y313810D01*
X330807D01*
Y313747D01*
X330745D01*
Y313685D01*
X330682D01*
Y313622D01*
X330557D01*
Y313559D01*
X330431D01*
Y313496D01*
X330368D01*
Y313434D01*
X330243D01*
Y313371D01*
X330117D01*
Y313308D01*
X329992D01*
Y313245D01*
X329804D01*
Y313183D01*
X329678D01*
Y313120D01*
X329427D01*
Y313057D01*
X329239D01*
Y312995D01*
X329051D01*
Y312932D01*
X328612D01*
Y312869D01*
X328361D01*
Y312806D01*
X327545D01*
Y312744D01*
X325977D01*
Y312806D01*
X325601D01*
Y312744D01*
Y312681D01*
Y312618D01*
Y312556D01*
Y312493D01*
Y312430D01*
X325664D01*
Y312367D01*
Y312304D01*
Y312242D01*
Y312179D01*
Y312116D01*
X325726D01*
Y312054D01*
Y311991D01*
Y311928D01*
Y311865D01*
Y311803D01*
Y311740D01*
Y311677D01*
Y311614D01*
X325852D01*
Y311552D01*
X326228D01*
Y311489D01*
X326479D01*
Y311426D01*
X327796D01*
Y311489D01*
X328173D01*
Y311552D01*
X328612D01*
Y311614D01*
X328800D01*
Y311677D01*
X329114D01*
Y311740D01*
X329239D01*
Y311803D01*
X329427D01*
Y311865D01*
X329678D01*
Y311928D01*
X329741D01*
Y311991D01*
X329929D01*
Y312054D01*
X330055D01*
Y312116D01*
X330180D01*
Y312179D01*
X330368D01*
Y312242D01*
X330431D01*
Y312304D01*
X330557D01*
Y312367D01*
X330682D01*
Y312430D01*
X330807D01*
Y312493D01*
X330933D01*
Y312556D01*
X330995D01*
Y312618D01*
X331121D01*
Y312681D01*
X331246D01*
Y312744D01*
X331309D01*
Y312806D01*
X331435D01*
Y312869D01*
Y312932D01*
Y312995D01*
Y313057D01*
X331372D01*
Y313120D01*
Y313183D01*
Y313245D01*
X331309D01*
Y313308D01*
Y313371D01*
X331246D01*
Y313434D01*
Y313496D01*
Y313559D01*
X331184D01*
Y313622D01*
X331121D01*
Y313685D01*
Y313747D01*
X331058D01*
Y313810D01*
Y313873D01*
D02*
G37*
G36*
X320583Y310297D02*
X320520D01*
Y310234D01*
Y310172D01*
X320457D01*
Y310109D01*
Y310046D01*
Y309984D01*
X320395D01*
Y309921D01*
Y309858D01*
Y309795D01*
Y309733D01*
X320332D01*
Y309670D01*
Y309607D01*
X320206D01*
Y309544D01*
Y309482D01*
X320144D01*
Y309419D01*
X320081D01*
Y309356D01*
X320018D01*
Y309294D01*
X319955D01*
Y309231D01*
X319830D01*
Y309168D01*
X319767D01*
Y309105D01*
X319642D01*
Y309043D01*
X319454D01*
Y308980D01*
X319266D01*
Y308917D01*
X319015D01*
Y308855D01*
X318325D01*
Y308917D01*
X318011D01*
Y308980D01*
X317885D01*
Y309043D01*
X317635D01*
Y309105D01*
X317446D01*
Y309168D01*
X317321D01*
Y309231D01*
X317196D01*
Y309294D01*
X317133D01*
Y309356D01*
X317007D01*
Y309419D01*
X316945D01*
Y309482D01*
X316882D01*
Y309544D01*
X316756D01*
Y309607D01*
X316694D01*
Y309670D01*
X316631D01*
Y309733D01*
X316568D01*
Y309795D01*
X316506D01*
Y309858D01*
X316443D01*
Y309921D01*
X316380D01*
Y309984D01*
Y310046D01*
X316317D01*
Y310109D01*
Y310172D01*
X316255D01*
Y310109D01*
X316192D01*
Y310046D01*
X316129D01*
Y309984D01*
X316066D01*
Y309921D01*
X316004D01*
Y309858D01*
X315941D01*
Y309795D01*
X315878D01*
Y309733D01*
X315815D01*
Y309670D01*
X315753D01*
Y309607D01*
Y309544D01*
X315690D01*
Y309482D01*
Y309419D01*
X315627D01*
Y309356D01*
X315565D01*
Y309294D01*
Y309231D01*
Y309168D01*
X315502D01*
Y309105D01*
Y309043D01*
Y308980D01*
Y308917D01*
Y308855D01*
Y308792D01*
X315439D01*
Y308729D01*
Y308666D01*
Y308604D01*
Y308541D01*
Y308478D01*
X315502D01*
Y308415D01*
Y308353D01*
Y308290D01*
Y308227D01*
Y308165D01*
Y308102D01*
X315565D01*
Y308039D01*
Y307976D01*
X315627D01*
Y307914D01*
Y307851D01*
Y307788D01*
X315690D01*
Y307725D01*
Y307663D01*
Y307600D01*
X315753D01*
Y307537D01*
X315815D01*
Y307474D01*
Y307412D01*
X315878D01*
Y307349D01*
Y307286D01*
X315941D01*
Y307224D01*
Y307161D01*
X316004D01*
Y307098D01*
Y307035D01*
X316066D01*
Y306973D01*
X316129D01*
Y306910D01*
X316192D01*
Y306847D01*
Y306785D01*
X316255D01*
Y306722D01*
X316317D01*
Y306659D01*
Y306596D01*
X316380D01*
Y306534D01*
X316443D01*
Y306471D01*
X316506D01*
Y306408D01*
Y306345D01*
X316631D01*
Y306283D01*
X316694D01*
Y306220D01*
X316756D01*
Y306157D01*
X316819D01*
Y306095D01*
X316882D01*
Y306032D01*
X316945D01*
Y305969D01*
X317007D01*
Y305906D01*
X317070D01*
Y305844D01*
X317133D01*
Y305781D01*
X317196D01*
Y305718D01*
X317258D01*
Y305655D01*
X317321D01*
Y305593D01*
X317384D01*
Y305530D01*
X317509D01*
Y305467D01*
X317572D01*
Y305404D01*
X317635D01*
Y305342D01*
X317760D01*
Y305279D01*
X317823D01*
Y305216D01*
X317885D01*
Y305154D01*
X318011D01*
Y305091D01*
X318074D01*
Y305028D01*
X318199D01*
Y304965D01*
X318325D01*
Y304903D01*
X318387D01*
Y304840D01*
X318513D01*
Y304777D01*
X318638D01*
Y304714D01*
X318764D01*
Y304652D01*
X318826D01*
Y304589D01*
X318952D01*
Y304526D01*
X319140D01*
Y304464D01*
X319266D01*
Y304401D01*
X319454D01*
Y304338D01*
X319642D01*
Y304275D01*
X319767D01*
Y304213D01*
X320081D01*
Y304150D01*
X320269D01*
Y304087D01*
X320583D01*
Y304025D01*
X321524D01*
Y304087D01*
X321775D01*
Y304150D01*
X321963D01*
Y304213D01*
X322151D01*
Y304275D01*
X322276D01*
Y304338D01*
X322402D01*
Y304401D01*
X322527D01*
Y304464D01*
X322590D01*
Y304526D01*
X322653D01*
Y304589D01*
X322715D01*
Y304652D01*
X322778D01*
Y304714D01*
X322841D01*
Y304777D01*
X322904D01*
Y304840D01*
X323029D01*
Y304903D01*
Y304965D01*
X323092D01*
Y305028D01*
X323155D01*
Y305091D01*
Y305154D01*
X323217D01*
Y305216D01*
Y305279D01*
Y305342D01*
X323280D01*
Y305404D01*
X323343D01*
Y305467D01*
Y305530D01*
X323406D01*
Y305593D01*
Y305655D01*
Y305718D01*
Y305781D01*
X323468D01*
Y305844D01*
Y305906D01*
Y305969D01*
X323531D01*
Y306032D01*
Y306095D01*
Y306157D01*
X323594D01*
Y306220D01*
Y306283D01*
Y306345D01*
Y306408D01*
Y306471D01*
Y306534D01*
Y306596D01*
Y306659D01*
Y306722D01*
Y306785D01*
Y306847D01*
Y306910D01*
Y306973D01*
Y307035D01*
Y307098D01*
Y307161D01*
Y307224D01*
X323531D01*
Y307286D01*
Y307349D01*
Y307412D01*
X323468D01*
Y307474D01*
Y307537D01*
Y307600D01*
X323406D01*
Y307663D01*
Y307725D01*
Y307788D01*
Y307851D01*
X323343D01*
Y307914D01*
X323280D01*
Y307976D01*
Y308039D01*
X323217D01*
Y308102D01*
Y308165D01*
X323155D01*
Y308227D01*
X323092D01*
Y308290D01*
Y308353D01*
X323029D01*
Y308415D01*
X322966D01*
Y308478D01*
X322904D01*
Y308541D01*
Y308604D01*
X322841D01*
Y308666D01*
X322778D01*
Y308729D01*
X322715D01*
Y308792D01*
X322653D01*
Y308855D01*
X322590D01*
Y308917D01*
X322527D01*
Y308980D01*
X322465D01*
Y309043D01*
X322402D01*
Y309105D01*
X322339D01*
Y309168D01*
X322214D01*
Y309231D01*
X322151D01*
Y309294D01*
X322088D01*
Y309356D01*
X321963D01*
Y309419D01*
X321900D01*
Y309482D01*
X321837D01*
Y309544D01*
X321775D01*
Y309607D01*
X321649D01*
Y309670D01*
X321586D01*
Y309733D01*
X321461D01*
Y309795D01*
X321336D01*
Y309858D01*
X321273D01*
Y309921D01*
X321147D01*
Y309984D01*
X321085D01*
Y310046D01*
X320959D01*
Y310109D01*
X320834D01*
Y310172D01*
X320708D01*
Y310234D01*
X320583D01*
Y310297D01*
D02*
G37*
G36*
X332689Y309733D02*
X332501D01*
Y309670D01*
X332313D01*
Y309607D01*
X332187D01*
Y309544D01*
X331999D01*
Y309482D01*
X331874D01*
Y309419D01*
X331748D01*
Y309356D01*
X331560D01*
Y309294D01*
X331372D01*
Y309231D01*
X331184D01*
Y309168D01*
X330995D01*
Y309105D01*
X330807D01*
Y309043D01*
X330557D01*
Y308980D01*
X330368D01*
Y308917D01*
X330180D01*
Y308855D01*
X329741D01*
Y308792D01*
X329553D01*
Y308729D01*
X328988D01*
Y308666D01*
X328549D01*
Y308604D01*
X327106D01*
Y308666D01*
X326793D01*
Y308729D01*
X326291D01*
Y308792D01*
X326103D01*
Y308855D01*
X325789D01*
Y308792D01*
Y308729D01*
X325726D01*
Y308666D01*
Y308604D01*
Y308541D01*
Y308478D01*
X325789D01*
Y308415D01*
X325726D01*
Y308353D01*
X325664D01*
Y308290D01*
Y308227D01*
X325601D01*
Y308165D01*
Y308102D01*
Y308039D01*
X325538D01*
Y307976D01*
Y307914D01*
X325476D01*
Y307851D01*
X325413D01*
Y307788D01*
Y307725D01*
Y307663D01*
X325350D01*
Y307600D01*
X325287D01*
Y307537D01*
Y307474D01*
Y307412D01*
Y307349D01*
Y307286D01*
X325225D01*
Y307224D01*
Y307161D01*
Y307098D01*
Y307035D01*
Y306973D01*
Y306910D01*
Y306847D01*
Y306785D01*
X325287D01*
Y306722D01*
Y306659D01*
Y306596D01*
X325350D01*
Y306534D01*
Y306471D01*
X325476D01*
Y306408D01*
X325538D01*
Y306345D01*
X325601D01*
Y306283D01*
X325664D01*
Y306220D01*
X325726D01*
Y306157D01*
X325852D01*
Y306220D01*
Y306283D01*
Y306345D01*
Y306408D01*
X325789D01*
Y306471D01*
Y306534D01*
X325726D01*
Y306596D01*
Y306659D01*
Y306722D01*
X325789D01*
Y306785D01*
X325852D01*
Y306722D01*
X325915D01*
Y306659D01*
Y306596D01*
Y306534D01*
Y306471D01*
X325977D01*
Y306408D01*
Y306345D01*
X326040D01*
Y306283D01*
Y306220D01*
X326103D01*
Y306157D01*
Y306095D01*
Y306032D01*
X326166D01*
Y305969D01*
X326228D01*
Y305906D01*
Y305844D01*
X326291D01*
Y305781D01*
Y305718D01*
X326416D01*
Y305655D01*
Y305593D01*
X326479D01*
Y305530D01*
Y305467D01*
X326542D01*
Y305404D01*
Y305342D01*
X326605D01*
Y305279D01*
X326793D01*
Y305216D01*
X326981D01*
Y305154D01*
X327545D01*
Y305216D01*
X327671D01*
Y305279D01*
X327796D01*
Y305342D01*
X327859D01*
Y305404D01*
X327985D01*
Y305467D01*
X328047D01*
Y305530D01*
X328110D01*
Y305593D01*
X328236D01*
Y305655D01*
X328298D01*
Y305718D01*
X328424D01*
Y305781D01*
X328549D01*
Y305844D01*
X328737D01*
Y305906D01*
X328925D01*
Y305969D01*
X329302D01*
Y306032D01*
X330306D01*
Y305969D01*
Y305906D01*
X330368D01*
Y305844D01*
Y305781D01*
Y305718D01*
X330431D01*
Y305655D01*
Y305593D01*
Y305530D01*
X330494D01*
Y305467D01*
Y305404D01*
Y305342D01*
Y305279D01*
Y305216D01*
Y305154D01*
Y305091D01*
Y305028D01*
Y304965D01*
Y304903D01*
Y304840D01*
X330619D01*
Y304903D01*
X330682D01*
Y304965D01*
X330745D01*
Y305028D01*
X330870D01*
Y305091D01*
X330933D01*
Y305154D01*
X330995D01*
Y305216D01*
X331058D01*
Y305279D01*
Y305342D01*
X331121D01*
Y305404D01*
X331184D01*
Y305467D01*
X331246D01*
Y305530D01*
X331372D01*
Y305593D01*
Y305655D01*
Y305718D01*
X331497D01*
Y305781D01*
X331560D01*
Y305844D01*
Y305906D01*
X331623D01*
Y305969D01*
Y306032D01*
X331686D01*
Y306095D01*
X331748D01*
Y306157D01*
Y306220D01*
X331811D01*
Y306283D01*
X331874D01*
Y306345D01*
X331937D01*
Y306408D01*
X331999D01*
Y306471D01*
Y306534D01*
X332062D01*
Y306596D01*
X332125D01*
Y306659D01*
Y306722D01*
X332187D01*
Y306785D01*
Y306847D01*
X332313D01*
Y306910D01*
X332376D01*
Y306973D01*
Y307035D01*
X332438D01*
Y307098D01*
Y307161D01*
X332501D01*
Y307224D01*
Y307286D01*
X332564D01*
Y307349D01*
X332627D01*
Y307412D01*
Y307474D01*
X332689D01*
Y307537D01*
Y307600D01*
X332752D01*
Y307663D01*
Y307725D01*
Y307788D01*
X332815D01*
Y307851D01*
Y307914D01*
X332877D01*
Y307976D01*
Y308039D01*
Y308102D01*
Y308165D01*
Y308227D01*
Y308290D01*
Y308353D01*
Y308415D01*
Y308478D01*
Y308541D01*
Y308604D01*
Y308666D01*
Y308729D01*
Y308792D01*
Y308855D01*
Y308917D01*
Y308980D01*
Y309043D01*
X332815D01*
Y309105D01*
Y309168D01*
Y309231D01*
Y309294D01*
X332752D01*
Y309356D01*
Y309419D01*
Y309482D01*
X332689D01*
Y309544D01*
Y309607D01*
Y309670D01*
Y309733D01*
D02*
G37*
G36*
X306218Y311803D02*
X306155D01*
Y311740D01*
X306093D01*
Y311677D01*
X305967D01*
Y311614D01*
X305779D01*
Y311552D01*
Y311489D01*
X305654D01*
Y311426D01*
X305528D01*
Y311364D01*
X305403D01*
Y311301D01*
X305340D01*
Y311238D01*
X305277D01*
Y311175D01*
X305152D01*
Y311113D01*
X305089D01*
Y311050D01*
X304964D01*
Y310987D01*
X304838D01*
Y310925D01*
X304775D01*
Y310862D01*
Y310799D01*
X304650D01*
Y310736D01*
X304587D01*
Y310674D01*
X304524D01*
Y310611D01*
X304462D01*
Y310548D01*
X304399D01*
Y310485D01*
X304336D01*
Y310423D01*
X304274D01*
Y310360D01*
X304211D01*
Y310297D01*
X304148D01*
Y310234D01*
X304085D01*
Y310172D01*
X304023D01*
Y310109D01*
X303960D01*
Y310046D01*
Y309984D01*
X303835D01*
Y309921D01*
X303772D01*
Y309858D01*
Y309795D01*
X303709D01*
Y309733D01*
Y309670D01*
X303646D01*
Y309607D01*
Y309544D01*
X303584D01*
Y309482D01*
X303521D01*
Y309419D01*
Y309356D01*
X303458D01*
Y309294D01*
Y309231D01*
Y309168D01*
X303395D01*
Y309105D01*
Y309043D01*
X303333D01*
Y308980D01*
Y308917D01*
Y308855D01*
X303270D01*
Y308792D01*
Y308729D01*
Y308666D01*
Y308604D01*
Y308541D01*
Y308478D01*
Y308415D01*
Y308353D01*
Y308290D01*
Y308227D01*
Y308165D01*
Y308102D01*
Y308039D01*
Y307976D01*
X303333D01*
Y307914D01*
Y307851D01*
X303395D01*
Y307788D01*
X303458D01*
Y307725D01*
Y307663D01*
X303521D01*
Y307600D01*
X303584D01*
Y307537D01*
Y307474D01*
X303646D01*
Y307412D01*
X303709D01*
Y307349D01*
X303772D01*
Y307286D01*
X303897D01*
Y307224D01*
X304023D01*
Y307161D01*
X304085D01*
Y307098D01*
X304211D01*
Y307035D01*
X304336D01*
Y306973D01*
X304587D01*
Y306910D01*
X304713D01*
Y306847D01*
X304964D01*
Y306785D01*
X305779D01*
Y306722D01*
X306093D01*
Y306785D01*
X306971D01*
Y306847D01*
X307222D01*
Y306910D01*
X307473D01*
Y306973D01*
X307849D01*
Y307035D01*
X308037D01*
Y307098D01*
X308225D01*
Y307161D01*
X308476D01*
Y307224D01*
X308664D01*
Y307286D01*
X308853D01*
Y307349D01*
X308978D01*
Y307412D01*
X309041D01*
Y307474D01*
X309292D01*
Y307537D01*
X309354D01*
Y307600D01*
X309480D01*
Y307663D01*
X309605D01*
Y307725D01*
X309731D01*
Y307788D01*
X309794D01*
Y307851D01*
X309919D01*
Y307914D01*
X309982D01*
Y307976D01*
X310107D01*
Y308039D01*
X310170D01*
Y308102D01*
X310233D01*
Y308165D01*
X310295D01*
Y308227D01*
X310358D01*
Y308290D01*
X310421D01*
Y308353D01*
X310546D01*
Y308415D01*
X310609D01*
Y308478D01*
X310672D01*
Y308541D01*
X310735D01*
Y308604D01*
X310797D01*
Y308666D01*
X310860D01*
Y308729D01*
X310923D01*
Y308792D01*
X310985D01*
Y308855D01*
X311048D01*
Y308917D01*
Y308980D01*
X311111D01*
Y309043D01*
X311174D01*
Y309105D01*
X311236D01*
Y309168D01*
Y309231D01*
X311299D01*
Y309294D01*
X311362D01*
Y309356D01*
Y309419D01*
Y309482D01*
Y309544D01*
X311424D01*
Y309607D01*
Y309670D01*
Y309733D01*
X311487D01*
Y309795D01*
Y309858D01*
Y309921D01*
Y309984D01*
Y310046D01*
X311424D01*
Y310109D01*
Y310172D01*
Y310234D01*
X311362D01*
Y310297D01*
Y310360D01*
Y310423D01*
Y310485D01*
X311299D01*
Y310548D01*
X311236D01*
Y310611D01*
Y310674D01*
X311174D01*
Y310736D01*
Y310799D01*
X311048D01*
Y310862D01*
Y310925D01*
X310985D01*
Y310987D01*
Y311050D01*
X310923D01*
Y311113D01*
X310860D01*
Y311175D01*
Y311238D01*
X310797D01*
Y311301D01*
X310735D01*
Y311364D01*
X310672D01*
Y311426D01*
X310609D01*
Y311364D01*
X310546D01*
Y311301D01*
X310421D01*
Y311238D01*
X310295D01*
Y311175D01*
X310233D01*
Y311113D01*
X310107D01*
Y311050D01*
X309982D01*
Y310987D01*
X309794D01*
Y310925D01*
X309668D01*
Y310862D01*
X309354D01*
Y310799D01*
X309166D01*
Y310736D01*
X308915D01*
Y310674D01*
X307598D01*
Y310736D01*
X307347D01*
Y310799D01*
X307222D01*
Y310862D01*
X307034D01*
Y310925D01*
X306908D01*
Y310987D01*
X306783D01*
Y311050D01*
X306720D01*
Y311113D01*
X306657D01*
Y311175D01*
X306594D01*
Y311238D01*
X306532D01*
Y311301D01*
X306469D01*
Y311364D01*
X306406D01*
Y311426D01*
Y311489D01*
X306281D01*
Y311552D01*
X306344D01*
Y311614D01*
X306281D01*
Y311677D01*
Y311740D01*
X306218D01*
Y311803D01*
D02*
G37*
%LPD*%
G36*
X317446Y343166D02*
X317635D01*
Y343104D01*
X317760D01*
Y343041D01*
X317823D01*
Y342978D01*
X317885D01*
Y342916D01*
X317948D01*
Y342853D01*
X318011D01*
Y342790D01*
Y342727D01*
X318074D01*
Y342665D01*
Y342602D01*
X318136D01*
Y342539D01*
Y342477D01*
Y342414D01*
X318199D01*
Y342351D01*
Y342288D01*
X318262D01*
Y342226D01*
Y342163D01*
Y342100D01*
Y342037D01*
Y341975D01*
Y341912D01*
Y341849D01*
Y341787D01*
Y341724D01*
Y341661D01*
Y341598D01*
Y341536D01*
Y341473D01*
Y341410D01*
Y341347D01*
Y341285D01*
Y341222D01*
Y341159D01*
Y341096D01*
Y341034D01*
Y340971D01*
Y340908D01*
Y340846D01*
X318199D01*
Y340783D01*
Y340720D01*
Y340657D01*
X318136D01*
Y340595D01*
Y340532D01*
X318074D01*
Y340469D01*
X318136D01*
Y340406D01*
X318074D01*
Y340344D01*
Y340281D01*
X318011D01*
Y340218D01*
Y340156D01*
X317948D01*
Y340093D01*
Y340030D01*
Y339967D01*
X317885D01*
Y339905D01*
X317823D01*
Y339842D01*
X317760D01*
Y339779D01*
Y339717D01*
X317697D01*
Y339654D01*
Y339591D01*
X317635D01*
Y339528D01*
X317572D01*
Y339466D01*
X317509D01*
Y339403D01*
X317446D01*
Y339340D01*
X317384D01*
Y339277D01*
X317258D01*
Y339215D01*
X317196D01*
Y339152D01*
X317007D01*
Y339089D01*
X316756D01*
Y339026D01*
X316694D01*
Y339089D01*
X316506D01*
Y339152D01*
X316380D01*
Y339215D01*
X316317D01*
Y339277D01*
X316192D01*
Y339340D01*
X316129D01*
Y339403D01*
Y339466D01*
X316066D01*
Y339528D01*
Y339591D01*
X316004D01*
Y339654D01*
X315941D01*
Y339717D01*
Y339779D01*
Y339842D01*
Y339905D01*
X315878D01*
Y339967D01*
Y340030D01*
Y340093D01*
X315815D01*
Y340156D01*
Y340218D01*
Y340281D01*
Y340344D01*
Y340406D01*
Y340469D01*
X315753D01*
Y340532D01*
Y340595D01*
Y340657D01*
Y340720D01*
Y340783D01*
Y340846D01*
X315815D01*
Y340908D01*
Y340971D01*
Y341034D01*
Y341096D01*
Y341159D01*
Y341222D01*
X315878D01*
Y341285D01*
Y341347D01*
Y341410D01*
Y341473D01*
X315941D01*
Y341536D01*
Y341598D01*
Y341661D01*
Y341724D01*
Y341787D01*
X316004D01*
Y341849D01*
X316066D01*
Y341912D01*
Y341975D01*
Y342037D01*
Y342100D01*
Y342163D01*
X316192D01*
Y342226D01*
Y342288D01*
X316255D01*
Y342351D01*
Y342414D01*
Y342477D01*
X316380D01*
Y342539D01*
Y342602D01*
X316443D01*
Y342665D01*
Y342727D01*
X316506D01*
Y342790D01*
X316568D01*
Y342853D01*
X316631D01*
Y342916D01*
X316694D01*
Y342978D01*
X316819D01*
Y343041D01*
X316882D01*
Y343104D01*
X317070D01*
Y343166D01*
X317196D01*
Y343229D01*
X317446D01*
Y343166D01*
D02*
G37*
G36*
X324911Y341410D02*
X325036D01*
Y341347D01*
X325099D01*
Y341285D01*
X325162D01*
Y341222D01*
X325225D01*
Y341159D01*
X325287D01*
Y341096D01*
Y341034D01*
X325350D01*
Y340971D01*
Y340908D01*
Y340846D01*
X325413D01*
Y340783D01*
Y340720D01*
Y340657D01*
Y340595D01*
Y340532D01*
Y340469D01*
Y340406D01*
Y340344D01*
Y340281D01*
Y340218D01*
Y340156D01*
Y340093D01*
Y340030D01*
Y339967D01*
Y339905D01*
X325350D01*
Y339842D01*
Y339779D01*
Y339717D01*
Y339654D01*
X325287D01*
Y339591D01*
Y339528D01*
Y339466D01*
Y339403D01*
Y339340D01*
X325225D01*
Y339277D01*
Y339215D01*
X325162D01*
Y339152D01*
X325099D01*
Y339089D01*
Y339026D01*
Y338964D01*
Y338901D01*
X325036D01*
Y338838D01*
X324974D01*
Y338776D01*
Y338713D01*
Y338650D01*
X324911D01*
Y338587D01*
Y338525D01*
X324848D01*
Y338462D01*
Y338399D01*
X324785D01*
Y338336D01*
X324723D01*
Y338274D01*
X324660D01*
Y338211D01*
Y338148D01*
X324597D01*
Y338086D01*
X324535D01*
Y338023D01*
X324472D01*
Y337960D01*
X324409D01*
Y337897D01*
X324346D01*
Y337835D01*
X324284D01*
Y337772D01*
X324221D01*
Y337709D01*
X324096D01*
Y337647D01*
X324033D01*
Y337584D01*
X323907D01*
Y337521D01*
X323406D01*
Y337584D01*
X323343D01*
Y337647D01*
X323280D01*
Y337709D01*
X323155D01*
Y337772D01*
Y337835D01*
X323092D01*
Y337897D01*
Y337960D01*
X323029D01*
Y338023D01*
X322966D01*
Y338086D01*
Y338148D01*
Y338211D01*
X322904D01*
Y338274D01*
Y338336D01*
Y338399D01*
Y338462D01*
Y338525D01*
Y338587D01*
Y338650D01*
Y338713D01*
Y338776D01*
Y338838D01*
Y338901D01*
Y338964D01*
Y339026D01*
Y339089D01*
X322966D01*
Y339152D01*
Y339215D01*
Y339277D01*
Y339340D01*
X323029D01*
Y339403D01*
Y339466D01*
Y339528D01*
X323092D01*
Y339591D01*
Y339654D01*
Y339717D01*
Y339779D01*
X323155D01*
Y339842D01*
Y339905D01*
X323217D01*
Y339967D01*
Y340030D01*
Y340093D01*
X323280D01*
Y340156D01*
Y340218D01*
X323343D01*
Y340281D01*
X323406D01*
Y340344D01*
Y340406D01*
Y340469D01*
X323468D01*
Y340532D01*
X323531D01*
Y340595D01*
X323594D01*
Y340657D01*
Y340720D01*
X323656D01*
Y340783D01*
X323719D01*
Y340846D01*
Y340908D01*
X323782D01*
Y340971D01*
X323845D01*
Y341034D01*
X323907D01*
Y341096D01*
X323970D01*
Y341159D01*
X324033D01*
Y341222D01*
X324096D01*
Y341285D01*
X324158D01*
Y341347D01*
X324284D01*
Y341410D01*
X324409D01*
Y341473D01*
X324911D01*
Y341410D01*
D02*
G37*
G36*
X315000Y334196D02*
Y334134D01*
Y334071D01*
X314937D01*
Y334008D01*
X314875D01*
Y333946D01*
X314812D01*
Y333883D01*
X314749D01*
Y333820D01*
X314686D01*
Y333757D01*
X314624D01*
Y333695D01*
X314561D01*
Y333632D01*
X314498D01*
Y333569D01*
X314436D01*
Y333506D01*
X314373D01*
Y333444D01*
X314310D01*
Y333381D01*
Y333318D01*
X314247D01*
Y333256D01*
X314184D01*
Y333193D01*
X314122D01*
Y333130D01*
X314059D01*
Y333067D01*
Y333005D01*
X313934D01*
Y332942D01*
Y332879D01*
X313871D01*
Y332817D01*
X313808D01*
Y332754D01*
Y332691D01*
X313745D01*
Y332628D01*
Y332565D01*
X313683D01*
Y332503D01*
X313557D01*
Y332440D01*
Y332377D01*
Y332315D01*
X313494D01*
Y332252D01*
X313432D01*
Y332189D01*
X313306D01*
Y332252D01*
Y332315D01*
Y332377D01*
X313369D01*
Y332440D01*
X313432D01*
Y332503D01*
Y332565D01*
X313494D01*
Y332628D01*
Y332691D01*
X313620D01*
Y332754D01*
Y332817D01*
Y332879D01*
X313745D01*
Y332942D01*
Y333005D01*
X313808D01*
Y333067D01*
X313871D01*
Y333130D01*
X313934D01*
Y333193D01*
Y333256D01*
X313996D01*
Y333318D01*
X314059D01*
Y333381D01*
Y333444D01*
X314122D01*
Y333506D01*
X314184D01*
Y333569D01*
X314247D01*
Y333632D01*
X314310D01*
Y333695D01*
X314436D01*
Y333757D01*
Y333820D01*
Y333883D01*
X314561D01*
Y333946D01*
X314624D01*
Y334008D01*
X314686D01*
Y334071D01*
X314749D01*
Y334134D01*
X314812D01*
Y334196D01*
X314875D01*
Y334259D01*
X315000D01*
Y334196D01*
D02*
G37*
G36*
X322151Y332315D02*
Y332252D01*
X322088D01*
Y332189D01*
X322025D01*
Y332126D01*
X321900D01*
Y332064D01*
X321775D01*
Y332001D01*
X321712D01*
Y331938D01*
X321586D01*
Y331875D01*
X321524D01*
Y331813D01*
X321461D01*
Y331750D01*
X321398D01*
Y331687D01*
X321336D01*
Y331625D01*
X321273D01*
Y331562D01*
X321210D01*
Y331499D01*
X321147D01*
Y331436D01*
X321085D01*
Y331374D01*
X321022D01*
Y331311D01*
X320959D01*
Y331248D01*
X320896D01*
Y331186D01*
Y331123D01*
X320834D01*
Y331060D01*
X320771D01*
Y330997D01*
X320708D01*
Y330935D01*
Y330872D01*
X320645D01*
Y330809D01*
X320583D01*
Y330747D01*
X320520D01*
Y330684D01*
X320457D01*
Y330621D01*
X320395D01*
Y330558D01*
Y330496D01*
X320332D01*
Y330433D01*
X320269D01*
Y330370D01*
X320206D01*
Y330307D01*
Y330245D01*
X320144D01*
Y330182D01*
X320081D01*
Y330119D01*
Y330056D01*
X319830D01*
Y330119D01*
X319893D01*
Y330182D01*
Y330245D01*
X319955D01*
Y330307D01*
X320018D01*
Y330370D01*
X320081D01*
Y330433D01*
Y330496D01*
X320144D01*
Y330558D01*
X320206D01*
Y330621D01*
Y330684D01*
X320269D01*
Y330747D01*
X320332D01*
Y330809D01*
X320395D01*
Y330872D01*
X320457D01*
Y330935D01*
Y330997D01*
X320520D01*
Y331060D01*
X320583D01*
Y331123D01*
X320645D01*
Y331186D01*
Y331248D01*
X320708D01*
Y331311D01*
X320771D01*
Y331374D01*
X320834D01*
Y331436D01*
X320896D01*
Y331499D01*
X320959D01*
Y331562D01*
X321022D01*
Y331625D01*
X321085D01*
Y331687D01*
X321147D01*
Y331750D01*
X321210D01*
Y331813D01*
X321273D01*
Y331875D01*
X321336D01*
Y331938D01*
X321398D01*
Y332001D01*
X321461D01*
Y332064D01*
X321586D01*
Y332126D01*
X321649D01*
Y332189D01*
X321775D01*
Y332252D01*
X321837D01*
Y332315D01*
X321900D01*
Y332377D01*
X322151D01*
Y332315D01*
D02*
G37*
G36*
X309354Y330684D02*
X309417D01*
Y330621D01*
X309543D01*
Y330558D01*
X309605D01*
Y330496D01*
X309731D01*
Y330433D01*
X309794D01*
Y330370D01*
X309856D01*
Y330307D01*
X309982D01*
Y330245D01*
X310045D01*
Y330182D01*
X310107D01*
Y330119D01*
X310170D01*
Y330056D01*
X310295D01*
Y329994D01*
X310358D01*
Y329931D01*
X310484D01*
Y329868D01*
X310546D01*
Y329805D01*
X310609D01*
Y329743D01*
X310672D01*
Y329680D01*
X310735D01*
Y329617D01*
X310860D01*
Y329555D01*
X310923D01*
Y329492D01*
X311048D01*
Y329429D01*
X311111D01*
Y329366D01*
X311174D01*
Y329304D01*
X311299D01*
Y329241D01*
X311362D01*
Y329178D01*
X311424D01*
Y329116D01*
X311487D01*
Y329053D01*
X311613D01*
Y328990D01*
X311675D01*
Y328927D01*
X311801D01*
Y328865D01*
X311864D01*
Y328802D01*
X311926D01*
Y328739D01*
X311989D01*
Y328676D01*
X312052D01*
Y328614D01*
X312177D01*
Y328551D01*
X312240D01*
Y328488D01*
X312366D01*
Y328426D01*
Y328363D01*
X312240D01*
Y328426D01*
X312115D01*
Y328488D01*
Y328551D01*
X311989D01*
Y328614D01*
X311926D01*
Y328676D01*
X311864D01*
Y328739D01*
X311675D01*
Y328676D01*
Y328614D01*
X311613D01*
Y328551D01*
X311550D01*
Y328488D01*
X311424D01*
Y328551D01*
X311362D01*
Y328614D01*
Y328676D01*
Y328739D01*
Y328802D01*
Y328865D01*
Y328927D01*
X311424D01*
Y328990D01*
Y329053D01*
X311362D01*
Y329116D01*
X311299D01*
Y329178D01*
X311174D01*
Y329241D01*
X311111D01*
Y329304D01*
X310985D01*
Y329366D01*
X310923D01*
Y329429D01*
X310797D01*
Y329492D01*
X310735D01*
Y329555D01*
X310672D01*
Y329617D01*
X310609D01*
Y329680D01*
X310546D01*
Y329743D01*
X310421D01*
Y329805D01*
X310358D01*
Y329868D01*
X310233D01*
Y329931D01*
X310170D01*
Y329994D01*
X310107D01*
Y330056D01*
X310045D01*
Y330119D01*
X309982D01*
Y330182D01*
X309856D01*
Y330245D01*
X309794D01*
Y330307D01*
X309668D01*
Y330370D01*
X309605D01*
Y330433D01*
X309480D01*
Y330496D01*
X309417D01*
Y330558D01*
X309354D01*
Y330621D01*
X309229D01*
Y330684D01*
Y330747D01*
X309354D01*
Y330684D01*
D02*
G37*
G36*
X309417Y330182D02*
X309480D01*
Y330119D01*
Y330056D01*
Y329994D01*
Y329931D01*
X309543D01*
Y329868D01*
X309605D01*
Y329805D01*
Y329743D01*
X309668D01*
Y329680D01*
Y329617D01*
X309731D01*
Y329555D01*
Y329492D01*
X309794D01*
Y329429D01*
Y329366D01*
X309919D01*
Y329304D01*
Y329241D01*
X309982D01*
Y329178D01*
Y329116D01*
X310045D01*
Y329053D01*
X310107D01*
Y328990D01*
Y328927D01*
X310170D01*
Y328865D01*
X310233D01*
Y328802D01*
X310295D01*
Y328739D01*
X310358D01*
Y328676D01*
X310421D01*
Y328614D01*
X310484D01*
Y328551D01*
X310546D01*
Y328488D01*
X310609D01*
Y328426D01*
X310672D01*
Y328363D01*
X310797D01*
Y328300D01*
X310860D01*
Y328237D01*
X310985D01*
Y328175D01*
X311111D01*
Y328112D01*
X311236D01*
Y328049D01*
X311424D01*
Y327986D01*
X311738D01*
Y328049D01*
X311926D01*
Y327986D01*
X311864D01*
Y327924D01*
X311236D01*
Y327986D01*
X311111D01*
Y328049D01*
X310985D01*
Y328112D01*
X310860D01*
Y328175D01*
X310797D01*
Y328237D01*
X310672D01*
Y328300D01*
X310609D01*
Y328363D01*
X310546D01*
Y328426D01*
X310484D01*
Y328488D01*
X310421D01*
Y328551D01*
X310358D01*
Y328614D01*
X310295D01*
Y328676D01*
X310233D01*
Y328739D01*
X310170D01*
Y328802D01*
X310107D01*
Y328865D01*
X310045D01*
Y328927D01*
Y328990D01*
X309982D01*
Y329053D01*
X309919D01*
Y329116D01*
X309856D01*
Y329178D01*
Y329241D01*
X309794D01*
Y329304D01*
X309731D01*
Y329366D01*
Y329429D01*
X309668D01*
Y329492D01*
Y329555D01*
X309605D01*
Y329617D01*
X309543D01*
Y329680D01*
Y329743D01*
X309480D01*
Y329805D01*
Y329868D01*
X309417D01*
Y329931D01*
Y329994D01*
Y330056D01*
X309354D01*
Y330119D01*
Y330182D01*
Y330245D01*
X309417D01*
Y330182D01*
D02*
G37*
G36*
X314373Y327798D02*
X317635D01*
Y327735D01*
X319140D01*
Y327673D01*
X319642D01*
Y327610D01*
X317384D01*
Y327673D01*
X315690D01*
Y327610D01*
X315627D01*
Y327547D01*
Y327485D01*
X315690D01*
Y327422D01*
X315565D01*
Y327359D01*
Y327296D01*
X315439D01*
Y327359D01*
Y327422D01*
X315376D01*
Y327485D01*
Y327547D01*
Y327610D01*
X315314D01*
Y327673D01*
Y327735D01*
X314122D01*
Y327798D01*
X314184D01*
Y327861D01*
X314373D01*
Y327798D01*
D02*
G37*
G36*
X314498Y327422D02*
X314624D01*
Y327359D01*
X314686D01*
Y327296D01*
X314749D01*
Y327234D01*
X314812D01*
Y327171D01*
X314875D01*
Y327108D01*
X314937D01*
Y327045D01*
X315000D01*
Y326983D01*
X315125D01*
Y326920D01*
X315251D01*
Y326857D01*
X315376D01*
Y326795D01*
X315565D01*
Y326732D01*
X315753D01*
Y326669D01*
X316819D01*
Y326732D01*
X317070D01*
Y326795D01*
X317258D01*
Y326857D01*
X317635D01*
Y326920D01*
X317823D01*
Y326983D01*
X318074D01*
Y327045D01*
X318262D01*
Y327108D01*
X318387D01*
Y327171D01*
X318576D01*
Y327108D01*
Y327045D01*
X318450D01*
Y326983D01*
X318136D01*
Y326920D01*
X318011D01*
Y326857D01*
X317823D01*
Y326795D01*
X317509D01*
Y326732D01*
X317321D01*
Y326669D01*
X317070D01*
Y326606D01*
X316568D01*
Y326544D01*
X315878D01*
Y326606D01*
X315565D01*
Y326669D01*
X315376D01*
Y326732D01*
X315251D01*
Y326795D01*
X315125D01*
Y326857D01*
X315000D01*
Y326920D01*
X314937D01*
Y326983D01*
X314875D01*
Y327045D01*
X314749D01*
Y327108D01*
X314686D01*
Y327171D01*
X314624D01*
Y327234D01*
X314561D01*
Y327296D01*
X314498D01*
Y327359D01*
X314373D01*
Y327422D01*
Y327485D01*
X314498D01*
Y327422D01*
D02*
G37*
G36*
X310985Y326920D02*
Y326857D01*
X311048D01*
Y326795D01*
Y326732D01*
Y326669D01*
Y326606D01*
Y326544D01*
X311111D01*
Y326481D01*
Y326418D01*
Y326356D01*
Y326293D01*
Y326230D01*
Y326167D01*
Y326105D01*
Y326042D01*
X311174D01*
Y325979D01*
Y325916D01*
X311236D01*
Y325854D01*
X311299D01*
Y325791D01*
X311362D01*
Y325728D01*
X311613D01*
Y325791D01*
X311675D01*
Y325854D01*
X311738D01*
Y325916D01*
X311801D01*
Y325979D01*
Y326042D01*
X311864D01*
Y326105D01*
Y326167D01*
X311926D01*
Y326230D01*
X312240D01*
Y326167D01*
X312491D01*
Y326105D01*
X312679D01*
Y326042D01*
X312993D01*
Y325979D01*
X313118D01*
Y325916D01*
X313369D01*
Y325854D01*
X313557D01*
Y325791D01*
X313745D01*
Y325728D01*
X313808D01*
Y325665D01*
X313871D01*
Y325603D01*
Y325540D01*
Y325477D01*
Y325415D01*
X313934D01*
Y325352D01*
Y325289D01*
X313996D01*
Y325226D01*
Y325164D01*
X314059D01*
Y325101D01*
Y325038D01*
Y324975D01*
X314122D01*
Y324913D01*
Y324850D01*
X314184D01*
Y324787D01*
X314247D01*
Y324725D01*
X314436D01*
Y324787D01*
X314498D01*
Y324850D01*
X314561D01*
Y324913D01*
X314624D01*
Y324975D01*
Y325038D01*
Y325101D01*
X314686D01*
Y325164D01*
Y325226D01*
X314749D01*
Y325289D01*
Y325352D01*
X314812D01*
Y325415D01*
X314749D01*
Y325477D01*
X314812D01*
Y325540D01*
Y325603D01*
Y325665D01*
X314875D01*
Y325728D01*
Y325791D01*
Y325854D01*
X315000D01*
Y325791D01*
Y325728D01*
Y325665D01*
Y325603D01*
X314937D01*
Y325540D01*
Y325477D01*
X314875D01*
Y325415D01*
Y325352D01*
Y325289D01*
Y325226D01*
Y325164D01*
X314812D01*
Y325101D01*
Y325038D01*
X314749D01*
Y324975D01*
X314686D01*
Y324913D01*
Y324850D01*
Y324787D01*
X314561D01*
Y324725D01*
Y324662D01*
X314436D01*
Y324599D01*
X314310D01*
Y324536D01*
X314247D01*
Y324599D01*
X314184D01*
Y324662D01*
X314122D01*
Y324725D01*
Y324787D01*
X313996D01*
Y324850D01*
Y324913D01*
X313934D01*
Y324975D01*
Y325038D01*
Y325101D01*
Y325164D01*
X313871D01*
Y325226D01*
X313808D01*
Y325289D01*
Y325352D01*
Y325415D01*
Y325477D01*
X313745D01*
Y325540D01*
Y325603D01*
X313683D01*
Y325665D01*
X313557D01*
Y325728D01*
X313369D01*
Y325791D01*
X313118D01*
Y325854D01*
X312930D01*
Y325916D01*
X312742D01*
Y325979D01*
X312428D01*
Y326042D01*
X312240D01*
Y326105D01*
X311989D01*
Y326042D01*
X311926D01*
Y325979D01*
Y325916D01*
X311864D01*
Y325854D01*
X311801D01*
Y325791D01*
Y325728D01*
X311738D01*
Y325665D01*
X311613D01*
Y325603D01*
X311487D01*
Y325540D01*
X311424D01*
Y325603D01*
X311299D01*
Y325665D01*
X311174D01*
Y325728D01*
Y325791D01*
X311111D01*
Y325854D01*
Y325916D01*
X311048D01*
Y325979D01*
Y326042D01*
Y326105D01*
Y326167D01*
X310985D01*
Y326230D01*
Y326293D01*
Y326356D01*
Y326418D01*
Y326481D01*
X310923D01*
Y326544D01*
Y326606D01*
Y326669D01*
Y326732D01*
X310860D01*
Y326795D01*
Y326857D01*
Y326920D01*
Y326983D01*
X310985D01*
Y326920D01*
D02*
G37*
%LPC*%
G36*
X318074Y341473D02*
X317948D01*
Y341410D01*
Y341347D01*
X318011D01*
Y341285D01*
X318074D01*
Y341347D01*
Y341410D01*
Y341473D01*
D02*
G37*
G36*
X316819D02*
X316694D01*
Y341410D01*
Y341347D01*
Y341285D01*
X316819D01*
Y341347D01*
Y341410D01*
Y341473D01*
D02*
G37*
G36*
X316317Y342100D02*
X316255D01*
Y342037D01*
Y341975D01*
X316192D01*
Y341912D01*
Y341849D01*
X316129D01*
Y341787D01*
Y341724D01*
Y341661D01*
Y341598D01*
X316066D01*
Y341536D01*
Y341473D01*
Y341410D01*
X316004D01*
Y341347D01*
Y341285D01*
Y341222D01*
Y341159D01*
Y341096D01*
Y341034D01*
Y340971D01*
Y340908D01*
Y340846D01*
Y340783D01*
Y340720D01*
Y340657D01*
Y340595D01*
Y340532D01*
Y340469D01*
Y340406D01*
Y340344D01*
X316129D01*
Y340406D01*
X316192D01*
Y340469D01*
X316255D01*
Y340532D01*
X316317D01*
Y340595D01*
X316380D01*
Y340657D01*
Y340720D01*
Y340783D01*
X316443D01*
Y340846D01*
Y340908D01*
X316506D01*
Y340971D01*
Y341034D01*
Y341096D01*
Y341159D01*
X316568D01*
Y341222D01*
Y341285D01*
Y341347D01*
Y341410D01*
Y341473D01*
Y341536D01*
X316506D01*
Y341598D01*
Y341661D01*
Y341724D01*
Y341787D01*
X316443D01*
Y341849D01*
Y341912D01*
X316380D01*
Y341975D01*
X316443D01*
Y342037D01*
X316317D01*
Y342100D01*
D02*
G37*
G36*
X325225Y340406D02*
X325099D01*
Y340344D01*
Y340281D01*
X325225D01*
Y340344D01*
Y340406D01*
D02*
G37*
G36*
X323782Y340532D02*
X323656D01*
Y340469D01*
Y340406D01*
X323594D01*
Y340344D01*
X323531D01*
Y340281D01*
X323468D01*
Y340218D01*
Y340156D01*
Y340093D01*
X323406D01*
Y340030D01*
Y339967D01*
X323343D01*
Y339905D01*
Y339842D01*
Y339779D01*
X323280D01*
Y339717D01*
Y339654D01*
Y339591D01*
X323217D01*
Y339528D01*
Y339466D01*
X323155D01*
Y339403D01*
Y339340D01*
Y339277D01*
Y339215D01*
Y339152D01*
Y339089D01*
Y339026D01*
X323092D01*
Y338964D01*
Y338901D01*
Y338838D01*
Y338776D01*
Y338713D01*
Y338650D01*
X323217D01*
Y338713D01*
X323280D01*
Y338776D01*
X323343D01*
Y338838D01*
X323406D01*
Y338901D01*
X323468D01*
Y338964D01*
X323594D01*
Y339026D01*
Y339089D01*
Y339152D01*
X323656D01*
Y339215D01*
X323719D01*
Y339277D01*
Y339340D01*
Y339403D01*
Y339466D01*
Y339528D01*
X323782D01*
Y339591D01*
Y339654D01*
Y339717D01*
Y339779D01*
Y339842D01*
Y339905D01*
Y339967D01*
Y340030D01*
Y340093D01*
Y340156D01*
Y340218D01*
Y340281D01*
Y340344D01*
Y340406D01*
Y340469D01*
Y340532D01*
D02*
G37*
G36*
X434521Y275453D02*
X433803D01*
Y275394D01*
X433623D01*
Y275334D01*
X433504D01*
Y275274D01*
X433384D01*
Y275214D01*
X433324D01*
Y275154D01*
X433205D01*
Y275094D01*
X433145D01*
Y275034D01*
X433085D01*
Y274975D01*
X433025D01*
Y274915D01*
Y274855D01*
X432965D01*
Y274795D01*
X432905D01*
Y274735D01*
Y274675D01*
X432845D01*
Y274616D01*
Y274556D01*
X432786D01*
Y274496D01*
Y274436D01*
Y274376D01*
X432726D01*
Y274316D01*
Y274257D01*
Y274197D01*
X432666D01*
Y274137D01*
Y274077D01*
Y274017D01*
Y273957D01*
Y273898D01*
Y273838D01*
Y273778D01*
Y273718D01*
Y273658D01*
Y273598D01*
Y273538D01*
X432726D01*
Y273479D01*
Y273419D01*
Y273359D01*
X432786D01*
Y273299D01*
Y273239D01*
X432845D01*
Y273180D01*
Y273120D01*
X432905D01*
Y273060D01*
X432965D01*
Y273000D01*
X433025D01*
Y272940D01*
X433085D01*
Y272880D01*
X433145D01*
Y272820D01*
X433264D01*
Y272761D01*
X433384D01*
Y272701D01*
X433743D01*
Y272641D01*
X433982D01*
Y272701D01*
X434282D01*
Y272761D01*
X434401D01*
Y272820D01*
X434521D01*
Y272880D01*
X434641D01*
Y272940D01*
X434700D01*
Y273000D01*
X434760D01*
Y273060D01*
X434880D01*
Y273120D01*
Y273180D01*
X434940D01*
Y273239D01*
X435000D01*
Y273299D01*
X435059D01*
Y273359D01*
X435119D01*
Y273419D01*
Y273479D01*
X435179D01*
Y273538D01*
Y273598D01*
X435239D01*
Y273658D01*
Y273718D01*
Y273778D01*
X435299D01*
Y273838D01*
Y273898D01*
Y273957D01*
Y274017D01*
X435359D01*
Y274077D01*
Y274137D01*
Y274197D01*
Y274257D01*
Y274316D01*
Y274376D01*
Y274436D01*
Y274496D01*
Y274556D01*
X435299D01*
Y274616D01*
Y274675D01*
Y274735D01*
Y274795D01*
X435239D01*
Y274855D01*
Y274915D01*
X435179D01*
Y274975D01*
X435119D01*
Y275034D01*
Y275094D01*
X435059D01*
Y275154D01*
X435000D01*
Y275214D01*
X434880D01*
Y275274D01*
X434820D01*
Y275334D01*
X434700D01*
Y275394D01*
X434521D01*
Y275453D01*
D02*
G37*
G36*
X431230D02*
X430452D01*
Y275394D01*
X430272D01*
Y275334D01*
X430153D01*
Y275274D01*
X430093D01*
Y275214D01*
X429973D01*
Y275154D01*
X429914D01*
Y275094D01*
X429854D01*
Y275034D01*
X429794D01*
Y274975D01*
X429734D01*
Y274915D01*
X429674D01*
Y274855D01*
X429614D01*
Y274795D01*
Y274735D01*
X429555D01*
Y274675D01*
Y274616D01*
X429495D01*
Y274556D01*
Y274496D01*
X429435D01*
Y274436D01*
Y274376D01*
Y274316D01*
X429375D01*
Y274257D01*
Y274197D01*
Y274137D01*
Y274077D01*
Y274017D01*
Y273957D01*
X429315D01*
Y273898D01*
Y273838D01*
Y273778D01*
Y273718D01*
Y273658D01*
X429375D01*
Y273598D01*
Y273538D01*
Y273479D01*
Y273419D01*
X429435D01*
Y273359D01*
Y273299D01*
X429495D01*
Y273239D01*
Y273180D01*
X429555D01*
Y273120D01*
X429614D01*
Y273060D01*
X429674D01*
Y273000D01*
Y272940D01*
X429794D01*
Y272880D01*
X429854D01*
Y272820D01*
X429973D01*
Y272761D01*
X430093D01*
Y272701D01*
X430332D01*
Y272641D01*
X430691D01*
Y272701D01*
X430991D01*
Y272761D01*
X431110D01*
Y272820D01*
X431230D01*
Y272880D01*
X431350D01*
Y272940D01*
X431410D01*
Y273000D01*
X431469D01*
Y273060D01*
X431529D01*
Y273120D01*
X431589D01*
Y273180D01*
X431649D01*
Y273239D01*
X431709D01*
Y273299D01*
Y273359D01*
X431769D01*
Y273419D01*
X431828D01*
Y273479D01*
Y273538D01*
X431888D01*
Y273598D01*
Y273658D01*
Y273718D01*
X431948D01*
Y273778D01*
Y273838D01*
Y273898D01*
X432008D01*
Y273957D01*
Y274017D01*
Y274077D01*
Y274137D01*
Y274197D01*
Y274257D01*
Y274316D01*
Y274376D01*
Y274436D01*
Y274496D01*
Y274556D01*
Y274616D01*
Y274675D01*
X431948D01*
Y274735D01*
Y274795D01*
Y274855D01*
X431888D01*
Y274915D01*
X431828D01*
Y274975D01*
Y275034D01*
X431769D01*
Y275094D01*
X431709D01*
Y275154D01*
X431649D01*
Y275214D01*
X431589D01*
Y275274D01*
X431469D01*
Y275334D01*
X431410D01*
Y275394D01*
X431230D01*
Y275453D01*
D02*
G37*
G36*
X438171D02*
X437573D01*
Y275394D01*
X437513D01*
Y275334D01*
Y275274D01*
Y275214D01*
Y275154D01*
Y275094D01*
X437453D01*
Y275034D01*
Y274975D01*
Y274915D01*
Y274855D01*
X437393D01*
Y274795D01*
Y274735D01*
Y274675D01*
Y274616D01*
Y274556D01*
X437333D01*
Y274496D01*
Y274436D01*
Y274376D01*
Y274316D01*
X437274D01*
Y274257D01*
Y274197D01*
Y274137D01*
X438231D01*
Y274197D01*
X438590D01*
Y274257D01*
X438710D01*
Y274316D01*
X438769D01*
Y274376D01*
X438829D01*
Y274436D01*
X438889D01*
Y274496D01*
X438949D01*
Y274556D01*
Y274616D01*
X439009D01*
Y274675D01*
Y274735D01*
Y274795D01*
Y274855D01*
Y274915D01*
Y274975D01*
Y275034D01*
Y275094D01*
Y275154D01*
X438949D01*
Y275214D01*
X438889D01*
Y275274D01*
X438829D01*
Y275334D01*
X438710D01*
Y275394D01*
X438171D01*
Y275453D01*
D02*
G37*
G36*
X423990D02*
X423451D01*
Y275394D01*
Y275334D01*
X423391D01*
Y275274D01*
Y275214D01*
Y275154D01*
Y275094D01*
X423331D01*
Y275034D01*
Y274975D01*
Y274915D01*
Y274855D01*
Y274795D01*
X423272D01*
Y274735D01*
Y274675D01*
Y274616D01*
Y274556D01*
X423212D01*
Y274496D01*
Y274436D01*
Y274376D01*
Y274316D01*
X423152D01*
Y274257D01*
Y274197D01*
Y274137D01*
X424289D01*
Y274197D01*
X424468D01*
Y274257D01*
X424588D01*
Y274316D01*
X424708D01*
Y274376D01*
X424767D01*
Y274436D01*
Y274496D01*
X424827D01*
Y274556D01*
X424887D01*
Y274616D01*
Y274675D01*
Y274735D01*
Y274795D01*
Y274855D01*
Y274915D01*
Y274975D01*
Y275034D01*
Y275094D01*
X424827D01*
Y275154D01*
Y275214D01*
X424767D01*
Y275274D01*
X424708D01*
Y275334D01*
X424588D01*
Y275394D01*
X423990D01*
Y275453D01*
D02*
G37*
G36*
X421297Y273957D02*
X421177D01*
Y273898D01*
X421297D01*
Y273957D01*
D02*
G37*
G36*
X414236Y275394D02*
X414176D01*
Y275334D01*
X414116D01*
Y275274D01*
Y275214D01*
X414057D01*
Y275154D01*
Y275094D01*
X413997D01*
Y275034D01*
X413937D01*
Y274975D01*
Y274915D01*
X413877D01*
Y274855D01*
Y274795D01*
X413817D01*
Y274735D01*
Y274675D01*
X413758D01*
Y274616D01*
X413698D01*
Y274556D01*
Y274496D01*
X413638D01*
Y274436D01*
Y274376D01*
X413578D01*
Y274316D01*
X413518D01*
Y274257D01*
Y274197D01*
X413458D01*
Y274137D01*
Y274077D01*
X413399D01*
Y274017D01*
X413339D01*
Y273957D01*
Y273898D01*
X413279D01*
Y273838D01*
Y273778D01*
X413219D01*
Y273718D01*
X413159D01*
Y273658D01*
Y273598D01*
X413099D01*
Y273538D01*
X413039D01*
Y273479D01*
Y273419D01*
X413159D01*
Y273479D01*
X414476D01*
Y273419D01*
X414535D01*
Y273479D01*
Y273538D01*
Y273598D01*
Y273658D01*
Y273718D01*
X414476D01*
Y273778D01*
Y273838D01*
Y273898D01*
Y273957D01*
Y274017D01*
Y274077D01*
X414416D01*
Y274137D01*
Y274197D01*
Y274257D01*
Y274316D01*
Y274376D01*
Y274436D01*
Y274496D01*
X414356D01*
Y274556D01*
Y274616D01*
Y274675D01*
Y274735D01*
Y274795D01*
Y274855D01*
X414296D01*
Y274915D01*
Y274975D01*
Y275034D01*
Y275094D01*
Y275154D01*
Y275214D01*
X414236D01*
Y275274D01*
Y275334D01*
Y275394D01*
D02*
G37*
%LPD*%
D10*
X359405Y338587D02*
X358667Y339013D01*
Y338160D01*
X359405Y338587D01*
X339579Y349587D02*
X338841Y350013D01*
Y349160D01*
X339579Y349587D01*
D11*
X412799Y295252D02*
X412255Y296001D01*
X411375Y295715D01*
Y294789D01*
X412255Y294503D01*
X412799Y295252D01*
D12*
X467300Y336200D02*
X467652Y335351D01*
X468500Y335000D01*
X469348Y335351D01*
X469700Y336200D01*
X463411Y301800D02*
X473589D01*
X463411Y336200D02*
X473589D01*
D13*
X362256Y297177D02*
Y303279D01*
X342354Y295799D02*
X361646D01*
X342354Y283201D02*
Y295799D01*
Y283201D02*
X361646D01*
Y295799D01*
X360094Y345969D02*
X371905D01*
X360094Y342032D02*
X371905D01*
Y345969D01*
X360094Y342032D02*
Y345969D01*
X355303Y315764D02*
X355697D01*
X355303Y311236D02*
X355697D01*
X441536Y302385D02*
Y302779D01*
X437009Y302385D02*
Y302779D01*
Y287802D02*
Y288195D01*
X441536Y287802D02*
Y288195D01*
X406402Y298598D02*
Y323402D01*
X381598D02*
X406402D01*
X381598Y298598D02*
Y323402D01*
Y298598D02*
X406402D01*
X427445Y314908D02*
X427839D01*
X427445Y310380D02*
X427839D01*
X365341Y319914D02*
X365735D01*
X365341Y324442D02*
X365735D01*
X427445Y323586D02*
X427839D01*
X427445Y319058D02*
X427839D01*
X427445Y332264D02*
X427839D01*
X427445Y327736D02*
X427839D01*
X303153Y301803D02*
X310043D01*
X312110Y276705D02*
Y302295D01*
Y276705D02*
X325890D01*
Y302295D01*
X312110D02*
X325890D01*
X291736Y275303D02*
Y275697D01*
X296264Y275303D02*
Y275697D01*
Y289887D02*
Y290281D01*
X291736Y289887D02*
Y290281D01*
X442658Y343500D02*
Y366500D01*
Y343500D02*
X492158D01*
Y366500D01*
X442658D02*
X492158D01*
X464303Y291236D02*
X464697D01*
X464303Y295764D02*
X464697D01*
X481575Y262331D02*
Y264299D01*
X485709Y262331D02*
Y264299D01*
X473075Y262394D02*
Y264362D01*
X477209Y262394D02*
Y264362D01*
X473862Y278635D02*
Y279422D01*
X476421Y278635D02*
Y279422D01*
X481220Y278606D02*
Y279394D01*
X483779Y278606D02*
Y279394D01*
X388815Y343500D02*
Y366500D01*
Y343500D02*
X438315D01*
Y366500D01*
X388815D02*
X438315D01*
X342531Y348406D02*
X346468D01*
X342531Y336595D02*
X346468D01*
X342531D02*
Y348406D01*
X346468Y336595D02*
Y348406D01*
X380362Y272387D02*
Y273174D01*
X382921Y272387D02*
Y273174D01*
X387572Y272387D02*
Y273174D01*
X390131Y272387D02*
Y273174D01*
X371500Y233500D02*
Y243500D01*
X421500D01*
X371500Y233500D02*
X421500D01*
Y243500D01*
X313000Y233500D02*
X362500D01*
X313000D02*
Y256500D01*
X362500D01*
Y233500D02*
Y256500D01*
X379075Y258394D02*
Y260362D01*
X383209Y258394D02*
Y260362D01*
X387359Y258394D02*
Y260362D01*
X391493Y258394D02*
Y260362D01*
D14*
X455000Y337500D02*
X464500D01*
X408499Y270498D02*
X404500D01*
Y264500D01*
X408499D01*
X404500Y267499D02*
X406499D01*
X410498Y264500D02*
X412497D01*
X411498D01*
Y270498D01*
X410498D01*
X418496Y264500D02*
X416496D01*
X415496Y265500D01*
Y267499D01*
X416496Y268499D01*
X418496D01*
X419495Y267499D01*
Y266499D01*
X415496D01*
X421494Y264500D02*
Y270498D01*
Y266499D02*
X424494Y268499D01*
X421494Y266499D02*
X424494Y264500D01*
X427493D02*
X429492D01*
X428492D01*
Y268499D01*
X427493D01*
X436490Y270498D02*
Y264500D01*
X433491D01*
X432491Y265500D01*
Y267499D01*
X433491Y268499D01*
X436490D01*
X444487Y264500D02*
Y270498D01*
X446486Y268499D01*
X448486Y270498D01*
Y264500D01*
X454484Y269498D02*
X453484Y270498D01*
X451485D01*
X450485Y269498D01*
Y265500D01*
X451485Y264500D01*
X453484D01*
X454484Y265500D01*
X456483Y270498D02*
Y265500D01*
X457483Y264500D01*
X459482D01*
X460482Y265500D01*
Y270498D01*
D15*
X404300Y258800D02*
Y261133D01*
X405466Y262299D01*
X406633Y261133D01*
Y258800D01*
Y260549D01*
X404300D01*
X407799Y258800D02*
Y261133D01*
X409548D01*
X410132Y260549D01*
Y258800D01*
X413630Y262299D02*
Y258800D01*
X411881D01*
X411298Y259383D01*
Y260549D01*
X411881Y261133D01*
X413630D01*
X414797D02*
Y258800D01*
Y259966D01*
X415380Y260549D01*
X415963Y261133D01*
X416546D01*
X420045Y258800D02*
X418879D01*
X418295Y259383D01*
Y260549D01*
X418879Y261133D01*
X420045D01*
X420628Y260549D01*
Y259966D01*
X418295D01*
X421794Y261133D02*
Y259383D01*
X422377Y258800D01*
X422961Y259383D01*
X423544Y258800D01*
X424127Y259383D01*
Y261133D01*
X428792Y258800D02*
Y262299D01*
X430542D01*
X431125Y261716D01*
Y260549D01*
X430542Y259966D01*
X428792D01*
X432874Y261133D02*
X434040D01*
X434623Y260549D01*
Y258800D01*
X432874D01*
X432291Y259383D01*
X432874Y259966D01*
X434623D01*
X435790Y261133D02*
Y258800D01*
Y259966D01*
X436373Y260549D01*
X436956Y261133D01*
X437539D01*
X439289Y258800D02*
Y262299D01*
Y259966D02*
X441038Y261133D01*
X439289Y259966D02*
X441038Y258800D01*
X404300Y257299D02*
Y256716D01*
X405466Y255549D01*
X406633Y256716D01*
Y257299D01*
X405466Y255549D02*
Y253800D01*
X408382Y256133D02*
X409548D01*
X410132Y255549D01*
Y253800D01*
X408382D01*
X407799Y254383D01*
X408382Y254966D01*
X410132D01*
X411298Y253800D02*
X413047D01*
X413630Y254383D01*
X413047Y254966D01*
X411881D01*
X411298Y255549D01*
X411881Y256133D01*
X413630D01*
X414797Y253800D02*
X415963D01*
X415380D01*
Y256133D01*
X414797D01*
X418295Y256716D02*
Y256133D01*
X417712D01*
X418879D01*
X418295D01*
Y254383D01*
X418879Y253800D01*
X420628Y257299D02*
Y253800D01*
Y255549D01*
X421211Y256133D01*
X422377D01*
X422961Y255549D01*
Y253800D01*
X429958Y257299D02*
X427626D01*
Y253800D01*
X429958D01*
X427626Y255549D02*
X428792D01*
X431125Y253800D02*
X432291D01*
X431708D01*
Y257299D01*
X431125D01*
X434040Y253800D02*
X435207D01*
X434623D01*
Y257299D01*
X434040D01*
X438705Y253800D02*
X437539D01*
X436956Y254383D01*
Y255549D01*
X437539Y256133D01*
X438705D01*
X439289Y255549D01*
Y254966D01*
X436956D01*
X440455Y256133D02*
Y254383D01*
X441038Y253800D01*
X441621Y254383D01*
X442204Y253800D01*
X442788Y254383D01*
Y256133D01*
X445703Y253800D02*
X444537D01*
X443954Y254383D01*
Y255549D01*
X444537Y256133D01*
X445703D01*
X446286Y255549D01*
Y254966D01*
X443954D01*
X447453Y253800D02*
X448619D01*
X448036D01*
Y257299D01*
X447453D01*
X450952Y256133D02*
X452118D01*
X452701Y255549D01*
Y253800D01*
X450952D01*
X450368Y254383D01*
X450952Y254966D01*
X452701D01*
X420633Y342299D02*
X418300D01*
Y340549D01*
X419466Y341133D01*
X420049D01*
X420633Y340549D01*
Y339383D01*
X420049Y338800D01*
X418883D01*
X418300Y339383D01*
X421799Y338800D02*
Y342299D01*
X423548D01*
X424131Y341716D01*
Y340549D01*
X423548Y339966D01*
X421799D01*
X358084Y273749D02*
Y270834D01*
X358667Y270251D01*
X359834D01*
X360417Y270834D01*
Y273749D01*
X361583Y273166D02*
X362166Y273749D01*
X363333D01*
X363916Y273166D01*
Y272583D01*
X363333Y272000D01*
X362749D01*
X363333D01*
X363916Y271417D01*
Y270834D01*
X363333Y270251D01*
X362166D01*
X361583Y270834D01*
X373584Y340249D02*
Y337334D01*
X374167Y336751D01*
X375334D01*
X375917Y337334D01*
Y340249D01*
X379416D02*
X378249Y339666D01*
X377083Y338500D01*
Y337334D01*
X377666Y336751D01*
X378833D01*
X379416Y337334D01*
Y337917D01*
X378833Y338500D01*
X377083D01*
X393633Y247716D02*
X393049Y248299D01*
X391883D01*
X391300Y247716D01*
Y245383D01*
X391883Y244800D01*
X393049D01*
X393633Y245383D01*
Y246549D01*
X392466D01*
X394799Y244800D02*
Y248299D01*
X397131Y244800D01*
Y248299D01*
X398298D02*
Y244800D01*
X400047D01*
X400630Y245383D01*
Y247716D01*
X400047Y248299D01*
X398298D01*
X364300Y247716D02*
X364883Y248299D01*
X366049D01*
X366633Y247716D01*
Y247133D01*
X366049Y246549D01*
X365466D01*
X366049D01*
X366633Y245966D01*
Y245383D01*
X366049Y244800D01*
X364883D01*
X364300Y245383D01*
X367799Y244800D02*
Y245383D01*
X368382D01*
Y244800D01*
X367799D01*
X370715Y247716D02*
X371298Y248299D01*
X372464D01*
X373047Y247716D01*
Y247133D01*
X372464Y246549D01*
X371881D01*
X372464D01*
X373047Y245966D01*
Y245383D01*
X372464Y244800D01*
X371298D01*
X370715Y245383D01*
X374214Y248299D02*
Y245966D01*
X375380Y244800D01*
X376546Y245966D01*
Y248299D01*
X489633Y342299D02*
X487300D01*
Y340549D01*
X488466Y341133D01*
X489049D01*
X489633Y340549D01*
Y339383D01*
X489049Y338800D01*
X487883D01*
X487300Y339383D01*
X493131Y341716D02*
X492548Y342299D01*
X491382D01*
X490799Y341716D01*
Y341133D01*
X491382Y340549D01*
X492548D01*
X493131Y339966D01*
Y339383D01*
X492548Y338800D01*
X491382D01*
X490799Y339383D01*
X494298Y338800D02*
Y342299D01*
X496630Y338800D01*
Y342299D01*
X500129Y341716D02*
X499546Y342299D01*
X498380D01*
X497797Y341716D01*
Y341133D01*
X498380Y340549D01*
X499546D01*
X500129Y339966D01*
Y339383D01*
X499546Y338800D01*
X498380D01*
X497797Y339383D01*
X476133Y341716D02*
X475549Y342299D01*
X474383D01*
X473800Y341716D01*
Y339383D01*
X474383Y338800D01*
X475549D01*
X476133Y339383D01*
Y340549D01*
X474966D01*
X477299Y338800D02*
Y342299D01*
X479632Y338800D01*
Y342299D01*
X480798D02*
Y338800D01*
X482547D01*
X483130Y339383D01*
Y341716D01*
X482547Y342299D01*
X480798D01*
X455133Y338800D02*
X452800D01*
X455133Y341133D01*
Y341716D01*
X454549Y342299D01*
X453383D01*
X452800Y341716D01*
X458048Y338800D02*
Y342299D01*
X456299Y340549D01*
X458632D01*
X462130Y341716D02*
X461547Y342299D01*
X460381D01*
X459798Y341716D01*
Y341133D01*
X460381Y340549D01*
X461547D01*
X462130Y339966D01*
Y339383D01*
X461547Y338800D01*
X460381D01*
X459798Y339383D01*
X463297Y338800D02*
Y342299D01*
X465629Y338800D01*
Y342299D01*
X469128Y341716D02*
X468545Y342299D01*
X467379D01*
X466795Y341716D01*
Y341133D01*
X467379Y340549D01*
X468545D01*
X469128Y339966D01*
Y339383D01*
X468545Y338800D01*
X467379D01*
X466795Y339383D01*
X445133Y342299D02*
X442800D01*
Y340549D01*
X443966Y341133D01*
X444549D01*
X445133Y340549D01*
Y339383D01*
X444549Y338800D01*
X443383D01*
X442800Y339383D01*
X446299Y342299D02*
Y339966D01*
X447465Y338800D01*
X448631Y339966D01*
Y342299D01*
X431133D02*
X428800D01*
Y340549D01*
X429966Y341133D01*
X430549D01*
X431133Y340549D01*
Y339383D01*
X430549Y338800D01*
X429383D01*
X428800Y339383D01*
X432299Y338800D02*
Y342299D01*
X434631Y338800D01*
Y342299D01*
X406133Y338800D02*
X403800D01*
X406133Y341133D01*
Y341716D01*
X405549Y342299D01*
X404383D01*
X403800Y341716D01*
X409048Y338800D02*
Y342299D01*
X407299Y340549D01*
X409631D01*
X410798Y338800D02*
Y342299D01*
X413130Y338800D01*
Y342299D01*
X392633Y338800D02*
X390300D01*
X392633Y341133D01*
Y341716D01*
X392049Y342299D01*
X390883D01*
X390300Y341716D01*
X395548Y338800D02*
Y342299D01*
X393799Y340549D01*
X396131D01*
X397298Y338800D02*
Y342299D01*
X399047D01*
X399630Y341716D01*
Y340549D01*
X399047Y339966D01*
X397298D01*
X312133Y261216D02*
X311549Y261799D01*
X310383D01*
X309800Y261216D01*
Y258883D01*
X310383Y258300D01*
X311549D01*
X312133Y258883D01*
X313299Y258300D02*
Y260633D01*
X314465Y261799D01*
X315631Y260633D01*
Y258300D01*
Y260049D01*
X313299D01*
X316798Y258300D02*
Y261799D01*
X319130Y258300D01*
Y261799D01*
X320297D02*
Y258300D01*
X322629D01*
X329133Y261216D02*
X328549Y261799D01*
X327383D01*
X326800Y261216D01*
Y258883D01*
X327383Y258300D01*
X328549D01*
X329133Y258883D01*
X330299Y258300D02*
Y260633D01*
X331465Y261799D01*
X332631Y260633D01*
Y258300D01*
Y260049D01*
X330299D01*
X333798Y258300D02*
Y261799D01*
X336130Y258300D01*
Y261799D01*
X337297D02*
Y258300D01*
Y260049D01*
X339629D01*
Y261799D01*
Y258300D01*
X420800Y244800D02*
Y248299D01*
X423133Y244800D01*
Y248299D01*
X424299Y244800D02*
Y248299D01*
X426048D01*
X426631Y247716D01*
Y246549D01*
X426048Y245966D01*
X424299D01*
X425465D02*
X426631Y244800D01*
X430130Y247716D02*
X429547Y248299D01*
X428381D01*
X427798Y247716D01*
Y247133D01*
X428381Y246549D01*
X429547D01*
X430130Y245966D01*
Y245383D01*
X429547Y244800D01*
X428381D01*
X427798Y245383D01*
X431297Y248299D02*
X433629D01*
X432463D01*
Y244800D01*
X404800Y248299D02*
Y244800D01*
X406549D01*
X407133Y245383D01*
Y247716D01*
X406549Y248299D01*
X404800D01*
X408299D02*
X409465D01*
X408882D01*
Y244800D01*
X408299D01*
X409465D01*
X412964Y248299D02*
X411798D01*
X411215Y247716D01*
Y245383D01*
X411798Y244800D01*
X412964D01*
X413547Y245383D01*
Y247716D01*
X412964Y248299D01*
X381633Y247716D02*
X381049Y248299D01*
X379883D01*
X379300Y247716D01*
Y245383D01*
X379883Y244800D01*
X381049D01*
X381633Y245383D01*
X382799Y248299D02*
Y244800D01*
X385131D01*
X386298Y248299D02*
Y244800D01*
Y245966D01*
X388630Y248299D01*
X386881Y246549D01*
X388630Y244800D01*
X383917Y365749D02*
X382751D01*
X383334D01*
Y362834D01*
X382751Y362251D01*
X382167D01*
X381584Y362834D01*
X386833Y362251D02*
Y365749D01*
X385083Y364000D01*
X387416D01*
X495917Y361749D02*
X494751D01*
X495334D01*
Y358834D01*
X494751Y358251D01*
X494167D01*
X493584Y358834D01*
X497083Y361166D02*
X497666Y361749D01*
X498833D01*
X499416Y361166D01*
Y360583D01*
X498833Y360000D01*
X498249D01*
X498833D01*
X499416Y359417D01*
Y358834D01*
X498833Y358251D01*
X497666D01*
X497083Y358834D01*
X428667Y280749D02*
Y280166D01*
X429834Y279000D01*
X431000Y280166D01*
Y280749D01*
X429834Y279000D02*
Y277251D01*
X432166D02*
X433333D01*
X432749D01*
Y280749D01*
X432166Y280166D01*
X323084Y274749D02*
Y271834D01*
X323667Y271251D01*
X324834D01*
X325417Y271834D01*
Y274749D01*
X328916D02*
X326583D01*
Y273000D01*
X327749Y273583D01*
X328333D01*
X328916Y273000D01*
Y271834D01*
X328333Y271251D01*
X327166D01*
X326583Y271834D01*
X335584Y336249D02*
Y333334D01*
X336167Y332751D01*
X337334D01*
X337917Y333334D01*
Y336249D01*
X340833Y332751D02*
Y336249D01*
X339083Y334500D01*
X341416D01*
X406584Y289249D02*
Y286334D01*
X407167Y285751D01*
X408334D01*
X408917Y286334D01*
Y289249D01*
X412416Y285751D02*
X410083D01*
X412416Y288083D01*
Y288666D01*
X411833Y289249D01*
X410666D01*
X410083Y288666D01*
X477167Y301249D02*
Y298334D01*
X477751Y297751D01*
X478917D01*
X479500Y298334D01*
Y301249D01*
X480666Y297751D02*
X481833D01*
X481249D01*
Y301249D01*
X480666Y300666D01*
X372584Y267251D02*
Y270749D01*
X374334D01*
X374917Y270166D01*
Y269000D01*
X374334Y268417D01*
X372584D01*
X373751D02*
X374917Y267251D01*
X377833D02*
Y270749D01*
X376083Y269000D01*
X378416D01*
X392084Y267251D02*
Y270749D01*
X393834D01*
X394417Y270166D01*
Y269000D01*
X393834Y268417D01*
X392084D01*
X393251D02*
X394417Y267251D01*
X395583Y270166D02*
X396166Y270749D01*
X397333D01*
X397916Y270166D01*
Y269583D01*
X397333Y269000D01*
X396749D01*
X397333D01*
X397916Y268417D01*
Y267834D01*
X397333Y267251D01*
X396166D01*
X395583Y267834D01*
X465584Y274751D02*
Y278249D01*
X467334D01*
X467917Y277666D01*
Y276500D01*
X467334Y275917D01*
X465584D01*
X466751D02*
X467917Y274751D01*
X471416D02*
X469083D01*
X471416Y277083D01*
Y277666D01*
X470833Y278249D01*
X469666D01*
X469083Y277666D01*
X486167Y274251D02*
Y277749D01*
X487917D01*
X488500Y277166D01*
Y276000D01*
X487917Y275417D01*
X486167D01*
X487334D02*
X488500Y274251D01*
X489666D02*
X490833D01*
X490249D01*
Y277749D01*
X489666Y277166D01*
X424917Y237249D02*
X423751D01*
X424334D01*
Y234334D01*
X423751Y233751D01*
X423167D01*
X422584Y234334D01*
X428416Y233751D02*
X426083D01*
X428416Y236083D01*
Y236666D01*
X427833Y237249D01*
X426666D01*
X426083Y236666D01*
X359500Y261249D02*
X358334D01*
X358917D01*
Y258334D01*
X358334Y257751D01*
X357751D01*
X357167Y258334D01*
X360666Y257751D02*
X361833D01*
X361249D01*
Y261249D01*
X360666Y260666D01*
X371084Y256749D02*
Y253251D01*
X372834D01*
X373417Y253834D01*
Y256166D01*
X372834Y256749D01*
X371084D01*
X376333Y253251D02*
Y256749D01*
X374583Y255000D01*
X376916D01*
X393584Y256749D02*
Y253251D01*
X395334D01*
X395917Y253834D01*
Y256166D01*
X395334Y256749D01*
X393584D01*
X397083Y256166D02*
X397666Y256749D01*
X398833D01*
X399416Y256166D01*
Y255583D01*
X398833Y255000D01*
X398249D01*
X398833D01*
X399416Y254417D01*
Y253834D01*
X398833Y253251D01*
X397666D01*
X397083Y253834D01*
X465084Y261249D02*
Y257751D01*
X466834D01*
X467417Y258334D01*
Y260666D01*
X466834Y261249D01*
X465084D01*
X470916Y257751D02*
X468583D01*
X470916Y260083D01*
Y260666D01*
X470333Y261249D01*
X469166D01*
X468583Y260666D01*
X488167Y261249D02*
Y257751D01*
X489917D01*
X490500Y258334D01*
Y260666D01*
X489917Y261249D01*
X488167D01*
X491666Y257751D02*
X492833D01*
X492249D01*
Y261249D01*
X491666Y260666D01*
X291959Y300166D02*
X291376Y300749D01*
X290210D01*
X289626Y300166D01*
Y297834D01*
X290210Y297251D01*
X291376D01*
X291959Y297834D01*
X293125Y297251D02*
X294292D01*
X293708D01*
Y300749D01*
X293125Y300166D01*
X296041D02*
X296624Y300749D01*
X297790D01*
X298374Y300166D01*
Y297834D01*
X297790Y297251D01*
X296624D01*
X296041Y297834D01*
Y300166D01*
X293417Y267666D02*
X292834Y268249D01*
X291667D01*
X291084Y267666D01*
Y265334D01*
X291667Y264751D01*
X292834D01*
X293417Y265334D01*
X294583D02*
X295166Y264751D01*
X296333D01*
X296916Y265334D01*
Y267666D01*
X296333Y268249D01*
X295166D01*
X294583Y267666D01*
Y267083D01*
X295166Y266500D01*
X296916D01*
X354417Y323166D02*
X353834Y323749D01*
X352667D01*
X352084Y323166D01*
Y320834D01*
X352667Y320251D01*
X353834D01*
X354417Y320834D01*
X355583Y323166D02*
X356166Y323749D01*
X357333D01*
X357916Y323166D01*
Y322583D01*
X357333Y322000D01*
X357916Y321417D01*
Y320834D01*
X357333Y320251D01*
X356166D01*
X355583Y320834D01*
Y321417D01*
X356166Y322000D01*
X355583Y322583D01*
Y323166D01*
X356166Y322000D02*
X357333D01*
X445917Y300166D02*
X445334Y300749D01*
X444167D01*
X443584Y300166D01*
Y297834D01*
X444167Y297251D01*
X445334D01*
X445917Y297834D01*
X447083Y300749D02*
X449416D01*
Y300166D01*
X447083Y297834D01*
Y297251D01*
X474417Y294666D02*
X473834Y295249D01*
X472667D01*
X472084Y294666D01*
Y292334D01*
X472667Y291751D01*
X473834D01*
X474417Y292334D01*
X477916Y295249D02*
X476749Y294666D01*
X475583Y293500D01*
Y292334D01*
X476166Y291751D01*
X477333D01*
X477916Y292334D01*
Y292917D01*
X477333Y293500D01*
X475583D01*
X445917Y285166D02*
X445334Y285749D01*
X444167D01*
X443584Y285166D01*
Y282834D01*
X444167Y282251D01*
X445334D01*
X445917Y282834D01*
X449416Y285749D02*
X447083D01*
Y284000D01*
X448249Y284583D01*
X448833D01*
X449416Y284000D01*
Y282834D01*
X448833Y282251D01*
X447666D01*
X447083Y282834D01*
X437417Y331166D02*
X436834Y331749D01*
X435667D01*
X435084Y331166D01*
Y328834D01*
X435667Y328251D01*
X436834D01*
X437417Y328834D01*
X440333Y328251D02*
Y331749D01*
X438583Y330000D01*
X440916D01*
X437417Y322666D02*
X436834Y323249D01*
X435667D01*
X435084Y322666D01*
Y320334D01*
X435667Y319751D01*
X436834D01*
X437417Y320334D01*
X438583Y322666D02*
X439166Y323249D01*
X440333D01*
X440916Y322666D01*
Y322083D01*
X440333Y321500D01*
X439749D01*
X440333D01*
X440916Y320917D01*
Y320334D01*
X440333Y319751D01*
X439166D01*
X438583Y320334D01*
X437417Y314166D02*
X436834Y314749D01*
X435667D01*
X435084Y314166D01*
Y311834D01*
X435667Y311251D01*
X436834D01*
X437417Y311834D01*
X440916Y311251D02*
X438583D01*
X440916Y313583D01*
Y314166D01*
X440333Y314749D01*
X439166D01*
X438583Y314166D01*
X346000Y314666D02*
X345417Y315249D01*
X344251D01*
X343667Y314666D01*
Y312334D01*
X344251Y311751D01*
X345417D01*
X346000Y312334D01*
X347166Y311751D02*
X348333D01*
X347749D01*
Y315249D01*
X347166Y314666D01*
M02*
