G04*
G04 #@! TF.GenerationSoftware,Altium Limited,Altium Designer,20.2.3 (150)*
G04*
G04 Layer_Physical_Order=1*
G04 Layer_Color=255*
%FSLAX25Y25*%
%MOIN*%
G70*
G04*
G04 #@! TF.SameCoordinates,5AD5DEB4-D25B-43D4-AA11-83956EA83F71*
G04*
G04*
G04 #@! TF.FilePolarity,Positive*
G04*
G01*
G75*
%ADD14C,0.01000*%
%ADD16R,0.03937X0.05315*%
%ADD17R,0.09449X0.07480*%
%ADD18R,0.05315X0.03937*%
%ADD19R,0.02362X0.05807*%
%ADD20R,0.05807X0.02362*%
%ADD21R,0.03937X0.02362*%
%ADD22R,0.06890X0.12598*%
%ADD23R,0.06890X0.03740*%
%ADD24R,0.07800X0.02200*%
%ADD25R,0.04921X0.02953*%
%ADD26R,0.03347X0.02756*%
%ADD27R,0.02756X0.06102*%
%ADD45C,0.01500*%
%ADD46O,0.06693X0.07874*%
G04:AMPARAMS|DCode=47|XSize=66.93mil|YSize=78.74mil|CornerRadius=16.73mil|HoleSize=0mil|Usage=FLASHONLY|Rotation=0.000|XOffset=0mil|YOffset=0mil|HoleType=Round|Shape=RoundedRectangle|*
%AMROUNDEDRECTD47*
21,1,0.06693,0.04528,0,0,0.0*
21,1,0.03347,0.07874,0,0,0.0*
1,1,0.03346,0.01673,-0.02264*
1,1,0.03346,-0.01673,-0.02264*
1,1,0.03346,-0.01673,0.02264*
1,1,0.03346,0.01673,0.02264*
%
%ADD47ROUNDEDRECTD47*%
%ADD48C,0.05906*%
%ADD49R,0.05906X0.05906*%
%ADD50C,0.03543*%
D14*
X438584Y284357D02*
X439273D01*
X436511Y286429D02*
X438584Y284357D01*
X427500Y286429D02*
X436511D01*
X426516D02*
X427500D01*
X423276Y289669D02*
X426516Y286429D01*
X423276Y289669D02*
Y293291D01*
X414122Y302445D02*
X423276Y293291D01*
X432137Y306224D02*
X439273D01*
X428484Y302571D02*
X432137Y306224D01*
X427500Y302571D02*
X428484D01*
X424476Y305594D02*
X427500Y302571D01*
X382976Y327685D02*
X383658Y327004D01*
Y324248D02*
Y327004D01*
Y324248D02*
X386406Y321500D01*
X386500D01*
X427667Y317000D02*
X454000D01*
X377000Y322339D02*
Y326000D01*
X377315Y322024D02*
X377996Y321342D01*
X404000Y305496D02*
X407248Y308744D01*
X410004D02*
X410685Y309425D01*
X398862Y321638D02*
Y327547D01*
X394575Y333500D02*
X395537Y332537D01*
Y327722D02*
X395575Y327685D01*
X377315Y299976D02*
X383483D01*
X385493Y301987D01*
X386099D01*
X402645Y299976D02*
X410685D01*
X381279Y321342D02*
X402645Y299976D01*
X404000Y303248D02*
Y305496D01*
X407248Y308744D02*
X410004D01*
X398862Y321638D02*
X399000Y321500D01*
X377996Y321342D02*
X381279D01*
X393500Y334500D02*
X393575D01*
X398724Y327685D02*
X398862Y327547D01*
X393575Y334500D02*
X394575Y333500D01*
X395537Y327722D02*
Y332537D01*
X376685Y322024D02*
X377000Y322339D01*
X410685Y312575D02*
X423931D01*
X424000Y312644D01*
X377000Y322339D02*
X377315Y322024D01*
X369180Y322178D02*
X369335Y322024D01*
X376685D01*
X424000Y313333D02*
X427667Y317000D01*
X454000D02*
X456000Y319000D01*
X453500Y316500D02*
X454000Y317000D01*
X424000Y313333D02*
Y321322D01*
Y312644D02*
Y313333D01*
Y321322D02*
Y329311D01*
Y330000D01*
X422532Y327842D02*
X424000Y329311D01*
X421842Y327842D02*
X422532D01*
X420000Y326000D02*
X421842Y327842D01*
X416500Y326000D02*
X420000D01*
X359000Y330500D02*
X374000D01*
X351858Y323358D02*
X359000Y330500D01*
X351858Y312921D02*
Y313500D01*
Y314189D01*
Y323358D01*
X405433Y334000D02*
X458800D01*
X402555Y331122D02*
X405433Y334000D01*
X402555Y328366D02*
Y331122D01*
X462500Y354869D02*
X463987Y353382D01*
X462500Y354869D02*
Y357000D01*
X463987Y327367D02*
Y353382D01*
X463121Y326500D02*
X463987Y327367D01*
X349913Y343730D02*
Y346240D01*
X345487Y339303D02*
X349913Y343730D01*
X341588Y343772D02*
X341588D01*
X339087Y342500D02*
X339768Y343181D01*
X340998D01*
X341588Y343772D01*
X341588D02*
X343000Y345183D01*
Y353000D01*
X349159Y311453D02*
X350390D01*
X341835Y293665D02*
Y304129D01*
X350390Y311453D02*
X351858Y312921D01*
X341835Y304129D02*
X349159Y311453D01*
X481500Y284500D02*
Y289500D01*
Y284500D02*
X481540Y284460D01*
Y283126D02*
Y284460D01*
X388782Y334084D02*
X391744Y331122D01*
X338792Y334084D02*
X388782D01*
X391744Y330228D02*
X391744D01*
X391744D02*
Y331122D01*
X391744Y328366D02*
Y330228D01*
X357602Y352500D02*
X360266Y349837D01*
X362790D01*
X364967Y347660D01*
Y344950D02*
Y347660D01*
X363018Y343000D02*
X364967Y344950D01*
X357587Y343000D02*
X363018D01*
X358022Y346305D02*
X361695D01*
X373812Y348000D02*
X374500D01*
X372552Y346740D02*
X373812Y348000D01*
X368413Y346740D02*
X372552D01*
X357587D02*
X358022Y346305D01*
X294000Y293725D02*
X300798D01*
X294000Y271858D02*
X298012D01*
X306598Y289500D02*
X331402D01*
X333902Y292000D01*
X338500D01*
X481540Y283126D02*
X482418Y282248D01*
X482500D01*
X451000Y309000D02*
X458800D01*
X456000Y319000D02*
X458800D01*
X453500Y312479D02*
Y316500D01*
Y312479D02*
X454592Y311387D01*
X463233D01*
X468142Y306479D01*
Y293500D02*
Y306479D01*
X452500Y356842D02*
X452658Y357000D01*
X452500Y348500D02*
Y356842D01*
X335831Y337046D02*
Y344214D01*
Y337046D02*
X338792Y334084D01*
X391744Y328366D02*
X392425Y327685D01*
X344483Y291017D02*
X349144Y295677D01*
X333911Y280445D02*
X344483Y291017D01*
X341835Y293665D02*
X344483Y291017D01*
X349144Y295677D02*
Y299872D01*
X349500Y300228D01*
X416500Y238500D02*
Y246500D01*
X337028Y344969D02*
X338299Y346240D01*
X336585Y344969D02*
X337028D01*
X335831Y344214D02*
X336585Y344969D01*
X338299Y346240D02*
X339087D01*
X463342Y324600D02*
X473013Y334271D01*
X463987Y316387D02*
Y320633D01*
X453613Y322367D02*
Y325633D01*
X459400Y324600D02*
X463342D01*
X463121Y321500D02*
X463987Y320633D01*
X453613Y325633D02*
X454479Y326500D01*
X473013Y334271D02*
Y340010D01*
X458800Y314000D02*
X461600D01*
X454479Y321500D02*
X463121D01*
X454479Y326500D02*
X463121D01*
X461600Y314000D02*
X463987Y316387D01*
X453613Y322367D02*
X454479Y321500D01*
X458800Y324000D02*
X459400Y324600D01*
X482185Y349182D02*
Y357000D01*
X473013Y340010D02*
X482185Y349182D01*
X401874Y327685D02*
X402555Y328366D01*
X475142Y282277D02*
Y285811D01*
X468142Y292811D02*
X475142Y285811D01*
X468142Y292811D02*
Y293500D01*
X346099Y284922D02*
Y285487D01*
X344500Y283323D02*
X346099Y284922D01*
X344500Y278772D02*
Y283323D01*
X306598Y280445D02*
X333911D01*
X376500Y238500D02*
X376599Y238599D01*
Y246487D01*
X386500Y238500D02*
Y246500D01*
X378148Y260551D02*
X390074D01*
X373124Y265575D02*
Y301691D01*
Y265575D02*
X378148Y260551D01*
X390074D02*
X406500Y244125D01*
X373878Y302445D02*
X376634D01*
X373124Y301691D02*
X373878Y302445D01*
X376634D02*
X377315Y303126D01*
X406500Y238500D02*
Y244125D01*
X388556Y276029D02*
X388851D01*
X386126Y278459D02*
Y294315D01*
Y278459D02*
X388556Y276029D01*
X381642D02*
Y291258D01*
X382976Y292593D01*
Y294315D01*
X388851Y263890D02*
Y269532D01*
Y263890D02*
X389426Y263315D01*
X381642Y263815D02*
Y269532D01*
X381142Y263315D02*
X381642Y263815D01*
X305024Y280445D02*
X306598D01*
X352024Y309425D02*
X377315D01*
X344500Y301902D02*
X352024Y309425D01*
X300798Y293725D02*
X305024Y289500D01*
X306598D01*
X298012Y271858D02*
X303654Y277500D01*
Y279075D01*
X305024Y280445D01*
X344500Y300228D02*
Y301902D01*
X359500Y300228D02*
X364962D01*
X371009Y306276D01*
X377315D01*
X458800Y329000D02*
Y334000D01*
Y304000D02*
Y309000D01*
X482500Y268228D02*
Y275752D01*
Y268228D02*
X483476Y267252D01*
X483642D01*
X475142Y267315D02*
Y275781D01*
X410685Y303126D02*
X411366Y302445D01*
X414122D01*
X410685Y306276D02*
X411366Y305594D01*
X424476D01*
D16*
X351858Y313500D02*
D03*
X359142D02*
D03*
X424000Y312644D02*
D03*
X431284D02*
D03*
X369180Y322178D02*
D03*
X361897D02*
D03*
X424000Y321322D02*
D03*
X431284D02*
D03*
X424000Y330000D02*
D03*
X431284D02*
D03*
X468142Y293500D02*
D03*
X460858D02*
D03*
D17*
X427500Y302571D02*
D03*
Y286429D02*
D03*
D18*
X439273Y306224D02*
D03*
Y298940D02*
D03*
Y284357D02*
D03*
Y291640D02*
D03*
X294000Y271858D02*
D03*
Y279142D02*
D03*
Y293725D02*
D03*
Y286442D02*
D03*
D19*
X405024Y294315D02*
D03*
X401874D02*
D03*
X398724D02*
D03*
X395575D02*
D03*
X392425D02*
D03*
X389276D02*
D03*
X386126D02*
D03*
X382976D02*
D03*
Y327685D02*
D03*
X386126D02*
D03*
X389276D02*
D03*
X392425D02*
D03*
X395575D02*
D03*
X398724D02*
D03*
X401874D02*
D03*
X405024D02*
D03*
D20*
X377315Y299976D02*
D03*
Y303126D02*
D03*
Y306276D02*
D03*
Y309425D02*
D03*
Y312575D02*
D03*
Y315724D02*
D03*
Y318874D02*
D03*
Y322024D02*
D03*
X410685D02*
D03*
Y318874D02*
D03*
Y315724D02*
D03*
Y312575D02*
D03*
Y309425D02*
D03*
Y306276D02*
D03*
Y303126D02*
D03*
Y299976D02*
D03*
D21*
X357587Y346740D02*
D03*
Y343000D02*
D03*
Y339260D02*
D03*
X368413D02*
D03*
Y346740D02*
D03*
X339087Y346240D02*
D03*
Y342500D02*
D03*
Y338760D02*
D03*
X349913D02*
D03*
Y346240D02*
D03*
D22*
X331402Y289500D02*
D03*
D23*
X306598Y280445D02*
D03*
Y289500D02*
D03*
Y298555D02*
D03*
D24*
X458800Y334000D02*
D03*
Y329000D02*
D03*
Y324000D02*
D03*
Y319000D02*
D03*
Y314000D02*
D03*
Y309000D02*
D03*
Y304000D02*
D03*
X478200D02*
D03*
Y309000D02*
D03*
Y314000D02*
D03*
Y319000D02*
D03*
Y324000D02*
D03*
Y329000D02*
D03*
Y334000D02*
D03*
D25*
X483642Y259378D02*
D03*
Y267252D02*
D03*
X475142Y259441D02*
D03*
Y267315D02*
D03*
X381142Y255441D02*
D03*
Y263315D02*
D03*
X389426Y255441D02*
D03*
Y263315D02*
D03*
D26*
X475142Y275781D02*
D03*
Y282277D02*
D03*
X482500Y275752D02*
D03*
Y282248D02*
D03*
X381642Y269532D02*
D03*
Y276029D02*
D03*
X388851Y269532D02*
D03*
Y276029D02*
D03*
D27*
X359500Y300228D02*
D03*
X354500D02*
D03*
X349500D02*
D03*
X344500D02*
D03*
Y278772D02*
D03*
X349500D02*
D03*
X354500D02*
D03*
X359500D02*
D03*
D45*
X341633Y339781D02*
X341692D01*
X339518Y339191D02*
X341042D01*
X341633Y339781D01*
X339087Y338760D02*
X339518Y339191D01*
X346408Y344497D02*
Y351484D01*
X353924Y359000D01*
X354959Y356500D02*
X372000D01*
X354081Y355621D02*
X354959Y356500D01*
X353924Y359000D02*
X373036D01*
X350701Y338760D02*
X354081Y342140D01*
Y355621D01*
X372000Y356500D02*
X380187Y348313D01*
X373036Y359000D02*
X381223Y350813D01*
X367522Y344022D02*
X414027D01*
X362760Y339260D02*
X367522Y344022D01*
X349913Y338760D02*
X350701D01*
X341692Y339781D02*
X346408Y344497D01*
X357587Y339260D02*
X362760D01*
X370511Y341522D02*
X415062D01*
X380187Y348313D02*
X402643D01*
X381223Y350813D02*
X401608D01*
X422171Y352166D02*
Y353409D01*
X369201Y339260D02*
X369632Y339691D01*
X415062Y341522D02*
X424671Y351131D01*
X418580Y357000D02*
X422171Y353409D01*
X369632Y339691D02*
Y340643D01*
X424671Y351131D02*
Y353409D01*
X418500Y357000D02*
X418580D01*
X369632Y340643D02*
X370511Y341522D01*
X424671Y353409D02*
X428263Y357000D01*
X414027Y344022D02*
X422171Y352166D01*
X368413Y339260D02*
X369201D01*
X428263Y357000D02*
X428342D01*
X408577D02*
X408658D01*
X402643Y348313D02*
X404986Y350656D01*
Y353409D01*
X401608Y350813D02*
X402486Y351692D01*
Y352934D01*
X398815Y356606D02*
X402486Y352934D01*
X398815Y356606D02*
Y357000D01*
X404986Y353409D02*
X408577Y357000D01*
X326644Y248869D02*
X350750Y272976D01*
X329144Y247834D02*
X353250Y271940D01*
Y275848D02*
X354500Y277098D01*
Y278772D01*
X329144Y246591D02*
X332735Y243000D01*
X329144Y246591D02*
Y247834D01*
X353250Y271940D02*
Y275848D01*
X349500Y277098D02*
X350750Y275848D01*
X349500Y277098D02*
Y278772D01*
X332735Y243000D02*
X332815D01*
X350750Y272976D02*
Y275848D01*
X326644Y246591D02*
Y248869D01*
X323053Y243000D02*
X326644Y246591D01*
X322972Y243000D02*
X323053D01*
D46*
X482185Y357000D02*
D03*
X472342D02*
D03*
X462500D02*
D03*
X428342D02*
D03*
X418500D02*
D03*
X408658D02*
D03*
X342657Y243000D02*
D03*
X332815D02*
D03*
X322972D02*
D03*
D47*
X452658Y357000D02*
D03*
X398815D02*
D03*
X352500Y243000D02*
D03*
D48*
X416500Y238500D02*
D03*
X406500D02*
D03*
X396500D02*
D03*
X386500D02*
D03*
D49*
X376500D02*
D03*
D50*
X483500Y338500D02*
D03*
X386099Y301987D02*
D03*
X404000Y303248D02*
D03*
X377000Y326000D02*
D03*
X399000Y321500D02*
D03*
X393500Y334500D02*
D03*
X448000Y326500D02*
D03*
X416500Y326000D02*
D03*
X343000Y353000D02*
D03*
X481500Y289500D02*
D03*
X451000Y303500D02*
D03*
X386500Y321500D02*
D03*
X357000Y306000D02*
D03*
X364000Y313500D02*
D03*
X361695Y346305D02*
D03*
X374500Y348000D02*
D03*
X357602Y352500D02*
D03*
X339000Y278000D02*
D03*
X338500Y292000D02*
D03*
X374000Y330500D02*
D03*
X345000Y337500D02*
D03*
X451000Y309000D02*
D03*
X452500Y348500D02*
D03*
X416500Y246500D02*
D03*
X346099Y285487D02*
D03*
X376599Y246487D02*
D03*
X386500Y246500D02*
D03*
M02*
