G04*
G04 #@! TF.GenerationSoftware,Altium Limited,Altium Designer,20.2.3 (150)*
G04*
G04 Layer_Color=8388736*
%FSLAX25Y25*%
%MOIN*%
G70*
G04*
G04 #@! TF.SameCoordinates,5AD5DEB4-D25B-43D4-AA11-83956EA83F71*
G04*
G04*
G04 #@! TF.FilePolarity,Negative*
G04*
G01*
G75*
%ADD28R,0.04737X0.06115*%
%ADD29R,0.10249X0.08280*%
%ADD30R,0.06115X0.04737*%
%ADD31R,0.03162X0.06607*%
%ADD32R,0.06607X0.03162*%
%ADD33R,0.04737X0.03162*%
%ADD34R,0.07690X0.13398*%
%ADD35R,0.07690X0.04540*%
%ADD36R,0.08600X0.03000*%
%ADD37R,0.05721X0.03753*%
%ADD38R,0.04147X0.03556*%
%ADD39R,0.03556X0.06902*%
%ADD40O,0.07493X0.08674*%
G04:AMPARAMS|DCode=41|XSize=74.93mil|YSize=86.74mil|CornerRadius=20.73mil|HoleSize=0mil|Usage=FLASHONLY|Rotation=0.000|XOffset=0mil|YOffset=0mil|HoleType=Round|Shape=RoundedRectangle|*
%AMROUNDEDRECTD41*
21,1,0.07493,0.04528,0,0,0.0*
21,1,0.03347,0.08674,0,0,0.0*
1,1,0.04146,0.01673,-0.02264*
1,1,0.04146,-0.01673,-0.02264*
1,1,0.04146,-0.01673,0.02264*
1,1,0.04146,0.01673,0.02264*
%
%ADD41ROUNDEDRECTD41*%
%ADD42C,0.06706*%
%ADD43R,0.06706X0.06706*%
%ADD44C,0.04343*%
D28*
X351858Y313500D02*
D03*
X359142D02*
D03*
X424000Y312644D02*
D03*
X431284D02*
D03*
X369180Y322178D02*
D03*
X361897D02*
D03*
X424000Y321322D02*
D03*
X431284D02*
D03*
X424000Y330000D02*
D03*
X431284D02*
D03*
X468142Y293500D02*
D03*
X460858D02*
D03*
D29*
X427500Y302571D02*
D03*
Y286429D02*
D03*
D30*
X439273Y306224D02*
D03*
Y298940D02*
D03*
Y284357D02*
D03*
Y291640D02*
D03*
X294000Y271858D02*
D03*
Y279142D02*
D03*
Y293725D02*
D03*
Y286442D02*
D03*
D31*
X405024Y294315D02*
D03*
X401874D02*
D03*
X398724D02*
D03*
X395575D02*
D03*
X392425D02*
D03*
X389276D02*
D03*
X386126D02*
D03*
X382976D02*
D03*
Y327685D02*
D03*
X386126D02*
D03*
X389276D02*
D03*
X392425D02*
D03*
X395575D02*
D03*
X398724D02*
D03*
X401874D02*
D03*
X405024D02*
D03*
D32*
X377315Y299976D02*
D03*
Y303126D02*
D03*
Y306276D02*
D03*
Y309425D02*
D03*
Y312575D02*
D03*
Y315724D02*
D03*
Y318874D02*
D03*
Y322024D02*
D03*
X410685D02*
D03*
Y318874D02*
D03*
Y315724D02*
D03*
Y312575D02*
D03*
Y309425D02*
D03*
Y306276D02*
D03*
Y303126D02*
D03*
Y299976D02*
D03*
D33*
X357587Y346740D02*
D03*
Y343000D02*
D03*
Y339260D02*
D03*
X368413D02*
D03*
Y346740D02*
D03*
X339087Y346240D02*
D03*
Y342500D02*
D03*
Y338760D02*
D03*
X349913D02*
D03*
Y346240D02*
D03*
D34*
X331402Y289500D02*
D03*
D35*
X306598Y280445D02*
D03*
Y289500D02*
D03*
Y298555D02*
D03*
D36*
X458800Y334000D02*
D03*
Y329000D02*
D03*
Y324000D02*
D03*
Y319000D02*
D03*
Y314000D02*
D03*
Y309000D02*
D03*
Y304000D02*
D03*
X478200D02*
D03*
Y309000D02*
D03*
Y314000D02*
D03*
Y319000D02*
D03*
Y324000D02*
D03*
Y329000D02*
D03*
Y334000D02*
D03*
D37*
X483642Y259378D02*
D03*
Y267252D02*
D03*
X475142Y259441D02*
D03*
Y267315D02*
D03*
X381142Y255441D02*
D03*
Y263315D02*
D03*
X389426Y255441D02*
D03*
Y263315D02*
D03*
D38*
X475142Y275781D02*
D03*
Y282277D02*
D03*
X482500Y275752D02*
D03*
Y282248D02*
D03*
X381642Y269532D02*
D03*
Y276029D02*
D03*
X388851Y269532D02*
D03*
Y276029D02*
D03*
D39*
X359500Y300228D02*
D03*
X354500D02*
D03*
X349500D02*
D03*
X344500D02*
D03*
Y278772D02*
D03*
X349500D02*
D03*
X354500D02*
D03*
X359500D02*
D03*
D40*
X482185Y357000D02*
D03*
X472342D02*
D03*
X462500D02*
D03*
X428342D02*
D03*
X418500D02*
D03*
X408658D02*
D03*
X342657Y243000D02*
D03*
X332815D02*
D03*
X322972D02*
D03*
D41*
X452658Y357000D02*
D03*
X398815D02*
D03*
X352500Y243000D02*
D03*
D42*
X416500Y238500D02*
D03*
X406500D02*
D03*
X396500D02*
D03*
X386500D02*
D03*
D43*
X376500D02*
D03*
D44*
X483500Y338500D02*
D03*
X386099Y301987D02*
D03*
X404000Y303248D02*
D03*
X377000Y326000D02*
D03*
X399000Y321500D02*
D03*
X393500Y334500D02*
D03*
X448000Y326500D02*
D03*
X416500Y326000D02*
D03*
X343000Y353000D02*
D03*
X481500Y289500D02*
D03*
X451000Y303500D02*
D03*
X386500Y321500D02*
D03*
X357000Y306000D02*
D03*
X364000Y313500D02*
D03*
X361695Y346305D02*
D03*
X374500Y348000D02*
D03*
X357602Y352500D02*
D03*
X339000Y278000D02*
D03*
X338500Y292000D02*
D03*
X374000Y330500D02*
D03*
X345000Y337500D02*
D03*
X451000Y309000D02*
D03*
X452500Y348500D02*
D03*
X416500Y246500D02*
D03*
X346099Y285487D02*
D03*
X376599Y246487D02*
D03*
X386500Y246500D02*
D03*
M02*
