G04*
G04 #@! TF.GenerationSoftware,Altium Limited,Altium Designer,20.2.3 (150)*
G04*
G04 Layer_Color=16711935*
%FSLAX25Y25*%
%MOIN*%
G70*
G04*
G04 #@! TF.SameCoordinates,FEE7AC8F-F901-45B1-A19B-458FA38B073B*
G04*
G04*
G04 #@! TF.FilePolarity,Positive*
G04*
G01*
G75*
%ADD14C,0.01000*%
D14*
X506544Y354540D02*
X506545Y355549D01*
X506479Y356556D01*
X506345Y357557D01*
X506145Y358546D01*
X505879Y359520D01*
X505548Y360474D01*
X505155Y361404D01*
X504701Y362305D01*
X504187Y363174D01*
X503616Y364007D01*
X502991Y364799D01*
X502314Y365548D01*
X501589Y366250D01*
X500818Y366902D01*
X500006Y367502D01*
X499155Y368045D01*
X498270Y368531D01*
X497354Y368956D01*
X496412Y369319D01*
X495448Y369618D01*
X494466Y369852D01*
X493471Y370020D01*
X492467Y370121D01*
X491458Y370155D01*
X490763Y228009D02*
X491746Y228007D01*
X492727Y228067D01*
X493702Y228191D01*
X494667Y228377D01*
X495619Y228624D01*
X496552Y228932D01*
X497464Y229300D01*
X498350Y229725D01*
X499207Y230205D01*
X500032Y230740D01*
X500820Y231327D01*
X501570Y231963D01*
X502277Y232646D01*
X502938Y233373D01*
X503552Y234141D01*
X504115Y234947D01*
X504625Y235787D01*
X505080Y236658D01*
X505479Y237556D01*
X505819Y238479D01*
X506099Y239421D01*
X506318Y240379D01*
X506475Y241349D01*
X506569Y242327D01*
X506601Y243310D01*
X283632Y243019D02*
X283633Y242008D01*
X283703Y241000D01*
X283845Y239999D01*
X284055Y239010D01*
X284334Y238038D01*
X284680Y237088D01*
X285092Y236165D01*
X285566Y235273D01*
X286102Y234416D01*
X286697Y233598D01*
X287347Y232824D01*
X288049Y232097D01*
X288800Y231421D01*
X289597Y230798D01*
X290435Y230233D01*
X291311Y229728D01*
X292219Y229285D01*
X293157Y228906D01*
X294118Y228594D01*
X295099Y228350D01*
X296094Y228174D01*
X297100Y228068D01*
X298110Y228033D01*
X298495Y370000D02*
X297484Y370000D01*
X296476Y369929D01*
X295475Y369788D01*
X294486Y369577D01*
X293514Y369298D01*
X292564Y368952D01*
X291641Y368541D01*
X290749Y368066D01*
X289892Y367530D01*
X289074Y366936D01*
X288300Y366286D01*
X287573Y365583D01*
X286896Y364832D01*
X286274Y364035D01*
X285709Y363197D01*
X285204Y362322D01*
X284761Y361413D01*
X284382Y360476D01*
X284070Y359514D01*
X283825Y358534D01*
X283650Y357538D01*
X283544Y356533D01*
X283509Y355522D01*
X298495Y370000D02*
X491303D01*
X506553Y243235D02*
Y355060D01*
X298110Y228000D02*
X490763Y228000D01*
X283509Y243142D02*
Y355522D01*
M02*
