M48
;Layer_Color=9474304
;FILE_FORMAT=2:5
INCH,TZ
;TYPE=PLATED
T1F00S00C0.02362
T2F00S00C0.03543
T3F00S00C0.03937
T4F00S00C0.12598
%
T01
X481500Y289500
X450000Y295000
X448000Y309000
X402500Y305500
X387000Y303000
X365000Y306000
X346500Y286411
X338500Y292000
Y277000
X367000Y258500
X386500Y250000
X417000Y249000
X417500Y327500
X401500Y319000
X388500Y320000
X376500Y328000
X369500Y329728
X366000Y344500
Y313500
X344500Y334500
X343000Y353000
X452500Y348500
X446500Y326000
X486500Y335000
T02
X376500Y238500
X386500
X396500
X406500
X416500
T03
X322972Y243000
X332815
X342657
X352500
X398815Y357000
X408658
X418500
X428342
X452658
X462500
X472342
X482185
T04
X492000Y242500
X297991Y242507
X298000Y356000
M30
