G04*
G04 #@! TF.GenerationSoftware,Altium Limited,Altium Designer,20.2.3 (150)*
G04*
G04 Layer_Color=8388736*
%FSLAX25Y25*%
%MOIN*%
G70*
G04*
G04 #@! TF.SameCoordinates,FEE7AC8F-F901-45B1-A19B-458FA38B073B*
G04*
G04*
G04 #@! TF.FilePolarity,Negative*
G04*
G01*
G75*
%ADD29R,0.03556X0.06902*%
%ADD30R,0.03162X0.04737*%
%ADD31R,0.04737X0.06115*%
%ADD32R,0.10249X0.08280*%
%ADD33R,0.06115X0.04737*%
%ADD34R,0.03162X0.06607*%
%ADD35R,0.06607X0.03162*%
%ADD36R,0.07690X0.13398*%
%ADD37R,0.07690X0.04540*%
%ADD38R,0.08600X0.03000*%
%ADD39R,0.05721X0.03753*%
%ADD40R,0.04147X0.03556*%
%ADD41R,0.04737X0.03162*%
%ADD42O,0.07493X0.08674*%
G04:AMPARAMS|DCode=43|XSize=74.93mil|YSize=86.74mil|CornerRadius=20.73mil|HoleSize=0mil|Usage=FLASHONLY|Rotation=0.000|XOffset=0mil|YOffset=0mil|HoleType=Round|Shape=RoundedRectangle|*
%AMROUNDEDRECTD43*
21,1,0.07493,0.04528,0,0,0.0*
21,1,0.03347,0.08674,0,0,0.0*
1,1,0.04146,0.01673,-0.02264*
1,1,0.04146,-0.01673,-0.02264*
1,1,0.04146,-0.01673,0.02264*
1,1,0.04146,0.01673,0.02264*
%
%ADD43ROUNDEDRECTD43*%
%ADD44C,0.06706*%
%ADD45R,0.06706X0.06706*%
%ADD46C,0.24422*%
%ADD47C,0.04343*%
D29*
X359500Y278772D02*
D03*
X354500D02*
D03*
X349500D02*
D03*
X344500D02*
D03*
Y300228D02*
D03*
X349500D02*
D03*
X354500D02*
D03*
X359500D02*
D03*
D30*
X362260Y349413D02*
D03*
X369740D02*
D03*
Y338587D02*
D03*
X366000D02*
D03*
X362260D02*
D03*
D31*
X351858Y313500D02*
D03*
X359142D02*
D03*
X424000Y312644D02*
D03*
X431284D02*
D03*
X369180Y322178D02*
D03*
X361897D02*
D03*
X424000Y321322D02*
D03*
X431284D02*
D03*
X424000Y330000D02*
D03*
X431284D02*
D03*
X468142Y293500D02*
D03*
X460858D02*
D03*
D32*
X427500Y302571D02*
D03*
Y286429D02*
D03*
D33*
X439273Y306224D02*
D03*
Y298940D02*
D03*
Y284357D02*
D03*
Y291640D02*
D03*
X294000Y271858D02*
D03*
Y279142D02*
D03*
Y293725D02*
D03*
Y286442D02*
D03*
D34*
X405024Y294315D02*
D03*
X401874D02*
D03*
X398724D02*
D03*
X395575D02*
D03*
X392425D02*
D03*
X389276D02*
D03*
X386126D02*
D03*
X382976D02*
D03*
Y327685D02*
D03*
X386126D02*
D03*
X389276D02*
D03*
X392425D02*
D03*
X395575D02*
D03*
X398724D02*
D03*
X401874D02*
D03*
X405024D02*
D03*
D35*
X377315Y299976D02*
D03*
Y303126D02*
D03*
Y306276D02*
D03*
Y309425D02*
D03*
Y312575D02*
D03*
Y315724D02*
D03*
Y318874D02*
D03*
Y322024D02*
D03*
X410685D02*
D03*
Y318874D02*
D03*
Y315724D02*
D03*
Y312575D02*
D03*
Y309425D02*
D03*
Y306276D02*
D03*
Y303126D02*
D03*
Y299976D02*
D03*
D36*
X331402Y289500D02*
D03*
D37*
X306598Y280445D02*
D03*
Y289500D02*
D03*
Y298555D02*
D03*
D38*
X458800Y334000D02*
D03*
Y329000D02*
D03*
Y324000D02*
D03*
Y319000D02*
D03*
Y314000D02*
D03*
Y309000D02*
D03*
Y304000D02*
D03*
X478200D02*
D03*
Y309000D02*
D03*
Y314000D02*
D03*
Y319000D02*
D03*
Y324000D02*
D03*
Y329000D02*
D03*
Y334000D02*
D03*
D39*
X483642Y259378D02*
D03*
Y267252D02*
D03*
X475142Y259441D02*
D03*
Y267315D02*
D03*
X381142Y255441D02*
D03*
Y263315D02*
D03*
X389426Y255441D02*
D03*
Y263315D02*
D03*
D40*
X475142Y275781D02*
D03*
Y282277D02*
D03*
X482500Y275752D02*
D03*
Y282248D02*
D03*
X381642Y269532D02*
D03*
Y276029D02*
D03*
X388851Y269532D02*
D03*
Y276029D02*
D03*
D41*
X339087Y346240D02*
D03*
Y342500D02*
D03*
Y338760D02*
D03*
X349913D02*
D03*
Y346240D02*
D03*
D42*
X482185Y357000D02*
D03*
X472342D02*
D03*
X462500D02*
D03*
X428342D02*
D03*
X418500D02*
D03*
X408658D02*
D03*
X342657Y243000D02*
D03*
X332815D02*
D03*
X322972D02*
D03*
D43*
X452658Y357000D02*
D03*
X398815D02*
D03*
X352500Y243000D02*
D03*
D44*
X416500Y238500D02*
D03*
X406500D02*
D03*
X396500D02*
D03*
X386500D02*
D03*
D45*
X376500D02*
D03*
D46*
X492000Y242500D02*
D03*
X298000Y356000D02*
D03*
X297991Y242507D02*
D03*
D47*
X417500Y327500D02*
D03*
X386500Y250000D02*
D03*
X367000Y258500D02*
D03*
X366000Y344500D02*
D03*
X344500Y334500D02*
D03*
X369500Y329728D02*
D03*
X376500Y328000D02*
D03*
X402500Y305500D02*
D03*
X387000Y303000D02*
D03*
X401500Y319000D02*
D03*
X388500Y320000D02*
D03*
X346500Y286411D02*
D03*
X417000Y249000D02*
D03*
X448000Y309000D02*
D03*
X486500Y335000D02*
D03*
X446500Y326000D02*
D03*
X343000Y353000D02*
D03*
X481500Y289500D02*
D03*
X450000Y295000D02*
D03*
X365000Y306000D02*
D03*
X366000Y313500D02*
D03*
X338500Y277000D02*
D03*
Y292000D02*
D03*
X452500Y348500D02*
D03*
M02*
