G04*
G04 #@! TF.GenerationSoftware,Altium Limited,Altium Designer,20.2.3 (150)*
G04*
G04 Layer_Physical_Order=1*
G04 Layer_Color=255*
%FSLAX25Y25*%
%MOIN*%
G70*
G04*
G04 #@! TF.SameCoordinates,FEE7AC8F-F901-45B1-A19B-458FA38B073B*
G04*
G04*
G04 #@! TF.FilePolarity,Positive*
G04*
G01*
G75*
%ADD14C,0.01000*%
%ADD16R,0.02756X0.06102*%
%ADD17R,0.02362X0.03937*%
%ADD18R,0.03937X0.05315*%
%ADD19R,0.09449X0.07480*%
%ADD20R,0.05315X0.03937*%
%ADD21R,0.02362X0.05807*%
%ADD22R,0.05807X0.02362*%
%ADD23R,0.06890X0.12598*%
%ADD24R,0.06890X0.03740*%
%ADD25R,0.07800X0.02200*%
%ADD26R,0.04921X0.02953*%
%ADD27R,0.03347X0.02756*%
%ADD28R,0.03937X0.02362*%
%ADD48C,0.01500*%
%ADD49O,0.06693X0.07874*%
G04:AMPARAMS|DCode=50|XSize=66.93mil|YSize=78.74mil|CornerRadius=16.73mil|HoleSize=0mil|Usage=FLASHONLY|Rotation=0.000|XOffset=0mil|YOffset=0mil|HoleType=Round|Shape=RoundedRectangle|*
%AMROUNDEDRECTD50*
21,1,0.06693,0.04528,0,0,0.0*
21,1,0.03347,0.07874,0,0,0.0*
1,1,0.03346,0.01673,-0.02264*
1,1,0.03346,-0.01673,-0.02264*
1,1,0.03346,-0.01673,0.02264*
1,1,0.03346,0.01673,0.02264*
%
%ADD50ROUNDEDRECTD50*%
%ADD51C,0.05906*%
%ADD52R,0.05906X0.05906*%
%ADD53C,0.23622*%
%ADD54C,0.03543*%
G36*
X493583Y368480D02*
X495656Y367982D01*
X497626Y367166D01*
X499444Y366052D01*
X501065Y364667D01*
X502450Y363046D01*
X503564Y361228D01*
X504380Y359259D01*
X504878Y357185D01*
X505039Y355136D01*
X505030Y355092D01*
X505023Y355060D01*
X505008Y354593D01*
X505015Y354540D01*
X505023Y354495D01*
Y245273D01*
X504524Y245214D01*
X504222Y246471D01*
X503450Y248334D01*
X502396Y250053D01*
X501087Y251587D01*
X499553Y252896D01*
X497834Y253950D01*
X495971Y254722D01*
X494010Y255192D01*
X492500Y255311D01*
Y242500D01*
X492000D01*
Y242000D01*
X479189D01*
X479308Y240490D01*
X479778Y238529D01*
X480550Y236666D01*
X481604Y234947D01*
X482913Y233413D01*
X484447Y232104D01*
X486166Y231050D01*
X488029Y230278D01*
X489066Y230029D01*
X489007Y229529D01*
X300954Y229529D01*
X300895Y230029D01*
X301962Y230286D01*
X303825Y231057D01*
X305544Y232111D01*
X307077Y233420D01*
X308387Y234954D01*
X309441Y236673D01*
X310212Y238536D01*
X310683Y240497D01*
X310802Y242007D01*
X297991D01*
Y242507D01*
X297491D01*
Y255318D01*
X295980Y255200D01*
X294020Y254729D01*
X292157Y253957D01*
X290437Y252904D01*
X288904Y251594D01*
X287594Y250061D01*
X286541Y248341D01*
X285769Y246478D01*
X285538Y245518D01*
X285038Y245577D01*
Y352969D01*
X285538Y353028D01*
X285778Y352029D01*
X286550Y350166D01*
X287604Y348447D01*
X288913Y346913D01*
X290447Y345604D01*
X292166Y344550D01*
X294029Y343778D01*
X295990Y343308D01*
X297500Y343189D01*
Y356000D01*
X298000D01*
Y356500D01*
X310811D01*
X310692Y358010D01*
X310222Y359971D01*
X309450Y361834D01*
X308396Y363553D01*
X307087Y365087D01*
X305553Y366396D01*
X303834Y367450D01*
X302577Y367971D01*
X302676Y368471D01*
X491303D01*
X491888Y368587D01*
X491923Y368610D01*
X493583Y368480D01*
D02*
G37*
%LPC*%
G36*
X431696Y367471D02*
X424989D01*
X424306Y367336D01*
X423727Y366949D01*
X423727Y366949D01*
X420910Y364131D01*
X420523Y363552D01*
X420387Y362869D01*
Y361964D01*
X419971Y361686D01*
X419635Y361825D01*
X418500Y361975D01*
X417365Y361825D01*
X416308Y361387D01*
X415400Y360690D01*
X414703Y359783D01*
X414265Y358725D01*
X414116Y357591D01*
Y356409D01*
X414265Y355275D01*
X414703Y354218D01*
X415400Y353309D01*
X416308Y352613D01*
X417365Y352175D01*
X418500Y352026D01*
X419635Y352175D01*
X420692Y352613D01*
X421600Y353309D01*
X422297Y354218D01*
X422735Y355275D01*
X422884Y356409D01*
Y357591D01*
X422746Y358642D01*
X423421Y359318D01*
X424097Y358642D01*
X423959Y357591D01*
Y356409D01*
X424108Y355275D01*
X424546Y354218D01*
X425243Y353309D01*
X426151Y352613D01*
X427208Y352175D01*
X428342Y352026D01*
X428688Y352071D01*
X428922Y351597D01*
X424359Y347034D01*
X404595D01*
X404388Y347534D01*
X406248Y349394D01*
X406248Y349394D01*
X406635Y349973D01*
X406771Y350656D01*
Y352036D01*
X407186Y352314D01*
X407523Y352175D01*
X408658Y352026D01*
X409792Y352175D01*
X410850Y352613D01*
X411757Y353309D01*
X412454Y354218D01*
X412892Y355275D01*
X413041Y356409D01*
Y357591D01*
X412892Y358725D01*
X412454Y359783D01*
X411757Y360690D01*
X410850Y361387D01*
X409792Y361825D01*
X408658Y361975D01*
X407523Y361825D01*
X406465Y361387D01*
X405557Y360690D01*
X404861Y359783D01*
X404423Y358725D01*
X404274Y357591D01*
Y356409D01*
X404412Y355358D01*
X403724Y354670D01*
X403644Y354663D01*
X403185Y355085D01*
Y359264D01*
X403093Y359962D01*
X402823Y360612D01*
X402395Y361170D01*
X401836Y361599D01*
X401186Y361868D01*
X400488Y361960D01*
X397142D01*
X396444Y361868D01*
X395794Y361599D01*
X395235Y361170D01*
X394807Y360612D01*
X394537Y359962D01*
X394445Y359264D01*
Y354736D01*
X394537Y354038D01*
X394807Y353388D01*
X395030Y353097D01*
X394783Y352597D01*
X380568D01*
X376484Y356681D01*
X375905Y357068D01*
X375222Y357204D01*
X350944D01*
X350261Y357068D01*
X349682Y356681D01*
X346378Y353377D01*
X346271Y353217D01*
X345751Y353338D01*
X345700Y353724D01*
X345421Y354398D01*
X344977Y354977D01*
X344398Y355421D01*
X343724Y355700D01*
X343500Y355730D01*
Y353000D01*
X343000D01*
Y352500D01*
X340270D01*
X340300Y352276D01*
X340579Y351602D01*
X341023Y351023D01*
X341471Y350680D01*
Y348209D01*
X336331D01*
Y346447D01*
X336000Y346381D01*
X335503Y346050D01*
X334749Y345296D01*
X334418Y344800D01*
X334301Y344214D01*
Y337046D01*
X334418Y336460D01*
X334749Y335964D01*
X340566Y330147D01*
X341063Y329815D01*
X341648Y329699D01*
X345855D01*
X346440Y329815D01*
X346937Y330147D01*
X348260Y331471D01*
X357655D01*
X357704Y330971D01*
X357415Y330913D01*
X356919Y330581D01*
X350777Y324440D01*
X350445Y323943D01*
X350329Y323358D01*
Y316945D01*
X349102D01*
Y312971D01*
X348573Y312865D01*
X348077Y312534D01*
X340753Y305210D01*
X340422Y304714D01*
X340305Y304129D01*
Y294667D01*
X339805Y294459D01*
X339224Y294700D01*
X338500Y294796D01*
X337776Y294700D01*
X337102Y294421D01*
X336523Y293977D01*
X336180Y293529D01*
X335634D01*
Y296587D01*
X327169D01*
Y291029D01*
X310831D01*
Y292158D01*
X304529D01*
X301880Y294807D01*
X301383Y295138D01*
X300798Y295255D01*
X297445D01*
Y296481D01*
X290555D01*
Y290969D01*
X297445D01*
Y292196D01*
X300165D01*
X302366Y289995D01*
Y286842D01*
X310831D01*
Y287971D01*
X327169D01*
Y282413D01*
X327169D01*
X327022Y281974D01*
X310831D01*
Y283102D01*
X302366D01*
Y279848D01*
X302241Y279660D01*
X302124Y279075D01*
Y278134D01*
X297907Y273916D01*
X297445Y274108D01*
Y274614D01*
X290555D01*
Y269102D01*
X297445D01*
Y270329D01*
X298012D01*
X298597Y270445D01*
X299093Y270777D01*
X304735Y276419D01*
X305066Y276915D01*
X305183Y277500D01*
Y277787D01*
X310831D01*
Y278916D01*
X333911D01*
X334496Y279032D01*
X334993Y279363D01*
X343608Y287979D01*
X344032Y287696D01*
X343800Y287135D01*
X343704Y286411D01*
X343794Y285732D01*
X343419Y285357D01*
X343087Y284861D01*
X342971Y284275D01*
Y282610D01*
X342335D01*
Y274933D01*
X346665D01*
Y282610D01*
X346029D01*
Y283173D01*
X346500Y283616D01*
X347223Y283711D01*
X347898Y283990D01*
X348477Y284435D01*
X348921Y285014D01*
X349200Y285688D01*
X349296Y286411D01*
X349200Y287135D01*
X348921Y287809D01*
X348477Y288388D01*
X347898Y288832D01*
X347223Y289112D01*
X346500Y289207D01*
X345777Y289112D01*
X345216Y288879D01*
X344933Y289303D01*
X350225Y294596D01*
X350556Y295092D01*
X350673Y295677D01*
Y296390D01*
X351622D01*
X351665Y296390D01*
X352122Y296285D01*
Y296177D01*
X354000D01*
Y300228D01*
Y304279D01*
X352122D01*
Y304171D01*
X351665Y304067D01*
X351622Y304067D01*
X349482D01*
X349290Y304529D01*
X352657Y307896D01*
X362396D01*
X362617Y307447D01*
X362579Y307398D01*
X362300Y306723D01*
X362270Y306500D01*
X365000D01*
Y305500D01*
X362270D01*
X362300Y305276D01*
X362579Y304602D01*
X363023Y304023D01*
X363602Y303579D01*
X364277Y303300D01*
X365000Y303204D01*
X365078Y303215D01*
X365312Y302741D01*
X364328Y301758D01*
X361665D01*
Y304067D01*
X357378D01*
X357335Y304067D01*
X356878Y304171D01*
Y304279D01*
X355000D01*
Y300228D01*
Y296177D01*
X356878D01*
Y296285D01*
X357335Y296390D01*
X357378Y296390D01*
X361665D01*
Y298699D01*
X364962D01*
X365547Y298815D01*
X366043Y299147D01*
X371642Y304746D01*
X373624D01*
Y303924D01*
X373293Y303858D01*
X372797Y303526D01*
X372043Y302772D01*
X371711Y302276D01*
X371595Y301691D01*
Y265575D01*
X371711Y264990D01*
X372043Y264494D01*
X377066Y259470D01*
X377563Y259138D01*
X378148Y259022D01*
X389440D01*
X390083Y258379D01*
X389926Y258002D01*
Y255441D01*
Y252965D01*
X392887D01*
Y254922D01*
X393349Y255113D01*
X404971Y243491D01*
Y242145D01*
X404507Y241953D01*
X403681Y241319D01*
X403047Y240493D01*
X402649Y239532D01*
X402513Y238500D01*
X402649Y237468D01*
X403047Y236507D01*
X403681Y235681D01*
X404507Y235047D01*
X405468Y234649D01*
X406500Y234513D01*
X407532Y234649D01*
X408493Y235047D01*
X409319Y235681D01*
X409953Y236507D01*
X410351Y237468D01*
X410487Y238500D01*
X410351Y239532D01*
X409953Y240493D01*
X409319Y241319D01*
X408493Y241953D01*
X408029Y242145D01*
Y244125D01*
X407913Y244710D01*
X407581Y245206D01*
X392198Y260589D01*
X392390Y261051D01*
X392674D01*
Y265579D01*
X390381D01*
Y267367D01*
X391312D01*
Y271698D01*
X386391D01*
Y267367D01*
X387322D01*
Y265579D01*
X386178D01*
Y262081D01*
X384390D01*
Y265579D01*
X383171D01*
Y267367D01*
X384102D01*
Y271698D01*
X379181D01*
Y267367D01*
X380112D01*
Y265579D01*
X377894D01*
Y263621D01*
X377432Y263430D01*
X374653Y266209D01*
Y298008D01*
X380509D01*
X381006Y298006D01*
X381008Y297509D01*
Y292787D01*
X380560Y292339D01*
X380229Y291843D01*
X380112Y291258D01*
Y278194D01*
X379181D01*
Y273863D01*
X384102D01*
Y278194D01*
X383171D01*
Y290624D01*
X384597D01*
Y278459D01*
X384713Y277873D01*
X385045Y277377D01*
X386391Y276031D01*
Y273863D01*
X391312D01*
Y278194D01*
X388554D01*
X387655Y279092D01*
Y290624D01*
X399693D01*
Y290411D01*
X401374D01*
Y294315D01*
X402374D01*
Y290411D01*
X404524D01*
Y294315D01*
X405024D01*
Y294815D01*
X407205D01*
Y297806D01*
X407205Y298008D01*
X407407Y298008D01*
X414376D01*
Y299375D01*
X414838Y299566D01*
X421746Y292658D01*
Y289669D01*
X421863Y289084D01*
X421988Y288896D01*
Y281902D01*
X433012D01*
Y284900D01*
X435828D01*
Y281601D01*
X442718D01*
Y287113D01*
X437991D01*
X437593Y287511D01*
X437097Y287842D01*
X436511Y287959D01*
X433012D01*
Y290957D01*
X424805D01*
Y293291D01*
X424689Y293876D01*
X424357Y294373D01*
X415203Y303526D01*
X415145Y303565D01*
X415297Y304065D01*
X421988D01*
Y298043D01*
X433012D01*
Y304694D01*
X435828D01*
Y303468D01*
X442718D01*
Y308980D01*
X435828D01*
Y307753D01*
X432137D01*
X431552Y307637D01*
X431056Y307305D01*
X430849Y307098D01*
X424604D01*
X424476Y307124D01*
X414376D01*
Y311045D01*
X421244D01*
Y309199D01*
X426756D01*
Y313926D01*
X427815Y314985D01*
X428315Y314778D01*
Y313144D01*
X431283D01*
X434252D01*
Y315471D01*
X451971D01*
Y312479D01*
X452087Y311894D01*
X452419Y311398D01*
X452825Y310991D01*
X452634Y310529D01*
X450320D01*
X449977Y310977D01*
X449398Y311421D01*
X448724Y311700D01*
X448000Y311796D01*
X447276Y311700D01*
X446602Y311421D01*
X446023Y310977D01*
X445579Y310398D01*
X445300Y309723D01*
X445204Y309000D01*
X445300Y308277D01*
X445579Y307602D01*
X446023Y307023D01*
X446602Y306579D01*
X447276Y306300D01*
X448000Y306204D01*
X448724Y306300D01*
X449398Y306579D01*
X449977Y307023D01*
X450320Y307471D01*
X454113D01*
Y307113D01*
X457271D01*
Y305887D01*
X454113D01*
Y302113D01*
X463487D01*
Y305887D01*
X460329D01*
Y307113D01*
X463487D01*
Y308317D01*
X463949Y308508D01*
X466612Y305845D01*
Y296945D01*
X465386D01*
Y290055D01*
X468735D01*
X473612Y285177D01*
Y284442D01*
X472681D01*
Y280111D01*
X477602D01*
Y284442D01*
X476671D01*
Y285811D01*
X476555Y286396D01*
X476223Y286893D01*
X470898Y292218D01*
Y296945D01*
X469671D01*
Y306479D01*
X469555Y307064D01*
X469223Y307560D01*
X464315Y312469D01*
X463819Y312800D01*
X463487Y312866D01*
Y313724D01*
X465069Y315306D01*
X465400Y315802D01*
X465517Y316387D01*
Y320633D01*
X465400Y321218D01*
X465069Y321715D01*
X464202Y322581D01*
X464027Y322698D01*
X463999Y322836D01*
X464061Y323277D01*
X464423Y323519D01*
X473163Y332258D01*
X473513Y332113D01*
Y332113D01*
X482887D01*
Y335887D01*
X474542D01*
Y339376D01*
X483266Y348101D01*
X483598Y348597D01*
X483714Y349182D01*
Y352338D01*
X484377Y352613D01*
X485285Y353309D01*
X485982Y354218D01*
X486420Y355275D01*
X486569Y356409D01*
Y357591D01*
X486420Y358725D01*
X485982Y359783D01*
X485285Y360690D01*
X484377Y361387D01*
X483320Y361825D01*
X482185Y361975D01*
X481050Y361825D01*
X479993Y361387D01*
X479085Y360690D01*
X478388Y359783D01*
X477950Y358725D01*
X477801Y357591D01*
Y356409D01*
X477950Y355275D01*
X478388Y354218D01*
X479085Y353309D01*
X479993Y352613D01*
X480656Y352338D01*
Y349816D01*
X471931Y341091D01*
X471600Y340595D01*
X471483Y340010D01*
Y334904D01*
X465979Y329400D01*
X465517Y329591D01*
Y353246D01*
X465600Y353309D01*
X466297Y354218D01*
X466735Y355275D01*
X466884Y356409D01*
Y357591D01*
X466735Y358725D01*
X466297Y359783D01*
X465600Y360690D01*
X464692Y361387D01*
X463635Y361825D01*
X462500Y361975D01*
X461365Y361825D01*
X460308Y361387D01*
X459400Y360690D01*
X458703Y359783D01*
X458265Y358725D01*
X458116Y357591D01*
Y356409D01*
X458265Y355275D01*
X458703Y354218D01*
X459400Y353309D01*
X460308Y352613D01*
X461365Y352175D01*
X462458Y352031D01*
Y335887D01*
X454113D01*
Y335529D01*
X405433D01*
X404848Y335413D01*
X404352Y335081D01*
X401474Y332203D01*
X401142Y331707D01*
X401076Y331376D01*
X396373D01*
X396307Y331707D01*
X395975Y332203D01*
X392597Y335581D01*
X392101Y335913D01*
X391515Y336029D01*
X371709D01*
Y340966D01*
X426133D01*
X426816Y341102D01*
X427395Y341488D01*
X437701Y351794D01*
X437701Y351794D01*
X438087Y352373D01*
X438223Y353056D01*
X438223Y353056D01*
Y360944D01*
X438223Y360944D01*
X438087Y361627D01*
X437701Y362206D01*
X437701Y362206D01*
X432958Y366949D01*
X432379Y367336D01*
X431696Y367471D01*
D02*
G37*
G36*
X472843Y361909D02*
Y357500D01*
X476726D01*
Y357591D01*
X476577Y358725D01*
X476139Y359783D01*
X475443Y360690D01*
X474535Y361387D01*
X473477Y361825D01*
X472843Y361909D01*
D02*
G37*
G36*
X471842D02*
X471208Y361825D01*
X470151Y361387D01*
X469243Y360690D01*
X468546Y359783D01*
X468108Y358725D01*
X467959Y357591D01*
Y357500D01*
X471842D01*
Y361909D01*
D02*
G37*
G36*
X342500Y355730D02*
X342277Y355700D01*
X341602Y355421D01*
X341023Y354977D01*
X340579Y354398D01*
X340300Y353724D01*
X340270Y353500D01*
X342500D01*
Y355730D01*
D02*
G37*
G36*
X476726Y356500D02*
X472843D01*
Y352091D01*
X473477Y352175D01*
X474535Y352613D01*
X475443Y353309D01*
X476139Y354218D01*
X476577Y355275D01*
X476726Y356409D01*
Y356500D01*
D02*
G37*
G36*
X471842D02*
X467959D01*
Y356409D01*
X468108Y355275D01*
X468546Y354218D01*
X469243Y353309D01*
X470151Y352613D01*
X471208Y352175D01*
X471842Y352091D01*
Y356500D01*
D02*
G37*
G36*
X454331Y361960D02*
X450984D01*
X450286Y361868D01*
X449636Y361599D01*
X449078Y361170D01*
X448649Y360612D01*
X448380Y359962D01*
X448288Y359264D01*
Y354736D01*
X448380Y354038D01*
X448649Y353388D01*
X449078Y352830D01*
X449636Y352401D01*
X450286Y352132D01*
X450971Y352042D01*
Y350820D01*
X450523Y350477D01*
X450079Y349898D01*
X449800Y349223D01*
X449704Y348500D01*
X449800Y347777D01*
X450079Y347102D01*
X450523Y346523D01*
X451102Y346079D01*
X451777Y345800D01*
X452500Y345704D01*
X453224Y345800D01*
X453898Y346079D01*
X454477Y346523D01*
X454921Y347102D01*
X455200Y347777D01*
X455296Y348500D01*
X455200Y349223D01*
X454921Y349898D01*
X454477Y350477D01*
X454029Y350820D01*
Y352040D01*
X454331D01*
X455029Y352132D01*
X455679Y352401D01*
X456237Y352830D01*
X456666Y353388D01*
X456935Y354038D01*
X457027Y354736D01*
Y359264D01*
X456935Y359962D01*
X456666Y360612D01*
X456237Y361170D01*
X455679Y361599D01*
X455029Y361868D01*
X454331Y361960D01*
D02*
G37*
G36*
X310811Y355500D02*
X298500D01*
Y343189D01*
X300010Y343308D01*
X301971Y343778D01*
X303834Y344550D01*
X305553Y345604D01*
X307087Y346913D01*
X308396Y348447D01*
X309450Y350166D01*
X310222Y352029D01*
X310692Y353990D01*
X310811Y355500D01*
D02*
G37*
G36*
X487000Y337730D02*
Y335500D01*
X489230D01*
X489200Y335723D01*
X488921Y336398D01*
X488477Y336977D01*
X487898Y337421D01*
X487223Y337700D01*
X487000Y337730D01*
D02*
G37*
G36*
X486000D02*
X485777Y337700D01*
X485102Y337421D01*
X484523Y336977D01*
X484079Y336398D01*
X483800Y335723D01*
X483770Y335500D01*
X486000D01*
Y337730D01*
D02*
G37*
G36*
X489230Y334500D02*
X487000D01*
Y332270D01*
X487223Y332300D01*
X487898Y332579D01*
X488477Y333023D01*
X488921Y333602D01*
X489200Y334277D01*
X489230Y334500D01*
D02*
G37*
G36*
X486000D02*
X483770D01*
X483800Y334277D01*
X484079Y333602D01*
X484523Y333023D01*
X485102Y332579D01*
X485777Y332300D01*
X486000Y332270D01*
Y334500D01*
D02*
G37*
G36*
X482887Y330887D02*
X473513D01*
Y327113D01*
X482887D01*
Y330887D01*
D02*
G37*
G36*
Y325887D02*
X473513D01*
Y322113D01*
X482887D01*
Y325887D01*
D02*
G37*
G36*
X483100Y321100D02*
X478700D01*
Y319500D01*
X483100D01*
Y321100D01*
D02*
G37*
G36*
X477700D02*
X473300D01*
Y319500D01*
X477700D01*
Y321100D01*
D02*
G37*
G36*
X483100Y318500D02*
X478700D01*
Y316900D01*
X483100D01*
Y318500D01*
D02*
G37*
G36*
X477700D02*
X473300D01*
Y316900D01*
X477700D01*
Y318500D01*
D02*
G37*
G36*
X482887Y315887D02*
X473513D01*
Y312113D01*
X482887D01*
Y315887D01*
D02*
G37*
G36*
X434252Y312144D02*
X431783D01*
Y308986D01*
X434252D01*
Y312144D01*
D02*
G37*
G36*
X430783D02*
X428315D01*
Y308986D01*
X430783D01*
Y312144D01*
D02*
G37*
G36*
X482887Y310887D02*
X473513D01*
Y307113D01*
X482887D01*
Y310887D01*
D02*
G37*
G36*
Y305887D02*
X473513D01*
Y302113D01*
X482887D01*
Y305887D01*
D02*
G37*
G36*
X442930Y301909D02*
X439773D01*
Y299440D01*
X442930D01*
Y301909D01*
D02*
G37*
G36*
X438773D02*
X435615D01*
Y299440D01*
X438773D01*
Y301909D01*
D02*
G37*
G36*
X311043Y301425D02*
X307098D01*
Y299055D01*
X311043D01*
Y301425D01*
D02*
G37*
G36*
X306098D02*
X302153D01*
Y299055D01*
X306098D01*
Y301425D01*
D02*
G37*
G36*
X442930Y298440D02*
X439773D01*
Y295972D01*
X442930D01*
Y298440D01*
D02*
G37*
G36*
X438773D02*
X435615D01*
Y295972D01*
X438773D01*
Y298440D01*
D02*
G37*
G36*
X311043Y298055D02*
X307098D01*
Y295685D01*
X311043D01*
Y298055D01*
D02*
G37*
G36*
X306098D02*
X302153D01*
Y295685D01*
X306098D01*
Y298055D01*
D02*
G37*
G36*
X450500Y297730D02*
Y295500D01*
X452730D01*
X452700Y295724D01*
X452421Y296398D01*
X451977Y296977D01*
X451398Y297421D01*
X450724Y297700D01*
X450500Y297730D01*
D02*
G37*
G36*
X449500D02*
X449276Y297700D01*
X448602Y297421D01*
X448023Y296977D01*
X447579Y296398D01*
X447300Y295724D01*
X447270Y295500D01*
X449500D01*
Y297730D01*
D02*
G37*
G36*
X463827Y297158D02*
X461358D01*
Y294000D01*
X463827D01*
Y297158D01*
D02*
G37*
G36*
X460358D02*
X457890D01*
Y294000D01*
X460358D01*
Y297158D01*
D02*
G37*
G36*
X452730Y294500D02*
X450500D01*
Y292270D01*
X450724Y292300D01*
X451398Y292579D01*
X451977Y293023D01*
X452421Y293602D01*
X452700Y294276D01*
X452730Y294500D01*
D02*
G37*
G36*
X449500D02*
X447270D01*
X447300Y294276D01*
X447579Y293602D01*
X448023Y293023D01*
X448602Y292579D01*
X449276Y292300D01*
X449500Y292270D01*
Y294500D01*
D02*
G37*
G36*
X442930Y294609D02*
X439773D01*
Y292140D01*
X442930D01*
Y294609D01*
D02*
G37*
G36*
X438773D02*
X435615D01*
Y292140D01*
X438773D01*
Y294609D01*
D02*
G37*
G36*
X407205Y293815D02*
X405524D01*
Y290411D01*
X407205D01*
Y293815D01*
D02*
G37*
G36*
X463827Y293000D02*
X461358D01*
Y289843D01*
X463827D01*
Y293000D01*
D02*
G37*
G36*
X460358D02*
X457890D01*
Y289843D01*
X460358D01*
Y293000D01*
D02*
G37*
G36*
X442930Y291140D02*
X439773D01*
Y288672D01*
X442930D01*
Y291140D01*
D02*
G37*
G36*
X438773D02*
X435615D01*
Y288672D01*
X438773D01*
Y291140D01*
D02*
G37*
G36*
X297657Y289410D02*
X294500D01*
Y286942D01*
X297657D01*
Y289410D01*
D02*
G37*
G36*
X293500D02*
X290342D01*
Y286942D01*
X293500D01*
Y289410D01*
D02*
G37*
G36*
X297657Y285942D02*
X294500D01*
Y283473D01*
X297657D01*
Y285942D01*
D02*
G37*
G36*
X293500D02*
X290342D01*
Y283473D01*
X293500D01*
Y285942D01*
D02*
G37*
G36*
X481500Y292296D02*
X480777Y292200D01*
X480102Y291921D01*
X479523Y291477D01*
X479079Y290898D01*
X478800Y290224D01*
X478704Y289500D01*
X478800Y288776D01*
X479079Y288102D01*
X479523Y287523D01*
X479971Y287180D01*
Y284500D01*
X480010Y284300D01*
Y283126D01*
X480039Y282980D01*
Y280083D01*
X484961D01*
Y284413D01*
X483069D01*
Y284460D01*
X483029Y284660D01*
Y287180D01*
X483477Y287523D01*
X483921Y288102D01*
X484200Y288776D01*
X484296Y289500D01*
X484200Y290224D01*
X483921Y290898D01*
X483477Y291477D01*
X482898Y291921D01*
X482224Y292200D01*
X481500Y292296D01*
D02*
G37*
G36*
X297657Y282110D02*
X294500D01*
Y279642D01*
X297657D01*
Y282110D01*
D02*
G37*
G36*
X293500D02*
X290342D01*
Y279642D01*
X293500D01*
Y282110D01*
D02*
G37*
G36*
X361878Y282823D02*
X360000D01*
Y279272D01*
X361878D01*
Y282823D01*
D02*
G37*
G36*
X339000Y279730D02*
Y277500D01*
X341230D01*
X341200Y277724D01*
X340921Y278398D01*
X340477Y278977D01*
X339898Y279421D01*
X339224Y279700D01*
X339000Y279730D01*
D02*
G37*
G36*
X338000D02*
X337776Y279700D01*
X337102Y279421D01*
X336523Y278977D01*
X336079Y278398D01*
X335800Y277724D01*
X335770Y277500D01*
X338000D01*
Y279730D01*
D02*
G37*
G36*
X359000Y282823D02*
X357122D01*
Y282715D01*
X356665Y282610D01*
X356622Y282610D01*
X352335D01*
Y277661D01*
X352000Y277447D01*
X351665Y277661D01*
Y282610D01*
X347335D01*
Y274933D01*
X348966D01*
Y273715D01*
X325382Y250131D01*
X324995Y249552D01*
X324859Y248869D01*
Y247964D01*
X324444Y247686D01*
X324107Y247825D01*
X322972Y247974D01*
X321838Y247825D01*
X320780Y247387D01*
X319872Y246691D01*
X319176Y245782D01*
X318738Y244725D01*
X318588Y243591D01*
Y242409D01*
X318738Y241275D01*
X319176Y240217D01*
X319872Y239310D01*
X320780Y238613D01*
X321838Y238175D01*
X322972Y238025D01*
X324107Y238175D01*
X325164Y238613D01*
X326072Y239310D01*
X326769Y240217D01*
X327207Y241275D01*
X327356Y242409D01*
Y243591D01*
X327218Y244642D01*
X327894Y245318D01*
X328569Y244642D01*
X328431Y243591D01*
Y242409D01*
X328580Y241275D01*
X329018Y240217D01*
X329715Y239310D01*
X330623Y238613D01*
X331680Y238175D01*
X332815Y238025D01*
X333950Y238175D01*
X335007Y238613D01*
X335915Y239310D01*
X336612Y240217D01*
X337050Y241275D01*
X337199Y242409D01*
Y243591D01*
X337050Y244725D01*
X336612Y245782D01*
X335915Y246691D01*
X335007Y247387D01*
X333950Y247825D01*
X332815Y247974D01*
X332469Y247929D01*
X332236Y248403D01*
X354512Y270678D01*
X354512Y270678D01*
X354899Y271257D01*
X355034Y271940D01*
X355034Y271940D01*
Y274933D01*
X356622D01*
X356665Y274933D01*
X357122Y274829D01*
Y274721D01*
X359000D01*
Y278772D01*
Y282823D01*
D02*
G37*
G36*
X297657Y278642D02*
X294500D01*
Y276173D01*
X297657D01*
Y278642D01*
D02*
G37*
G36*
X293500D02*
X290342D01*
Y276173D01*
X293500D01*
Y278642D01*
D02*
G37*
G36*
X361878Y278272D02*
X360000D01*
Y274721D01*
X361878D01*
Y278272D01*
D02*
G37*
G36*
X341230Y276500D02*
X339000D01*
Y274270D01*
X339224Y274300D01*
X339898Y274579D01*
X340477Y275023D01*
X340921Y275602D01*
X341200Y276276D01*
X341230Y276500D01*
D02*
G37*
G36*
X338000D02*
X335770D01*
X335800Y276276D01*
X336079Y275602D01*
X336523Y275023D01*
X337102Y274579D01*
X337776Y274300D01*
X338000Y274270D01*
Y276500D01*
D02*
G37*
G36*
X477602Y277946D02*
X472681D01*
Y273615D01*
X473612D01*
Y269579D01*
X471894D01*
Y265051D01*
X478390D01*
Y269579D01*
X476671D01*
Y273615D01*
X477602D01*
Y277946D01*
D02*
G37*
G36*
X484961Y277917D02*
X480039D01*
Y273587D01*
X480971D01*
Y269516D01*
X480394D01*
Y264988D01*
X486890D01*
Y269516D01*
X484029D01*
Y273587D01*
X484961D01*
Y277917D01*
D02*
G37*
G36*
X478602Y261917D02*
X475642D01*
Y259941D01*
X478602D01*
Y261917D01*
D02*
G37*
G36*
X474642D02*
X471681D01*
Y259941D01*
X474642D01*
Y261917D01*
D02*
G37*
G36*
X487102Y261854D02*
X484142D01*
Y259878D01*
X487102D01*
Y261854D01*
D02*
G37*
G36*
X483142D02*
X480181D01*
Y259878D01*
X483142D01*
Y261854D01*
D02*
G37*
G36*
X478602Y258941D02*
X475642D01*
Y256965D01*
X478602D01*
Y258941D01*
D02*
G37*
G36*
X474642D02*
X471681D01*
Y256965D01*
X474642D01*
Y258941D01*
D02*
G37*
G36*
X487102Y258878D02*
X484142D01*
Y256902D01*
X487102D01*
Y258878D01*
D02*
G37*
G36*
X483142D02*
X480181D01*
Y256902D01*
X483142D01*
Y258878D01*
D02*
G37*
G36*
X388926Y257917D02*
X385966D01*
Y255941D01*
X388926D01*
Y257917D01*
D02*
G37*
G36*
X384602D02*
X381642D01*
Y255941D01*
X384602D01*
Y257917D01*
D02*
G37*
G36*
X380642D02*
X377681D01*
Y255941D01*
X380642D01*
Y257917D01*
D02*
G37*
G36*
X384602Y254941D02*
X381642D01*
Y252965D01*
X384602D01*
Y254941D01*
D02*
G37*
G36*
X380642D02*
X377681D01*
Y252965D01*
X380642D01*
Y254941D01*
D02*
G37*
G36*
X298491Y255318D02*
Y243007D01*
X310802D01*
X310683Y244517D01*
X310212Y246478D01*
X309441Y248341D01*
X308387Y250061D01*
X307077Y251594D01*
X305544Y252904D01*
X303825Y253957D01*
X301962Y254729D01*
X300001Y255200D01*
X298491Y255318D01*
D02*
G37*
G36*
X491500Y255311D02*
X489990Y255192D01*
X488029Y254722D01*
X486166Y253950D01*
X484447Y252896D01*
X482913Y251587D01*
X481604Y250053D01*
X480550Y248334D01*
X479778Y246471D01*
X479308Y244510D01*
X479189Y243000D01*
X491500D01*
Y255311D01*
D02*
G37*
G36*
X397000Y242421D02*
Y239000D01*
X400421D01*
X400351Y239532D01*
X399953Y240493D01*
X399319Y241319D01*
X398493Y241953D01*
X397532Y242351D01*
X397000Y242421D01*
D02*
G37*
G36*
X396000D02*
X395468Y242351D01*
X394507Y241953D01*
X393681Y241319D01*
X393047Y240493D01*
X392649Y239532D01*
X392579Y239000D01*
X396000D01*
Y242421D01*
D02*
G37*
G36*
X354173Y247960D02*
X350827D01*
X350129Y247868D01*
X349479Y247599D01*
X348920Y247170D01*
X348492Y246612D01*
X348222Y245962D01*
X348130Y245264D01*
Y240736D01*
X348222Y240038D01*
X348492Y239388D01*
X348920Y238830D01*
X349479Y238401D01*
X350129Y238132D01*
X350827Y238040D01*
X354173D01*
X354871Y238132D01*
X355521Y238401D01*
X356080Y238830D01*
X356508Y239388D01*
X356778Y240038D01*
X356870Y240736D01*
Y245264D01*
X356778Y245962D01*
X356508Y246612D01*
X356080Y247170D01*
X355521Y247599D01*
X354871Y247868D01*
X354173Y247960D01*
D02*
G37*
G36*
X342657Y247974D02*
X341523Y247825D01*
X340465Y247387D01*
X339558Y246691D01*
X338861Y245782D01*
X338423Y244725D01*
X338274Y243591D01*
Y242409D01*
X338423Y241275D01*
X338861Y240217D01*
X339558Y239310D01*
X340465Y238613D01*
X341523Y238175D01*
X342657Y238025D01*
X343792Y238175D01*
X344849Y238613D01*
X345757Y239310D01*
X346454Y240217D01*
X346892Y241275D01*
X347041Y242409D01*
Y243591D01*
X346892Y244725D01*
X346454Y245782D01*
X345757Y246691D01*
X344849Y247387D01*
X343792Y247825D01*
X342657Y247974D01*
D02*
G37*
G36*
X400421Y238000D02*
X397000D01*
Y234579D01*
X397532Y234649D01*
X398493Y235047D01*
X399319Y235681D01*
X399953Y236507D01*
X400351Y237468D01*
X400421Y238000D01*
D02*
G37*
G36*
X396000D02*
X392579D01*
X392649Y237468D01*
X393047Y236507D01*
X393681Y235681D01*
X394507Y235047D01*
X395468Y234649D01*
X396000Y234579D01*
Y238000D01*
D02*
G37*
G36*
X367000Y261296D02*
X366277Y261200D01*
X365602Y260921D01*
X365023Y260477D01*
X364579Y259898D01*
X364300Y259224D01*
X364204Y258500D01*
X364300Y257776D01*
X364579Y257102D01*
X365023Y256523D01*
X365471Y256180D01*
Y248198D01*
X365587Y247613D01*
X365919Y247117D01*
X372547Y240488D01*
Y234547D01*
X380453D01*
Y242453D01*
X374908D01*
X368529Y248832D01*
Y256180D01*
X368977Y256523D01*
X369421Y257102D01*
X369700Y257776D01*
X369796Y258500D01*
X369700Y259224D01*
X369421Y259898D01*
X368977Y260477D01*
X368398Y260921D01*
X367723Y261200D01*
X367000Y261296D01*
D02*
G37*
G36*
X417000Y251796D02*
X416277Y251700D01*
X415602Y251421D01*
X415023Y250977D01*
X414579Y250398D01*
X414300Y249724D01*
X414204Y249000D01*
X414300Y248276D01*
X414579Y247602D01*
X415023Y247023D01*
X415471Y246680D01*
Y242351D01*
X415468Y242351D01*
X414507Y241953D01*
X413681Y241319D01*
X413047Y240493D01*
X412649Y239532D01*
X412513Y238500D01*
X412649Y237468D01*
X413047Y236507D01*
X413681Y235681D01*
X414507Y235047D01*
X415468Y234649D01*
X416500Y234513D01*
X417532Y234649D01*
X418493Y235047D01*
X419319Y235681D01*
X419953Y236507D01*
X420351Y237468D01*
X420487Y238500D01*
X420351Y239532D01*
X419953Y240493D01*
X419319Y241319D01*
X418529Y241925D01*
Y246680D01*
X418977Y247023D01*
X419421Y247602D01*
X419700Y248276D01*
X419796Y249000D01*
X419700Y249724D01*
X419421Y250398D01*
X418977Y250977D01*
X418398Y251421D01*
X417724Y251700D01*
X417000Y251796D01*
D02*
G37*
G36*
X388926Y254941D02*
X385966D01*
X385965Y253162D01*
X385835Y252843D01*
X385605Y252629D01*
X385102Y252421D01*
X384523Y251977D01*
X384079Y251398D01*
X383800Y250724D01*
X383704Y250000D01*
X383800Y249276D01*
X384079Y248602D01*
X384523Y248023D01*
X384971Y247680D01*
Y242145D01*
X384507Y241953D01*
X383681Y241319D01*
X383047Y240493D01*
X382649Y239532D01*
X382513Y238500D01*
X382649Y237468D01*
X383047Y236507D01*
X383681Y235681D01*
X384507Y235047D01*
X385468Y234649D01*
X386500Y234513D01*
X387532Y234649D01*
X388493Y235047D01*
X389319Y235681D01*
X389953Y236507D01*
X390351Y237468D01*
X390487Y238500D01*
X390351Y239532D01*
X389953Y240493D01*
X389319Y241319D01*
X388493Y241953D01*
X388029Y242145D01*
Y247680D01*
X388477Y248023D01*
X388921Y248602D01*
X389200Y249276D01*
X389296Y250000D01*
X389200Y250724D01*
X388921Y251398D01*
X388477Y251977D01*
X387898Y252421D01*
X387793Y252465D01*
X387892Y252965D01*
X388926D01*
Y254941D01*
D02*
G37*
%LPD*%
G36*
X360291Y348820D02*
X355915Y344444D01*
X355704Y344127D01*
X355204Y344279D01*
Y348058D01*
X355204Y348058D01*
X355068Y348741D01*
X354681Y349320D01*
X354681Y349320D01*
X353780Y350220D01*
X353202Y350607D01*
X353061Y350635D01*
X353111Y351135D01*
X360291D01*
Y348820D01*
D02*
G37*
G36*
X363778Y346158D02*
X363579Y345898D01*
X363300Y345223D01*
X363270Y345000D01*
X366000D01*
Y344000D01*
X363270D01*
X363300Y343776D01*
X363579Y343102D01*
X364023Y342523D01*
X364471Y342180D01*
Y341555D01*
X363819D01*
Y341342D01*
X360291D01*
Y335831D01*
X361491D01*
X361528Y335648D01*
X361859Y335151D01*
X362019Y334991D01*
X361828Y334529D01*
X353378D01*
X353226Y335029D01*
X353497Y335210D01*
X358078Y339792D01*
X358410Y340288D01*
X358526Y340873D01*
Y342730D01*
X362454Y346657D01*
X363532D01*
X363778Y346158D01*
D02*
G37*
G36*
X454113Y332113D02*
X457271D01*
Y330887D01*
X454113D01*
Y327956D01*
X453894Y327913D01*
X453398Y327581D01*
X452531Y326715D01*
X452200Y326219D01*
X452083Y325633D01*
Y322367D01*
X452200Y321781D01*
X452531Y321285D01*
X453398Y320419D01*
X453894Y320087D01*
X454113Y320044D01*
Y319275D01*
X453367Y318529D01*
X434252D01*
Y320822D01*
X431283D01*
X428315D01*
Y318529D01*
X427667D01*
X427256Y318448D01*
X426756Y318751D01*
Y324767D01*
X425529D01*
Y326555D01*
X426756D01*
Y332471D01*
X428315D01*
Y330500D01*
X431283D01*
X434252D01*
Y332471D01*
X454113D01*
Y332113D01*
D02*
G37*
G36*
X421244Y329029D02*
X419820D01*
X419477Y329477D01*
X418898Y329921D01*
X418223Y330200D01*
X417500Y330296D01*
X416777Y330200D01*
X416102Y329921D01*
X415523Y329477D01*
X415079Y328898D01*
X414800Y328223D01*
X414704Y327500D01*
X414800Y326777D01*
X415079Y326102D01*
X415523Y325523D01*
X416102Y325079D01*
X416777Y324800D01*
X417500Y324704D01*
X418223Y324800D01*
X418898Y325079D01*
X419477Y325523D01*
X419820Y325971D01*
X422189D01*
X422471Y325740D01*
Y324767D01*
X421244D01*
Y317877D01*
X422471D01*
Y316089D01*
X421244D01*
Y314104D01*
X414376D01*
Y316905D01*
Y320055D01*
Y323992D01*
X407491D01*
X406994Y323994D01*
X406992Y324491D01*
Y331376D01*
X405625D01*
X405434Y331838D01*
X406067Y332471D01*
X421244D01*
Y329029D01*
D02*
G37*
G36*
X380795Y328185D02*
X382976D01*
Y327185D01*
X380795D01*
Y323992D01*
X378029D01*
Y325680D01*
X378477Y326023D01*
X378921Y326602D01*
X379200Y327276D01*
X379296Y328000D01*
X379200Y328724D01*
X378921Y329398D01*
X378477Y329977D01*
X377898Y330421D01*
X377223Y330700D01*
X376500Y330796D01*
X375777Y330700D01*
X375102Y330421D01*
X374523Y329977D01*
X374079Y329398D01*
X373800Y328724D01*
X373704Y328000D01*
X373800Y327276D01*
X374079Y326602D01*
X374523Y326023D01*
X374971Y325680D01*
Y323992D01*
X373624D01*
Y323553D01*
X371936D01*
Y325623D01*
X366424D01*
Y318733D01*
X371936D01*
Y320494D01*
X373624D01*
Y316905D01*
Y313756D01*
Y310955D01*
X368057D01*
X367887Y311455D01*
X367977Y311523D01*
X368421Y312102D01*
X368700Y312776D01*
X368730Y313000D01*
X363270D01*
X363300Y312776D01*
X363579Y312102D01*
X364023Y311523D01*
X364113Y311455D01*
X363943Y310955D01*
X362110D01*
Y313000D01*
X359142D01*
X356173D01*
Y310955D01*
X354614D01*
Y316945D01*
X353388D01*
Y322725D01*
X358633Y327971D01*
X367355D01*
X367523Y327752D01*
X368102Y327307D01*
X368776Y327028D01*
X369500Y326933D01*
X370223Y327028D01*
X370898Y327307D01*
X371477Y327752D01*
X371921Y328331D01*
X372200Y329005D01*
X372296Y329728D01*
X372200Y330452D01*
X371985Y330971D01*
X372230Y331471D01*
X380795D01*
Y328185D01*
D02*
G37*
G36*
X406992Y323992D02*
X406994Y323495D01*
Y320055D01*
Y316905D01*
Y313756D01*
Y310274D01*
X405744D01*
X405159Y310157D01*
X404663Y309825D01*
X403059Y308222D01*
X402500Y308296D01*
X401777Y308200D01*
X401102Y307921D01*
X400523Y307477D01*
X400079Y306898D01*
X399800Y306224D01*
X399738Y305753D01*
X399210Y305574D01*
X388021Y316763D01*
X388254Y317237D01*
X388500Y317204D01*
X389224Y317300D01*
X389898Y317579D01*
X390477Y318023D01*
X390921Y318602D01*
X391200Y319276D01*
X391230Y319500D01*
X388500D01*
Y320000D01*
X388000D01*
Y322730D01*
X387776Y322700D01*
X387488Y322581D01*
X386536Y323532D01*
X386728Y323994D01*
X397333D01*
Y321638D01*
X397449Y321053D01*
X397781Y320556D01*
X398778Y319559D01*
X398704Y319000D01*
X398800Y318277D01*
X399079Y317602D01*
X399523Y317023D01*
X400102Y316579D01*
X400776Y316300D01*
X401500Y316204D01*
X402223Y316300D01*
X402898Y316579D01*
X403477Y317023D01*
X403921Y317602D01*
X404200Y318277D01*
X404296Y319000D01*
X404200Y319724D01*
X403921Y320398D01*
X403477Y320977D01*
X402898Y321421D01*
X402223Y321700D01*
X401500Y321796D01*
X400941Y321722D01*
X400392Y322271D01*
Y323994D01*
X406495D01*
X406992Y323992D01*
D02*
G37*
G36*
X401563Y298895D02*
X401827Y298719D01*
X401676Y298218D01*
X399693D01*
Y298006D01*
X383828D01*
X383779Y298506D01*
X384068Y298563D01*
X384564Y298895D01*
X386059Y300390D01*
X386277Y300300D01*
X387000Y300204D01*
X387723Y300300D01*
X388398Y300579D01*
X388977Y301023D01*
X389421Y301602D01*
X389700Y302276D01*
X389796Y303000D01*
X389700Y303724D01*
X389421Y304398D01*
X388977Y304977D01*
X388398Y305421D01*
X387723Y305700D01*
X387000Y305796D01*
X386277Y305700D01*
X385602Y305421D01*
X385023Y304977D01*
X384579Y304398D01*
X384300Y303724D01*
X384204Y303000D01*
X384221Y302877D01*
X382849Y301506D01*
X381006D01*
Y304307D01*
Y307457D01*
Y310606D01*
Y313756D01*
Y318799D01*
X381468Y318990D01*
X401563Y298895D01*
D02*
G37*
%LPC*%
G36*
X447000Y328730D02*
Y326500D01*
X449230D01*
X449200Y326724D01*
X448921Y327398D01*
X448477Y327977D01*
X447898Y328421D01*
X447224Y328700D01*
X447000Y328730D01*
D02*
G37*
G36*
X446000D02*
X445777Y328700D01*
X445102Y328421D01*
X444523Y327977D01*
X444079Y327398D01*
X443800Y326724D01*
X443770Y326500D01*
X446000D01*
Y328730D01*
D02*
G37*
G36*
X434252Y329500D02*
X431783D01*
Y326343D01*
X434252D01*
Y329500D01*
D02*
G37*
G36*
X430783D02*
X428315D01*
Y326343D01*
X430783D01*
Y329500D01*
D02*
G37*
G36*
X449230Y325500D02*
X447000D01*
Y323270D01*
X447224Y323300D01*
X447898Y323579D01*
X448477Y324023D01*
X448921Y324602D01*
X449200Y325276D01*
X449230Y325500D01*
D02*
G37*
G36*
X446000D02*
X443770D01*
X443800Y325276D01*
X444079Y324602D01*
X444523Y324023D01*
X445102Y323579D01*
X445777Y323300D01*
X446000Y323270D01*
Y325500D01*
D02*
G37*
G36*
X434252Y324979D02*
X431783D01*
Y321822D01*
X434252D01*
Y324979D01*
D02*
G37*
G36*
X430783D02*
X428315D01*
Y321822D01*
X430783D01*
Y324979D01*
D02*
G37*
G36*
X364865Y325836D02*
X362397D01*
Y322678D01*
X364865D01*
Y325836D01*
D02*
G37*
G36*
X361397D02*
X358928D01*
Y322678D01*
X361397D01*
Y325836D01*
D02*
G37*
G36*
X364865Y321678D02*
X362397D01*
Y318521D01*
X364865D01*
Y321678D01*
D02*
G37*
G36*
X361397D02*
X358928D01*
Y318521D01*
X361397D01*
Y321678D01*
D02*
G37*
G36*
X366500Y316230D02*
Y314000D01*
X368730D01*
X368700Y314224D01*
X368421Y314898D01*
X367977Y315477D01*
X367398Y315921D01*
X366723Y316200D01*
X366500Y316230D01*
D02*
G37*
G36*
X365500D02*
X365277Y316200D01*
X364602Y315921D01*
X364023Y315477D01*
X363579Y314898D01*
X363300Y314224D01*
X363270Y314000D01*
X365500D01*
Y316230D01*
D02*
G37*
G36*
X362110Y317158D02*
X359642D01*
Y314000D01*
X362110D01*
Y317158D01*
D02*
G37*
G36*
X358642D02*
X356173D01*
Y314000D01*
X358642D01*
Y317158D01*
D02*
G37*
G36*
X389000Y322730D02*
Y320500D01*
X391230D01*
X391200Y320724D01*
X390921Y321398D01*
X390477Y321977D01*
X389898Y322421D01*
X389224Y322700D01*
X389000Y322730D01*
D02*
G37*
%LPD*%
D14*
X422189Y327500D02*
X424000Y329311D01*
X417500Y327500D02*
X422189D01*
X386500Y239500D02*
Y250000D01*
X386000Y239000D02*
X386500Y239500D01*
X367000Y248198D02*
X376599Y238599D01*
X367000Y248198D02*
Y258500D01*
X366000Y338587D02*
Y344500D01*
X347412Y341228D02*
X349328D01*
X346657Y340474D02*
X347412Y341228D01*
X349328D02*
X349913Y341814D01*
Y346240D01*
X346291Y336291D02*
X346657Y336658D01*
Y340474D01*
X344500Y334500D02*
X346291Y336291D01*
X352415D01*
X341648Y331228D02*
X345855D01*
X335831Y337046D02*
X341648Y331228D01*
X347627Y333000D02*
X389866D01*
X345855Y331228D02*
X347627Y333000D01*
X358000Y329500D02*
X369272D01*
X369500Y329728D01*
X364674Y334500D02*
X391515D01*
X362941Y336233D02*
X364674Y334500D01*
X391515D02*
X394894Y331122D01*
X376685Y322024D02*
X377000Y322339D01*
X376500Y322839D02*
Y328000D01*
Y322839D02*
X377000Y322339D01*
X389866Y333000D02*
X391744Y331122D01*
X352415Y336291D02*
X356997Y340873D01*
X339768Y343181D02*
X340998D01*
X341588Y343772D01*
X341588D01*
X343000Y345183D01*
Y353000D01*
X339087Y342500D02*
X339768Y343181D01*
X402500Y305500D02*
X405744Y308744D01*
X410004D01*
X383483Y299976D02*
X386507Y303000D01*
X387000D01*
X398862Y321638D02*
X401500Y319000D01*
X398862Y321638D02*
Y327547D01*
X383658Y324248D02*
X387906Y320000D01*
X388500D01*
X351858Y323358D02*
X358000Y329500D01*
X344500Y284275D02*
X346500Y286275D01*
X344500Y278772D02*
Y284275D01*
X346500Y286275D02*
Y286411D01*
X417000Y239000D02*
Y249000D01*
X416500Y238500D02*
X417000Y239000D01*
X386000D02*
X386500Y238500D01*
X448000Y309000D02*
X458800D01*
X362260Y338587D02*
X362941Y337906D01*
Y336233D02*
Y337906D01*
X356997Y343363D02*
X362260Y348626D01*
X356997Y340873D02*
Y343363D01*
X362260Y348626D02*
Y349413D01*
X394894Y328366D02*
X395575Y327685D01*
X394894Y328366D02*
Y331122D01*
X438584Y284357D02*
X439273D01*
X436511Y286429D02*
X438584Y284357D01*
X427500Y286429D02*
X436511D01*
X426516D02*
X427500D01*
X423276Y289669D02*
X426516Y286429D01*
X423276Y289669D02*
Y293291D01*
X414122Y302445D02*
X423276Y293291D01*
X432137Y306224D02*
X439273D01*
X428484Y302571D02*
X432137Y306224D01*
X427500Y302571D02*
X428484D01*
X424476Y305594D02*
X427500Y302571D01*
X382976Y327685D02*
X383658Y327004D01*
Y324248D02*
Y327004D01*
X427667Y317000D02*
X454000D01*
X377315Y322024D02*
X377996Y321342D01*
X410004Y308744D02*
X410685Y309425D01*
X377315Y299976D02*
X383483D01*
X402645D02*
X410685D01*
X381279Y321342D02*
X402645Y299976D01*
X377996Y321342D02*
X381279D01*
X398724Y327685D02*
X398862Y327547D01*
X410685Y312575D02*
X423931D01*
X424000Y312644D01*
X377000Y322339D02*
X377315Y322024D01*
X369180Y322178D02*
X369335Y322024D01*
X376685D01*
X424000Y313333D02*
X427667Y317000D01*
X454000D02*
X456000Y319000D01*
X453500Y316500D02*
X454000Y317000D01*
X424000Y313333D02*
Y321322D01*
Y312644D02*
Y313333D01*
Y321322D02*
Y329311D01*
Y330000D01*
X351858Y312921D02*
Y313500D01*
Y314189D01*
Y323358D01*
X405433Y334000D02*
X458800D01*
X402555Y331122D02*
X405433Y334000D01*
X402555Y328366D02*
Y331122D01*
X462500Y354869D02*
X463987Y353382D01*
X462500Y354869D02*
Y357000D01*
X463987Y327367D02*
Y353382D01*
X463121Y326500D02*
X463987Y327367D01*
X349159Y311453D02*
X350390D01*
X341835Y293665D02*
Y304129D01*
X350390Y311453D02*
X351858Y312921D01*
X341835Y304129D02*
X349159Y311453D01*
X481500Y284500D02*
Y289500D01*
Y284500D02*
X481540Y284460D01*
Y283126D02*
Y284460D01*
X391744Y330228D02*
X391744D01*
X391744D02*
Y331122D01*
X391744Y328366D02*
Y330228D01*
X294000Y293725D02*
X300798D01*
X294000Y271858D02*
X298012D01*
X306598Y289500D02*
X331402D01*
X333902Y292000D01*
X338500D01*
X481540Y283126D02*
X482418Y282248D01*
X482500D01*
X456000Y319000D02*
X458800D01*
X453500Y312479D02*
Y316500D01*
Y312479D02*
X454592Y311387D01*
X463233D01*
X468142Y306479D01*
Y293500D02*
Y306479D01*
X452500Y356842D02*
X452658Y357000D01*
X452500Y348500D02*
Y356842D01*
X335831Y337046D02*
Y344214D01*
X391744Y328366D02*
X392425Y327685D01*
X344483Y291017D02*
X349144Y295677D01*
X333911Y280445D02*
X344483Y291017D01*
X341835Y293665D02*
X344483Y291017D01*
X349144Y295677D02*
Y299872D01*
X349500Y300228D01*
X337028Y344969D02*
X338299Y346240D01*
X336585Y344969D02*
X337028D01*
X335831Y344214D02*
X336585Y344969D01*
X338299Y346240D02*
X339087D01*
X463342Y324600D02*
X473013Y334271D01*
X463987Y316387D02*
Y320633D01*
X453613Y322367D02*
Y325633D01*
X459400Y324600D02*
X463342D01*
X463121Y321500D02*
X463987Y320633D01*
X453613Y325633D02*
X454479Y326500D01*
X473013Y334271D02*
Y340010D01*
X458800Y314000D02*
X461600D01*
X454479Y321500D02*
X463121D01*
X454479Y326500D02*
X463121D01*
X461600Y314000D02*
X463987Y316387D01*
X453613Y322367D02*
X454479Y321500D01*
X458800Y324000D02*
X459400Y324600D01*
X482185Y349182D02*
Y357000D01*
X473013Y340010D02*
X482185Y349182D01*
X401874Y327685D02*
X402555Y328366D01*
X475142Y282277D02*
Y285811D01*
X468142Y292811D02*
X475142Y285811D01*
X468142Y292811D02*
Y293500D01*
X306598Y280445D02*
X333911D01*
X376500Y238500D02*
X376599Y238599D01*
X378148Y260551D02*
X390074D01*
X373124Y265575D02*
Y301691D01*
Y265575D02*
X378148Y260551D01*
X390074D02*
X406500Y244125D01*
X373878Y302445D02*
X376634D01*
X373124Y301691D02*
X373878Y302445D01*
X376634D02*
X377315Y303126D01*
X406500Y238500D02*
Y244125D01*
X388556Y276029D02*
X388851D01*
X386126Y278459D02*
Y294315D01*
Y278459D02*
X388556Y276029D01*
X381642D02*
Y291258D01*
X382976Y292593D01*
Y294315D01*
X388851Y263890D02*
Y269532D01*
Y263890D02*
X389426Y263315D01*
X381642Y263815D02*
Y269532D01*
X381142Y263315D02*
X381642Y263815D01*
X305024Y280445D02*
X306598D01*
X352024Y309425D02*
X377315D01*
X344500Y301902D02*
X352024Y309425D01*
X300798Y293725D02*
X305024Y289500D01*
X306598D01*
X298012Y271858D02*
X303654Y277500D01*
Y279075D01*
X305024Y280445D01*
X344500Y300228D02*
Y301902D01*
X359500Y300228D02*
X364962D01*
X371009Y306276D01*
X377315D01*
X458800Y329000D02*
Y334000D01*
Y304000D02*
Y309000D01*
X482500Y268228D02*
Y275752D01*
Y268228D02*
X483476Y267252D01*
X483642D01*
X475142Y267315D02*
Y275781D01*
X410685Y303126D02*
X411366Y302445D01*
X414122D01*
X410685Y306276D02*
X411366Y305594D01*
X424476D01*
D16*
X359500Y278772D02*
D03*
X354500D02*
D03*
X349500D02*
D03*
X344500D02*
D03*
Y300228D02*
D03*
X349500D02*
D03*
X354500D02*
D03*
X359500D02*
D03*
D17*
X362260Y349413D02*
D03*
X369740D02*
D03*
Y338587D02*
D03*
X366000D02*
D03*
X362260D02*
D03*
D18*
X351858Y313500D02*
D03*
X359142D02*
D03*
X424000Y312644D02*
D03*
X431284D02*
D03*
X369180Y322178D02*
D03*
X361897D02*
D03*
X424000Y321322D02*
D03*
X431284D02*
D03*
X424000Y330000D02*
D03*
X431284D02*
D03*
X468142Y293500D02*
D03*
X460858D02*
D03*
D19*
X427500Y302571D02*
D03*
Y286429D02*
D03*
D20*
X439273Y306224D02*
D03*
Y298940D02*
D03*
Y284357D02*
D03*
Y291640D02*
D03*
X294000Y271858D02*
D03*
Y279142D02*
D03*
Y293725D02*
D03*
Y286442D02*
D03*
D21*
X405024Y294315D02*
D03*
X401874D02*
D03*
X398724D02*
D03*
X395575D02*
D03*
X392425D02*
D03*
X389276D02*
D03*
X386126D02*
D03*
X382976D02*
D03*
Y327685D02*
D03*
X386126D02*
D03*
X389276D02*
D03*
X392425D02*
D03*
X395575D02*
D03*
X398724D02*
D03*
X401874D02*
D03*
X405024D02*
D03*
D22*
X377315Y299976D02*
D03*
Y303126D02*
D03*
Y306276D02*
D03*
Y309425D02*
D03*
Y312575D02*
D03*
Y315724D02*
D03*
Y318874D02*
D03*
Y322024D02*
D03*
X410685D02*
D03*
Y318874D02*
D03*
Y315724D02*
D03*
Y312575D02*
D03*
Y309425D02*
D03*
Y306276D02*
D03*
Y303126D02*
D03*
Y299976D02*
D03*
D23*
X331402Y289500D02*
D03*
D24*
X306598Y280445D02*
D03*
Y289500D02*
D03*
Y298555D02*
D03*
D25*
X458800Y334000D02*
D03*
Y329000D02*
D03*
Y324000D02*
D03*
Y319000D02*
D03*
Y314000D02*
D03*
Y309000D02*
D03*
Y304000D02*
D03*
X478200D02*
D03*
Y309000D02*
D03*
Y314000D02*
D03*
Y319000D02*
D03*
Y324000D02*
D03*
Y329000D02*
D03*
Y334000D02*
D03*
D26*
X483642Y259378D02*
D03*
Y267252D02*
D03*
X475142Y259441D02*
D03*
Y267315D02*
D03*
X381142Y255441D02*
D03*
Y263315D02*
D03*
X389426Y255441D02*
D03*
Y263315D02*
D03*
D27*
X475142Y275781D02*
D03*
Y282277D02*
D03*
X482500Y275752D02*
D03*
Y282248D02*
D03*
X381642Y269532D02*
D03*
Y276029D02*
D03*
X388851Y269532D02*
D03*
Y276029D02*
D03*
D28*
X339087Y346240D02*
D03*
Y342500D02*
D03*
Y338760D02*
D03*
X349913D02*
D03*
Y346240D02*
D03*
D48*
X342593Y340682D02*
Y342092D01*
X341692Y339781D02*
X342593Y340682D01*
X340896Y339781D02*
X341692D01*
X339874Y338760D02*
X340896Y339781D01*
X342593Y342092D02*
X344750Y344250D01*
Y346401D01*
X339087Y338760D02*
X339874D01*
X407843Y356265D02*
Y357000D01*
X408658D01*
X347640Y349291D02*
Y352116D01*
X350701Y338760D02*
X353419Y341478D01*
Y348058D01*
X352519Y348959D02*
X353419Y348058D01*
X351019Y348959D02*
X352519D01*
X350140Y349837D02*
X351019Y348959D01*
X350140Y349837D02*
Y351080D01*
X351979Y352919D01*
X374187D01*
X378793Y348313D01*
X402643D01*
X344750Y346401D02*
X347640Y349291D01*
X402486Y351692D02*
Y352934D01*
X398815Y356606D02*
Y357000D01*
X349913Y338760D02*
X350701D01*
X347640Y352116D02*
X350944Y355419D01*
X375222D01*
X379829Y350813D01*
X401608D01*
X402486Y351692D01*
X398815Y356606D02*
X402486Y352934D01*
X402643Y348313D02*
X404986Y350656D01*
Y353409D01*
X407843Y356265D01*
X418500Y357000D02*
X418580D01*
X428263D02*
X428342D01*
X431696Y365687D02*
X436439Y360944D01*
Y353056D02*
Y360944D01*
X422171Y362869D02*
X424989Y365687D01*
X369740Y341871D02*
X370619Y342750D01*
X369740Y338587D02*
Y341871D01*
X424671Y360591D02*
X428263Y357000D01*
X370619Y345250D02*
X425098D01*
X369740Y346129D02*
X370619Y345250D01*
X422171Y360591D02*
Y362869D01*
X424989Y365687D02*
X431696D01*
X370619Y342750D02*
X426133D01*
X425098Y345250D02*
X433939Y354091D01*
X418580Y357000D02*
X422171Y360591D01*
X426133Y342750D02*
X436439Y353056D01*
X424671Y360591D02*
Y361834D01*
X426024Y363187D01*
X430661D01*
X433939Y359909D01*
Y354091D02*
Y359909D01*
X369740Y346129D02*
Y349413D01*
X326644Y248869D02*
X350750Y272976D01*
X329144Y247834D02*
X353250Y271940D01*
Y275848D02*
X354500Y277098D01*
Y278772D01*
X329144Y246591D02*
X332735Y243000D01*
X329144Y246591D02*
Y247834D01*
X353250Y271940D02*
Y275848D01*
X349500Y277098D02*
X350750Y275848D01*
X349500Y277098D02*
Y278772D01*
X332735Y243000D02*
X332815D01*
X350750Y272976D02*
Y275848D01*
X326644Y246591D02*
Y248869D01*
X323053Y243000D02*
X326644Y246591D01*
X322972Y243000D02*
X323053D01*
D49*
X482185Y357000D02*
D03*
X472342D02*
D03*
X462500D02*
D03*
X428342D02*
D03*
X418500D02*
D03*
X408658D02*
D03*
X342657Y243000D02*
D03*
X332815D02*
D03*
X322972D02*
D03*
D50*
X452658Y357000D02*
D03*
X398815D02*
D03*
X352500Y243000D02*
D03*
D51*
X416500Y238500D02*
D03*
X406500D02*
D03*
X396500D02*
D03*
X386500D02*
D03*
D52*
X376500D02*
D03*
D53*
X492000Y242500D02*
D03*
X298000Y356000D02*
D03*
X297991Y242507D02*
D03*
D54*
X417500Y327500D02*
D03*
X386500Y250000D02*
D03*
X367000Y258500D02*
D03*
X366000Y344500D02*
D03*
X344500Y334500D02*
D03*
X369500Y329728D02*
D03*
X376500Y328000D02*
D03*
X402500Y305500D02*
D03*
X387000Y303000D02*
D03*
X401500Y319000D02*
D03*
X388500Y320000D02*
D03*
X346500Y286411D02*
D03*
X417000Y249000D02*
D03*
X448000Y309000D02*
D03*
X486500Y335000D02*
D03*
X446500Y326000D02*
D03*
X343000Y353000D02*
D03*
X481500Y289500D02*
D03*
X450000Y295000D02*
D03*
X365000Y306000D02*
D03*
X366000Y313500D02*
D03*
X338500Y277000D02*
D03*
Y292000D02*
D03*
X452500Y348500D02*
D03*
M02*
