G04*
G04 #@! TF.GenerationSoftware,Altium Limited,Altium Designer,20.2.3 (150)*
G04*
G04 Layer_Color=65535*
%FSLAX25Y25*%
%MOIN*%
G70*
G04*
G04 #@! TF.SameCoordinates,5AD5DEB4-D25B-43D4-AA11-83956EA83F71*
G04*
G04*
G04 #@! TF.FilePolarity,Positive*
G04*
G01*
G75*
%ADD10C,0.01575*%
%ADD11C,0.00984*%
%ADD12C,0.00600*%
%ADD13C,0.00787*%
%ADD14C,0.01000*%
%ADD15C,0.00800*%
D10*
X412799Y295252D02*
X412255Y296001D01*
X411375Y295715D01*
Y294789D01*
X412255Y294503D01*
X412799Y295252D01*
D11*
X358079Y350087D02*
X357341Y350513D01*
Y349660D01*
X358079Y350087D01*
X339579Y349587D02*
X338841Y350013D01*
Y349160D01*
X339579Y349587D01*
D12*
X467300Y336200D02*
X467652Y335351D01*
X468500Y335000D01*
X469348Y335351D01*
X469700Y336200D01*
X463411Y301800D02*
X473589D01*
X463411Y336200D02*
X473589D01*
D13*
X355303Y315764D02*
X355697D01*
X355303Y311236D02*
X355697D01*
X441536Y302385D02*
Y302779D01*
X437009Y302385D02*
Y302779D01*
Y287802D02*
Y288195D01*
X441536Y287802D02*
Y288195D01*
X406402Y298598D02*
Y323402D01*
X381598D02*
X406402D01*
X381598Y298598D02*
Y323402D01*
Y298598D02*
X406402D01*
X427445Y314908D02*
X427839D01*
X427445Y310380D02*
X427839D01*
X365341Y319914D02*
X365735D01*
X365341Y324442D02*
X365735D01*
X427445Y323586D02*
X427839D01*
X427445Y319058D02*
X427839D01*
X427445Y332264D02*
X427839D01*
X427445Y327736D02*
X427839D01*
X361032Y348905D02*
X364968D01*
X361032Y337094D02*
X364968D01*
X361032D02*
Y348905D01*
X364968Y337094D02*
Y348905D01*
X303153Y301803D02*
X310043D01*
X312110Y276705D02*
Y302295D01*
Y276705D02*
X325890D01*
Y302295D01*
X312110D02*
X325890D01*
X291736Y275303D02*
Y275697D01*
X296264Y275303D02*
Y275697D01*
Y289887D02*
Y290281D01*
X291736Y289887D02*
Y290281D01*
X442658Y343500D02*
Y366500D01*
Y343500D02*
X492158D01*
Y366500D01*
X442658D02*
X492158D01*
X464303Y291236D02*
X464697D01*
X464303Y295764D02*
X464697D01*
X481575Y262331D02*
Y264299D01*
X485709Y262331D02*
Y264299D01*
X473075Y262394D02*
Y264362D01*
X477209Y262394D02*
Y264362D01*
X473862Y278635D02*
Y279422D01*
X476421Y278635D02*
Y279422D01*
X481220Y278606D02*
Y279394D01*
X483779Y278606D02*
Y279394D01*
X388815Y343500D02*
Y366500D01*
Y343500D02*
X438315D01*
Y366500D01*
X388815D02*
X438315D01*
X361646Y283201D02*
Y295799D01*
X342354Y283201D02*
X361646D01*
X342354D02*
Y295799D01*
X361646D01*
X362256Y297177D02*
Y303279D01*
X342531Y348406D02*
X346468D01*
X342531Y336595D02*
X346468D01*
X342531D02*
Y348406D01*
X346468Y336595D02*
Y348406D01*
X380362Y272387D02*
Y273174D01*
X382921Y272387D02*
Y273174D01*
X387572Y272387D02*
Y273174D01*
X390131Y272387D02*
Y273174D01*
X371500Y233500D02*
Y243500D01*
X421500D01*
X371500Y233500D02*
X421500D01*
Y243500D01*
X313000Y233500D02*
X362500D01*
X313000D02*
Y256500D01*
X362500D01*
Y233500D02*
Y256500D01*
X379075Y258394D02*
Y260362D01*
X383209Y258394D02*
Y260362D01*
X387359Y258394D02*
Y260362D01*
X391493Y258394D02*
Y260362D01*
D14*
X455000Y337500D02*
X464500D01*
D15*
X394133Y231716D02*
X393549Y232299D01*
X392383D01*
X391800Y231716D01*
Y229383D01*
X392383Y228800D01*
X393549D01*
X394133Y229383D01*
Y230549D01*
X392966D01*
X395299Y228800D02*
Y232299D01*
X397631Y228800D01*
Y232299D01*
X398798D02*
Y228800D01*
X400547D01*
X401130Y229383D01*
Y231716D01*
X400547Y232299D01*
X398798D01*
X361300Y231716D02*
X361883Y232299D01*
X363049D01*
X363633Y231716D01*
Y231133D01*
X363049Y230549D01*
X362466D01*
X363049D01*
X363633Y229966D01*
Y229383D01*
X363049Y228800D01*
X361883D01*
X361300Y229383D01*
X364799Y228800D02*
Y229383D01*
X365382D01*
Y228800D01*
X364799D01*
X367715Y231716D02*
X368298Y232299D01*
X369464D01*
X370047Y231716D01*
Y231133D01*
X369464Y230549D01*
X368881D01*
X369464D01*
X370047Y229966D01*
Y229383D01*
X369464Y228800D01*
X368298D01*
X367715Y229383D01*
X371214Y232299D02*
Y229966D01*
X372380Y228800D01*
X373546Y229966D01*
Y232299D01*
X489633Y342299D02*
X487300D01*
Y340549D01*
X488466Y341133D01*
X489049D01*
X489633Y340549D01*
Y339383D01*
X489049Y338800D01*
X487883D01*
X487300Y339383D01*
X493131Y341716D02*
X492548Y342299D01*
X491382D01*
X490799Y341716D01*
Y341133D01*
X491382Y340549D01*
X492548D01*
X493131Y339966D01*
Y339383D01*
X492548Y338800D01*
X491382D01*
X490799Y339383D01*
X494298Y338800D02*
Y342299D01*
X496630Y338800D01*
Y342299D01*
X500129Y341716D02*
X499546Y342299D01*
X498380D01*
X497797Y341716D01*
Y341133D01*
X498380Y340549D01*
X499546D01*
X500129Y339966D01*
Y339383D01*
X499546Y338800D01*
X498380D01*
X497797Y339383D01*
X473633Y341716D02*
X473049Y342299D01*
X471883D01*
X471300Y341716D01*
Y339383D01*
X471883Y338800D01*
X473049D01*
X473633Y339383D01*
Y340549D01*
X472466D01*
X474799Y338800D02*
Y342299D01*
X477132Y338800D01*
Y342299D01*
X478298D02*
Y338800D01*
X480047D01*
X480630Y339383D01*
Y341716D01*
X480047Y342299D01*
X478298D01*
X454133Y338800D02*
X451800D01*
X454133Y341133D01*
Y341716D01*
X453549Y342299D01*
X452383D01*
X451800Y341716D01*
X457048Y338800D02*
Y342299D01*
X455299Y340549D01*
X457631D01*
X461130Y341716D02*
X460547Y342299D01*
X459381D01*
X458798Y341716D01*
Y341133D01*
X459381Y340549D01*
X460547D01*
X461130Y339966D01*
Y339383D01*
X460547Y338800D01*
X459381D01*
X458798Y339383D01*
X462297Y338800D02*
Y342299D01*
X464629Y338800D01*
Y342299D01*
X468128Y341716D02*
X467545Y342299D01*
X466379D01*
X465796Y341716D01*
Y341133D01*
X466379Y340549D01*
X467545D01*
X468128Y339966D01*
Y339383D01*
X467545Y338800D01*
X466379D01*
X465796Y339383D01*
X445133Y342299D02*
X442800D01*
Y340549D01*
X443966Y341133D01*
X444549D01*
X445133Y340549D01*
Y339383D01*
X444549Y338800D01*
X443383D01*
X442800Y339383D01*
X446299Y342299D02*
Y339966D01*
X447465Y338800D01*
X448631Y339966D01*
Y342299D01*
X429633D02*
X427300D01*
Y340549D01*
X428466Y341133D01*
X429049D01*
X429633Y340549D01*
Y339383D01*
X429049Y338800D01*
X427883D01*
X427300Y339383D01*
X430799Y338800D02*
Y342299D01*
X433132Y338800D01*
Y342299D01*
X419133D02*
X416800D01*
Y340549D01*
X417966Y341133D01*
X418549D01*
X419133Y340549D01*
Y339383D01*
X418549Y338800D01*
X417383D01*
X416800Y339383D01*
X420299Y338800D02*
Y342299D01*
X422048D01*
X422632Y341716D01*
Y340549D01*
X422048Y339966D01*
X420299D01*
X405133Y338800D02*
X402800D01*
X405133Y341133D01*
Y341716D01*
X404549Y342299D01*
X403383D01*
X402800Y341716D01*
X408048Y338800D02*
Y342299D01*
X406299Y340549D01*
X408631D01*
X409798Y338800D02*
Y342299D01*
X412130Y338800D01*
Y342299D01*
X392633Y338800D02*
X390300D01*
X392633Y341133D01*
Y341716D01*
X392049Y342299D01*
X390883D01*
X390300Y341716D01*
X395548Y338800D02*
Y342299D01*
X393799Y340549D01*
X396131D01*
X397298Y338800D02*
Y342299D01*
X399047D01*
X399630Y341716D01*
Y340549D01*
X399047Y339966D01*
X397298D01*
X310633Y231716D02*
X310049Y232299D01*
X308883D01*
X308300Y231716D01*
Y229383D01*
X308883Y228800D01*
X310049D01*
X310633Y229383D01*
X311799Y228800D02*
Y231133D01*
X312965Y232299D01*
X314131Y231133D01*
Y228800D01*
Y230549D01*
X311799D01*
X315298Y228800D02*
Y232299D01*
X317630Y228800D01*
Y232299D01*
X318797D02*
Y228800D01*
X321129D01*
X327133Y231716D02*
X326549Y232299D01*
X325383D01*
X324800Y231716D01*
Y229383D01*
X325383Y228800D01*
X326549D01*
X327133Y229383D01*
X328299Y228800D02*
Y231133D01*
X329465Y232299D01*
X330631Y231133D01*
Y228800D01*
Y230549D01*
X328299D01*
X331798Y228800D02*
Y232299D01*
X334130Y228800D01*
Y232299D01*
X335297D02*
Y228800D01*
Y230549D01*
X337629D01*
Y232299D01*
Y228800D01*
X419300D02*
Y232299D01*
X421633Y228800D01*
Y232299D01*
X422799Y228800D02*
Y232299D01*
X424548D01*
X425132Y231716D01*
Y230549D01*
X424548Y229966D01*
X422799D01*
X423965D02*
X425132Y228800D01*
X428630Y231716D02*
X428047Y232299D01*
X426881D01*
X426298Y231716D01*
Y231133D01*
X426881Y230549D01*
X428047D01*
X428630Y229966D01*
Y229383D01*
X428047Y228800D01*
X426881D01*
X426298Y229383D01*
X429797Y232299D02*
X432129D01*
X430963D01*
Y228800D01*
X405800Y232299D02*
Y228800D01*
X407549D01*
X408133Y229383D01*
Y231716D01*
X407549Y232299D01*
X405800D01*
X409299D02*
X410465D01*
X409882D01*
Y228800D01*
X409299D01*
X410465D01*
X413964Y232299D02*
X412798D01*
X412215Y231716D01*
Y229383D01*
X412798Y228800D01*
X413964D01*
X414547Y229383D01*
Y231716D01*
X413964Y232299D01*
X379633Y231716D02*
X379049Y232299D01*
X377883D01*
X377300Y231716D01*
Y229383D01*
X377883Y228800D01*
X379049D01*
X379633Y229383D01*
X380799Y232299D02*
Y228800D01*
X383131D01*
X384298Y232299D02*
Y228800D01*
Y229966D01*
X386630Y232299D01*
X384881Y230549D01*
X386630Y228800D01*
X354917Y325166D02*
X354334Y325749D01*
X353167D01*
X352584Y325166D01*
Y322834D01*
X353167Y322251D01*
X354334D01*
X354917Y322834D01*
X356083Y325166D02*
X356666Y325749D01*
X357833D01*
X358416Y325166D01*
Y324583D01*
X357833Y324000D01*
X358416Y323417D01*
Y322834D01*
X357833Y322251D01*
X356666D01*
X356083Y322834D01*
Y323417D01*
X356666Y324000D01*
X356083Y324583D01*
Y325166D01*
X356666Y324000D02*
X357833D01*
X428667Y280749D02*
Y280166D01*
X429834Y279000D01*
X431000Y280166D01*
Y280749D01*
X429834Y279000D02*
Y277251D01*
X432166D02*
X433333D01*
X432749D01*
Y280749D01*
X432166Y280166D01*
X445917Y300166D02*
X445334Y300749D01*
X444167D01*
X443584Y300166D01*
Y297834D01*
X444167Y297251D01*
X445334D01*
X445917Y297834D01*
X447083Y300749D02*
X449416D01*
Y300166D01*
X447083Y297834D01*
Y297251D01*
X445917Y285166D02*
X445334Y285749D01*
X444167D01*
X443584Y285166D01*
Y282834D01*
X444167Y282251D01*
X445334D01*
X445917Y282834D01*
X449416Y285749D02*
X447083D01*
Y284000D01*
X448249Y284583D01*
X448833D01*
X449416Y284000D01*
Y282834D01*
X448833Y282251D01*
X447666D01*
X447083Y282834D01*
X346000Y316166D02*
X345417Y316749D01*
X344251D01*
X343667Y316166D01*
Y313834D01*
X344251Y313251D01*
X345417D01*
X346000Y313834D01*
X347166Y313251D02*
X348333D01*
X347749D01*
Y316749D01*
X347166Y316166D01*
X365084Y330749D02*
Y327834D01*
X365667Y327251D01*
X366834D01*
X367417Y327834D01*
Y330749D01*
X370916Y327251D02*
X368583D01*
X370916Y329583D01*
Y330166D01*
X370333Y330749D01*
X369166D01*
X368583Y330166D01*
X437417Y314166D02*
X436834Y314749D01*
X435667D01*
X435084Y314166D01*
Y311834D01*
X435667Y311251D01*
X436834D01*
X437417Y311834D01*
X440916Y311251D02*
X438583D01*
X440916Y313583D01*
Y314166D01*
X440333Y314749D01*
X439166D01*
X438583Y314166D01*
X437417Y322666D02*
X436834Y323249D01*
X435667D01*
X435084Y322666D01*
Y320334D01*
X435667Y319751D01*
X436834D01*
X437417Y320334D01*
X438583Y322666D02*
X439166Y323249D01*
X440333D01*
X440916Y322666D01*
Y322083D01*
X440333Y321500D01*
X439749D01*
X440333D01*
X440916Y320917D01*
Y320334D01*
X440333Y319751D01*
X439166D01*
X438583Y320334D01*
X437417Y331166D02*
X436834Y331749D01*
X435667D01*
X435084Y331166D01*
Y328834D01*
X435667Y328251D01*
X436834D01*
X437417Y328834D01*
X440333Y328251D02*
Y331749D01*
X438583Y330000D01*
X440916D01*
X372084Y340249D02*
Y337334D01*
X372667Y336751D01*
X373834D01*
X374417Y337334D01*
Y340249D01*
X377916D02*
X376749Y339666D01*
X375583Y338500D01*
Y337334D01*
X376166Y336751D01*
X377333D01*
X377916Y337334D01*
Y337917D01*
X377333Y338500D01*
X375583D01*
X329584Y274749D02*
Y271834D01*
X330167Y271251D01*
X331334D01*
X331917Y271834D01*
Y274749D01*
X335416D02*
X333083D01*
Y273000D01*
X334249Y273583D01*
X334833D01*
X335416Y273000D01*
Y271834D01*
X334833Y271251D01*
X333666D01*
X333083Y271834D01*
X293417Y267666D02*
X292834Y268249D01*
X291667D01*
X291084Y267666D01*
Y265334D01*
X291667Y264751D01*
X292834D01*
X293417Y265334D01*
X294583D02*
X295166Y264751D01*
X296333D01*
X296916Y265334D01*
Y267666D01*
X296333Y268249D01*
X295166D01*
X294583Y267666D01*
Y267083D01*
X295166Y266500D01*
X296916D01*
X291959Y300166D02*
X291376Y300749D01*
X290210D01*
X289626Y300166D01*
Y297834D01*
X290210Y297251D01*
X291376D01*
X291959Y297834D01*
X293125Y297251D02*
X294292D01*
X293708D01*
Y300749D01*
X293125Y300166D01*
X296041D02*
X296624Y300749D01*
X297790D01*
X298374Y300166D01*
Y297834D01*
X297790Y297251D01*
X296624D01*
X296041Y297834D01*
Y300166D01*
X484167Y305249D02*
Y302334D01*
X484751Y301751D01*
X485917D01*
X486500Y302334D01*
Y305249D01*
X487666Y301751D02*
X488833D01*
X488249D01*
Y305249D01*
X487666Y304666D01*
X495917Y365749D02*
X494751D01*
X495334D01*
Y362834D01*
X494751Y362251D01*
X494167D01*
X493584Y362834D01*
X497083Y365166D02*
X497666Y365749D01*
X498833D01*
X499416Y365166D01*
Y364583D01*
X498833Y364000D01*
X498249D01*
X498833D01*
X499416Y363417D01*
Y362834D01*
X498833Y362251D01*
X497666D01*
X497083Y362834D01*
X459917Y288666D02*
X459334Y289249D01*
X458167D01*
X457584Y288666D01*
Y286334D01*
X458167Y285751D01*
X459334D01*
X459917Y286334D01*
X463416Y289249D02*
X462249Y288666D01*
X461083Y287500D01*
Y286334D01*
X461666Y285751D01*
X462833D01*
X463416Y286334D01*
Y286917D01*
X462833Y287500D01*
X461083D01*
X488167Y261249D02*
Y257751D01*
X489917D01*
X490500Y258334D01*
Y260666D01*
X489917Y261249D01*
X488167D01*
X491666Y257751D02*
X492833D01*
X492249D01*
Y261249D01*
X491666Y260666D01*
X465084Y261249D02*
Y257751D01*
X466834D01*
X467417Y258334D01*
Y260666D01*
X466834Y261249D01*
X465084D01*
X470916Y257751D02*
X468583D01*
X470916Y260083D01*
Y260666D01*
X470333Y261249D01*
X469166D01*
X468583Y260666D01*
X465584Y274751D02*
Y278249D01*
X467334D01*
X467917Y277666D01*
Y276500D01*
X467334Y275917D01*
X465584D01*
X466751D02*
X467917Y274751D01*
X471416D02*
X469083D01*
X471416Y277083D01*
Y277666D01*
X470833Y278249D01*
X469666D01*
X469083Y277666D01*
X486167Y274251D02*
Y277749D01*
X487917D01*
X488500Y277166D01*
Y276000D01*
X487917Y275417D01*
X486167D01*
X487334D02*
X488500Y274251D01*
X489666D02*
X490833D01*
X490249D01*
Y277749D01*
X489666Y277166D01*
X383917Y365749D02*
X382751D01*
X383334D01*
Y362834D01*
X382751Y362251D01*
X382167D01*
X381584Y362834D01*
X386833Y362251D02*
Y365749D01*
X385083Y364000D01*
X387416D01*
X358084Y273749D02*
Y270834D01*
X358667Y270251D01*
X359834D01*
X360417Y270834D01*
Y273749D01*
X361583Y273166D02*
X362166Y273749D01*
X363333D01*
X363916Y273166D01*
Y272583D01*
X363333Y272000D01*
X362749D01*
X363333D01*
X363916Y271417D01*
Y270834D01*
X363333Y270251D01*
X362166D01*
X361583Y270834D01*
X329084Y339749D02*
Y336834D01*
X329667Y336251D01*
X330834D01*
X331417Y336834D01*
Y339749D01*
X334333Y336251D02*
Y339749D01*
X332583Y338000D01*
X334916D01*
X372584Y267251D02*
Y270749D01*
X374334D01*
X374917Y270166D01*
Y269000D01*
X374334Y268417D01*
X372584D01*
X373751D02*
X374917Y267251D01*
X377833D02*
Y270749D01*
X376083Y269000D01*
X378416D01*
X392084Y267251D02*
Y270749D01*
X393834D01*
X394417Y270166D01*
Y269000D01*
X393834Y268417D01*
X392084D01*
X393251D02*
X394417Y267251D01*
X395583Y270166D02*
X396166Y270749D01*
X397333D01*
X397916Y270166D01*
Y269583D01*
X397333Y269000D01*
X396749D01*
X397333D01*
X397916Y268417D01*
Y267834D01*
X397333Y267251D01*
X396166D01*
X395583Y267834D01*
X424917Y243249D02*
X423751D01*
X424334D01*
Y240334D01*
X423751Y239751D01*
X423167D01*
X422584Y240334D01*
X428416Y239751D02*
X426083D01*
X428416Y242083D01*
Y242666D01*
X427833Y243249D01*
X426666D01*
X426083Y242666D01*
X366000Y250749D02*
X364834D01*
X365417D01*
Y247834D01*
X364834Y247251D01*
X364251D01*
X363667Y247834D01*
X367166Y247251D02*
X368333D01*
X367749D01*
Y250749D01*
X367166Y250166D01*
X371084Y256749D02*
Y253251D01*
X372834D01*
X373417Y253834D01*
Y256166D01*
X372834Y256749D01*
X371084D01*
X376333Y253251D02*
Y256749D01*
X374583Y255000D01*
X376916D01*
X393584Y256749D02*
Y253251D01*
X395334D01*
X395917Y253834D01*
Y256166D01*
X395334Y256749D01*
X393584D01*
X397083Y256166D02*
X397666Y256749D01*
X398833D01*
X399416Y256166D01*
Y255583D01*
X398833Y255000D01*
X398249D01*
X398833D01*
X399416Y254417D01*
Y253834D01*
X398833Y253251D01*
X397666D01*
X397083Y253834D01*
M02*
