G04*
G04 #@! TF.GenerationSoftware,Altium Limited,Altium Designer,20.2.3 (150)*
G04*
G04 Layer_Color=255*
%FSLAX25Y25*%
%MOIN*%
G70*
G04*
G04 #@! TF.SameCoordinates,FEE7AC8F-F901-45B1-A19B-458FA38B073B*
G04*
G04*
G04 #@! TF.FilePolarity,Positive*
G04*
G01*
G75*
%ADD16R,0.02756X0.06102*%
%ADD17R,0.02362X0.03937*%
%ADD18R,0.03937X0.05315*%
%ADD19R,0.09449X0.07480*%
%ADD20R,0.05315X0.03937*%
%ADD21R,0.02362X0.05807*%
%ADD22R,0.05807X0.02362*%
%ADD23R,0.06890X0.12598*%
%ADD24R,0.06890X0.03740*%
%ADD25R,0.07800X0.02200*%
%ADD26R,0.04921X0.02953*%
%ADD27R,0.03347X0.02756*%
%ADD28R,0.03937X0.02362*%
%ADD49O,0.06693X0.07874*%
G04:AMPARAMS|DCode=50|XSize=66.93mil|YSize=78.74mil|CornerRadius=16.73mil|HoleSize=0mil|Usage=FLASHONLY|Rotation=0.000|XOffset=0mil|YOffset=0mil|HoleType=Round|Shape=RoundedRectangle|*
%AMROUNDEDRECTD50*
21,1,0.06693,0.04528,0,0,0.0*
21,1,0.03347,0.07874,0,0,0.0*
1,1,0.03346,0.01673,-0.02264*
1,1,0.03346,-0.01673,-0.02264*
1,1,0.03346,-0.01673,0.02264*
1,1,0.03346,0.01673,0.02264*
%
%ADD50ROUNDEDRECTD50*%
%ADD51C,0.05906*%
%ADD52R,0.05906X0.05906*%
D16*
X359500Y278772D02*
D03*
X354500D02*
D03*
X349500D02*
D03*
X344500D02*
D03*
Y300228D02*
D03*
X349500D02*
D03*
X354500D02*
D03*
X359500D02*
D03*
D17*
X362260Y349413D02*
D03*
X369740D02*
D03*
Y338587D02*
D03*
X366000D02*
D03*
X362260D02*
D03*
D18*
X351858Y313500D02*
D03*
X359142D02*
D03*
X424000Y312644D02*
D03*
X431284D02*
D03*
X369180Y322178D02*
D03*
X361897D02*
D03*
X424000Y321322D02*
D03*
X431284D02*
D03*
X424000Y330000D02*
D03*
X431284D02*
D03*
X468142Y293500D02*
D03*
X460858D02*
D03*
D19*
X427500Y302571D02*
D03*
Y286429D02*
D03*
D20*
X439273Y306224D02*
D03*
Y298940D02*
D03*
Y284357D02*
D03*
Y291640D02*
D03*
X294000Y271858D02*
D03*
Y279142D02*
D03*
Y293725D02*
D03*
Y286442D02*
D03*
D21*
X405024Y294315D02*
D03*
X401874D02*
D03*
X398724D02*
D03*
X395575D02*
D03*
X392425D02*
D03*
X389276D02*
D03*
X386126D02*
D03*
X382976D02*
D03*
Y327685D02*
D03*
X386126D02*
D03*
X389276D02*
D03*
X392425D02*
D03*
X395575D02*
D03*
X398724D02*
D03*
X401874D02*
D03*
X405024D02*
D03*
D22*
X377315Y299976D02*
D03*
Y303126D02*
D03*
Y306276D02*
D03*
Y309425D02*
D03*
Y312575D02*
D03*
Y315724D02*
D03*
Y318874D02*
D03*
Y322024D02*
D03*
X410685D02*
D03*
Y318874D02*
D03*
Y315724D02*
D03*
Y312575D02*
D03*
Y309425D02*
D03*
Y306276D02*
D03*
Y303126D02*
D03*
Y299976D02*
D03*
D23*
X331402Y289500D02*
D03*
D24*
X306598Y280445D02*
D03*
Y289500D02*
D03*
Y298555D02*
D03*
D25*
X458800Y334000D02*
D03*
Y329000D02*
D03*
Y324000D02*
D03*
Y319000D02*
D03*
Y314000D02*
D03*
Y309000D02*
D03*
Y304000D02*
D03*
X478200D02*
D03*
Y309000D02*
D03*
Y314000D02*
D03*
Y319000D02*
D03*
Y324000D02*
D03*
Y329000D02*
D03*
Y334000D02*
D03*
D26*
X483642Y259378D02*
D03*
Y267252D02*
D03*
X475142Y259441D02*
D03*
Y267315D02*
D03*
X381142Y255441D02*
D03*
Y263315D02*
D03*
X389426Y255441D02*
D03*
Y263315D02*
D03*
D27*
X475142Y275781D02*
D03*
Y282277D02*
D03*
X482500Y275752D02*
D03*
Y282248D02*
D03*
X381642Y269532D02*
D03*
Y276029D02*
D03*
X388851Y269532D02*
D03*
Y276029D02*
D03*
D28*
X339087Y346240D02*
D03*
Y342500D02*
D03*
Y338760D02*
D03*
X349913D02*
D03*
Y346240D02*
D03*
D49*
X482185Y357000D02*
D03*
X472342D02*
D03*
X462500D02*
D03*
X428342D02*
D03*
X418500D02*
D03*
X408658D02*
D03*
X342657Y243000D02*
D03*
X332815D02*
D03*
X322972D02*
D03*
D50*
X452658Y357000D02*
D03*
X398815D02*
D03*
X352500Y243000D02*
D03*
D51*
X416500Y238500D02*
D03*
X406500D02*
D03*
X396500D02*
D03*
X386500D02*
D03*
D52*
X376500D02*
D03*
M02*
