M48
;Layer_Color=9474304
;FILE_FORMAT=2:5
INCH,TZ
;TYPE=PLATED
T1F00S00C0.02362
T2F00S00C0.03543
T3F00S00C0.03937
%
T01
X481500Y289500
X451000Y303500
Y309000
X404000Y303248
X386099Y301987
X357000Y306000
X346099Y285487
X338500Y292000
X339000Y278000
X376599Y246487
X386500Y246500
X416500
Y326000
X399000Y321500
X386500
X377000Y326000
X374000Y330500
X374500Y348000
X361695Y346305
X357602Y352500
X343000Y353000
X345000Y337500
X364000Y313500
X393500Y334500
X448000Y326500
X452500Y348500
X483500Y338500
T02
X376500Y238500
X386500
X396500
X406500
X416500
T03
X322972Y243000
X332815
X342657
X352500
X398815Y357000
X408658
X418500
X428342
X452658
X462500
X472342
X482185
M30
