G04*
G04 #@! TF.GenerationSoftware,Altium Limited,Altium Designer,20.2.3 (150)*
G04*
G04 Layer_Color=16711935*
%FSLAX25Y25*%
%MOIN*%
G70*
G04*
G04 #@! TF.SameCoordinates,5AD5DEB4-D25B-43D4-AA11-83956EA83F71*
G04*
G04*
G04 #@! TF.FilePolarity,Negative*
G04*
G01*
G75*
%ADD40O,0.07493X0.08674*%
G04:AMPARAMS|DCode=41|XSize=74.93mil|YSize=86.74mil|CornerRadius=20.73mil|HoleSize=0mil|Usage=FLASHONLY|Rotation=0.000|XOffset=0mil|YOffset=0mil|HoleType=Round|Shape=RoundedRectangle|*
%AMROUNDEDRECTD41*
21,1,0.07493,0.04528,0,0,0.0*
21,1,0.03347,0.08674,0,0,0.0*
1,1,0.04146,0.01673,-0.02264*
1,1,0.04146,-0.01673,-0.02264*
1,1,0.04146,-0.01673,0.02264*
1,1,0.04146,0.01673,0.02264*
%
%ADD41ROUNDEDRECTD41*%
%ADD42C,0.06706*%
%ADD43R,0.06706X0.06706*%
%ADD44C,0.04343*%
D40*
X482185Y357000D02*
D03*
X472342D02*
D03*
X462500D02*
D03*
X428342D02*
D03*
X418500D02*
D03*
X408658D02*
D03*
X342657Y243000D02*
D03*
X332815D02*
D03*
X322972D02*
D03*
D41*
X452658Y357000D02*
D03*
X398815D02*
D03*
X352500Y243000D02*
D03*
D42*
X416500Y238500D02*
D03*
X406500D02*
D03*
X396500D02*
D03*
X386500D02*
D03*
D43*
X376500D02*
D03*
D44*
X483500Y338500D02*
D03*
X386099Y301987D02*
D03*
X404000Y303248D02*
D03*
X377000Y326000D02*
D03*
X399000Y321500D02*
D03*
X393500Y334500D02*
D03*
X448000Y326500D02*
D03*
X416500Y326000D02*
D03*
X343000Y353000D02*
D03*
X481500Y289500D02*
D03*
X451000Y303500D02*
D03*
X386500Y321500D02*
D03*
X357000Y306000D02*
D03*
X364000Y313500D02*
D03*
X361695Y346305D02*
D03*
X374500Y348000D02*
D03*
X357602Y352500D02*
D03*
X339000Y278000D02*
D03*
X338500Y292000D02*
D03*
X374000Y330500D02*
D03*
X345000Y337500D02*
D03*
X451000Y309000D02*
D03*
X452500Y348500D02*
D03*
X416500Y246500D02*
D03*
X346099Y285487D02*
D03*
X376599Y246487D02*
D03*
X386500Y246500D02*
D03*
M02*
