%TF.GenerationSoftware,KiCad,Pcbnew,(5.1.10)-1*%
%TF.CreationDate,2021-12-28T15:59:08-05:00*%
%TF.ProjectId,CAN Transceiver Breakout,43414e20-5472-4616-9e73-636569766572,rev?*%
%TF.SameCoordinates,Original*%
%TF.FileFunction,Paste,Top*%
%TF.FilePolarity,Positive*%
%FSLAX46Y46*%
G04 Gerber Fmt 4.6, Leading zero omitted, Abs format (unit mm)*
G04 Created by KiCad (PCBNEW (5.1.10)-1) date 2021-12-28 15:59:08*
%MOMM*%
%LPD*%
G01*
G04 APERTURE LIST*
G04 APERTURE END LIST*
%TO.C,U1*%
G36*
G01*
X101670000Y-71825000D02*
X101670000Y-71525000D01*
G75*
G02*
X101820000Y-71375000I150000J0D01*
G01*
X103470000Y-71375000D01*
G75*
G02*
X103620000Y-71525000I0J-150000D01*
G01*
X103620000Y-71825000D01*
G75*
G02*
X103470000Y-71975000I-150000J0D01*
G01*
X101820000Y-71975000D01*
G75*
G02*
X101670000Y-71825000I0J150000D01*
G01*
G37*
G36*
G01*
X101670000Y-73095000D02*
X101670000Y-72795000D01*
G75*
G02*
X101820000Y-72645000I150000J0D01*
G01*
X103470000Y-72645000D01*
G75*
G02*
X103620000Y-72795000I0J-150000D01*
G01*
X103620000Y-73095000D01*
G75*
G02*
X103470000Y-73245000I-150000J0D01*
G01*
X101820000Y-73245000D01*
G75*
G02*
X101670000Y-73095000I0J150000D01*
G01*
G37*
G36*
G01*
X101670000Y-74365000D02*
X101670000Y-74065000D01*
G75*
G02*
X101820000Y-73915000I150000J0D01*
G01*
X103470000Y-73915000D01*
G75*
G02*
X103620000Y-74065000I0J-150000D01*
G01*
X103620000Y-74365000D01*
G75*
G02*
X103470000Y-74515000I-150000J0D01*
G01*
X101820000Y-74515000D01*
G75*
G02*
X101670000Y-74365000I0J150000D01*
G01*
G37*
G36*
G01*
X101670000Y-75635000D02*
X101670000Y-75335000D01*
G75*
G02*
X101820000Y-75185000I150000J0D01*
G01*
X103470000Y-75185000D01*
G75*
G02*
X103620000Y-75335000I0J-150000D01*
G01*
X103620000Y-75635000D01*
G75*
G02*
X103470000Y-75785000I-150000J0D01*
G01*
X101820000Y-75785000D01*
G75*
G02*
X101670000Y-75635000I0J150000D01*
G01*
G37*
G36*
G01*
X96720000Y-75635000D02*
X96720000Y-75335000D01*
G75*
G02*
X96870000Y-75185000I150000J0D01*
G01*
X98520000Y-75185000D01*
G75*
G02*
X98670000Y-75335000I0J-150000D01*
G01*
X98670000Y-75635000D01*
G75*
G02*
X98520000Y-75785000I-150000J0D01*
G01*
X96870000Y-75785000D01*
G75*
G02*
X96720000Y-75635000I0J150000D01*
G01*
G37*
G36*
G01*
X96720000Y-74365000D02*
X96720000Y-74065000D01*
G75*
G02*
X96870000Y-73915000I150000J0D01*
G01*
X98520000Y-73915000D01*
G75*
G02*
X98670000Y-74065000I0J-150000D01*
G01*
X98670000Y-74365000D01*
G75*
G02*
X98520000Y-74515000I-150000J0D01*
G01*
X96870000Y-74515000D01*
G75*
G02*
X96720000Y-74365000I0J150000D01*
G01*
G37*
G36*
G01*
X96720000Y-73095000D02*
X96720000Y-72795000D01*
G75*
G02*
X96870000Y-72645000I150000J0D01*
G01*
X98520000Y-72645000D01*
G75*
G02*
X98670000Y-72795000I0J-150000D01*
G01*
X98670000Y-73095000D01*
G75*
G02*
X98520000Y-73245000I-150000J0D01*
G01*
X96870000Y-73245000D01*
G75*
G02*
X96720000Y-73095000I0J150000D01*
G01*
G37*
G36*
G01*
X96720000Y-71825000D02*
X96720000Y-71525000D01*
G75*
G02*
X96870000Y-71375000I150000J0D01*
G01*
X98520000Y-71375000D01*
G75*
G02*
X98670000Y-71525000I0J-150000D01*
G01*
X98670000Y-71825000D01*
G75*
G02*
X98520000Y-71975000I-150000J0D01*
G01*
X96870000Y-71975000D01*
G75*
G02*
X96720000Y-71825000I0J150000D01*
G01*
G37*
%TD*%
%TO.C,R1*%
G36*
G01*
X107157500Y-70010000D02*
X107502500Y-70010000D01*
G75*
G02*
X107650000Y-70157500I0J-147500D01*
G01*
X107650000Y-70452500D01*
G75*
G02*
X107502500Y-70600000I-147500J0D01*
G01*
X107157500Y-70600000D01*
G75*
G02*
X107010000Y-70452500I0J147500D01*
G01*
X107010000Y-70157500D01*
G75*
G02*
X107157500Y-70010000I147500J0D01*
G01*
G37*
G36*
G01*
X107157500Y-69040000D02*
X107502500Y-69040000D01*
G75*
G02*
X107650000Y-69187500I0J-147500D01*
G01*
X107650000Y-69482500D01*
G75*
G02*
X107502500Y-69630000I-147500J0D01*
G01*
X107157500Y-69630000D01*
G75*
G02*
X107010000Y-69482500I0J147500D01*
G01*
X107010000Y-69187500D01*
G75*
G02*
X107157500Y-69040000I147500J0D01*
G01*
G37*
%TD*%
%TO.C,C1*%
G36*
G01*
X95772500Y-73410000D02*
X95427500Y-73410000D01*
G75*
G02*
X95280000Y-73262500I0J147500D01*
G01*
X95280000Y-72967500D01*
G75*
G02*
X95427500Y-72820000I147500J0D01*
G01*
X95772500Y-72820000D01*
G75*
G02*
X95920000Y-72967500I0J-147500D01*
G01*
X95920000Y-73262500D01*
G75*
G02*
X95772500Y-73410000I-147500J0D01*
G01*
G37*
G36*
G01*
X95772500Y-74380000D02*
X95427500Y-74380000D01*
G75*
G02*
X95280000Y-74232500I0J147500D01*
G01*
X95280000Y-73937500D01*
G75*
G02*
X95427500Y-73790000I147500J0D01*
G01*
X95772500Y-73790000D01*
G75*
G02*
X95920000Y-73937500I0J-147500D01*
G01*
X95920000Y-74232500D01*
G75*
G02*
X95772500Y-74380000I-147500J0D01*
G01*
G37*
%TD*%
M02*
