%TF.GenerationSoftware,KiCad,Pcbnew,(5.1.10)-1*%
%TF.CreationDate,2021-12-28T15:59:08-05:00*%
%TF.ProjectId,CAN Transceiver Breakout,43414e20-5472-4616-9e73-636569766572,rev?*%
%TF.SameCoordinates,Original*%
%TF.FileFunction,Soldermask,Top*%
%TF.FilePolarity,Negative*%
%FSLAX46Y46*%
G04 Gerber Fmt 4.6, Leading zero omitted, Abs format (unit mm)*
G04 Created by KiCad (PCBNEW (5.1.10)-1) date 2021-12-28 15:59:08*
%MOMM*%
%LPD*%
G01*
G04 APERTURE LIST*
%ADD10O,2.100000X1.800000*%
%ADD11C,2.200000*%
%ADD12O,2.050000X1.800000*%
G04 APERTURE END LIST*
D10*
%TO.C,J3*%
X107420000Y-74220000D03*
G36*
G01*
X108205295Y-77620000D02*
X106634705Y-77620000D01*
G75*
G02*
X106370000Y-77355295I0J264705D01*
G01*
X106370000Y-76084705D01*
G75*
G02*
X106634705Y-75820000I264705J0D01*
G01*
X108205295Y-75820000D01*
G75*
G02*
X108470000Y-76084705I0J-264705D01*
G01*
X108470000Y-77355295D01*
G75*
G02*
X108205295Y-77620000I-264705J0D01*
G01*
G37*
%TD*%
D11*
%TO.C,H4*%
X113260000Y-83070000D03*
%TD*%
%TO.C,H3*%
X92200000Y-83600000D03*
%TD*%
%TO.C,H2*%
X113440000Y-64680000D03*
%TD*%
%TO.C,H1*%
X92200000Y-64400000D03*
%TD*%
%TO.C,U1*%
G36*
G01*
X101620000Y-71850000D02*
X101620000Y-71500000D01*
G75*
G02*
X101795000Y-71325000I175000J0D01*
G01*
X103495000Y-71325000D01*
G75*
G02*
X103670000Y-71500000I0J-175000D01*
G01*
X103670000Y-71850000D01*
G75*
G02*
X103495000Y-72025000I-175000J0D01*
G01*
X101795000Y-72025000D01*
G75*
G02*
X101620000Y-71850000I0J175000D01*
G01*
G37*
G36*
G01*
X101620000Y-73120000D02*
X101620000Y-72770000D01*
G75*
G02*
X101795000Y-72595000I175000J0D01*
G01*
X103495000Y-72595000D01*
G75*
G02*
X103670000Y-72770000I0J-175000D01*
G01*
X103670000Y-73120000D01*
G75*
G02*
X103495000Y-73295000I-175000J0D01*
G01*
X101795000Y-73295000D01*
G75*
G02*
X101620000Y-73120000I0J175000D01*
G01*
G37*
G36*
G01*
X101620000Y-74390000D02*
X101620000Y-74040000D01*
G75*
G02*
X101795000Y-73865000I175000J0D01*
G01*
X103495000Y-73865000D01*
G75*
G02*
X103670000Y-74040000I0J-175000D01*
G01*
X103670000Y-74390000D01*
G75*
G02*
X103495000Y-74565000I-175000J0D01*
G01*
X101795000Y-74565000D01*
G75*
G02*
X101620000Y-74390000I0J175000D01*
G01*
G37*
G36*
G01*
X101620000Y-75660000D02*
X101620000Y-75310000D01*
G75*
G02*
X101795000Y-75135000I175000J0D01*
G01*
X103495000Y-75135000D01*
G75*
G02*
X103670000Y-75310000I0J-175000D01*
G01*
X103670000Y-75660000D01*
G75*
G02*
X103495000Y-75835000I-175000J0D01*
G01*
X101795000Y-75835000D01*
G75*
G02*
X101620000Y-75660000I0J175000D01*
G01*
G37*
G36*
G01*
X96670000Y-75660000D02*
X96670000Y-75310000D01*
G75*
G02*
X96845000Y-75135000I175000J0D01*
G01*
X98545000Y-75135000D01*
G75*
G02*
X98720000Y-75310000I0J-175000D01*
G01*
X98720000Y-75660000D01*
G75*
G02*
X98545000Y-75835000I-175000J0D01*
G01*
X96845000Y-75835000D01*
G75*
G02*
X96670000Y-75660000I0J175000D01*
G01*
G37*
G36*
G01*
X96670000Y-74390000D02*
X96670000Y-74040000D01*
G75*
G02*
X96845000Y-73865000I175000J0D01*
G01*
X98545000Y-73865000D01*
G75*
G02*
X98720000Y-74040000I0J-175000D01*
G01*
X98720000Y-74390000D01*
G75*
G02*
X98545000Y-74565000I-175000J0D01*
G01*
X96845000Y-74565000D01*
G75*
G02*
X96670000Y-74390000I0J175000D01*
G01*
G37*
G36*
G01*
X96670000Y-73120000D02*
X96670000Y-72770000D01*
G75*
G02*
X96845000Y-72595000I175000J0D01*
G01*
X98545000Y-72595000D01*
G75*
G02*
X98720000Y-72770000I0J-175000D01*
G01*
X98720000Y-73120000D01*
G75*
G02*
X98545000Y-73295000I-175000J0D01*
G01*
X96845000Y-73295000D01*
G75*
G02*
X96670000Y-73120000I0J175000D01*
G01*
G37*
G36*
G01*
X96670000Y-71850000D02*
X96670000Y-71500000D01*
G75*
G02*
X96845000Y-71325000I175000J0D01*
G01*
X98545000Y-71325000D01*
G75*
G02*
X98720000Y-71500000I0J-175000D01*
G01*
X98720000Y-71850000D01*
G75*
G02*
X98545000Y-72025000I-175000J0D01*
G01*
X96845000Y-72025000D01*
G75*
G02*
X96670000Y-71850000I0J175000D01*
G01*
G37*
%TD*%
%TO.C,R1*%
G36*
G01*
X107132500Y-69960000D02*
X107527500Y-69960000D01*
G75*
G02*
X107700000Y-70132500I0J-172500D01*
G01*
X107700000Y-70477500D01*
G75*
G02*
X107527500Y-70650000I-172500J0D01*
G01*
X107132500Y-70650000D01*
G75*
G02*
X106960000Y-70477500I0J172500D01*
G01*
X106960000Y-70132500D01*
G75*
G02*
X107132500Y-69960000I172500J0D01*
G01*
G37*
G36*
G01*
X107132500Y-68990000D02*
X107527500Y-68990000D01*
G75*
G02*
X107700000Y-69162500I0J-172500D01*
G01*
X107700000Y-69507500D01*
G75*
G02*
X107527500Y-69680000I-172500J0D01*
G01*
X107132500Y-69680000D01*
G75*
G02*
X106960000Y-69507500I0J172500D01*
G01*
X106960000Y-69162500D01*
G75*
G02*
X107132500Y-68990000I172500J0D01*
G01*
G37*
%TD*%
D10*
%TO.C,J2*%
X113030000Y-71160000D03*
G36*
G01*
X113815295Y-74560000D02*
X112244705Y-74560000D01*
G75*
G02*
X111980000Y-74295295I0J264705D01*
G01*
X111980000Y-73024705D01*
G75*
G02*
X112244705Y-72760000I264705J0D01*
G01*
X113815295Y-72760000D01*
G75*
G02*
X114080000Y-73024705I0J-264705D01*
G01*
X114080000Y-74295295D01*
G75*
G02*
X113815295Y-74560000I-264705J0D01*
G01*
G37*
%TD*%
D12*
%TO.C,J1*%
X91800000Y-70300000D03*
X91800000Y-72800000D03*
X91800000Y-75300000D03*
G36*
G01*
X92560295Y-78700000D02*
X91039705Y-78700000D01*
G75*
G02*
X90775000Y-78435295I0J264705D01*
G01*
X90775000Y-77164705D01*
G75*
G02*
X91039705Y-76900000I264705J0D01*
G01*
X92560295Y-76900000D01*
G75*
G02*
X92825000Y-77164705I0J-264705D01*
G01*
X92825000Y-78435295D01*
G75*
G02*
X92560295Y-78700000I-264705J0D01*
G01*
G37*
%TD*%
%TO.C,C1*%
G36*
G01*
X95797500Y-73460000D02*
X95402500Y-73460000D01*
G75*
G02*
X95230000Y-73287500I0J172500D01*
G01*
X95230000Y-72942500D01*
G75*
G02*
X95402500Y-72770000I172500J0D01*
G01*
X95797500Y-72770000D01*
G75*
G02*
X95970000Y-72942500I0J-172500D01*
G01*
X95970000Y-73287500D01*
G75*
G02*
X95797500Y-73460000I-172500J0D01*
G01*
G37*
G36*
G01*
X95797500Y-74430000D02*
X95402500Y-74430000D01*
G75*
G02*
X95230000Y-74257500I0J172500D01*
G01*
X95230000Y-73912500D01*
G75*
G02*
X95402500Y-73740000I172500J0D01*
G01*
X95797500Y-73740000D01*
G75*
G02*
X95970000Y-73912500I0J-172500D01*
G01*
X95970000Y-74257500D01*
G75*
G02*
X95797500Y-74430000I-172500J0D01*
G01*
G37*
%TD*%
M02*
