%TF.GenerationSoftware,KiCad,Pcbnew,(5.1.10)-1*%
%TF.CreationDate,2021-12-28T15:59:08-05:00*%
%TF.ProjectId,CAN Transceiver Breakout,43414e20-5472-4616-9e73-636569766572,rev?*%
%TF.SameCoordinates,Original*%
%TF.FileFunction,Copper,L1,Top*%
%TF.FilePolarity,Positive*%
%FSLAX46Y46*%
G04 Gerber Fmt 4.6, Leading zero omitted, Abs format (unit mm)*
G04 Created by KiCad (PCBNEW (5.1.10)-1) date 2021-12-28 15:59:08*
%MOMM*%
%LPD*%
G01*
G04 APERTURE LIST*
%TA.AperFunction,ComponentPad*%
%ADD10O,2.000000X1.700000*%
%TD*%
%TA.AperFunction,ComponentPad*%
%ADD11O,1.950000X1.700000*%
%TD*%
%TA.AperFunction,ViaPad*%
%ADD12C,0.800000*%
%TD*%
%TA.AperFunction,Conductor*%
%ADD13C,0.250000*%
%TD*%
G04 APERTURE END LIST*
D10*
%TO.P,J3,2*%
%TO.N,Res*%
X107420000Y-74220000D03*
%TO.P,J3,1*%
%TO.N,CANL*%
%TA.AperFunction,ComponentPad*%
G36*
G01*
X108170000Y-77570000D02*
X106670000Y-77570000D01*
G75*
G02*
X106420000Y-77320000I0J250000D01*
G01*
X106420000Y-76120000D01*
G75*
G02*
X106670000Y-75870000I250000J0D01*
G01*
X108170000Y-75870000D01*
G75*
G02*
X108420000Y-76120000I0J-250000D01*
G01*
X108420000Y-77320000D01*
G75*
G02*
X108170000Y-77570000I-250000J0D01*
G01*
G37*
%TD.AperFunction*%
%TD*%
%TO.P,U1,8*%
%TO.N,Earth*%
%TA.AperFunction,SMDPad,CuDef*%
G36*
G01*
X101670000Y-71825000D02*
X101670000Y-71525000D01*
G75*
G02*
X101820000Y-71375000I150000J0D01*
G01*
X103470000Y-71375000D01*
G75*
G02*
X103620000Y-71525000I0J-150000D01*
G01*
X103620000Y-71825000D01*
G75*
G02*
X103470000Y-71975000I-150000J0D01*
G01*
X101820000Y-71975000D01*
G75*
G02*
X101670000Y-71825000I0J150000D01*
G01*
G37*
%TD.AperFunction*%
%TO.P,U1,7*%
%TO.N,CANH*%
%TA.AperFunction,SMDPad,CuDef*%
G36*
G01*
X101670000Y-73095000D02*
X101670000Y-72795000D01*
G75*
G02*
X101820000Y-72645000I150000J0D01*
G01*
X103470000Y-72645000D01*
G75*
G02*
X103620000Y-72795000I0J-150000D01*
G01*
X103620000Y-73095000D01*
G75*
G02*
X103470000Y-73245000I-150000J0D01*
G01*
X101820000Y-73245000D01*
G75*
G02*
X101670000Y-73095000I0J150000D01*
G01*
G37*
%TD.AperFunction*%
%TO.P,U1,6*%
%TO.N,CANL*%
%TA.AperFunction,SMDPad,CuDef*%
G36*
G01*
X101670000Y-74365000D02*
X101670000Y-74065000D01*
G75*
G02*
X101820000Y-73915000I150000J0D01*
G01*
X103470000Y-73915000D01*
G75*
G02*
X103620000Y-74065000I0J-150000D01*
G01*
X103620000Y-74365000D01*
G75*
G02*
X103470000Y-74515000I-150000J0D01*
G01*
X101820000Y-74515000D01*
G75*
G02*
X101670000Y-74365000I0J150000D01*
G01*
G37*
%TD.AperFunction*%
%TO.P,U1,5*%
%TO.N,Net-(U1-Pad5)*%
%TA.AperFunction,SMDPad,CuDef*%
G36*
G01*
X101670000Y-75635000D02*
X101670000Y-75335000D01*
G75*
G02*
X101820000Y-75185000I150000J0D01*
G01*
X103470000Y-75185000D01*
G75*
G02*
X103620000Y-75335000I0J-150000D01*
G01*
X103620000Y-75635000D01*
G75*
G02*
X103470000Y-75785000I-150000J0D01*
G01*
X101820000Y-75785000D01*
G75*
G02*
X101670000Y-75635000I0J150000D01*
G01*
G37*
%TD.AperFunction*%
%TO.P,U1,4*%
%TO.N,RX*%
%TA.AperFunction,SMDPad,CuDef*%
G36*
G01*
X96720000Y-75635000D02*
X96720000Y-75335000D01*
G75*
G02*
X96870000Y-75185000I150000J0D01*
G01*
X98520000Y-75185000D01*
G75*
G02*
X98670000Y-75335000I0J-150000D01*
G01*
X98670000Y-75635000D01*
G75*
G02*
X98520000Y-75785000I-150000J0D01*
G01*
X96870000Y-75785000D01*
G75*
G02*
X96720000Y-75635000I0J150000D01*
G01*
G37*
%TD.AperFunction*%
%TO.P,U1,3*%
%TO.N,+3V3*%
%TA.AperFunction,SMDPad,CuDef*%
G36*
G01*
X96720000Y-74365000D02*
X96720000Y-74065000D01*
G75*
G02*
X96870000Y-73915000I150000J0D01*
G01*
X98520000Y-73915000D01*
G75*
G02*
X98670000Y-74065000I0J-150000D01*
G01*
X98670000Y-74365000D01*
G75*
G02*
X98520000Y-74515000I-150000J0D01*
G01*
X96870000Y-74515000D01*
G75*
G02*
X96720000Y-74365000I0J150000D01*
G01*
G37*
%TD.AperFunction*%
%TO.P,U1,2*%
%TO.N,Earth*%
%TA.AperFunction,SMDPad,CuDef*%
G36*
G01*
X96720000Y-73095000D02*
X96720000Y-72795000D01*
G75*
G02*
X96870000Y-72645000I150000J0D01*
G01*
X98520000Y-72645000D01*
G75*
G02*
X98670000Y-72795000I0J-150000D01*
G01*
X98670000Y-73095000D01*
G75*
G02*
X98520000Y-73245000I-150000J0D01*
G01*
X96870000Y-73245000D01*
G75*
G02*
X96720000Y-73095000I0J150000D01*
G01*
G37*
%TD.AperFunction*%
%TO.P,U1,1*%
%TO.N,TX*%
%TA.AperFunction,SMDPad,CuDef*%
G36*
G01*
X96720000Y-71825000D02*
X96720000Y-71525000D01*
G75*
G02*
X96870000Y-71375000I150000J0D01*
G01*
X98520000Y-71375000D01*
G75*
G02*
X98670000Y-71525000I0J-150000D01*
G01*
X98670000Y-71825000D01*
G75*
G02*
X98520000Y-71975000I-150000J0D01*
G01*
X96870000Y-71975000D01*
G75*
G02*
X96720000Y-71825000I0J150000D01*
G01*
G37*
%TD.AperFunction*%
%TD*%
%TO.P,R1,2*%
%TO.N,Res*%
%TA.AperFunction,SMDPad,CuDef*%
G36*
G01*
X107157500Y-70010000D02*
X107502500Y-70010000D01*
G75*
G02*
X107650000Y-70157500I0J-147500D01*
G01*
X107650000Y-70452500D01*
G75*
G02*
X107502500Y-70600000I-147500J0D01*
G01*
X107157500Y-70600000D01*
G75*
G02*
X107010000Y-70452500I0J147500D01*
G01*
X107010000Y-70157500D01*
G75*
G02*
X107157500Y-70010000I147500J0D01*
G01*
G37*
%TD.AperFunction*%
%TO.P,R1,1*%
%TO.N,CANH*%
%TA.AperFunction,SMDPad,CuDef*%
G36*
G01*
X107157500Y-69040000D02*
X107502500Y-69040000D01*
G75*
G02*
X107650000Y-69187500I0J-147500D01*
G01*
X107650000Y-69482500D01*
G75*
G02*
X107502500Y-69630000I-147500J0D01*
G01*
X107157500Y-69630000D01*
G75*
G02*
X107010000Y-69482500I0J147500D01*
G01*
X107010000Y-69187500D01*
G75*
G02*
X107157500Y-69040000I147500J0D01*
G01*
G37*
%TD.AperFunction*%
%TD*%
%TO.P,J2,2*%
%TO.N,CANH*%
X113030000Y-71160000D03*
%TO.P,J2,1*%
%TO.N,CANL*%
%TA.AperFunction,ComponentPad*%
G36*
G01*
X113780000Y-74510000D02*
X112280000Y-74510000D01*
G75*
G02*
X112030000Y-74260000I0J250000D01*
G01*
X112030000Y-73060000D01*
G75*
G02*
X112280000Y-72810000I250000J0D01*
G01*
X113780000Y-72810000D01*
G75*
G02*
X114030000Y-73060000I0J-250000D01*
G01*
X114030000Y-74260000D01*
G75*
G02*
X113780000Y-74510000I-250000J0D01*
G01*
G37*
%TD.AperFunction*%
%TD*%
D11*
%TO.P,J1,4*%
%TO.N,Earth*%
X91800000Y-70300000D03*
%TO.P,J1,3*%
%TO.N,TX*%
X91800000Y-72800000D03*
%TO.P,J1,2*%
%TO.N,RX*%
X91800000Y-75300000D03*
%TO.P,J1,1*%
%TO.N,+3V3*%
%TA.AperFunction,ComponentPad*%
G36*
G01*
X92525000Y-78650000D02*
X91075000Y-78650000D01*
G75*
G02*
X90825000Y-78400000I0J250000D01*
G01*
X90825000Y-77200000D01*
G75*
G02*
X91075000Y-76950000I250000J0D01*
G01*
X92525000Y-76950000D01*
G75*
G02*
X92775000Y-77200000I0J-250000D01*
G01*
X92775000Y-78400000D01*
G75*
G02*
X92525000Y-78650000I-250000J0D01*
G01*
G37*
%TD.AperFunction*%
%TD*%
%TO.P,C1,2*%
%TO.N,Earth*%
%TA.AperFunction,SMDPad,CuDef*%
G36*
G01*
X95772500Y-73410000D02*
X95427500Y-73410000D01*
G75*
G02*
X95280000Y-73262500I0J147500D01*
G01*
X95280000Y-72967500D01*
G75*
G02*
X95427500Y-72820000I147500J0D01*
G01*
X95772500Y-72820000D01*
G75*
G02*
X95920000Y-72967500I0J-147500D01*
G01*
X95920000Y-73262500D01*
G75*
G02*
X95772500Y-73410000I-147500J0D01*
G01*
G37*
%TD.AperFunction*%
%TO.P,C1,1*%
%TO.N,+3V3*%
%TA.AperFunction,SMDPad,CuDef*%
G36*
G01*
X95772500Y-74380000D02*
X95427500Y-74380000D01*
G75*
G02*
X95280000Y-74232500I0J147500D01*
G01*
X95280000Y-73937500D01*
G75*
G02*
X95427500Y-73790000I147500J0D01*
G01*
X95772500Y-73790000D01*
G75*
G02*
X95920000Y-73937500I0J-147500D01*
G01*
X95920000Y-74232500D01*
G75*
G02*
X95772500Y-74380000I-147500J0D01*
G01*
G37*
%TD.AperFunction*%
%TD*%
D12*
%TO.N,+3V3*%
X95600000Y-75200000D03*
%TO.N,TX*%
X95250000Y-71620000D03*
%TD*%
D13*
%TO.N,Earth*%
X95770000Y-72945000D02*
X95600000Y-73115000D01*
X97695000Y-72945000D02*
X95770000Y-72945000D01*
X99940000Y-71675000D02*
X102645000Y-71675000D01*
X98670000Y-72945000D02*
X99940000Y-71675000D01*
X97695000Y-72945000D02*
X98670000Y-72945000D01*
X94615000Y-73115000D02*
X91800000Y-70300000D01*
X95600000Y-73115000D02*
X94615000Y-73115000D01*
%TO.N,+3V3*%
X97565000Y-74085000D02*
X97695000Y-74215000D01*
X95600000Y-74085000D02*
X97565000Y-74085000D01*
X95600000Y-75200000D02*
X95600000Y-74085000D01*
%TO.N,TX*%
X91800000Y-72800000D02*
X91800000Y-73200000D01*
X95305000Y-71675000D02*
X95250000Y-71620000D01*
X97695000Y-71675000D02*
X95305000Y-71675000D01*
%TO.N,RX*%
X92425001Y-75925001D02*
X91800000Y-75300000D01*
X97254999Y-75925001D02*
X92425001Y-75925001D01*
X97695000Y-75485000D02*
X97254999Y-75925001D01*
%TO.N,CANL*%
X104915000Y-74215000D02*
X107420000Y-76720000D01*
X102645000Y-74215000D02*
X104915000Y-74215000D01*
X109970000Y-76720000D02*
X113030000Y-73660000D01*
X107420000Y-76720000D02*
X109970000Y-76720000D01*
%TO.N,CANH*%
X113030000Y-71160000D02*
X111235000Y-69365000D01*
X104320000Y-71646768D02*
X104320000Y-72460000D01*
X103835000Y-72945000D02*
X102645000Y-72945000D01*
X104320000Y-72460000D02*
X103835000Y-72945000D01*
X104320000Y-71646768D02*
X106601768Y-69365000D01*
X107300000Y-69365000D02*
X107330000Y-69335000D01*
X106601768Y-69365000D02*
X107300000Y-69365000D01*
X111205000Y-69335000D02*
X111235000Y-69365000D01*
X107330000Y-69335000D02*
X111205000Y-69335000D01*
%TO.N,Res*%
X107330000Y-74130000D02*
X107420000Y-74220000D01*
X107330000Y-70305000D02*
X107330000Y-74130000D01*
%TD*%
M02*
