%TF.GenerationSoftware,KiCad,Pcbnew,(5.1.10)-1*%
%TF.CreationDate,2021-12-28T15:59:08-05:00*%
%TF.ProjectId,CAN Transceiver Breakout,43414e20-5472-4616-9e73-636569766572,rev?*%
%TF.SameCoordinates,Original*%
%TF.FileFunction,Legend,Top*%
%TF.FilePolarity,Positive*%
%FSLAX46Y46*%
G04 Gerber Fmt 4.6, Leading zero omitted, Abs format (unit mm)*
G04 Created by KiCad (PCBNEW (5.1.10)-1) date 2021-12-28 15:59:08*
%MOMM*%
%LPD*%
G01*
G04 APERTURE LIST*
%ADD10C,0.120000*%
%ADD11C,0.150000*%
G04 APERTURE END LIST*
D10*
%TO.C,J3*%
X105710000Y-79330000D02*
X109730000Y-79330000D01*
X109730000Y-79330000D02*
X109730000Y-71610000D01*
X109730000Y-71610000D02*
X105710000Y-71610000D01*
X105710000Y-71610000D02*
X105710000Y-79330000D01*
X107420000Y-79330000D02*
X107420000Y-78830000D01*
X107420000Y-78830000D02*
X106210000Y-78830000D01*
X106210000Y-78830000D02*
X106210000Y-72110000D01*
X106210000Y-72110000D02*
X107420000Y-72110000D01*
X107420000Y-72110000D02*
X107420000Y-71610000D01*
X108230000Y-79330000D02*
X108230000Y-78330000D01*
X108230000Y-78330000D02*
X109730000Y-78330000D01*
X108230000Y-71610000D02*
X108230000Y-72610000D01*
X108230000Y-72610000D02*
X109730000Y-72610000D01*
X107530000Y-79630000D02*
X110030000Y-79630000D01*
X110030000Y-79630000D02*
X110030000Y-77130000D01*
%TO.C,U1*%
X100170000Y-71020000D02*
X96720000Y-71020000D01*
X100170000Y-71020000D02*
X102120000Y-71020000D01*
X100170000Y-76140000D02*
X98220000Y-76140000D01*
X100170000Y-76140000D02*
X102120000Y-76140000D01*
%TO.C,J2*%
X115640000Y-76570000D02*
X115640000Y-74070000D01*
X113140000Y-76570000D02*
X115640000Y-76570000D01*
X113840000Y-69550000D02*
X115340000Y-69550000D01*
X113840000Y-68550000D02*
X113840000Y-69550000D01*
X113840000Y-75270000D02*
X115340000Y-75270000D01*
X113840000Y-76270000D02*
X113840000Y-75270000D01*
X113030000Y-69050000D02*
X113030000Y-68550000D01*
X111820000Y-69050000D02*
X113030000Y-69050000D01*
X111820000Y-75770000D02*
X111820000Y-69050000D01*
X113030000Y-75770000D02*
X111820000Y-75770000D01*
X113030000Y-76270000D02*
X113030000Y-75770000D01*
X111320000Y-68550000D02*
X111320000Y-76270000D01*
X115340000Y-68550000D02*
X111320000Y-68550000D01*
X115340000Y-76270000D02*
X115340000Y-68550000D01*
X111320000Y-76270000D02*
X115340000Y-76270000D01*
%TO.C,J1*%
X94410000Y-80710000D02*
X94410000Y-78210000D01*
X91910000Y-80710000D02*
X94410000Y-80710000D01*
X92610000Y-68690000D02*
X94110000Y-68690000D01*
X92610000Y-67690000D02*
X92610000Y-68690000D01*
X92610000Y-79410000D02*
X94110000Y-79410000D01*
X92610000Y-80410000D02*
X92610000Y-79410000D01*
X91800000Y-68190000D02*
X91800000Y-67690000D01*
X90590000Y-68190000D02*
X91800000Y-68190000D01*
X90590000Y-79910000D02*
X90590000Y-68190000D01*
X91800000Y-79910000D02*
X90590000Y-79910000D01*
X91800000Y-80410000D02*
X91800000Y-79910000D01*
X90090000Y-67690000D02*
X90090000Y-80410000D01*
X94110000Y-67690000D02*
X90090000Y-67690000D01*
X94110000Y-80410000D02*
X94110000Y-67690000D01*
X90090000Y-80410000D02*
X94110000Y-80410000D01*
%TO.C,J3*%
D11*
X105816666Y-79982380D02*
X105816666Y-80696666D01*
X105769047Y-80839523D01*
X105673809Y-80934761D01*
X105530952Y-80982380D01*
X105435714Y-80982380D01*
X106197619Y-79982380D02*
X106816666Y-79982380D01*
X106483333Y-80363333D01*
X106626190Y-80363333D01*
X106721428Y-80410952D01*
X106769047Y-80458571D01*
X106816666Y-80553809D01*
X106816666Y-80791904D01*
X106769047Y-80887142D01*
X106721428Y-80934761D01*
X106626190Y-80982380D01*
X106340476Y-80982380D01*
X106245238Y-80934761D01*
X106197619Y-80887142D01*
%TO.C,H4*%
X108898095Y-83522380D02*
X108898095Y-82522380D01*
X108898095Y-82998571D02*
X109469523Y-82998571D01*
X109469523Y-83522380D02*
X109469523Y-82522380D01*
X110374285Y-82855714D02*
X110374285Y-83522380D01*
X110136190Y-82474761D02*
X109898095Y-83189047D01*
X110517142Y-83189047D01*
%TO.C,H3*%
X95238095Y-84052380D02*
X95238095Y-83052380D01*
X95238095Y-83528571D02*
X95809523Y-83528571D01*
X95809523Y-84052380D02*
X95809523Y-83052380D01*
X96190476Y-83052380D02*
X96809523Y-83052380D01*
X96476190Y-83433333D01*
X96619047Y-83433333D01*
X96714285Y-83480952D01*
X96761904Y-83528571D01*
X96809523Y-83623809D01*
X96809523Y-83861904D01*
X96761904Y-83957142D01*
X96714285Y-84004761D01*
X96619047Y-84052380D01*
X96333333Y-84052380D01*
X96238095Y-84004761D01*
X96190476Y-83957142D01*
%TO.C,H2*%
X109078095Y-65132380D02*
X109078095Y-64132380D01*
X109078095Y-64608571D02*
X109649523Y-64608571D01*
X109649523Y-65132380D02*
X109649523Y-64132380D01*
X110078095Y-64227619D02*
X110125714Y-64180000D01*
X110220952Y-64132380D01*
X110459047Y-64132380D01*
X110554285Y-64180000D01*
X110601904Y-64227619D01*
X110649523Y-64322857D01*
X110649523Y-64418095D01*
X110601904Y-64560952D01*
X110030476Y-65132380D01*
X110649523Y-65132380D01*
%TO.C,H1*%
X95238095Y-64852380D02*
X95238095Y-63852380D01*
X95238095Y-64328571D02*
X95809523Y-64328571D01*
X95809523Y-64852380D02*
X95809523Y-63852380D01*
X96809523Y-64852380D02*
X96238095Y-64852380D01*
X96523809Y-64852380D02*
X96523809Y-63852380D01*
X96428571Y-63995238D01*
X96333333Y-64090476D01*
X96238095Y-64138095D01*
%TO.C,U1*%
X99408095Y-69632380D02*
X99408095Y-70441904D01*
X99455714Y-70537142D01*
X99503333Y-70584761D01*
X99598571Y-70632380D01*
X99789047Y-70632380D01*
X99884285Y-70584761D01*
X99931904Y-70537142D01*
X99979523Y-70441904D01*
X99979523Y-69632380D01*
X100979523Y-70632380D02*
X100408095Y-70632380D01*
X100693809Y-70632380D02*
X100693809Y-69632380D01*
X100598571Y-69775238D01*
X100503333Y-69870476D01*
X100408095Y-69918095D01*
%TO.C,R1*%
X107363333Y-68472380D02*
X107030000Y-67996190D01*
X106791904Y-68472380D02*
X106791904Y-67472380D01*
X107172857Y-67472380D01*
X107268095Y-67520000D01*
X107315714Y-67567619D01*
X107363333Y-67662857D01*
X107363333Y-67805714D01*
X107315714Y-67900952D01*
X107268095Y-67948571D01*
X107172857Y-67996190D01*
X106791904Y-67996190D01*
X108315714Y-68472380D02*
X107744285Y-68472380D01*
X108030000Y-68472380D02*
X108030000Y-67472380D01*
X107934761Y-67615238D01*
X107839523Y-67710476D01*
X107744285Y-67758095D01*
%TO.C,J2*%
X111426666Y-76922380D02*
X111426666Y-77636666D01*
X111379047Y-77779523D01*
X111283809Y-77874761D01*
X111140952Y-77922380D01*
X111045714Y-77922380D01*
X111855238Y-77017619D02*
X111902857Y-76970000D01*
X111998095Y-76922380D01*
X112236190Y-76922380D01*
X112331428Y-76970000D01*
X112379047Y-77017619D01*
X112426666Y-77112857D01*
X112426666Y-77208095D01*
X112379047Y-77350952D01*
X111807619Y-77922380D01*
X112426666Y-77922380D01*
%TO.C,J1*%
X95266666Y-78452380D02*
X95266666Y-79166666D01*
X95219047Y-79309523D01*
X95123809Y-79404761D01*
X94980952Y-79452380D01*
X94885714Y-79452380D01*
X96266666Y-79452380D02*
X95695238Y-79452380D01*
X95980952Y-79452380D02*
X95980952Y-78452380D01*
X95885714Y-78595238D01*
X95790476Y-78690476D01*
X95695238Y-78738095D01*
%TO.C,C1*%
X95333333Y-76757142D02*
X95285714Y-76804761D01*
X95142857Y-76852380D01*
X95047619Y-76852380D01*
X94904761Y-76804761D01*
X94809523Y-76709523D01*
X94761904Y-76614285D01*
X94714285Y-76423809D01*
X94714285Y-76280952D01*
X94761904Y-76090476D01*
X94809523Y-75995238D01*
X94904761Y-75900000D01*
X95047619Y-75852380D01*
X95142857Y-75852380D01*
X95285714Y-75900000D01*
X95333333Y-75947619D01*
X96285714Y-76852380D02*
X95714285Y-76852380D01*
X96000000Y-76852380D02*
X96000000Y-75852380D01*
X95904761Y-75995238D01*
X95809523Y-76090476D01*
X95714285Y-76138095D01*
%TD*%
M02*
