M48
;Layer_Color=9474304
;FILE_FORMAT=2:5
INCH,TZ
;TYPE=PLATED
T1F00S00C0.01968
T2F00S00C0.03543
T3F00S00C0.03937
T4F00S00C0.11811
%
T01
X82000Y31000
X97173Y32591
X116858
X136543
X160000Y30000
X107016Y52276
X83000Y59000
X77736Y45357
X45000Y54000
X38118Y32591
X24000Y46000
X28276Y12905
X33000Y84000
X97173Y71961
T02
X40000Y93000
X50000
X60000
X70000
X80000
T03
X46158Y12000
X56000
X79158
X89000
X98843
X122000
X131843
X141685
X36315
X102315Y89000
X112157
X122000
X131843
T04
X12000Y12500
X162000Y88000
M30
