G04*
G04 #@! TF.GenerationSoftware,Altium Limited,Altium Designer,21.2.2 (38)*
G04*
G04 Layer_Color=32768*
%FSLAX25Y25*%
%MOIN*%
G70*
G04*
G04 #@! TF.SameCoordinates,6DF736DA-586D-4ED0-A9E8-28D565D663F1*
G04*
G04*
G04 #@! TF.FilePolarity,Positive*
G04*
G01*
G75*
%ADD47C,0.00394*%
%ADD48C,0.00197*%
D47*
X54000Y81032D02*
Y84969D01*
X52031Y83000D02*
X55968D01*
X125000Y48031D02*
Y51968D01*
X123031Y50000D02*
X126969D01*
X13000Y55032D02*
Y58969D01*
X11032Y57000D02*
X14968D01*
X13000Y69032D02*
Y72969D01*
X11032Y71000D02*
X14968D01*
X28000Y34032D02*
Y37969D01*
X26032Y36000D02*
X29969D01*
X19000Y34032D02*
Y37969D01*
X17031Y36000D02*
X20968D01*
X9000Y34032D02*
Y37969D01*
X7032Y36000D02*
X10968D01*
X151000Y67425D02*
Y70575D01*
X149425Y69000D02*
X152575D01*
X147031Y31000D02*
X150969D01*
X149000Y29032D02*
Y32969D01*
X54000Y75425D02*
Y78575D01*
X52425Y77000D02*
X55575D01*
X125000Y60031D02*
Y63968D01*
X123031Y62000D02*
X126969D01*
X82000Y35032D02*
Y38969D01*
X80032Y37000D02*
X83969D01*
X37000Y74032D02*
Y77969D01*
X35032Y76000D02*
X38969D01*
D48*
X48094Y85953D02*
X59905D01*
X48094Y80047D02*
X59905D01*
X48094D02*
Y85953D01*
X59905Y80047D02*
Y85953D01*
X121850Y43898D02*
X128150D01*
X121850Y56102D02*
X128150D01*
X121850Y43898D02*
Y56102D01*
X128150Y43898D02*
Y56102D01*
X9850Y63102D02*
X16150D01*
X9850Y50898D02*
X16150D01*
Y63102D01*
X9850Y50898D02*
Y63102D01*
X16701Y50795D02*
X19457D01*
X16701D02*
Y75205D01*
X29299D01*
Y50795D02*
Y75205D01*
X19457Y50795D02*
X29299D01*
X21819Y63000D02*
X24181D01*
X23000Y61819D02*
Y64181D01*
X9850Y64898D02*
X16150D01*
X9850Y77102D02*
X16150D01*
X9850Y64898D02*
Y77102D01*
X16150Y64898D02*
Y77102D01*
X24850Y42102D02*
X31150D01*
X24850Y29898D02*
X31150D01*
Y42102D01*
X24850Y29898D02*
Y42102D01*
X15850D02*
X22150D01*
X15850Y29898D02*
X22150D01*
Y42102D01*
X15850Y29898D02*
Y42102D01*
X5850D02*
X12150D01*
X5850Y29898D02*
X12150D01*
Y42102D01*
X5850Y29898D02*
Y42102D01*
X145882Y71165D02*
X156118D01*
X145882Y66835D02*
X156118D01*
X145882D02*
Y71165D01*
X156118Y66835D02*
Y71165D01*
X142898Y27850D02*
Y34150D01*
X155102Y27850D02*
Y34150D01*
X142898D02*
X155102D01*
X142898Y27850D02*
X155102D01*
X140173Y35827D02*
Y64173D01*
X161000D01*
Y35827D02*
Y64500D01*
X140173Y35827D02*
X161000D01*
X48882Y74835D02*
X59118D01*
X48882Y79165D02*
X59118D01*
Y74835D02*
Y79165D01*
X48882Y74835D02*
Y79165D01*
X121850Y68102D02*
X128150D01*
X121850Y55898D02*
X128150D01*
Y68102D01*
X121850Y55898D02*
Y68102D01*
X75898Y33850D02*
X88102D01*
X75898Y40150D02*
X88102D01*
Y33850D02*
Y40150D01*
X75898Y33850D02*
Y40150D01*
X34000Y33000D02*
Y73000D01*
Y33000D02*
X74000D01*
Y73000D01*
X34000D02*
X74000D01*
X30898Y79150D02*
X43102D01*
X30898Y72850D02*
X43102D01*
X30898D02*
Y79150D01*
X43102Y72850D02*
Y79150D01*
X120339Y45000D02*
Y71000D01*
X87661D02*
X120339D01*
X87500Y45000D02*
X87661Y71000D01*
X87500Y45000D02*
X120339D01*
M02*
