G04*
G04 #@! TF.GenerationSoftware,Altium Limited,Altium Designer,21.2.2 (38)*
G04*
G04 Layer_Physical_Order=2*
G04 Layer_Color=16711680*
%FSLAX25Y25*%
%MOIN*%
G70*
G04*
G04 #@! TF.SameCoordinates,6DF736DA-586D-4ED0-A9E8-28D565D663F1*
G04*
G04*
G04 #@! TF.FilePolarity,Positive*
G04*
G01*
G75*
%ADD40C,0.01000*%
G04:AMPARAMS|DCode=41|XSize=66.93mil|YSize=78.74mil|CornerRadius=16.73mil|HoleSize=0mil|Usage=FLASHONLY|Rotation=180.000|XOffset=0mil|YOffset=0mil|HoleType=Round|Shape=RoundedRectangle|*
%AMROUNDEDRECTD41*
21,1,0.06693,0.04528,0,0,180.0*
21,1,0.03347,0.07874,0,0,180.0*
1,1,0.03346,-0.01673,0.02264*
1,1,0.03346,0.01673,0.02264*
1,1,0.03346,0.01673,-0.02264*
1,1,0.03346,-0.01673,-0.02264*
%
%ADD41ROUNDEDRECTD41*%
%ADD42O,0.06693X0.07874*%
%ADD43C,0.05906*%
%ADD44R,0.05906X0.05906*%
%ADD45C,0.23622*%
%ADD46C,0.02756*%
G36*
X178000Y-11347D02*
X177538Y-11538D01*
X172000Y-6000D01*
X-8638D01*
X-8984Y-5639D01*
X-4000Y105000D01*
X-3000Y106000D01*
X178000D01*
Y-11347D01*
D02*
G37*
%LPC*%
G36*
X163906Y101421D02*
Y101413D01*
X10110D01*
Y101421D01*
X8322Y101280D01*
X6578Y100862D01*
X4922Y100175D01*
X3393Y99238D01*
X2029Y98074D01*
X864Y96710D01*
X-73Y95181D01*
X-759Y93524D01*
X-1178Y91780D01*
X-1319Y89992D01*
X-1311D01*
Y9913D01*
X-1319D01*
X-1178Y8125D01*
X-759Y6382D01*
X-73Y4725D01*
X864Y3196D01*
X2029Y1832D01*
X3393Y667D01*
X4922Y-270D01*
X6578Y-956D01*
X8322Y-1375D01*
X10110Y-1515D01*
Y-1508D01*
X163906D01*
Y-1515D01*
X165693Y-1375D01*
X167437Y-956D01*
X169094Y-270D01*
X170623Y667D01*
X171987Y1832D01*
X173152Y3196D01*
X174089Y4725D01*
X174775Y6382D01*
X175194Y8125D01*
X175334Y9913D01*
X175327D01*
Y89992D01*
X175334D01*
X175194Y91780D01*
X174775Y93524D01*
X174089Y95181D01*
X173152Y96710D01*
X171987Y98074D01*
X170623Y99238D01*
X169094Y100175D01*
X167437Y100862D01*
X165693Y101280D01*
X163906Y101421D01*
D02*
G37*
%LPD*%
G36*
X10110Y98571D02*
X153946D01*
X154100Y98096D01*
X153654Y97772D01*
X152228Y96346D01*
X151043Y94714D01*
X150128Y92918D01*
X149504Y91000D01*
X149189Y89008D01*
Y86992D01*
X149504Y85000D01*
X150128Y83082D01*
X151043Y81286D01*
X152228Y79654D01*
X153654Y78228D01*
X155286Y77043D01*
X157082Y76128D01*
X159000Y75504D01*
X160992Y75189D01*
X163008D01*
X165000Y75504D01*
X166918Y76128D01*
X168714Y77043D01*
X170346Y78228D01*
X171772Y79654D01*
X172009Y79981D01*
X172485Y79826D01*
Y9913D01*
X172497Y9850D01*
X172338Y8236D01*
X171849Y6623D01*
X171054Y5137D01*
X169985Y3834D01*
X168682Y2765D01*
X167196Y1970D01*
X165583Y1481D01*
X163968Y1322D01*
X163906Y1334D01*
X19278D01*
X19116Y1834D01*
X20346Y2728D01*
X21772Y4154D01*
X22957Y5786D01*
X23872Y7582D01*
X24496Y9500D01*
X24811Y11492D01*
Y13508D01*
X24496Y15500D01*
X23872Y17418D01*
X22957Y19214D01*
X21772Y20846D01*
X20346Y22272D01*
X18714Y23457D01*
X16918Y24372D01*
X15000Y24996D01*
X13008Y25311D01*
X10992D01*
X9000Y24996D01*
X7082Y24372D01*
X5286Y23457D01*
X3654Y22272D01*
X2228Y20846D01*
X2007Y20541D01*
X1531Y20695D01*
Y89992D01*
X1519Y90055D01*
X1678Y91669D01*
X2167Y93282D01*
X2961Y94769D01*
X4031Y96072D01*
X5334Y97141D01*
X6820Y97935D01*
X8433Y98425D01*
X10047Y98584D01*
X10110Y98571D01*
D02*
G37*
%LPC*%
G36*
X60520Y96953D02*
X60500D01*
Y93500D01*
X63953D01*
Y93520D01*
X63683Y94526D01*
X63163Y95427D01*
X62427Y96163D01*
X61526Y96683D01*
X60520Y96953D01*
D02*
G37*
G36*
X59500D02*
X59480D01*
X58474Y96683D01*
X57573Y96163D01*
X56837Y95427D01*
X56317Y94526D01*
X56047Y93520D01*
Y93500D01*
X59500D01*
Y96953D01*
D02*
G37*
G36*
X112657Y93909D02*
Y89500D01*
X116541D01*
Y89591D01*
X116392Y90725D01*
X115954Y91782D01*
X115257Y92690D01*
X114349Y93387D01*
X113292Y93825D01*
X112657Y93909D01*
D02*
G37*
G36*
X111658D02*
X111023Y93825D01*
X109966Y93387D01*
X109057Y92690D01*
X108361Y91782D01*
X107923Y90725D01*
X107773Y89591D01*
Y89500D01*
X111658D01*
Y93909D01*
D02*
G37*
G36*
X83953Y96953D02*
X76047D01*
Y89047D01*
X83953D01*
Y96953D01*
D02*
G37*
G36*
X70520D02*
X69480D01*
X68474Y96683D01*
X67573Y96163D01*
X66837Y95427D01*
X66317Y94526D01*
X66047Y93520D01*
Y92480D01*
X66317Y91474D01*
X66837Y90573D01*
X67573Y89837D01*
X68474Y89317D01*
X69480Y89047D01*
X70520D01*
X71526Y89317D01*
X72427Y89837D01*
X73163Y90573D01*
X73683Y91474D01*
X73953Y92480D01*
Y93520D01*
X73683Y94526D01*
X73163Y95427D01*
X72427Y96163D01*
X71526Y96683D01*
X70520Y96953D01*
D02*
G37*
G36*
X63953Y92500D02*
X60500D01*
Y89047D01*
X60520D01*
X61526Y89317D01*
X62427Y89837D01*
X63163Y90573D01*
X63683Y91474D01*
X63953Y92480D01*
Y92500D01*
D02*
G37*
G36*
X59500D02*
X56047D01*
Y92480D01*
X56317Y91474D01*
X56837Y90573D01*
X57573Y89837D01*
X58474Y89317D01*
X59480Y89047D01*
X59500D01*
Y92500D01*
D02*
G37*
G36*
X50520Y96953D02*
X49480D01*
X48474Y96683D01*
X47573Y96163D01*
X46837Y95427D01*
X46317Y94526D01*
X46047Y93520D01*
Y92480D01*
X46317Y91474D01*
X46837Y90573D01*
X47573Y89837D01*
X48474Y89317D01*
X49480Y89047D01*
X50520D01*
X51526Y89317D01*
X52427Y89837D01*
X53163Y90573D01*
X53683Y91474D01*
X53953Y92480D01*
Y93520D01*
X53683Y94526D01*
X53163Y95427D01*
X52427Y96163D01*
X51526Y96683D01*
X50520Y96953D01*
D02*
G37*
G36*
X116541Y88500D02*
X112657D01*
Y84091D01*
X113292Y84175D01*
X114349Y84613D01*
X115257Y85309D01*
X115954Y86217D01*
X116392Y87275D01*
X116541Y88409D01*
Y88500D01*
D02*
G37*
G36*
X111658D02*
X107773D01*
Y88409D01*
X107923Y87275D01*
X108361Y86217D01*
X109057Y85309D01*
X109966Y84613D01*
X111023Y84175D01*
X111658Y84091D01*
Y88500D01*
D02*
G37*
G36*
X131843Y93975D02*
X130708Y93825D01*
X129650Y93387D01*
X128743Y92690D01*
X128046Y91782D01*
X127608Y90725D01*
X127459Y89591D01*
Y88409D01*
X127608Y87275D01*
X128046Y86217D01*
X128743Y85309D01*
X129650Y84613D01*
X130708Y84175D01*
X131843Y84026D01*
X132977Y84175D01*
X134035Y84613D01*
X134942Y85309D01*
X135639Y86217D01*
X136077Y87275D01*
X136226Y88409D01*
Y89591D01*
X136077Y90725D01*
X135639Y91782D01*
X134942Y92690D01*
X134035Y93387D01*
X132977Y93825D01*
X131843Y93975D01*
D02*
G37*
G36*
X122000D02*
X120865Y93825D01*
X119808Y93387D01*
X118900Y92690D01*
X118203Y91782D01*
X117765Y90725D01*
X117616Y89591D01*
Y88409D01*
X117765Y87275D01*
X118203Y86217D01*
X118900Y85309D01*
X119808Y84613D01*
X120865Y84175D01*
X122000Y84026D01*
X123135Y84175D01*
X124192Y84613D01*
X125100Y85309D01*
X125797Y86217D01*
X126235Y87275D01*
X126384Y88409D01*
Y89591D01*
X126235Y90725D01*
X125797Y91782D01*
X125100Y92690D01*
X124192Y93387D01*
X123135Y93825D01*
X122000Y93975D01*
D02*
G37*
G36*
X97673Y74327D02*
Y72461D01*
X99540D01*
X99189Y73308D01*
X98520Y73977D01*
X97673Y74327D01*
D02*
G37*
G36*
X96673D02*
X95826Y73977D01*
X95157Y73308D01*
X94806Y72461D01*
X96673D01*
Y74327D01*
D02*
G37*
G36*
X99540Y71461D02*
X97673D01*
Y69594D01*
X98520Y69945D01*
X99189Y70614D01*
X99540Y71461D01*
D02*
G37*
G36*
X96673D02*
X94806D01*
X95157Y70614D01*
X95826Y69945D01*
X96673Y69594D01*
Y71461D01*
D02*
G37*
G36*
X107516Y54642D02*
Y52776D01*
X109382D01*
X109032Y53623D01*
X108363Y54291D01*
X107516Y54642D01*
D02*
G37*
G36*
X106516D02*
X105669Y54291D01*
X105000Y53623D01*
X104649Y52776D01*
X106516D01*
Y54642D01*
D02*
G37*
G36*
X40520Y96953D02*
X39480D01*
X38474Y96683D01*
X37573Y96163D01*
X36837Y95427D01*
X36317Y94526D01*
X36047Y93520D01*
Y92480D01*
X36317Y91474D01*
X36837Y90573D01*
X37573Y89837D01*
X38474Y89317D01*
X39480Y89047D01*
X40520D01*
X41522Y89315D01*
X43471Y87366D01*
Y55834D01*
X42984Y55347D01*
X42622Y54473D01*
Y53527D01*
X42984Y52653D01*
X43653Y51984D01*
X44527Y51622D01*
X45473D01*
X46347Y51984D01*
X47016Y52653D01*
X47378Y53527D01*
Y54473D01*
X47016Y55347D01*
X46529Y55834D01*
Y88000D01*
X46413Y88585D01*
X46081Y89081D01*
X43685Y91478D01*
X43953Y92480D01*
Y93520D01*
X43683Y94526D01*
X43163Y95427D01*
X42427Y96163D01*
X41526Y96683D01*
X40520Y96953D01*
D02*
G37*
G36*
X109382Y51776D02*
X107516D01*
Y49909D01*
X108363Y50260D01*
X109032Y50929D01*
X109382Y51776D01*
D02*
G37*
G36*
X106516D02*
X104649D01*
X105000Y50929D01*
X105669Y50260D01*
X106516Y49909D01*
Y51776D01*
D02*
G37*
G36*
X24500Y48367D02*
Y46500D01*
X26367D01*
X26016Y47347D01*
X25347Y48016D01*
X24500Y48367D01*
D02*
G37*
G36*
X23500D02*
X22653Y48016D01*
X21984Y47347D01*
X21633Y46500D01*
X23500D01*
Y48367D01*
D02*
G37*
G36*
X26367Y45500D02*
X24500D01*
Y43633D01*
X25347Y43984D01*
X26016Y44653D01*
X26367Y45500D01*
D02*
G37*
G36*
X23500D02*
X21633D01*
X21984Y44653D01*
X22653Y43984D01*
X23500Y43633D01*
Y45500D01*
D02*
G37*
G36*
X33473Y86378D02*
X32527D01*
X31653Y86016D01*
X30984Y85347D01*
X30622Y84473D01*
Y83527D01*
X30984Y82653D01*
X31653Y81984D01*
X32527Y81622D01*
X33215D01*
X36471Y78367D01*
Y44000D01*
X36587Y43415D01*
X36919Y42919D01*
X37504Y42333D01*
X38001Y42001D01*
X38586Y41885D01*
X52762D01*
X53348Y42001D01*
X53844Y42333D01*
X68982Y57471D01*
X78654D01*
X78846Y57009D01*
X75254Y53417D01*
X74923Y52921D01*
X74807Y52336D01*
Y48555D01*
X74801Y48548D01*
X74789Y48548D01*
X74981Y47584D01*
X75047Y47485D01*
X75048Y47481D01*
X75576Y46357D01*
X75358Y45830D01*
Y44884D01*
X75720Y44010D01*
X76389Y43341D01*
X77263Y42979D01*
X78209D01*
X79083Y43341D01*
X79752Y44010D01*
X80114Y44884D01*
Y45830D01*
X79752Y46704D01*
X79083Y47373D01*
X78332Y47684D01*
X78118Y48140D01*
X77930Y48562D01*
D01*
X77865Y49036D01*
Y51702D01*
X82785Y56622D01*
X83473D01*
X84347Y56984D01*
X85016Y57653D01*
X85378Y58527D01*
Y59473D01*
X85016Y60347D01*
X84347Y61016D01*
X83473Y61378D01*
X82527D01*
X81653Y61016D01*
X81166Y60529D01*
X68348D01*
X67763Y60413D01*
X67267Y60081D01*
X52129Y44944D01*
X39529D01*
Y79000D01*
X39413Y79585D01*
X39081Y80081D01*
X35378Y83785D01*
Y84473D01*
X35016Y85347D01*
X34347Y86016D01*
X33473Y86378D01*
D02*
G37*
G36*
X137043Y34957D02*
Y33091D01*
X138910D01*
X138559Y33938D01*
X137890Y34607D01*
X137043Y34957D01*
D02*
G37*
G36*
X136043D02*
X135196Y34607D01*
X134527Y33938D01*
X134177Y33091D01*
X136043D01*
Y34957D01*
D02*
G37*
G36*
X117358D02*
Y33091D01*
X119225D01*
X118874Y33938D01*
X118205Y34607D01*
X117358Y34957D01*
D02*
G37*
G36*
X116358D02*
X115511Y34607D01*
X114842Y33938D01*
X114491Y33091D01*
X116358D01*
Y34957D01*
D02*
G37*
G36*
X97673D02*
Y33091D01*
X99540D01*
X99189Y33938D01*
X98520Y34607D01*
X97673Y34957D01*
D02*
G37*
G36*
X96673D02*
X95826Y34607D01*
X95157Y33938D01*
X94806Y33091D01*
X96673D01*
Y34957D01*
D02*
G37*
G36*
X38618D02*
Y33091D01*
X40485D01*
X40134Y33938D01*
X39465Y34607D01*
X38618Y34957D01*
D02*
G37*
G36*
X37618D02*
X36771Y34607D01*
X36102Y33938D01*
X35751Y33091D01*
X37618D01*
Y34957D01*
D02*
G37*
G36*
X82500Y33367D02*
Y31500D01*
X84367D01*
X84016Y32347D01*
X83347Y33016D01*
X82500Y33367D01*
D02*
G37*
G36*
X81500D02*
X80653Y33016D01*
X79984Y32347D01*
X79633Y31500D01*
X81500D01*
Y33367D01*
D02*
G37*
G36*
X138910Y32091D02*
X137043D01*
Y30224D01*
X137890Y30575D01*
X138559Y31244D01*
X138910Y32091D01*
D02*
G37*
G36*
X136043D02*
X134177D01*
X134527Y31244D01*
X135196Y30575D01*
X136043Y30224D01*
Y32091D01*
D02*
G37*
G36*
X119225D02*
X117358D01*
Y30224D01*
X118205Y30575D01*
X118874Y31244D01*
X119225Y32091D01*
D02*
G37*
G36*
X116358D02*
X114491D01*
X114842Y31244D01*
X115511Y30575D01*
X116358Y30224D01*
Y32091D01*
D02*
G37*
G36*
X99540D02*
X97673D01*
Y30224D01*
X98520Y30575D01*
X99189Y31244D01*
X99540Y32091D01*
D02*
G37*
G36*
X96673D02*
X94806D01*
X95157Y31244D01*
X95826Y30575D01*
X96673Y30224D01*
Y32091D01*
D02*
G37*
G36*
X40485D02*
X38618D01*
Y30224D01*
X39465Y30575D01*
X40134Y31244D01*
X40485Y32091D01*
D02*
G37*
G36*
X37618D02*
X35751D01*
X36102Y31244D01*
X36771Y30575D01*
X37618Y30224D01*
Y32091D01*
D02*
G37*
G36*
X84367Y30500D02*
X82500D01*
Y28633D01*
X83347Y28984D01*
X84016Y29653D01*
X84367Y30500D01*
D02*
G37*
G36*
X81500D02*
X79633D01*
X79984Y29653D01*
X80653Y28984D01*
X81500Y28633D01*
Y30500D01*
D02*
G37*
G36*
X103988Y93960D02*
X100642D01*
X99944Y93868D01*
X99294Y93599D01*
X98735Y93170D01*
X98307Y92612D01*
X98037Y91962D01*
X97945Y91264D01*
Y86736D01*
X98037Y86038D01*
X98307Y85388D01*
X98735Y84830D01*
X99294Y84401D01*
X99944Y84132D01*
X100642Y84040D01*
X103988D01*
X104139Y84060D01*
X157653Y30547D01*
X157622Y30473D01*
Y29527D01*
X157984Y28653D01*
X158653Y27984D01*
X159527Y27622D01*
X160473D01*
X161347Y27984D01*
X162016Y28653D01*
X162378Y29527D01*
Y30473D01*
X162016Y31347D01*
X161347Y32016D01*
X160473Y32378D01*
X160147D01*
X106562Y85963D01*
X106593Y86038D01*
X106685Y86736D01*
Y91264D01*
X106593Y91962D01*
X106323Y92612D01*
X105895Y93170D01*
X105336Y93599D01*
X104686Y93868D01*
X103988Y93960D01*
D02*
G37*
G36*
X28776Y15272D02*
Y13406D01*
X30642D01*
X30292Y14253D01*
X29623Y14921D01*
X28776Y15272D01*
D02*
G37*
G36*
X27776D02*
X26929Y14921D01*
X26260Y14253D01*
X25909Y13406D01*
X27776D01*
Y15272D01*
D02*
G37*
G36*
X30642Y12405D02*
X28776D01*
Y10539D01*
X29623Y10890D01*
X30292Y11558D01*
X30642Y12405D01*
D02*
G37*
G36*
X27776D02*
X25909D01*
X26260Y11558D01*
X26929Y10890D01*
X27776Y10539D01*
Y12405D01*
D02*
G37*
G36*
X143358Y16960D02*
X140012D01*
X139314Y16868D01*
X138664Y16599D01*
X138105Y16170D01*
X137677Y15612D01*
X137407Y14962D01*
X137315Y14264D01*
Y9736D01*
X137407Y9038D01*
X137677Y8388D01*
X138105Y7830D01*
X138664Y7401D01*
X139314Y7132D01*
X140012Y7040D01*
X143358D01*
X144056Y7132D01*
X144706Y7401D01*
X145265Y7830D01*
X145693Y8388D01*
X145963Y9038D01*
X146055Y9736D01*
Y14264D01*
X145963Y14962D01*
X145693Y15612D01*
X145265Y16170D01*
X144706Y16599D01*
X144056Y16868D01*
X143358Y16960D01*
D02*
G37*
G36*
X100516D02*
X97169D01*
X96471Y16868D01*
X95821Y16599D01*
X95263Y16170D01*
X94834Y15612D01*
X94565Y14962D01*
X94473Y14264D01*
Y9736D01*
X94565Y9038D01*
X94834Y8388D01*
X95263Y7830D01*
X95821Y7401D01*
X96471Y7132D01*
X97169Y7040D01*
X100516D01*
X101214Y7132D01*
X101864Y7401D01*
X102422Y7830D01*
X102851Y8388D01*
X103120Y9038D01*
X103212Y9736D01*
Y14264D01*
X103120Y14962D01*
X102851Y15612D01*
X102422Y16170D01*
X101864Y16599D01*
X101214Y16868D01*
X100516Y16960D01*
D02*
G37*
G36*
X57673D02*
X54327D01*
X53629Y16868D01*
X52979Y16599D01*
X52420Y16170D01*
X51992Y15612D01*
X51722Y14962D01*
X51631Y14264D01*
Y9736D01*
X51722Y9038D01*
X51992Y8388D01*
X52420Y7830D01*
X52979Y7401D01*
X53629Y7132D01*
X54327Y7040D01*
X57673D01*
X58371Y7132D01*
X59021Y7401D01*
X59580Y7830D01*
X60008Y8388D01*
X60278Y9038D01*
X60369Y9736D01*
Y14264D01*
X60278Y14962D01*
X60008Y15612D01*
X59580Y16170D01*
X59021Y16599D01*
X58371Y16868D01*
X57673Y16960D01*
D02*
G37*
G36*
X131843Y16974D02*
X130708Y16825D01*
X129650Y16387D01*
X128743Y15690D01*
X128046Y14783D01*
X127608Y13725D01*
X127459Y12591D01*
Y11409D01*
X127608Y10275D01*
X128046Y9217D01*
X128743Y8309D01*
X129650Y7613D01*
X130708Y7175D01*
X131843Y7025D01*
X132977Y7175D01*
X134035Y7613D01*
X134942Y8309D01*
X135639Y9217D01*
X136077Y10275D01*
X136226Y11409D01*
Y12591D01*
X136077Y13725D01*
X135639Y14783D01*
X134942Y15690D01*
X134035Y16387D01*
X132977Y16825D01*
X131843Y16974D01*
D02*
G37*
G36*
X122000D02*
X120865Y16825D01*
X119808Y16387D01*
X118900Y15690D01*
X118203Y14783D01*
X117765Y13725D01*
X117616Y12591D01*
Y11409D01*
X117765Y10275D01*
X118203Y9217D01*
X118900Y8309D01*
X119808Y7613D01*
X120865Y7175D01*
X122000Y7025D01*
X123135Y7175D01*
X124192Y7613D01*
X125100Y8309D01*
X125797Y9217D01*
X126235Y10275D01*
X126384Y11409D01*
Y12591D01*
X126235Y13725D01*
X125797Y14783D01*
X125100Y15690D01*
X124192Y16387D01*
X123135Y16825D01*
X122000Y16974D01*
D02*
G37*
G36*
X89000D02*
X87865Y16825D01*
X86808Y16387D01*
X85900Y15690D01*
X85203Y14783D01*
X84765Y13725D01*
X84616Y12591D01*
Y11409D01*
X84765Y10275D01*
X85203Y9217D01*
X85900Y8309D01*
X86808Y7613D01*
X87865Y7175D01*
X89000Y7025D01*
X90135Y7175D01*
X91192Y7613D01*
X92100Y8309D01*
X92797Y9217D01*
X93235Y10275D01*
X93384Y11409D01*
Y12591D01*
X93235Y13725D01*
X92797Y14783D01*
X92100Y15690D01*
X91192Y16387D01*
X90135Y16825D01*
X89000Y16974D01*
D02*
G37*
G36*
X79158D02*
X78023Y16825D01*
X76965Y16387D01*
X76058Y15690D01*
X75361Y14783D01*
X74923Y13725D01*
X74774Y12591D01*
Y11409D01*
X74923Y10275D01*
X75361Y9217D01*
X76058Y8309D01*
X76965Y7613D01*
X78023Y7175D01*
X79158Y7025D01*
X80292Y7175D01*
X81349Y7613D01*
X82257Y8309D01*
X82954Y9217D01*
X83392Y10275D01*
X83541Y11409D01*
Y12591D01*
X83392Y13725D01*
X82954Y14783D01*
X82257Y15690D01*
X81349Y16387D01*
X80292Y16825D01*
X79158Y16974D01*
D02*
G37*
G36*
X46158D02*
X45023Y16825D01*
X43966Y16387D01*
X43058Y15690D01*
X42361Y14783D01*
X41923Y13725D01*
X41774Y12591D01*
Y11409D01*
X41923Y10275D01*
X42361Y9217D01*
X43058Y8309D01*
X43966Y7613D01*
X45023Y7175D01*
X46158Y7025D01*
X47292Y7175D01*
X48349Y7613D01*
X49257Y8309D01*
X49954Y9217D01*
X50392Y10275D01*
X50541Y11409D01*
Y12591D01*
X50392Y13725D01*
X49954Y14783D01*
X49257Y15690D01*
X48349Y16387D01*
X47292Y16825D01*
X46158Y16974D01*
D02*
G37*
G36*
X36315D02*
X35180Y16825D01*
X34123Y16387D01*
X33215Y15690D01*
X32518Y14783D01*
X32080Y13725D01*
X31931Y12591D01*
Y11409D01*
X32080Y10275D01*
X32518Y9217D01*
X33215Y8309D01*
X34123Y7613D01*
X35180Y7175D01*
X36315Y7025D01*
X37450Y7175D01*
X38507Y7613D01*
X39415Y8309D01*
X40112Y9217D01*
X40549Y10275D01*
X40699Y11409D01*
Y12591D01*
X40549Y13725D01*
X40112Y14783D01*
X39415Y15690D01*
X38507Y16387D01*
X37450Y16825D01*
X36315Y16974D01*
D02*
G37*
%LPD*%
D40*
X76336Y48555D02*
X76432Y48132D01*
X76336Y48555D02*
Y52336D01*
X76432Y48132D02*
X77736Y45357D01*
X68348Y59000D02*
X83000D01*
X52762Y43414D02*
X68348Y59000D01*
X38586Y43414D02*
X52762D01*
X38000Y44000D02*
Y79000D01*
Y44000D02*
X38586Y43414D01*
X33000Y84000D02*
X38000Y79000D01*
X45000Y54000D02*
Y88000D01*
X40000Y93000D02*
X45000Y88000D01*
X76336Y52336D02*
X83000Y59000D01*
X-267000Y-243000D02*
X80000D01*
X102315Y88047D02*
Y89000D01*
Y88047D02*
X160000Y30362D01*
Y30000D02*
Y30362D01*
D41*
X141685Y12000D02*
D03*
X56000D02*
D03*
X102315Y89000D02*
D03*
X98843Y12000D02*
D03*
D42*
X131843D02*
D03*
X122000D02*
D03*
X46158D02*
D03*
X36315D02*
D03*
X131843Y89000D02*
D03*
X122000D02*
D03*
X112157D02*
D03*
X79158Y12000D02*
D03*
X89000D02*
D03*
D43*
X40000Y93000D02*
D03*
X50000D02*
D03*
X60000D02*
D03*
X70000D02*
D03*
D44*
X80000D02*
D03*
D45*
X12000Y12500D02*
D03*
X162000Y88000D02*
D03*
D46*
X77736Y45357D02*
D03*
X33000Y84000D02*
D03*
X82000Y31000D02*
D03*
X24000Y46000D02*
D03*
X136543Y32591D02*
D03*
X107016Y52276D02*
D03*
X116858Y32591D02*
D03*
X97173Y71961D02*
D03*
Y32591D02*
D03*
X38118D02*
D03*
X28276Y12905D02*
D03*
X45000Y54000D02*
D03*
X83000Y59000D02*
D03*
X160000Y30000D02*
D03*
M02*
