G04*
G04 #@! TF.GenerationSoftware,Altium Limited,Altium Designer,21.2.2 (38)*
G04*
G04 Layer_Color=255*
%FSLAX25Y25*%
%MOIN*%
G70*
G04*
G04 #@! TF.SameCoordinates,6DF736DA-586D-4ED0-A9E8-28D565D663F1*
G04*
G04*
G04 #@! TF.FilePolarity,Positive*
G04*
G01*
G75*
%ADD14R,0.02953X0.04921*%
%ADD15R,0.05315X0.03937*%
%ADD16R,0.09449X0.07480*%
%ADD17R,0.02756X0.03347*%
%ADD18R,0.03937X0.05315*%
%ADD19R,0.02756X0.06102*%
%ADD20R,0.02362X0.05807*%
%ADD21R,0.05807X0.02362*%
%ADD22R,0.06890X0.12598*%
%ADD23R,0.06890X0.03740*%
G04:AMPARAMS|DCode=41|XSize=66.93mil|YSize=78.74mil|CornerRadius=16.73mil|HoleSize=0mil|Usage=FLASHONLY|Rotation=180.000|XOffset=0mil|YOffset=0mil|HoleType=Round|Shape=RoundedRectangle|*
%AMROUNDEDRECTD41*
21,1,0.06693,0.04528,0,0,180.0*
21,1,0.03347,0.07874,0,0,180.0*
1,1,0.03346,-0.01673,0.02264*
1,1,0.03346,0.01673,0.02264*
1,1,0.03346,0.01673,-0.02264*
1,1,0.03346,-0.01673,-0.02264*
%
%ADD41ROUNDEDRECTD41*%
%ADD42O,0.06693X0.07874*%
%ADD43C,0.05906*%
%ADD44R,0.05906X0.05906*%
%ADD45C,0.23622*%
D14*
X50063Y83000D02*
D03*
X57937D02*
D03*
D15*
X125000Y46358D02*
D03*
Y53642D02*
D03*
X13000Y60642D02*
D03*
Y53358D02*
D03*
Y67358D02*
D03*
Y74642D02*
D03*
X28000Y39642D02*
D03*
Y32358D02*
D03*
X19000Y39642D02*
D03*
Y32358D02*
D03*
X9000Y39642D02*
D03*
Y32358D02*
D03*
X125000Y65642D02*
D03*
Y58358D02*
D03*
D16*
X23000Y54929D02*
D03*
Y71071D02*
D03*
D17*
X147752Y69000D02*
D03*
X154248D02*
D03*
X57248Y77000D02*
D03*
X50752D02*
D03*
D18*
X145358Y31000D02*
D03*
X152642D02*
D03*
X85642Y37000D02*
D03*
X78358D02*
D03*
X33358Y76000D02*
D03*
X40642D02*
D03*
D19*
X143500Y39272D02*
D03*
X148500D02*
D03*
X153500D02*
D03*
X158500D02*
D03*
Y60728D02*
D03*
X153500D02*
D03*
X148500D02*
D03*
X143500D02*
D03*
D20*
X42976Y69685D02*
D03*
X46126D02*
D03*
X49276D02*
D03*
X52425D02*
D03*
X55575D02*
D03*
X58724D02*
D03*
X61874D02*
D03*
X65024D02*
D03*
Y36315D02*
D03*
X61874D02*
D03*
X58724D02*
D03*
X55575D02*
D03*
X52425D02*
D03*
X49276D02*
D03*
X46126D02*
D03*
X42976D02*
D03*
D21*
X70685Y64024D02*
D03*
Y60874D02*
D03*
Y57724D02*
D03*
Y54575D02*
D03*
Y51425D02*
D03*
Y48276D02*
D03*
Y45126D02*
D03*
Y41976D02*
D03*
X37315D02*
D03*
Y45126D02*
D03*
Y48276D02*
D03*
Y51425D02*
D03*
Y54575D02*
D03*
Y57724D02*
D03*
Y60874D02*
D03*
Y64024D02*
D03*
D22*
X91598Y58000D02*
D03*
D23*
X116402Y67055D02*
D03*
Y58000D02*
D03*
Y48945D02*
D03*
D41*
X141685Y12000D02*
D03*
X56000D02*
D03*
X102315Y89000D02*
D03*
X98843Y12000D02*
D03*
D42*
X131843D02*
D03*
X122000D02*
D03*
X46158D02*
D03*
X36315D02*
D03*
X131843Y89000D02*
D03*
X122000D02*
D03*
X112157D02*
D03*
X79158Y12000D02*
D03*
X89000D02*
D03*
D43*
X40000Y93000D02*
D03*
X50000D02*
D03*
X60000D02*
D03*
X70000D02*
D03*
D44*
X80000D02*
D03*
D45*
X12000Y12500D02*
D03*
X162000Y88000D02*
D03*
M02*
