G04*
G04 #@! TF.GenerationSoftware,Altium Limited,Altium Designer,21.2.2 (38)*
G04*
G04 Layer_Color=8388736*
%FSLAX25Y25*%
%MOIN*%
G70*
G04*
G04 #@! TF.SameCoordinates,6DF736DA-586D-4ED0-A9E8-28D565D663F1*
G04*
G04*
G04 #@! TF.FilePolarity,Negative*
G04*
G01*
G75*
%ADD24R,0.03753X0.05721*%
%ADD25R,0.06115X0.04737*%
%ADD26R,0.10249X0.08280*%
%ADD27R,0.03556X0.04147*%
%ADD28R,0.04737X0.06115*%
%ADD29R,0.03556X0.06902*%
%ADD30R,0.03162X0.06607*%
%ADD31R,0.06607X0.03162*%
%ADD32R,0.07690X0.13398*%
%ADD33R,0.07690X0.04540*%
G04:AMPARAMS|DCode=34|XSize=74.93mil|YSize=86.74mil|CornerRadius=20.73mil|HoleSize=0mil|Usage=FLASHONLY|Rotation=180.000|XOffset=0mil|YOffset=0mil|HoleType=Round|Shape=RoundedRectangle|*
%AMROUNDEDRECTD34*
21,1,0.07493,0.04528,0,0,180.0*
21,1,0.03347,0.08674,0,0,180.0*
1,1,0.04146,-0.01673,0.02264*
1,1,0.04146,0.01673,0.02264*
1,1,0.04146,0.01673,-0.02264*
1,1,0.04146,-0.01673,-0.02264*
%
%ADD34ROUNDEDRECTD34*%
%ADD35O,0.07493X0.08674*%
%ADD36C,0.06706*%
%ADD37R,0.06706X0.06706*%
%ADD38C,0.24422*%
%ADD39C,0.03556*%
D24*
X50063Y83000D02*
D03*
X57937D02*
D03*
D25*
X125000Y46358D02*
D03*
Y53642D02*
D03*
X13000Y60642D02*
D03*
Y53358D02*
D03*
Y67358D02*
D03*
Y74642D02*
D03*
X28000Y39642D02*
D03*
Y32358D02*
D03*
X19000Y39642D02*
D03*
Y32358D02*
D03*
X9000Y39642D02*
D03*
Y32358D02*
D03*
X125000Y65642D02*
D03*
Y58358D02*
D03*
D26*
X23000Y54929D02*
D03*
Y71071D02*
D03*
D27*
X147752Y69000D02*
D03*
X154248D02*
D03*
X57248Y77000D02*
D03*
X50752D02*
D03*
D28*
X145358Y31000D02*
D03*
X152642D02*
D03*
X85642Y37000D02*
D03*
X78358D02*
D03*
X33358Y76000D02*
D03*
X40642D02*
D03*
D29*
X143500Y39272D02*
D03*
X148500D02*
D03*
X153500D02*
D03*
X158500D02*
D03*
Y60728D02*
D03*
X153500D02*
D03*
X148500D02*
D03*
X143500D02*
D03*
D30*
X42976Y69685D02*
D03*
X46126D02*
D03*
X49276D02*
D03*
X52425D02*
D03*
X55575D02*
D03*
X58724D02*
D03*
X61874D02*
D03*
X65024D02*
D03*
Y36315D02*
D03*
X61874D02*
D03*
X58724D02*
D03*
X55575D02*
D03*
X52425D02*
D03*
X49276D02*
D03*
X46126D02*
D03*
X42976D02*
D03*
D31*
X70685Y64024D02*
D03*
Y60874D02*
D03*
Y57724D02*
D03*
Y54575D02*
D03*
Y51425D02*
D03*
Y48276D02*
D03*
Y45126D02*
D03*
Y41976D02*
D03*
X37315D02*
D03*
Y45126D02*
D03*
Y48276D02*
D03*
Y51425D02*
D03*
Y54575D02*
D03*
Y57724D02*
D03*
Y60874D02*
D03*
Y64024D02*
D03*
D32*
X91598Y58000D02*
D03*
D33*
X116402Y67055D02*
D03*
Y58000D02*
D03*
Y48945D02*
D03*
D34*
X141685Y12000D02*
D03*
X56000D02*
D03*
X102315Y89000D02*
D03*
X98843Y12000D02*
D03*
D35*
X131843D02*
D03*
X122000D02*
D03*
X46158D02*
D03*
X36315D02*
D03*
X131843Y89000D02*
D03*
X122000D02*
D03*
X112157D02*
D03*
X79158Y12000D02*
D03*
X89000D02*
D03*
D36*
X40000Y93000D02*
D03*
X50000D02*
D03*
X60000D02*
D03*
X70000D02*
D03*
D37*
X80000D02*
D03*
D38*
X12000Y12500D02*
D03*
X162000Y88000D02*
D03*
D39*
X77736Y45357D02*
D03*
X33000Y84000D02*
D03*
X82000Y31000D02*
D03*
X24000Y46000D02*
D03*
X136543Y32591D02*
D03*
X107016Y52276D02*
D03*
X116858Y32591D02*
D03*
X97173Y71961D02*
D03*
Y32591D02*
D03*
X38118D02*
D03*
X28276Y12905D02*
D03*
X45000Y54000D02*
D03*
X83000Y59000D02*
D03*
X160000Y30000D02*
D03*
M02*
