G04*
G04 #@! TF.GenerationSoftware,Altium Limited,Altium Designer,21.4.1 (30)*
G04*
G04 Layer_Color=32768*
%FSLAX25Y25*%
%MOIN*%
G70*
G04*
G04 #@! TF.SameCoordinates,C5A25FCA-50C6-4F6C-8C9A-811C773B13C6*
G04*
G04*
G04 #@! TF.FilePolarity,Positive*
G04*
G01*
G75*
%ADD53C,0.00394*%
%ADD54C,0.00197*%
D53*
X340063Y321114D02*
Y337846D01*
X347937D01*
Y321114D02*
Y337846D01*
X340063Y321114D02*
X347937D01*
X334000Y302031D02*
Y305968D01*
X332031Y304000D02*
X335968D01*
X411925Y353000D02*
X415075D01*
X413500Y351425D02*
Y354575D01*
X390000Y351425D02*
Y354575D01*
X388425Y353000D02*
X391575D01*
X369425Y344500D02*
X372575D01*
X371000Y342925D02*
Y346075D01*
X434925Y330000D02*
X438075D01*
X436500Y328425D02*
Y331575D01*
X379031Y336000D02*
X382968D01*
X381000Y334032D02*
Y337968D01*
X377039Y283289D02*
X380976D01*
X379008Y281321D02*
Y285258D01*
X337343Y253470D02*
X357343D01*
X337343D02*
Y285970D01*
X357343D01*
Y253470D02*
Y285970D01*
X344500Y245425D02*
Y248575D01*
X342925Y247000D02*
X346075D01*
X330925Y258500D02*
X334075D01*
X332500Y256925D02*
Y260075D01*
X351768Y249789D02*
X354917D01*
X353343Y248214D02*
Y251364D01*
X335425Y247000D02*
X338575D01*
X337000Y245425D02*
Y248575D01*
X332000Y282878D02*
Y286028D01*
X330425Y284453D02*
X333575D01*
X334000Y339032D02*
Y342969D01*
X332031Y341000D02*
X335968D01*
X378500Y363531D02*
Y367469D01*
X376532Y365500D02*
X380469D01*
X432000Y311032D02*
Y314968D01*
X430031Y313000D02*
X433968D01*
X367000Y326532D02*
Y330469D01*
X365032Y328500D02*
X368969D01*
X401500Y363531D02*
Y367469D01*
X399532Y365500D02*
X403469D01*
X424500Y363531D02*
Y367469D01*
X422532Y365500D02*
X426469D01*
X339154Y316437D02*
X355886D01*
Y308563D02*
Y316437D01*
X339154Y308563D02*
X355886D01*
X339154D02*
Y316437D01*
X426000Y334032D02*
Y337968D01*
X424031Y336000D02*
X427969D01*
X404000Y334032D02*
Y337968D01*
X402032Y336000D02*
X405969D01*
X332031Y323000D02*
X335968D01*
X334000Y321031D02*
Y324969D01*
X439500Y349031D02*
Y352969D01*
X437532Y351000D02*
X441468D01*
X359032Y350000D02*
X362968D01*
X361000Y348031D02*
Y351969D01*
X355000Y327925D02*
Y331075D01*
X353425Y329500D02*
X356575D01*
D54*
X414169Y247457D02*
X441728D01*
Y267339D01*
X414169D02*
X441728D01*
X414169Y247457D02*
Y267339D01*
X426177Y257299D02*
X429524D01*
X427752Y255528D02*
Y259071D01*
X330260Y295732D02*
X337740D01*
X330260Y312268D02*
X337740D01*
Y295732D02*
Y312268D01*
X330260Y295732D02*
Y312268D01*
X411335Y347882D02*
Y358118D01*
X415665Y347882D02*
Y358118D01*
X411335Y347882D02*
X415665D01*
X411335Y358118D02*
X415665D01*
X387835D02*
X392165D01*
X387835Y347882D02*
X392165D01*
Y358118D01*
X387835Y347882D02*
Y358118D01*
X365882Y342335D02*
Y346665D01*
X376118Y342335D02*
Y346665D01*
X365882D02*
X376118D01*
X365882Y342335D02*
X376118D01*
X431382Y327835D02*
Y332165D01*
X441618Y327835D02*
Y332165D01*
X431382D02*
X441618D01*
X431382Y327835D02*
X441618D01*
X384740Y327732D02*
Y344268D01*
X377260Y327732D02*
Y344268D01*
X384740D01*
X377260Y327732D02*
X384740D01*
X396921Y269313D02*
Y297069D01*
X361094Y269313D02*
Y297069D01*
X396921D01*
X361094Y269313D02*
X396921D01*
X362547Y242781D02*
Y253214D01*
Y242781D02*
X388138D01*
Y266797D01*
X362547D02*
X388138D01*
X362547Y253214D02*
Y266797D01*
X342138Y241685D02*
X346862D01*
X342138Y252315D02*
X346862D01*
Y241685D02*
Y252315D01*
X342138Y241685D02*
Y252315D01*
X334665Y253382D02*
Y263618D01*
X330335Y253382D02*
Y263618D01*
Y253382D02*
X334665D01*
X330335Y263618D02*
X334665D01*
X358658Y247427D02*
Y252151D01*
X348028Y247427D02*
Y252151D01*
X358658D01*
X348028Y247427D02*
X358658D01*
X339165Y241882D02*
Y252118D01*
X334835Y241882D02*
Y252118D01*
Y241882D02*
X339165D01*
X334835Y252118D02*
X339165D01*
X329638Y289768D02*
X334362D01*
X329638Y279138D02*
X334362D01*
X329638D02*
Y289768D01*
X334362Y279138D02*
Y289768D01*
X384488Y337272D02*
Y364831D01*
X364606D02*
X384488D01*
X364606Y337272D02*
Y364831D01*
Y337272D02*
X384488D01*
X374646Y349279D02*
Y352626D01*
X372874Y350854D02*
X376417D01*
X429544Y337272D02*
Y364831D01*
X409662D02*
X429544D01*
X409662Y337272D02*
Y364831D01*
Y337272D02*
X429544D01*
X419702Y349279D02*
Y352626D01*
X417930Y350854D02*
X421473D01*
X330260Y332732D02*
X337740D01*
X330260Y349268D02*
X337740D01*
Y332732D02*
Y349268D01*
X330260Y332732D02*
Y349268D01*
X430736Y275272D02*
Y302831D01*
X410854D02*
X430736D01*
X410854Y275272D02*
Y302831D01*
Y275272D02*
X430736D01*
X420894Y287280D02*
Y290626D01*
X419122Y288854D02*
X422665D01*
X352772Y267535D02*
X380331D01*
X352772Y247654D02*
Y267535D01*
Y247654D02*
X380331D01*
Y267535D01*
X364976Y257693D02*
X368323D01*
X366748Y255921D02*
Y259465D01*
X395622Y353252D02*
X399165D01*
X397394Y351677D02*
Y355024D01*
X387354Y339669D02*
X407236D01*
X387354D02*
Y367228D01*
X407236D01*
Y339669D02*
Y367228D01*
X370232Y369240D02*
X386768D01*
X370232Y361760D02*
X386768D01*
X370232D02*
Y369240D01*
X386768Y361760D02*
Y369240D01*
X423732Y309260D02*
X440268D01*
X423732Y316740D02*
X440268D01*
Y309260D02*
Y316740D01*
X423732Y309260D02*
Y316740D01*
X358732Y332240D02*
X375268D01*
X358732Y324760D02*
X375268D01*
X358732D02*
Y332240D01*
X375268Y324760D02*
Y332240D01*
X393232Y369240D02*
X409768D01*
X393232Y361760D02*
X409768D01*
X393232D02*
Y369240D01*
X409768Y361760D02*
Y369240D01*
X416232D02*
X432768D01*
X416232Y361760D02*
X432768D01*
X416232D02*
Y369240D01*
X432768Y361760D02*
Y369240D01*
X347929Y288854D02*
X351472D01*
X349701Y287280D02*
Y290626D01*
X339661Y275272D02*
X359543D01*
X339661D02*
Y302831D01*
X359543D01*
Y275272D02*
Y302831D01*
X422260Y327732D02*
X429740D01*
X422260Y344268D02*
X429740D01*
X422260Y327732D02*
Y344268D01*
X429740Y327732D02*
Y344268D01*
X400260Y327732D02*
X407740D01*
X400260Y344268D02*
X407740D01*
X400260Y327732D02*
Y344268D01*
X407740Y327732D02*
Y344268D01*
X449736Y306772D02*
Y334331D01*
X429854D02*
X449736D01*
X429854Y306772D02*
Y334331D01*
Y306772D02*
X449736D01*
X439894Y318779D02*
Y322126D01*
X438122Y320354D02*
X441665D01*
X330260Y314732D02*
Y331268D01*
X337740Y314732D02*
Y331268D01*
X330260D02*
X337740D01*
X330260Y314732D02*
X337740D01*
X435760Y359268D02*
X443240D01*
X435760Y342732D02*
X443240D01*
Y359268D01*
X435760Y342732D02*
Y359268D01*
X395429Y256354D02*
X398972D01*
X397201Y254780D02*
Y258126D01*
X387161Y242772D02*
X407043D01*
X387161D02*
Y270331D01*
X407043D01*
Y242772D02*
Y270331D01*
X395622Y288854D02*
X399165D01*
X397394Y287280D02*
Y290626D01*
X387354Y275272D02*
X407236D01*
X387354D02*
Y302831D01*
X407236D01*
Y275272D02*
Y302831D01*
X357260Y341732D02*
Y358268D01*
X364740Y341732D02*
Y358268D01*
X357260Y341732D02*
X364740D01*
X357260Y358268D02*
X364740D01*
X352835Y334618D02*
X357165D01*
X352835Y324382D02*
X357165D01*
Y334618D01*
X352835Y324382D02*
Y334618D01*
X411929Y320354D02*
X415472D01*
X413701Y318779D02*
Y322126D01*
X403661Y306772D02*
X423543D01*
X403661D02*
Y334331D01*
X423543D01*
Y306772D02*
Y334331D01*
X365043Y306772D02*
Y334331D01*
X345161D02*
X365043D01*
X345161Y306772D02*
Y334331D01*
Y306772D02*
X365043D01*
X355201Y318779D02*
Y322126D01*
X353429Y320354D02*
X356972D01*
X379929D02*
X383472D01*
X381701Y318779D02*
Y322126D01*
X371661Y306772D02*
X391543D01*
X371661D02*
Y334331D01*
X391543D01*
Y306772D02*
Y334331D01*
X372929Y288854D02*
X376472D01*
X374701Y287280D02*
Y290626D01*
X364661Y275272D02*
X384543D01*
X364661D02*
Y302831D01*
X384543D01*
Y275272D02*
Y302831D01*
X455543Y275272D02*
Y302831D01*
X435661D02*
X455543D01*
X435661Y275272D02*
Y302831D01*
Y275272D02*
X455543D01*
X445701Y287280D02*
Y290626D01*
X443929Y288854D02*
X447472D01*
M02*
