G04*
G04 #@! TF.GenerationSoftware,Altium Limited,Altium Designer,21.4.1 (30)*
G04*
G04 Layer_Physical_Order=1*
G04 Layer_Color=255*
%FSLAX25Y25*%
%MOIN*%
G70*
G04*
G04 #@! TF.SameCoordinates,C5A25FCA-50C6-4F6C-8C9A-811C773B13C6*
G04*
G04*
G04 #@! TF.FilePolarity,Positive*
G04*
G01*
G75*
G04:AMPARAMS|DCode=12|XSize=78.74mil|YSize=43.31mil|CornerRadius=10.83mil|HoleSize=0mil|Usage=FLASHONLY|Rotation=180.000|XOffset=0mil|YOffset=0mil|HoleType=Round|Shape=RoundedRectangle|*
%AMROUNDEDRECTD12*
21,1,0.07874,0.02165,0,0,180.0*
21,1,0.05709,0.04331,0,0,180.0*
1,1,0.02165,-0.02854,0.01083*
1,1,0.02165,0.02854,0.01083*
1,1,0.02165,0.02854,-0.01083*
1,1,0.02165,-0.02854,-0.01083*
%
%ADD12ROUNDEDRECTD12*%
G04:AMPARAMS|DCode=13|XSize=78.74mil|YSize=43.31mil|CornerRadius=10.83mil|HoleSize=0mil|Usage=FLASHONLY|Rotation=270.000|XOffset=0mil|YOffset=0mil|HoleType=Round|Shape=RoundedRectangle|*
%AMROUNDEDRECTD13*
21,1,0.07874,0.02165,0,0,270.0*
21,1,0.05709,0.04331,0,0,270.0*
1,1,0.02165,-0.01083,-0.02854*
1,1,0.02165,-0.01083,0.02854*
1,1,0.02165,0.01083,0.02854*
1,1,0.02165,0.01083,-0.02854*
%
%ADD13ROUNDEDRECTD13*%
%ADD20C,0.02000*%
G04:AMPARAMS|DCode=21|XSize=66.93mil|YSize=78.74mil|CornerRadius=16.73mil|HoleSize=0mil|Usage=FLASHONLY|Rotation=270.000|XOffset=0mil|YOffset=0mil|HoleType=Round|Shape=RoundedRectangle|*
%AMROUNDEDRECTD21*
21,1,0.06693,0.04528,0,0,270.0*
21,1,0.03347,0.07874,0,0,270.0*
1,1,0.03346,-0.02264,-0.01673*
1,1,0.03346,-0.02264,0.01673*
1,1,0.03346,0.02264,0.01673*
1,1,0.03346,0.02264,-0.01673*
%
%ADD21ROUNDEDRECTD21*%
%ADD22O,0.07874X0.06693*%
%ADD23C,0.23622*%
%ADD24C,0.02756*%
G36*
X383399Y392507D02*
X389274Y391929D01*
X395097Y390967D01*
X400845Y389627D01*
X406494Y387913D01*
X412018Y385834D01*
X417394Y383398D01*
X422600Y380616D01*
X427613Y377499D01*
X432410Y374061D01*
X436973Y370316D01*
X441281Y366281D01*
X445316Y361973D01*
X449061Y357410D01*
X452499Y352613D01*
X455616Y347600D01*
X458398Y342394D01*
X460834Y337018D01*
X462913Y331494D01*
X464627Y325846D01*
X465967Y320097D01*
X466929Y314274D01*
X467507Y308399D01*
X467700Y302500D01*
X467507Y296601D01*
X466929Y290726D01*
X465967Y284903D01*
X464627Y279154D01*
X462913Y273506D01*
X460834Y267982D01*
X458398Y262606D01*
X455616Y257400D01*
X452499Y252387D01*
X449061Y247590D01*
X445316Y243027D01*
X441281Y238719D01*
X436973Y234684D01*
X432410Y230939D01*
X427613Y227501D01*
X422600Y224384D01*
X417394Y221602D01*
X412018Y219166D01*
X406494Y217087D01*
X400845Y215373D01*
X395097Y214033D01*
X389274Y213071D01*
X383399Y212493D01*
X377500Y212300D01*
X371601Y212493D01*
X365726Y213071D01*
X359903Y214033D01*
X354154Y215373D01*
X348506Y217087D01*
X342982Y219166D01*
X337606Y221602D01*
X332400Y224384D01*
X327387Y227501D01*
X322590Y230939D01*
X318027Y234684D01*
X313719Y238719D01*
X309684Y243027D01*
X305939Y247590D01*
X302501Y252387D01*
X299384Y257400D01*
X296602Y262606D01*
X294166Y267982D01*
X292087Y273506D01*
X290373Y279154D01*
X289033Y284903D01*
X288071Y290726D01*
X287493Y296601D01*
X287300Y302500D01*
X287493Y308399D01*
X288071Y314274D01*
X289033Y320097D01*
X290373Y325846D01*
X292087Y331494D01*
X294166Y337018D01*
X296602Y342394D01*
X299384Y347600D01*
X302501Y352613D01*
X305939Y357410D01*
X309684Y361973D01*
X313719Y366281D01*
X318027Y370316D01*
X322590Y374061D01*
X327387Y377499D01*
X332400Y380616D01*
X337606Y383398D01*
X342982Y385834D01*
X348506Y387913D01*
X354154Y389627D01*
X359903Y390967D01*
X365726Y391929D01*
X371601Y392507D01*
X377500Y392700D01*
X383399Y392507D01*
D02*
G37*
%LPC*%
G36*
X390973Y374878D02*
X390027D01*
X389153Y374516D01*
X388484Y373847D01*
X388122Y372973D01*
Y372027D01*
X388364Y371442D01*
Y367426D01*
X387876Y367100D01*
X387463Y366482D01*
X387318Y365752D01*
Y360043D01*
X387463Y359314D01*
X387876Y358695D01*
X388495Y358282D01*
X389224Y358137D01*
X391390D01*
X392119Y358282D01*
X392738Y358695D01*
X393151Y359314D01*
X393297Y360043D01*
Y365752D01*
X393151Y366482D01*
X392738Y367100D01*
X392443Y367298D01*
Y371080D01*
X392516Y371153D01*
X392878Y372027D01*
Y372973D01*
X392516Y373847D01*
X391847Y374516D01*
X390973Y374878D01*
D02*
G37*
G36*
X412973Y372878D02*
X412027D01*
X411153Y372516D01*
X410484Y371847D01*
X410122Y370973D01*
Y370027D01*
X410484Y369153D01*
X410518Y369119D01*
Y364926D01*
X410184Y364703D01*
X409771Y364084D01*
X409626Y363354D01*
Y357646D01*
X409771Y356916D01*
X410184Y356297D01*
X410803Y355884D01*
X411532Y355739D01*
X413698D01*
X414427Y355884D01*
X415046Y356297D01*
X415459Y356916D01*
X415604Y357646D01*
Y363354D01*
X415459Y364084D01*
X415046Y364703D01*
X414597Y365003D01*
Y369348D01*
X414878Y370027D01*
Y370973D01*
X414516Y371847D01*
X413847Y372516D01*
X412973Y372878D01*
D02*
G37*
G36*
X367973Y372378D02*
X367027D01*
X366153Y372016D01*
X365484Y371347D01*
X365122Y370473D01*
Y369527D01*
X365484Y368653D01*
X365490Y368647D01*
Y364945D01*
X365128Y364703D01*
X364715Y364084D01*
X364570Y363354D01*
Y357646D01*
X364715Y356916D01*
X365128Y356297D01*
X365747Y355884D01*
X366476Y355739D01*
X368642D01*
X369371Y355884D01*
X369990Y356297D01*
X370403Y356916D01*
X370548Y357646D01*
Y363354D01*
X370403Y364084D01*
X369990Y364703D01*
X369569Y364984D01*
Y368780D01*
X369878Y369527D01*
Y370473D01*
X369516Y371347D01*
X368847Y372016D01*
X367973Y372378D01*
D02*
G37*
G36*
X404776Y367659D02*
X402610D01*
X401881Y367513D01*
X401262Y367100D01*
X400849Y366482D01*
X400703Y365752D01*
Y360043D01*
X400849Y359314D01*
X401262Y358695D01*
X401807Y358331D01*
Y353420D01*
X401622Y352973D01*
Y352027D01*
X401984Y351153D01*
X402653Y350484D01*
X403527Y350122D01*
X404473D01*
X405347Y350484D01*
X406016Y351153D01*
X406378Y352027D01*
Y352973D01*
X406016Y353847D01*
X405886Y353977D01*
Y358536D01*
X406124Y358695D01*
X406537Y359314D01*
X406682Y360043D01*
Y365752D01*
X406537Y366482D01*
X406124Y367100D01*
X405505Y367513D01*
X404776Y367659D01*
D02*
G37*
G36*
X398083D02*
X395917D01*
X395188Y367513D01*
X394569Y367100D01*
X394156Y366482D01*
X394011Y365752D01*
Y360043D01*
X394156Y359314D01*
X394569Y358695D01*
X394961Y358433D01*
Y353791D01*
X394622Y352973D01*
Y352027D01*
X394984Y351153D01*
X395653Y350484D01*
X396527Y350122D01*
X397473D01*
X398347Y350484D01*
X399016Y351153D01*
X399378Y352027D01*
Y352973D01*
X399039Y353791D01*
Y358433D01*
X399431Y358695D01*
X399844Y359314D01*
X399989Y360043D01*
Y365752D01*
X399844Y366482D01*
X399431Y367100D01*
X398812Y367513D01*
X398083Y367659D01*
D02*
G37*
G36*
X427084Y365261D02*
X424918D01*
X424189Y365116D01*
X423570Y364703D01*
X423157Y364084D01*
X423011Y363354D01*
Y357646D01*
X423157Y356916D01*
X423570Y356297D01*
X423961Y356036D01*
Y352792D01*
X423622Y351973D01*
Y351027D01*
X423984Y350153D01*
X424653Y349484D01*
X425527Y349122D01*
X426473D01*
X427347Y349484D01*
X428016Y350153D01*
X428378Y351027D01*
Y351973D01*
X428040Y352790D01*
Y356035D01*
X428432Y356297D01*
X428845Y356916D01*
X428990Y357646D01*
Y363354D01*
X428845Y364084D01*
X428432Y364703D01*
X427813Y365116D01*
X427084Y365261D01*
D02*
G37*
G36*
X420391D02*
X418225D01*
X417496Y365116D01*
X416877Y364703D01*
X416464Y364084D01*
X416319Y363354D01*
Y357646D01*
X416464Y356916D01*
X416877Y356297D01*
X417365Y355972D01*
Y352559D01*
X417122Y351973D01*
Y351027D01*
X417484Y350153D01*
X418153Y349484D01*
X419027Y349122D01*
X419973D01*
X420847Y349484D01*
X421516Y350153D01*
X421878Y351027D01*
Y351973D01*
X421516Y352847D01*
X421443Y352920D01*
Y356100D01*
X421739Y356297D01*
X422152Y356916D01*
X422297Y357646D01*
Y363354D01*
X422152Y364084D01*
X421739Y364703D01*
X421120Y365116D01*
X420391Y365261D01*
D02*
G37*
G36*
X382028D02*
X379862D01*
X379133Y365116D01*
X378514Y364703D01*
X378101Y364084D01*
X377956Y363354D01*
Y357646D01*
X378101Y356916D01*
X378514Y356297D01*
X378933Y356017D01*
Y351724D01*
X378622Y350973D01*
Y350027D01*
X378984Y349153D01*
X379653Y348484D01*
X380527Y348122D01*
X381473D01*
X382347Y348484D01*
X383016Y349153D01*
X383378Y350027D01*
Y350973D01*
X383016Y351847D01*
X383012Y351851D01*
Y356054D01*
X383376Y356297D01*
X383789Y356916D01*
X383934Y357646D01*
Y363354D01*
X383789Y364084D01*
X383376Y364703D01*
X382757Y365116D01*
X382028Y365261D01*
D02*
G37*
G36*
X375335D02*
X373169D01*
X372440Y365116D01*
X371821Y364703D01*
X371408Y364084D01*
X371263Y363354D01*
Y357646D01*
X371408Y356916D01*
X371821Y356297D01*
X372337Y355953D01*
Y351491D01*
X372122Y350973D01*
Y350027D01*
X372484Y349153D01*
X373153Y348484D01*
X374027Y348122D01*
X374973D01*
X375847Y348484D01*
X376516Y349153D01*
X376878Y350027D01*
Y350973D01*
X376516Y351847D01*
X376415Y351948D01*
Y356118D01*
X376683Y356297D01*
X377096Y356916D01*
X377241Y357646D01*
Y363354D01*
X377096Y364084D01*
X376683Y364703D01*
X376064Y365116D01*
X375335Y365261D01*
D02*
G37*
G36*
X404776Y348761D02*
X402610D01*
X401881Y348616D01*
X401262Y348203D01*
X400849Y347584D01*
X400703Y346854D01*
Y341146D01*
X400849Y340416D01*
X401262Y339797D01*
X401626Y339554D01*
X401657Y339041D01*
X400219Y337603D01*
X399777Y336942D01*
X399636Y336229D01*
X399136Y336278D01*
Y339600D01*
X399431Y339797D01*
X399844Y340416D01*
X399989Y341146D01*
Y346854D01*
X399844Y347584D01*
X399431Y348203D01*
X398812Y348616D01*
X398083Y348761D01*
X395917D01*
X395188Y348616D01*
X394569Y348203D01*
X394156Y347584D01*
X394011Y346854D01*
Y341146D01*
X394156Y340416D01*
X394569Y339797D01*
X395057Y339471D01*
Y303574D01*
X395039Y303563D01*
X394539Y303846D01*
Y336000D01*
X394384Y336780D01*
X393942Y337442D01*
X392567Y338817D01*
X392618Y339425D01*
X392780Y339533D01*
X393222Y340195D01*
X393377Y340975D01*
X393297Y341380D01*
Y346854D01*
X393151Y347584D01*
X392738Y348203D01*
X392119Y348616D01*
X391390Y348761D01*
X389224D01*
X388495Y348616D01*
X387876Y348203D01*
X387463Y347584D01*
X387318Y346854D01*
Y341146D01*
X387463Y340416D01*
X387876Y339797D01*
X388268Y339536D01*
Y338193D01*
X388423Y337413D01*
X388865Y336751D01*
X390376Y335240D01*
X390333Y334791D01*
X389887Y334566D01*
X389812Y334616D01*
X389083Y334761D01*
X388123D01*
X383934Y338950D01*
Y344457D01*
X383789Y345186D01*
X383376Y345805D01*
X382757Y346218D01*
X382028Y346363D01*
X379862D01*
X379133Y346218D01*
X378514Y345805D01*
X378101Y345186D01*
X377956Y344457D01*
Y338748D01*
X377992Y338563D01*
X377582Y338344D01*
X377227Y338674D01*
X377241Y338748D01*
Y344457D01*
X377096Y345186D01*
X376683Y345805D01*
X376064Y346218D01*
X375335Y346363D01*
X373169D01*
X372440Y346218D01*
X371821Y345805D01*
X371408Y345186D01*
X371263Y344457D01*
Y340064D01*
X370763Y339818D01*
X370548Y339984D01*
Y344457D01*
X370403Y345186D01*
X369990Y345805D01*
X369371Y346218D01*
X368642Y346363D01*
X366476D01*
X365747Y346218D01*
X365128Y345805D01*
X364715Y345186D01*
X364570Y344457D01*
Y338748D01*
X364715Y338018D01*
X365128Y337400D01*
X365747Y336986D01*
X366476Y336841D01*
X367775D01*
X371461Y333155D01*
Y330500D01*
X371616Y329720D01*
X371625Y329707D01*
Y327146D01*
X371770Y326416D01*
X372183Y325797D01*
X372802Y325384D01*
X373532Y325239D01*
X375697D01*
X376427Y325384D01*
X377045Y325797D01*
X377458Y326416D01*
X377604Y327146D01*
Y331535D01*
X378104Y331780D01*
X378318Y331614D01*
Y327146D01*
X378463Y326416D01*
X378876Y325797D01*
X379495Y325384D01*
X380224Y325239D01*
X382390D01*
X383119Y325384D01*
X383738Y325797D01*
X384151Y326416D01*
X384296Y327146D01*
Y331619D01*
X384797Y331887D01*
X384846Y331853D01*
Y330500D01*
X385002Y329720D01*
X385011Y329707D01*
Y327146D01*
X385156Y326416D01*
X385569Y325797D01*
X386188Y325384D01*
X386917Y325239D01*
X389083D01*
X389812Y325384D01*
X389961Y325483D01*
X390461Y325216D01*
Y315886D01*
X389961Y315619D01*
X389812Y315718D01*
X389083Y315863D01*
X386917D01*
X386188Y315718D01*
X385569Y315305D01*
X385156Y314686D01*
X385011Y313957D01*
Y308248D01*
X385156Y307518D01*
X385569Y306900D01*
X385855Y306709D01*
Y305739D01*
X383064Y302948D01*
X382812Y303116D01*
X382083Y303261D01*
X381298D01*
X381107Y303723D01*
X382041Y304657D01*
X382483Y305319D01*
X382639Y306099D01*
Y306391D01*
X383119Y306487D01*
X383738Y306900D01*
X384151Y307518D01*
X384296Y308248D01*
Y313957D01*
X384151Y314686D01*
X383738Y315305D01*
X383119Y315718D01*
X382390Y315863D01*
X380224D01*
X379495Y315718D01*
X378876Y315305D01*
X378463Y314686D01*
X378318Y313957D01*
Y308248D01*
X378463Y307518D01*
X378560Y307373D01*
Y306944D01*
X374936Y303320D01*
X374686Y303270D01*
X374673Y303261D01*
X373393D01*
X373158Y303734D01*
X374942Y305517D01*
X375384Y306179D01*
X375416Y306341D01*
X375697D01*
X376427Y306487D01*
X377045Y306900D01*
X377458Y307518D01*
X377604Y308248D01*
Y313957D01*
X377458Y314686D01*
X377045Y315305D01*
X376427Y315718D01*
X375697Y315863D01*
X373532D01*
X372802Y315718D01*
X372183Y315305D01*
X371770Y314686D01*
X371625Y313957D01*
Y308965D01*
X371616Y308952D01*
X371461Y308172D01*
Y307804D01*
X367287Y303630D01*
X367040Y303261D01*
X366531D01*
X365802Y303116D01*
X365183Y302703D01*
X364770Y302084D01*
X364625Y301354D01*
Y295646D01*
X364770Y294916D01*
X365183Y294297D01*
X365802Y293884D01*
X366531Y293739D01*
X368697D01*
X369426Y293884D01*
X370045Y294297D01*
X370458Y294916D01*
X370604Y295646D01*
Y298821D01*
X370612Y298834D01*
X370768Y299614D01*
Y300901D01*
X370818Y300932D01*
X371318Y300654D01*
Y295646D01*
X371463Y294916D01*
X371876Y294297D01*
X372495Y293884D01*
X373224Y293739D01*
X375390D01*
X376119Y293884D01*
X376738Y294297D01*
X377151Y294916D01*
X377296Y295646D01*
Y299764D01*
X377511Y299926D01*
X378011Y299679D01*
Y295646D01*
X378156Y294916D01*
X378569Y294297D01*
X379188Y293884D01*
X379917Y293739D01*
X382083D01*
X382812Y293884D01*
X383431Y294297D01*
X383844Y294916D01*
X383989Y295646D01*
Y298106D01*
X386818Y300934D01*
X387318Y300727D01*
Y295646D01*
X387463Y294916D01*
X387876Y294297D01*
X388374Y293965D01*
X388423Y293720D01*
X388865Y293058D01*
X389527Y292616D01*
X390307Y292461D01*
X391087Y292616D01*
X391749Y293058D01*
X392451Y293760D01*
X392893Y294422D01*
X392923Y294575D01*
X393151Y294916D01*
X393297Y295646D01*
Y298688D01*
X393511Y298849D01*
X394011Y298600D01*
Y295646D01*
X394156Y294916D01*
X394569Y294297D01*
X395067Y293965D01*
X395116Y293720D01*
X395558Y293058D01*
X396220Y292616D01*
X397000Y292461D01*
X397780Y292616D01*
X398442Y293058D01*
X398538Y293155D01*
X398538Y293155D01*
X398980Y293816D01*
X399022Y294024D01*
X399431Y294297D01*
X399844Y294916D01*
X399989Y295646D01*
Y298600D01*
X400489Y298849D01*
X400703Y298688D01*
Y295646D01*
X400849Y294916D01*
X401077Y294575D01*
X401107Y294422D01*
X401549Y293760D01*
X402251Y293058D01*
X402913Y292616D01*
X403693Y292461D01*
X404473Y292616D01*
X405135Y293058D01*
X405577Y293720D01*
X405626Y293965D01*
X406124Y294297D01*
X406537Y294916D01*
X406682Y295646D01*
Y301354D01*
X406651Y301511D01*
X407112Y301758D01*
X410654Y298216D01*
Y297114D01*
X410809Y296334D01*
X410818Y296321D01*
Y295646D01*
X410963Y294916D01*
X411376Y294297D01*
X411995Y293884D01*
X412724Y293739D01*
X414890D01*
X415619Y293884D01*
X416238Y294297D01*
X416651Y294916D01*
X416796Y295646D01*
Y299877D01*
X417297Y300122D01*
X417511Y299957D01*
Y295646D01*
X417656Y294916D01*
X418069Y294297D01*
X418688Y293884D01*
X419417Y293739D01*
X421583D01*
X422312Y293884D01*
X422931Y294297D01*
X423344Y294916D01*
X423489Y295646D01*
Y299679D01*
X423989Y299926D01*
X424203Y299764D01*
Y295646D01*
X424349Y294916D01*
X424762Y294297D01*
X425381Y293884D01*
X426110Y293739D01*
X428276D01*
X429005Y293884D01*
X429624Y294297D01*
X430037Y294916D01*
X430182Y295646D01*
Y301354D01*
X430037Y302084D01*
X429624Y302703D01*
X429005Y303116D01*
X428276Y303261D01*
X426827D01*
X426814Y303270D01*
X426564Y303320D01*
X422843Y307041D01*
Y307517D01*
X422844Y307518D01*
X422989Y308248D01*
Y313957D01*
X422844Y314686D01*
X422431Y315305D01*
X421812Y315718D01*
X421083Y315863D01*
X418917D01*
X418188Y315718D01*
X417569Y315305D01*
X417156Y314686D01*
X417011Y313957D01*
Y308248D01*
X417156Y307518D01*
X417569Y306900D01*
X418188Y306487D01*
X418765Y306372D01*
Y306196D01*
X418920Y305415D01*
X419362Y304754D01*
X419982Y304135D01*
X419817Y303592D01*
X419796Y303588D01*
X416247Y307137D01*
Y307999D01*
X416296Y308248D01*
Y313957D01*
X416151Y314686D01*
X415738Y315305D01*
X415119Y315718D01*
X414390Y315863D01*
X412224D01*
X411495Y315718D01*
X410876Y315305D01*
X410463Y314686D01*
X410318Y313957D01*
Y308248D01*
X410463Y307518D01*
X410876Y306900D01*
X411495Y306487D01*
X412169Y306352D01*
Y306292D01*
X412324Y305512D01*
X412766Y304850D01*
X413893Y303723D01*
X413702Y303261D01*
X412724D01*
X411995Y303116D01*
X411711Y302926D01*
X408578Y306059D01*
X408618Y306614D01*
X409045Y306900D01*
X409458Y307518D01*
X409604Y308248D01*
Y313957D01*
X409458Y314686D01*
X409045Y315305D01*
X408427Y315718D01*
X407697Y315863D01*
X405532D01*
X404802Y315718D01*
X404201Y315317D01*
X404097Y315337D01*
X403701Y315483D01*
Y325620D01*
X404097Y325766D01*
X404201Y325786D01*
X404802Y325384D01*
X405532Y325239D01*
X407697D01*
X408427Y325384D01*
X409045Y325797D01*
X409458Y326416D01*
X409604Y327146D01*
Y331684D01*
X409818Y331849D01*
X410318Y331604D01*
Y327146D01*
X410463Y326416D01*
X410876Y325797D01*
X411495Y325384D01*
X412224Y325239D01*
X414390D01*
X415119Y325384D01*
X415738Y325797D01*
X416151Y326416D01*
X416296Y327146D01*
Y331764D01*
X416511Y331930D01*
X417011Y331684D01*
Y327146D01*
X417156Y326416D01*
X417569Y325797D01*
X418188Y325384D01*
X418917Y325239D01*
X421083D01*
X421812Y325384D01*
X422431Y325797D01*
X422844Y326416D01*
X422989Y327146D01*
Y330321D01*
X422998Y330334D01*
X423153Y331114D01*
Y333020D01*
X426975Y336841D01*
X427084D01*
X427813Y336986D01*
X428432Y337400D01*
X428845Y338018D01*
X428990Y338748D01*
Y343192D01*
X429077Y343322D01*
X429232Y344102D01*
X429077Y344883D01*
X428635Y345544D01*
X428583Y345579D01*
X428432Y345805D01*
X427813Y346218D01*
X427084Y346363D01*
X424918D01*
X424189Y346218D01*
X423570Y345805D01*
X423157Y345186D01*
X423011Y344457D01*
Y338751D01*
X422966Y338707D01*
X422763Y338525D01*
X422352Y338722D01*
X422297Y338770D01*
Y344457D01*
X422152Y345186D01*
X421739Y345805D01*
X421120Y346218D01*
X420391Y346363D01*
X418225D01*
X417496Y346218D01*
X416877Y345805D01*
X416464Y345186D01*
X416319Y344457D01*
Y338748D01*
X416464Y338018D01*
X416532Y337916D01*
X413624Y335008D01*
X413509Y335031D01*
X413345Y335574D01*
X413780Y336009D01*
X414222Y336671D01*
X414279Y336957D01*
X414427Y336986D01*
X415046Y337400D01*
X415459Y338018D01*
X415604Y338748D01*
Y344457D01*
X415459Y345186D01*
X415046Y345805D01*
X414427Y346218D01*
X413698Y346363D01*
X411532D01*
X410803Y346218D01*
X410184Y345805D01*
X409771Y345186D01*
X409626Y344457D01*
Y338748D01*
X409771Y338018D01*
X409871Y337868D01*
X406765Y334761D01*
X405532D01*
X404802Y334616D01*
X404201Y334214D01*
X404097Y334234D01*
X403701Y334380D01*
Y335317D01*
X405183Y336799D01*
X405625Y337461D01*
X405780Y338241D01*
Y339568D01*
X406124Y339797D01*
X406537Y340416D01*
X406682Y341146D01*
Y346854D01*
X406537Y347584D01*
X406124Y348203D01*
X405505Y348616D01*
X404776Y348761D01*
D02*
G37*
G36*
X361473Y340878D02*
X360527D01*
X359709Y340539D01*
X354842D01*
X354062Y340384D01*
X353401Y339942D01*
X348220Y334761D01*
X347031D01*
X346302Y334616D01*
X345683Y334203D01*
X345270Y333584D01*
X345125Y332854D01*
Y327146D01*
X345270Y326416D01*
X345683Y325797D01*
X346302Y325384D01*
X347031Y325239D01*
X349197D01*
X349926Y325384D01*
X350545Y325797D01*
X350958Y326416D01*
X351104Y327146D01*
Y331728D01*
X351318Y331894D01*
X351818Y331649D01*
Y327146D01*
X351963Y326416D01*
X352376Y325797D01*
X352864Y325471D01*
Y322058D01*
X352622Y321473D01*
Y320527D01*
X352984Y319653D01*
X353653Y318984D01*
X354527Y318622D01*
X355473D01*
X356347Y318984D01*
X357016Y319653D01*
X357378Y320527D01*
Y321473D01*
X357016Y322347D01*
X356943Y322420D01*
Y325600D01*
X357238Y325797D01*
X357651Y326416D01*
X357797Y327146D01*
Y332854D01*
X357651Y333584D01*
X357238Y334203D01*
X356619Y334616D01*
X355890Y334761D01*
X354641D01*
X354449Y335223D01*
X355687Y336461D01*
X359709D01*
X360527Y336122D01*
X361473D01*
X362347Y336484D01*
X363016Y337153D01*
X363378Y338027D01*
Y338973D01*
X363016Y339847D01*
X362347Y340516D01*
X361473Y340878D01*
D02*
G37*
G36*
X316764Y341055D02*
X312236D01*
X311538Y340963D01*
X310888Y340693D01*
X310330Y340265D01*
X309901Y339706D01*
X309632Y339056D01*
X309540Y338358D01*
Y335012D01*
X309632Y334314D01*
X309901Y333664D01*
X310330Y333105D01*
X310888Y332677D01*
X311538Y332407D01*
X312236Y332315D01*
X316764D01*
X317462Y332407D01*
X318112Y332677D01*
X318670Y333105D01*
X319099Y333664D01*
X319368Y334314D01*
X319460Y335012D01*
Y338358D01*
X319368Y339056D01*
X319099Y339706D01*
X318670Y340265D01*
X318112Y340693D01*
X317462Y340963D01*
X316764Y341055D01*
D02*
G37*
G36*
X315091Y331226D02*
X313909D01*
X312775Y331077D01*
X311718Y330639D01*
X310809Y329942D01*
X310113Y329034D01*
X309675Y327977D01*
X309525Y326842D01*
X309675Y325708D01*
X310113Y324651D01*
X310809Y323743D01*
X311718Y323046D01*
X312775Y322608D01*
X313909Y322459D01*
X315091D01*
X316225Y322608D01*
X317283Y323046D01*
X318191Y323743D01*
X318887Y324651D01*
X319325Y325708D01*
X319475Y326842D01*
X319325Y327977D01*
X318887Y329034D01*
X318191Y329942D01*
X317283Y330639D01*
X316225Y331077D01*
X315091Y331226D01*
D02*
G37*
G36*
X447276Y334761D02*
X445110D01*
X444381Y334616D01*
X443762Y334203D01*
X443349Y333584D01*
X443203Y332854D01*
Y327146D01*
X443349Y326416D01*
X443762Y325797D01*
X444057Y325600D01*
Y322420D01*
X443984Y322347D01*
X443622Y321473D01*
Y320527D01*
X443984Y319653D01*
X444653Y318984D01*
X445527Y318622D01*
X446473D01*
X447347Y318984D01*
X448016Y319653D01*
X448378Y320527D01*
Y321473D01*
X448136Y322058D01*
Y325471D01*
X448624Y325797D01*
X449037Y326416D01*
X449182Y327146D01*
Y332854D01*
X449037Y333584D01*
X448624Y334203D01*
X448005Y334616D01*
X447276Y334761D01*
D02*
G37*
G36*
X439973Y341378D02*
X439027D01*
X438153Y341016D01*
X437484Y340347D01*
X437122Y339473D01*
Y339015D01*
X432868Y334761D01*
X431724D01*
X430995Y334616D01*
X430376Y334203D01*
X429963Y333584D01*
X429818Y332854D01*
Y327146D01*
X429963Y326416D01*
X430376Y325797D01*
X430995Y325384D01*
X431724Y325239D01*
X433890D01*
X434619Y325384D01*
X435238Y325797D01*
X435651Y326416D01*
X435796Y327146D01*
Y331773D01*
X436011Y331939D01*
X436511Y331694D01*
Y327146D01*
X436656Y326416D01*
X437069Y325797D01*
X437688Y325384D01*
X437711Y325379D01*
Y321687D01*
X437622Y321473D01*
Y320527D01*
X437984Y319653D01*
X438653Y318984D01*
X439527Y318622D01*
X440473D01*
X441347Y318984D01*
X442016Y319653D01*
X442378Y320527D01*
Y321473D01*
X442016Y322347D01*
X441789Y322574D01*
Y325703D01*
X441931Y325797D01*
X442344Y326416D01*
X442489Y327146D01*
Y332854D01*
X442344Y333584D01*
X441931Y334203D01*
X441312Y334616D01*
X440583Y334761D01*
X439289D01*
X439097Y335223D01*
X440942Y337067D01*
X440965Y337102D01*
X441516Y337653D01*
X441878Y338527D01*
Y339473D01*
X441516Y340347D01*
X440847Y341016D01*
X439973Y341378D01*
D02*
G37*
G36*
X362583Y334761D02*
X360417D01*
X359688Y334616D01*
X359069Y334203D01*
X358656Y333584D01*
X358511Y332854D01*
Y327146D01*
X358656Y326416D01*
X359069Y325797D01*
X359461Y325536D01*
Y322291D01*
X359122Y321473D01*
Y320527D01*
X359484Y319653D01*
X360153Y318984D01*
X361027Y318622D01*
X361973D01*
X362847Y318984D01*
X363516Y319653D01*
X363878Y320527D01*
Y321473D01*
X363539Y322291D01*
Y325536D01*
X363931Y325797D01*
X364344Y326416D01*
X364489Y327146D01*
Y332854D01*
X364344Y333584D01*
X363931Y334203D01*
X363312Y334616D01*
X362583Y334761D01*
D02*
G37*
G36*
X315091Y321384D02*
X313909D01*
X312775Y321235D01*
X311718Y320797D01*
X310809Y320100D01*
X310113Y319192D01*
X309675Y318135D01*
X309525Y317000D01*
X309675Y315865D01*
X310113Y314808D01*
X310809Y313900D01*
X311718Y313203D01*
X312775Y312765D01*
X313909Y312616D01*
X315091D01*
X316225Y312765D01*
X317283Y313203D01*
X318191Y313900D01*
X318887Y314808D01*
X319325Y315865D01*
X319475Y317000D01*
X319325Y318135D01*
X318887Y319192D01*
X318191Y320100D01*
X317283Y320797D01*
X316225Y321235D01*
X315091Y321384D01*
D02*
G37*
G36*
X362583Y315863D02*
X360417D01*
X359688Y315718D01*
X359069Y315305D01*
X358656Y314686D01*
X358511Y313957D01*
Y309843D01*
X358296Y309680D01*
X357797Y309929D01*
Y313957D01*
X357651Y314686D01*
X357238Y315305D01*
X356619Y315718D01*
X355890Y315863D01*
X353724D01*
X352995Y315718D01*
X352376Y315305D01*
X351963Y314686D01*
X351818Y313957D01*
Y309843D01*
X351604Y309680D01*
X351104Y309929D01*
Y313957D01*
X350958Y314686D01*
X350545Y315305D01*
X349926Y315718D01*
X349197Y315863D01*
X347031D01*
X346302Y315718D01*
X345683Y315305D01*
X345270Y314686D01*
X345125Y313957D01*
Y309885D01*
X344786Y309658D01*
X342172Y307044D01*
X341730Y306383D01*
X341575Y305602D01*
Y303261D01*
X341531D01*
X340802Y303116D01*
X340183Y302703D01*
X339770Y302084D01*
X339625Y301354D01*
Y295646D01*
X339770Y294916D01*
X340183Y294297D01*
X340802Y293884D01*
X341531Y293739D01*
X343697D01*
X344426Y293884D01*
X345045Y294297D01*
X345458Y294916D01*
X345604Y295646D01*
Y299977D01*
X345653Y300227D01*
Y304758D01*
X347102Y306206D01*
X347736Y306332D01*
X348112Y306053D01*
X348193Y305900D01*
X348091Y305747D01*
X347936Y304967D01*
Y303204D01*
X347495Y303116D01*
X346876Y302703D01*
X346463Y302084D01*
X346318Y301354D01*
Y295646D01*
X346463Y294916D01*
X346876Y294297D01*
X347495Y293884D01*
X348224Y293739D01*
X350390D01*
X351119Y293884D01*
X351738Y294297D01*
X352151Y294916D01*
X352296Y295646D01*
Y301354D01*
X352151Y302084D01*
X352014Y302290D01*
Y304122D01*
X354043Y306151D01*
X354245Y306136D01*
X354387Y305904D01*
X354461Y305617D01*
X354072Y305035D01*
X353917Y304255D01*
Y302935D01*
X353569Y302703D01*
X353156Y302084D01*
X353011Y301354D01*
Y295646D01*
X353156Y294916D01*
X353569Y294297D01*
X354188Y293884D01*
X354917Y293739D01*
X357083D01*
X357812Y293884D01*
X358431Y294297D01*
X358844Y294916D01*
X358989Y295646D01*
Y301354D01*
X358844Y302084D01*
X358431Y302703D01*
X358072Y302942D01*
X358040Y303456D01*
X360866Y306282D01*
X361121Y306332D01*
X361135Y306341D01*
X362583D01*
X363312Y306487D01*
X363931Y306900D01*
X364344Y307518D01*
X364489Y308248D01*
Y313957D01*
X364344Y314686D01*
X363931Y315305D01*
X363312Y315718D01*
X362583Y315863D01*
D02*
G37*
G36*
X447276D02*
X445110D01*
X444381Y315718D01*
X443762Y315305D01*
X443349Y314686D01*
X443203Y313957D01*
Y309816D01*
X442703Y309570D01*
X442489Y309736D01*
Y313957D01*
X442344Y314686D01*
X441931Y315305D01*
X441312Y315718D01*
X440583Y315863D01*
X438417D01*
X437688Y315718D01*
X437069Y315305D01*
X436656Y314686D01*
X436511Y313957D01*
Y309816D01*
X436011Y309570D01*
X435796Y309736D01*
Y313957D01*
X435651Y314686D01*
X435238Y315305D01*
X434619Y315718D01*
X433890Y315863D01*
X431724D01*
X430995Y315718D01*
X430376Y315305D01*
X429963Y314686D01*
X429818Y313957D01*
Y308248D01*
X429963Y307518D01*
X430376Y306900D01*
X430995Y306487D01*
X431724Y306341D01*
X433173D01*
X433186Y306332D01*
X433308Y306308D01*
X436310Y303306D01*
X436272Y302762D01*
X436183Y302703D01*
X435770Y302084D01*
X435625Y301354D01*
Y295646D01*
X435770Y294916D01*
X436183Y294297D01*
X436802Y293884D01*
X437532Y293739D01*
X439697D01*
X440426Y293884D01*
X441045Y294297D01*
X441458Y294916D01*
X441604Y295646D01*
Y301354D01*
X441458Y302084D01*
X441045Y302703D01*
X440491Y303073D01*
Y304048D01*
X440336Y304829D01*
X439894Y305490D01*
X439777Y305607D01*
X439961Y306130D01*
X440158Y306151D01*
X442454Y303855D01*
Y302039D01*
X442318Y301354D01*
Y295646D01*
X442463Y294916D01*
X442876Y294297D01*
X443495Y293884D01*
X444224Y293739D01*
X446390D01*
X447119Y293884D01*
X447738Y294297D01*
X448151Y294916D01*
X448296Y295646D01*
Y301354D01*
X448151Y302084D01*
X447738Y302703D01*
X447119Y303116D01*
X446532Y303233D01*
Y304700D01*
X446377Y305480D01*
X446265Y305648D01*
X446538Y306128D01*
X446849Y306153D01*
X448935Y304067D01*
Y299809D01*
X449011Y299429D01*
Y295646D01*
X449156Y294916D01*
X449569Y294297D01*
X450188Y293884D01*
X450917Y293739D01*
X453083D01*
X453812Y293884D01*
X454431Y294297D01*
X454844Y294916D01*
X454989Y295646D01*
Y301354D01*
X454844Y302084D01*
X454431Y302703D01*
X453812Y303116D01*
X453083Y303261D01*
X453013D01*
Y304912D01*
X453013Y304912D01*
X452858Y305692D01*
X452416Y306354D01*
X449182Y309587D01*
Y313957D01*
X449037Y314686D01*
X448624Y315305D01*
X448005Y315718D01*
X447276Y315863D01*
D02*
G37*
G36*
X315591Y285384D02*
X314409D01*
X313275Y285235D01*
X312217Y284797D01*
X311310Y284100D01*
X310613Y283192D01*
X310175Y282135D01*
X310026Y281000D01*
X310175Y279865D01*
X310613Y278808D01*
X311310Y277900D01*
X312217Y277203D01*
X313275Y276765D01*
X314409Y276616D01*
X315591D01*
X316725Y276765D01*
X317782Y277203D01*
X318690Y277900D01*
X319387Y278808D01*
X319825Y279865D01*
X319974Y281000D01*
X319825Y282135D01*
X319387Y283192D01*
X318690Y284100D01*
X317782Y284797D01*
X316725Y285235D01*
X315591Y285384D01*
D02*
G37*
G36*
X428276Y284363D02*
X426110D01*
X425381Y284218D01*
X424762Y283805D01*
X424349Y283186D01*
X424203Y282457D01*
Y276748D01*
X424349Y276018D01*
X424649Y275569D01*
X423001Y273920D01*
X422539Y274112D01*
Y275138D01*
X422931Y275400D01*
X423344Y276018D01*
X423489Y276748D01*
Y282457D01*
X423344Y283186D01*
X422931Y283805D01*
X422312Y284218D01*
X421583Y284363D01*
X419417D01*
X418688Y284218D01*
X418069Y283805D01*
X417656Y283186D01*
X417511Y282457D01*
Y276748D01*
X417656Y276018D01*
X418069Y275400D01*
X418461Y275138D01*
Y274112D01*
X417999Y273920D01*
X416351Y275569D01*
X416651Y276018D01*
X416796Y276748D01*
Y282457D01*
X416651Y283186D01*
X416238Y283805D01*
X415619Y284218D01*
X414890Y284363D01*
X412724D01*
X411995Y284218D01*
X411376Y283805D01*
X410963Y283186D01*
X410818Y282457D01*
Y276748D01*
X410963Y276018D01*
X411376Y275400D01*
X411789Y275124D01*
X411923Y274448D01*
X412365Y273786D01*
X415152Y271000D01*
X410309Y266157D01*
X409867Y265496D01*
X409712Y264715D01*
Y257613D01*
Y255276D01*
X405817Y251381D01*
X405312Y251718D01*
X404583Y251863D01*
X402417D01*
X401688Y251718D01*
X401415Y251536D01*
X399231Y253720D01*
Y256671D01*
X399378Y257027D01*
Y257973D01*
X399016Y258847D01*
X398347Y259516D01*
X397473Y259878D01*
X396527D01*
X395653Y259516D01*
X394984Y258847D01*
X394622Y257973D01*
Y257027D01*
X394984Y256153D01*
X395152Y255985D01*
Y254103D01*
X392431Y251381D01*
X391927Y251718D01*
X391197Y251863D01*
X389032D01*
X388302Y251718D01*
X388029Y251536D01*
X384914Y254650D01*
Y257045D01*
X384914Y257045D01*
X384914Y257045D01*
Y264896D01*
X384759Y265677D01*
X384317Y266338D01*
X379656Y271000D01*
X382442Y273786D01*
X382884Y274448D01*
X383018Y275124D01*
X383431Y275400D01*
X383844Y276018D01*
X383989Y276748D01*
Y282457D01*
X383844Y283186D01*
X383431Y283805D01*
X382812Y284218D01*
X382083Y284363D01*
X379917D01*
X379188Y284218D01*
X378569Y283805D01*
X378156Y283186D01*
X378011Y282457D01*
Y276748D01*
X378156Y276018D01*
X378456Y275569D01*
X376808Y273920D01*
X376346Y274112D01*
Y275138D01*
X376738Y275400D01*
X377151Y276018D01*
X377296Y276748D01*
Y282457D01*
X377151Y283186D01*
X376738Y283805D01*
X376119Y284218D01*
X375390Y284363D01*
X373224D01*
X372495Y284218D01*
X371876Y283805D01*
X371463Y283186D01*
X371318Y282457D01*
Y276748D01*
X371463Y276018D01*
X371876Y275400D01*
X372268Y275138D01*
Y274112D01*
X371806Y273920D01*
X370158Y275569D01*
X370458Y276018D01*
X370604Y276748D01*
Y282457D01*
X370458Y283186D01*
X370045Y283805D01*
X369426Y284218D01*
X368697Y284363D01*
X366531D01*
X365802Y284218D01*
X365183Y283805D01*
X364770Y283186D01*
X364625Y282457D01*
Y276748D01*
X364770Y276018D01*
X365183Y275400D01*
X365596Y275124D01*
X365730Y274448D01*
X366172Y273786D01*
X370401Y269558D01*
X371062Y269116D01*
X371843Y268961D01*
X375927D01*
X377444Y267443D01*
X377253Y266982D01*
X373146D01*
X372416Y266836D01*
X371797Y266423D01*
X371384Y265804D01*
X371239Y265075D01*
Y262909D01*
X371384Y262180D01*
X371797Y261561D01*
X372416Y261148D01*
X373146Y261003D01*
X374118D01*
X374315Y260789D01*
X374282Y260612D01*
X374043Y260289D01*
X373146D01*
X372416Y260143D01*
X371797Y259730D01*
X371384Y259111D01*
X371239Y258382D01*
Y256217D01*
X371384Y255487D01*
X371797Y254868D01*
X372416Y254455D01*
X373146Y254310D01*
X374118D01*
X374304Y254096D01*
X374188Y253744D01*
X374054Y253596D01*
X373146D01*
X372416Y253450D01*
X371797Y253037D01*
X371384Y252419D01*
X371239Y251689D01*
Y249524D01*
X371384Y248794D01*
X371797Y248175D01*
X372416Y247762D01*
X373146Y247617D01*
X374390D01*
X374558Y247365D01*
X375220Y246923D01*
X376000Y246768D01*
X377727D01*
X378507Y246923D01*
X379169Y247365D01*
X379561Y247758D01*
X379584Y247762D01*
X380203Y248175D01*
X380616Y248794D01*
X380621Y248817D01*
X382801Y250997D01*
X387125Y246673D01*
Y244248D01*
X387270Y243518D01*
X387683Y242900D01*
X388302Y242487D01*
X389032Y242341D01*
X391197D01*
X391927Y242487D01*
X392545Y242900D01*
X392958Y243518D01*
X393104Y244248D01*
Y246138D01*
X393318Y246304D01*
X393818Y246059D01*
Y244248D01*
X393963Y243518D01*
X394376Y242900D01*
X394995Y242487D01*
X395724Y242341D01*
X397890D01*
X398619Y242487D01*
X399238Y242900D01*
X399651Y243518D01*
X399797Y244248D01*
Y246444D01*
X400296Y246689D01*
X400511Y246523D01*
Y244248D01*
X400656Y243518D01*
X401069Y242900D01*
X401688Y242487D01*
X401724Y242479D01*
X401809Y242050D01*
X402251Y241389D01*
X402913Y240947D01*
X403693Y240792D01*
X404473Y240947D01*
X405135Y241389D01*
X405577Y242050D01*
X405718Y242757D01*
X405931Y242900D01*
X406344Y243518D01*
X406489Y244248D01*
Y246287D01*
X411751Y251548D01*
X413828Y249471D01*
X413884Y249188D01*
X414297Y248569D01*
X414916Y248156D01*
X415199Y248099D01*
X415434Y247865D01*
X416095Y247423D01*
X416876Y247268D01*
X418602D01*
X419383Y247423D01*
X420044Y247865D01*
X420142Y248011D01*
X421354D01*
X422084Y248156D01*
X422703Y248569D01*
X423116Y249188D01*
X423261Y249917D01*
Y252083D01*
X423116Y252812D01*
X422703Y253431D01*
X422084Y253844D01*
X421354Y253989D01*
X420437D01*
X420195Y254489D01*
X420363Y254703D01*
X421354D01*
X422084Y254849D01*
X422703Y255262D01*
X423116Y255881D01*
X423261Y256610D01*
Y258776D01*
X423116Y259505D01*
X422703Y260124D01*
X422084Y260537D01*
X421354Y260682D01*
X420437D01*
X420195Y261182D01*
X420363Y261396D01*
X421354D01*
X422084Y261542D01*
X422703Y261955D01*
X423116Y262574D01*
X423261Y263303D01*
Y265469D01*
X423116Y266198D01*
X422703Y266817D01*
X422084Y267230D01*
X421354Y267375D01*
X417948D01*
X417756Y267837D01*
X418880Y268961D01*
X422965D01*
X423745Y269116D01*
X424406Y269558D01*
X428635Y273786D01*
X429077Y274448D01*
X429211Y275124D01*
X429624Y275400D01*
X430037Y276018D01*
X430182Y276748D01*
Y282457D01*
X430037Y283186D01*
X429624Y283805D01*
X429005Y284218D01*
X428276Y284363D01*
D02*
G37*
G36*
X357083D02*
X354917D01*
X354188Y284218D01*
X353569Y283805D01*
X353156Y283186D01*
X353011Y282457D01*
Y276748D01*
X353156Y276018D01*
X353569Y275400D01*
X354188Y274987D01*
X354917Y274841D01*
X355012D01*
Y266982D01*
X354248D01*
X353518Y266836D01*
X352900Y266423D01*
X352846Y266343D01*
X352346Y266495D01*
Y279602D01*
X352296Y279853D01*
Y282457D01*
X352151Y283186D01*
X351738Y283805D01*
X351119Y284218D01*
X350390Y284363D01*
X348224D01*
X347495Y284218D01*
X346876Y283805D01*
X346463Y283186D01*
X346318Y282457D01*
Y276748D01*
X346463Y276018D01*
X346876Y275400D01*
X347495Y274987D01*
X348224Y274841D01*
X348268D01*
Y260524D01*
X348423Y259743D01*
X348865Y259082D01*
X352540Y255407D01*
X352900Y254868D01*
X353439Y254508D01*
X353645Y254302D01*
X353504Y253736D01*
X353336Y253685D01*
X345653Y261368D01*
Y279602D01*
X345604Y279853D01*
Y282457D01*
X345458Y283186D01*
X345045Y283805D01*
X344426Y284218D01*
X343697Y284363D01*
X341531D01*
X340802Y284218D01*
X340183Y283805D01*
X339770Y283186D01*
X339625Y282457D01*
Y276748D01*
X339770Y276018D01*
X340183Y275400D01*
X340802Y274987D01*
X341531Y274841D01*
X341575D01*
Y260524D01*
X341730Y259743D01*
X342172Y259082D01*
X352540Y248714D01*
X352900Y248175D01*
X353439Y247815D01*
X353889Y247365D01*
X354550Y246923D01*
X355331Y246768D01*
X357102D01*
X357883Y246923D01*
X358544Y247365D01*
X358713Y247617D01*
X359957D01*
X360686Y247762D01*
X361305Y248175D01*
X361718Y248794D01*
X361863Y249524D01*
Y251689D01*
X361718Y252419D01*
X361305Y253037D01*
X360686Y253450D01*
X359957Y253596D01*
X359060D01*
X358820Y253919D01*
X358787Y254096D01*
X358984Y254310D01*
X359957D01*
X360686Y254455D01*
X361305Y254868D01*
X361718Y255487D01*
X361863Y256217D01*
Y258382D01*
X361718Y259111D01*
X361305Y259730D01*
X360686Y260143D01*
X359957Y260289D01*
X359060D01*
X358820Y260612D01*
X358787Y260789D01*
X358984Y261003D01*
X359957D01*
X360686Y261148D01*
X361305Y261561D01*
X361718Y262180D01*
X361863Y262909D01*
Y265075D01*
X361718Y265804D01*
X361305Y266423D01*
X360686Y266836D01*
X359957Y266982D01*
X359090D01*
Y279551D01*
X358989Y280059D01*
Y282457D01*
X358844Y283186D01*
X358431Y283805D01*
X357812Y284218D01*
X357083Y284363D01*
D02*
G37*
G36*
X404776D02*
X402610D01*
X401881Y284218D01*
X401262Y283805D01*
X400849Y283186D01*
X400703Y282457D01*
Y276748D01*
X400849Y276018D01*
X401262Y275400D01*
X401654Y275138D01*
Y270593D01*
X401069Y270203D01*
X400656Y269584D01*
X400511Y268854D01*
Y263146D01*
X400656Y262416D01*
X401069Y261797D01*
X401688Y261384D01*
X402417Y261239D01*
X404583D01*
X405312Y261384D01*
X405931Y261797D01*
X406344Y262416D01*
X406489Y263146D01*
Y268854D01*
X406344Y269584D01*
X405931Y270203D01*
X405732Y270335D01*
Y275138D01*
X406124Y275400D01*
X406537Y276018D01*
X406682Y276748D01*
Y282457D01*
X406537Y283186D01*
X406124Y283805D01*
X405505Y284218D01*
X404776Y284363D01*
D02*
G37*
G36*
X398083D02*
X395917D01*
X395188Y284218D01*
X394569Y283805D01*
X394156Y283186D01*
X394011Y282457D01*
Y276748D01*
X394156Y276018D01*
X394569Y275400D01*
X394961Y275138D01*
Y270593D01*
X394376Y270203D01*
X393963Y269584D01*
X393818Y268854D01*
Y263146D01*
X393963Y262416D01*
X394376Y261797D01*
X394995Y261384D01*
X395724Y261239D01*
X397890D01*
X398619Y261384D01*
X399238Y261797D01*
X399651Y262416D01*
X399797Y263146D01*
Y268854D01*
X399651Y269584D01*
X399238Y270203D01*
X399039Y270335D01*
Y275138D01*
X399431Y275400D01*
X399844Y276018D01*
X399989Y276748D01*
Y282457D01*
X399844Y283186D01*
X399431Y283805D01*
X398812Y284218D01*
X398083Y284363D01*
D02*
G37*
G36*
X391390D02*
X389224D01*
X388495Y284218D01*
X387876Y283805D01*
X387463Y283186D01*
X387318Y282457D01*
Y276748D01*
X387463Y276018D01*
X387876Y275400D01*
X388268Y275138D01*
Y270593D01*
X387683Y270203D01*
X387270Y269584D01*
X387125Y268854D01*
Y263146D01*
X387270Y262416D01*
X387683Y261797D01*
X388302Y261384D01*
X389032Y261239D01*
X391197D01*
X391927Y261384D01*
X392545Y261797D01*
X392958Y262416D01*
X393104Y263146D01*
Y268854D01*
X392958Y269584D01*
X392545Y270203D01*
X392346Y270335D01*
Y275138D01*
X392738Y275400D01*
X393151Y276018D01*
X393297Y276748D01*
Y282457D01*
X393151Y283186D01*
X392738Y283805D01*
X392119Y284218D01*
X391390Y284363D01*
D02*
G37*
G36*
X453083D02*
X450917D01*
X450188Y284218D01*
X449569Y283805D01*
X449156Y283186D01*
X449011Y282457D01*
Y276748D01*
X449156Y276018D01*
X449569Y275400D01*
X449847Y275214D01*
Y261459D01*
X441993Y253605D01*
X441780Y253694D01*
X441714Y254251D01*
X446635Y259172D01*
X447077Y259834D01*
X447232Y260614D01*
X447232Y260614D01*
Y275062D01*
X447738Y275400D01*
X448151Y276018D01*
X448296Y276748D01*
Y282457D01*
X448151Y283186D01*
X447738Y283805D01*
X447119Y284218D01*
X446390Y284363D01*
X444224D01*
X443495Y284218D01*
X442876Y283805D01*
X442463Y283186D01*
X442318Y282457D01*
Y276748D01*
X442463Y276018D01*
X442876Y275400D01*
X443154Y275214D01*
Y261459D01*
X441799Y260104D01*
X441600Y260124D01*
X440982Y260537D01*
X440516Y260630D01*
X440285Y261120D01*
X440485Y261443D01*
X440982Y261542D01*
X441600Y261955D01*
X442014Y262574D01*
X442159Y263303D01*
Y265469D01*
X442014Y266198D01*
X441600Y266817D01*
X440982Y267230D01*
X440539Y267318D01*
Y275062D01*
X441045Y275400D01*
X441458Y276018D01*
X441604Y276748D01*
Y282457D01*
X441458Y283186D01*
X441045Y283805D01*
X440426Y284218D01*
X439697Y284363D01*
X437532D01*
X436802Y284218D01*
X436183Y283805D01*
X435770Y283186D01*
X435625Y282457D01*
Y276748D01*
X435770Y276018D01*
X436183Y275400D01*
X436461Y275214D01*
Y267375D01*
X434543D01*
X433814Y267230D01*
X433195Y266817D01*
X432782Y266198D01*
X432637Y265469D01*
Y263303D01*
X432782Y262574D01*
X433195Y261955D01*
X433814Y261542D01*
X434543Y261396D01*
X436446D01*
X436575Y261182D01*
X436291Y260682D01*
X434543D01*
X433814Y260537D01*
X433195Y260124D01*
X432782Y259505D01*
X432637Y258776D01*
Y256610D01*
X432782Y255881D01*
X433195Y255262D01*
X433814Y254849D01*
X434543Y254703D01*
X436446D01*
X436575Y254489D01*
X436291Y253989D01*
X434543D01*
X433814Y253844D01*
X433195Y253431D01*
X432782Y252812D01*
X432637Y252083D01*
Y249917D01*
X432782Y249188D01*
X433195Y248569D01*
X433814Y248156D01*
X434543Y248011D01*
X436756D01*
X437058Y247558D01*
X437720Y247116D01*
X438500Y246961D01*
X440272D01*
X441052Y247116D01*
X441714Y247558D01*
X453328Y259172D01*
X453770Y259834D01*
X453925Y260614D01*
Y275062D01*
X454431Y275400D01*
X454844Y276018D01*
X454989Y276748D01*
Y282457D01*
X454844Y283186D01*
X454431Y283805D01*
X453812Y284218D01*
X453083Y284363D01*
D02*
G37*
%LPD*%
D12*
X418500Y251000D02*
D03*
Y257693D02*
D03*
Y264386D02*
D03*
X437398Y251000D02*
D03*
Y257693D02*
D03*
Y264386D02*
D03*
X376000Y263992D02*
D03*
Y257299D02*
D03*
Y250606D02*
D03*
X357102Y263992D02*
D03*
Y257299D02*
D03*
Y250606D02*
D03*
D13*
X380945Y341602D02*
D03*
X374252D02*
D03*
X367559D02*
D03*
X380945Y360500D02*
D03*
X374252D02*
D03*
X367559D02*
D03*
X426001Y341602D02*
D03*
X419308D02*
D03*
X412615D02*
D03*
X426001Y360500D02*
D03*
X419308D02*
D03*
X412615D02*
D03*
X427193Y279602D02*
D03*
X420500D02*
D03*
X413807D02*
D03*
X427193Y298500D02*
D03*
X420500D02*
D03*
X413807D02*
D03*
X390307Y362898D02*
D03*
X397000D02*
D03*
X403693D02*
D03*
X390307Y344000D02*
D03*
X397000D02*
D03*
X403693D02*
D03*
X342614Y298500D02*
D03*
X349307D02*
D03*
X356000D02*
D03*
X342614Y279602D02*
D03*
X349307D02*
D03*
X356000D02*
D03*
X446193Y311102D02*
D03*
X439500D02*
D03*
X432807D02*
D03*
X446193Y330000D02*
D03*
X439500D02*
D03*
X432807D02*
D03*
X390114Y266000D02*
D03*
X396807D02*
D03*
X403500D02*
D03*
X390114Y247102D02*
D03*
X396807D02*
D03*
X403500D02*
D03*
X390307Y298500D02*
D03*
X397000D02*
D03*
X403693D02*
D03*
X390307Y279602D02*
D03*
X397000D02*
D03*
X403693D02*
D03*
X406614Y330000D02*
D03*
X413307D02*
D03*
X420000D02*
D03*
X406614Y311102D02*
D03*
X413307D02*
D03*
X420000D02*
D03*
X361500D02*
D03*
X354807D02*
D03*
X348114D02*
D03*
X361500Y330000D02*
D03*
X354807D02*
D03*
X348114D02*
D03*
X374614D02*
D03*
X381307D02*
D03*
X388000D02*
D03*
X374614Y311102D02*
D03*
X381307D02*
D03*
X388000D02*
D03*
X367614Y298500D02*
D03*
X374307D02*
D03*
X381000D02*
D03*
X367614Y279602D02*
D03*
X374307D02*
D03*
X381000D02*
D03*
X452000D02*
D03*
X445307D02*
D03*
X438614D02*
D03*
X452000Y298500D02*
D03*
X445307D02*
D03*
X438614D02*
D03*
D20*
X419404Y351596D02*
Y360404D01*
X426000Y351500D02*
Y360500D01*
X367500Y370000D02*
X367530Y369970D01*
X374376Y350624D02*
Y360376D01*
X412500Y370500D02*
X412558Y370443D01*
X380972Y350528D02*
Y360472D01*
X426000Y351500D02*
X426000Y351500D01*
X367530Y360529D02*
Y369970D01*
X374376Y350624D02*
X374500Y350500D01*
X412558Y360558D02*
Y370443D01*
X390404Y362994D02*
Y372404D01*
X380972Y350528D02*
X381000Y350500D01*
X390404Y372404D02*
X390500Y372500D01*
X397000Y352500D02*
Y362898D01*
X361500Y321000D02*
Y330000D01*
X354904Y321096D02*
X355000Y321000D01*
X446097Y321096D02*
Y329904D01*
X354904Y321096D02*
Y329904D01*
X419404Y351596D02*
X419500Y351500D01*
X439500Y338509D02*
Y339000D01*
X446000Y321000D02*
X446097Y321096D01*
X354842Y338500D02*
X361000D01*
X397191Y252876D02*
Y257309D01*
X397000Y257500D02*
X397191Y257309D01*
X432807Y331816D02*
X439500Y338509D01*
X432807Y330000D02*
Y331816D01*
X403847Y352654D02*
Y362744D01*
Y352654D02*
X404000Y352500D01*
X403693Y362898D02*
X403847Y362744D01*
X439750Y321250D02*
X440000Y321000D01*
X439750Y321250D02*
Y329750D01*
X439500Y330000D02*
X439750Y329750D01*
X354807Y330000D02*
X354904Y329904D01*
X348114Y331772D02*
X354842Y338500D01*
X348114Y330000D02*
Y331772D01*
X374252Y360500D02*
X374376Y360376D01*
X380945Y360500D02*
X380972Y360472D01*
X367530Y360529D02*
X367559Y360500D01*
X390307Y362898D02*
X390404Y362994D01*
X412558Y360558D02*
X412615Y360500D01*
X419308D02*
X419404Y360404D01*
X426000Y360500D02*
X426001Y360500D01*
X446097Y329904D02*
X446193Y330000D01*
X390307Y340975D02*
X391338D01*
X390307D02*
Y344000D01*
Y338193D02*
Y340975D01*
X397000Y244602D02*
Y252876D01*
X397191D02*
X403693Y246374D01*
X390307D02*
X396809Y252876D01*
X420804Y306196D02*
X425614Y301386D01*
X426034D01*
X420804Y306196D02*
Y310298D01*
X420000Y311102D02*
X420804Y310298D01*
X427193Y298500D02*
Y300227D01*
X426034Y301386D02*
X427193Y300227D01*
X414208Y306292D02*
Y310202D01*
Y306292D02*
X419114Y301386D01*
X420000Y296500D02*
Y300727D01*
X419341Y301386D02*
X420000Y300727D01*
X413307Y311102D02*
X414208Y310202D01*
X419114Y301386D02*
X419341D01*
X374307Y300227D02*
X375466Y301386D01*
X375886D02*
X380599Y306099D01*
Y309009D01*
X381020Y309429D01*
X374307Y298500D02*
Y300227D01*
X375466Y301386D02*
X375886D01*
X368728Y299614D02*
Y302188D01*
X367614Y298500D02*
X368728Y299614D01*
X373500Y306959D02*
Y308172D01*
X373828Y308500D01*
X375000D01*
X368728Y302188D02*
X373500Y306959D01*
X376000Y248807D02*
X377727D01*
X376000Y262193D02*
X377727D01*
X403693Y244602D02*
Y246374D01*
Y242831D02*
Y244602D01*
Y246374D02*
X411751Y254432D01*
Y257613D02*
Y264715D01*
Y256000D02*
X418602D01*
X416831Y262693D02*
X418602D01*
X411751Y257613D02*
X416831Y262693D01*
X411751Y256000D02*
Y257613D01*
Y254432D02*
Y256000D01*
Y254432D02*
X416876Y249307D01*
X411751Y254432D02*
Y254432D01*
Y264715D02*
X418035Y271000D01*
X382875Y255425D02*
Y257045D01*
Y253806D02*
Y255425D01*
X376000Y255500D02*
X376075Y255425D01*
X382875D01*
X377727Y248807D02*
X382801Y253881D01*
Y253881D01*
X371843Y271000D02*
X374307D01*
X376772D01*
X377727Y262193D02*
X382875Y257045D01*
Y264896D01*
Y253806D02*
X390307Y246374D01*
X376772Y271000D02*
X382875Y264896D01*
X374307Y271000D02*
Y277000D01*
X420500Y271000D02*
X422965D01*
X418035D02*
X420500D01*
Y277000D01*
X376772Y271000D02*
X381000Y275228D01*
Y277000D01*
X367614Y275228D02*
X371843Y271000D01*
X367614Y275228D02*
Y277000D01*
X413807Y275228D02*
X418035Y271000D01*
X413807Y275228D02*
Y277000D01*
X422965Y271000D02*
X427193Y275228D01*
Y277000D01*
X416876Y249307D02*
X418602D01*
X412693Y297114D02*
Y299061D01*
X406417Y305337D02*
X412693Y299061D01*
Y297114D02*
X413307Y296500D01*
X374786Y338178D02*
Y342316D01*
X381307Y330000D02*
Y331727D01*
X374786Y338178D02*
X380079Y332886D01*
X380148D01*
X381307Y331727D01*
X374000Y343102D02*
X374786Y342316D01*
X413307Y331807D02*
X418991Y337491D01*
X413307Y330000D02*
Y331807D01*
X418991Y342593D02*
X420196Y343798D01*
X418991Y337491D02*
Y342593D01*
X421114Y333864D02*
X426667Y339417D01*
X421114Y331114D02*
Y333864D01*
X426667Y343577D02*
X427193Y344102D01*
X420000Y330000D02*
X421114Y331114D01*
X426667Y339417D02*
Y343577D01*
X412338Y337451D02*
Y342826D01*
X406921Y332034D02*
X412338Y337451D01*
X381651Y338349D02*
X386886Y333114D01*
X381651Y338349D02*
Y342145D01*
X386886Y330500D02*
Y333114D01*
X380693Y343102D02*
X381651Y342145D01*
X386886Y330500D02*
X388386Y329000D01*
X390307Y338193D02*
X392500Y336000D01*
Y301000D02*
Y336000D01*
X403693Y344000D02*
X403741Y343952D01*
Y338241D02*
Y343952D01*
X401661Y336161D02*
X403741Y338241D01*
X401661Y300839D02*
Y336161D01*
X391009Y299509D02*
X392500Y301000D01*
X391009Y295202D02*
Y299509D01*
X367500Y342831D02*
X368054Y342277D01*
X373500Y330500D02*
Y334000D01*
X368054Y339446D02*
X373500Y334000D01*
X368054Y339446D02*
Y342277D01*
X349975Y299168D02*
Y304967D01*
X353224Y308216D01*
X353648D01*
X355307Y309875D01*
Y310602D01*
X346955Y308216D02*
X348614Y309875D01*
Y310602D01*
X343614Y300227D02*
Y305602D01*
X346228Y308216D02*
X346955D01*
X343614Y305602D02*
X346228Y308216D01*
X349307Y298500D02*
X349975Y299168D01*
X445886Y309682D02*
Y310000D01*
X450974Y299809D02*
Y304912D01*
X445886Y309682D02*
X447352Y308216D01*
X447669D01*
X450974Y304912D01*
X439193Y309682D02*
Y310000D01*
X440976Y308216D02*
X444493Y304700D01*
Y299597D02*
Y304700D01*
X439193Y309682D02*
X440659Y308216D01*
X440976D01*
X355956Y298544D02*
X356000Y298500D01*
X355956Y298544D02*
Y304255D01*
X359917Y308216D01*
X434284D02*
X438452Y304048D01*
Y298946D02*
Y304048D01*
Y298946D02*
X438500Y298898D01*
X406417Y310905D02*
X406614Y311102D01*
X406417Y305337D02*
Y310905D01*
X359917Y308216D02*
X360341D01*
X362000Y309875D02*
Y310602D01*
X360341Y308216D02*
X362000Y309875D01*
X433966Y308216D02*
X434284D01*
X432500Y309682D02*
X433966Y308216D01*
X444493Y299597D02*
X445193Y298898D01*
X450974Y299809D02*
X451886Y298898D01*
X373500Y330500D02*
X373886Y330114D01*
X397096Y345506D02*
X397193Y345602D01*
X438500Y262386D02*
Y279500D01*
X451886Y260614D02*
Y280000D01*
X445193Y260614D02*
Y280000D01*
X440272Y255693D02*
X445193Y260614D01*
X438500Y249000D02*
X440272D01*
X438500Y255693D02*
X440272D01*
Y249000D02*
X451886Y260614D01*
X397096Y294597D02*
Y345506D01*
X343614Y260524D02*
X355331Y248807D01*
X343614Y260524D02*
Y279602D01*
X380386Y297727D02*
X381545Y298886D01*
X357051Y262244D02*
Y279551D01*
X350307Y260524D02*
Y279602D01*
X357000D02*
X357051Y279551D01*
X381545Y298886D02*
X381886D01*
X380386Y296000D02*
Y297727D01*
X355331Y248807D02*
X357102D01*
X350307Y260524D02*
X355331Y255500D01*
X357051Y262244D02*
X357102Y262193D01*
X355331Y255500D02*
X357102D01*
X390307Y294500D02*
X391009Y295202D01*
X397000Y294500D02*
X397096Y294597D01*
X390307Y263500D02*
Y275602D01*
X402991Y295202D02*
X403693Y294500D01*
X401661Y300839D02*
X402991Y299509D01*
Y295202D02*
Y299509D01*
X397000Y263500D02*
Y275602D01*
X403693Y263500D02*
Y275602D01*
X381886Y298886D02*
X387894Y304894D01*
X387829Y310660D02*
X387894Y310594D01*
Y304894D02*
Y310594D01*
D21*
X314500Y336685D02*
D03*
X315000Y290843D02*
D03*
D22*
X314500Y326842D02*
D03*
Y317000D02*
D03*
X315000Y281000D02*
D03*
D23*
X395000Y228500D02*
D03*
X342000Y363000D02*
D03*
D24*
X452756Y334646D02*
D03*
X462598Y314961D02*
D03*
X452756Y255906D02*
D03*
X433071Y295276D02*
D03*
X423228Y236221D02*
D03*
X374016Y374016D02*
D03*
Y216535D02*
D03*
X354331Y374016D02*
D03*
X324803Y354331D02*
D03*
Y314961D02*
D03*
Y275591D02*
D03*
X314961Y255906D02*
D03*
X324803Y236221D02*
D03*
X295276Y334646D02*
D03*
X305118Y314961D02*
D03*
X295276Y295276D02*
D03*
X305118Y275591D02*
D03*
X446000Y321000D02*
D03*
X390500Y372500D02*
D03*
X367500Y370000D02*
D03*
X419500Y351500D02*
D03*
X355000Y321000D02*
D03*
X381000Y350500D02*
D03*
X361500Y321000D02*
D03*
X439500Y339000D02*
D03*
X426000Y351500D02*
D03*
X412500Y370500D02*
D03*
X397000Y257500D02*
D03*
X440000Y321000D02*
D03*
X374500Y350500D02*
D03*
X353000Y343000D02*
D03*
X404000Y352500D02*
D03*
X397000D02*
D03*
X361000Y338500D02*
D03*
M02*
