G04*
G04 #@! TF.GenerationSoftware,Altium Limited,Altium Designer,21.4.1 (30)*
G04*
G04 Layer_Color=65535*
%FSLAX25Y25*%
%MOIN*%
G70*
G04*
G04 #@! TF.SameCoordinates,C5A25FCA-50C6-4F6C-8C9A-811C773B13C6*
G04*
G04*
G04 #@! TF.FilePolarity,Positive*
G04*
G01*
G75*
%ADD10C,0.00799*%
%ADD11C,0.00799*%
D10*
X333126Y309749D02*
Y306251D01*
X334876D01*
X335459Y306834D01*
Y309166D01*
X334876Y309749D01*
X333126D01*
X336625Y306251D02*
X337792D01*
X337208D01*
Y309749D01*
X336625Y309166D01*
X341874Y309749D02*
X339541D01*
Y308000D01*
X340707Y308583D01*
X341290D01*
X341874Y308000D01*
Y306834D01*
X341290Y306251D01*
X340124D01*
X339541Y306834D01*
X355685Y366749D02*
Y363251D01*
X357435D01*
X358018Y363834D01*
Y366166D01*
X357435Y366749D01*
X355685D01*
X359184Y363251D02*
X360351D01*
X359768D01*
Y366749D01*
X359184Y366166D01*
X363849Y363251D02*
Y366749D01*
X362100Y365000D01*
X364433D01*
X430626Y367647D02*
Y364148D01*
X432376D01*
X432959Y364731D01*
Y367064D01*
X432376Y367647D01*
X430626D01*
X434125Y364148D02*
X435292D01*
X434708D01*
Y367647D01*
X434125Y367064D01*
X437041D02*
X437624Y367647D01*
X438790D01*
X439374Y367064D01*
Y366481D01*
X438790Y365898D01*
X438207D01*
X438790D01*
X439374Y365315D01*
Y364731D01*
X438790Y364148D01*
X437624D01*
X437041Y364731D01*
X400626Y371749D02*
Y368251D01*
X402376D01*
X402959Y368834D01*
Y371166D01*
X402376Y371749D01*
X400626D01*
X404125Y368251D02*
X405292D01*
X404708D01*
Y371749D01*
X404125Y371166D01*
X409374Y368251D02*
X407041D01*
X409374Y370583D01*
Y371166D01*
X408790Y371749D01*
X407624D01*
X407041Y371166D01*
X452210Y310249D02*
Y306751D01*
X453959D01*
X454542Y307334D01*
Y309666D01*
X453959Y310249D01*
X452210D01*
X455708Y306751D02*
X456875D01*
X456292D01*
Y310249D01*
X455708Y309666D01*
X458624Y306751D02*
X459790D01*
X459207D01*
Y310249D01*
X458624Y309666D01*
X365084Y309249D02*
Y305751D01*
X366834D01*
X367417Y306334D01*
Y308666D01*
X366834Y309249D01*
X365084D01*
X368583Y306334D02*
X369166Y305751D01*
X370333D01*
X370916Y306334D01*
Y308666D01*
X370333Y309249D01*
X369166D01*
X368583Y308666D01*
Y308083D01*
X369166Y307500D01*
X370916D01*
X406084Y274749D02*
Y271251D01*
X407834D01*
X408417Y271834D01*
Y274166D01*
X407834Y274749D01*
X406084D01*
X409583Y274166D02*
X410166Y274749D01*
X411333D01*
X411916Y274166D01*
Y273583D01*
X411333Y273000D01*
X411916Y272417D01*
Y271834D01*
X411333Y271251D01*
X410166D01*
X409583Y271834D01*
Y272417D01*
X410166Y273000D01*
X409583Y273583D01*
Y274166D01*
X410166Y273000D02*
X411333D01*
X423584Y309249D02*
Y305751D01*
X425334D01*
X425917Y306334D01*
Y308666D01*
X425334Y309249D01*
X423584D01*
X427083D02*
X429416D01*
Y308666D01*
X427083Y306334D01*
Y305751D01*
X455584Y277749D02*
Y274251D01*
X457334D01*
X457917Y274834D01*
Y277166D01*
X457334Y277749D01*
X455584D01*
X461416D02*
X460249Y277166D01*
X459083Y276000D01*
Y274834D01*
X459666Y274251D01*
X460833D01*
X461416Y274834D01*
Y275417D01*
X460833Y276000D01*
X459083D01*
X372084Y245049D02*
Y241550D01*
X373834D01*
X374417Y242133D01*
Y244465D01*
X373834Y245049D01*
X372084D01*
X377916D02*
X375583D01*
Y243299D01*
X376749Y243882D01*
X377333D01*
X377916Y243299D01*
Y242133D01*
X377333Y241550D01*
X376166D01*
X375583Y242133D01*
X361084Y274352D02*
Y270853D01*
X362834D01*
X363417Y271436D01*
Y273769D01*
X362834Y274352D01*
X361084D01*
X366333Y270853D02*
Y274352D01*
X364583Y272602D01*
X366916D01*
X405891Y242249D02*
Y238751D01*
X407641D01*
X408224Y239334D01*
Y241666D01*
X407641Y242249D01*
X405891D01*
X409390Y241666D02*
X409973Y242249D01*
X411140D01*
X411723Y241666D01*
Y241083D01*
X411140Y240500D01*
X410557D01*
X411140D01*
X411723Y239917D01*
Y239334D01*
X411140Y238751D01*
X409973D01*
X409390Y239334D01*
X430084Y274749D02*
Y271251D01*
X431834D01*
X432417Y271834D01*
Y274166D01*
X431834Y274749D01*
X430084D01*
X435916Y271251D02*
X433583D01*
X435916Y273583D01*
Y274166D01*
X435333Y274749D01*
X434166D01*
X433583Y274166D01*
X433565Y244749D02*
Y241251D01*
X435315D01*
X435898Y241834D01*
Y244166D01*
X435315Y244749D01*
X433565D01*
X437064Y241251D02*
X438230D01*
X437647D01*
Y244749D01*
X437064Y244166D01*
D11*
X332626Y274249D02*
Y270751D01*
X334376D01*
X334959Y271334D01*
Y273666D01*
X334376Y274249D01*
X332626D01*
X336125Y270751D02*
X337292D01*
X336708D01*
Y274249D01*
X336125Y273666D01*
X339041D02*
X339624Y274249D01*
X340790D01*
X341374Y273666D01*
Y271334D01*
X340790Y270751D01*
X339624D01*
X339041Y271334D01*
Y273666D01*
M02*
