G04*
G04 #@! TF.GenerationSoftware,Altium Limited,Altium Designer,21.4.1 (30)*
G04*
G04 Layer_Color=128*
%FSLAX25Y25*%
%MOIN*%
G70*
G04*
G04 #@! TF.SameCoordinates,C5A25FCA-50C6-4F6C-8C9A-811C773B13C6*
G04*
G04*
G04 #@! TF.FilePolarity,Positive*
G04*
G01*
G75*
%ADD25R,0.01181X0.05118*%
%ADD26R,0.06496X0.03543*%
%ADD27R,0.03347X0.02756*%
%ADD28R,0.02756X0.03347*%
%ADD29R,0.14173X0.07284*%
%ADD30R,0.07087X0.07874*%
%ADD31R,0.01772X0.08465*%
%ADD32R,0.12205X0.09449*%
%ADD33R,0.03740X0.03740*%
%ADD34R,0.03740X0.03740*%
%ADD35R,0.03543X0.06496*%
%ADD36R,0.05118X0.01181*%
D25*
X344000Y334500D02*
D03*
X341441D02*
D03*
X344000Y324461D02*
D03*
X341441D02*
D03*
X346559Y334500D02*
D03*
Y324461D02*
D03*
D26*
X334000Y297996D02*
D03*
Y310004D02*
D03*
X381000Y342004D02*
D03*
Y329996D02*
D03*
X334000Y334996D02*
D03*
Y347004D02*
D03*
X426000Y329996D02*
D03*
Y342004D02*
D03*
X404000Y329996D02*
D03*
Y342004D02*
D03*
X334000Y329004D02*
D03*
Y316996D02*
D03*
X439500Y357004D02*
D03*
Y344996D02*
D03*
X361000Y343996D02*
D03*
Y356004D02*
D03*
D27*
X413500Y349752D02*
D03*
Y356248D02*
D03*
X390000D02*
D03*
Y349752D02*
D03*
X332500Y255252D02*
D03*
Y261748D02*
D03*
X337000Y243752D02*
D03*
Y250248D02*
D03*
X355000Y332748D02*
D03*
Y326252D02*
D03*
D28*
X367752Y344500D02*
D03*
X374248D02*
D03*
X433252Y330000D02*
D03*
X439748D02*
D03*
D29*
X389342Y283289D02*
D03*
X368673D02*
D03*
D30*
X366484Y254789D02*
D03*
X384201D02*
D03*
D31*
X354842Y281108D02*
D03*
Y258470D02*
D03*
X349843D02*
D03*
X344843D02*
D03*
X339843D02*
D03*
X349843Y281108D02*
D03*
X344843D02*
D03*
X339843D02*
D03*
D32*
X347342Y269789D02*
D03*
D33*
X344500Y244047D02*
D03*
Y249953D02*
D03*
X332000Y287405D02*
D03*
Y281500D02*
D03*
D34*
X356295Y249789D02*
D03*
X350390D02*
D03*
D35*
X372496Y365500D02*
D03*
X384504D02*
D03*
X438004Y313000D02*
D03*
X425996D02*
D03*
X360996Y328500D02*
D03*
X373004D02*
D03*
X395496Y365500D02*
D03*
X407504D02*
D03*
X418496D02*
D03*
X430504D02*
D03*
D36*
X352539Y312500D02*
D03*
Y315059D02*
D03*
X342500Y312500D02*
D03*
Y315059D02*
D03*
X352539Y309941D02*
D03*
X342500D02*
D03*
M02*
