G04*
G04 #@! TF.GenerationSoftware,Altium Limited,Altium Designer,21.4.1 (30)*
G04*
G04 Layer_Color=255*
%FSLAX25Y25*%
%MOIN*%
G70*
G04*
G04 #@! TF.SameCoordinates,C5A25FCA-50C6-4F6C-8C9A-811C773B13C6*
G04*
G04*
G04 #@! TF.FilePolarity,Positive*
G04*
G01*
G75*
G04:AMPARAMS|DCode=12|XSize=78.74mil|YSize=43.31mil|CornerRadius=10.83mil|HoleSize=0mil|Usage=FLASHONLY|Rotation=180.000|XOffset=0mil|YOffset=0mil|HoleType=Round|Shape=RoundedRectangle|*
%AMROUNDEDRECTD12*
21,1,0.07874,0.02165,0,0,180.0*
21,1,0.05709,0.04331,0,0,180.0*
1,1,0.02165,-0.02854,0.01083*
1,1,0.02165,0.02854,0.01083*
1,1,0.02165,0.02854,-0.01083*
1,1,0.02165,-0.02854,-0.01083*
%
%ADD12ROUNDEDRECTD12*%
G04:AMPARAMS|DCode=13|XSize=78.74mil|YSize=43.31mil|CornerRadius=10.83mil|HoleSize=0mil|Usage=FLASHONLY|Rotation=270.000|XOffset=0mil|YOffset=0mil|HoleType=Round|Shape=RoundedRectangle|*
%AMROUNDEDRECTD13*
21,1,0.07874,0.02165,0,0,270.0*
21,1,0.05709,0.04331,0,0,270.0*
1,1,0.02165,-0.01083,-0.02854*
1,1,0.02165,-0.01083,0.02854*
1,1,0.02165,0.01083,0.02854*
1,1,0.02165,0.01083,-0.02854*
%
%ADD13ROUNDEDRECTD13*%
G04:AMPARAMS|DCode=21|XSize=66.93mil|YSize=78.74mil|CornerRadius=16.73mil|HoleSize=0mil|Usage=FLASHONLY|Rotation=270.000|XOffset=0mil|YOffset=0mil|HoleType=Round|Shape=RoundedRectangle|*
%AMROUNDEDRECTD21*
21,1,0.06693,0.04528,0,0,270.0*
21,1,0.03347,0.07874,0,0,270.0*
1,1,0.03346,-0.02264,-0.01673*
1,1,0.03346,-0.02264,0.01673*
1,1,0.03346,0.02264,0.01673*
1,1,0.03346,0.02264,-0.01673*
%
%ADD21ROUNDEDRECTD21*%
%ADD22O,0.07874X0.06693*%
%ADD23C,0.23622*%
D12*
X418500Y251000D02*
D03*
Y257693D02*
D03*
Y264386D02*
D03*
X437398Y251000D02*
D03*
Y257693D02*
D03*
Y264386D02*
D03*
X376000Y263992D02*
D03*
Y257299D02*
D03*
Y250606D02*
D03*
X357102Y263992D02*
D03*
Y257299D02*
D03*
Y250606D02*
D03*
D13*
X380945Y341602D02*
D03*
X374252D02*
D03*
X367559D02*
D03*
X380945Y360500D02*
D03*
X374252D02*
D03*
X367559D02*
D03*
X426001Y341602D02*
D03*
X419308D02*
D03*
X412615D02*
D03*
X426001Y360500D02*
D03*
X419308D02*
D03*
X412615D02*
D03*
X427193Y279602D02*
D03*
X420500D02*
D03*
X413807D02*
D03*
X427193Y298500D02*
D03*
X420500D02*
D03*
X413807D02*
D03*
X390307Y362898D02*
D03*
X397000D02*
D03*
X403693D02*
D03*
X390307Y344000D02*
D03*
X397000D02*
D03*
X403693D02*
D03*
X342614Y298500D02*
D03*
X349307D02*
D03*
X356000D02*
D03*
X342614Y279602D02*
D03*
X349307D02*
D03*
X356000D02*
D03*
X446193Y311102D02*
D03*
X439500D02*
D03*
X432807D02*
D03*
X446193Y330000D02*
D03*
X439500D02*
D03*
X432807D02*
D03*
X390114Y266000D02*
D03*
X396807D02*
D03*
X403500D02*
D03*
X390114Y247102D02*
D03*
X396807D02*
D03*
X403500D02*
D03*
X390307Y298500D02*
D03*
X397000D02*
D03*
X403693D02*
D03*
X390307Y279602D02*
D03*
X397000D02*
D03*
X403693D02*
D03*
X406614Y330000D02*
D03*
X413307D02*
D03*
X420000D02*
D03*
X406614Y311102D02*
D03*
X413307D02*
D03*
X420000D02*
D03*
X361500D02*
D03*
X354807D02*
D03*
X348114D02*
D03*
X361500Y330000D02*
D03*
X354807D02*
D03*
X348114D02*
D03*
X374614D02*
D03*
X381307D02*
D03*
X388000D02*
D03*
X374614Y311102D02*
D03*
X381307D02*
D03*
X388000D02*
D03*
X367614Y298500D02*
D03*
X374307D02*
D03*
X381000D02*
D03*
X367614Y279602D02*
D03*
X374307D02*
D03*
X381000D02*
D03*
X452000D02*
D03*
X445307D02*
D03*
X438614D02*
D03*
X452000Y298500D02*
D03*
X445307D02*
D03*
X438614D02*
D03*
D21*
X314500Y336685D02*
D03*
X315000Y290843D02*
D03*
D22*
X314500Y326842D02*
D03*
Y317000D02*
D03*
X315000Y281000D02*
D03*
D23*
X395000Y228500D02*
D03*
X342000Y363000D02*
D03*
M02*
