M48
;Layer_Color=9474304
;FILE_FORMAT=2:5
INCH,TZ
;TYPE=PLATED
T1F00S00C0.01968
T2F00S00C0.03937
T3F00S00C0.13386
%
T01
X324803Y236221
X314961Y255906
X324803Y275591
X397000Y257500
X423228Y236221
X452756Y255906
X433071Y295276
X374016Y216535
X305118Y275591
X295276Y295276
X305118Y314961
X295276Y334646
X324803Y354331
Y314961
X355000Y321000
X361500
X361000Y338500
X353000Y343000
X374500Y350500
X381000
X397000Y352500
X404000
X419500Y351500
X426000
X439500Y339000
X452756Y334646
X446000Y321000
X440000
X462598Y314961
X412500Y370500
X390500Y372500
X374016Y374016
X367500Y370000
X354331Y374016
T02
X315000Y281000
Y290843
X314500Y317000
Y326842
Y336685
T03
X395000Y228500
X342000Y363000
M30
