G04*
G04 #@! TF.GenerationSoftware,Altium Limited,Altium Designer,21.4.1 (30)*
G04*
G04 Layer_Color=16711935*
%FSLAX25Y25*%
%MOIN*%
G70*
G04*
G04 #@! TF.SameCoordinates,C5A25FCA-50C6-4F6C-8C9A-811C773B13C6*
G04*
G04*
G04 #@! TF.FilePolarity,Positive*
G04*
G01*
G75*
%ADD51C,0.01000*%
D51*
X469202Y302500D02*
X469197Y303500D01*
X469180Y304501D01*
X469153Y305500D01*
X469115Y306500D01*
X469066Y307499D01*
X469006Y308498D01*
X468935Y309495D01*
X468853Y310492D01*
X468760Y311488D01*
X468657Y312483D01*
X468543Y313477D01*
X468417Y314470D01*
X468282Y315460D01*
X468135Y316450D01*
X467977Y317438D01*
X467809Y318424D01*
X467630Y319408D01*
X467440Y320390D01*
X467239Y321370D01*
X467028Y322348D01*
X466806Y323323D01*
X466574Y324296D01*
X466331Y325267D01*
X466077Y326234D01*
X465813Y327199D01*
X465539Y328161D01*
X465253Y329120D01*
X464958Y330075D01*
X464652Y331028D01*
X464335Y331977D01*
X464009Y332922D01*
X463672Y333864D01*
X463324Y334802D01*
X462967Y335736D01*
X462599Y336667D01*
X462222Y337593D01*
X461834Y338515D01*
X461436Y339433D01*
X461028Y340346D01*
X460610Y341255D01*
X460183Y342159D01*
X459745Y343059D01*
X459298Y343953D01*
X458841Y344843D01*
X458374Y345728D01*
X457898Y346608D01*
X457412Y347482D01*
X456916Y348351D01*
X456411Y349215D01*
X455897Y350073D01*
X455373Y350925D01*
X454841Y351771D01*
X454299Y352612D01*
X453747Y353447D01*
X453187Y354276D01*
X452618Y355098D01*
X452040Y355914D01*
X451452Y356724D01*
X450857Y357528D01*
X450252Y358325D01*
X449639Y359115D01*
X449017Y359898D01*
X448387Y360675D01*
X447748Y361445D01*
X447101Y362208D01*
X446445Y362963D01*
X445782Y363712D01*
X445110Y364453D01*
X444430Y365187D01*
X443742Y365913D01*
X443047Y366632D01*
X442343Y367343D01*
X441632Y368046D01*
X440913Y368742D01*
X440187Y369430D01*
X439453Y370110D01*
X438712Y370781D01*
X437963Y371445D01*
X437208Y372101D01*
X436445Y372748D01*
X435675Y373387D01*
X434898Y374017D01*
X434115Y374639D01*
X433325Y375252D01*
X432528Y375857D01*
X431724Y376453D01*
X430914Y377040D01*
X430098Y377618D01*
X429276Y378187D01*
X428447Y378747D01*
X427612Y379299D01*
X426771Y379841D01*
X425925Y380374D01*
X425072Y380897D01*
X424215Y381411D01*
X423351Y381916D01*
X422482Y382412D01*
X421608Y382898D01*
X420728Y383374D01*
X419843Y383841D01*
X418954Y384298D01*
X418059Y384745D01*
X417159Y385182D01*
X416255Y385610D01*
X415346Y386028D01*
X414433Y386436D01*
X413515Y386834D01*
X412593Y387222D01*
X411667Y387599D01*
X410736Y387967D01*
X409802Y388324D01*
X408864Y388672D01*
X407922Y389009D01*
X406977Y389335D01*
X406028Y389652D01*
X405075Y389958D01*
X404120Y390253D01*
X403161Y390539D01*
X402199Y390813D01*
X401234Y391077D01*
X400267Y391331D01*
X399296Y391574D01*
X398323Y391806D01*
X397348Y392028D01*
X396370Y392239D01*
X395390Y392440D01*
X394408Y392630D01*
X393424Y392809D01*
X392438Y392977D01*
X391450Y393135D01*
X390460Y393282D01*
X389470Y393417D01*
X388477Y393543D01*
X387483Y393657D01*
X386488Y393760D01*
X385492Y393853D01*
X384495Y393935D01*
X383498Y394006D01*
X382499Y394066D01*
X381500Y394115D01*
X380500Y394153D01*
X379501Y394180D01*
X378500Y394197D01*
X377500Y394202D01*
X376500Y394197D01*
X375500Y394180D01*
X374500Y394153D01*
X373500Y394115D01*
X372501Y394066D01*
X371502Y394006D01*
X370505Y393935D01*
X369508Y393853D01*
X368512Y393760D01*
X367517Y393657D01*
X366523Y393543D01*
X365530Y393417D01*
X364540Y393282D01*
X363550Y393135D01*
X362562Y392977D01*
X361576Y392809D01*
X360592Y392630D01*
X359610Y392440D01*
X358630Y392239D01*
X357652Y392028D01*
X356677Y391806D01*
X355704Y391574D01*
X354733Y391331D01*
X353766Y391077D01*
X352801Y390813D01*
X351839Y390539D01*
X350880Y390253D01*
X349925Y389958D01*
X348972Y389652D01*
X348023Y389335D01*
X347078Y389009D01*
X346136Y388672D01*
X345198Y388324D01*
X344264Y387967D01*
X343333Y387599D01*
X342407Y387222D01*
X341485Y386834D01*
X340567Y386436D01*
X339654Y386028D01*
X338745Y385610D01*
X337841Y385182D01*
X336941Y384745D01*
X336047Y384298D01*
X335157Y383841D01*
X334272Y383374D01*
X333392Y382898D01*
X332518Y382412D01*
X331649Y381916D01*
X330785Y381411D01*
X329927Y380897D01*
X329075Y380374D01*
X328229Y379841D01*
X327388Y379299D01*
X326553Y378747D01*
X325724Y378187D01*
X324902Y377618D01*
X324086Y377040D01*
X323276Y376453D01*
X322472Y375857D01*
X321675Y375252D01*
X320885Y374639D01*
X320102Y374017D01*
X319325Y373387D01*
X318555Y372748D01*
X317792Y372101D01*
X317037Y371445D01*
X316288Y370781D01*
X315547Y370110D01*
X314813Y369430D01*
X314087Y368742D01*
X313368Y368046D01*
X312657Y367343D01*
X311953Y366632D01*
X311258Y365913D01*
X310570Y365187D01*
X309890Y364453D01*
X309219Y363712D01*
X308555Y362963D01*
X307899Y362208D01*
X307252Y361445D01*
X306613Y360675D01*
X305983Y359898D01*
X305361Y359115D01*
X304748Y358325D01*
X304143Y357528D01*
X303547Y356724D01*
X302960Y355914D01*
X302382Y355098D01*
X301813Y354276D01*
X301253Y353447D01*
X300701Y352612D01*
X300159Y351771D01*
X299626Y350925D01*
X299103Y350073D01*
X298589Y349215D01*
X298084Y348351D01*
X297588Y347482D01*
X297102Y346608D01*
X296626Y345728D01*
X296159Y344843D01*
X295702Y343953D01*
X295255Y343059D01*
X294817Y342159D01*
X294390Y341255D01*
X293972Y340346D01*
X293564Y339433D01*
X293166Y338515D01*
X292778Y337593D01*
X292401Y336667D01*
X292033Y335736D01*
X291676Y334802D01*
X291328Y333864D01*
X290991Y332922D01*
X290665Y331977D01*
X290348Y331028D01*
X290042Y330075D01*
X289747Y329120D01*
X289461Y328161D01*
X289187Y327199D01*
X288923Y326234D01*
X288669Y325267D01*
X288426Y324296D01*
X288194Y323323D01*
X287972Y322348D01*
X287761Y321370D01*
X287560Y320390D01*
X287370Y319408D01*
X287191Y318424D01*
X287023Y317438D01*
X286865Y316450D01*
X286719Y315460D01*
X286583Y314470D01*
X286457Y313477D01*
X286343Y312483D01*
X286240Y311488D01*
X286147Y310492D01*
X286065Y309495D01*
X285994Y308498D01*
X285934Y307499D01*
X285885Y306500D01*
X285847Y305500D01*
X285820Y304501D01*
X285804Y303500D01*
X285798Y302500D01*
X285804Y301500D01*
X285820Y300500D01*
X285847Y299500D01*
X285885Y298500D01*
X285934Y297501D01*
X285994Y296502D01*
X286065Y295505D01*
X286147Y294508D01*
X286240Y293512D01*
X286343Y292517D01*
X286457Y291523D01*
X286583Y290530D01*
X286719Y289540D01*
X286865Y288550D01*
X287023Y287562D01*
X287191Y286576D01*
X287370Y285592D01*
X287560Y284610D01*
X287761Y283630D01*
X287972Y282652D01*
X288194Y281677D01*
X288426Y280704D01*
X288669Y279733D01*
X288923Y278766D01*
X289187Y277801D01*
X289461Y276839D01*
X289747Y275880D01*
X290042Y274925D01*
X290348Y273972D01*
X290665Y273023D01*
X290991Y272078D01*
X291328Y271136D01*
X291676Y270198D01*
X292033Y269264D01*
X292401Y268333D01*
X292778Y267407D01*
X293166Y266485D01*
X293564Y265567D01*
X293972Y264654D01*
X294390Y263745D01*
X294817Y262841D01*
X295255Y261941D01*
X295702Y261047D01*
X296159Y260157D01*
X296626Y259272D01*
X297102Y258392D01*
X297588Y257518D01*
X298084Y256649D01*
X298589Y255785D01*
X299103Y254927D01*
X299626Y254075D01*
X300159Y253229D01*
X300701Y252388D01*
X301253Y251553D01*
X301813Y250724D01*
X302382Y249902D01*
X302960Y249086D01*
X303547Y248276D01*
X304143Y247472D01*
X304748Y246675D01*
X305361Y245885D01*
X305983Y245102D01*
X306613Y244325D01*
X307252Y243555D01*
X307899Y242792D01*
X308555Y242037D01*
X309219Y241288D01*
X309890Y240547D01*
X310570Y239813D01*
X311258Y239087D01*
X311953Y238368D01*
X312657Y237657D01*
X313368Y236953D01*
X314087Y236258D01*
X314813Y235570D01*
X315547Y234890D01*
X316288Y234219D01*
X317037Y233555D01*
X317792Y232899D01*
X318555Y232252D01*
X319325Y231613D01*
X320102Y230983D01*
X320885Y230361D01*
X321675Y229748D01*
X322472Y229143D01*
X323276Y228547D01*
X324086Y227960D01*
X324902Y227382D01*
X325724Y226813D01*
X326553Y226253D01*
X327388Y225701D01*
X328229Y225159D01*
X329075Y224626D01*
X329927Y224103D01*
X330785Y223589D01*
X331649Y223084D01*
X332518Y222588D01*
X333392Y222102D01*
X334272Y221626D01*
X335157Y221159D01*
X336047Y220702D01*
X336941Y220255D01*
X337841Y219817D01*
X338745Y219390D01*
X339654Y218972D01*
X340567Y218564D01*
X341485Y218166D01*
X342407Y217778D01*
X343333Y217401D01*
X344264Y217033D01*
X345198Y216676D01*
X346136Y216328D01*
X347078Y215991D01*
X348023Y215665D01*
X348972Y215348D01*
X349925Y215042D01*
X350880Y214747D01*
X351839Y214461D01*
X352801Y214187D01*
X353766Y213923D01*
X354733Y213669D01*
X355704Y213426D01*
X356677Y213194D01*
X357652Y212972D01*
X358630Y212761D01*
X359610Y212560D01*
X360592Y212370D01*
X361576Y212191D01*
X362562Y212023D01*
X363550Y211865D01*
X364540Y211719D01*
X365530Y211583D01*
X366523Y211457D01*
X367517Y211343D01*
X368512Y211240D01*
X369508Y211147D01*
X370505Y211065D01*
X371502Y210994D01*
X372501Y210934D01*
X373500Y210885D01*
X374500Y210847D01*
X375500Y210820D01*
X376500Y210804D01*
X377500Y210798D01*
X378500Y210804D01*
X379501Y210820D01*
X380500Y210847D01*
X381500Y210885D01*
X382499Y210934D01*
X383498Y210994D01*
X384495Y211065D01*
X385492Y211147D01*
X386488Y211240D01*
X387483Y211343D01*
X388477Y211457D01*
X389470Y211583D01*
X390460Y211719D01*
X391450Y211865D01*
X392438Y212023D01*
X393424Y212191D01*
X394408Y212370D01*
X395390Y212560D01*
X396370Y212761D01*
X397348Y212972D01*
X398323Y213194D01*
X399296Y213426D01*
X400267Y213669D01*
X401234Y213923D01*
X402199Y214187D01*
X403161Y214461D01*
X404120Y214747D01*
X405075Y215042D01*
X406028Y215348D01*
X406977Y215665D01*
X407922Y215991D01*
X408864Y216328D01*
X409802Y216676D01*
X410736Y217033D01*
X411667Y217401D01*
X412593Y217778D01*
X413515Y218166D01*
X414433Y218564D01*
X415346Y218972D01*
X416255Y219390D01*
X417159Y219817D01*
X418059Y220255D01*
X418954Y220702D01*
X419843Y221159D01*
X420728Y221626D01*
X421608Y222102D01*
X422482Y222588D01*
X423351Y223084D01*
X424215Y223589D01*
X425072Y224103D01*
X425925Y224626D01*
X426771Y225159D01*
X427612Y225701D01*
X428447Y226253D01*
X429276Y226813D01*
X430098Y227382D01*
X430914Y227960D01*
X431724Y228547D01*
X432528Y229143D01*
X433325Y229748D01*
X434115Y230361D01*
X434898Y230983D01*
X435675Y231613D01*
X436445Y232252D01*
X437208Y232899D01*
X437963Y233555D01*
X438712Y234219D01*
X439453Y234890D01*
X440187Y235570D01*
X440913Y236258D01*
X441632Y236953D01*
X442343Y237657D01*
X443047Y238368D01*
X443742Y239087D01*
X444430Y239813D01*
X445110Y240547D01*
X445782Y241288D01*
X446445Y242037D01*
X447101Y242792D01*
X447748Y243555D01*
X448387Y244325D01*
X449017Y245102D01*
X449639Y245885D01*
X450252Y246675D01*
X450857Y247472D01*
X451452Y248276D01*
X452040Y249086D01*
X452618Y249902D01*
X453187Y250724D01*
X453747Y251553D01*
X454299Y252388D01*
X454841Y253229D01*
X455373Y254075D01*
X455897Y254927D01*
X456411Y255785D01*
X456916Y256649D01*
X457412Y257518D01*
X457898Y258392D01*
X458374Y259272D01*
X458841Y260157D01*
X459298Y261047D01*
X459745Y261941D01*
X460183Y262841D01*
X460610Y263745D01*
X461028Y264654D01*
X461436Y265567D01*
X461834Y266485D01*
X462222Y267407D01*
X462599Y268333D01*
X462967Y269264D01*
X463324Y270198D01*
X463672Y271136D01*
X464009Y272078D01*
X464335Y273023D01*
X464652Y273972D01*
X464958Y274925D01*
X465253Y275880D01*
X465539Y276839D01*
X465813Y277801D01*
X466077Y278766D01*
X466331Y279733D01*
X466574Y280704D01*
X466806Y281677D01*
X467028Y282652D01*
X467239Y283630D01*
X467440Y284610D01*
X467630Y285592D01*
X467809Y286576D01*
X467977Y287562D01*
X468135Y288550D01*
X468282Y289540D01*
X468417Y290530D01*
X468543Y291523D01*
X468657Y292517D01*
X468760Y293512D01*
X468853Y294508D01*
X468935Y295505D01*
X469006Y296502D01*
X469066Y297501D01*
X469115Y298500D01*
X469153Y299500D01*
X469180Y300500D01*
X469197Y301500D01*
X469202Y302500D01*
M02*
